<?xml version="1.0" encoding="utf-8"?>
<!-- Generator: Adobe Illustrator 17.0.0, SVG Export Plug-In . SVG Version: 6.00 Build 0)  -->
<!DOCTYPE svg PUBLIC "-//W3C//DTD SVG 1.1//EN" "http://www.w3.org/Graphics/SVG/1.1/DTD/svg11.dtd">
<svg version="1.1" id="Layer_1" xmlns="http://www.w3.org/2000/svg" xmlns:xlink="http://www.w3.org/1999/xlink" x="0px" y="0px"
	 width="360.036px" height="306.031px" viewBox="-830.828 -86.73 360.036 306.031"
	 enable-background="new -830.828 -86.73 360.036 306.031" xml:space="preserve">
<g>
	<g>
		<g>
			<path fill="#A64A9C" d="M-585.498,174.287c-10.643,0-20.613-4.039-28.073-11.374c-6.69-6.578-14.64-9.776-24.3-9.776
				c-11.734,0-24.611,4.671-37.064,9.188c-12.668,4.596-24.635,8.936-35.829,8.936c-2.078,0-4.093-0.156-5.987-0.465
				c-9.994-1.626-17.789-6.412-23.169-14.226c-12.56-18.239-8.497-47.908-5.948-60.638c-5.945-9.59-15.381-15.801-24.512-21.811
				c-5.807-3.822-11.805-7.77-16.825-12.546l-0.005,0.005l-0.802-0.788c0,0-0.013-0.014-0.015-0.015l1.401-1.426l-1.401,1.426
				c-0.002-0.001-1.42-1.395-1.42-1.395l-1.631-1.604c-0.285-0.281-0.676-0.664-0.879-1.159c-7.243-8.286-9.697-15.305-7.494-21.358
				c5.434-14.938,38.852-17.587,60.965-19.34c7.598-0.603,14.775-1.171,16.595-2.043c21.089-10.11,19.625-16.405,16.968-27.832
				c-1.028-4.419-2.193-9.427-2.244-15.444c-0.058-6.824,2.539-13.234,7.312-18.048c5.05-5.093,12.056-8.014,19.222-8.014
				c6.65,0,12.945,2.588,17.726,7.288c25.943,25.507,55.721,41.021,92.448,56.469c2.805,1.165,5.751,1.732,8.999,1.732
				c6.43,0,13.078-2.28,19.509-4.484c6.339-2.173,12.894-4.42,19.191-4.42c10.271,0,18.068,5.897,24.541,18.56
				c14.648,28.657-4.899,39.545-23.804,50.075c-12.103,6.741-24.617,13.712-29.241,25.399c-3.428,9.116-0.812,16.648,1.958,24.624
				c3.311,9.532,6.734,19.389,0.254,32.365C-555.872,165.804-569.837,174.287-585.498,174.287z"/>
		</g>
		<g>
			<path fill="#D087BA" d="M-680.635-53.46c5.766,0,11.602,2.072,16.323,6.714c26.515,26.068,57.424,41.892,93.075,56.887
				c3.247,1.348,6.509,1.889,9.774,1.889c13.249,0,26.517-8.905,38.7-8.904c8.187,0,15.886,4.022,22.76,17.47
				c22.76,44.525-40.751,42.557-53.123,73.829c-7.884,20.959,13.771,33.825,2.282,56.831c-6.811,13.64-20.677,21.031-34.655,21.031
				c-9.584,0-19.223-3.478-26.671-10.8c-7.741-7.611-16.47-10.351-25.702-10.351c-23.744,0-50.809,18.124-72.894,18.124
				c-1.929,0-3.819-0.138-5.667-0.438c-33.891-5.515-32.625-47.552-27.322-73.258c-10.066-16.955-29.823-23.383-42.701-36.044
				c-45.653-44.886,55.673-39.164,65.428-43.838c30.941-14.833,16.039-23.759,15.859-45.097
				C-705.289-43.754-693.121-53.46-680.635-53.46 M-790.08,55.956c0,0,0.48,0.472,1.76,1.729
				C-789.249,56.772-790.08,55.956-790.08,55.956 M-788.32,57.685c0.643,0.631,1.331,1.309,1.825,1.794
				C-787.232,58.756-787.834,58.164-788.32,57.685 M-786.495,59.48c0.014,0.014,0.026,0.026,0.04,0.04
				c0.008,0.006,0.014,0.013,0.021,0.02C-786.455,59.52-786.475,59.5-786.495,59.48 M-786.435,59.539
				c0.001,0.001,0.003,0.003,0.004,0.004C-786.432,59.542-786.434,59.541-786.435,59.539 M-786.431,59.543
				c0.001,0.001,0.003,0.003,0.004,0.004C-786.428,59.546-786.43,59.545-786.431,59.543 M-786.427,59.547
				c0.374,0.368,0.62,0.609,0.619,0.609C-785.808,60.156-785.988,59.978-786.427,59.547 M-680.635-57.46
				c-7.695,0-15.219,3.137-20.642,8.605c-5.151,5.195-7.954,12.111-7.892,19.474c0.053,6.237,1.244,11.36,2.296,15.88
				c1.262,5.427,2.174,9.348,0.661,12.86c-1.772,4.113-7.029,8.154-16.545,12.716c-1.584,0.719-9.185,1.321-15.89,1.853
				c-23.976,1.9-56.812,4.502-62.688,20.646c-2.542,6.985,0.257,14.907,8.554,24.13l2.701-2.747l-1.703,1.733l-0.998,1.014h0.001
				l-0.104,0.106l0.104-0.105c0,0,0.001,0.001,0.002,0.002l-0.104,0.105l1.692,1.665l0.029-0.029c0,0.001,0.001,0.002,0.002,0.002
				l-0.028,0.028l0.028-0.028c0.001,0.001,0,0.001,0.002,0.002l2.776-2.824l-2.776,2.824c0.001,0.001,0.004,0.003,0.004,0.005
				l-0.027,0.028l0.028-0.028c0.001,0.002,0.003,0.003,0.005,0.005l-0.027,0.028l0.006,0.007l0.027-0.028
				c0.003,0.002,0.005,0.004,0.008,0.007l-0.027,0.027l0.013,0.013l0.026-0.027c0.008,0.007,0.014,0.014,0.021,0.021l-0.026,0.027
				l1.044,1.026l0,0l0.781,0.769c0.001,0,0.001,0.001,0.001,0.001l2.748-2.796l-2.748,2.796c0.005,0.004,0.007,0.006,0.012,0.01
				l0.295-0.3l-0.143,0.146l-0.152,0.154l0.001,0.001l0,0c0.002,0.002,0.003,0.003,0.005,0.005l0,0c0.001,0,0.002,0.001,0.002,0.002
				l0.02,0.019l0,0l0.003,0.003l0.009,0.008l0.012,0.013l0.002,0.001l0.006,0.005l0.014,0.013l0.603,0.592l4.249,4.18l0.148-0.362
				c4.064,3.26,8.451,6.147,12.736,8.968c9.133,6.012,17.785,11.706,23.493,20.534c-2.601,13.391-6.315,42.885,6.417,61.377
				c5.701,8.279,13.943,13.349,24.494,15.065c2.002,0.325,4.124,0.49,6.31,0.49c11.546,0,24.237-4.604,36.511-9.056
				c12.291-4.458,24.999-9.068,36.383-9.068c9.109,0,16.6,3.011,22.897,9.203c7.837,7.704,18.305,11.947,29.476,11.947
				c16.424,0,31.074-8.906,38.234-23.244c6.856-13.729,3.132-24.453-0.154-33.915c-2.76-7.945-5.144-14.808-1.975-23.264
				c4.372-11.005,16.558-17.792,28.342-24.356c18.813-10.479,40.138-22.357,24.61-52.732c-6.758-13.222-15.367-19.649-26.321-19.649
				c-6.631,0-13.346,2.302-19.84,4.528c-6.275,2.151-12.764,4.376-18.86,4.376c-2.98,0-5.676-0.518-8.24-1.583
				c-36.499-15.352-66.088-30.761-91.806-56.045C-666.663-54.668-673.457-57.46-680.635-57.46L-680.635-57.46z"/>
		</g>
	</g>
	<g>
		<g>
			<path fill="#A64A9C" d="M-651.147,202.6c-5.074,0-9.863-1.96-13.482-5.519c-7.562-7.435-7.666-19.637-0.23-27.199
				c3.645-3.707,8.516-5.749,13.716-5.749c5.075,0,9.863,1.96,13.483,5.519c7.562,7.436,7.665,19.637,0.229,27.199
				C-641.075,200.558-645.946,202.6-651.147,202.6z"/>
		</g>
		<g>
			<path fill="#D087BA" d="M-651.144,166.133c4.361,0,8.726,1.645,12.081,4.944c6.786,6.673,6.879,17.584,0.206,24.371
				c-3.373,3.431-7.831,5.151-12.29,5.151c-4.361,0-8.725-1.646-12.08-4.944c-6.787-6.673-6.879-17.584-0.207-24.371
				C-660.061,167.853-655.604,166.133-651.144,166.133 M-651.143,162.133L-651.143,162.133c-5.741,0-11.119,2.254-15.144,6.347
				c-8.208,8.35-8.094,21.819,0.255,30.028c3.996,3.929,9.282,6.092,14.885,6.092c5.741,0,11.118-2.254,15.143-6.347
				c8.208-8.349,8.094-21.819-0.254-30.028C-640.254,164.296-645.54,162.133-651.143,162.133L-651.143,162.133z"/>
		</g>
	</g>
	<g>
		<g>
			<path fill="#A64A9C" d="M-619.955-38.792c-4.102,0-7.972-1.584-10.896-4.459c-2.96-2.911-4.609-6.8-4.645-10.951
				c-0.035-4.151,1.548-8.068,4.459-11.028c2.944-2.996,6.881-4.646,11.082-4.646c4.102,0,7.972,1.583,10.896,4.459
				c6.11,6.009,6.194,15.869,0.186,21.979C-611.817-40.442-615.754-38.792-619.955-38.792z"/>
		</g>
		<g>
			<path fill="#D087BA" d="M-619.955-67.876c3.428,0,6.857,1.293,9.494,3.885c5.332,5.243,5.406,13.817,0.162,19.151
				c-2.65,2.695-6.152,4.047-9.656,4.047c-3.428,0-6.857-1.293-9.494-3.886c-5.332-5.243-5.406-13.817-0.162-19.15
				C-626.961-66.524-623.458-67.876-619.955-67.876 M-619.954-71.876L-619.954-71.876c-4.743,0-9.186,1.863-12.51,5.244
				c-3.285,3.341-5.072,7.761-5.032,12.447c0.04,4.685,1.901,9.074,5.242,12.359c3.302,3.246,7.669,5.034,12.299,5.034
				c4.742,0,9.185-1.862,12.509-5.243c6.781-6.897,6.687-18.026-0.21-24.808C-610.958-70.088-615.325-71.876-619.954-71.876
				L-619.954-71.876z"/>
		</g>
	</g>
	<g>
		<g>
			<path fill="#A64A9C" d="M-569.298-10.088c-3.074,0-5.952-1.166-8.104-3.282c-2.18-2.143-3.395-5.037-3.421-8.149
				c-0.026-3.113,1.139-6.027,3.282-8.206c2.168-2.206,5.099-3.42,8.249-3.42c3.074,0,5.953,1.166,8.105,3.282
				c2.179,2.142,3.394,5.036,3.42,8.149s-1.14,6.027-3.282,8.206C-563.217-11.303-566.147-10.088-569.298-10.088
				C-569.297-10.088-569.297-10.088-569.298-10.088z"/>
		</g>
		<g>
			<path fill="#D087BA" d="M-569.292-31.146c2.433,0,4.865,0.901,6.703,2.708c3.718,3.655,3.77,9.809,0.114,13.526
				c-1.849,1.88-4.335,2.823-6.822,2.823c-2.433,0-4.866-0.901-6.703-2.708c-3.719-3.656-3.771-9.809-0.115-13.526
				C-574.267-30.203-571.78-31.146-569.292-31.146 M-569.292-35.146c-3.691,0-7.128,1.427-9.676,4.019
				c-2.517,2.56-3.887,5.978-3.855,9.625c0.031,3.646,1.459,7.041,4.02,9.558c2.527,2.486,5.904,3.855,9.507,3.855
				c3.691,0,7.127-1.427,9.675-4.019c2.517-2.56,3.886-5.978,3.855-9.625s-1.458-7.042-4.019-9.558
				C-562.314-33.776-565.69-35.146-569.292-35.146L-569.292-35.146z"/>
		</g>
	</g>
	<g>
		<g>
			<path fill="#A64A9C" d="M-792.983,127.636c-6.88,0-13.724-3.055-19.793-8.833c-3.59-3.418-4.377-8.549-2.106-13.726
				c3.072-7.004,8.031-11.85,14.342-14.012c2.43-0.834,5.1-1.239,8.161-1.239c3.08,0,6.136,0.403,9.091,0.793l0.726,0.095
				c0.057,0.008,0.112,0.017,0.165,0.026c0.949-0.249,1.918-0.374,2.891-0.374c0.93,0,1.862,0.116,2.771,0.345
				c2.974,0.75,5.592,2.753,7.185,5.496c1.558,2.685,1.977,5.739,1.179,8.602c-3.306,11.86-10.191,19.92-18.891,22.112
				C-789.147,127.396-791.072,127.636-792.983,127.636L-792.983,127.636z"/>
		</g>
		<g>
			<path fill="#D087BA" d="M-792.38,91.827c3.195,0,6.42,0.461,9.557,0.871c0.172,0.023,0.334,0.067,0.5,0.102
				c0.899-0.281,1.847-0.433,2.815-0.433c0.751,0,1.516,0.091,2.283,0.284c4.961,1.251,8.323,6.605,6.925,11.621
				c-2.462,8.833-7.869,18.295-17.452,20.71c-1.77,0.445-3.518,0.654-5.231,0.654c-6.907,0-13.274-3.387-18.414-8.281
				c-3.296-3.138-3.365-7.571-1.653-11.474c2.598-5.922,6.936-10.791,13.158-12.924C-797.445,92.118-794.922,91.827-792.38,91.827
				 M-792.38,87.827c-3.286,0-6.168,0.44-8.812,1.348c-6.852,2.349-12.219,7.57-15.522,15.101
				c-2.624,5.98-1.667,11.953,2.558,15.977c6.448,6.14,13.77,9.385,21.173,9.385c2.076,0,4.165-0.261,6.208-0.775
				c9.416-2.373,16.824-10.943,20.328-23.515c0.945-3.387,0.456-6.988-1.375-10.143c-1.861-3.206-4.932-5.551-8.425-6.432
				c-1.069-0.27-2.166-0.405-3.261-0.405c-1.005,0-2.007,0.113-2.99,0.339l-0.529-0.069
				C-786.046,88.239-789.168,87.827-792.38,87.827L-792.38,87.827z"/>
		</g>
	</g>
	<g>
		<g>
			<path fill="#A64A9C" d="M-511.222,144.616c-0.964,0-1.929-0.088-2.869-0.261c-7.146-1.315-14.049-6.697-13.417-14.439
				c0.17-2.086,0.478-3.647,1.093-5.522c-0.301-3.734,1.347-7.5,4.312-9.915c0.408-2.346,1.494-4.502,3.111-6.147
				c2.161-2.198,5.049-3.409,8.131-3.409c3.014,0,5.918,1.146,8.177,3.225c0.065,0.056,0.281,0.224,0.502,0.396
				c0.255,0.2,0.512,0.402,0.739,0.62c0.193,0.138,0.386,0.274,0.578,0.412c0.381,0.28,0.747,0.538,1.118,0.799
				c1.294,0.909,2.76,1.939,3.893,3.284c2.068,2.456,3.237,4.351,4.313,6.989c1.621,3.979,0.411,7.472-0.851,10.434
				C-495.255,137.807-502.644,144.616-511.222,144.616L-511.222,144.616z"/>
		</g>
		<g>
			<path fill="#D087BA" d="M-510.86,106.921c2.442,0,4.898,0.925,6.822,2.696c0.181,0.165,1.376,1.074,1.325,1.074
				c-0.017,0-0.157-0.092-0.495-0.326c-0.073-0.052-0.147-0.104-0.222-0.155c0.082,0.058,0.155,0.109,0.222,0.155
				c0.396,0.277,0.789,0.557,1.183,0.837c1.549,1.146,3.379,2.244,4.643,3.744c1.822,2.164,2.934,3.863,3.991,6.456
				c1.28,3.143,0.414,5.952-0.839,8.895c-2.817,6.616-9.673,12.318-16.991,12.318c-0.831,0-1.669-0.073-2.507-0.228
				c-5.848-1.076-12.34-5.527-11.786-12.31c0.16-1.967,0.445-3.397,1.04-5.185c0.03-0.094,0.06-0.191,0.091-0.287
				c-0.437-3.529,1.271-7.043,4.149-9.033c0.211-2.16,1.117-4.262,2.67-5.842C-515.697,107.832-513.285,106.921-510.86,106.921
				 M-510.86,102.921c-3.623,0-7.017,1.423-9.557,4.006c-1.733,1.765-2.947,4.021-3.511,6.484c-3.01,2.737-4.699,6.725-4.508,10.729
				c-0.586,1.859-0.893,3.484-1.066,5.613c-0.729,8.924,7.02,15.09,15.05,16.567c1.06,0.195,2.146,0.294,3.23,0.294
				c8.472,0,16.973-6.065,20.671-14.751c1.524-3.578,2.684-7.505,0.863-11.971c-1.164-2.854-2.42-4.893-4.636-7.523
				c-1.301-1.545-2.88-2.654-4.272-3.633c-0.357-0.252-0.711-0.499-1.05-0.75l-0.028-0.021l-0.028-0.02
				c-0.175-0.125-0.35-0.25-0.525-0.374c-0.268-0.248-0.522-0.448-0.719-0.603c-0.172-0.135-0.34-0.267-0.441-0.35
				C-503.999,104.239-507.364,102.921-510.86,102.921L-510.86,102.921z"/>
		</g>
	</g>
</g>
<g>
	<path fill="#FFFFFF" d="M-715.913,47.09h20.402c3.567,0,6.379,0.725,8.439,2.175c2.059,1.45,3.088,3.582,3.088,6.395
		c0,1.392-0.261,2.582-0.783,3.567c-0.522,0.986-1.16,1.798-1.914,2.436s-1.544,1.131-2.371,1.479s-1.544,0.581-2.153,0.696v0.435
		c0.638,0.059,1.421,0.196,2.349,0.414c0.928,0.217,1.812,0.609,2.653,1.174s1.559,1.349,2.153,2.349
		c0.594,1.001,0.892,2.313,0.892,3.938s-0.334,2.994-1,4.111c-0.667,1.115-1.566,2.021-2.697,2.719
		c-1.131,0.695-2.443,1.195-3.937,1.5s-3.067,0.457-4.72,0.457h-20.402V73.8h2.61V54.225h-2.61L-715.913,47.09L-715.913,47.09z
		 M-698.774,61.357c0.841,0,1.472-0.217,1.892-0.652s0.631-1.145,0.631-2.131v-1.566c0-0.986-0.21-1.697-0.631-2.132
		s-1.051-0.652-1.892-0.652h-2.349v7.134L-698.774,61.357L-698.774,61.357z M-698.469,73.798c0.84,0,1.471-0.217,1.892-0.652
		c0.42-0.436,0.631-1.145,0.631-2.131v-1.914c0-0.986-0.211-1.697-0.631-2.132c-0.421-0.435-1.052-0.653-1.892-0.653h-2.654v7.482
		L-698.469,73.798L-698.469,73.798z"/>
	<path fill="#FFFFFF" d="M-664.713,73.798h2.61l-0.739-3.436h-5.873l-0.696,3.436h2.61v7.135h-14.877v-7.135h1.74l7.352-26.708
		h15.834l7.352,26.708h1.74v7.135h-17.052L-664.713,73.798L-664.713,73.798z M-667.758,65.751h4.002l-1.784-8.7h-0.435
		L-667.758,65.751z"/>
	<path fill="#FFFFFF" d="M-628.781,67.056h10.439v11.266c-0.58,0.35-1.283,0.719-2.109,1.109c-0.827,0.393-1.784,0.74-2.871,1.045
		c-1.088,0.305-2.32,0.559-3.697,0.762c-1.378,0.201-2.922,0.305-4.633,0.305c-2.553,0-4.858-0.32-6.917-0.957
		c-2.06-0.639-3.813-1.654-5.264-3.045c-1.45-1.393-2.566-3.198-3.35-5.416c-0.782-2.219-1.174-4.923-1.174-8.113
		c0-3.161,0.392-5.858,1.174-8.091c0.783-2.232,1.893-4.045,3.328-5.438c1.436-1.392,3.183-2.407,5.242-3.045
		c2.059-0.637,4.35-0.957,6.873-0.957c1.739,0,3.291,0.102,4.654,0.305c1.362,0.203,2.588,0.457,3.676,0.761
		c1.087,0.305,2.044,0.652,2.871,1.044c0.826,0.392,1.559,0.761,2.196,1.109v10.875h-10.439v-3.132c0-1.131-0.247-1.95-0.74-2.458
		c-0.493-0.507-1.232-0.761-2.218-0.761s-1.727,0.254-2.219,0.761c-0.493,0.508-0.739,1.327-0.739,2.458V70.58
		c0,1.131,0.246,1.951,0.739,2.458c0.492,0.507,1.232,0.761,2.219,0.761c0.985,0,1.725-0.254,2.218-0.761s0.74-1.327,0.74-2.458
		L-628.781,67.056L-628.781,67.056z"/>
	<path fill="#FFFFFF" d="M-583.672,54.224l-6.829,8.787l7.481,10.788h1.74v7.135h-12.963l-6.873-11.92v11.92h-14.79v-7.135h2.61
		V54.224h-2.61V47.09h14.79v11.701l7.961-11.701h11.223v7.134L-583.672,54.224L-583.672,54.224z"/>
</g>
<g>
	<path fill="#A64A9C" d="M-506.129,109.558c-7.904,0-14.5,6.596-14.5,14.5s6.596,14.5,14.5,14.5s14.5-6.596,14.5-14.5
		S-498.225,109.558-506.129,109.558z"/>
</g>
<g>
	<g>
		<path fill="#A64A9C" d="M-755.481-9.793c-8.944,0-16.5-7.556-16.5-16.5s7.556-16.5,16.5-16.5c8.943,0,16.5,7.556,16.5,16.5
			S-746.537-9.793-755.481-9.793z"/>
	</g>
	<g>
		<path fill="#D087BA" d="M-755.481-40.793c7.904,0,14.5,6.596,14.5,14.5s-6.596,14.5-14.5,14.5s-14.5-6.596-14.5-14.5
			S-763.385-40.793-755.481-40.793 M-755.481-44.793c-10.028,0-18.5,8.472-18.5,18.5s8.472,18.5,18.5,18.5
			c10.027,0,18.5-8.472,18.5-18.5S-745.453-44.793-755.481-44.793L-755.481-44.793z"/>
	</g>
</g>
</svg>
