<?xml version="1.0" encoding="utf-8"?>
<!-- Generator: Adobe Illustrator 17.0.0, SVG Export Plug-In . SVG Version: 6.00 Build 0)  -->
<!DOCTYPE svg PUBLIC "-//W3C//DTD SVG 1.1//EN" "http://www.w3.org/Graphics/SVG/1.1/DTD/svg11.dtd">
<svg version="1.1" id="Layer_1" xmlns="http://www.w3.org/2000/svg" xmlns:xlink="http://www.w3.org/1999/xlink" x="0px" y="0px"
	 width="639.643px" height="400.839px" viewBox="-72.908 887.982 639.643 400.839"
	 enable-background="new -72.908 887.982 639.643 400.839" xml:space="preserve">
<g>
	<rect x="-72.908" y="887.982" fill="#8293BB" width="639.643" height="400.839"/>
</g>
<g>
	<path fill="#FFFFFF" d="M174.007,1187.478h23.988v9.106h-5.108v24.987h4.997v-5.108h11.051v14.215h-34.928v-9.106h3.332v-24.987
		h-3.332V1187.478z"/>
	<path fill="#FFFFFF" d="M211.155,1187.478h22.211v9.106h-3.332v24.987h3.332v9.106h-22.211v-9.106h3.331v-24.987h-3.331V1187.478z"
		/>
	<path fill="#FFFFFF" d="M276.732,1196.584l-8.718,11.217l9.551,13.771h2.221v9.106h-16.547l-8.773-15.215v15.215h-18.88v-9.106
		h3.332v-24.987h-3.332v-9.106h18.88v14.937l10.161-14.937h14.326v9.106L276.732,1196.584L276.732,1196.584z"/>
	<path fill="#FFFFFF" d="M307.493,1196.584h-6.719v8.773h4.887v6.33h-4.887v9.884h6.719v-8.773h12.438v17.88h-38.037v-9.106h3.332
		v-24.987h-3.332v-9.106h38.037v16.769h-12.438V1196.584z"/>
</g>
<g>
	<g>
		<g>
			<path fill="#5B739D" d="M200.81,1076.954c-1.458,0-2.676-1.127-2.787-2.576l-4.066-51.824c-0.061-0.771,0.206-1.543,0.734-2.123
				c0.535-0.576,1.278-0.898,2.055-0.898h31.06c1.547,0,2.797,1.258,2.797,2.803v51.818c0,1.555-1.25,2.801-2.797,2.801
				L200.81,1076.954"/>
		</g>
		<g>
			<path fill="#5B739D" d="M227.806,1022.335v51.818H200.81l-4.064-51.818H227.806 M227.806,1016.726h-31.06
				c-1.553,0-3.051,0.664-4.108,1.805c-1.062,1.15-1.597,2.682-1.474,4.248l4.065,51.809c0.229,2.916,2.658,5.172,5.581,5.172
				h26.996c3.097,0,5.604-2.51,5.604-5.605v-51.818C233.409,1019.247,230.902,1016.726,227.806,1016.726"/>
		</g>
		<g>
			<path fill="#F1F6F7" d="M299.625,1028.038c11.078,0,14.887-14.117,3.803-14.117c-7.589,0-37.386,0-37.386,0
				c1.367-5.379,3.874-22.553,3.874-22.553c-0.571-8.322-6.147-18.781-6.147-18.781c-6.621-2.791-9.601,1.035-9.601,1.035
				s0.341,13.24,0.341,16.309c0,3.051-15.13,27.52-18.831,30.672c-3.695,3.148-12.898,8.506-12.898,8.506
				c-10.971,26.477,2.521,37.24,2.521,37.24s2.742,0,7.088,0c2.652,0,5.89,4.057,9.474,4.057c16.608,0,40.534,0,46.335,0
				c11.083,0,14.886-14.119,3.808-14.119c11.078,0,14.892-14.119,3.809-14.119C306.9,1042.167,310.702,1028.038,299.625,1028.038"/>
		</g>
		<g>
			<path fill="#FFFFFF" d="M259.229,973.665c0.932,0,1.948,0.201,3.031,0.59c1.188,2.367,5.016,10.451,5.54,17.043
				c-0.299,2.039-2.553,17.225-3.789,22.109l-0.66,2.621h2.69h37.386c1.627,0,2.887,0.355,3.653,1.043
				c0.595,0.529,0.894,1.26,0.894,2.152c0,2.756-2.976,6.719-8.351,6.719v4.205c1.623,0,2.886,0.365,3.649,1.043
				c0.599,0.529,0.897,1.256,0.897,2.166c0,2.742-2.979,6.711-8.354,6.711v4.186c1.623,0,2.886,0.369,3.658,1.057
				c0.589,0.529,0.889,1.266,0.889,2.158c0,2.75-2.976,6.719-8.355,6.719v4.205c1.628,0,2.887,0.354,3.658,1.043
				c0.59,0.529,0.889,1.258,0.889,2.162c0,2.736-2.975,6.709-8.355,6.709h-46.335c-1.309,0-2.835-0.984-4.31-1.928
				c-1.632-1.049-3.321-2.133-5.164-2.133h-6.264c-2.147-2.189-10.273-12.324-1.676-33.691c2.166-1.285,9.324-5.57,12.594-8.369
				c2.906-2.475,9.863-13.643,11.224-15.852c3.808-6.184,8.342-14.037,8.342-16.402c0-2.609-0.238-12.309-0.318-15.416
				C256.811,974.152,257.771,973.665,259.229,973.665 M259.229,971.57c-3.461,0-5.061,2.053-5.061,2.053s0.341,13.24,0.341,16.309
				c0,3.051-15.13,27.52-18.831,30.672c-3.695,3.148-12.898,8.506-12.898,8.506c-10.971,26.477,2.521,37.24,2.521,37.24
				s2.742,0,7.088,0c2.652,0,5.89,4.057,9.474,4.057c16.608,0,40.534,0,46.335,0c11.083,0,14.886-14.119,3.808-14.119
				c11.078,0,14.892-14.119,3.809-14.119c11.083,0,14.886-14.129,3.808-14.129c11.078,0,14.887-14.117,3.803-14.117
				c-7.589,0-37.386,0-37.386,0c1.367-5.379,3.874-22.553,3.874-22.553c-0.571-8.322-6.147-18.781-6.147-18.781
				C262,971.835,260.493,971.57,259.229,971.57"/>
		</g>
		<g>
			<path fill="#E3E9EA" d="M259.057,971.57c0,0,4.132,15.33,4.132,17.525c0,2.193-13.587,20.383-10.807,23.162
				c2.777,2.783,13.66,1.664,13.66,1.664c0.927-4.4,3.874-22.553,3.874-22.553c-0.571-8.322-4.491-18.781-4.491-18.781
				C262.22,971.003,260.034,970.974,259.057,971.57z"/>
		</g>
		<g>
			<path fill="#E3E9EA" d="M303.427,1013.921h-15.335c6.91,0,3.887,14.117-3.022,14.117c6.909,0,3.887,14.129-3.027,14.129
				c6.914,0,3.896,14.119-3.022,14.119c6.918,0,3.892,14.119-3.023,14.119H288.2c11.083,0,14.886-14.119,3.808-14.119
				c11.078,0,14.892-14.119,3.809-14.119c11.083,0,14.886-14.129,3.808-14.129C310.702,1028.038,314.512,1013.921,303.427,1013.921z
				"/>
		</g>
		<g>
			<polygon fill="#F1F6F7" points="280.385,1056.585 277.648,1055.991 284.1,1026.208 286.833,1026.796 			"/>
		</g>
		<g>
			<path fill="#5B739D" d="M259.229,971.57c1.264,0,2.771,0.266,4.54,1.018c0,0,5.576,10.459,6.147,18.781
				c0,0-2.507,17.174-3.874,22.553c0,0,29.796,0,37.386,0c11.083,0,7.275,14.117-3.803,14.117c11.078,0,7.274,14.129-3.808,14.129
				c11.083,0,7.269,14.119-3.809,14.119c11.078,0,7.275,14.119-3.808,14.119c-5.802,0-29.727,0-46.335,0
				c-3.584,0-6.822-4.057-9.474-4.057c-4.347,0-7.088,0-7.088,0s-13.493-10.764-2.521-37.24c0,0,9.203-5.357,12.898-8.506
				c3.701-3.152,18.831-27.621,18.831-30.672c0-3.068-0.341-16.309-0.341-16.309S255.768,971.57,259.229,971.57 M259.229,965.968
				c-5.904,0-8.935,3.514-9.483,4.217c-0.8,1.023-1.21,2.283-1.179,3.582c0,0.123,0.304,11.766,0.338,15.557
				c-1.667,4.596-13.965,24.342-16.885,27.037c-2.69,2.283-9.624,6.475-12.062,7.906c-1.057,0.621-1.884,1.566-2.357,2.695
				c-12.437,30.035,3.526,43.215,4.21,43.756c0.993,0.797,2.217,1.223,3.49,1.223h6.593c0.392,0.201,1.043,0.617,1.501,0.912
				c2.068,1.328,4.903,3.148,8.468,3.148h46.335c9.605,0,16.061-7.447,16.061-14.404c0-1.465-0.271-2.863-0.795-4.141
				c2.915-2.75,4.599-6.428,4.599-9.988c0-1.465-0.272-2.852-0.795-4.137c2.917-2.746,4.603-6.424,4.603-9.975
				c0-1.465-0.271-2.867-0.796-4.145c2.93-2.754,4.604-6.434,4.604-9.988c0-3.098-1.23-5.9-3.466-7.898
				c-1.535-1.369-4.309-3.002-8.786-3.002h-30.545c1.233-6.969,2.498-15.637,2.572-16.146c0.061-0.383,0.076-0.785,0.046-1.184
				c-0.645-9.408-6.54-20.576-6.792-21.045c-0.604-1.141-1.582-2.033-2.77-2.529C263.642,966.454,261.392,965.968,259.229,965.968"
				/>
			<path fill="#FFFFFF" d="M288.199,1076.501h-46.335c-3.712,0-6.617-1.865-8.738-3.228c-0.292-0.188-0.942-0.607-1.355-0.833
				h-6.469c-1.382,0-2.732-0.474-3.803-1.333c-0.696-0.551-16.965-13.892-4.359-44.337c0.511-1.222,1.422-2.263,2.565-2.935
				c0.363-0.213,8.912-5.243,11.992-7.856c2.828-2.611,14.914-21.962,16.708-26.743c-0.03-3.16-0.233-11.274-0.31-14.347
				c-0.017-0.686-0.027-1.101-0.027-1.123c-0.034-1.401,0.422-2.787,1.285-3.89c0.573-0.736,3.746-4.409,9.877-4.409
				c2.227,0,4.549,0.501,6.903,1.49c1.289,0.538,2.361,1.518,3.018,2.756c0.06,0.112,6.188,11.588,6.849,21.245
				c0.033,0.438,0.016,0.875-0.051,1.296c-0.051,0.355-1.267,8.688-2.47,15.568h29.949c4.637,0,7.519,1.701,9.119,3.129
				c2.343,2.094,3.633,5.031,3.633,8.271c0,3.633-1.642,7.302-4.517,10.117c0.47,1.257,0.708,2.606,0.708,4.016
				c0,3.621-1.642,7.286-4.516,10.104c0.47,1.264,0.708,2.61,0.708,4.007c0,3.626-1.64,7.295-4.512,10.117
				c0.47,1.257,0.708,2.604,0.708,4.012C304.76,1068.795,298.105,1076.501,288.199,1076.501z M259.229,966.468
				c-5.666,0-8.565,3.353-9.088,4.024c-0.721,0.922-1.103,2.08-1.074,3.263c0,0.049,0.011,0.453,0.027,1.109
				c0.078,3.105,0.284,11.354,0.311,14.454l0.001,0.091l-0.031,0.085c-1.703,4.695-14.107,24.549-17.016,27.233
				c-3.162,2.684-11.783,7.756-12.148,7.971c-0.958,0.562-1.722,1.436-2.149,2.457c-12.32,29.754,3.384,42.637,4.059,43.171
				c0.91,0.729,2.008,1.114,3.18,1.114h6.714l0.107,0.055c0.391,0.201,1,0.587,1.544,0.938c2.016,1.295,4.778,3.068,8.197,3.068
				h46.335c9.308,0,15.561-7.189,15.561-13.904c0-1.396-0.255-2.726-0.757-3.951l-0.13-0.317l0.25-0.235
				c2.823-2.664,4.442-6.172,4.442-9.625c0-1.384-0.255-2.713-0.758-3.948l-0.129-0.317l0.25-0.235
				c2.825-2.659,4.446-6.162,4.446-9.61c0-1.398-0.255-2.729-0.759-3.954l-0.131-0.319l0.251-0.235
				c2.826-2.656,4.447-6.164,4.447-9.624c0-2.952-1.172-5.625-3.299-7.525c-1.47-1.312-4.131-2.875-8.453-2.875h-31.141l0.104-0.587
				c1.233-6.968,2.516-15.761,2.57-16.132c0.055-0.351,0.069-0.71,0.042-1.074c-0.647-9.447-6.673-20.732-6.734-20.845
				c-0.55-1.038-1.445-1.855-2.522-2.306C263.514,966.944,261.323,966.468,259.229,966.468z M288.199,1070.905h-46.335
				c-2.073,0-4.007-1.241-5.713-2.336c-1.379-0.885-2.681-1.721-3.761-1.721h-7.263l-0.137-0.109
				c-0.138-0.109-13.66-11.305-2.671-37.822l0.064-0.156l0.146-0.084c0.092-0.054,9.207-5.371,12.826-8.455
				c3.661-3.118,18.655-27.465,18.655-30.291c0-3.027-0.338-16.163-0.341-16.296l-0.004-0.179l0.11-0.142
				c0.072-0.092,1.792-2.245,5.456-2.245c1.492,0,3.085,0.355,4.735,1.058l0.162,0.069l0.083,0.155
				c0.229,0.431,5.632,10.649,6.205,18.982l0.003,0.054l-0.008,0.053c-0.024,0.166-2.349,16.05-3.733,21.98h36.75
				c2.274,0,4.138,0.591,5.389,1.709c1.151,1.029,1.76,2.446,1.76,4.099c0,3.667-2.929,7.547-7.564,8.852
				c0.774,0.283,1.446,0.674,1.999,1.169c1.151,1.029,1.759,2.447,1.759,4.101c0,3.671-2.929,7.553-7.565,8.858
				c0.774,0.283,1.445,0.674,1.998,1.167c1.151,1.029,1.76,2.446,1.76,4.098c0,3.669-2.93,7.55-7.567,8.855
				c0.773,0.282,1.445,0.674,1.998,1.167c1.151,1.029,1.76,2.447,1.76,4.1C299.155,1066.091,294.753,1070.905,288.199,1070.905z
				 M225.487,1065.849h6.903c1.373,0,2.795,0.913,4.301,1.879c1.667,1.071,3.393,2.178,5.172,2.178h46.335
				c6.496,0,9.955-4.826,9.955-8.311c0-1.36-0.493-2.52-1.426-3.354c-1.065-0.952-2.697-1.455-4.721-1.455v-1
				c6.496,0,9.956-4.828,9.956-8.313c0-1.359-0.493-2.518-1.426-3.352c-1.064-0.951-2.697-1.454-4.721-1.454v-1
				c6.495,0,9.955-4.83,9.955-8.317c0-1.36-0.493-2.521-1.426-3.355c-1.064-0.953-2.697-1.456-4.72-1.456v-1
				c6.494,0,9.953-4.826,9.953-8.31c0-1.359-0.493-2.519-1.427-3.353c-1.065-0.952-2.698-1.455-4.723-1.455h-38.029l0.159-0.623
				c1.307-5.145,3.7-21.387,3.856-22.448c-0.539-7.567-5.317-17.044-6.004-18.371c-1.467-0.604-2.873-0.909-4.18-0.909
				c-2.703,0-4.158,1.312-4.556,1.735c0.042,1.655,0.336,13.29,0.336,16.126c0,3.465-15.659,28.201-19.007,31.053
				c-3.476,2.961-11.591,7.749-12.825,8.472C213.159,1053.792,224.165,1064.662,225.487,1065.849z"/>
		</g>
		<g>
			<path fill="#DFE3E6" d="M232.391,1025.593c-1.013,0.676-2.054,1.348-3.047,1.973v36.68h3.047l0,0V1025.593"/>
		</g>
		<g>
			<path fill="#E9E8EA" d="M232.391,1064.245h-3.047v2.104c0.894,0,1.916,0,3.047,0V1064.245L232.391,1064.245 M232.391,1023.066
				c-0.758,0.521-1.554,1.051-2.353,1.572c-0.231,0.15-0.462,0.299-0.694,0.449v2.479c0.993-0.625,2.034-1.297,3.047-1.973V1023.066
				"/>
		</g>
		<g>
			<path fill="#576F97" d="M232.391,1023.06c-0.758,0.525-1.555,1.057-2.353,1.578c0.799-0.521,1.595-1.051,2.353-1.572V1023.06"/>
		</g>
		<g>
			<path fill="#5B739D" d="M223.745,1022.335v51.818h-31.056l-4.07-51.818H223.745 M223.745,1016.726h-35.126
				c-1.558,0-3.051,0.664-4.112,1.805c-1.058,1.15-1.59,2.682-1.469,4.248l4.065,51.809c0.229,2.916,2.662,5.172,5.586,5.172h31.056
				c3.092,0,5.599-2.51,5.599-5.605v-51.818C229.344,1019.247,226.836,1016.726,223.745,1016.726"/>
			<path fill="#FFFFFF" d="M223.745,1080.259h-31.056c-3.164,0-5.837-2.475-6.085-5.633l-4.065-51.809
				c-0.131-1.691,0.452-3.377,1.599-4.626c1.164-1.25,2.796-1.966,4.48-1.966h35.126c3.363,0,6.099,2.74,6.099,6.109v51.818
				C229.844,1077.52,227.108,1080.259,223.745,1080.259z M188.618,1017.226c-1.408,0-2.773,0.6-3.746,1.646
				c-0.958,1.042-1.446,2.453-1.336,3.868l4.065,51.809c0.208,2.642,2.442,4.711,5.088,4.711h31.056c2.812,0,5.099-2.29,5.099-5.105
				v-51.818c0-2.817-2.288-5.109-5.099-5.109h-35.127V1017.226z M224.245,1074.653h-32.018l-4.149-52.818h36.167V1074.653z
				 M193.151,1073.653h30.093v-50.818h-34.085L193.151,1073.653z"/>
		</g>
		<g>
			<polyline fill="#768AB5" points="192.689,1074.153 223.745,1074.153 223.745,1022.335 188.618,1022.335 192.689,1074.153 			"/>
		</g>
		<g>
			<polyline fill="#697DA4" points="188.618,1022.335 188.618,1028.917 189.135,1028.917 188.618,1022.335 			"/>
		</g>
		<g>
			<polyline fill="#8293BB" points="221.643,1024.445 190.896,1024.445 191.246,1028.917 221.643,1028.917 221.643,1024.445 			"/>
		</g>
		<g>
			<path fill="#8293BB" d="M191.246,1028.917l-0.35-4.473h30.747v4.473v43.135h-27.012L191.246,1028.917 M223.745,1022.335h-35.126
				l4.07,51.818h31.056V1022.335"/>
		</g>
		<g>
			<path fill="#7280A3" d="M217.34,1063.562c0.546,0.639,0.876,1.465,0.876,2.371c0,2.014-1.639,3.631-3.652,3.631
				c-0.896,0-1.72-0.324-2.355-0.861c0.667,0.773,1.653,1.26,2.755,1.26c2.012,0,3.639-1.625,3.639-3.645
				C218.603,1065.216,218.113,1064.23,217.34,1063.562"/>
		</g>
		<g>
			<path fill="#EBEEEF" d="M218.215,1065.933c0-2.021-1.639-3.645-3.652-3.645c-2.006,0-3.644,1.623-3.644,3.645
				c0,2.014,1.637,3.631,3.644,3.631C216.577,1069.564,218.215,1067.946,218.215,1065.933"/>
		</g>
		<g>
			<path fill="#F1F6F7" d="M217.607,1065.933c0-1.688-1.357-3.047-3.042-3.047c-1.673,0-3.04,1.359-3.04,3.047
				c0,1.67,1.367,3.031,3.04,3.031C216.25,1068.964,217.607,1067.603,217.607,1065.933"/>
		</g>
		<g>
			<path fill="#F7FAFB" d="M213.592,1063.712c-0.894,0-1.62,0.715-1.62,1.607c0,0.895,0.726,1.615,1.62,1.615
				s1.619-0.721,1.619-1.615C215.211,1064.427,214.486,1063.712,213.592,1063.712"/>
		</g>
		<g>
			<path fill="#768AB5" d="M214.186,1065.329c0-0.158-0.131-0.295-0.295-0.295s-0.291,0.137-0.291,0.295
				c0,0.164,0.127,0.295,0.291,0.295C214.056,1065.624,214.186,1065.493,214.186,1065.329z"/>
		</g>
		<g>
			<path fill="#768AB5" d="M214.186,1066.78c0-0.16-0.131-0.295-0.295-0.295s-0.291,0.135-0.291,0.295
				c0,0.154,0.127,0.289,0.291,0.289C214.056,1067.07,214.186,1066.935,214.186,1066.78z"/>
		</g>
		<g>
			<path fill="#768AB5" d="M215.523,1065.329c0-0.158-0.12-0.295-0.285-0.295c-0.164,0-0.295,0.137-0.295,0.295
				c0,0.164,0.131,0.295,0.295,0.295C215.404,1065.624,215.523,1065.493,215.523,1065.329z"/>
		</g>
		<g>
			<path fill="#768AB5" d="M215.523,1066.78c0-0.16-0.12-0.295-0.285-0.295c-0.164,0-0.295,0.135-0.295,0.295
				c0,0.154,0.131,0.289,0.295,0.289C215.404,1067.07,215.523,1066.935,215.523,1066.78z"/>
		</g>
		<g>
			<polygon fill="#E3E9EA" points="293.987,1061.862 285.874,1059.679 295.905,1022.47 304.022,1024.642 			"/>
		</g>
	</g>
	<g opacity="0.15">
		<ellipse fill="#FFFFFF" cx="245.572" cy="1149.347" rx="67.424" ry="5.418"/>
	</g>
</g>
</svg>
