<?xml version="1.0" encoding="utf-8"?>
<!-- Generator: Adobe Illustrator 17.0.0, SVG Export Plug-In . SVG Version: 6.00 Build 0)  -->
<!DOCTYPE svg PUBLIC "-//W3C//DTD SVG 1.1//EN" "http://www.w3.org/Graphics/SVG/1.1/DTD/svg11.dtd">
<svg version="1.1" id="Layer_1" xmlns="http://www.w3.org/2000/svg" xmlns:xlink="http://www.w3.org/1999/xlink" x="0px" y="0px"
	 width="641.498px" height="399.669px" viewBox="715.709 -596.843 641.498 399.669"
	 enable-background="new 715.709 -596.843 641.498 399.669" xml:space="preserve">
<g>
	<rect x="715.709" y="-596.843" fill="#3D5B98" width="641.498" height="399.669"/>
</g>
<g>
	<path fill="#FFFFFF" d="M949.887-256.646c1.222,0,2.091-0.185,2.61-0.556c0.518-0.369,0.777-0.925,0.777-1.665
		c0-0.519-0.214-0.972-0.639-1.36c-0.426-0.39-1.287-0.842-2.582-1.361c-2.74-1.035-5.137-2.026-7.191-2.971
		c-2.054-0.943-3.757-1.989-5.108-3.137s-2.359-2.489-3.026-4.026c-0.666-1.535-0.999-3.396-0.999-5.58
		c0-2.073,0.323-3.933,0.972-5.581c0.647-1.646,1.702-3.054,3.165-4.22c1.462-1.166,3.405-2.055,5.83-2.665
		c2.425-0.611,5.414-0.916,8.968-0.916c3.221,0,6.256,0.324,9.106,0.972s5.22,1.509,7.108,2.582v9.939h-11.661
		c0-1.073-0.297-1.805-0.889-2.193c-0.593-0.389-1.314-0.583-2.165-0.583c-1.222,0-2.102,0.157-2.638,0.472
		c-0.537,0.314-0.806,0.86-0.806,1.638c0,0.63,0.286,1.093,0.861,1.389c0.573,0.297,1.434,0.63,2.582,0.999
		c2.146,0.704,4.173,1.444,6.08,2.222c1.906,0.777,3.581,1.74,5.025,2.887c1.443,1.148,2.582,2.536,3.415,4.165
		c0.832,1.63,1.249,3.628,1.249,5.997c0,4.812-1.555,8.395-4.664,10.744c-3.11,2.352-7.663,3.526-13.66,3.526
		c-3.406,0-6.683-0.297-9.828-0.889c-3.147-0.592-5.664-1.295-7.552-2.109v-10.995h12.216c0,1.11,0.222,1.935,0.666,2.472
		C947.555-256.914,948.48-256.646,949.887-256.646z"/>
	<path fill="#FFFFFF" d="M996.308-289.906h21.712v9.106h-3.332v24.987h3.332v9.106h-21.712v-9.106h2.832v-9.162h-8.329v9.162h2.832
		v9.106h-21.711v-9.106h3.331V-280.8h-3.331v-9.106h21.711v9.106h-2.832v8.44h8.329v-8.44h-2.832L996.308-289.906L996.308-289.906z"
		/>
	<path fill="#FFFFFF" d="M1041.453-255.813h3.332l-0.944-4.387h-7.496l-0.889,4.387h3.332v9.106h-18.991v-9.106h2.222l9.384-34.094
		h20.212l9.385,34.094h2.221v9.106h-21.767L1041.453-255.813L1041.453-255.813z M1037.566-266.085h5.108l-2.276-11.105h-0.556
		L1037.566-266.085z"/>
	<path fill="#FFFFFF" d="M1083.876-255.813h3.665v9.106h-22.545v-9.106h3.332V-280.8h-3.332v-9.106h26.043
		c2.258,0,4.304,0.222,6.136,0.666s3.378,1.157,4.637,2.138c1.258,0.981,2.229,2.268,2.915,3.859
		c0.685,1.592,1.027,3.535,1.027,5.83c0,2.443-0.491,4.572-1.472,6.386c-0.981,1.814-2.415,3.092-4.304,3.832l0.056,0.555
		c3.554,0.556,5.331,2.74,5.331,6.553v4.275h2.609v9.106h-17.602v-13.049c0-1.11-0.121-2.008-0.361-2.693
		c-0.241-0.685-0.63-1.202-1.166-1.555c-0.537-0.352-1.213-0.592-2.027-0.722s-1.796-0.194-2.942-0.194L1083.876-255.813
		L1083.876-255.813z M1086.874-271.694c1.073,0,1.879-0.277,2.416-0.833c0.536-0.556,0.805-1.462,0.805-2.721v-1.999
		c0-1.258-0.269-2.166-0.805-2.721c-0.537-0.556-1.343-0.833-2.416-0.833h-2.998v9.106h2.998V-271.694z"/>
	<path fill="#FFFFFF" d="M1135.794-280.8h-6.719v8.773h4.887v6.33h-4.887v9.884h6.719v-8.773h12.438v17.88h-38.037v-9.106h3.332
		v-24.987h-3.332v-9.106h38.037v16.769h-12.438V-280.8z"/>
</g>
<g>
	<g id="Facebook_1_">
		<path fill="#FFFFFF" d="M1022.214-506.805c0,3.581,0,19.562,0,19.562h-14.331v23.92h14.331v71.08h29.44v-71.08h19.754
			c0,0,1.85-11.47,2.747-24.009c-2.572,0-22.39,0-22.39,0s0-13.919,0-16.355c0-2.444,3.209-5.732,6.383-5.732
			c3.166,0,9.85,0,16.039,0c0-3.258,0-14.512,0-24.903c-8.263,0-17.663,0-21.808,0
			C1021.487-534.322,1022.214-510.381,1022.214-506.805z"/>
	</g>
	<g opacity="0.15">
		<ellipse fill="#FFFFFF" cx="1041.035" cy="-326.814" rx="33.152" ry="5.419"/>
	</g>
</g>
</svg>
