<?xml version="1.0" encoding="utf-8"?>
<!-- Generator: Adobe Illustrator 17.0.0, SVG Export Plug-In . SVG Version: 6.00 Build 0)  -->
<!DOCTYPE svg PUBLIC "-//W3C//DTD SVG 1.1//EN" "http://www.w3.org/Graphics/SVG/1.1/DTD/svg11.dtd">
<svg version="1.1" id="Layer_1" xmlns="http://www.w3.org/2000/svg" xmlns:xlink="http://www.w3.org/1999/xlink" x="0px" y="0px"
	 width="641.498px" height="400.648px" viewBox="765.736 912.174 641.498 400.648"
	 enable-background="new 765.736 912.174 641.498 400.648" xml:space="preserve">
<g>
	<rect x="765.736" y="912.174" fill="#FECD0D" width="641.498" height="400.648"/>
</g>
<g>
	<path fill="#FFFFFF" d="M1024.852,1214.703h-2.776l3.831,21.934h0.556l3.831-21.934h-2.776v-9.106h18.436v9.106h-2.222
		l-8.829,34.094h-20.212l-8.829-34.094h-2.221v-9.106h21.212L1024.852,1214.703L1024.852,1214.703z"/>
	<path fill="#FFFFFF" d="M1047.285,1205.597h22.211v9.106h-3.332v24.987h3.332v9.106h-22.211v-9.106h3.331v-24.987h-3.331V1205.597z
		"/>
	<path fill="#FFFFFF" d="M1087.652,1238.858c1.222,0,2.091-0.185,2.61-0.556c0.518-0.369,0.777-0.925,0.777-1.665
		c0-0.519-0.214-0.972-0.639-1.36c-0.426-0.39-1.287-0.842-2.582-1.361c-2.74-1.035-5.137-2.026-7.191-2.971
		c-2.054-0.943-3.757-1.989-5.108-3.137c-1.351-1.148-2.359-2.489-3.026-4.026c-0.666-1.535-0.999-3.396-0.999-5.58
		c0-2.073,0.323-3.933,0.972-5.581c0.647-1.646,1.702-3.054,3.165-4.22c1.462-1.166,3.405-2.055,5.83-2.665
		c2.425-0.611,5.414-0.916,8.968-0.916c3.221,0,6.256,0.324,9.106,0.972c2.85,0.648,5.22,1.509,7.108,2.582v9.939h-11.661
		c0-1.073-0.297-1.805-0.889-2.193c-0.593-0.389-1.314-0.583-2.165-0.583c-1.222,0-2.102,0.157-2.638,0.472
		c-0.537,0.314-0.806,0.86-0.806,1.638c0,0.63,0.286,1.093,0.861,1.389c0.573,0.297,1.434,0.63,2.582,0.999
		c2.146,0.704,4.173,1.444,6.08,2.222c1.906,0.777,3.581,1.74,5.025,2.887c1.443,1.148,2.582,2.536,3.415,4.165
		c0.832,1.63,1.249,3.628,1.249,5.997c0,4.812-1.555,8.395-4.664,10.744c-3.11,2.352-7.663,3.526-13.66,3.526
		c-3.406,0-6.683-0.297-9.828-0.889c-3.147-0.592-5.664-1.295-7.552-2.109v-10.997h12.216c0,1.11,0.222,1.935,0.666,2.472
		C1085.32,1238.589,1086.245,1238.858,1087.652,1238.858z"/>
	<path fill="#FFFFFF" d="M1109.697,1205.597h22.211v9.106h-3.332v24.987h3.332v9.106h-22.211v-9.106h3.331v-24.987h-3.331V1205.597z
		"/>
	<path fill="#FFFFFF" d="M1133.573,1205.597h41.757v13.493h-9.551v-4.387h-3.554v24.987h3.887v9.106h-23.321v-9.106h3.887v-24.987
		h-3.554v4.387h-9.551V1205.597z"/>
</g>
<g>
	<g>
		<g>
			<path fill="#FFFFFF" d="M1118.291,983.848c-0.061-6.725-10.497-6.732-10.435,0c0.023,2.572,0.192,5.139,0.337,7.705
				c-0.268,0.277-0.506,0.576-0.695,0.9c-1.375,2.348-0.637,4.842,1.156,6.539c0.652,0.848,1.384,1.525,2.321,2.205
				c3.277,2.383,7.884-0.838,7.851-4.506C1118.788,992.405,1118.331,988.135,1118.291,983.848z"/>
		</g>
		<g>
			<path fill="#FFFFFF" d="M1159.039,994.072c-1.659-1.66-3.748-1.807-5.637-1.023c-2.211-1.525-5.493-1.396-7.374,1.545
				c-1.256,1.963-2.386,3.988-3.746,5.887c-0.145,0.201-0.266,0.404-0.375,0.607c-1.023,0.24-1.966,0.721-2.688,1.551
				c-1.722,1.973-2.083,4.16-2.813,6.58c-0.008,0.027-0.013,0.053-0.02,0.08c-0.395,0.146-0.791,0.305-1.184,0.486
				c-1.631,0.752-1.747,2.322-1.054,3.531c-0.569,0.346-1.124,0.723-1.656,1.189c-0.989,0.865-0.974,2.32-0.439,3.404
				c0.069,0.154,0.125,0.271,0.171,0.369c0.102,1.131,0.871,2.287,2.043,2.527c4.687,0.953,8.591-0.906,12.005-3.756
				c4.484-2.373,8.551-6.492,11.457-10.27c1.413-1.834,2.619-4.367,2.42-6.764C1161.022,998.102,1160.459,995.492,1159.039,994.072z
				"/>
		</g>
		<g>
			<g>
				<g>
					<g>
						<path fill="#9D9D9D" d="M1147.892,1047.83c4.764,2.383,10.004-3.811,12.861-7.621c0.478,6.193-2.857,23.818-11.909,18.578"/>
					</g>
				</g>
				<g>
					<g>
						<g>
							<path fill="#010101" d="M1148.845,1058.787c-0.058,0.102,0.011,0.279,0.223,0.514c0.211,0.232,0.562,0.527,1.096,0.809
								c0.533,0.275,1.266,0.545,2.199,0.58c0.464,0.02,0.973-0.029,1.492-0.164c0.521-0.133,1.048-0.354,1.55-0.648
								c1.007-0.594,1.896-1.469,2.651-2.48c0.757-1.014,1.394-2.174,1.938-3.42c0.545-1.248,0.998-2.586,1.367-3.99
								c0.186-0.703,0.351-1.422,0.494-2.156c0.071-0.367,0.137-0.736,0.198-1.111l0.087-0.564l0.083-0.607
								c0.258-2.012,0.347-4.012,0.211-5.525l-0.184-2.232l-0.097-1.145l-0.099-0.896l-2.212,3.014
								c-0.358,0.488-0.707,0.969-1.044,1.414c-0.338,0.449-0.666,0.869-0.988,1.271c-0.322,0.398-0.64,0.777-0.956,1.137
								l-0.644,0.729c-0.311,0.348-0.62,0.68-0.925,0.99c-1.223,1.25-2.419,2.178-3.487,2.707c-2.136,1.102-3.73,0.432-3.905,0.82
								c-0.043,0.088,0.005,0.221,0.158,0.389c0.153,0.166,0.412,0.369,0.8,0.551c0.386,0.184,0.905,0.342,1.531,0.393
								c0.626,0.057,1.353-0.004,2.113-0.199c1.529-0.389,3.144-1.314,4.681-2.572c0.386-0.314,0.768-0.648,1.148-1.004l0.284-0.27
								l0.071-0.068c0.006-0.004,0.009-0.004,0.012-0.008l0.021-0.01c0.027-0.012,0.047-0.021,0.068-0.029
								c0.077-0.027,0.104-0.016,0.107,0.016c0,0.008,0,0.014-0.001,0.023l-0.014,0.053c-0.009,0.031-0.017,0.053-0.023,0.066
								c-0.013,0.027-0.019,0.027-0.019,0.027l-0.065,0.482l-0.076,0.516c-0.053,0.344-0.11,0.682-0.17,1.02
								c-0.12,0.674-0.254,1.336-0.401,1.979c-0.294,1.287-0.641,2.51-1.042,3.629c-0.399,1.117-0.854,2.137-1.363,3.004
								c-0.509,0.865-1.075,1.572-1.665,2.064c-0.588,0.496-1.2,0.779-1.802,0.906c-0.599,0.129-1.182,0.107-1.672,0.059
								c-0.491-0.053-0.895-0.131-1.187-0.154C1149.089,1058.664,1148.905,1058.684,1148.845,1058.787z"/>
						</g>
					</g>
				</g>
			</g>
			<g>
				<g>
					<g>
						<path fill="#F9ED27" d="M1144.358,1070.405c-16.97,24.248-56.157,35.654-93.124,22.309
							c-27.838-10.049-41.912-42.932-29.602-69.846c12.31-26.916,48.128-46.816,73.002-30.779
							C1130.485,1015.201,1162.498,1044.487,1144.358,1070.405z"/>
					</g>
				</g>
				<g>
					<g>
						<path d="M1145.683,1071.342c-1.171,1.652-2.447,3.25-3.797,4.764c-1.353,1.518-2.783,2.959-4.277,4.328
							c-2.995,2.73-6.241,5.174-9.665,7.312c-3.416,2.154-7.013,4.006-10.72,5.586c-3.708,1.58-7.533,2.875-11.428,3.896
							c-7.792,2.047-15.857,2.99-23.907,2.928c-8.054-0.061-16.102-1.158-23.895-3.227c-1.948-0.518-3.882-1.092-5.797-1.727
							c-0.958-0.32-1.9-0.641-2.877-1.01c-0.962-0.361-1.913-0.752-2.852-1.172c-3.76-1.678-7.322-3.805-10.59-6.318
							c-6.543-5.023-11.89-11.58-15.587-18.973c-3.695-7.393-5.771-15.631-5.868-23.957c-0.049-4.162,0.389-8.338,1.321-12.408
							c0.466-2.035,1.055-4.043,1.762-6.01c0.709-1.967,1.544-3.891,2.472-5.746c1.852-3.719,4.091-7.223,6.62-10.486
							c2.527-3.268,5.349-6.293,8.403-9.057c3.055-2.768,6.348-5.273,9.846-7.469c3.496-2.195,7.196-4.092,11.075-5.592
							c3.876-1.5,7.931-2.615,12.097-3.199c4.162-0.586,8.441-0.641,12.659-0.014c2.107,0.311,4.198,0.787,6.233,1.439
							c2.037,0.652,4.02,1.477,5.918,2.459c0.948,0.49,1.876,1.021,2.78,1.588c0.224,0.141,0.454,0.289,0.667,0.432l0.622,0.41
							l1.244,0.826c1.654,1.105,3.302,2.225,4.939,3.359c6.554,4.533,12.937,9.342,19.037,14.527c3.045,2.6,6.014,5.299,8.869,8.129
							c2.853,2.832,5.594,5.795,8.142,8.939c2.546,3.146,4.899,6.479,6.905,10.055c1.999,3.572,3.645,7.412,4.569,11.494
							c0.461,2.037,0.735,4.131,0.783,6.238c0.049,2.105-0.144,4.227-0.577,6.291c-0.433,2.066-1.106,4.072-1.98,5.975
							c-0.873,1.902-1.939,3.699-3.141,5.381L1145.683,1071.342z M1143.03,1069.473c1.063-1.553,1.985-3.188,2.725-4.893
							c0.74-1.703,1.292-3.475,1.634-5.283c0.687-3.619,0.49-7.371-0.437-10.975c-0.914-3.609-2.493-7.074-4.432-10.34
							c-1.942-3.271-4.255-6.348-6.761-9.273c-2.51-2.922-5.221-5.693-8.051-8.348c-2.832-2.652-5.787-5.188-8.82-7.633
							c-6.063-4.9-12.446-9.432-18.96-13.777c-1.631-1.082-3.271-2.15-4.921-3.207l-1.24-0.789l-0.623-0.395l-0.583-0.361
							c-0.776-0.473-1.569-0.912-2.38-1.32c-3.24-1.627-6.744-2.691-10.35-3.189c-3.605-0.498-7.304-0.438-10.958,0.096
							c-3.656,0.535-7.269,1.525-10.756,2.881c-6.981,2.717-13.458,6.838-19.09,11.869c-1.408,1.26-2.763,2.58-4.055,3.955
							c-1.296,1.375-2.531,2.803-3.698,4.285c-2.333,2.961-4.397,6.127-6.111,9.457c-0.857,1.668-1.616,3.365-2.27,5.105
							c-0.657,1.74-1.211,3.52-1.655,5.328c-0.89,3.617-1.344,7.346-1.359,11.084c-0.013,3.738,0.394,7.488,1.218,11.15
							c0.823,3.664,2.06,7.242,3.675,10.645c3.22,6.811,7.968,12.922,13.859,17.656c2.942,2.369,6.163,4.396,9.583,6.014
							c0.855,0.406,1.724,0.785,2.602,1.139c0.863,0.35,1.785,0.684,2.693,1.004c1.824,0.641,3.668,1.225,5.53,1.748
							c7.446,2.1,15.16,3.273,22.906,3.453c7.742,0.182,15.518-0.652,23.034-2.521c7.511-1.875,14.783-4.799,21.343-8.883
							C1132.868,1081.067,1138.674,1075.785,1143.03,1069.473z"/>
					</g>
				</g>
			</g>
			<g>
				<g>
					<g>
						<path fill="#010101" d="M1046.025,1023.156c-4.177,12.168-13.838,16.656-21.645,13.975
							c-7.803-2.68-12.454-12.082-8.276-24.248s16.034-22.342,23.838-19.662C1047.748,995.901,1050.204,1010.992,1046.025,1023.156z
							"/>
					</g>
				</g>
				<g>
					<g>
						<circle fill="#FFFFFF" cx="1038.589" cy="1016.395" r="2.757"/>
					</g>
				</g>
				<g>
					<g>
						<path fill="#FFFFFF" d="M1031.442,1011.324c0.821,0.377,1.182,1.348,0.807,2.17s-1.348,1.184-2.169,0.807
							c-0.822-0.373-1.182-1.346-0.805-2.168C1029.649,1011.313,1030.62,1010.951,1031.442,1011.324z"/>
					</g>
				</g>
				<g>
					<g>
						<path fill="#FFFFFF" d="M1040.722,999.836c-0.651-1.082-1.624-1.988-2.859-2.551c-3.259-1.492-7.108-0.059-8.599,3.201
							c-1.328,2.904-0.333,6.281,2.209,8.033c0.31,0.215,0.641,0.402,0.994,0.564c3.258,1.49,7.105,0.055,8.595-3.203
							C1041.988,1003.86,1041.787,1001.61,1040.722,999.836z"/>
					</g>
				</g>
			</g>
			<g>
				<g>
					<g>
						<path fill="#010101" d="M1091.636,1007.551c-4.834,14.082-15.628,18.889-24.662,15.785
							c-9.032-3.102-14.414-13.984-9.579-28.064c4.834-14.082,18.168-25.469,27.2-22.367
							C1093.629,976.008,1096.473,993.473,1091.636,1007.551z"/>
					</g>
				</g>
				<g>
					<g>
						<circle fill="#FFFFFF" cx="1083.028" cy="999.724" r="3.19"/>
					</g>
				</g>
				<g>
					<g>
						<circle fill="#FFFFFF" cx="1073.969" cy="995.58" r="1.894"/>
					</g>
				</g>
				<g>
					<g>
						<path fill="#FFFFFF" d="M1085.497,980.561c-0.754-1.252-1.878-2.301-3.308-2.955c-3.771-1.725-8.226-0.064-9.952,3.707
							c-1.536,3.361-0.385,7.27,2.557,9.297c0.357,0.248,0.741,0.467,1.149,0.654c3.772,1.725,8.226,0.064,9.95-3.707
							C1086.963,985.217,1086.731,982.612,1085.497,980.561z"/>
					</g>
				</g>
			</g>
			<g>
				<g>
					<g>
						<path fill="none" stroke="#000000" stroke-width="0.5" stroke-miterlimit="10" d="M1141.048,996.418"/>
					</g>
				</g>
			</g>
			<g>
				<g>
					<g>
						<path d="M1089.602,959.264c-0.209,0.111,0.123,1.168,0.766,2.812c0.645,1.643,1.595,3.877,2.67,6.334
							c1.08,2.457,2.081,4.672,2.86,6.254c0.78,1.584,1.34,2.541,1.563,2.463c0.221-0.078,0.06-1.186-0.438-2.898
							c-0.498-1.711-1.333-4.021-2.423-6.504c-1.087-2.482-2.224-4.662-3.152-6.186
							C1090.521,960.018,1089.808,959.153,1089.602,959.264z"/>
					</g>
				</g>
			</g>
			<g>
				<g>
					<g>
						<path d="M1035.299,974.268c-0.148-0.172-1.39,0.58-3.132,2.135c-1.739,1.547-3.958,3.92-5.947,6.895
							c-1.395,2.082-2.477,4.174-3.214,6.018c-0.37,0.922-0.656,1.779-0.869,2.539c-0.107,0.381-0.195,0.736-0.266,1.064
							c-0.037,0.162-0.066,0.32-0.095,0.469l-0.038,0.217c-0.008,0.041-0.01,0.061-0.021,0.115l-0.028,0.143l0.011,0.121
							l0.006,0.059l0.005,0.039v0.004v0.002c-0.657,0,0.896,0,0.736,0h-0.001v-0.006l-0.001-0.01l-0.003-0.02l-0.005-0.039
							l-0.013-0.076l-0.045-0.281c-0.03-0.174-0.062-0.322-0.096-0.441c-0.065-0.24-0.134-0.367-0.204-0.367
							c-0.071,0-0.139,0.127-0.205,0.367c-0.032,0.119-0.064,0.268-0.096,0.441l-0.045,0.281l-0.012,0.076l-0.004,0.038l-0.003,0.02
							l-0.002,0.01v0.006l0,0c-0.16,0,1.394,0,0.736,0v-0.002l0.001-0.004l0.005-0.039l0.006-0.023l0.01-0.045l0.028-0.049
							c0.008-0.012,0.025-0.059,0.038-0.086l0.084-0.197l0.184-0.426l0.423-0.971c0.307-0.695,0.673-1.482,1.101-2.336
							c0.852-1.703,1.967-3.658,3.311-5.662c1.912-2.861,3.91-5.273,5.39-7C1034.509,975.52,1035.458,974.451,1035.299,974.268z"/>
					</g>
				</g>
			</g>
			<g>
				<g>
					<path d="M1111.364,1005.223c0.028,0.023,0.079,0.098,0.074,0.092l0.024,0.039l0.038,0.059l0.064,0.109l0.118,0.207l0.22,0.416
						c0.144,0.275,0.286,0.551,0.42,0.83c0.27,0.559,0.531,1.117,0.787,1.68c0.499,1.131,0.985,2.268,1.434,3.418
						c0.904,2.301,1.726,4.637,2.457,7.002c0.729,2.365,1.385,4.758,1.949,7.176c0.564,2.42,1.044,4.861,1.455,7.322
						c0.812,4.922,1.342,9.928,1.387,14.994c0.054,5.062-0.42,10.195-1.652,15.225c-0.617,2.514-1.418,4.996-2.434,7.404
						c-1.006,2.412-2.241,4.742-3.657,6.957c-2.852,4.418-6.558,8.314-10.837,11.291c-4.271,2.996-9.039,5.105-13.913,6.445
						c-4.88,1.338-9.868,1.965-14.814,1.982l-0.129-1.094c4.745-1.137,9.374-2.51,13.714-4.4c4.335-1.881,8.376-4.264,11.858-7.217
						c0.873-0.734,1.708-1.508,2.506-2.314c0.801-0.801,1.563-1.637,2.283-2.504c0.718-0.871,1.406-1.766,2.048-2.689
						c0.645-0.924,1.239-1.881,1.803-2.857c2.257-3.904,3.829-8.199,4.95-12.645c1.116-4.453,1.775-9.074,2.121-13.766
						c0.333-4.695,0.308-9.467-0.038-14.236c-0.17-2.387-0.424-4.773-0.729-7.158c-0.308-2.385-0.658-4.771-1.063-7.154
						c-0.404-2.383-0.842-4.766-1.335-7.145c-0.25-1.188-0.496-2.379-0.773-3.562c-0.133-0.594-0.271-1.188-0.417-1.777
						l-0.221-0.885l-0.117-0.436l-0.06-0.215l-0.029-0.1l-0.014-0.043c0-0.006-0.002-0.012-0.002-0.012
						c-0.014-0.021,0.028,0.035,0.042,0.045L1111.364,1005.223z"/>
				</g>
			</g>
			<g>
				<g>
					<path d="M1127.541,1018.018c0.055,0.051,0.055,0.059,0.072,0.078l0.038,0.045l0.065,0.084l0.122,0.162l0.231,0.326
						c0.151,0.219,0.3,0.438,0.445,0.66c0.286,0.443,0.564,0.893,0.836,1.346c0.538,0.908,1.058,1.83,1.543,2.768
						c0.484,0.939,0.959,1.887,1.398,2.85c0.439,0.963,0.86,1.936,1.263,2.916c0.783,1.971,1.507,3.973,2.112,6.016
						c0.607,2.045,1.119,4.121,1.539,6.223c0.833,4.207,1.293,8.531,1.178,12.898c-0.111,4.363-0.84,8.77-2.31,12.957
						c-0.732,2.09-1.642,4.125-2.717,6.064c-1.071,1.943-2.318,3.785-3.677,5.521c-2.74,3.465-5.992,6.471-9.539,8.963
						c-3.545,2.5-7.362,4.52-11.301,6.135c-3.941,1.613-8.002,2.844-12.124,3.695l-0.254-0.801
						c3.827-1.666,7.572-3.432,11.138-5.453c3.564-2.018,6.955-4.277,10.033-6.85c3.073-2.574,5.843-5.449,8.125-8.648
						c2.297-3.184,4.088-6.684,5.399-10.361c1.307-3.682,2.137-7.549,2.53-11.508c0.39-3.959,0.328-8.008-0.133-12.037
						c-0.228-2.016-0.558-4.027-0.961-6.029c-0.406-2.002-0.863-4.002-1.413-5.982c-0.265-0.992-0.55-1.982-0.854-2.969
						c-0.304-0.984-0.611-1.971-0.949-2.947c-0.336-0.979-0.676-1.957-1.048-2.924c-0.181-0.488-0.369-0.971-0.565-1.451
						l-0.295-0.717l-0.155-0.355l-0.078-0.17l-0.039-0.084l-0.017-0.035c-0.002-0.008-0.019-0.027,0.012,0.002L1127.541,1018.018z"
						/>
				</g>
			</g>
			<g>
				<g>
					<g>
						<path fill="#010101" d="M1134.873,1020.213c-0.041,0.105,0.188,0.33,0.728,0.564c0.536,0.232,1.396,0.447,2.509,0.453
							c1.112,0.012,2.463-0.186,3.947-0.643c1.484-0.455,3.101-1.16,4.778-2.111c1.678-0.953,3.419-2.148,5.158-3.592
							c1.738-1.447,3.479-3.139,5.11-5.125c0.813-0.994,1.597-2.064,2.316-3.232c0.716-1.166,1.375-2.432,1.87-3.844
							c0.247-0.705,0.452-1.449,0.577-2.24c0.125-0.791,0.173-1.631,0.073-2.504c-0.098-0.867-0.357-1.773-0.81-2.598
							c-0.448-0.824-1.083-1.545-1.791-2.107c-0.184-0.148-0.338-0.26-0.506-0.379c-0.167-0.115-0.335-0.232-0.509-0.34
							c-0.346-0.219-0.706-0.422-1.078-0.605c-0.744-0.367-1.541-0.648-2.36-0.82c-0.822-0.172-1.663-0.232-2.482-0.186
							c-0.818,0.045-1.613,0.193-2.362,0.412c-1.502,0.441-2.817,1.152-3.979,1.945c-1.164,0.797-2.184,1.688-3.105,2.604
							c-1.839,1.84-3.299,3.781-4.541,5.658c-1.236,1.883-2.242,3.711-3.072,5.418c-1.654,3.42-2.619,6.355-2.992,8.486
							c-0.183,1.062-0.219,1.932-0.066,2.553c0.078,0.318,0.215,0.537,0.364,0.633c0.149,0.098,0.284,0.074,0.333,0.047
							c0.049-0.029,0.017-0.07-0.017-0.189c-0.034-0.121-0.034-0.312,0.006-0.539c0.077-0.477,0.3-1.219,0.662-2.156
							c0.725-1.875,1.984-4.562,3.836-7.693c0.927-1.562,2.005-3.236,3.267-4.939c1.262-1.697,2.708-3.436,4.401-5.014
							c0.847-0.785,1.756-1.525,2.732-2.156c0.973-0.631,2.015-1.148,3.087-1.441c1.072-0.295,2.162-0.355,3.22-0.121
							c0.529,0.115,1.051,0.303,1.562,0.557c0.255,0.125,0.509,0.27,0.756,0.428c0.125,0.078,0.248,0.162,0.369,0.248
							c0.121,0.084,0.253,0.182,0.346,0.256c0.801,0.643,1.234,1.438,1.359,2.441c0.125,1.002-0.074,2.154-0.443,3.266
							c-0.371,1.119-0.901,2.213-1.502,3.248c-0.604,1.039-1.278,2.025-1.988,2.957c-1.421,1.863-2.968,3.51-4.509,4.947
							c-1.544,1.436-3.089,2.66-4.565,3.67c-1.477,1.008-2.888,1.799-4.17,2.371c-1.282,0.576-2.434,0.928-3.393,1.107
							c-0.96,0.186-1.722,0.199-2.251,0.199C1135.217,1020.102,1134.915,1020.098,1134.873,1020.213z"/>
					</g>
				</g>
			</g>
			<g>
				<g>
					<g>
						<path fill="#010101" d="M1111.45,1004.006c-0.03,0.104,0.141,0.303,0.603,0.428c0.229,0.057,0.535,0.086,0.889,0.029
							c0.354-0.055,0.749-0.195,1.139-0.422c0.787-0.455,1.529-1.238,2.177-2.223c0.649-0.984,1.22-2.176,1.707-3.527
							s0.892-2.863,1.193-4.512c0.299-1.646,0.499-3.43,0.531-5.328c0.017-0.951-0.012-1.93-0.103-2.936
							c-0.093-1.008-0.247-2.043-0.518-3.105c-0.276-1.061-0.653-2.154-1.326-3.238c-0.34-0.539-0.762-1.076-1.312-1.551
							c-0.544-0.475-1.234-0.875-1.987-1.09c-0.751-0.219-1.527-0.25-2.224-0.16c-0.349,0.045-0.682,0.115-1,0.203l-0.117,0.035
							l-0.175,0.053c-0.06,0.016-0.121,0.043-0.181,0.07l-0.155,0.072c-0.159,0.076-0.316,0.158-0.468,0.248
							c-0.608,0.355-1.139,0.812-1.57,1.309c-0.434,0.498-0.774,1.027-1.051,1.559c-0.55,1.068-0.859,2.137-1.068,3.166
							c-0.206,1.029-0.303,2.027-0.347,2.99c-0.08,1.928,0.058,3.717,0.282,5.371c0.227,1.652,0.548,3.162,0.91,4.525
							c0.727,2.719,1.627,4.834,2.444,6.205c0.408,0.686,0.793,1.184,1.102,1.484
							C1111.132,1003.967,1111.355,1004.072,1111.45,1004.006c0.191-0.145-0.116-0.918-0.509-2.355
							c-0.399-1.434-0.908-3.539-1.302-6.172c-0.195-1.316-0.364-2.764-0.456-4.312c-0.091-1.545-0.112-3.199,0.039-4.883
							c0.078-0.84,0.199-1.688,0.394-2.506c0.195-0.818,0.464-1.613,0.836-2.287c0.371-0.676,0.837-1.199,1.375-1.504
							c0.067-0.037,0.137-0.072,0.208-0.105c0.007-0.004,0.021-0.01,0.021-0.01l-0.003,0.004c-0.002,0-0.006,0-0.002,0
							c0.003,0-0.004,0.002,0.009-0.004l0.066-0.018c0.176-0.047,0.346-0.08,0.507-0.1c0.326-0.039,0.608-0.02,0.859,0.055
							c0.251,0.072,0.483,0.199,0.719,0.396c0.231,0.199,0.458,0.467,0.663,0.785c0.413,0.639,0.729,1.447,0.964,2.283
							c0.236,0.84,0.396,1.717,0.507,2.59c0.111,0.875,0.172,1.75,0.2,2.607c0.052,1.717-0.028,3.367-0.188,4.902
							c-0.161,1.535-0.403,2.957-0.704,4.225c-0.3,1.266-0.661,2.381-1.063,3.297c-0.403,0.914-0.854,1.625-1.301,2.08
							C1112.408,1003.908,1111.504,1003.754,1111.45,1004.006z"/>
					</g>
				</g>
			</g>
			<g>
				<g>
					<g>
						<path fill="#010101" d="M1142.891,1010.197c-0.121-0.197-0.897,0.012-1.997,0.645c-1.098,0.629-2.493,1.697-3.822,3.074
							c-1.336,1.373-2.36,2.773-2.999,3.848c-0.639,1.076-0.899,1.826-0.709,1.961c0.194,0.139,0.799-0.359,1.663-1.223
							c0.865-0.861,1.994-2.086,3.269-3.398c1.272-1.314,2.46-2.457,3.326-3.297
							C1142.482,1010.965,1143.016,1010.403,1142.891,1010.197z"/>
					</g>
				</g>
			</g>
			<g>
				<g>
					<g>
						<path fill="#010101" d="M1112.403,993.526c-0.23-0.041-0.528,0.402-0.777,1.172c-0.252,0.77-0.443,1.861-0.492,3.066
							c-0.05,1.209,0.04,2.293,0.191,3.074c0.152,0.781,0.366,1.262,0.602,1.262c0.235,0,0.447-0.482,0.604-1.258
							c0.158-0.773,0.26-1.84,0.308-3.006s0.043-2.217-0.017-2.992C1112.761,994.069,1112.637,993.565,1112.403,993.526z"/>
					</g>
				</g>
			</g>
			<g>
				<g>
					<path fill="#A64A9C" d="M1096.084,1021.014c-0.941,0.564-1.398,1.479-1.994,2.363c-0.479,0.713-1.081,0.787-1.721,0.658
						c-0.885-0.703-2.254-1.418-3.02-0.885c-0.106,0.008-0.211,0.035-0.3,0.092c-0.218,0.137-0.312,0.34-0.381,0.564
						c-0.479,0.395-0.774,0.982-0.818,1.639c-0.047,0.709,0.262,1.299,0.838,1.709c0.115,0.082,0.259,0.16,0.415,0.238
						c0.107,0.18,0.25,0.334,0.432,0.461c0.104,0.273,0.165,0.564,0.163,0.883c-0.004,1.105-1.271,1.617-2.128,1.895
						c-0.61,0.197-1.219,0.689-1.462,1.291c-0.189,0.465-0.044,1.086-0.094,1.604c-0.099,0.182-0.19,0.367-0.283,0.553
						c-0.212,0.129-0.421,0.283-0.623,0.467c-0.556,0.51-1.001,1.143-1.469,1.73c-0.219,0.275-0.446,0.547-0.69,0.805
						c-0.127,0.133-0.539,0.402-0.478,0.412c-0.364-0.055,0.208-1.398,0.265-1.604c0.183-0.66,0.128-1.572-0.566-1.928
						c-0.774-0.396-1.949-0.471-2.722-0.016c-0.884,0.52-1.178,1.381-1.387,2.336c-0.256,1.166-0.619,2.041-1.881,2.322
						c-0.2-0.025-0.403-0.031-0.597-0.01c-0.219,0.023-0.447,0.062-0.679,0.109c-0.821-0.023-1.665-0.16-2.451-0.15
						c-2.371,0.027-3.938,1.369-4.811,3.486c-0.832,2.02-0.78,4.615-2.35,6.271c-0.05,0.051-0.102,0.1-0.155,0.146
						c-0.631,0.34-1.347,0.48-2.139,0.283c-1.598-0.398-2.049-2.172-3.317-2.988c-1.112-0.713-2.48-0.428-3.313,0.582
						c-0.584,0.707-0.729,1.648-0.724,2.57c-0.041,0-0.084,0.002-0.125,0.002c-0.333-0.17-0.68-0.307-1.065-0.354
						c-1.641-0.191-2.891,0.836-4.41,1.244c-1.636,0.439-2.855-1.008-4.162-1.867c-0.353-0.473-0.804-0.814-1.514-0.814
						c-0.791,0.004-1.58,0.598-2.257,1.332c-0.733,0.65-1.502,1.299-2.443,0.807c-1.345-0.703-2.305-2.168-3.588-3.016
						c-1.037-0.682-2.179-0.504-3.338-0.4c-1.037,0.092-1.819,0.305-2.494,0.926c-0.128,0.066-0.256,0.139-0.382,0.213
						c-0.067,0.037-0.123,0.088-0.17,0.145c-0.062,0.029-0.125,0.061-0.187,0.092c-0.825,0.412-0.101,1.646,0.72,1.234l0.062-0.029
						c0.05,0.006,0.102,0.006,0.152,0c-0.016,0.178,0.049,0.359,0.23,0.514c1.849,1.57,4.433,2.012,6.747,2.447
						c0.097,0.018,0.191,0.014,0.28-0.006c0.088,0.057,0.174,0.117,0.264,0.172c0.233,0.143,0.481,0.115,0.683,0
						c1.083,0.426,2.263,0.67,3.405,0.809c0.69,0.084,1.512,0.174,2.265,0.057c2.098,0.195,4.246,0.164,6.406,0.041
						c3.076,0.875,6.434,0.201,9.507-0.549c0.25,0.082,0.51,0.141,0.764,0.174c1.62,0.215,3.296-0.25,4.824-0.754
						c1.471-0.482,2.915-1.111,4.28-1.842c1.671-0.891,3.143-2.098,4.571-3.34c0.022-0.014,0.047-0.025,0.069-0.039
						c0.01-0.006,0.021-0.014,0.03-0.02c2.076-0.979,3.937-2.395,5.625-3.939c0.211-0.191,0.255-0.428,0.197-0.641
						c0.135-0.105,0.267-0.213,0.396-0.316c0.256,0.162,0.592,0.174,0.836-0.113c0.183-0.217,0.333-0.434,0.469-0.662
						c1.13-0.715,2.105-1.652,3.115-2.543c0.034,0,0.07-0.004,0.105-0.01c0.212,0.117,0.474,0.139,0.691-0.01
						c1.717-1.162,3.344-2.508,4.139-4.475c0.064-0.158,0.051-0.314-0.011-0.453c0.048-0.098,0.061-0.205,0.048-0.312
						c1.306-1.648,2.476-3.414,3.511-5.246c1.272-1.654,1.914-3.695,3.167-5.371
						C1097.506,1021.397,1096.663,1020.666,1096.084,1021.014z M1037.145,1048.924c-0.012-0.01-0.025-0.02-0.036-0.029
						c-0.426-0.371-0.838-0.779-1.264-1.166c0.479,0.344,0.932,0.793,1.349,1.221
						C1037.178,1048.942,1037.162,1048.934,1037.145,1048.924z"/>
				</g>
			</g>
			<g>
				<g>
					<path fill="#A64A9C" d="M1084.326,1029.344c-0.219-0.242-0.594-0.26-0.866-0.113c-0.54,0.291-0.845,0.689-1.044,1.262
						c-0.063,0.182-0.05,0.342,0.008,0.473c-0.008,0.146,0.002,0.277,0.027,0.443c0.041,0.297,0.232,0.58,0.395,0.824
						c0.005,0.008,0.012,0.016,0.018,0.023c0.127,0.516,0.946,0.805,1.335,0.215
						C1084.866,1031.459,1085.228,1030.338,1084.326,1029.344z"/>
				</g>
			</g>
			<g>
				<g>
					<path fill="#A64A9C" d="M1062.473,1044.03c-0.007-0.115-0.009-0.227-0.014-0.34c-0.008-0.326-0.017-0.652-0.032-0.977
						c-0.031-0.633-0.027-1.441-0.462-1.951c-0.68-0.793-1.464,0.143-1.747,0.754c-0.489,1.064,0.202,2.246,0.834,3.104
						c0.203,0.273,0.522,0.428,0.844,0.316C1062.303,1044.863,1062.651,1044.469,1062.473,1044.03z"/>
				</g>
			</g>
			<g>
				<g>
					<path fill="#A64A9C" d="M1106.546,1029.821c0.31-0.178,0.621-0.344,0.913-0.551c0.588-0.42,0.872-0.951,0.962-1.654
						c0.182-1.432-1.296-2.121-2.437-2.301c-1.557-0.248-3.298-0.168-3.849-1.969c-0.27-0.877-1.649-0.504-1.378,0.381
						c0.121,0.391,0.281,0.74,0.477,1.047c-0.426,0.16-0.703,0.73-0.293,1.174c0.507,0.545,0.83,1.215,1.06,1.92
						c-0.02,0.039-0.038,0.08-0.053,0.123c-0.079,0.238-0.158,0.477-0.238,0.715c-0.119,0.357,0.04,0.627,0.287,0.766
						c-0.001,0.402-0.025,0.803-0.075,1.211c-0.032,0.311,0.111,0.514,0.316,0.609c0.006,0.199,0.023,0.398,0.052,0.6
						c-0.231,0.15-0.394,0.422-0.342,0.768c0.29,1.906,0.669,3.832,0.823,5.762c-0.238,1.24-0.221,2.57-0.156,3.768
						c-0.011,0.027-0.021,0.057-0.032,0.084c-0.293,0.053-0.543,0.275-0.54,0.678c0.002,0.309,0.009,0.617,0.019,0.926
						c-0.088,0.35-0.16,0.703-0.21,1.066c-0.218,1.59-0.199,3.23-0.024,4.84c-0.015,0.059-0.024,0.123-0.022,0.193
						c0.006,0.357,0.055,0.68,0.144,1.023c0.016,0.062,0.041,0.115,0.069,0.164c0.017,0.105,0.032,0.211,0.05,0.312
						c0.014,0.082,0.046,0.15,0.084,0.211c-0.011,0.045-0.022,0.092-0.032,0.137c-0.804,1.197-0.91,2.885-0.952,4.252
						c-0.005,0.178-0.007,0.357-0.009,0.537c-0.44,1.441-0.831,2.986-0.912,4.5c-0.423,1.012-0.771,2.059-1.157,3.084
						c-0.165,0.432,0.165,0.781,0.545,0.873c-0.163,0.166-0.321,0.34-0.474,0.523c-0.353,0.426-0.622,0.887-0.83,1.371
						c-0.307-0.439-1.037-0.4-1.267,0.211c-0.099,0.279-0.233,0.539-0.404,0.779c-0.255,0.414-0.036,0.803,0.3,0.973
						c-0.094,0.607-0.245,1.209-0.396,1.809c-0.139-0.004-0.285,0.027-0.417,0.088c-0.248-0.273-0.71-0.303-1.043-0.035
						c-0.967,0.777-1.65,1.947-2.026,3.195c-0.317,0.312-0.607,0.656-0.857,1.021c-0.032,0.021-0.063,0.043-0.093,0.07
						c-0.762,0.68-1.432,1.428-1.972,2.283c-0.916,0.418-1.703,1.041-2.374,1.783c-0.078-0.068-0.169-0.113-0.269-0.133
						c-0.175-0.076-0.385-0.088-0.601,0.004c-0.285,0.123-0.565,0.256-0.842,0.396c-0.116,0-0.234,0.023-0.35,0.08
						c-0.078,0.039-0.151,0.08-0.23,0.121c-0.093-0.01-0.198,0.002-0.314,0.045c-0.796,0.295-1.474,0.678-2.101,1.256
						c-0.045,0.041-0.081,0.09-0.11,0.139c-4.778,2.639-10.294,2.756-15.745,3.004c-0.365,0.016-0.731,0.035-1.097,0.057
						c-0.282-0.092-0.574-0.16-0.874-0.205c-0.525-0.08-1.014-0.023-1.474,0.121c-0.723-0.242-1.326-0.125-1.839,0.281
						c-0.434,0.008-0.869,0.012-1.304,0.004c-1.346-0.684-2.979-0.934-4.444-0.871c-0.139,0.006-0.261,0.049-0.364,0.115
						c-0.579-0.262-1.1-0.613-1.513-1.096c-0.363-0.426-0.845-0.232-1.065,0.141c-0.069-0.084-0.136-0.168-0.208-0.25
						c-1.045-1.193-2.395-1.66-3.947-1.385c-0.906,0.16-0.521,1.537,0.381,1.377c1.499-0.264,2.407,0.756,3.23,1.854
						c0.788,1.053,1.526,2.115,2.65,2.838c0.355,0.23,0.751,0.045,0.978-0.256c0.248-0.33,0.836-1.244,1.372-0.975
						c0.354,0.178,0.628,0.598,0.87,0.896c0.63,0.779,1.454,1.34,2.059,2.113c0.654,0.838,1.479,1.141,2.504,0.809
						c0.855-0.275,1.454-0.994,1.318-1.912c-0.056-0.373-0.201-0.709-0.341-1.059c-0.202-0.5-0.178-0.447,0.422-0.697
						c0.814-0.336,1.778,0.957,2.408,1.338c2.026,1.221,4.493-0.381,6.444-0.912c2.639-0.717,5.297,0.449,7.914-0.641
						c1.159-0.482,1.984-1.211,2.857-2.09c1.057-1.062,2.005-1.814,3.573-1.436c1.164,0.285,1.935,2.252,3.263,1.635
						c0.783-0.363,1.312-1.285,1.783-1.961c0.374-0.539,0.625-1.121,0.872-1.727c0.262-0.641,0.666-2.197,1.419-2.465
						c2.76-0.977,3.791-3.131,3.943-5.896c0.072-1.328,0.061-2.639,0.478-3.918c0.473-1.453,1.685-2.436,3.002-3.09
						c1.11-0.551,2.252-1.033,3.056-2.018c0.823-1.004,1.175-2.598,0.675-3.814c-0.26-0.633-0.762-1.125-1.228-1.609
						c-0.639-0.66-0.765-1.525-0.537-2.4c0.038-0.145,0.078-0.285,0.118-0.426c0.913-0.83,1.263-1.793,1.322-2.83
						c0.158-0.711,0.206-1.441,0.145-2.17c0.05-0.66-0.033-1.324-0.309-1.99c0-0.01,0-0.021,0-0.031
						c-0.007-1.459-0.769-2.912-0.417-4.379c0.145-0.604,0.397-1.172,0.694-1.727c0.545-0.854,1.13-1.699,1.509-2.627
						c0.129-0.254,0.248-0.512,0.348-0.775c0.595-1.566-0.199-2.887-0.909-4.244c-0.41-0.785-0.667-1.689-1.204-2.398
						c-0.03-0.039-0.056-0.074-0.077-0.104c0.076-0.199,0.173-0.395,0.244-0.582
						C1106.102,1030.192,1106.109,1030.071,1106.546,1029.821z"/>
				</g>
			</g>
			<g>
				<g>
					<path fill="#A64A9C" d="M1109.374,1056.184c-0.047-0.391-0.203-0.779-0.404-1.092c-0.05-0.076-0.109-0.135-0.174-0.186
						c-0.045-0.174-0.149-0.328-0.321-0.428c-0.077-0.045-0.161-0.072-0.248-0.086c-0.084-0.111-0.213-0.193-0.4-0.225
						c-0.179-0.029-0.361-0.039-0.539-0.029c-0.012-0.006-0.022-0.01-0.033-0.014c-0.394-0.143-0.825-0.061-1.176,0.148
						c-0.298,0.059-0.518,0.326-0.552,0.643c-0.002,0.006-0.003,0.012-0.005,0.018c-0.292,0.244-0.416,0.684-0.059,1.021
						c0.002,0.021,0.005,0.043,0.009,0.064c0.052,0.732,0.583,1.395,1.241,1.752c0.724,0.393,1.585,0.287,2.201-0.244
						c0.062-0.057,0.118-0.115,0.167-0.178c0.127-0.045,0.228-0.139,0.299-0.256
						C1109.585,1056.836,1109.605,1056.422,1109.374,1056.184z"/>
				</g>
			</g>
			<g>
				<g>
					<path fill="#A64A9C" d="M1103.564,1067.887c-0.17-0.469-0.606-0.619-1.05-0.426c-1.105,0.479-1.701,1.365-1.8,2.434
						c-0.174,0.605-0.206,1.145,0.114,1.877c0.161,0.367,0.667,0.424,0.978,0.256
						C1103.31,1071.221,1104.167,1069.553,1103.564,1067.887z"/>
				</g>
			</g>
			<g>
				<g>
					<path fill="#A64A9C" d="M1087.241,1086.215c0.063-0.328,0.142-0.652,0.151-0.988c0.014-0.467-0.466-0.811-0.904-0.689
						c-0.488,0.135-0.886,0.373-1.081,0.855c-0.009,0.02-0.014,0.043-0.021,0.066c-0.282,0.262-0.329,0.707-0.11,1.119
						c0.034,0.174,0.132,0.332,0.309,0.443c0.111,0.133,0.231,0.26,0.35,0.377c0.446,0.449,1.207,0.111,1.22-0.504
						c0.003-0.156,0.021-0.311,0.047-0.463C1087.222,1086.36,1087.235,1086.287,1087.241,1086.215z"/>
				</g>
			</g>
			<g>
				<g>
					<path fill="#A64A9C" d="M1071.387,1089.063c-0.268-0.051-0.526-0.09-0.781-0.115c-0.212-0.381-0.73-0.594-1.105-0.178
						c-0.056,0.062-0.109,0.127-0.159,0.193c-0.452,0.061-0.9,0.189-1.364,0.41c-0.635,0.303-0.36,1.092,0.174,1.271
						c-0.052,0.461,0.283,0.941,0.854,0.75c0.81-0.275,1.589-0.635,2.382-0.953
						C1071.97,1090.205,1072.157,1089.211,1071.387,1089.063z"/>
				</g>
			</g>
			<g>
				<g id="XMLID_2_">
					<g>
						<g>
							<path fill="#FFFFFF" d="M1100.343,1023.301c0.057,0.941,0.138,2.029,0.231,3.244c-0.155,0.516-0.333,1.174-0.543,1.953
								c-0.298,1.082-0.655,2.408-1.146,3.908c-0.49,1.5-1.115,3.18-1.986,4.936c-0.869,1.756-1.998,3.582-3.451,5.35
								c-1.451,1.766-3.228,3.465-5.298,5.016c-4.161,3.141-9.26,5.91-14.941,7.973c-7.227,2.631-14.447,3.814-20.732,4.156
								c-3.169,0.174-6.081,0.234-8.643-0.027c-1.279-0.131-2.468-0.338-3.535-0.637c-0.535-0.15-1.037-0.324-1.504-0.521
								c-0.233-0.1-0.457-0.203-0.672-0.316l-0.211-0.105c-0.051-0.027-0.105-0.053-0.153-0.084
								c-0.041-0.119-0.167-0.826-0.257-1.291l-0.273-1.408c-0.177-0.875-0.334-1.617-0.475-2.221
								c-0.074-0.314-0.14-0.59-0.205-0.824c0.336,0.113,0.68,0.223,1.029,0.328c3.94,1.197,8.88,1.947,14.341,1.66
								c5.457-0.27,11.407-1.572,17.207-4.014c5.81-2.432,10.89-5.738,15.003-9.293c4.123-3.557,7.278-7.363,9.525-10.793
								c2.253-3.438,3.618-6.482,4.395-8.625c0.242-0.678,0.431-1.266,0.571-1.752c0.56,0.031,1.091,0.135,1.581,0.287
								C1100.21,1020.938,1100.258,1021.979,1100.343,1023.301z"/>
						</g>
					</g>
					<g>
						<g>
							<path fill="#A01D4E" d="M1101.153,1035.1c0.123,2.48,0.209,5.203,0.152,8.107c-0.023,1.148-0.071,2.324-0.15,3.525
								c-0.057-0.002-0.117-0.004-0.179-0.008c-0.786-0.014-1.929,0.104-3.292,0.504c-1.355,0.4-2.93,1.09-4.485,2.178
								c-1.555,1.084-3.084,2.574-4.288,4.428c-1.209,1.848-1.954,3.855-2.312,5.711c-0.062,0.316-0.112,0.627-0.155,0.93
								c-0.645,0.094-1.496,0.365-2.389,0.922c-1.031,0.631-2.091,1.625-2.996,2.896c-0.907,1.271-1.67,2.807-2.205,4.496
								c-1.079,3.381-1.034,6.709-0.355,8.971c0.334,1.131,0.811,1.986,1.236,2.498c0.06,0.072,0.117,0.139,0.175,0.195
								c-1.515,0.537-3.04,0.967-4.546,1.305c-3.144,0.701-6.216,1.016-9.095,1.08c-0.389,0.008-0.771,0.012-1.152,0.012
								c-0.009-0.699-0.083-1.629-0.225-2.75c-0.164-1.262-0.428-2.758-0.839-4.402c-0.412-1.645-0.966-3.438-1.741-5.262
								c-0.775-1.824-1.709-3.508-2.76-4.912c-1.048-1.41-2.218-2.531-3.33-3.295c-0.195-0.135-0.388-0.26-0.579-0.371
								c5.724-0.393,12.065-1.543,18.412-3.855c5.903-2.141,11.204-5.1,15.489-8.488c2.163-1.705,4.022-3.594,5.511-5.553
								c1.494-1.957,2.613-3.977,3.432-5.887c0.82-1.91,1.351-3.707,1.73-5.295c0.262-1.107,0.452-2.113,0.598-3.002
								C1100.932,1031.399,1101.051,1033.18,1101.153,1035.1z"/>
						</g>
					</g>
					<g>
						<g>
							<path fill="#DA1D3F" d="M1101.086,1047.696c-0.12,1.539-0.295,3.115-0.543,4.721c-0.49,3.207-1.279,6.525-2.463,9.832
								c-0.294,0.83-0.614,1.654-0.962,2.479c-0.338,0.824-0.71,1.617-1.124,2.408c-0.829,1.568-1.83,3.076-2.991,4.479
								c-2.324,2.812-5.19,5.037-8.237,6.686c-1.341,0.73-2.711,1.346-4.097,1.875c-0.111-0.58-0.357-1.51-0.452-2.748
								c-0.083-1.014-0.079-2.234,0.074-3.58c0.15-1.346,0.448-2.816,0.919-4.307c0.474-1.49,1.079-2.85,1.756-3.998
								c0.676-1.146,1.424-2.07,2.143-2.75c0.427-0.406,0.841-0.727,1.21-0.98c-0.058,0.982-0.022,1.891,0.064,2.697
								c0.149,1.395,0.44,2.488,0.712,3.219c0.274,0.73,0.53,1.1,0.696,1.064c0.169-0.035,0.231-0.473,0.251-1.225
								c0.024-0.75,0.01-1.816,0.089-3.105c0.078-1.287,0.257-2.801,0.69-4.402c0.429-1.605,1.126-3.291,2.163-4.877
								c1.031-1.586,2.291-2.912,3.58-3.953c1.288-1.043,2.598-1.807,3.746-2.367
								C1099.433,1048.317,1100.4,1047.963,1101.086,1047.696z"/>
						</g>
					</g>
					<g>
						<g>
							<path d="M1105.051,1023.004c0.027,0.49-0.064,0.775-0.228,0.822c-0.166,0.051-0.383-0.137-0.671-0.479
								c-0.29-0.338-0.647-0.826-1.134-1.338c-0.484-0.51-1.098-1.033-1.867-1.426c-0.119-0.059-0.241-0.117-0.368-0.17
								c-0.208-0.984-0.364-1.502-0.464-1.49c-0.09,0.01-0.128,0.451-0.117,1.275c-0.49-0.152-1.021-0.256-1.581-0.287
								c0.303-1.068,0.376-1.666,0.269-1.701c-0.123-0.043-0.447,0.566-1.02,1.693c-0.797,0.031-1.562,0.189-2.226,0.428
								c-0.824,0.299-1.484,0.717-1.929,1.148c-0.45,0.432-0.691,0.879-0.846,1.246c-0.158,0.365-0.248,0.637-0.42,0.672
								c-0.16,0.033-0.402-0.174-0.542-0.699c-0.07-0.258-0.098-0.598-0.046-0.988c0.053-0.389,0.194-0.822,0.432-1.25
								c0.955-1.74,3.433-3.141,6.259-3.029c1.41,0.049,2.753,0.506,3.775,1.203c1.035,0.695,1.728,1.594,2.136,2.387
								C1104.87,1021.821,1105.022,1022.52,1105.051,1023.004z"/>
						</g>
					</g>
					<g>
						<g>
							<path d="M1102.215,1047.045c0.016,0.172-0.381,0.361-1.074,0.629c-0.018,0.008-0.036,0.014-0.055,0.021
								c0.026-0.32,0.051-0.643,0.069-0.963C1101.832,1046.764,1102.202,1046.891,1102.215,1047.045z"/>
						</g>
					</g>
					<g>
						<g>
							<path d="M1064.849,1084.274c0.181-0.037,0.274-0.543,0.268-1.424c0.381,0,0.763-0.004,1.152-0.012
								c2.879-0.064,5.951-0.379,9.095-1.08c1.506-0.338,3.031-0.768,4.546-1.305c0.344,0.365,0.619,0.488,0.735,0.406
								c0.111-0.08,0.096-0.311,0.023-0.686c1.385-0.529,2.755-1.145,4.097-1.875c3.047-1.648,5.913-3.873,8.237-6.686
								c1.161-1.402,2.163-2.91,2.991-4.479c0.414-0.791,0.786-1.584,1.124-2.408c0.348-0.824,0.667-1.648,0.962-2.479
								c1.184-3.307,1.973-6.625,2.463-9.832c0.248-1.605,0.424-3.182,0.543-4.721c0.02-0.008,0.038-0.014,0.055-0.021
								c0.693-0.268,1.09-0.457,1.074-0.629c-0.013-0.154-0.383-0.281-1.06-0.312c0.079-1.201,0.126-2.377,0.15-3.525
								c0.057-2.904-0.029-5.627-0.152-8.107c-0.102-1.92-0.221-3.701-0.338-5.322c0.059-0.387,0.114-0.748,0.16-1.09
								c0.295-2.256,0.333-3.512,0.171-3.541c-0.112-0.021-0.3,0.469-0.571,1.398c-0.093-1.215-0.174-2.303-0.231-3.244
								c-0.085-1.322-0.133-2.363-0.141-3.102c0.203,0.064,0.396,0.135,0.581,0.215c0.149,0.697,0.32,1.629,0.517,2.775
								c0.463,2.762,1.105,6.768,1.596,11.781c0.238,2.506,0.43,5.268,0.458,8.248c0.029,2.979-0.105,6.178-0.555,9.521
								c-0.449,3.344-1.223,6.828-2.435,10.312c-0.3,0.869-0.631,1.744-0.985,2.609c-0.353,0.871-0.76,1.754-1.205,2.615
								c-0.901,1.719-1.992,3.377-3.269,4.916c-2.549,3.082-5.695,5.494-8.994,7.24c-3.301,1.752-6.745,2.871-10.071,3.553
								c-3.332,0.678-6.556,0.926-9.559,0.9c-0.497-0.004-0.988-0.016-1.474-0.035l0.019-0.576
								C1064.834,1084.276,1064.841,1084.276,1064.849,1084.274z"/>
						</g>
					</g>
					<g>
						<g>
							<path d="M1101.146,1025.147c0.162,0.029,0.125,1.285-0.171,3.541c-0.045,0.342-0.101,0.703-0.16,1.09
								c-0.084-1.16-0.165-2.242-0.241-3.232C1100.846,1025.615,1101.034,1025.125,1101.146,1025.147z"/>
						</g>
					</g>
					<g>
						<g>
							<path d="M1100.319,1018.924c0.101-0.012,0.256,0.506,0.464,1.49c-0.185-0.08-0.378-0.15-0.581-0.215
								C1100.19,1019.375,1100.229,1018.934,1100.319,1018.924z"/>
						</g>
					</g>
					<g>
						<g>
							<path d="M1098.89,1018.211c0.107,0.035,0.034,0.633-0.269,1.701c-0.054-0.006-0.111-0.008-0.167-0.01
								c-0.194-0.008-0.391-0.008-0.584,0.002C1098.443,1018.778,1098.767,1018.168,1098.89,1018.211z"/>
						</g>
					</g>
					<g>
						<g>
							<path d="M1098.454,1019.903c0.056,0.002,0.113,0.004,0.167,0.01c-0.14,0.486-0.329,1.074-0.571,1.752
								c-0.776,2.143-2.142,5.188-4.395,8.625c-2.247,3.43-5.403,7.236-9.525,10.793c-4.113,3.555-9.193,6.861-15.003,9.293
								c-5.8,2.441-11.75,3.744-17.207,4.014c-5.461,0.287-10.401-0.463-14.341-1.66c-0.35-0.105-0.693-0.215-1.029-0.328
								c-0.176-0.67-0.309-1.016-0.396-1.006c-0.083,0.01-0.127,0.295-0.133,0.826c-3.181-1.111-5.616-2.445-7.271-3.518
								c-1.917-1.256-2.831-2.137-2.739-2.268c0.102-0.15,1.198,0.459,3.211,1.428c2.011,0.955,4.975,2.25,8.817,3.178
								c3.831,0.938,8.545,1.471,13.742,1.074c5.189-0.381,10.839-1.686,16.391-4.02c5.556-2.33,10.458-5.434,14.489-8.756
								c4.04-3.322,7.208-6.861,9.558-10.051c2.361-3.193,3.918-6.027,4.95-8.012c0.266-0.52,0.5-0.979,0.702-1.373
								C1098.063,1019.895,1098.26,1019.895,1098.454,1019.903z"/>
						</g>
					</g>
					<g>
						<g>
							<path d="M1087.791,1060.694c0.036,0.252-0.597,0.51-1.472,1.117c0.021-0.432,0.064-0.877,0.125-1.336
								c0.1-0.014,0.193-0.023,0.281-0.029C1087.398,1060.397,1087.767,1060.531,1087.791,1060.694z"/>
						</g>
					</g>
					<g>
						<g>
							<path d="M1101.155,1046.733c-0.018,0.32-0.043,0.643-0.069,0.963c-0.686,0.268-1.653,0.621-2.775,1.166
								c-1.148,0.561-2.458,1.324-3.746,2.367c-1.289,1.041-2.549,2.367-3.58,3.953c-1.037,1.586-1.734,3.271-2.163,4.877
								c-0.434,1.602-0.612,3.115-0.69,4.402c-0.079,1.289-0.064,2.355-0.089,3.105c-0.02,0.752-0.082,1.189-0.251,1.225
								c-0.166,0.035-0.422-0.334-0.696-1.064c-0.271-0.73-0.562-1.824-0.712-3.219c-0.087-0.807-0.123-1.715-0.064-2.697
								c0.875-0.607,1.508-0.865,1.472-1.117c-0.024-0.162-0.394-0.297-1.065-0.248c-0.088,0.006-0.181,0.016-0.281,0.029
								c0.043-0.303,0.093-0.613,0.155-0.93c0.359-1.855,1.103-3.863,2.312-5.711c1.203-1.854,2.732-3.344,4.288-4.428
								c1.555-1.088,3.129-1.777,4.485-2.178c1.362-0.4,2.505-0.518,3.292-0.504
								C1101.039,1046.729,1101.098,1046.731,1101.155,1046.733z"/>
						</g>
					</g>
					<g>
						<g>
							<path d="M1086.445,1060.475c-0.061,0.459-0.105,0.904-0.125,1.336c-0.369,0.254-0.784,0.574-1.21,0.98
								c-0.719,0.68-1.467,1.604-2.143,2.75c-0.677,1.148-1.282,2.508-1.756,3.998c-0.472,1.49-0.769,2.961-0.919,4.307
								c-0.152,1.346-0.157,2.566-0.074,3.58c0.095,1.238,0.341,2.168,0.452,2.748c-0.252,0.096-0.505,0.188-0.759,0.279
								c-0.058-0.057-0.115-0.123-0.175-0.195c-0.426-0.512-0.902-1.367-1.236-2.498c-0.679-2.262-0.723-5.59,0.355-8.971
								c0.535-1.689,1.298-3.225,2.205-4.496c0.905-1.271,1.965-2.266,2.996-2.896
								C1084.949,1060.84,1085.8,1060.569,1086.445,1060.475z"/>
						</g>
					</g>
					<g>
						<g>
							<path d="M1080.669,1080.174c0.072,0.375,0.088,0.605-0.023,0.686c-0.117,0.082-0.391-0.041-0.735-0.406
								C1080.164,1080.362,1080.416,1080.27,1080.669,1080.174z"/>
						</g>
					</g>
					<g>
						<g>
							<path d="M1065.117,1082.85c0.006,0.881-0.087,1.387-0.268,1.424c-0.007,0.002-0.014,0.002-0.021,0.002
								c-0.207,0-0.49-0.523-0.843-1.441C1064.358,1082.846,1064.735,1082.85,1065.117,1082.85z"/>
						</g>
					</g>
					<g>
						<g>
							<path d="M1064.892,1080.1c0.143,1.121,0.216,2.051,0.225,2.75c-0.382,0-0.759-0.004-1.133-0.016
								c-0.236-0.619-0.505-1.416-0.8-2.355c-0.762-2.373-1.708-5.666-3.149-9.076c-0.721-1.703-1.517-3.258-2.357-4.584
								c-0.838-1.326-1.727-2.41-2.562-3.236c-0.701-0.695-1.358-1.211-1.877-1.604c0.788-0.025,1.591-0.066,2.406-0.121
								c0.19,0.111,0.383,0.236,0.579,0.371c1.112,0.764,2.282,1.885,3.33,3.295c1.05,1.404,1.985,3.088,2.76,4.912
								c0.775,1.824,1.33,3.617,1.741,5.262C1064.463,1077.342,1064.727,1078.838,1064.892,1080.1z"/>
						</g>
					</g>
					<g>
						<g>
							<path d="M1053.355,1060.891c0.599,0.139,1.402,0.436,2.288,0.967c-0.814,0.055-1.618,0.096-2.406,0.121
								c-0.098-0.076-0.193-0.145-0.281-0.211c-0.548-0.41-0.87-0.668-0.814-0.836
								C1052.194,1060.774,1052.623,1060.727,1053.355,1060.891z"/>
						</g>
					</g>
					<g>
						<g>
							<path d="M1042.801,1078.231c0.087-0.162,1.5,0.486,4.11,1.42c2.609,0.922,6.458,2.098,11.343,2.742
								c1.781,0.234,3.702,0.396,5.73,0.441c0.354,0.918,0.636,1.441,0.843,1.441l-0.019,0.576c-2.447-0.092-4.731-0.359-6.822-0.73
								c-5.018-0.891-8.894-2.363-11.445-3.582c-1.279-0.609-2.232-1.16-2.856-1.564
								C1043.06,1078.567,1042.761,1078.305,1042.801,1078.231z"/>
						</g>
					</g>
					<g>
						<g>
							<path d="M1036.755,1053.225c0.141,0.604,0.297,1.346,0.475,2.221l0.273,1.408c0.09,0.465,0.216,1.172,0.257,1.291
								c0.047,0.031,0.102,0.057,0.153,0.084l0.211,0.105c0.215,0.113,0.439,0.217,0.672,0.316c0.467,0.197,0.969,0.371,1.504,0.521
								c1.066,0.299,2.255,0.506,3.535,0.637c2.562,0.262,5.473,0.201,8.643,0.027c6.285-0.342,13.505-1.525,20.732-4.156
								c5.682-2.062,10.781-4.832,14.941-7.973c2.07-1.551,3.847-3.25,5.298-5.016c1.453-1.768,2.582-3.594,3.451-5.35
								c0.872-1.756,1.497-3.436,1.986-4.936c0.491-1.5,0.848-2.826,1.146-3.908c0.21-0.779,0.388-1.438,0.543-1.953
								c0.076,0.99,0.157,2.072,0.241,3.232c-0.146,0.889-0.336,1.895-0.598,3.002c-0.379,1.588-0.911,3.385-1.73,5.295
								c-0.819,1.91-1.938,3.93-3.432,5.887c-1.489,1.959-3.349,3.848-5.511,5.553c-4.286,3.389-9.586,6.348-15.489,8.488
								c-6.347,2.312-12.688,3.463-18.412,3.855c-0.886-0.531-1.688-0.828-2.288-0.967c-0.732-0.164-1.162-0.117-1.214,0.041
								c-0.055,0.168,0.267,0.426,0.814,0.836c0.088,0.066,0.184,0.135,0.281,0.211c-0.227,0.008-0.452,0.014-0.676,0.02
								c-3.218,0.076-6.246,0.025-8.956-0.395c-1.355-0.211-2.629-0.504-3.79-0.918c-0.581-0.205-1.131-0.439-1.646-0.703
								c-0.256-0.133-0.504-0.273-0.743-0.422l-0.207-0.129c-0.079-0.053-0.158-0.102-0.239-0.158
								c-0.163-0.113-0.321-0.221-0.471-0.336c-0.117-1.01-0.144-1.371-0.196-1.918l-0.122-1.428
								c-0.068-0.891-0.119-1.648-0.147-2.27c-0.019-0.439-0.028-0.809-0.024-1.102c0.175,0.062,0.35,0.121,0.529,0.18
								C1036.615,1052.635,1036.681,1052.91,1036.755,1053.225z"/>
						</g>
					</g>
					<g>
						<g>
							<path d="M1036.154,1051.395c0.087-0.01,0.22,0.336,0.396,1.006c-0.18-0.059-0.354-0.117-0.529-0.18
								C1036.026,1051.69,1036.071,1051.405,1036.154,1051.395z"/>
						</g>
					</g>
				</g>
			</g>
		</g>
	</g>
	<g opacity="0.15">
		<ellipse fill="#7F7F7F" cx="1096.461" cy="1168.047" rx="67.424" ry="5.418"/>
	</g>
</g>
</svg>
