<?xml version="1.0" encoding="utf-8"?>
<!-- Generator: Adobe Illustrator 17.0.0, SVG Export Plug-In . SVG Version: 6.00 Build 0)  -->
<!DOCTYPE svg PUBLIC "-//W3C//DTD SVG 1.1//EN" "http://www.w3.org/Graphics/SVG/1.1/DTD/svg11.dtd">
<svg version="1.1" id="Layer_1" xmlns="http://www.w3.org/2000/svg" xmlns:xlink="http://www.w3.org/1999/xlink" x="0px" y="0px"
	 width="639.643px" height="400.103px" viewBox="0 -597.06 639.643 400.103" enable-background="new 0 -597.06 639.643 400.103"
	 xml:space="preserve">
<g>
	<rect y="-597.06" fill="#2BA9E0" width="639.643" height="400.103"/>
</g>
<g>
	<path fill="#FFFFFF" d="M202.244-290.123H244v13.493h-9.551v-4.387h-3.554v24.987h3.887v9.106h-23.321v-9.106h3.887v-24.987h-3.554
		v4.387h-9.551v-13.493H202.244z"/>
	<path fill="#FFFFFF" d="M254.828-246.923l-7.719-34.094h-2.221v-9.106h22.045v9.106h-3.609l2.721,20.822h0.555l6.386-29.929h15.992
		l5.997,29.929h0.556l2.721-20.822h-3.609v-9.106h19.268v9.106h-2.221l-7.163,34.094h-19.379l-5.054-22.877h-0.555l-5.331,22.877
		H254.828z"/>
	<path fill="#FFFFFF" d="M340.951-281.017h-6.719v8.773h4.887v6.33h-4.887v9.884h6.719v-8.773h12.438v17.88h-38.037v-9.106h3.332
		v-24.987h-3.332v-9.106h38.037v16.769h-12.438V-281.017z"/>
	<path fill="#FFFFFF" d="M381.762-281.017h-6.719v8.773h4.887v6.33h-4.887v9.884h6.719v-8.773H394.2v17.88h-38.037v-9.106h3.332
		v-24.987h-3.332v-9.106H394.2v16.769h-12.438V-281.017z"/>
	<path fill="#FFFFFF" d="M396.421-290.123h41.757v13.493h-9.551v-4.387h-3.554v24.987h3.887v9.106h-23.321v-9.106h3.887v-24.987
		h-3.554v4.387h-9.551V-290.123z"/>
</g>
<g>
	<g>
		<g>
			<path fill="#FFFFFF" d="M400.996-518.359c-5.974,2.65-12.394,4.44-19.13,5.245c6.876-4.123,12.158-10.649,14.645-18.428
				c-6.436,3.817-13.564,6.589-21.151,8.083c-6.075-6.473-14.732-10.518-24.312-10.518c-18.396,0-33.308,14.913-33.308,33.308
				c0,2.61,0.293,5.152,0.862,7.59c-27.683-1.389-52.226-14.649-68.652-34.8c-2.868,4.919-4.511,10.64-4.511,16.744
				c0,11.556,5.881,21.751,14.817,27.724c-5.459-0.173-10.596-1.671-15.086-4.167c-0.003,0.14-0.003,0.279-0.003,0.419
				c0,16.138,11.481,29.599,26.717,32.659c-2.794,0.762-5.736,1.17-8.773,1.17c-2.146,0-4.232-0.21-6.268-0.598
				c4.239,13.231,16.54,22.862,31.114,23.13c-11.397,8.933-25.761,14.259-41.366,14.259c-2.688,0-5.34-0.158-7.945-0.467
				c14.74,9.452,32.248,14.966,51.058,14.966c61.266,0,94.768-50.754,94.768-94.768c0-1.444-0.031-2.88-0.096-4.309
				C390.884-505.813,396.529-511.679,400.996-518.359z"/>
		</g>
	</g>
	<g opacity="0.15">
		<ellipse fill="#FFFFFF" cx="318.86" cy="-328.625" rx="67.424" ry="5.418"/>
	</g>
</g>
</svg>
