<?xml version="1.0" encoding="utf-8"?>
<!-- Generator: Adobe Illustrator 15.0.0, SVG Export Plug-In . SVG Version: 6.00 Build 0)  -->
<!DOCTYPE svg PUBLIC "-//W3C//DTD SVG 1.1//EN" "http://www.w3.org/Graphics/SVG/1.1/DTD/svg11.dtd">
<svg version="1.1" id="Layer_1" xmlns="http://www.w3.org/2000/svg" xmlns:xlink="http://www.w3.org/1999/xlink" x="0px" y="0px"
	 width="32.217px" height="32.5px" viewBox="0 0 32.217 32.5" enable-background="new 0 0 32.217 32.5" xml:space="preserve">
<path opacity="0.14" fill="#010101" d="M26.597,5.645c-5.857-5.857-15.354-5.858-21.213,0c-5.627,5.627-5.832,14.609-0.644,20.5
	c-0.017-1.804,0.225-3.67,0.907-5.445c0.942-2.624,2.738-4.839,4.763-6.367c1.026-0.758,2.098-1.388,3.21-1.876
	c0.557-0.243,1.12-0.458,1.693-0.643c0.382-0.116,0.736-0.211,1.129-0.304l-0.114-0.272l-5.491-2.958l4.083-1.705l9.236,4.497
	l-3.297,9.729l-4.082,1.705l1.757-5.985l-0.127-0.303c-0.245,0.155-0.57,0.354-0.835,0.547c-0.355,0.239-0.701,0.492-1.027,0.76
	c-0.656,0.532-1.258,1.093-1.753,1.696c-1.02,1.186-1.625,2.457-1.881,3.748c-0.229,1.299-0.199,2.692,0.193,4.188
	c0.184,0.745,0.425,1.511,0.733,2.28c0.152,0.387,0.316,0.774,0.493,1.163l0.277,0.582l0.001,0.003
	c4.286,0.394,8.708-1.047,11.987-4.327C32.456,21,32.454,11.502,26.597,5.645z"/>
</svg>
