<?xml version="1.0" encoding="utf-8"?>
<!-- Generator: Adobe Illustrator 15.0.0, SVG Export Plug-In . SVG Version: 6.00 Build 0)  -->
<!DOCTYPE svg PUBLIC "-//W3C//DTD SVG 1.1//EN" "http://www.w3.org/Graphics/SVG/1.1/DTD/svg11.dtd">
<svg version="1.1" id="Layer_1" xmlns="http://www.w3.org/2000/svg" xmlns:xlink="http://www.w3.org/1999/xlink" x="0px" y="0px"
	 width="1280px" height="800px" viewBox="0 0 1280 800" enable-background="new 0 0 1280 800" xml:space="preserve">
<g>
	<rect y="-1.154" fill="#FFFFFF" width="1280" height="800"/>
	<g>
		<path fill="#FFFF00" d="M362.046,588.069h-55.664v-24.39h8.203v-16.187l-25.708-36.914h-6.958v-24.39h53.247v24.39h-6.079
			l10.84,20.801l13.11-20.801h-6.226v-24.39h39.185v24.39h-6.372l-25.635,36.914v16.187h8.057V588.069z"/>
		<path fill="#FFFF00" d="M492.637,588.069h-97.192v-24.39h7.91v-53.101h-8.057v-24.39h97.339v32.593h-26.733v-8.203h-23.145v15.674
			h20.142v20.728h-20.142v16.699h23.145v-8.203h26.733V588.069z"/>
		<path fill="#FFFF00" d="M603.453,588.069H506.48v-24.39h9.155v-53.101h-9.155v-24.39h58.228v24.39h-9.668v53.101h24.097v-16.333
			h24.316V588.069z"/>
		<path fill="#FFFF00" d="M708.189,588.069h-96.973v-24.39h9.155v-53.101h-9.155v-24.39h58.228v24.39h-9.668v53.101h24.097v-16.333
			h24.316V588.069z"/>
		<path fill="#FFFF00" d="M718.077,536.873c0-8.496,2.075-16.724,6.226-24.683c4.102-7.91,10.474-14.575,19.116-19.995
			c3.076-1.904,6.237-3.417,9.484-4.541c3.247-1.123,6.775-1.989,10.584-2.6s7.812-0.916,12.012-0.916
			c18.262,0,32.397,5.347,42.407,16.04c4.98,5.273,8.74,10.986,11.279,17.139c2.538,6.152,3.809,12.671,3.809,19.556
			c0,14.209-5.176,26.562-15.527,37.061c-10.353,10.499-24.342,15.747-41.968,15.747c-17.041,0-30.86-4.932-41.455-14.795
			C723.398,565.071,718.077,552.4,718.077,536.873z M762.315,536.873c0,11.328,1.099,18.97,3.296,22.925
			c2.099,4.004,5.395,6.006,9.888,6.006c4.442,0,7.764-1.929,9.961-5.786c2.197-3.906,3.296-11.62,3.296-23.145
			c0-11.181-1.074-18.798-3.223-22.852c-2.1-4.003-5.445-6.006-10.034-6.006c-4.395,0-7.69,1.93-9.888,5.786
			C763.414,517.659,762.315,525.35,762.315,536.873z"/>
		<path fill="#FFFF00" d="M904.208,588.948h-32.08l-28.711-78.369h-7.031v-24.39h52.808v24.39h-7.617l12.012,43.872l15.234-43.872
			h-7.544v-24.39h44.385v24.39h-7.544l15.454,43.872l12.158-43.872h-7.324v-24.39h41.089v24.39h-7.031l-29.004,78.369h-31.641
			l-13.77-39.258L904.208,588.948z"/>
	</g>
	<polygon fill="#FFFFFF" points="695.041,378.875 584.526,378.875 620.104,360.529 620.104,191.428 611.209,175.197 
		668.356,175.197 659.462,191.428 659.462,360.529 	"/>
	<path fill="#FFFF00" d="M625.317,354.4c0,7.871,7.091,14.254,14.042,14.254s12.585-6.383,12.585-14.254l2.305-121.898h-28.854
		L625.317,354.4z"/>
	<ellipse fill="#FFFFFF" cx="642.907" cy="260.482" rx="2.094" ry="2.373"/>
	<ellipse fill="#FFFFFF" cx="638.39" cy="252.975" rx="3.044" ry="3.445"/>
	<ellipse fill="#EFE914" cx="639.783" cy="232.502" rx="14.427" ry="4.172"/>
	<path fill="#231F20" d="M695.041,380.877c-9.21,1.396-18.419,2.055-27.629,2.479c-4.604,0.203-9.209,0.312-13.814,0.443
		l-6.907,0.16l-6.906,0.104c-9.21,0.1-18.421-0.053-27.629-0.338c-4.605-0.146-9.209-0.258-13.814-0.705
		c-2.302-0.209-4.604-0.473-6.907-0.814c-2.303-0.348-4.605-0.748-6.908-1.328l-5.198-1.309l4.28-2.475l34.694-20.061l-2.131,3.496
		l0.264-169.102l0.452,1.764l-8.693-16.342l-3.086-5.803l6.102,0.709c4.763,0.555,9.525,0.818,14.287,0.992
		c4.763,0.164,9.525,0.201,14.288,0.148c4.762-0.055,9.524-0.205,14.286-0.531c4.762-0.328,9.524-0.768,14.286-1.576l9.845-1.67
		l-5.98,8.195l-11.003,15.076l0.247-0.963l3.214,169.102l-2.827-4.637l38.82,24.131L695.041,380.877z M681.236,375.268l-24.165-10.1
		l-2.892-1.211l0.065-3.428l3.214-169.102l0.006-0.348l0.24-0.615l6.786-17.387l3.865,6.525c-4.762-0.809-9.524-1.248-14.286-1.576
		c-4.762-0.326-9.524-0.477-14.286-0.531c-4.763-0.053-9.525-0.016-14.288,0.148c-4.762,0.174-9.523,0.438-14.287,0.99l3.016-5.092
		l9.097,16.121l0.45,0.799l0.002,0.965l0.264,169.102l0.004,2.523l-2.135,0.973l-36.464,16.629l-0.918-3.783
		c2.302-0.58,4.605-0.98,6.908-1.326c2.303-0.344,4.604-0.607,6.907-0.816c4.605-0.445,9.209-0.559,13.814-0.703
		c9.208-0.287,18.419-0.439,27.629-0.34l6.906,0.104l6.907,0.16c4.605,0.131,9.21,0.24,13.814,0.443
		C672.021,374.605,676.628,374.875,681.236,375.268z"/>
	<path fill="#231F20" d="M639.783,220.619c1.612-0.836,3.226-1.256,4.838-1.57c1.613-0.291,3.226-0.432,4.839-0.432
		c1.612-0.004,3.224,0.135,4.837,0.426c1.614,0.314,3.227,0.734,4.839,1.576c-1.612,0.842-3.225,1.262-4.839,1.576
		c-1.613,0.293-3.225,0.43-4.837,0.428c-1.613-0.002-3.226-0.141-4.839-0.434C643.009,221.875,641.396,221.455,639.783,220.619z"/>
	<path fill="#231F20" d="M639.783,277.035c1.612-0.836,3.226-1.256,4.838-1.57c1.613-0.293,3.226-0.432,4.839-0.432
		c1.612-0.004,3.224,0.133,4.837,0.426c1.614,0.314,3.227,0.734,4.839,1.576c-1.612,0.842-3.225,1.264-4.839,1.576
		c-1.613,0.293-3.225,0.43-4.837,0.426c-1.613,0-3.226-0.139-4.839-0.432C643.009,278.291,641.396,277.873,639.783,277.035z"/>
	<path fill="#231F20" d="M639.783,331.807c1.612-0.838,3.226-1.258,4.838-1.57c1.613-0.293,3.226-0.432,4.839-0.434
		c1.612-0.002,3.224,0.135,4.837,0.428c1.614,0.314,3.227,0.734,4.839,1.576c-1.612,0.842-3.225,1.262-4.839,1.574
		c-1.613,0.293-3.225,0.432-4.837,0.428c-1.613,0-3.226-0.141-4.839-0.434C643.009,333.062,641.396,332.643,639.783,331.807z"/>
</g>
</svg>
