<?xml version="1.0" encoding="utf-8"?>
<!-- Generator: Adobe Illustrator 15.0.0, SVG Export Plug-In . SVG Version: 6.00 Build 0)  -->
<!DOCTYPE svg PUBLIC "-//W3C//DTD SVG 1.1//EN" "http://www.w3.org/Graphics/SVG/1.1/DTD/svg11.dtd">
<svg version="1.1" id="Layer_1" xmlns="http://www.w3.org/2000/svg" xmlns:xlink="http://www.w3.org/1999/xlink" x="0px" y="0px"
	 width="159.955px" height="283.424px" viewBox="0 0 159.955 283.424" enable-background="new 0 0 159.955 283.424"
	 xml:space="preserve">
<g>
	<polygon fill="#FFFFFF" points="152.531,276.494 6.853,276.494 53.752,252.313 53.752,29.408 42.026,8.011 117.356,8.011 
		105.633,29.408 105.633,252.313 	"/>
	<path fill="#FFFF00" d="M60.623,244.233c0,10.376,9.348,18.79,18.511,18.79c9.162,0,16.589-8.414,16.589-18.79L98.76,83.55H60.726
		L60.623,244.233z"/>
	<ellipse fill="#FFFFFF" cx="83.809" cy="120.434" rx="2.761" ry="3.127"/>
	<ellipse fill="#FFFFFF" cx="77.855" cy="110.536" rx="4.012" ry="4.543"/>
	<ellipse fill="#EFE914" cx="79.691" cy="83.55" rx="19.017" ry="5.5"/>
	<path fill="#231F20" d="M152.531,279.135c-12.141,1.841-24.279,2.708-36.42,3.267c-6.069,0.266-12.14,0.412-18.209,0.585
		l-9.105,0.21l-9.104,0.135c-12.141,0.132-24.281-0.069-36.42-0.445c-6.07-0.192-12.14-0.34-18.21-0.928
		c-3.035-0.277-6.069-0.623-9.104-1.075c-3.035-0.457-6.07-0.986-9.105-1.75L0,277.41l5.642-3.263l45.733-26.442l-2.809,4.609
		l0.348-222.905l0.596,2.324L38.05,10.19l-4.067-7.648l8.043,0.935c6.278,0.73,12.556,1.078,18.832,1.306
		C67.137,5,73.414,5.048,79.692,4.98c6.277-0.073,12.555-0.271,18.833-0.7c6.277-0.432,12.555-1.013,18.832-2.078L130.334,0
		l-7.883,10.802l-14.503,19.875l0.326-1.269l4.235,222.905l-3.726-6.112l51.172,31.808L152.531,279.135z M134.334,271.741
		l-31.854-13.315l-3.812-1.594l0.086-4.519l4.236-222.905L103,28.949l0.316-0.81l8.945-22.92l5.095,8.6
		c-6.277-1.065-12.555-1.646-18.832-2.077c-6.278-0.429-12.556-0.628-18.833-0.7c-6.278-0.069-12.556-0.021-18.834,0.197
		c-6.276,0.228-12.554,0.576-18.832,1.306l3.976-6.712l11.991,21.251l0.594,1.051l0.002,1.273l0.348,222.905l0.005,3.326
		l-2.815,1.282L8.062,278.842l-1.21-4.989c3.035-0.764,6.07-1.292,9.105-1.749c3.035-0.452,6.069-0.799,9.104-1.076
		c6.07-0.587,12.14-0.736,18.21-0.927c12.139-0.376,24.279-0.579,36.42-0.446l9.104,0.135l9.105,0.21
		c6.07,0.172,12.14,0.319,18.209,0.585C122.186,270.866,128.26,271.223,134.334,271.741z"/>
	<path fill="#231F20" d="M79.691,67.886c2.125-1.103,4.252-1.655,6.378-2.068c2.126-0.386,4.252-0.57,6.378-0.572
		c2.125-0.005,4.25,0.178,6.377,0.563c2.126,0.412,4.252,0.967,6.377,2.076c-2.125,1.11-4.251,1.665-6.377,2.077
		c-2.126,0.387-4.251,0.568-6.377,0.563c-2.126-0.001-4.252-0.185-6.378-0.571C83.943,69.542,81.816,68.989,79.691,67.886z"/>
	<path fill="#231F20" d="M79.691,142.252c2.125-1.103,4.252-1.655,6.378-2.069c2.126-0.386,4.252-0.57,6.378-0.571
		c2.125-0.005,4.25,0.177,6.377,0.563c2.126,0.412,4.252,0.966,6.377,2.076c-2.125,1.11-4.251,1.665-6.377,2.077
		c-2.126,0.386-4.251,0.568-6.377,0.563c-2.126-0.001-4.252-0.186-6.378-0.571C83.943,143.908,81.816,143.356,79.691,142.252z"/>
	<path fill="#231F20" d="M79.691,214.45c2.125-1.103,4.252-1.655,6.378-2.068c2.126-0.386,4.252-0.57,6.378-0.571
		c2.125-0.005,4.25,0.177,6.377,0.563c2.126,0.413,4.252,0.967,6.377,2.076c-2.125,1.11-4.251,1.665-6.377,2.077
		c-2.126,0.387-4.251,0.569-6.377,0.564c-2.126-0.001-4.252-0.185-6.378-0.571C83.943,216.106,81.816,215.554,79.691,214.45z"/>
</g>
</svg>
