<?xml version="1.0" encoding="utf-8"?>
<!-- Generator: Adobe Illustrator 15.0.0, SVG Export Plug-In . SVG Version: 6.00 Build 0)  -->
<!DOCTYPE svg PUBLIC "-//W3C//DTD SVG 1.1//EN" "http://www.w3.org/Graphics/SVG/1.1/DTD/svg11.dtd">
<svg version="1.1" id="Layer_1" xmlns="http://www.w3.org/2000/svg" xmlns:xlink="http://www.w3.org/1999/xlink" x="0px" y="0px"
	 width="1280px" height="800px" viewBox="0 0 1280 800" enable-background="new 0 0 1280 800" xml:space="preserve">
<g>
	<rect y="-1" fill="#FFFFFF" width="1280" height="800"/>
	<g>
		<path fill="#FFD700" d="M413.829,482.886h-8.32v-15.469h36.445c0,8.906-0.625,15.527-1.875,19.863
			c-1.211,4.181-3.75,8.418-7.617,12.715c-3.789,4.258-8.379,7.363-13.77,9.316s-11.172,2.93-17.344,2.93
			c-9.18,0-17.52-1.523-25.02-4.57c-7.539-2.968-13.359-7.89-17.461-14.766c-4.141-6.758-6.211-14.335-6.211-22.734
			c0-12.694,4.18-22.93,12.539-30.703c8.281-7.772,18.437-11.66,30.469-11.66c10.039,0,17.909,2.441,23.613,7.324v-5.684h19.629
			v28.477h-19.629c-1.72-3.516-3.955-6.172-6.709-7.969c-2.754-1.796-5.968-2.695-9.639-2.695c-5.156,0-8.945,1.68-11.367,5.039
			c-2.383,3.36-3.574,9.531-3.574,18.516c0,8.945,1.25,15.021,3.75,18.223c2.539,3.243,6.23,4.863,11.074,4.863
			C410.157,493.901,413.829,490.23,413.829,482.886z"/>
		<path fill="#FFD700" d="M454.083,469.995c0-6.797,1.66-13.379,4.98-19.746c3.281-6.328,8.379-11.66,15.293-15.996
			c2.461-1.523,4.989-2.733,7.588-3.633c2.598-0.898,5.42-1.591,8.467-2.08c3.047-0.488,6.249-0.732,9.609-0.732
			c14.609,0,25.918,4.277,33.926,12.832c3.984,4.219,6.992,8.789,9.023,13.711c2.03,4.922,3.047,10.137,3.047,15.645
			c0,11.367-4.141,21.25-12.422,29.648c-8.282,8.399-19.474,12.598-33.574,12.598c-13.633,0-24.688-3.945-33.164-11.836
			C458.339,492.554,454.083,482.417,454.083,469.995z M489.473,469.995c0,9.062,0.879,15.176,2.637,18.34
			c1.679,3.203,4.315,4.805,7.91,4.805c3.554,0,6.211-1.543,7.969-4.629c1.758-3.125,2.637-9.296,2.637-18.516
			c0-8.944-0.859-15.038-2.578-18.281c-1.68-3.202-4.356-4.805-8.027-4.805c-3.516,0-6.152,1.544-7.91,4.629
			C490.352,454.624,489.473,460.776,489.473,469.995z"/>
		<path fill="#FFD700" d="M633.79,510.952h-77.578V491.44h7.324v-42.48h-7.324v-19.512h46.582v19.512h-7.734v42.48h19.277v-13.066
			h19.453V510.952z"/>
		<path fill="#FFD700" d="M679.786,510.952h-37.91V491.44h6.387v-42.48h-6.387v-19.512h39.023c8.906,0,16.172,0.548,21.797,1.641
			c5.663,1.094,10.995,3.34,15.996,6.738c4.96,3.438,8.867,8.086,11.719,13.945c1.406,2.812,2.48,5.821,3.223,9.023
			c0.741,3.203,1.113,6.562,1.113,10.078c0,7.07-1.504,13.516-4.512,19.336c-2.969,5.781-6.738,10.216-11.309,13.301
			c-4.453,3.086-9.337,5.098-14.648,6.035C699.004,510.483,690.839,510.952,679.786,510.952z M679.786,448.96v42.48h2.988
			c7.421,0,12.246-1.972,14.473-5.918c2.188-3.945,3.281-8.906,3.281-14.883c0-3.594-0.469-7.148-1.406-10.664
			c-0.977-3.516-2.695-6.23-5.156-8.145c-2.423-1.913-6.759-2.871-13.008-2.871H679.786z"/>
		<path fill="#FFD700" d="M823.926,510.952h-77.754V491.44h6.328v-42.48h-6.445v-19.512h77.871v26.074H802.54v-6.562h-18.516v12.539
			h16.113v16.582h-16.113v13.359h18.516v-6.562h21.387V510.952z"/>
		<path fill="#FFD700" d="M868.106,510.952h-33.457V491.44h7.148v-42.48h-7.148v-19.512h38.613l29.648,42.598V448.96h-6.621v-19.512
			h32.871v19.512h-7.09v63.047h-26.836l-34.336-49.277v28.711h7.207V510.952z"/>
	</g>
	<g>
		<path fill="#FFD700" d="M417.637,654.952h-44.531V635.44h6.562v-12.949l-20.566-29.531h-5.566v-19.512h42.598v19.512h-4.863
			l8.672,16.641l10.488-16.641h-4.98v-19.512h31.348v19.512H431.7l-20.508,29.531v12.949h6.445V654.952z"/>
		<path fill="#FFD700" d="M522.11,654.952h-77.754V635.44h6.328v-42.48h-6.445v-19.512h77.871v26.074h-21.387v-6.562h-18.516v12.539
			h16.113v16.582h-16.113v13.359h18.516v-6.562h21.387V654.952z"/>
		<path fill="#FFD700" d="M610.762,654.952h-77.578V635.44h7.324v-42.48h-7.324v-19.512h46.582v19.512h-7.734v42.48h19.277v-13.066
			h19.453V654.952z"/>
		<path fill="#FFD700" d="M694.551,654.952h-77.578V635.44h7.324v-42.48h-7.324v-19.512h46.582v19.512h-7.734v42.48h19.277v-13.066
			h19.453V654.952z"/>
		<path fill="#FFD700" d="M702.461,613.995c0-6.797,1.66-13.379,4.98-19.746c3.281-6.328,8.379-11.66,15.293-15.996
			c2.461-1.523,4.989-2.733,7.588-3.633c2.598-0.898,5.42-1.591,8.467-2.08c3.047-0.488,6.249-0.732,9.609-0.732
			c14.609,0,25.918,4.277,33.926,12.832c3.984,4.219,6.992,8.789,9.023,13.711c2.03,4.922,3.047,10.137,3.047,15.645
			c0,11.367-4.141,21.25-12.422,29.648c-8.282,8.399-19.474,12.598-33.574,12.598c-13.633,0-24.688-3.945-33.164-11.836
			C706.718,636.554,702.461,626.417,702.461,613.995z M737.852,613.995c0,9.062,0.879,15.176,2.637,18.34
			c1.679,3.203,4.315,4.805,7.91,4.805c3.554,0,6.211-1.543,7.969-4.629c1.758-3.125,2.637-9.296,2.637-18.516
			c0-8.944-0.859-15.038-2.578-18.281c-1.68-3.202-4.356-4.805-8.027-4.805c-3.516,0-6.152,1.544-7.91,4.629
			C738.731,598.624,737.852,604.776,737.852,613.995z"/>
		<path fill="#FFD700" d="M851.367,655.655h-25.664l-22.969-62.695h-5.625v-19.512h42.246v19.512h-6.094l9.609,35.098l12.188-35.098
			h-6.035v-19.512h35.508v19.512h-6.035l12.363,35.098l9.727-35.098h-5.859v-19.512h32.871v19.512h-5.625l-23.203,62.695h-25.312
			l-11.016-31.406L851.367,655.655z"/>
	</g>
	<polygon fill="#FFFFFF" points="695.073,319.936 584.557,319.936 620.136,301.59 620.136,132.488 611.241,116.258 668.389,116.258 
		659.494,132.488 659.494,301.59 	"/>
	<path fill="#FFD700" d="M625.35,295.461c0,7.871,7.091,14.254,14.042,14.254s12.585-6.383,12.585-14.254l2.305-167.416h-28.854
		L625.35,295.461z"/>
	<ellipse fill="#E8BC05" cx="639.854" cy="128.045" rx="14.427" ry="4.172"/>
	<ellipse fill="#FFFFFF" cx="642.939" cy="156.027" rx="2.094" ry="2.371"/>
	<ellipse fill="#FFFFFF" cx="638.423" cy="148.518" rx="3.044" ry="3.445"/>
	<path fill="#231F20" d="M695.073,321.938c-9.21,0.268-18.42,0.441-27.63,0.576c-4.604,0.072-9.208,0.135-13.814,0.178
		l-13.814,0.125l-13.814,0.082l-13.814,0.029c-9.21,0.057-18.419-0.031-27.629-0.99l-6.324-0.658l5.406-3.125l34.695-20.061
		l-2.131,3.496l0.265-169.102l0.451,1.764l-8.694-16.342l-2.296-4.316l5.312-0.777c2.382-0.348,4.763-0.586,7.145-0.814
		c2.381-0.215,4.762-0.414,7.143-0.562c4.763-0.309,9.524-0.504,14.287-0.623s9.524-0.193,14.287-0.162
		c4.762,0.023,9.523,0.098,14.286,0.367l10.315,0.588l-5.725,7.162l-11.729,14.68l0.246-0.963l3.214,169.102l-2.826-4.637
		l39.882,24.791L695.073,321.938z M684.58,317.713l-27.477-11.484l-2.892-1.211l0.065-3.428l3.214-169.102l0.004-0.252l0.242-0.711
		l6.06-17.783l4.591,7.75c-4.763,0.27-9.524,0.344-14.286,0.367c-4.763,0.031-9.524-0.043-14.287-0.162s-9.524-0.314-14.287-0.623
		c-2.381-0.148-4.762-0.348-7.143-0.562c-2.382-0.229-4.763-0.467-7.145-0.816l3.016-5.092l9.097,16.121l0.45,0.799l0.002,0.965
		l0.264,169.102l0.004,2.523l-2.135,0.973l-36.464,16.629l-0.918-3.783c9.21-0.959,18.419-1.047,27.629-0.99l13.814,0.029
		l13.814,0.082l13.814,0.127c4.606,0.041,9.21,0.104,13.814,0.176C673.155,317.439,678.868,317.586,684.58,317.713z"/>
	<path fill="#231F20" d="M616.932,174.701c1.613-0.836,3.226-1.256,4.839-1.568c1.612-0.293,3.226-0.434,4.838-0.434
		c1.612-0.004,3.226,0.135,4.839,0.428c1.612,0.312,3.225,0.732,4.838,1.574c-1.613,0.842-3.226,1.264-4.838,1.576
		c-1.613,0.293-3.227,0.432-4.839,0.428c-1.612-0.002-3.226-0.141-4.838-0.434C620.157,175.957,618.545,175.539,616.932,174.701z"/>
	<path fill="#231F20" d="M616.932,233.801c1.613-0.836,3.226-1.256,4.839-1.57c1.612-0.291,3.226-0.432,4.838-0.432
		c1.612-0.004,3.226,0.135,4.839,0.426c1.612,0.314,3.225,0.734,4.838,1.576c-1.613,0.842-3.226,1.264-4.838,1.576
		c-1.613,0.293-3.227,0.43-4.839,0.428s-3.226-0.141-4.838-0.434C620.157,235.057,618.545,234.637,616.932,233.801z"/>
</g>
</svg>
