<?xml version="1.0" encoding="utf-8"?>
<!-- Generator: Adobe Illustrator 15.0.0, SVG Export Plug-In . SVG Version: 6.00 Build 0)  -->
<!DOCTYPE svg PUBLIC "-//W3C//DTD SVG 1.1//EN" "http://www.w3.org/Graphics/SVG/1.1/DTD/svg11.dtd">
<svg version="1.1" id="Layer_1" xmlns="http://www.w3.org/2000/svg" xmlns:xlink="http://www.w3.org/1999/xlink" x="0px" y="0px"
	 width="1280px" height="800px" viewBox="0 0 1280 800" enable-background="new 0 0 1280 800" xml:space="preserve">
<g>
	<rect x="-0.425" fill="#FFFFFF" width="1280" height="800"/>
	<g>
		<path fill="#FFEF16" d="M421.533,634.436H324.56v-24.39h9.155v-53.101h-9.155v-24.39h58.228v24.39h-9.668v53.101h24.097v-16.333
			h24.316V634.436z"/>
		<path fill="#FFEF16" d="M527.954,634.436h-97.192v-24.39h7.91v-53.101h-8.057v-24.39h97.339v32.593H501.22v-8.203h-23.145v15.674
			h20.142v20.728h-20.142v16.699h23.145v-8.203h26.733V634.436z"/>
		<path fill="#FFEF16" d="M582.446,634.436h-39.478v-24.39h7.837v-53.101h-8.057v-24.39h61.45l15.015,39.331l15.381-39.331h61.084
			v24.39h-7.983v53.101h8.203v24.39h-53.174v-24.39h8.13v-56.909l-30.762,81.299h-15.234l-30.469-80.566v56.177h8.057V634.436z"/>
		<path fill="#FFEF16" d="M709.521,583.24c0-8.496,2.075-16.723,6.226-24.683c4.102-7.91,10.474-14.575,19.116-19.995
			c3.076-1.904,6.237-3.417,9.484-4.541c3.247-1.123,6.775-1.989,10.584-2.6c3.809-0.61,7.812-0.916,12.012-0.916
			c18.262,0,32.397,5.347,42.407,16.04c4.98,5.273,8.74,10.986,11.279,17.139c2.538,6.152,3.809,12.671,3.809,19.556
			c0,14.209-5.176,26.563-15.527,37.061c-10.353,10.499-24.342,15.747-41.968,15.747c-17.041,0-30.86-4.931-41.455-14.795
			C714.842,611.438,709.521,598.767,709.521,583.24z M753.759,583.24c0,11.329,1.099,18.97,3.296,22.925
			c2.099,4.004,5.395,6.006,9.888,6.006c4.442,0,7.764-1.928,9.961-5.786c2.197-3.906,3.296-11.621,3.296-23.145
			c0-11.181-1.074-18.798-3.223-22.852c-2.1-4.003-5.445-6.006-10.034-6.006c-4.395,0-7.69,1.929-9.888,5.786
			C754.858,564.026,753.759,571.717,753.759,583.24z"/>
		<path fill="#FFEF16" d="M878.564,634.436h-41.821v-24.39h8.936v-53.101h-8.936v-24.39h48.267l37.061,53.247v-28.857h-8.276v-24.39
			h41.089v24.39h-8.862v78.809h-33.545l-42.92-61.597v35.889h9.009V634.436z"/>
	</g>
	<polygon fill="#FFFFFF" points="703.25,412.97 578.794,412.97 618.86,392.312 618.86,146.786 608.844,128.506 673.2,128.506 
		663.183,146.786 663.183,392.312 	"/>
	<path fill="#FFEF16" d="M626.325,369.854c0,7.871,7.092,14.254,14.043,14.254c6.951,0,12.585-6.383,12.585-14.254l2.304-167.416
		h-28.853L626.325,369.854z"/>
	<ellipse fill="#E8D418" cx="640.831" cy="202.438" rx="14.427" ry="4.173"/>
	<ellipse fill="#FFFFFF" cx="641.821" cy="271.469" rx="3.41" ry="3.863"/>
	<ellipse fill="#FFFFFF" cx="631.011" cy="311.135" rx="1.805" ry="2.045"/>
	<ellipse fill="#FFFFFF" cx="643.915" cy="230.419" rx="2.095" ry="2.372"/>
	<ellipse fill="#FFFFFF" cx="639.399" cy="222.91" rx="3.044" ry="3.446"/>
	<path fill="#231F20" d="M641.022,190.611c2.074-0.837,4.147-1.256,6.222-1.57c2.074-0.293,4.147-0.431,6.22-0.433
		c2.076-0.003,4.149,0.134,6.223,0.428c2.074,0.312,4.148,0.733,6.222,1.575c-2.074,0.842-4.147,1.263-6.222,1.575
		c-2.074,0.294-4.147,0.431-6.223,0.428c-2.073-0.003-4.146-0.14-6.22-0.433C645.17,191.867,643.096,191.448,641.022,190.611z"/>
	<path fill="#231F20" d="M641.022,243.866c2.074-0.837,4.147-1.256,6.222-1.569c2.074-0.295,4.147-0.432,6.22-0.434
		c2.076-0.003,4.149,0.134,6.223,0.428c2.074,0.312,4.148,0.733,6.222,1.575c-2.074,0.842-4.147,1.263-6.222,1.575
		c-2.074,0.294-4.147,0.431-6.223,0.428c-2.073-0.002-4.146-0.139-6.22-0.434C645.17,245.122,643.096,244.703,641.022,243.866z"/>
	<path fill="#231F20" d="M641.022,297.12c2.074-0.836,4.147-1.255,6.222-1.568c2.074-0.295,4.147-0.432,6.22-0.434
		c2.076-0.003,4.149,0.134,6.223,0.428c2.074,0.312,4.148,0.733,6.222,1.574c-2.074,0.843-4.147,1.264-6.222,1.576
		c-2.074,0.293-4.147,0.431-6.223,0.428c-2.073-0.002-4.146-0.14-6.22-0.434C645.17,298.377,643.096,297.958,641.022,297.12z"/>
	<path fill="#231F20" d="M644.723,350.376c2.073-0.837,4.148-1.257,6.222-1.57c2.074-0.293,4.148-0.431,6.222-0.433
		c2.074-0.003,4.148,0.134,6.222,0.428c2.074,0.312,4.148,0.733,6.222,1.575c-2.074,0.842-4.148,1.263-6.222,1.575
		c-2.074,0.293-4.148,0.431-6.222,0.428c-2.074-0.003-4.148-0.14-6.222-0.433C648.871,351.632,646.796,351.213,644.723,350.376z"/>
	<path fill="#231F20" d="M720.931,417.394l-142.137,0.344l-20.574,0.05l18.389-9.055l40.45-19.917l-2.131,3.496l-2.542-245.525
		l0.796,3.112l-7.354-19.74l-1.898-5.098l4.916,0.006l64.356,0.071l4.821,0.006l-1.868,4.98l-7.394,19.717l0.782,19.703
		L668.4,392.312l-2.826-4.637L720.931,417.394z M684.058,408.457l-23.265-11.509l-2.81-1.391l-0.016-3.246l-1.142-245.525
		l-0.01-2.001l0.792-1.056l12.64-16.843l2.953,4.986l-64.356,0.071l3.016-5.092l12.68,16.821l0.818,1.084l-0.021,2.028
		l-2.543,245.525l-0.024,2.36l-2.106,1.136l-39.686,21.399l-2.184-9.005L684.058,408.457z"/>
</g>
</svg>
