<?xml version="1.0" encoding="utf-8"?>
<!-- Generator: Adobe Illustrator 15.0.0, SVG Export Plug-In . SVG Version: 6.00 Build 0)  -->
<!DOCTYPE svg PUBLIC "-//W3C//DTD SVG 1.1//EN" "http://www.w3.org/Graphics/SVG/1.1/DTD/svg11.dtd">
<svg version="1.1" id="Layer_1" xmlns="http://www.w3.org/2000/svg" xmlns:xlink="http://www.w3.org/1999/xlink" x="0px" y="0px"
	 width="178.59px" height="392.248px" viewBox="0 0 178.59 392.248" enable-background="new 0 0 178.59 392.248"
	 xml:space="preserve">
<g>
	<polygon fill="#FFFFFF" points="170.34,382.271 6.284,382.271 59.1,355.04 59.1,31.393 45.896,7.297 130.729,7.297 117.524,31.393 
		117.524,355.04 	"/>
	<path fill="#231F20" d="M170.34,384.912c-13.671,1.16-27.342,1.874-41.013,2.489c-13.672,0.598-27.343,1.012-41.015,1.296
		c-13.671,0.284-27.343,0.457-41.014,0.482c-3.418-0.003-6.836,0.051-10.254,0c-3.417-0.054-6.835-0.22-10.253-0.509
		c-3.418-0.298-6.836-0.721-10.253-1.309c-3.418-0.607-6.836-1.313-10.254-2.45L0,382.822l5.074-2.898l51.649-29.492l-2.808,4.608
		l2.544-323.647l0.325,1.269L41.919,9.476L37.763,2.99l8.133-0.227l84.833-2.366L144.933,0l-8.153,10.613l-16.94,22.049l0.325-1.269
		l4.236,323.647l-3.725-6.113l57.914,35.286L170.34,384.912z M154.956,378.544l-40.583-17.392l-3.784-1.621l0.059-4.49
		l4.235-323.647l0.005-0.385l0.32-0.883l9.469-26.144l6.051,10.217L45.896,11.83l3.976-6.712l11.544,25.007l0.32,0.693l0.005,0.575
		l2.543,323.647l0.027,3.298l-2.835,1.311l-53.981,24.97l-1.21-4.989c3.417-1.137,6.836-1.843,10.254-2.45
		c3.418-0.588,6.835-1.01,10.253-1.308c3.418-0.29,6.836-0.458,10.253-0.51c3.419-0.051,6.836,0.003,10.254,0.001
		c13.671,0.025,27.343,0.197,41.014,0.481c13.671,0.285,27.343,0.698,41.015,1.297C137.87,377.526,146.411,377.997,154.956,378.544z
		"/>
	<path fill="#F8DE7E" d="M67.596,334.242c0,11.211,7.768,20.3,18.98,20.3c11.211,0,20.299-9.089,20.299-20.3l3.718-270.833H64.052
		L67.596,334.242z"/>
	<ellipse fill="#E2C771" cx="87.323" cy="63.409" rx="23.271" ry="5.942"/>
	<path fill="#231F20" d="M62.564,85.638c2.734-1.103,5.468-1.656,8.202-2.069c2.734-0.388,5.467-0.568,8.201-0.572
		c2.734-0.004,5.468,0.177,8.202,0.564c2.733,0.412,5.467,0.967,8.201,2.076c-2.734,1.11-5.468,1.664-8.201,2.077
		c-2.734,0.387-5.468,0.568-8.202,0.564c-2.733-0.004-5.467-0.184-8.201-0.572C68.032,87.294,65.298,86.742,62.564,85.638z"/>
	<path fill="#231F20" d="M62.564,155.838c2.734-1.103,5.468-1.656,8.202-2.07c2.734-0.387,5.467-0.567,8.201-0.57
		c2.734-0.004,5.468,0.177,8.202,0.563c2.733,0.412,5.467,0.967,8.201,2.076c-2.734,1.11-5.468,1.665-8.201,2.077
		c-2.734,0.387-5.468,0.568-8.202,0.563c-2.733-0.003-5.467-0.184-8.201-0.571C68.032,157.494,65.298,156.941,62.564,155.838z"/>
	<path fill="#231F20" d="M62.564,226.037c2.734-1.104,5.468-1.656,8.202-2.07c2.734-0.387,5.467-0.567,8.201-0.571
		c2.734-0.004,5.468,0.177,8.202,0.562c2.733,0.413,5.467,0.968,8.201,2.078c-2.734,1.109-5.468,1.664-8.201,2.076
		c-2.734,0.387-5.468,0.567-8.202,0.563c-2.733-0.003-5.467-0.184-8.201-0.57C68.032,227.693,65.298,227.14,62.564,226.037z"/>
	<path fill="#231F20" d="M62.564,296.237c2.734-1.104,5.468-1.656,8.202-2.069c2.734-0.388,5.467-0.567,8.201-0.571
		c2.734-0.004,5.468,0.177,8.202,0.563c2.733,0.414,5.467,0.967,8.201,2.077c-2.734,1.109-5.468,1.664-8.201,2.077
		c-2.734,0.387-5.468,0.567-8.202,0.563c-2.733-0.003-5.467-0.183-8.201-0.57C68.032,297.892,65.298,297.34,62.564,296.237z"/>
	<circle fill="#FFFFFF" cx="93.814" cy="194.13" r="5.501"/>
	<circle fill="#FFFFFF" cx="76.377" cy="250.619" r="2.911"/>
	<circle fill="#FFFFFF" cx="97.193" cy="135.67" r="3.379"/>
	<circle fill="#FFFFFF" cx="89.907" cy="124.976" r="4.909"/>
</g>
</svg>
