<?xml version="1.0" encoding="utf-8"?>
<!-- Generator: Adobe Illustrator 15.0.0, SVG Export Plug-In . SVG Version: 6.00 Build 0)  -->
<!DOCTYPE svg PUBLIC "-//W3C//DTD SVG 1.1//EN" "http://www.w3.org/Graphics/SVG/1.1/DTD/svg11.dtd">
<svg version="1.1" id="Layer_1" xmlns="http://www.w3.org/2000/svg" xmlns:xlink="http://www.w3.org/1999/xlink" x="0px" y="0px"
	 width="214.483px" height="388.621px" viewBox="0 0 214.483 388.621" enable-background="new 0 0 214.483 388.621"
	 xml:space="preserve">
<g>
	<polygon fill="#FFFFFF" points="191.177,382.271 27.121,382.271 79.936,355.04 79.936,31.393 66.733,7.297 151.566,7.297 
		138.361,31.393 138.361,355.04 	"/>
	<path fill="#FFEF16" d="M89.776,325.436c0,10.376,9.348,18.79,18.511,18.79c9.162,0,16.589-8.414,16.589-18.79l3.038-220.683H89.88
		L89.776,325.436z"/>
	<ellipse fill="#E8D418" cx="108.897" cy="104.753" rx="19.017" ry="5.5"/>
	<ellipse fill="#FFFFFF" cx="110.201" cy="195.748" rx="4.496" ry="5.092"/>
	<ellipse fill="#FFFFFF" cx="95.952" cy="248.034" rx="2.379" ry="2.696"/>
	<ellipse fill="#FFFFFF" cx="112.962" cy="141.637" rx="2.761" ry="3.127"/>
	<ellipse fill="#FFFFFF" cx="107.009" cy="131.739" rx="4.012" ry="4.543"/>
	<path fill="#231F20" d="M109.15,89.163c2.733-1.103,5.467-1.655,8.201-2.069c2.734-0.387,5.467-0.568,8.201-0.57
		c2.735-0.004,5.469,0.177,8.202,0.563c2.734,0.412,5.468,0.967,8.202,2.076c-2.734,1.11-5.467,1.665-8.202,2.077
		c-2.733,0.387-5.467,0.567-8.202,0.563c-2.733-0.003-5.467-0.184-8.201-0.57C114.616,90.819,111.883,90.266,109.15,89.163z"/>
	<path fill="#231F20" d="M109.15,159.363c2.733-1.103,5.467-1.656,8.201-2.069c2.734-0.388,5.467-0.568,8.201-0.572
		c2.735-0.004,5.469,0.177,8.202,0.563c2.734,0.413,5.468,0.967,8.202,2.077c-2.734,1.11-5.467,1.664-8.202,2.076
		c-2.733,0.387-5.467,0.568-8.202,0.563c-2.733-0.003-5.467-0.183-8.201-0.571C114.616,161.018,111.883,160.466,109.15,159.363z"/>
	<path fill="#231F20" d="M109.15,229.561c2.733-1.102,5.467-1.655,8.201-2.067c2.734-0.39,5.467-0.568,8.201-0.572
		c2.735-0.003,5.469,0.177,8.202,0.563c2.734,0.412,5.468,0.967,8.202,2.076c-2.734,1.11-5.467,1.665-8.202,2.078
		c-2.733,0.387-5.467,0.568-8.202,0.563c-2.733-0.002-5.467-0.184-8.201-0.571C114.616,231.218,111.883,230.665,109.15,229.561z"/>
	<path fill="#231F20" d="M114.028,299.761c2.734-1.104,5.468-1.656,8.201-2.07c2.733-0.387,5.467-0.567,8.201-0.57
		c2.734-0.004,5.468,0.176,8.202,0.562c2.734,0.413,5.468,0.968,8.201,2.078c-2.733,1.109-5.467,1.664-8.201,2.077
		c-2.734,0.386-5.468,0.567-8.202,0.563c-2.734-0.002-5.468-0.184-8.201-0.57C119.495,301.417,116.761,300.865,114.028,299.761z"/>
	<path fill="#231F20" d="M214.483,388.102l-187.362,0.453L0,388.621l24.24-11.937l53.32-26.253l-2.809,4.608L71.4,31.393l1.05,4.103
		L62.756,9.476l-2.503-6.72l6.479,0.007l84.833,0.094l6.354,0.008l-2.462,6.565l-9.746,25.99l1.031,25.972l-1.506,293.647
		l-3.725-6.113L214.483,388.102z M165.877,376.323l-30.667-15.172l-3.705-1.833l-0.02-4.279L129.98,31.393l-0.013-2.637l1.044-1.39
		l16.662-22.202l3.893,6.573L66.733,11.83l3.976-6.712l16.714,22.173l1.079,1.43l-0.028,2.673L85.121,355.04l-0.032,3.111
		l-2.776,1.498L30,387.857l-2.879-11.87L165.877,376.323z"/>
</g>
</svg>
