<?xml version="1.0" encoding="utf-8"?>
<!-- Generator: Adobe Illustrator 15.0.0, SVG Export Plug-In . SVG Version: 6.00 Build 0)  -->
<!DOCTYPE svg PUBLIC "-//W3C//DTD SVG 1.1//EN" "http://www.w3.org/Graphics/SVG/1.1/DTD/svg11.dtd">
<svg version="1.1" id="Layer_1" xmlns="http://www.w3.org/2000/svg" xmlns:xlink="http://www.w3.org/1999/xlink" x="0px" y="0px"
	 width="1280px" height="800px" viewBox="0 0 1280 800" enable-background="new 0 0 1280 800" xml:space="preserve">
<g>
	<rect y="-1" fill="#FFFFFF" width="1280" height="800"/>
	<g>
		<path fill="#F8DE7E" d="M365.723,551.39h-31.582v-19.512h6.27v-42.48h-6.445v-19.512h49.16l12.012,31.465l12.305-31.465h48.867
			v19.512h-6.387v42.48h6.562v19.512h-42.539v-19.512h6.504v-45.527L395.84,551.39h-12.188l-24.375-64.453v44.941h6.445V551.39z"/>
		<path fill="#F8DE7E" d="M544.61,551.39h-77.754v-19.512h6.328v-42.48h-6.445v-19.512h77.871v26.074h-21.387v-6.562h-18.516v12.539
			h16.113v16.582h-16.113v13.359h18.516v-6.562h21.387V551.39z"/>
		<path fill="#F8DE7E" d="M633.262,551.39h-77.578v-19.512h7.324v-42.48h-7.324v-19.512h46.582v19.512h-7.734v42.48h19.277v-13.066
			h19.453V551.39z"/>
		<path fill="#F8DE7E" d="M717.051,551.39h-77.578v-19.512h7.324v-42.48h-7.324v-19.512h46.582v19.512h-7.734v42.48h19.277v-13.066
			h19.453V551.39z"/>
		<path fill="#F8DE7E" d="M724.961,510.433c0-6.797,1.66-13.379,4.98-19.746c3.281-6.328,8.379-11.66,15.293-15.996
			c2.461-1.523,4.989-2.733,7.588-3.633c2.598-0.898,5.42-1.591,8.467-2.08c3.047-0.488,6.249-0.732,9.609-0.732
			c14.609,0,25.918,4.277,33.926,12.832c3.984,4.219,6.992,8.789,9.023,13.711c2.03,4.922,3.047,10.137,3.047,15.645
			c0,11.367-4.141,21.25-12.422,29.648c-8.282,8.399-19.474,12.598-33.574,12.598c-13.633,0-24.688-3.945-33.164-11.836
			C729.218,532.991,724.961,522.854,724.961,510.433z M760.352,510.433c0,9.062,0.879,15.176,2.637,18.34
			c1.679,3.203,4.315,4.805,7.91,4.805c3.554,0,6.211-1.543,7.969-4.629c1.758-3.125,2.637-9.296,2.637-18.516
			c0-8.944-0.859-15.038-2.578-18.281c-1.68-3.202-4.356-4.805-8.027-4.805c-3.516,0-6.152,1.544-7.91,4.629
			C761.231,495.062,760.352,501.214,760.352,510.433z"/>
		<path fill="#F8DE7E" d="M873.867,552.093h-25.664l-22.969-62.695h-5.625v-19.512h42.246v19.512h-6.094l9.609,35.098l12.188-35.098
			h-6.035v-19.512h35.508v19.512h-6.035l12.363,35.098l9.727-35.098h-5.859v-19.512h32.871v19.512h-5.625l-23.203,62.695h-25.312
			l-11.016-31.406L873.867,552.093z"/>
	</g>
	<g>
		<path fill="#F8DE7E" d="M417.637,695.39h-44.531v-19.512h6.562v-12.949l-20.566-29.531h-5.566v-19.512h42.598v19.512h-4.863
			l8.672,16.641l10.488-16.641h-4.98v-19.512h31.348v19.512H431.7l-20.508,29.531v12.949h6.445V695.39z"/>
		<path fill="#F8DE7E" d="M522.11,695.39h-77.754v-19.512h6.328v-42.48h-6.445v-19.512h77.871v26.074h-21.387v-6.562h-18.516v12.539
			h16.113v16.582h-16.113v13.359h18.516v-6.562h21.387V695.39z"/>
		<path fill="#F8DE7E" d="M610.762,695.39h-77.578v-19.512h7.324v-42.48h-7.324v-19.512h46.582v19.512h-7.734v42.48h19.277v-13.066
			h19.453V695.39z"/>
		<path fill="#F8DE7E" d="M694.551,695.39h-77.578v-19.512h7.324v-42.48h-7.324v-19.512h46.582v19.512h-7.734v42.48h19.277v-13.066
			h19.453V695.39z"/>
		<path fill="#F8DE7E" d="M702.461,654.433c0-6.797,1.66-13.379,4.98-19.746c3.281-6.328,8.379-11.66,15.293-15.996
			c2.461-1.523,4.989-2.733,7.588-3.633c2.598-0.898,5.42-1.591,8.467-2.08c3.047-0.488,6.249-0.732,9.609-0.732
			c14.609,0,25.918,4.277,33.926,12.832c3.984,4.219,6.992,8.789,9.023,13.711c2.03,4.922,3.047,10.137,3.047,15.645
			c0,11.367-4.141,21.25-12.422,29.648c-8.282,8.399-19.474,12.598-33.574,12.598c-13.633,0-24.688-3.945-33.164-11.836
			C706.718,676.991,702.461,666.854,702.461,654.433z M737.852,654.433c0,9.062,0.879,15.176,2.637,18.34
			c1.679,3.203,4.315,4.805,7.91,4.805c3.554,0,6.211-1.543,7.969-4.629c1.758-3.125,2.637-9.296,2.637-18.516
			c0-8.944-0.859-15.038-2.578-18.281c-1.68-3.202-4.356-4.805-8.027-4.805c-3.516,0-6.152,1.544-7.91,4.629
			C738.731,639.062,737.852,645.214,737.852,654.433z"/>
		<path fill="#F8DE7E" d="M851.367,696.093h-25.664l-22.969-62.695h-5.625v-19.512h42.246v19.512h-6.094l9.609,35.098l12.188-35.098
			h-6.035v-19.512h35.508v19.512h-6.035l12.363,35.098l9.727-35.098h-5.859v-19.512h32.871v19.512h-5.625l-23.203,62.695h-25.312
			l-11.016-31.406L851.367,696.093z"/>
	</g>
	<polygon fill="#FFFFFF" points="701.482,360.207 577.026,360.207 617.093,339.549 617.093,94.023 607.076,75.742 671.432,75.742 
		661.415,94.023 661.415,339.549 	"/>
	<path fill="#231F20" d="M701.482,362.211c-10.371,0.879-20.742,1.422-31.113,1.889c-10.372,0.453-20.743,0.768-31.115,0.982
		c-10.372,0.215-20.742,0.346-31.114,0.365c-2.593-0.002-5.185,0.039-7.779,0.002c-2.592-0.041-5.185-0.168-7.778-0.387
		c-2.593-0.227-5.186-0.547-7.778-0.994c-2.593-0.461-5.186-0.996-7.779-1.857l-4.767-1.586l3.849-2.199l39.182-22.373l-2.131,3.496
		l1.93-245.525l0.247,0.961l-11.277-17.59l-3.153-4.92l6.17-0.172l64.355-1.795l10.776-0.301l-6.186,8.051l-12.851,16.727
		l0.247-0.961l3.213,245.525l-2.825-4.637l43.935,26.768L701.482,362.211z M689.812,357.379l-30.787-13.193l-2.87-1.23l0.044-3.406
		l3.214-245.525l0.004-0.293l0.242-0.67l7.184-19.834l4.59,7.75l-64.355-1.795l3.015-5.092l8.758,18.971l0.243,0.525l0.004,0.438
		l1.93,245.525l0.02,2.502l-2.15,0.994l-40.952,18.943l-0.918-3.785c2.593-0.863,5.186-1.398,7.779-1.857
		c2.592-0.447,5.185-0.768,7.778-0.994c2.593-0.219,5.186-0.346,7.778-0.387c2.594-0.037,5.187,0.004,7.779,0.002
		c10.372,0.02,20.743,0.15,31.114,0.365c10.372,0.217,20.743,0.529,31.115,0.984C676.85,356.607,683.329,356.965,689.812,357.379z"
		/>
	<path fill="#F8DE7E" d="M623.538,323.771c0,8.504,5.894,15.4,14.399,15.4c8.505,0,15.399-6.896,15.399-15.4l2.82-205.461H620.85
		L623.538,323.771z"/>
	<ellipse fill="#E2C771" cx="638.503" cy="118.311" rx="17.654" ry="4.508"/>
	<path fill="#231F20" d="M619.721,135.174c2.074-0.836,4.148-1.256,6.223-1.568c2.073-0.295,4.147-0.432,6.222-0.434
		c2.074-0.004,4.147,0.133,6.222,0.428c2.074,0.312,4.147,0.732,6.222,1.574c-2.074,0.842-4.147,1.264-6.222,1.576
		c-2.074,0.293-4.147,0.43-6.222,0.428c-2.075-0.004-4.148-0.139-6.222-0.434C623.869,136.43,621.795,136.012,619.721,135.174z"/>
	<path fill="#231F20" d="M619.721,188.43c2.074-0.838,4.148-1.256,6.223-1.57c2.073-0.293,4.147-0.43,6.222-0.432
		c2.074-0.004,4.147,0.133,6.222,0.426c2.074,0.312,4.147,0.734,6.222,1.576c-2.074,0.842-4.147,1.264-6.222,1.576
		c-2.074,0.293-4.147,0.43-6.222,0.426c-2.075-0.002-4.148-0.139-6.222-0.432C623.869,189.686,621.795,189.266,619.721,188.43z"/>
	<path fill="#231F20" d="M619.721,241.684c2.074-0.836,4.148-1.256,6.223-1.57c2.073-0.293,4.147-0.43,6.222-0.432
		c2.074-0.004,4.147,0.133,6.222,0.426c2.074,0.314,4.147,0.734,6.222,1.576c-2.074,0.842-4.147,1.264-6.222,1.576
		c-2.074,0.293-4.147,0.43-6.222,0.428c-2.075-0.004-4.148-0.141-6.222-0.434C623.869,242.939,621.795,242.521,619.721,241.684z"/>
	<path fill="#231F20" d="M619.721,294.939c2.074-0.838,4.148-1.256,6.223-1.57c2.073-0.295,4.147-0.43,6.222-0.434
		c2.074-0.002,4.147,0.135,6.222,0.428c2.074,0.314,4.147,0.734,6.222,1.576c-2.074,0.842-4.147,1.262-6.222,1.574
		c-2.074,0.295-4.147,0.432-6.222,0.428c-2.075-0.002-4.148-0.139-6.222-0.434C623.869,296.195,621.795,295.775,619.721,294.939z"/>
	<circle fill="#FFFFFF" cx="643.428" cy="217.479" r="4.174"/>
	<circle fill="#FFFFFF" cx="630.2" cy="260.332" r="2.208"/>
	<circle fill="#FFFFFF" cx="645.991" cy="173.129" r="2.563"/>
	<circle fill="#FFFFFF" cx="640.464" cy="165.016" r="3.725"/>
</g>
</svg>
