<?xml version="1.0" encoding="utf-8"?>
<!-- Generator: Adobe Illustrator 15.0.0, SVG Export Plug-In . SVG Version: 6.00 Build 0)  -->
<!DOCTYPE svg PUBLIC "-//W3C//DTD SVG 1.1//EN" "http://www.w3.org/Graphics/SVG/1.1/DTD/svg11.dtd">
<svg version="1.1" id="Layer_1" xmlns="http://www.w3.org/2000/svg" xmlns:xlink="http://www.w3.org/1999/xlink" x="0px" y="0px"
	 width="162.839px" height="278.264px" viewBox="0 0 162.839 278.264" enable-background="new 0 0 162.839 278.264"
	 xml:space="preserve">
<g>
	<polygon fill="#FFFFFF" points="154.016,275.879 8.337,275.879 55.235,251.698 55.235,28.793 43.511,7.396 118.841,7.396 
		107.116,28.793 107.116,251.698 	"/>
	<path fill="#FFD700" d="M62.107,243.618c0,10.376,9.348,18.79,18.511,18.79c9.162,0,16.589-8.414,16.589-18.79l3.038-220.683
		H62.211L62.107,243.618z"/>
	<ellipse fill="#E8BC05" cx="81.228" cy="22.935" rx="19.017" ry="5.5"/>
	<ellipse fill="#FFFFFF" cx="85.293" cy="59.819" rx="2.761" ry="3.127"/>
	<ellipse fill="#FFFFFF" cx="79.34" cy="49.92" rx="4.012" ry="4.543"/>
	<path fill="#231F20" d="M154.016,278.52c-12.141,0.352-24.28,0.58-36.421,0.759c-6.069,0.095-12.139,0.177-18.209,0.233
		l-18.209,0.165l-18.211,0.11l-18.21,0.039c-12.14,0.073-24.279-0.042-36.419-1.306L0,277.652l7.126-4.12l45.733-26.442
		l-2.809,4.609l0.348-222.905l0.596,2.324L39.534,9.575l-3.025-5.69l7.002-1.023c3.14-0.458,6.277-0.773,9.416-1.074
		c3.14-0.283,6.278-0.545,9.416-0.743c6.278-0.406,12.556-0.663,18.834-0.82c6.276-0.158,12.555-0.256,18.832-0.216
		c6.276,0.031,12.555,0.13,18.832,0.486l13.598,0.773l-7.546,9.443l-15.461,19.351l0.325-1.269l4.236,222.905l-3.726-6.112
		l52.571,32.678L154.016,278.52z M140.184,272.95l-36.219-15.139l-3.812-1.594l0.086-4.519l4.236-222.905l0.006-0.334l0.318-0.935
		l7.989-23.444l6.052,10.217c-6.277,0.356-12.556,0.454-18.832,0.485c-6.277,0.041-12.556-0.056-18.832-0.215
		c-6.278-0.157-12.556-0.414-18.834-0.82c-3.138-0.197-6.276-0.459-9.416-0.743c-3.139-0.3-6.276-0.615-9.416-1.073l3.977-6.712
		l11.99,21.251l0.593,1.051l0.003,1.273l0.348,222.905l0.006,3.326l-2.815,1.282L9.547,278.227l-1.21-4.989
		c12.14-1.263,24.279-1.379,36.419-1.306l18.21,0.039l18.211,0.11l18.209,0.165c6.07,0.055,12.14,0.138,18.209,0.234
		C125.124,272.591,132.654,272.784,140.184,272.95z"/>
	<path fill="#231F20" d="M51.012,84.436c2.125-1.103,4.252-1.656,6.378-2.069c2.126-0.386,4.251-0.57,6.378-0.571
		c2.125-0.004,4.251,0.177,6.377,0.563c2.126,0.413,4.253,0.967,6.378,2.077c-2.125,1.11-4.252,1.665-6.378,2.077
		c-2.126,0.386-4.252,0.568-6.377,0.563c-2.127-0.001-4.252-0.185-6.378-0.571C55.264,86.092,53.137,85.54,51.012,84.436z"/>
	<path fill="#231F20" d="M51.012,162.34c2.125-1.103,4.252-1.655,6.378-2.069c2.126-0.386,4.251-0.569,6.378-0.571
		c2.125-0.005,4.251,0.177,6.377,0.564c2.126,0.413,4.253,0.967,6.378,2.076c-2.125,1.109-4.252,1.665-6.378,2.077
		c-2.126,0.387-4.252,0.568-6.377,0.564c-2.127-0.001-4.252-0.186-6.378-0.572C55.264,163.996,53.137,163.443,51.012,162.34z"/>
</g>
</svg>
