<?xml version="1.0" encoding="utf-8"?>
<!-- Generator: Adobe Illustrator 17.0.0, SVG Export Plug-In . SVG Version: 6.00 Build 0)  -->
<!DOCTYPE svg PUBLIC "-//W3C//DTD SVG 1.1//EN" "http://www.w3.org/Graphics/SVG/1.1/DTD/svg11.dtd">
<svg version="1.1" id="Layer_1" xmlns="http://www.w3.org/2000/svg" xmlns:xlink="http://www.w3.org/1999/xlink" x="0px" y="0px"
	 width="138.25px" height="137.75px" viewBox="-617.25 428.25 138.25 137.75" enable-background="new -617.25 428.25 138.25 137.75"
	 xml:space="preserve">
<path fill="#149F84" d="M-482.81,478.266l-45.754,0v-45.754c0-0.697-0.565-1.262-1.262-1.262h-35.796
	c-0.697,0-1.262,0.565-1.262,1.262v45.754h-45.754c-0.697,0-1.262,0.565-1.262,1.262v35.796c0,0.697,0.565,1.262,1.262,1.262h45.754
	v45.754c0,0.697,0.565,1.262,1.262,1.262h35.796c0.697,0,1.262-0.565,1.262-1.262v-45.754l45.754,0c0.697,0,1.262-0.565,1.262-1.262
	v-35.796C-481.548,478.831-482.113,478.266-482.81,478.266z"/>
</svg>
