<?xml version="1.0" encoding="utf-8"?>
<!-- Generator: Adobe Illustrator 17.0.0, SVG Export Plug-In . SVG Version: 6.00 Build 0)  -->
<!DOCTYPE svg PUBLIC "-//W3C//DTD SVG 1.1//EN" "http://www.w3.org/Graphics/SVG/1.1/DTD/svg11.dtd">
<svg version="1.1" id="Layer_1" xmlns="http://www.w3.org/2000/svg" xmlns:xlink="http://www.w3.org/1999/xlink" x="0px" y="0px"
	 width="144.75px" height="151.5px" viewBox="-290.25 252.5 144.75 151.5" enable-background="new -290.25 252.5 144.75 151.5"
	 xml:space="preserve">
<path fill="#55BC80" d="M-159.298,304.634c-5.958-16.937,2.593-32.938-17.818-25.758c-12.621,4.44-25.451,19.933-33.16,31.808
	c4.412-13.428,8.01-33.199,3.525-45.946c-7.18-20.411-14.304-3.725-31.241,2.233c-16.937,5.958-32.938-2.593-25.758,17.818
	c4.41,12.537,19.726,25.279,31.57,33.005c-13.423-4.38-33.056-7.919-45.738-3.457c-20.411,7.18-3.725,14.303,2.233,31.24
	c5.958,16.937-2.593,32.938,17.818,25.758c10.314-3.628,20.766-14.637,28.451-25.022c-0.057,0.1-0.113,0.202-0.171,0.302
	c-3.796,6.631-8.091,12.935-12.902,18.747c-4.808,5.809-10.134,11.13-15.934,15.725c-2.899,2.295-5.916,4.409-9.03,6.28
	c-1.556,0.934-3.137,1.807-4.729,2.597c-0.795,0.394-1.594,0.767-2.387,1.11c-0.396,0.171-0.79,0.334-1.176,0.484
	c-0.192,0.075-0.383,0.147-0.566,0.213l-0.265,0.092l-0.119,0.038l-0.026,0.008l-0.012,0.004c0.019-0.008,0.049-0.02,0.029-0.013
	l-0.086,0.029l3.957,10.017l0.082-0.038l0.071-0.03l0.03-0.014l0.057-0.026l0.214-0.101l0.397-0.195
	c0.257-0.129,0.504-0.258,0.747-0.388c0.485-0.259,0.954-0.522,1.415-0.789c0.921-0.534,1.811-1.086,2.682-1.653
	c1.742-1.135,3.409-2.332,5.025-3.578c3.228-2.494,6.244-5.188,9.079-8.028c5.668-5.683,10.605-11.95,14.89-18.561
	c4.284-6.614,7.913-13.575,10.967-20.729c0.003-0.007,0.006-0.014,0.009-0.021c-3.113,12.441-4.786,27.382-1.152,37.711
	c7.18,20.411,14.303,3.725,31.241-2.233c16.937-5.958,32.938,2.593,25.758-17.818c-4.433-12.601-19.884-25.411-31.752-33.124
	c13.429,4.421,33.241,8.037,46.008,3.546C-136.653,328.694-153.339,321.571-159.298,304.634z"/>
</svg>
