<?xml version="1.0" encoding="utf-8"?>
<!-- Generator: Adobe Illustrator 17.0.0, SVG Export Plug-In . SVG Version: 6.00 Build 0)  -->
<!DOCTYPE svg PUBLIC "-//W3C//DTD SVG 1.1//EN" "http://www.w3.org/Graphics/SVG/1.1/DTD/svg11.dtd">
<svg version="1.1" id="Layer_1" xmlns="http://www.w3.org/2000/svg" xmlns:xlink="http://www.w3.org/1999/xlink" x="0px" y="0px"
	 width="548.973px" height="748.463px" viewBox="-1610.297 231.599 548.973 748.463"
	 enable-background="new -1610.297 231.599 548.973 748.463" xml:space="preserve" preserveAspectRatio="none">
<g>
	<rect x="-1597.664" y="246.107" fill="#FFFFFF" width="519.208" height="717.964"/>
	<path d="M-1083.456,251.107v707.965h-509.208V251.107H-1083.456 M-1073.456,241.107h-10h-509.208h-10v10v707.965v10h10h509.208h10
		v-10V251.107V241.107L-1073.456,241.107z"/>
</g>
<g>
	<path d="M-1558.479,351.249l-3.131-7.701h-1.585v-1.664h4.717v1.664h-1.142l2.058,5.278l2.019-5.278h-1.26v-1.664h4.619v1.664
		h-1.418l-4.717,12.142h-3.161v-1.635h1.861L-1558.479,351.249z"/>
	<path d="M-1552.245,346.65c0-1.471,0.486-2.677,1.458-3.619c0.972-0.942,2.157-1.413,3.555-1.413c1.372,0,2.55,0.464,3.535,1.394
		c0.985,0.929,1.477,2.142,1.477,3.639c0,1.497-0.491,2.711-1.472,3.644s-2.162,1.398-3.54,1.398c-1.418,0-2.608-0.473-3.57-1.418
		C-1551.764,349.329-1552.245,348.121-1552.245,346.65z M-1550.266,346.646c0,0.941,0.293,1.712,0.881,2.313
		c0.587,0.602,1.305,0.902,2.152,0.902c0.86,0,1.58-0.304,2.161-0.912s0.872-1.375,0.872-2.303c0-0.935-0.295-1.704-0.886-2.309
		c-0.591-0.604-1.307-0.907-2.146-0.907c-0.88,0-1.605,0.309-2.177,0.927C-1549.98,344.975-1550.266,345.737-1550.266,346.646z"/>
	<path d="M-1530.295,349.752v1.664h-3.516v-1.093c-1.096,0.834-2.146,1.251-3.151,1.251c-0.637,0-1.164-0.14-1.581-0.418
		c-0.417-0.279-0.694-0.64-0.833-1.083c-0.138-0.443-0.207-1.157-0.207-2.142v-4.382h-1.349v-1.664h3.22v5.81
		c0,0.702,0.02,1.175,0.059,1.418c0.039,0.243,0.154,0.443,0.345,0.601c0.19,0.158,0.43,0.236,0.719,0.236
		c0.867,0,1.792-0.414,2.777-1.241v-5.16h-1.684v-1.664h3.555v7.868H-1530.295z"/>
	<path d="M-1515.307,341.884v3.604h-1.674c-0.085-0.689-0.366-1.218-0.842-1.585s-1.029-0.551-1.659-0.551
		c-0.84,0-1.523,0.297-2.048,0.891s-0.788,1.374-0.788,2.339c0,0.899,0.249,1.692,0.748,2.378s1.221,1.029,2.167,1.029
		c1.313,0,2.265-0.624,2.856-1.871l1.546,0.729c-0.854,1.897-2.347,2.846-4.48,2.846c-1.51,0-2.698-0.516-3.565-1.546
		c-0.867-1.03-1.3-2.219-1.3-3.564c0-1.438,0.473-2.625,1.418-3.56s2.035-1.403,3.27-1.403c1.057,0,1.95,0.312,2.679,0.936v-0.669
		H-1515.307z"/>
	<path d="M-1504.1,349.752v1.664h-3.27v-1.162c-0.906,0.88-1.917,1.32-3.033,1.32c-0.867,0-1.62-0.282-2.26-0.847
		c-0.64-0.564-0.96-1.287-0.96-2.167c0-0.886,0.34-1.621,1.019-2.206c0.68-0.584,1.499-0.876,2.457-0.876
		c0.893,0,1.756,0.269,2.59,0.808v-0.946c0-0.485-0.046-0.86-0.138-1.123c-0.092-0.262-0.307-0.499-0.645-0.709
		c-0.338-0.21-0.78-0.315-1.325-0.315c-0.939,0-1.618,0.374-2.038,1.123l-1.792-0.473c0.794-1.483,2.167-2.226,4.116-2.226
		c0.715,0,1.334,0.097,1.856,0.291c0.522,0.194,0.911,0.443,1.167,0.749c0.256,0.305,0.428,0.635,0.517,0.99
		c0.089,0.354,0.133,0.919,0.133,1.693v4.412H-1504.1z M-1507.557,347.872c-0.808-0.63-1.625-0.946-2.452-0.946
		c-0.519,0-0.952,0.151-1.3,0.453c-0.348,0.302-0.522,0.693-0.522,1.172c0,0.447,0.153,0.821,0.458,1.123
		c0.305,0.302,0.721,0.453,1.246,0.453c0.906,0,1.763-0.381,2.57-1.142V347.872z"/>
	<path d="M-1499.757,341.884v1.152c1.201-0.867,2.297-1.3,3.289-1.3c0.617,0,1.127,0.146,1.531,0.438
		c0.404,0.292,0.668,0.65,0.792,1.074c0.125,0.423,0.188,1.042,0.188,1.856v4.648h1.605v1.664h-3.476v-6.233
		c0-0.722-0.108-1.193-0.325-1.413c-0.217-0.22-0.482-0.33-0.797-0.33c-0.828,0-1.763,0.404-2.807,1.211v5.101h1.645v1.664h-5.19
		v-1.664h1.674v-6.204h-1.674v-1.664H-1499.757z"/>
	<path d="M-1474.863,341.884v1.664h-1.713v7.1c0,0.958-0.049,1.669-0.148,2.132c-0.098,0.463-0.336,0.936-0.714,1.418
		c-0.377,0.483-0.944,0.888-1.699,1.216s-1.599,0.493-2.531,0.493c-1.405,0-2.659-0.424-3.762-1.271l1.221-1.359
		c0.827,0.643,1.727,0.965,2.698,0.965c0.538,0,1.037-0.104,1.497-0.31c0.459-0.207,0.803-0.458,1.029-0.753
		s0.373-0.576,0.438-0.842c0.065-0.266,0.099-0.714,0.099-1.344v-0.867c-0.295,0.374-0.758,0.729-1.389,1.063
		s-1.319,0.502-2.068,0.502c-1.366,0-2.479-0.473-3.338-1.418c-0.86-0.946-1.29-2.107-1.29-3.486c0-1.51,0.474-2.729,1.423-3.658
		c0.949-0.929,2.047-1.394,3.294-1.394c1.261,0,2.383,0.502,3.368,1.507v-1.359H-1474.863z M-1484.543,346.749
		c0,0.965,0.281,1.753,0.842,2.364c0.562,0.61,1.279,0.916,2.152,0.916c0.854,0,1.589-0.307,2.206-0.92
		c0.617-0.614,0.925-1.403,0.925-2.369c0-0.978-0.309-1.764-0.925-2.358c-0.617-0.594-1.333-0.891-2.147-0.891
		s-1.526,0.294-2.137,0.881C-1484.238,344.958-1484.543,345.751-1484.543,346.749z"/>
	<path d="M-1464.228,347.123h-8.016c0.118,0.88,0.466,1.592,1.043,2.137s1.316,0.817,2.216,0.817c1.307,0,2.34-0.525,3.102-1.576
		l1.654,0.729c-0.538,0.833-1.237,1.452-2.097,1.856c-0.86,0.404-1.76,0.606-2.698,0.606c-1.458,0-2.704-0.455-3.737-1.364
		c-1.034-0.909-1.551-2.135-1.551-3.678c0-1.464,0.504-2.669,1.512-3.614s2.165-1.418,3.471-1.418c1.28,0,2.441,0.461,3.481,1.384
		S-1464.267,345.298-1464.228,347.123z M-1466.158,345.764c-0.131-0.67-0.479-1.275-1.043-1.817
		c-0.565-0.542-1.257-0.813-2.078-0.813c-0.749,0-1.388,0.245-1.92,0.733c-0.532,0.489-0.856,1.121-0.975,1.896H-1466.158z"/>
	<path d="M-1462.868,343.548v-1.664h1.241v-1.467l1.871-1.714v3.181h1.763v1.664h-1.763v4.628c0,0.742,0.041,1.2,0.124,1.374
		c0.082,0.174,0.287,0.261,0.615,0.261c0.348,0,0.689-0.066,1.024-0.197v1.704c-0.479,0.171-0.958,0.256-1.438,0.256
		c-0.571,0-1.034-0.126-1.389-0.379c-0.354-0.252-0.578-0.569-0.669-0.95c-0.092-0.381-0.138-1.037-0.138-1.97v-4.727H-1462.868z"/>
	<path d="M-1451.741,343.548v-1.664h1.241v-1.467l1.871-1.714v3.181h1.763v1.664h-1.763v4.628c0,0.742,0.041,1.2,0.124,1.374
		c0.082,0.174,0.287,0.261,0.615,0.261c0.348,0,0.689-0.066,1.024-0.197v1.704c-0.479,0.171-0.958,0.256-1.438,0.256
		c-0.571,0-1.034-0.126-1.389-0.379c-0.354-0.252-0.578-0.569-0.669-0.95c-0.092-0.381-0.138-1.037-0.138-1.97v-4.727H-1451.741z"/>
	<path d="M-1445.497,346.65c0-1.471,0.486-2.677,1.458-3.619c0.972-0.942,2.157-1.413,3.555-1.413c1.372,0,2.55,0.464,3.535,1.394
		c0.985,0.929,1.477,2.142,1.477,3.639c0,1.497-0.491,2.711-1.472,3.644s-2.162,1.398-3.54,1.398c-1.418,0-2.608-0.473-3.57-1.418
		C-1445.016,349.329-1445.497,348.121-1445.497,346.65z M-1443.518,346.646c0,0.941,0.293,1.712,0.881,2.313
		c0.587,0.602,1.305,0.902,2.152,0.902c0.86,0,1.58-0.304,2.161-0.912s0.872-1.375,0.872-2.303c0-0.935-0.295-1.704-0.886-2.309
		c-0.591-0.604-1.307-0.907-2.146-0.907c-0.88,0-1.605,0.309-2.177,0.927C-1443.232,344.975-1443.518,345.737-1443.518,346.646z"/>
	<path d="M-1428.835,351.417v-3.27h1.674v0.315c0.059,0.446,0.3,0.814,0.724,1.103c0.423,0.289,0.924,0.434,1.502,0.434
		c0.604,0,1.086-0.105,1.447-0.315c0.361-0.21,0.542-0.502,0.542-0.876c0-0.361-0.149-0.627-0.448-0.798
		c-0.299-0.171-0.892-0.328-1.778-0.471c-1.313-0.222-2.25-0.581-2.812-1.077s-0.842-1.138-0.842-1.927
		c0-0.794,0.305-1.459,0.916-1.995c0.61-0.536,1.415-0.803,2.413-0.803c0.899,0,1.674,0.185,2.324,0.556v-0.408h1.664v3.161h-1.664
		v-0.581c-0.506-0.781-1.241-1.171-2.206-1.171c-0.492,0-0.898,0.106-1.216,0.32s-0.478,0.497-0.478,0.852
		c0,0.361,0.146,0.609,0.438,0.744c0.292,0.135,0.92,0.277,1.886,0.427c0.926,0.144,1.625,0.313,2.098,0.506
		c0.473,0.194,0.865,0.516,1.177,0.965c0.312,0.45,0.468,0.974,0.468,1.571c0,0.887-0.34,1.591-1.02,2.113
		c-0.679,0.522-1.561,0.783-2.644,0.783c-1.018,0-1.848-0.231-2.491-0.693v0.536H-1428.835z"/>
	<path d="M-1409.613,347.123h-8.016c0.118,0.88,0.466,1.592,1.043,2.137s1.316,0.817,2.216,0.817c1.307,0,2.34-0.525,3.102-1.576
		l1.654,0.729c-0.538,0.833-1.237,1.452-2.097,1.856c-0.86,0.404-1.76,0.606-2.698,0.606c-1.458,0-2.704-0.455-3.737-1.364
		c-1.034-0.909-1.551-2.135-1.551-3.678c0-1.464,0.504-2.669,1.512-3.614s2.165-1.418,3.471-1.418c1.28,0,2.441,0.461,3.481,1.384
		S-1409.652,345.298-1409.613,347.123z M-1411.543,345.764c-0.131-0.67-0.479-1.275-1.043-1.817
		c-0.565-0.542-1.257-0.813-2.078-0.813c-0.749,0-1.388,0.245-1.92,0.733c-0.532,0.489-0.856,1.121-0.975,1.896H-1411.543z"/>
	<path d="M-1408.254,343.548v-1.664h1.241v-1.467l1.871-1.714v3.181h1.763v1.664h-1.763v4.628c0,0.742,0.041,1.2,0.124,1.374
		c0.082,0.174,0.287,0.261,0.615,0.261c0.348,0,0.689-0.066,1.024-0.197v1.704c-0.479,0.171-0.958,0.256-1.438,0.256
		c-0.571,0-1.034-0.126-1.389-0.379c-0.354-0.252-0.578-0.569-0.669-0.95c-0.092-0.381-0.138-1.037-0.138-1.97v-4.727H-1408.254z"/>
	<path d="M-1402.168,343.548v-1.664h1.241v-1.467l1.871-1.714v3.181h1.763v1.664h-1.763v4.628c0,0.742,0.041,1.2,0.124,1.374
		c0.082,0.174,0.287,0.261,0.615,0.261c0.348,0,0.689-0.066,1.024-0.197v1.704c-0.479,0.171-0.958,0.256-1.438,0.256
		c-0.571,0-1.034-0.126-1.389-0.379c-0.354-0.252-0.578-0.569-0.669-0.95c-0.092-0.381-0.138-1.037-0.138-1.97v-4.727H-1402.168z"/>
	<path d="M-1394.556,349.752v-6.204h-1.477v-1.664h3.348v7.868h1.477v1.664h-4.825v-1.664H-1394.556z M-1394.821,338.644
		c0-0.302,0.106-0.564,0.32-0.788s0.484-0.335,0.813-0.335c0.309,0,0.575,0.108,0.798,0.325c0.223,0.216,0.334,0.482,0.334,0.797
		c0,0.315-0.111,0.583-0.334,0.803c-0.223,0.22-0.489,0.33-0.798,0.33c-0.315,0-0.583-0.112-0.802-0.335
		C-1394.711,339.219-1394.821,338.953-1394.821,338.644z"/>
	<path d="M-1386.717,341.884v1.152c1.201-0.867,2.297-1.3,3.289-1.3c0.617,0,1.127,0.146,1.531,0.438
		c0.404,0.292,0.668,0.65,0.792,1.074c0.125,0.423,0.188,1.042,0.188,1.856v4.648h1.605v1.664h-3.476v-6.233
		c0-0.722-0.108-1.193-0.325-1.413c-0.217-0.22-0.482-0.33-0.797-0.33c-0.828,0-1.763,0.404-2.807,1.211v5.101h1.645v1.664h-5.19
		v-1.664h1.674v-6.204h-1.674v-1.664H-1386.717z"/>
	<path d="M-1366.864,341.884v1.664h-1.713v7.1c0,0.958-0.049,1.669-0.148,2.132c-0.098,0.463-0.336,0.936-0.714,1.418
		c-0.377,0.483-0.944,0.888-1.699,1.216s-1.599,0.493-2.531,0.493c-1.405,0-2.659-0.424-3.762-1.271l1.221-1.359
		c0.827,0.643,1.727,0.965,2.698,0.965c0.538,0,1.037-0.104,1.497-0.31c0.459-0.207,0.803-0.458,1.029-0.753
		s0.373-0.576,0.438-0.842c0.065-0.266,0.099-0.714,0.099-1.344v-0.867c-0.295,0.374-0.758,0.729-1.389,1.063
		s-1.319,0.502-2.068,0.502c-1.366,0-2.479-0.473-3.338-1.418c-0.86-0.946-1.29-2.107-1.29-3.486c0-1.51,0.474-2.729,1.423-3.658
		c0.949-0.929,2.047-1.394,3.294-1.394c1.261,0,2.383,0.502,3.368,1.507v-1.359H-1366.864z M-1376.544,346.749
		c0,0.965,0.281,1.753,0.842,2.364c0.562,0.61,1.279,0.916,2.152,0.916c0.854,0,1.589-0.307,2.206-0.92
		c0.617-0.614,0.925-1.403,0.925-2.369c0-0.978-0.309-1.764-0.925-2.358c-0.617-0.594-1.333-0.891-2.147-0.891
		s-1.526,0.294-2.137,0.881C-1376.239,344.958-1376.544,345.751-1376.544,346.749z"/>
	<path d="M-1365.811,351.417v-3.27h1.674v0.315c0.059,0.446,0.3,0.814,0.724,1.103c0.423,0.289,0.924,0.434,1.502,0.434
		c0.604,0,1.086-0.105,1.447-0.315c0.361-0.21,0.542-0.502,0.542-0.876c0-0.361-0.149-0.627-0.448-0.798
		c-0.299-0.171-0.892-0.328-1.778-0.471c-1.313-0.222-2.25-0.581-2.812-1.077s-0.842-1.138-0.842-1.927
		c0-0.794,0.305-1.459,0.916-1.995c0.61-0.536,1.415-0.803,2.413-0.803c0.899,0,1.674,0.185,2.324,0.556v-0.408h1.664v3.161h-1.664
		v-0.581c-0.506-0.781-1.241-1.171-2.206-1.171c-0.492,0-0.898,0.106-1.216,0.32s-0.478,0.497-0.478,0.852
		c0,0.361,0.146,0.609,0.438,0.744c0.292,0.135,0.92,0.277,1.886,0.427c0.926,0.144,1.625,0.313,2.098,0.506
		c0.473,0.194,0.865,0.516,1.177,0.965c0.312,0.45,0.468,0.974,0.468,1.571c0,0.887-0.34,1.591-1.02,2.113
		c-0.679,0.522-1.561,0.783-2.644,0.783c-1.018,0-1.848-0.231-2.491-0.693v0.536H-1365.811z"/>
	<path d="M-1351.826,351.417v-1.664h1.693v-10.37h-1.693v-1.664h3.525v5.515c0.938-1.077,2.091-1.615,3.456-1.615
		c1.313,0,2.414,0.452,3.304,1.354c0.89,0.903,1.335,2.093,1.335,3.57c0,1.418-0.436,2.611-1.306,3.58
		c-0.869,0.968-1.983,1.453-3.343,1.453c-0.762,0-1.457-0.164-2.088-0.493c-0.63-0.328-1.083-0.692-1.358-1.093v1.428H-1351.826z
		 M-1348.242,346.67c0,0.991,0.304,1.777,0.911,2.358s1.308,0.872,2.103,0.872c0.833,0,1.553-0.309,2.156-0.926
		c0.604-0.617,0.906-1.444,0.906-2.481c0-1.004-0.301-1.784-0.901-2.339c-0.601-0.555-1.305-0.832-2.112-0.832
		c-0.794,0-1.503,0.287-2.127,0.862C-1347.931,344.758-1348.242,345.587-1348.242,346.67z"/>
	<path d="M-1335.253,351.249l-3.132-7.701h-1.586v-1.664h4.718v1.664h-1.143l2.058,5.278l2.02-5.278h-1.261v-1.664h4.618v1.664
		h-1.418l-4.717,12.142h-3.161v-1.635h1.861L-1335.253,351.249z"/>
	<path d="M-1323.131,343.548v-1.664h1.241v-1.467l1.871-1.714v3.181h1.763v1.664h-1.763v4.628c0,0.742,0.041,1.2,0.123,1.374
		c0.082,0.174,0.287,0.261,0.615,0.261c0.348,0,0.689-0.066,1.024-0.197v1.704c-0.479,0.171-0.959,0.256-1.438,0.256
		c-0.57,0-1.033-0.126-1.388-0.379c-0.354-0.252-0.578-0.569-0.67-0.95s-0.138-1.037-0.138-1.97v-4.727H-1323.131z"/>
	<path d="M-1316.887,346.65c0-1.471,0.485-2.677,1.457-3.619c0.972-0.942,2.156-1.413,3.555-1.413c1.372,0,2.551,0.464,3.535,1.394
		c0.985,0.929,1.478,2.142,1.478,3.639c0,1.497-0.491,2.711-1.473,3.644s-2.161,1.398-3.54,1.398c-1.418,0-2.607-0.473-3.569-1.418
		C-1316.406,349.329-1316.887,348.121-1316.887,346.65z M-1314.908,346.646c0,0.941,0.294,1.712,0.882,2.313
		c0.587,0.602,1.305,0.902,2.151,0.902c0.86,0,1.581-0.304,2.162-0.912s0.871-1.375,0.871-2.303c0-0.935-0.295-1.704-0.886-2.309
		c-0.591-0.604-1.307-0.907-2.147-0.907c-0.88,0-1.604,0.309-2.176,0.927S-1314.908,345.737-1314.908,346.646z"/>
	<path d="M-1294.938,349.752v1.664h-3.516v-1.093c-1.097,0.834-2.146,1.251-3.151,1.251c-0.637,0-1.163-0.14-1.58-0.418
		c-0.417-0.279-0.694-0.64-0.832-1.083c-0.138-0.443-0.207-1.157-0.207-2.142v-4.382h-1.35v-1.664h3.221v5.81
		c0,0.702,0.02,1.175,0.059,1.418c0.04,0.243,0.154,0.443,0.345,0.601s0.431,0.236,0.719,0.236c0.867,0,1.793-0.414,2.777-1.241
		v-5.16h-1.684v-1.664h3.555v7.868H-1294.938z"/>
	<path d="M-1284.991,341.884v3.604h-1.674c-0.086-0.689-0.366-1.218-0.842-1.585c-0.477-0.368-1.029-0.551-1.659-0.551
		c-0.841,0-1.523,0.297-2.049,0.891s-0.788,1.374-0.788,2.339c0,0.899,0.25,1.692,0.749,2.378s1.221,1.029,2.166,1.029
		c1.313,0,2.265-0.624,2.856-1.871l1.546,0.729c-0.854,1.897-2.348,2.846-4.48,2.846c-1.511,0-2.698-0.516-3.565-1.546
		c-0.866-1.03-1.3-2.219-1.3-3.564c0-1.438,0.473-2.625,1.418-3.56s2.035-1.403,3.27-1.403c1.057,0,1.95,0.312,2.679,0.936v-0.669
		H-1284.991z"/>
	<path d="M-1282.097,349.752v-10.37h-1.723v-1.664h3.594v5.258c1.123-0.906,2.189-1.359,3.2-1.359c0.631,0,1.149,0.131,1.557,0.394
		c0.406,0.263,0.685,0.609,0.832,1.039c0.147,0.43,0.222,1.059,0.222,1.886v4.815h1.625v1.664h-3.496v-5.83
		c0-0.722-0.023-1.205-0.069-1.448c-0.046-0.243-0.172-0.443-0.379-0.601c-0.207-0.158-0.451-0.236-0.733-0.236
		c-0.723,0-1.642,0.41-2.758,1.231v5.219h1.654v1.664h-5.248v-1.664H-1282.097z"/>
	<path d="M-1270.535,349.752v-6.204h-1.477v-1.664h3.348v7.868h1.478v1.664h-4.825v-1.664H-1270.535z M-1270.801,338.644
		c0-0.302,0.106-0.564,0.32-0.788c0.213-0.223,0.483-0.335,0.813-0.335c0.309,0,0.574,0.108,0.797,0.325
		c0.224,0.216,0.335,0.482,0.335,0.797c0,0.315-0.111,0.583-0.335,0.803c-0.223,0.22-0.488,0.33-0.797,0.33
		c-0.315,0-0.583-0.112-0.803-0.335C-1270.691,339.219-1270.801,338.953-1270.801,338.644z"/>
	<path d="M-1262.696,341.884v1.152c1.201-0.867,2.298-1.3,3.289-1.3c0.617,0,1.127,0.146,1.531,0.438
		c0.403,0.292,0.668,0.65,0.793,1.074c0.124,0.423,0.187,1.042,0.187,1.856v4.648h1.605v1.664h-3.477v-6.233
		c0-0.722-0.108-1.193-0.324-1.413c-0.217-0.22-0.483-0.33-0.798-0.33c-0.827,0-1.763,0.404-2.807,1.211v5.101h1.645v1.664h-5.189
		v-1.664h1.674v-6.204h-1.674v-1.664H-1262.696z"/>
	<path d="M-1242.844,341.884v1.664h-1.713v7.1c0,0.958-0.05,1.669-0.147,2.132c-0.099,0.463-0.337,0.936-0.714,1.418
		c-0.378,0.483-0.944,0.888-1.699,1.216s-1.599,0.493-2.53,0.493c-1.405,0-2.659-0.424-3.763-1.271l1.222-1.359
		c0.827,0.643,1.727,0.965,2.698,0.965c0.538,0,1.037-0.104,1.497-0.31c0.459-0.207,0.802-0.458,1.028-0.753
		s0.373-0.576,0.438-0.842c0.065-0.266,0.099-0.714,0.099-1.344v-0.867c-0.296,0.374-0.759,0.729-1.389,1.063
		s-1.319,0.502-2.068,0.502c-1.365,0-2.478-0.473-3.338-1.418c-0.86-0.946-1.29-2.107-1.29-3.486c0-1.51,0.475-2.729,1.423-3.658
		c0.949-0.929,2.047-1.394,3.294-1.394c1.261,0,2.384,0.502,3.368,1.507v-1.359H-1242.844z M-1252.523,346.749
		c0,0.965,0.28,1.753,0.842,2.364c0.562,0.61,1.278,0.916,2.152,0.916c0.853,0,1.588-0.307,2.205-0.92s0.926-1.403,0.926-2.369
		c0-0.978-0.309-1.764-0.926-2.358s-1.332-0.891-2.146-0.891s-1.526,0.294-2.137,0.881S-1252.523,345.751-1252.523,346.749z"/>
	<path d="M-1236.965,343.548v-1.664h1.241v-1.467l1.871-1.714v3.181h1.763v1.664h-1.763v4.628c0,0.742,0.041,1.2,0.123,1.374
		c0.082,0.174,0.287,0.261,0.615,0.261c0.348,0,0.689-0.066,1.024-0.197v1.704c-0.479,0.171-0.959,0.256-1.438,0.256
		c-0.57,0-1.033-0.126-1.388-0.379c-0.354-0.252-0.578-0.569-0.67-0.95s-0.138-1.037-0.138-1.97v-4.727H-1236.965z"/>
	<path d="M-1229.353,349.752v-10.37h-1.723v-1.664h3.594v5.258c1.123-0.906,2.189-1.359,3.2-1.359c0.631,0,1.149,0.131,1.557,0.394
		c0.406,0.263,0.685,0.609,0.832,1.039c0.147,0.43,0.222,1.059,0.222,1.886v4.815h1.625v1.664h-3.496v-5.83
		c0-0.722-0.023-1.205-0.069-1.448c-0.046-0.243-0.172-0.443-0.379-0.601c-0.207-0.158-0.451-0.236-0.733-0.236
		c-0.723,0-1.642,0.41-2.758,1.231v5.219h1.654v1.664h-5.248v-1.664H-1229.353z"/>
	<path d="M-1209.116,347.123h-8.016c0.118,0.88,0.466,1.592,1.044,2.137c0.577,0.545,1.316,0.817,2.216,0.817
		c1.306,0,2.34-0.525,3.102-1.576l1.654,0.729c-0.538,0.833-1.237,1.452-2.098,1.856c-0.859,0.404-1.759,0.606-2.698,0.606
		c-1.457,0-2.703-0.455-3.737-1.364c-1.033-0.909-1.551-2.135-1.551-3.678c0-1.464,0.504-2.669,1.512-3.614s2.165-1.418,3.472-1.418
		c1.28,0,2.44,0.461,3.48,1.384C-1209.695,343.924-1209.155,345.298-1209.116,347.123z M-1211.046,345.764
		c-0.132-0.67-0.479-1.275-1.044-1.817c-0.564-0.542-1.258-0.813-2.078-0.813c-0.748,0-1.389,0.245-1.92,0.733
		c-0.532,0.489-0.857,1.121-0.976,1.896H-1211.046z"/>
	<path d="M-1207.54,351.417v-3.27h1.674v0.315c0.06,0.446,0.301,0.814,0.724,1.103c0.424,0.289,0.925,0.434,1.502,0.434
		c0.604,0,1.087-0.105,1.448-0.315c0.36-0.21,0.541-0.502,0.541-0.876c0-0.361-0.149-0.627-0.448-0.798s-0.891-0.328-1.777-0.471
		c-1.313-0.222-2.251-0.581-2.812-1.077c-0.562-0.496-0.842-1.138-0.842-1.927c0-0.794,0.306-1.459,0.916-1.995
		s1.415-0.803,2.413-0.803c0.898,0,1.674,0.185,2.323,0.556v-0.408h1.664v3.161h-1.664v-0.581c-0.505-0.781-1.24-1.171-2.205-1.171
		c-0.493,0-0.898,0.106-1.217,0.32s-0.478,0.497-0.478,0.852c0,0.361,0.146,0.609,0.438,0.744c0.292,0.135,0.921,0.277,1.886,0.427
		c0.926,0.144,1.625,0.313,2.098,0.506c0.473,0.194,0.865,0.516,1.177,0.965c0.312,0.45,0.468,0.974,0.468,1.571
		c0,0.887-0.34,1.591-1.02,2.113c-0.68,0.522-1.561,0.783-2.644,0.783c-1.019,0-1.849-0.231-2.492-0.693v0.536H-1207.54z"/>
	<path d="M-1188.317,347.123h-8.016c0.118,0.88,0.466,1.592,1.044,2.137c0.577,0.545,1.316,0.817,2.216,0.817
		c1.306,0,2.34-0.525,3.102-1.576l1.654,0.729c-0.538,0.833-1.237,1.452-2.098,1.856c-0.859,0.404-1.759,0.606-2.698,0.606
		c-1.457,0-2.703-0.455-3.737-1.364c-1.033-0.909-1.551-2.135-1.551-3.678c0-1.464,0.504-2.669,1.512-3.614s2.165-1.418,3.472-1.418
		c1.28,0,2.44,0.461,3.48,1.384C-1188.896,343.924-1188.356,345.298-1188.317,347.123z M-1190.247,345.764
		c-0.132-0.67-0.479-1.275-1.044-1.817c-0.564-0.542-1.258-0.813-2.078-0.813c-0.748,0-1.389,0.245-1.92,0.733
		c-0.532,0.489-0.857,1.121-0.976,1.896H-1190.247z"/>
	<path d="M-1181.7,351.417v-3.27h1.674v0.315c0.06,0.446,0.301,0.814,0.724,1.103c0.424,0.289,0.925,0.434,1.502,0.434
		c0.604,0,1.087-0.105,1.448-0.315c0.36-0.21,0.541-0.502,0.541-0.876c0-0.361-0.149-0.627-0.448-0.798s-0.891-0.328-1.777-0.471
		c-1.313-0.222-2.251-0.581-2.812-1.077c-0.562-0.496-0.842-1.138-0.842-1.927c0-0.794,0.306-1.459,0.916-1.995
		s1.415-0.803,2.413-0.803c0.898,0,1.674,0.185,2.323,0.556v-0.408h1.664v3.161h-1.664v-0.581c-0.505-0.781-1.24-1.171-2.205-1.171
		c-0.493,0-0.898,0.106-1.217,0.32s-0.478,0.497-0.478,0.852c0,0.361,0.146,0.609,0.438,0.744c0.292,0.135,0.921,0.277,1.886,0.427
		c0.926,0.144,1.625,0.313,2.098,0.506c0.473,0.194,0.865,0.516,1.177,0.965c0.312,0.45,0.468,0.974,0.468,1.571
		c0,0.887-0.34,1.591-1.02,2.113c-0.68,0.522-1.561,0.783-2.644,0.783c-1.019,0-1.849-0.231-2.492-0.693v0.536H-1181.7z"/>
	<path d="M-1171.153,349.752v-10.37h-1.723v-1.664h3.594v5.258c1.123-0.906,2.189-1.359,3.2-1.359c0.631,0,1.149,0.131,1.557,0.394
		c0.406,0.263,0.685,0.609,0.832,1.039c0.147,0.43,0.222,1.059,0.222,1.886v4.815h1.625v1.664h-3.496v-5.83
		c0-0.722-0.023-1.205-0.069-1.448c-0.046-0.243-0.172-0.443-0.379-0.601c-0.207-0.158-0.451-0.236-0.733-0.236
		c-0.723,0-1.642,0.41-2.758,1.231v5.219h1.654v1.664h-5.248v-1.664H-1171.153z"/>
	<path d="M-1151.281,349.752v1.664h-3.27v-1.162c-0.906,0.88-1.917,1.32-3.033,1.32c-0.866,0-1.619-0.282-2.26-0.847
		c-0.64-0.564-0.96-1.287-0.96-2.167c0-0.886,0.34-1.621,1.02-2.206c0.679-0.584,1.498-0.876,2.457-0.876
		c0.893,0,1.756,0.269,2.59,0.808v-0.946c0-0.485-0.047-0.86-0.139-1.123c-0.092-0.262-0.307-0.499-0.645-0.709
		c-0.338-0.21-0.779-0.315-1.324-0.315c-0.939,0-1.619,0.374-2.039,1.123l-1.792-0.473c0.794-1.483,2.166-2.226,4.116-2.226
		c0.716,0,1.334,0.097,1.856,0.291c0.521,0.194,0.911,0.443,1.167,0.749c0.256,0.305,0.428,0.635,0.517,0.99
		s0.133,0.919,0.133,1.693v4.412H-1151.281z M-1154.737,347.872c-0.808-0.63-1.625-0.946-2.452-0.946
		c-0.519,0-0.952,0.151-1.3,0.453c-0.349,0.302-0.522,0.693-0.522,1.172c0,0.447,0.152,0.821,0.458,1.123
		c0.306,0.302,0.721,0.453,1.246,0.453c0.905,0,1.763-0.381,2.57-1.142V347.872z"/>
	<path d="M-1149.144,354.026v-10.478h-1.605v-1.664h3.477v1.497c0.932-1.096,2.062-1.645,3.388-1.645
		c1.339,0,2.447,0.459,3.323,1.378c0.877,0.919,1.314,2.114,1.314,3.585c0,1.542-0.476,2.761-1.428,3.653
		c-0.952,0.893-2.035,1.339-3.249,1.339c-1.261,0-2.377-0.486-3.349-1.458v3.791h1.852v1.665h-5.466v-1.665H-1149.144z
		 M-1147.302,346.788c0,0.525,0.108,1.027,0.324,1.507c0.217,0.479,0.562,0.881,1.034,1.206c0.473,0.325,1.027,0.488,1.664,0.488
		c0.894,0,1.63-0.299,2.211-0.896c0.581-0.597,0.872-1.418,0.872-2.462c0-1.017-0.304-1.812-0.911-2.383s-1.299-0.857-2.073-0.857
		c-0.827,0-1.554,0.31-2.181,0.931S-1147.302,345.764-1147.302,346.788z"/>
	<path d="M-1127.607,347.123h-8.016c0.118,0.88,0.466,1.592,1.044,2.137c0.577,0.545,1.316,0.817,2.216,0.817
		c1.306,0,2.34-0.525,3.102-1.576l1.654,0.729c-0.538,0.833-1.237,1.452-2.098,1.856c-0.859,0.404-1.759,0.606-2.698,0.606
		c-1.457,0-2.703-0.455-3.737-1.364c-1.033-0.909-1.551-2.135-1.551-3.678c0-1.464,0.504-2.669,1.512-3.614s2.165-1.418,3.472-1.418
		c1.28,0,2.44,0.461,3.48,1.384C-1128.187,343.924-1127.646,345.298-1127.607,347.123z M-1129.537,345.764
		c-0.132-0.67-0.479-1.275-1.044-1.817c-0.564-0.542-1.258-0.813-2.078-0.813c-0.748,0-1.389,0.245-1.92,0.733
		c-0.532,0.489-0.857,1.121-0.976,1.896H-1129.537z"/>
	<path d="M-1126.031,351.417v-3.27h1.674v0.315c0.06,0.446,0.301,0.814,0.724,1.103c0.424,0.289,0.925,0.434,1.502,0.434
		c0.604,0,1.087-0.105,1.448-0.315c0.36-0.21,0.541-0.502,0.541-0.876c0-0.361-0.149-0.627-0.448-0.798s-0.891-0.328-1.777-0.471
		c-1.313-0.222-2.251-0.581-2.812-1.077c-0.562-0.496-0.842-1.138-0.842-1.927c0-0.794,0.306-1.459,0.916-1.995
		s1.415-0.803,2.413-0.803c0.898,0,1.674,0.185,2.323,0.556v-0.408h1.664v3.161h-1.664v-0.581c-0.505-0.781-1.24-1.171-2.205-1.171
		c-0.493,0-0.898,0.106-1.217,0.32s-0.478,0.497-0.478,0.852c0,0.361,0.146,0.609,0.438,0.744c0.292,0.135,0.921,0.277,1.886,0.427
		c0.926,0.144,1.625,0.313,2.098,0.506c0.473,0.194,0.865,0.516,1.177,0.965c0.312,0.45,0.468,0.974,0.468,1.571
		c0,0.887-0.34,1.591-1.02,2.113c-0.68,0.522-1.561,0.783-2.644,0.783c-1.019,0-1.849-0.231-2.492-0.693v0.536H-1126.031z"/>
	<path d="M-1115.889,351.417v-2.422h2.422v2.422H-1115.889z"/>
</g>
<g>
	<path d="M-1559.521,325.254v-31.321h-5.255v-5.225h14.924c4.384,0,7.667,0.311,9.85,0.931c2.182,0.621,4.009,2.027,5.48,4.219
		c1.471,2.192,2.207,4.78,2.207,7.762c0,2.383-0.486,4.52-1.457,6.412c-0.971,1.892-2.172,3.288-3.604,4.189
		c-1.432,0.901-3.043,1.507-4.834,1.817c-1.792,0.311-4.5,0.465-8.123,0.465h-2.883v10.75h5.405v5.225h-16.966v-5.225H-1559.521z
		 M-1553.215,309.458h3.604c4.104,0,6.947-0.585,8.528-1.757c1.581-1.171,2.373-3.238,2.373-6.201c0-1.881-0.421-3.443-1.262-4.685
		c-0.841-1.241-1.882-2.031-3.123-2.372c-1.241-0.34-3.313-0.511-6.216-0.511h-3.904V309.458z"/>
	<path d="M-1506.232,315.794h-15.049l-3.196,9.459h5.075v5.225h-16.456v-5.225h5.054l11.405-31.831h-5.048v-4.714h21.351v4.714
		h-5.221l11.689,31.831h4.673v5.225h-16.366v-5.225h5.195L-1506.232,315.794z M-1507.807,310.9l-5.559-17.477h-0.571l-5.787,17.477
		H-1507.807z"/>
	<path d="M-1485.919,325.254v-31.321h-5.736v-5.225h16.966c3.544,0,6.356,0.275,8.438,0.826c2.082,0.551,3.803,1.711,5.165,3.483
		c1.361,1.771,2.042,3.979,2.042,6.621c0,5.525-2.87,8.998-8.61,10.419l7.378,15.197h5.105v5.225h-9.047l-9.511-19.519h-5.886
		v14.294h5.346v5.225h-17.387v-5.225H-1485.919z M-1479.613,305.735h4.925c2.382,0,4.139-0.155,5.271-0.465
		c1.131-0.31,2.057-0.941,2.777-1.892c0.721-0.951,1.081-2.227,1.081-3.829c0-1.361-0.365-2.512-1.096-3.454
		c-0.731-0.94-1.632-1.536-2.703-1.787c-1.071-0.25-2.708-0.375-4.91-0.375h-5.346V305.735z"/>
	<path d="M-1448.203,325.254v-31.321h-5.405v-5.225h34.714v12.582h-5.165v-7.357h-17.837v12.433h15.525v5.225h-15.525v13.664h17.837
		v-7.597h5.165v12.822h-34.714v-5.225H-1448.203z"/>
	<path d="M-1410.576,325.254v-31.321h-5.976v-5.225h14.259l18.323,32.469v-27.244h-5.916v-5.225h17.147v5.225h-6.156v36.966h-6.473
		l-20.043-35.652v30.007h5.976v5.225h-17.117v-5.225H-1410.576z"/>
	<path d="M-1358.115,325.254v-31.321h-8.618v10.661h-5.165v-15.885h33.843v15.885h-5.165v-10.661h-8.588v31.321h5.435v5.225h-17.086
		v-5.225H-1358.115z"/>
	<path d="M-1335.232,330.479v-15.165h5.226v3.694c2.502,4.545,5.775,6.817,9.819,6.817c2.062,0,3.803-0.631,5.225-1.892
		c1.421-1.261,2.132-2.913,2.132-4.955c0-1.982-0.581-3.409-1.742-4.279c-1.161-0.871-3.353-1.737-6.576-2.598
		c-3.744-1.001-6.517-1.947-8.318-2.838c-1.802-0.891-3.238-2.162-4.309-3.813c-1.071-1.652-1.606-3.608-1.606-5.871
		c0-3.503,1.166-6.301,3.499-8.393c2.332-2.092,5.26-3.138,8.783-3.138c3.343,0,6.446,1.081,9.31,3.243v-2.792h5.104v12.672h-5.104
		v-2.913c-2.143-3.223-5.095-4.834-8.859-4.834c-2.282,0-4.034,0.525-5.255,1.577c-1.221,1.051-1.832,2.308-1.832,3.769
		c0,1.122,0.31,2.107,0.931,2.958c0.62,0.851,1.411,1.477,2.372,1.877s2.853,0.96,5.676,1.679c3.685,0.958,6.357,1.853,8.019,2.684
		c1.661,0.832,3.092,2.218,4.293,4.161c1.201,1.942,1.801,4.175,1.801,6.698c0,3.565-1.256,6.509-3.769,8.832
		c-2.513,2.323-5.621,3.484-9.324,3.484c-3.804,0-7.227-1.371-10.27-4.114v3.453H-1335.232z"/>
	<path d="M-1286.285,309.398c0-6.066,1.982-11.141,5.946-15.225s9.129-6.126,15.495-6.126c6.426,0,11.661,2.042,15.705,6.126
		s6.066,9.2,6.066,15.345c0,6.266-2.058,11.437-6.171,15.51c-4.114,4.074-9.345,6.111-15.69,6.111
		c-4.044,0-7.763-0.966-11.156-2.898c-3.394-1.932-5.941-4.625-7.643-8.078C-1285.433,316.71-1286.285,313.122-1286.285,309.398z
		 M-1279.408,309.428c0,4.585,1.341,8.429,4.024,11.531c2.683,3.104,6.205,4.655,10.57,4.655c4.324,0,7.877-1.586,10.66-4.76
		c2.782-3.173,4.174-6.961,4.174-11.366c0-4.444-1.416-8.203-4.249-11.276c-2.833-3.073-6.392-4.609-10.676-4.609
		c-4.264,0-7.747,1.512-10.449,4.534C-1278.056,301.161-1279.408,304.924-1279.408,309.428z"/>
	<path d="M-1233.763,325.254v-31.321h-5.976v-5.225h14.258l18.323,32.469v-27.244h-5.915v-5.225h17.146v5.225h-6.156v36.966h-6.473
		l-20.043-35.652v30.007h5.976v5.225h-17.116v-5.225H-1233.763z"/>
	<path d="M-1189.53,325.254v-31.321h-5.405v-5.225h17.086v5.225h-5.135v31.321h12.793V311.05h5.886v19.429h-30.63v-5.225H-1189.53z"
		/>
	<path d="M-1151.483,325.254V311.47l-12.432-17.537h-5.105v-5.225h17.177v5.225h-5.262l9.227,12.913l8.426-12.913h-5.243v-5.225
		h16.636v5.225h-5.525l-11.591,17.537v13.784h5.705v5.225h-17.627v-5.225H-1151.483z"/>
	<path d="M-1123.375,330.479v-7.387h7.387v7.387H-1123.375z M-1118.18,319.158h-3.063l-1.501-17.747v-12.702h6.065v12.702
		L-1118.18,319.158z"/>
</g>
</svg>
