<?xml version="1.0" encoding="utf-8"?>
<!-- Generator: Adobe Illustrator 17.0.0, SVG Export Plug-In . SVG Version: 6.00 Build 0)  -->
<!DOCTYPE svg PUBLIC "-//W3C//DTD SVG 1.1//EN" "http://www.w3.org/Graphics/SVG/1.1/DTD/svg11.dtd">
<svg version="1.1" id="Layer_1" xmlns="http://www.w3.org/2000/svg" xmlns:xlink="http://www.w3.org/1999/xlink" x="0px" y="0px"
	 width="568px" height="320px" viewBox="0 0 568 320" enable-background="new 0 0 568 320" xml:space="preserve">
<g>
	<g>
		<rect x="6.682" y="5" fill="#FFFFFF" width="556.318" height="311.179"/>
	</g>
	<g>
		<path d="M558,10v301.179H11.682V10H558 M568,0H1.682v321.179H568V0L568,0z"/>
	</g>
</g>
<g>
	<path d="M103.622,77.74l-2.576-6.335h-1.304v-1.369h3.88v1.369h-0.939l1.693,4.342l1.661-4.342H105v-1.369h3.799v1.369h-1.167
		l-3.88,9.989h-2.601v-1.345h1.531L103.622,77.74z"/>
	<path d="M108.75,73.957c0-1.21,0.4-2.202,1.199-2.977c0.799-0.775,1.774-1.163,2.924-1.163c1.129,0,2.098,0.382,2.908,1.146
		s1.215,1.762,1.215,2.993s-0.404,2.23-1.211,2.998c-0.807,0.767-1.778,1.15-2.912,1.15c-1.167,0-2.146-0.389-2.937-1.167
		C109.146,76.16,108.75,75.167,108.75,73.957z M110.378,73.953c0,0.774,0.242,1.408,0.725,1.903s1.073,0.742,1.77,0.742
		c0.708,0,1.3-0.25,1.778-0.75c0.478-0.5,0.717-1.131,0.717-1.895c0-0.769-0.243-1.402-0.729-1.899
		c-0.486-0.498-1.075-0.746-1.766-0.746c-0.724,0-1.32,0.254-1.791,0.762C110.613,72.578,110.378,73.206,110.378,73.953z"/>
	<path d="M126.808,76.508v1.369h-2.892v-0.899c-0.902,0.686-1.766,1.029-2.592,1.029c-0.524,0-0.958-0.115-1.3-0.344
		c-0.343-0.229-0.571-0.526-0.685-0.891c-0.114-0.364-0.17-0.952-0.17-1.762v-3.605h-1.11v-1.369h2.649v4.78
		c0,0.578,0.016,0.967,0.048,1.167c0.033,0.2,0.127,0.364,0.284,0.494c0.157,0.129,0.354,0.194,0.591,0.194
		c0.713,0,1.475-0.34,2.285-1.021v-4.245h-1.385v-1.369h2.924v6.473H126.808z"/>
	<path d="M139.137,70.036V73h-1.377c-0.07-0.567-0.301-1.001-0.693-1.304c-0.392-0.302-0.847-0.454-1.365-0.454
		c-0.691,0-1.253,0.244-1.685,0.733c-0.432,0.489-0.648,1.13-0.648,1.924c0,0.74,0.206,1.392,0.616,1.957
		c0.411,0.564,1.005,0.846,1.782,0.846c1.08,0,1.863-0.513,2.35-1.539l1.271,0.6c-0.702,1.561-1.931,2.341-3.686,2.341
		c-1.243,0-2.22-0.424-2.933-1.272c-0.713-0.848-1.069-1.826-1.069-2.933c0-1.183,0.389-2.159,1.167-2.929
		c0.777-0.77,1.674-1.154,2.689-1.154c0.87,0,1.604,0.256,2.204,0.77v-0.551H139.137z"/>
	<path d="M148.356,76.508v1.369h-2.689v-0.956c-0.745,0.724-1.577,1.085-2.495,1.085c-0.713,0-1.333-0.232-1.859-0.696
		c-0.526-0.465-0.79-1.059-0.79-1.782c0-0.729,0.279-1.334,0.838-1.815c0.559-0.48,1.232-0.721,2.021-0.721
		c0.734,0,1.445,0.221,2.131,0.664v-0.778c0-0.399-0.038-0.708-0.114-0.923s-0.252-0.411-0.53-0.583
		c-0.278-0.172-0.642-0.259-1.09-0.259c-0.772,0-1.331,0.308-1.677,0.924l-1.475-0.389c0.653-1.22,1.782-1.831,3.386-1.831
		c0.589,0,1.098,0.08,1.527,0.239c0.429,0.16,0.749,0.365,0.96,0.616c0.21,0.251,0.352,0.522,0.425,0.814
		c0.073,0.292,0.109,0.756,0.109,1.393v3.629H148.356z M145.513,74.961c-0.665-0.519-1.337-0.778-2.018-0.778
		c-0.426,0-0.783,0.125-1.069,0.373c-0.286,0.249-0.429,0.57-0.429,0.964c0,0.367,0.125,0.675,0.377,0.923
		c0.251,0.249,0.592,0.373,1.024,0.373c0.746,0,1.45-0.313,2.115-0.94V74.961z"/>
	<path d="M151.929,70.036v0.948c0.988-0.713,1.89-1.069,2.706-1.069c0.507,0,0.927,0.12,1.26,0.36
		c0.332,0.241,0.549,0.535,0.652,0.883c0.103,0.348,0.154,0.857,0.154,1.527v3.824h1.321v1.369h-2.86V72.75
		c0-0.594-0.089-0.981-0.267-1.163c-0.178-0.181-0.397-0.271-0.656-0.271c-0.681,0-1.45,0.332-2.309,0.997v4.196h1.353v1.369h-4.269
		v-1.369h1.377v-5.104h-1.377v-1.369H151.929z"/>
	<path d="M172.409,70.036v1.369h-1.41v5.841c0,0.789-0.041,1.373-0.122,1.754s-0.277,0.77-0.587,1.167s-0.776,0.73-1.397,1
		s-1.315,0.405-2.082,0.405c-1.156,0-2.188-0.349-3.095-1.045l1.004-1.118c0.681,0.529,1.42,0.794,2.22,0.794
		c0.443,0,0.854-0.085,1.231-0.255s0.66-0.376,0.847-0.62c0.186-0.243,0.306-0.474,0.36-0.693c0.054-0.219,0.081-0.587,0.081-1.105
		v-0.713c-0.243,0.308-0.624,0.599-1.143,0.875c-0.518,0.276-1.085,0.414-1.701,0.414c-1.123,0-2.039-0.389-2.746-1.167
		c-0.708-0.777-1.061-1.733-1.061-2.868c0-1.242,0.39-2.245,1.17-3.009s1.684-1.146,2.71-1.146c1.037,0,1.96,0.413,2.771,1.239
		v-1.118H172.409z M164.445,74.038c0,0.794,0.231,1.442,0.692,1.944c0.462,0.502,1.052,0.753,1.771,0.753
		c0.702,0,1.307-0.252,1.814-0.758c0.508-0.505,0.762-1.154,0.762-1.948c0-0.805-0.254-1.451-0.762-1.94s-1.096-0.733-1.766-0.733
		c-0.669,0-1.255,0.242-1.758,0.725S164.445,73.217,164.445,74.038z"/>
	<path d="M181.158,74.345h-6.594c0.097,0.724,0.383,1.31,0.859,1.758c0.475,0.448,1.083,0.672,1.823,0.672
		c1.074,0,1.925-0.432,2.552-1.296l1.361,0.6c-0.443,0.686-1.018,1.195-1.726,1.527s-1.447,0.499-2.22,0.499
		c-1.199,0-2.224-0.374-3.074-1.122s-1.276-1.757-1.276-3.026c0-1.204,0.414-2.195,1.243-2.973s1.781-1.167,2.856-1.167
		c1.053,0,2.008,0.379,2.864,1.138S181.125,72.844,181.158,74.345z M179.57,73.228c-0.108-0.551-0.394-1.049-0.859-1.495
		c-0.464-0.446-1.034-0.668-1.709-0.668c-0.616,0-1.143,0.201-1.58,0.604c-0.438,0.402-0.705,0.922-0.802,1.56H179.57z"/>
	<path d="M182.276,71.405v-1.369h1.021v-1.207l1.539-1.41v2.617h1.45v1.369h-1.45v3.808c0,0.61,0.034,0.987,0.102,1.13
		c0.067,0.143,0.236,0.215,0.506,0.215c0.286,0,0.567-0.054,0.842-0.162v1.401c-0.394,0.141-0.789,0.21-1.183,0.21
		c-0.47,0-0.851-0.104-1.142-0.312c-0.292-0.208-0.476-0.469-0.551-0.782c-0.076-0.313-0.113-0.854-0.113-1.621v-3.888H182.276z"/>
	<path d="M191.43,71.405v-1.369h1.021v-1.207l1.539-1.41v2.617h1.45v1.369h-1.45v3.808c0,0.61,0.034,0.987,0.102,1.13
		c0.067,0.143,0.236,0.215,0.506,0.215c0.286,0,0.567-0.054,0.842-0.162v1.401c-0.394,0.141-0.789,0.21-1.183,0.21
		c-0.47,0-0.851-0.104-1.142-0.312c-0.292-0.208-0.476-0.469-0.551-0.782c-0.076-0.313-0.113-0.854-0.113-1.621v-3.888H191.43z"/>
	<path d="M196.566,73.957c0-1.21,0.4-2.202,1.199-2.977c0.799-0.775,1.774-1.163,2.924-1.163c1.129,0,2.098,0.382,2.908,1.146
		s1.215,1.762,1.215,2.993s-0.404,2.23-1.211,2.998c-0.807,0.767-1.778,1.15-2.912,1.15c-1.167,0-2.146-0.389-2.937-1.167
		C196.961,76.16,196.566,75.167,196.566,73.957z M198.194,73.953c0,0.774,0.242,1.408,0.725,1.903s1.073,0.742,1.77,0.742
		c0.708,0,1.3-0.25,1.778-0.75c0.478-0.5,0.717-1.131,0.717-1.895c0-0.769-0.243-1.402-0.729-1.899
		c-0.486-0.498-1.075-0.746-1.766-0.746c-0.724,0-1.32,0.254-1.791,0.762C198.429,72.578,198.194,73.206,198.194,73.953z"/>
	<path d="M210.273,77.877v-2.689h1.377v0.259c0.049,0.367,0.247,0.669,0.596,0.907c0.348,0.238,0.76,0.356,1.235,0.356
		c0.497,0,0.894-0.086,1.191-0.259c0.297-0.173,0.445-0.413,0.445-0.721c0-0.297-0.123-0.516-0.369-0.656
		c-0.246-0.14-0.733-0.27-1.462-0.388c-1.081-0.182-1.852-0.478-2.313-0.885c-0.461-0.408-0.692-0.937-0.692-1.585
		c0-0.654,0.251-1.201,0.753-1.642c0.502-0.44,1.164-0.661,1.985-0.661c0.74,0,1.377,0.152,1.912,0.457v-0.335h1.369v2.601h-1.369
		v-0.478c-0.416-0.643-1.021-0.964-1.815-0.964c-0.405,0-0.739,0.088-1,0.264c-0.262,0.175-0.393,0.409-0.393,0.701
		c0,0.297,0.12,0.501,0.361,0.611c0.24,0.111,0.757,0.228,1.551,0.352c0.762,0.119,1.337,0.257,1.726,0.417
		c0.389,0.16,0.711,0.424,0.968,0.794c0.257,0.37,0.385,0.801,0.385,1.292c0,0.729-0.28,1.309-0.839,1.738
		c-0.559,0.43-1.284,0.644-2.175,0.644c-0.837,0-1.521-0.19-2.05-0.57v0.441H210.273z"/>
	<path d="M226.086,74.345h-6.594c0.097,0.724,0.383,1.31,0.859,1.758c0.475,0.448,1.083,0.672,1.823,0.672
		c1.074,0,1.925-0.432,2.552-1.296l1.361,0.6c-0.443,0.686-1.018,1.195-1.726,1.527s-1.447,0.499-2.22,0.499
		c-1.199,0-2.224-0.374-3.074-1.122s-1.276-1.757-1.276-3.026c0-1.204,0.414-2.195,1.243-2.973s1.781-1.167,2.856-1.167
		c1.053,0,2.008,0.379,2.864,1.138S226.054,72.844,226.086,74.345z M224.499,73.228c-0.108-0.551-0.394-1.049-0.859-1.495
		c-0.464-0.446-1.034-0.668-1.709-0.668c-0.616,0-1.143,0.201-1.58,0.604c-0.438,0.402-0.705,0.922-0.802,1.56H224.499z"/>
	<path d="M227.205,71.405v-1.369h1.021v-1.207l1.539-1.41v2.617h1.45v1.369h-1.45v3.808c0,0.61,0.034,0.987,0.102,1.13
		c0.067,0.143,0.236,0.215,0.506,0.215c0.286,0,0.567-0.054,0.842-0.162v1.401c-0.394,0.141-0.789,0.21-1.183,0.21
		c-0.47,0-0.851-0.104-1.142-0.312c-0.292-0.208-0.476-0.469-0.551-0.782c-0.076-0.313-0.113-0.854-0.113-1.621v-3.888H227.205z"/>
	<path d="M232.211,71.405v-1.369h1.021v-1.207l1.539-1.41v2.617h1.45v1.369h-1.45v3.808c0,0.61,0.034,0.987,0.102,1.13
		c0.067,0.143,0.236,0.215,0.506,0.215c0.286,0,0.567-0.054,0.842-0.162v1.401c-0.394,0.141-0.789,0.21-1.183,0.21
		c-0.47,0-0.851-0.104-1.142-0.312c-0.292-0.208-0.476-0.469-0.551-0.782c-0.076-0.313-0.113-0.854-0.113-1.621v-3.888H232.211z"/>
	<path d="M238.473,76.508v-5.104h-1.215v-1.369h2.754v6.473h1.215v1.369h-3.969v-1.369H238.473z M238.254,67.37
		c0-0.248,0.088-0.464,0.264-0.648c0.175-0.184,0.398-0.275,0.668-0.275c0.254,0,0.473,0.089,0.656,0.268s0.275,0.396,0.275,0.656
		s-0.092,0.479-0.275,0.661c-0.184,0.181-0.402,0.271-0.656,0.271c-0.259,0-0.479-0.092-0.66-0.275S238.254,67.624,238.254,67.37z"
		/>
	<path d="M244.921,70.036v0.948c0.988-0.713,1.89-1.069,2.706-1.069c0.507,0,0.927,0.12,1.26,0.36
		c0.332,0.241,0.549,0.535,0.652,0.883c0.103,0.348,0.154,0.857,0.154,1.527v3.824h1.321v1.369h-2.86V72.75
		c0-0.594-0.089-0.981-0.267-1.163c-0.178-0.181-0.397-0.271-0.656-0.271c-0.681,0-1.45,0.332-2.309,0.997v4.196h1.353v1.369h-4.269
		v-1.369h1.377v-5.104h-1.377v-1.369H244.921z"/>
	<path d="M261.253,70.036v1.369h-1.41v5.841c0,0.789-0.041,1.373-0.122,1.754s-0.277,0.77-0.587,1.167s-0.776,0.73-1.397,1
		s-1.315,0.405-2.082,0.405c-1.156,0-2.188-0.349-3.095-1.045l1.004-1.118c0.681,0.529,1.42,0.794,2.22,0.794
		c0.443,0,0.854-0.085,1.231-0.255s0.66-0.376,0.847-0.62c0.186-0.243,0.306-0.474,0.36-0.693c0.054-0.219,0.081-0.587,0.081-1.105
		v-0.713c-0.243,0.308-0.624,0.599-1.143,0.875c-0.518,0.276-1.085,0.414-1.701,0.414c-1.123,0-2.039-0.389-2.746-1.167
		c-0.708-0.777-1.061-1.733-1.061-2.868c0-1.242,0.39-2.245,1.17-3.009s1.684-1.146,2.71-1.146c1.037,0,1.96,0.413,2.771,1.239
		v-1.118H261.253z M253.29,74.038c0,0.794,0.231,1.442,0.692,1.944c0.462,0.502,1.052,0.753,1.771,0.753
		c0.702,0,1.307-0.252,1.814-0.758c0.508-0.505,0.762-1.154,0.762-1.948c0-0.805-0.254-1.451-0.762-1.94s-1.096-0.733-1.766-0.733
		c-0.669,0-1.255,0.242-1.758,0.725S253.29,73.217,253.29,74.038z"/>
	<path d="M262.12,77.877v-2.689h1.377v0.259c0.049,0.367,0.247,0.669,0.596,0.907c0.348,0.238,0.76,0.356,1.235,0.356
		c0.497,0,0.894-0.086,1.191-0.259c0.297-0.173,0.445-0.413,0.445-0.721c0-0.297-0.123-0.516-0.369-0.656
		c-0.246-0.14-0.733-0.27-1.462-0.388c-1.081-0.182-1.852-0.478-2.313-0.885c-0.461-0.408-0.692-0.937-0.692-1.585
		c0-0.654,0.251-1.201,0.753-1.642c0.502-0.44,1.164-0.661,1.985-0.661c0.74,0,1.377,0.152,1.912,0.457v-0.335h1.369v2.601h-1.369
		v-0.478c-0.416-0.643-1.021-0.964-1.815-0.964c-0.405,0-0.739,0.088-1,0.264c-0.262,0.175-0.393,0.409-0.393,0.701
		c0,0.297,0.12,0.501,0.361,0.611c0.24,0.111,0.757,0.228,1.551,0.352c0.762,0.119,1.337,0.257,1.726,0.417
		c0.389,0.16,0.711,0.424,0.968,0.794c0.257,0.37,0.385,0.801,0.385,1.292c0,0.729-0.28,1.309-0.839,1.738
		c-0.559,0.43-1.284,0.644-2.175,0.644c-0.837,0-1.521-0.19-2.05-0.57v0.441H262.12z"/>
	<path d="M273.624,77.877v-1.369h1.394v-8.53h-1.394v-1.369h2.9v4.537c0.772-0.886,1.72-1.329,2.843-1.329
		c1.08,0,1.986,0.371,2.718,1.114s1.098,1.722,1.098,2.937c0,1.167-0.357,2.148-1.073,2.945c-0.716,0.797-1.632,1.195-2.75,1.195
		c-0.626,0-1.199-0.135-1.717-0.405s-0.891-0.57-1.118-0.899v1.175H273.624z M276.573,73.973c0,0.815,0.25,1.462,0.75,1.94
		s1.076,0.717,1.729,0.717c0.686,0,1.277-0.254,1.774-0.762c0.497-0.507,0.746-1.188,0.746-2.042c0-0.826-0.247-1.467-0.741-1.924
		c-0.494-0.456-1.074-0.685-1.738-0.685c-0.654,0-1.237,0.236-1.75,0.709S276.573,73.082,276.573,73.973z"/>
	<path d="M287.258,77.74l-2.576-6.335h-1.304v-1.369h3.88v1.369h-0.939l1.693,4.342l1.66-4.342h-1.037v-1.369h3.799v1.369h-1.166
		l-3.881,9.989h-2.6v-1.345h1.531L287.258,77.74z"/>
	<path d="M297.23,71.405v-1.369h1.021v-1.207l1.539-1.41v2.617h1.45v1.369h-1.45v3.808c0,0.61,0.033,0.987,0.101,1.13
		s0.236,0.215,0.507,0.215c0.286,0,0.567-0.054,0.843-0.162v1.401c-0.395,0.141-0.789,0.21-1.184,0.21
		c-0.47,0-0.851-0.104-1.142-0.312c-0.292-0.208-0.476-0.469-0.551-0.782c-0.076-0.313-0.113-0.854-0.113-1.621v-3.888H297.23z"/>
	<path d="M302.366,73.957c0-1.21,0.399-2.202,1.199-2.977c0.799-0.775,1.774-1.163,2.924-1.163c1.129,0,2.099,0.382,2.909,1.146
		c0.81,0.764,1.215,1.762,1.215,2.993s-0.404,2.23-1.211,2.998c-0.808,0.767-1.778,1.15-2.913,1.15
		c-1.166,0-2.146-0.389-2.937-1.167C302.762,76.16,302.366,75.167,302.366,73.957z M303.994,73.953c0,0.774,0.242,1.408,0.726,1.903
		s1.073,0.742,1.77,0.742c0.708,0,1.301-0.25,1.778-0.75c0.479-0.5,0.718-1.131,0.718-1.895c0-0.769-0.243-1.402-0.729-1.899
		c-0.486-0.498-1.075-0.746-1.767-0.746c-0.724,0-1.32,0.254-1.79,0.762S303.994,73.206,303.994,73.953z"/>
	<path d="M320.424,76.508v1.369h-2.893v-0.899c-0.901,0.686-1.766,1.029-2.592,1.029c-0.524,0-0.958-0.115-1.301-0.344
		s-0.571-0.526-0.685-0.891c-0.113-0.364-0.17-0.952-0.17-1.762v-3.605h-1.109v-1.369h2.648v4.78c0,0.578,0.017,0.967,0.049,1.167
		s0.127,0.364,0.283,0.494c0.157,0.129,0.354,0.194,0.592,0.194c0.713,0,1.475-0.34,2.284-1.021v-4.245h-1.385v-1.369h2.924v6.473
		H320.424z"/>
	<path d="M328.606,70.036V73h-1.378c-0.07-0.567-0.301-1.001-0.692-1.304c-0.392-0.302-0.847-0.454-1.365-0.454
		c-0.691,0-1.253,0.244-1.685,0.733c-0.433,0.489-0.648,1.13-0.648,1.924c0,0.74,0.205,1.392,0.616,1.957
		c0.41,0.564,1.004,0.846,1.782,0.846c1.08,0,1.863-0.513,2.349-1.539l1.272,0.6c-0.702,1.561-1.931,2.341-3.687,2.341
		c-1.242,0-2.22-0.424-2.933-1.272c-0.713-0.848-1.069-1.826-1.069-2.933c0-1.183,0.389-2.159,1.167-2.929
		c0.777-0.77,1.674-1.154,2.689-1.154c0.869,0,1.604,0.256,2.203,0.77v-0.551H328.606z"/>
	<path d="M330.987,76.508v-8.53h-1.418v-1.369h2.957v4.326c0.924-0.745,1.802-1.118,2.633-1.118c0.519,0,0.945,0.108,1.28,0.324
		c0.335,0.216,0.563,0.501,0.685,0.854s0.183,0.871,0.183,1.551v3.961h1.336v1.369h-2.876v-4.796c0-0.594-0.019-0.991-0.057-1.191
		c-0.037-0.2-0.142-0.364-0.312-0.494c-0.17-0.129-0.371-0.194-0.604-0.194c-0.594,0-1.351,0.337-2.269,1.013v4.293h1.361v1.369
		h-4.318v-1.369H330.987z"/>
	<path d="M340.498,76.508v-5.104h-1.215v-1.369h2.754v6.473h1.216v1.369h-3.97v-1.369H340.498z M340.279,67.37
		c0-0.248,0.088-0.464,0.264-0.648c0.175-0.184,0.398-0.275,0.668-0.275c0.254,0,0.473,0.089,0.656,0.268s0.275,0.396,0.275,0.656
		s-0.092,0.479-0.275,0.661c-0.184,0.181-0.402,0.271-0.656,0.271c-0.259,0-0.479-0.092-0.66-0.275S340.279,67.624,340.279,67.37z"
		/>
	<path d="M346.947,70.036v0.948c0.988-0.713,1.89-1.069,2.705-1.069c0.508,0,0.928,0.12,1.26,0.36
		c0.332,0.241,0.55,0.535,0.652,0.883c0.103,0.348,0.154,0.857,0.154,1.527v3.824h1.32v1.369h-2.859V72.75
		c0-0.594-0.09-0.981-0.268-1.163c-0.179-0.181-0.397-0.271-0.656-0.271c-0.681,0-1.45,0.332-2.309,0.997v4.196h1.353v1.369h-4.27
		v-1.369h1.377v-5.104h-1.377v-1.369H346.947z"/>
	<path d="M363.278,70.036v1.369h-1.409v5.841c0,0.789-0.04,1.373-0.121,1.754s-0.277,0.77-0.588,1.167s-0.776,0.73-1.397,1
		s-1.315,0.405-2.082,0.405c-1.155,0-2.188-0.349-3.095-1.045l1.005-1.118c0.681,0.529,1.42,0.794,2.22,0.794
		c0.442,0,0.854-0.085,1.231-0.255s0.66-0.376,0.847-0.62s0.307-0.474,0.36-0.693s0.081-0.587,0.081-1.105v-0.713
		c-0.243,0.308-0.624,0.599-1.143,0.875c-0.519,0.276-1.085,0.414-1.701,0.414c-1.123,0-2.039-0.389-2.746-1.167
		c-0.708-0.777-1.062-1.733-1.062-2.868c0-1.242,0.391-2.245,1.171-3.009s1.684-1.146,2.71-1.146c1.037,0,1.96,0.413,2.771,1.239
		v-1.118H363.278z M355.315,74.038c0,0.794,0.23,1.442,0.692,1.944c0.462,0.502,1.052,0.753,1.771,0.753
		c0.702,0,1.307-0.252,1.814-0.758c0.508-0.505,0.762-1.154,0.762-1.948c0-0.805-0.254-1.451-0.762-1.94s-1.097-0.733-1.766-0.733
		c-0.67,0-1.256,0.242-1.759,0.725C355.566,72.564,355.315,73.217,355.315,74.038z"/>
	<path d="M368.114,71.405v-1.369h1.021v-1.207l1.539-1.41v2.617h1.45v1.369h-1.45v3.808c0,0.61,0.033,0.987,0.101,1.13
		s0.236,0.215,0.507,0.215c0.286,0,0.567-0.054,0.843-0.162v1.401c-0.395,0.141-0.789,0.21-1.184,0.21
		c-0.47,0-0.851-0.104-1.142-0.312c-0.292-0.208-0.476-0.469-0.551-0.782c-0.076-0.313-0.113-0.854-0.113-1.621v-3.888H368.114z"/>
	<path d="M374.377,76.508v-8.53h-1.418v-1.369h2.957v4.326c0.924-0.745,1.802-1.118,2.633-1.118c0.519,0,0.945,0.108,1.28,0.324
		c0.335,0.216,0.563,0.501,0.685,0.854s0.183,0.871,0.183,1.551v3.961h1.336v1.369h-2.876v-4.796c0-0.594-0.019-0.991-0.057-1.191
		c-0.037-0.2-0.142-0.364-0.312-0.494c-0.17-0.129-0.371-0.194-0.604-0.194c-0.594,0-1.351,0.337-2.269,1.013v4.293h1.361v1.369
		h-4.318v-1.369H374.377z"/>
	<path d="M391.024,74.345h-6.594c0.097,0.724,0.384,1.31,0.858,1.758c0.476,0.448,1.083,0.672,1.823,0.672
		c1.074,0,1.925-0.432,2.552-1.296l1.36,0.6c-0.442,0.686-1.018,1.195-1.725,1.527c-0.708,0.332-1.448,0.499-2.22,0.499
		c-1.199,0-2.225-0.374-3.075-1.122s-1.275-1.757-1.275-3.026c0-1.204,0.414-2.195,1.243-2.973s1.781-1.167,2.855-1.167
		c1.054,0,2.008,0.379,2.864,1.138C390.548,71.714,390.992,72.844,391.024,74.345z M389.438,73.228
		c-0.108-0.551-0.395-1.049-0.859-1.495c-0.464-0.446-1.034-0.668-1.709-0.668c-0.616,0-1.143,0.201-1.58,0.604
		s-0.704,0.922-0.802,1.56H389.438z"/>
	<path d="M392.321,77.877v-2.689h1.377v0.259c0.049,0.367,0.247,0.669,0.596,0.907c0.348,0.238,0.76,0.356,1.235,0.356
		c0.497,0,0.894-0.086,1.19-0.259s0.446-0.413,0.446-0.721c0-0.297-0.123-0.516-0.369-0.656c-0.246-0.14-0.733-0.27-1.462-0.388
		c-1.081-0.182-1.852-0.478-2.313-0.885c-0.462-0.408-0.692-0.937-0.692-1.585c0-0.654,0.251-1.201,0.754-1.642
		c0.502-0.44,1.163-0.661,1.984-0.661c0.74,0,1.377,0.152,1.912,0.457v-0.335h1.369v2.601h-1.369v-0.478
		c-0.416-0.643-1.021-0.964-1.814-0.964c-0.405,0-0.739,0.088-1.001,0.264c-0.262,0.175-0.393,0.409-0.393,0.701
		c0,0.297,0.12,0.501,0.36,0.611c0.24,0.111,0.758,0.228,1.552,0.352c0.761,0.119,1.336,0.257,1.726,0.417
		c0.389,0.16,0.711,0.424,0.968,0.794c0.256,0.37,0.385,0.801,0.385,1.292c0,0.729-0.279,1.309-0.839,1.738
		c-0.559,0.43-1.284,0.644-2.175,0.644c-0.837,0-1.521-0.19-2.05-0.57v0.441H392.321z"/>
	<path d="M408.134,74.345h-6.594c0.097,0.724,0.384,1.31,0.858,1.758c0.476,0.448,1.083,0.672,1.823,0.672
		c1.074,0,1.925-0.432,2.552-1.296l1.36,0.6c-0.442,0.686-1.018,1.195-1.725,1.527c-0.708,0.332-1.448,0.499-2.22,0.499
		c-1.199,0-2.225-0.374-3.075-1.122s-1.275-1.757-1.275-3.026c0-1.204,0.414-2.195,1.243-2.973s1.781-1.167,2.855-1.167
		c1.054,0,2.008,0.379,2.864,1.138C407.657,71.714,408.102,72.844,408.134,74.345z M406.547,73.228
		c-0.108-0.551-0.395-1.049-0.859-1.495c-0.464-0.446-1.034-0.668-1.709-0.668c-0.616,0-1.143,0.201-1.58,0.604
		s-0.704,0.922-0.802,1.56H406.547z"/>
	<path d="M413.578,77.877v-2.689h1.377v0.259c0.049,0.367,0.247,0.669,0.596,0.907c0.348,0.238,0.76,0.356,1.235,0.356
		c0.497,0,0.894-0.086,1.19-0.259s0.446-0.413,0.446-0.721c0-0.297-0.123-0.516-0.369-0.656c-0.246-0.14-0.733-0.27-1.462-0.388
		c-1.081-0.182-1.852-0.478-2.313-0.885c-0.462-0.408-0.692-0.937-0.692-1.585c0-0.654,0.251-1.201,0.754-1.642
		c0.502-0.44,1.163-0.661,1.984-0.661c0.74,0,1.377,0.152,1.912,0.457v-0.335h1.369v2.601h-1.369v-0.478
		c-0.416-0.643-1.021-0.964-1.814-0.964c-0.405,0-0.739,0.088-1.001,0.264c-0.262,0.175-0.393,0.409-0.393,0.701
		c0,0.297,0.12,0.501,0.36,0.611c0.24,0.111,0.758,0.228,1.552,0.352c0.761,0.119,1.336,0.257,1.726,0.417
		c0.389,0.16,0.711,0.424,0.968,0.794c0.256,0.37,0.385,0.801,0.385,1.292c0,0.729-0.279,1.309-0.839,1.738
		c-0.559,0.43-1.284,0.644-2.175,0.644c-0.837,0-1.521-0.19-2.05-0.57v0.441H413.578z"/>
	<path d="M422.255,76.508v-8.53h-1.418v-1.369h2.957v4.326c0.924-0.745,1.802-1.118,2.633-1.118c0.519,0,0.945,0.108,1.28,0.324
		c0.335,0.216,0.563,0.501,0.685,0.854s0.183,0.871,0.183,1.551v3.961h1.336v1.369h-2.876v-4.796c0-0.594-0.019-0.991-0.057-1.191
		c-0.037-0.2-0.142-0.364-0.312-0.494c-0.17-0.129-0.371-0.194-0.604-0.194c-0.594,0-1.351,0.337-2.269,1.013v4.293h1.361v1.369
		h-4.318v-1.369H422.255z"/>
	<path d="M438.603,76.508v1.369h-2.69v-0.956c-0.745,0.724-1.576,1.085-2.495,1.085c-0.713,0-1.332-0.232-1.858-0.696
		c-0.527-0.465-0.79-1.059-0.79-1.782c0-0.729,0.279-1.334,0.838-1.815c0.56-0.48,1.233-0.721,2.021-0.721
		c0.734,0,1.444,0.221,2.131,0.664v-0.778c0-0.399-0.038-0.708-0.113-0.923c-0.076-0.216-0.253-0.411-0.531-0.583
		c-0.278-0.172-0.641-0.259-1.089-0.259c-0.772,0-1.332,0.308-1.678,0.924l-1.474-0.389c0.653-1.22,1.782-1.831,3.386-1.831
		c0.589,0,1.098,0.08,1.527,0.239c0.43,0.16,0.749,0.365,0.96,0.616c0.211,0.251,0.353,0.522,0.425,0.814
		c0.073,0.292,0.109,0.756,0.109,1.393v3.629H438.603z M435.759,74.961c-0.664-0.519-1.337-0.778-2.018-0.778
		c-0.427,0-0.783,0.125-1.069,0.373s-0.429,0.57-0.429,0.964c0,0.367,0.125,0.675,0.376,0.923c0.251,0.249,0.593,0.373,1.025,0.373
		c0.745,0,1.45-0.313,2.114-0.94V74.961z"/>
	<path d="M440.36,80.024v-8.62h-1.32v-1.369h2.86v1.231c0.767-0.902,1.695-1.353,2.786-1.353c1.102,0,2.014,0.378,2.734,1.134
		c0.721,0.756,1.081,1.739,1.081,2.949c0,1.269-0.392,2.271-1.174,3.005c-0.783,0.735-1.675,1.102-2.674,1.102
		c-1.037,0-1.955-0.4-2.754-1.199v3.119h1.522v1.369h-4.496v-1.369H440.36z M441.876,74.07c0,0.432,0.089,0.845,0.267,1.24
		c0.179,0.394,0.462,0.725,0.851,0.992c0.39,0.268,0.846,0.401,1.369,0.401c0.734,0,1.341-0.246,1.819-0.737
		c0.478-0.492,0.717-1.167,0.717-2.025c0-0.837-0.25-1.491-0.749-1.96c-0.5-0.47-1.068-0.705-1.706-0.705
		c-0.68,0-1.278,0.255-1.794,0.766S441.876,73.228,441.876,74.07z"/>
	<path d="M458.077,74.345h-6.594c0.097,0.724,0.384,1.31,0.858,1.758c0.476,0.448,1.083,0.672,1.823,0.672
		c1.074,0,1.925-0.432,2.552-1.296l1.36,0.6c-0.442,0.686-1.018,1.195-1.725,1.527c-0.708,0.332-1.448,0.499-2.22,0.499
		c-1.199,0-2.225-0.374-3.075-1.122s-1.275-1.757-1.275-3.026c0-1.204,0.414-2.195,1.243-2.973s1.781-1.167,2.855-1.167
		c1.054,0,2.008,0.379,2.864,1.138C457.601,71.714,458.045,72.844,458.077,74.345z M456.49,73.228
		c-0.108-0.551-0.395-1.049-0.859-1.495c-0.464-0.446-1.034-0.668-1.709-0.668c-0.616,0-1.143,0.201-1.58,0.604
		s-0.704,0.922-0.802,1.56H456.49z"/>
	<path d="M459.374,77.877v-2.689h1.377v0.259c0.049,0.367,0.247,0.669,0.596,0.907c0.348,0.238,0.76,0.356,1.235,0.356
		c0.497,0,0.894-0.086,1.19-0.259s0.446-0.413,0.446-0.721c0-0.297-0.123-0.516-0.369-0.656c-0.246-0.14-0.733-0.27-1.462-0.388
		c-1.081-0.182-1.852-0.478-2.313-0.885c-0.462-0.408-0.692-0.937-0.692-1.585c0-0.654,0.251-1.201,0.754-1.642
		c0.502-0.44,1.163-0.661,1.984-0.661c0.74,0,1.377,0.152,1.912,0.457v-0.335h1.369v2.601h-1.369v-0.478
		c-0.416-0.643-1.021-0.964-1.814-0.964c-0.405,0-0.739,0.088-1.001,0.264c-0.262,0.175-0.393,0.409-0.393,0.701
		c0,0.297,0.12,0.501,0.36,0.611c0.24,0.111,0.758,0.228,1.552,0.352c0.761,0.119,1.336,0.257,1.726,0.417
		c0.389,0.16,0.711,0.424,0.968,0.794c0.256,0.37,0.385,0.801,0.385,1.292c0,0.729-0.279,1.309-0.839,1.738
		c-0.559,0.43-1.284,0.644-2.175,0.644c-0.837,0-1.521-0.19-2.05-0.57v0.441H459.374z"/>
	<path d="M467.718,77.877v-1.993h1.993v1.993H467.718z"/>
</g>
<g>
	<path d="M102.765,56.354V30.588h-4.323V26.29h12.278c3.607,0,6.308,0.256,8.103,0.766s3.298,1.667,4.509,3.471
		s1.815,3.932,1.815,6.386c0,1.96-0.399,3.718-1.198,5.274c-0.799,1.556-1.787,2.705-2.964,3.446
		c-1.178,0.741-2.503,1.239-3.977,1.494c-1.474,0.256-3.702,0.383-6.682,0.383h-2.372v8.844h4.446v4.298H98.441v-4.298H102.765z
		 M107.953,43.36h2.964c3.376,0,5.714-0.482,7.016-1.445c1.301-0.963,1.952-2.664,1.952-5.101c0-1.548-0.346-2.833-1.038-3.854
		c-0.692-1.021-1.548-1.671-2.569-1.951c-1.021-0.28-2.726-0.42-5.113-0.42h-3.211V43.36z"/>
	<path d="M146.603,48.572h-12.38l-2.629,7.782h4.175v4.298h-13.537v-4.298h4.158l9.382-26.186h-4.152V26.29h17.564v3.878h-4.295
		l9.616,26.186h3.844v4.298h-13.463v-4.298h4.274L146.603,48.572z M145.307,44.545l-4.573-14.377h-0.47l-4.76,14.377H145.307z"/>
	<path d="M163.313,56.354V30.588h-4.719V26.29h13.958c2.915,0,5.229,0.227,6.942,0.68s3.129,1.408,4.249,2.865
		c1.12,1.458,1.68,3.273,1.68,5.446c0,4.545-2.361,7.402-7.083,8.572l6.07,12.501h4.2v4.298h-7.443l-7.824-16.057h-4.842v11.759
		h4.397v4.298h-14.304v-4.298H163.313z M168.501,40.296h4.051c1.96,0,3.405-0.127,4.335-0.383c0.931-0.255,1.692-0.774,2.285-1.556
		c0.593-0.782,0.89-1.832,0.89-3.15c0-1.12-0.301-2.066-0.902-2.841c-0.602-0.774-1.342-1.264-2.223-1.47
		c-0.881-0.206-2.228-0.309-4.039-0.309h-4.397V40.296z"/>
	<path d="M194.341,56.354V30.588h-4.447V26.29h28.558v10.351h-4.249v-6.053h-14.674v10.228H212.3v4.298h-12.772v11.24h14.674v-6.25
		h4.249v10.548h-28.558v-4.298H194.341z"/>
	<path d="M225.294,56.354V30.588h-4.916V26.29h11.73L247.182,53V30.588h-4.867V26.29h14.106v4.298h-5.064v30.41h-5.325
		l-16.488-29.329v24.685h4.916v4.298h-14.081v-4.298H225.294z"/>
	<path d="M268.451,56.354V30.588h-7.09v8.77h-4.249V26.29h27.841v13.068h-4.249v-8.77h-7.065v25.766h4.471v4.298h-14.056v-4.298
		H268.451z"/>
	<path d="M287.275,60.652V48.177h4.299v3.039c2.059,3.738,4.751,5.607,8.078,5.607c1.695,0,3.129-0.519,4.298-1.556
		s1.754-2.396,1.754-4.076c0-1.63-0.478-2.804-1.433-3.521c-0.955-0.716-2.759-1.428-5.41-2.137c-3.08-0.823-5.36-1.602-6.843-2.334
		c-1.482-0.732-2.664-1.779-3.545-3.137c-0.881-1.359-1.321-2.968-1.321-4.83c0-2.882,0.959-5.184,2.878-6.905
		c1.918-1.721,4.326-2.582,7.226-2.582c2.75,0,5.303,0.89,7.658,2.668v-2.297h4.199v10.425h-4.199v-2.396
		c-1.763-2.651-4.191-3.978-7.288-3.978c-1.877,0-3.318,0.433-4.323,1.297c-1.004,0.865-1.507,1.898-1.507,3.101
		c0,0.922,0.256,1.733,0.766,2.433c0.511,0.7,1.161,1.215,1.952,1.544c0.79,0.33,2.347,0.79,4.67,1.381
		c3.03,0.788,5.229,1.524,6.596,2.208s2.544,1.824,3.532,3.422c0.987,1.598,1.481,3.435,1.481,5.51c0,2.933-1.033,5.354-3.1,7.265
		c-2.067,1.911-4.624,2.866-7.671,2.866c-3.129,0-5.945-1.128-8.448-3.384v2.841H287.275z"/>
	<path d="M327.542,43.311c0-4.99,1.631-9.165,4.892-12.525c3.261-3.359,7.51-5.04,12.747-5.04c5.286,0,9.593,1.68,12.92,5.04
		c3.326,3.36,4.99,7.568,4.99,12.624c0,5.155-1.692,9.408-5.077,12.759c-3.384,3.352-7.687,5.027-12.907,5.027
		c-3.327,0-6.386-0.794-9.178-2.384c-2.791-1.589-4.887-3.804-6.287-6.646C328.242,49.326,327.542,46.374,327.542,43.311z
		 M333.199,43.335c0,3.771,1.104,6.934,3.311,9.486c2.207,2.553,5.105,3.829,8.695,3.829c3.558,0,6.48-1.305,8.77-3.916
		c2.289-2.61,3.435-5.727,3.435-9.35c0-3.656-1.166-6.748-3.496-9.276c-2.33-2.528-5.258-3.792-8.782-3.792
		c-3.508,0-6.373,1.244-8.597,3.73C334.311,36.534,333.199,39.629,333.199,43.335z"/>
	<path d="M370.749,56.354V30.588h-4.916V26.29h11.729L392.637,53V30.588h-4.867V26.29h14.105v4.298h-5.063v30.41h-5.325
		l-16.488-29.329v24.685h4.916v4.298h-14.081v-4.298H370.749z"/>
	<path d="M407.138,56.354V30.588h-4.446V26.29h14.056v4.298h-4.224v25.766h10.523V44.669h4.842v15.983h-25.197v-4.298H407.138z"/>
	<path d="M438.437,56.354V45.015l-10.228-14.427h-4.199V26.29h14.13v4.298h-4.328l7.59,10.623l6.932-10.623h-4.313V26.29h13.686
		v4.298h-4.545l-9.536,14.427v11.339h4.693v4.298h-14.501v-4.298H438.437z"/>
	<path d="M461.56,60.652v-6.077h6.077v6.077H461.56z M465.833,51.339h-2.52l-1.235-14.6V26.29h4.99v10.45L465.833,51.339z"/>
</g>
</svg>
