<?xml version="1.0" encoding="utf-8"?>
<!-- Generator: Adobe Illustrator 15.0.0, SVG Export Plug-In . SVG Version: 6.00 Build 0)  -->
<!DOCTYPE svg PUBLIC "-//W3C//DTD SVG 1.1//EN" "http://www.w3.org/Graphics/SVG/1.1/DTD/svg11.dtd">
<svg version="1.1" id="Layer_1" xmlns="http://www.w3.org/2000/svg" xmlns:xlink="http://www.w3.org/1999/xlink" x="0px" y="0px"
	 width="249px" height="292px" viewBox="0 0 249 292" enable-background="new 0 0 249 292" xml:space="preserve">
<g>
	<path fill="#D6D6D7" d="M122.154,265.46c-38.477,0-69.666,2.927-69.666,6.538c0,3.613,31.189,6.54,69.666,6.54
		c38.479,0,69.668-2.927,69.668-6.54C191.822,268.387,160.633,265.46,122.154,265.46"/>
	<polygon fill="#231F20" points="212.014,169.726 238.304,266.179 220.023,266.179 206.194,170.943 	"/>
	<polygon fill="#231F20" points="38.362,170.943 22.006,266.179 8.781,266.179 32.544,169.726 	"/>
	<path fill="#F5F5F5" d="M72.698,17.58l-0.739-0.63l-0.162-0.14h0.013l0.028-0.01c8.121-0.01,16.221,0.1,24.329,0.38
		c8.222,0.261,16.44,0.711,24.66,1.151c8.222,0.428,16.44,0.898,24.66,1.189c5.671,0.21,11.341,0.34,17.021,0.411
		c-0.16,0.18-0.3,0.36-0.44,0.54c-1.66,2.19-3.121,4.658-4.122,7.358c-1.019,2.681-1.548,5.571-1.609,8.382
		c-0.05,2.818,0.341,5.549,1.011,8.1c0.661,2.56,1.619,4.94,2.679,7.2c2.162,4.52,4.862,8.529,7.721,12.319l-0.058,0.04
		c5.559,8.96,11.988,17.122,18.448,25.17l4.9,6c0.811,0.981,1.689,2.02,2.36,2.911c0.73,0.961,1.419,1.939,2.07,2.951
		c2.6,4.04,4.479,8.5,5.67,13.2c1.209,4.698,1.738,9.608,1.94,14.619c0.088,2.51,0.12,5.041,0.12,7.591
		c-0.01,2.51-0.131,4.96-0.351,7.431c-0.229,2.468-0.57,4.929-1.021,7.358c-0.461,2.44-1.031,4.851-1.71,7.23
		c-1.349,4.761-3.151,9.391-5.36,13.811c-4.42,8.84-10.449,16.839-17.68,23.519c-7.219,6.69-15.65,12.051-24.74,15.69
		c-9.08,3.651-18.811,5.611-28.561,5.791c-9.788,0.21-19.509-1.311-28.659-4.53c-9.13-3.211-17.649-8.101-25.021-14.321
		c-7.368-6.21-13.59-13.75-18.26-22.12c-2.34-4.18-4.301-8.569-5.84-13.089c-0.78-2.26-1.43-4.56-2.052-6.86
		c-0.608-2.31-1.159-4.64-1.597-6.99c-0.451-2.35-0.781-4.72-1.012-7.11c-0.121-1.199-0.21-2.39-0.27-3.589
		c-0.03-0.601-0.051-1.211-0.07-1.812l-0.038-1.88c-0.103-5.048-0.112-9.938,0.448-14.659c0.551-4.72,1.64-9.271,3.451-13.52
		c0.898-2.12,1.99-4.17,3.249-6.13c0.62-0.98,1.299-1.939,2.01-2.87l2.351-3.041c3.15-4.09,6.299-8.199,9.39-12.369
		c3.108-4.16,6.159-8.399,9.04-12.779c2.889-4.39,5.659-8.91,7.949-13.78c1.141-2.44,2.16-4.96,2.971-7.601
		c0.789-2.641,1.35-5.409,1.5-8.26c0.149-2.851-0.16-5.789-1.01-8.569c-0.86-2.781-2.212-5.381-3.891-7.651
		C76.738,21.33,74.778,19.35,72.698,17.58"/>
	<path fill="#882D17" d="M202.436,120.929c-0.66,0.282-1.348,0.535-2.097,0.723c-9.243,2.329-18.245,1.474-27.603,0.813
		c-9.178-0.647-18.439-0.618-27.635-0.604c-18.391,0.03-36.775,0.499-55.164,0.11c-9.555-0.202-19.139-0.628-28.696-0.48
		c-6.431,0.099-13.454,1.317-19.981,0.341c-0.383,4.209-0.39,8.541-0.301,13.007l0.039,1.88c0.02,0.601,0.04,1.211,0.07,1.81
		c0.06,1.2,0.148,2.39,0.27,3.59c0.23,2.39,0.561,4.76,1.011,7.11c0.438,2.35,0.989,4.68,1.599,6.99
		c0.621,2.3,1.27,4.601,2.051,6.86c1.54,4.52,3.5,8.91,5.84,13.09c4.67,8.37,10.891,15.91,18.26,22.12
		c7.37,6.22,15.891,11.11,25.021,14.32c9.15,3.22,18.87,4.74,28.66,4.53c9.749-0.18,19.479-2.14,28.56-5.79
		c9.09-3.64,17.521-9,24.74-15.69c7.23-6.68,13.26-14.68,17.68-23.52c2.21-4.42,4.011-9.05,5.36-13.81
		c0.679-2.38,1.249-4.79,1.71-7.23c0.45-2.43,0.79-4.89,1.021-7.36c0.22-2.47,0.34-4.92,0.35-7.43c0-2.55-0.03-5.08-0.12-7.59
		C202.973,126.09,202.773,123.488,202.436,120.929z"/>
	<path fill="#231F20" d="M167.377,15.26c-0.08,0.24-0.148,0.561-0.179,0.94c-0.03,0.39,0,0.84,0.099,1.271
		c0.102,0.43,0.271,0.829,0.451,1.14c0.18,0.31,0.37,0.54,0.521,0.71c0.31,0.33,0.5,0.439,0.599,0.5l0.092,0.05l0.479,0.11
		c-2.31-0.009-4.619-0.03-6.93-0.049c0.701-0.891,1.451-1.73,2.221-2.541c0.46-0.48,0.93-0.959,1.41-1.41l0.76-0.69l0.68-0.6
		l0.12-0.101C167.618,14.7,167.508,14.9,167.377,15.26z"/>
	<path fill="#231F20" d="M71.269,16.21c0.01,0.03,0.028,0.1,0.04,0.23c0.02,0.229-0.1,0.55-0.19,0.649
		c-0.08,0.11-0.08,0.08,0.01,0.021c0.081-0.05,0.221-0.13,0.399-0.2c0.091-0.04,0.171-0.07,0.27-0.1l0.162,0.14l0.739,0.63
		c2.08,1.77,4.04,3.75,5.72,6.03c1.68,2.27,3.029,4.87,3.891,7.649c0.85,2.78,1.159,5.72,1.01,8.57c-0.15,2.85-0.711,5.62-1.5,8.26
		c-0.811,2.64-1.83,5.16-2.97,7.601c-2.29,4.87-5.062,9.39-7.95,13.78c-2.881,4.379-5.931,8.619-9.04,12.779
		c-3.09,4.17-6.24,8.28-9.391,12.37l-2.35,3.04c-0.71,0.93-1.39,1.89-2.01,2.87c-1.26,1.96-2.351,4.01-3.25,6.13
		c-1.811,4.25-2.899,8.8-3.45,13.52c-0.56,4.72-0.55,9.61-0.449,14.66l0.039,1.88c0.02,0.601,0.04,1.211,0.07,1.81
		c0.06,1.2,0.148,2.39,0.27,3.59c0.23,2.39,0.561,4.76,1.011,7.11c0.438,2.35,0.989,4.68,1.599,6.99
		c0.621,2.3,1.27,4.601,2.051,6.86c1.54,4.52,3.5,8.91,5.84,13.09c4.67,8.37,10.891,15.91,18.26,22.12
		c7.37,6.22,15.891,11.11,25.021,14.32c9.15,3.22,18.87,4.74,28.66,4.53c9.749-0.18,19.479-2.14,28.56-5.79
		c9.09-3.64,17.521-9,24.74-15.69c7.23-6.68,13.26-14.68,17.68-23.52c2.21-4.42,4.011-9.05,5.36-13.81
		c0.679-2.38,1.249-4.79,1.71-7.23c0.45-2.43,0.79-4.89,1.021-7.36c0.22-2.47,0.34-4.92,0.35-7.43c0-2.55-0.03-5.08-0.12-7.59
		c-0.201-5.01-0.729-9.92-1.939-14.62c-1.191-4.7-3.07-9.16-5.671-13.2c-0.649-1.01-1.34-1.99-2.069-2.95
		c-0.67-0.89-1.55-1.93-2.36-2.91l-4.899-6c-6.461-8.05-12.891-16.21-18.45-25.17l0.06-0.04c-2.859-3.79-5.56-7.8-7.721-12.32
		c-1.06-2.26-2.02-4.64-2.679-7.2c-0.671-2.55-1.062-5.28-1.011-8.1c0.061-2.81,0.59-5.7,1.609-8.38c1-2.7,2.461-5.17,4.121-7.359
		c0.141-0.181,0.28-0.36,0.439-0.54c2.311,0.02,4.62,0.04,6.93,0.049l-0.479-0.11l-0.092-0.05c-0.099-0.061-0.289-0.17-0.599-0.5
		c-0.15-0.17-0.341-0.4-0.521-0.71c-0.18-0.311-0.35-0.71-0.451-1.14c-0.099-0.431-0.129-0.881-0.099-1.271
		c0.03-0.38,0.099-0.7,0.179-0.94c0.131-0.359,0.241-0.56,0.321-0.67l-0.12,0.101l-0.68,0.6l-0.76,0.69
		c-0.48,0.451-0.95,0.93-1.41,1.41c-0.77,0.81-1.52,1.65-2.221,2.541c-5.68-0.07-11.35-0.201-17.02-0.411
		c-8.22-0.29-16.44-0.76-24.66-1.19c-8.221-0.44-16.439-0.89-24.66-1.15c-8.109-0.28-16.209-0.39-24.33-0.38l0.18-0.06l-0.27,0.03
		l-0.24-0.25C71.389,16.38,71.297,16.26,71.269,16.21z M209.358,128.471c0.109,2.64,0.13,5.249,0.13,7.839
		c0,2.65-0.1,5.34-0.32,7.99c-0.459,5.32-1.381,10.601-2.76,15.77c-1.381,5.161-3.24,10.201-5.52,15.041
		c-4.561,9.689-10.91,18.55-18.641,26.02c-7.71,7.47-16.801,13.561-26.71,17.86c-9.899,4.31-20.62,6.79-31.45,7.29
		c-10.779,0.54-21.77-0.83-32.15-4.17c-10.379-3.32-20.169-8.57-28.729-15.391c-8.57-6.819-15.912-15.21-21.551-24.66
		c-2.82-4.72-5.221-9.71-7.141-14.88c-0.939-2.6-1.809-5.22-2.47-7.9c-0.671-2.68-1.171-5.39-1.56-8.12
		c-0.38-2.729-0.63-5.47-0.771-8.22c-0.059-1.371-0.099-2.74-0.109-4.12c0-0.68,0.011-1.37,0.021-2.05l0.05-1.98
		c0.131-5.24,0.461-10.67,1.41-16.14c0.939-5.45,2.57-10.95,5.141-16.021c1.27-2.54,2.76-4.97,4.43-7.25
		c0.83-1.13,1.719-2.229,2.629-3.29l2.562-2.92c6.759-7.729,13.479-15.46,19.489-23.57c2.98-4.07,5.76-8.25,8.051-12.61
		c2.279-4.34,4.02-8.93,4.39-13.51c0.169-2.28-0.01-4.54-0.62-6.7s-1.641-4.211-2.98-6.1c-1.35-1.89-2.989-3.63-4.819-5.2
		l-0.73-0.62c-0.341-0.3-0.62-0.57-0.93-0.92c-0.31-0.34-0.62-0.73-0.911-1.25c-0.279-0.5-0.559-1.181-0.589-2.05
		c-0.05-0.87,0.27-1.84,0.72-2.46c0.459-0.64,0.949-1.03,1.41-1.33c0.459-0.3,0.889-0.5,1.311-0.67c0.21-0.09,0.42-0.16,0.63-0.23
		l0.329-0.09c0.119-0.03,0.189-0.05,0.391-0.101l0.24-0.05h0.27c8.23,0.01,16.449-0.11,24.67-0.38s16.439-0.71,24.66-1.15
		c8.22-0.44,16.44-0.9,24.66-1.19c8.221-0.3,16.439-0.46,24.66-0.48h0.648l0.842,0.2l0.22,0.06l0.39,0.11
		c0.26,0.08,0.51,0.17,0.77,0.271c0.51,0.2,1.051,0.439,1.641,0.79c0.59,0.35,1.25,0.8,1.96,1.56c0.36,0.38,0.72,0.83,1.04,1.4
		c0.33,0.56,0.61,1.229,0.77,1.939c0.17,0.71,0.221,1.46,0.17,2.131c-0.05,0.669-0.18,1.279-0.35,1.789
		c-0.34,1.03-0.78,1.73-1.18,2.3c-0.811,1.1-1.541,1.73-2.21,2.3l-0.649,0.52l-0.541,0.46c-0.381,0.32-0.75,0.64-1.109,0.97
		c-0.73,0.661-1.391,1.35-2.021,2.05c-2.521,2.81-4.14,5.91-4.649,9.52c-0.551,3.61,0.079,7.689,1.34,11.78
		c1.27,4.09,3.12,8.19,5.199,12.21l0.061-0.04c2.74,4.22,5.75,8.3,8.879,12.32c3.121,4.03,6.342,8.01,9.601,11.96l4.891,5.95
		c0.83,1.009,1.62,1.93,2.5,3.09c0.84,1.08,1.63,2.2,2.38,3.359c2.99,4.61,5.17,9.75,6.5,15.03
		C208.588,117.82,209.148,123.2,209.358,128.471z"/>
	<polygon fill="#231F20" points="72.018,16.74 71.838,16.8 71.787,16.8 71.748,16.77 	"/>
	<polygon fill="#231F20" points="71.838,16.8 71.809,16.81 71.797,16.81 71.787,16.8 	"/>
	<path fill="#231F20" d="M71.787,16.8c-0.089,0-0.169,0-0.26,0l0.221-0.03L71.787,16.8z"/>
	<path fill="#231F20" d="M71.118,17.09c0.091-0.1,0.21-0.42,0.19-0.649c-0.012-0.13-0.03-0.2-0.04-0.23
		c0.028,0.05,0.12,0.17,0.239,0.31l0.24,0.25l-0.221,0.03c0.091,0,0.171,0,0.26,0l0.01,0.01c-0.099,0.03-0.179,0.06-0.27,0.1
		c-0.179,0.07-0.318,0.15-0.399,0.2C71.038,17.17,71.038,17.2,71.118,17.09z"/>
	<path fill="#6B2415" d="M203.072,121.646c0,4.776-36.226,8.647-80.918,8.647c-44.689,0-80.916-3.871-80.916-8.647
		s36.227-8.648,80.916-8.648C166.847,112.998,203.072,116.869,203.072,121.646"/>
	<path fill="#882D17" d="M108.807,121.445c0-14.377-11.656-26.031-26.029-26.031c-14.381,0-26.037,11.654-26.037,26.031
		C74.946,128.005,99.07,125.451,108.807,121.445"/>
	<path fill="#882D17" d="M155.532,117.85c0-6.59-5.343-11.931-11.931-11.931c-6.592,0-11.935,5.34-11.935,11.931
		C140.013,120.858,151.07,119.686,155.532,117.85"/>
	<path fill="#A05745" d="M142.535,107.818c-0.791,0-1.586,0.145-2.351,0.416c-1.091,0.389-2.106,1.055-2.911,1.914
		c-0.171,0.181-0.332,0.371-0.484,0.567c0.422,0.354,0.824,0.73,1.207,1.125c0.158-0.19,0.32-0.375,0.488-0.553
		c0.668-0.707,1.424-1.329,2.267-1.872c0.847-0.552,1.786-1.011,2.797-1.515C143.213,107.845,142.875,107.818,142.535,107.818"/>
	<path fill="#A05745" d="M80.447,99.559c-1.727,0-3.46,0.315-5.123,0.908c-2.384,0.847-4.598,2.298-6.352,4.171
		c-1.768,1.872-3.064,4.142-3.825,6.524c-0.739,2.386-1.045,4.914-0.534,7.345c0.982-2.242,1.996-4.28,3.139-6.188
		c1.139-1.906,2.404-3.646,3.861-5.195c1.457-1.543,3.105-2.901,4.948-4.085c1.844-1.205,3.894-2.202,6.1-3.303
		C81.928,99.617,81.189,99.559,80.447,99.559"/>
	<path fill="#882D17" d="M142.509,122.988c0-8.854-7.181-16.032-16.032-16.032c-8.857,0-16.035,7.179-16.035,16.032
		C121.654,127.03,136.512,125.455,142.509,122.988"/>
	<path fill="#A05745" d="M125.041,109.51c-1.063,0-2.131,0.194-3.154,0.56c-1.468,0.521-2.833,1.415-3.912,2.568
		c-1.089,1.152-1.888,2.55-2.355,4.018c-0.455,1.471-0.645,3.026-0.328,4.523c0.604-1.381,1.229-2.636,1.932-3.811
		c0.702-1.173,1.48-2.244,2.379-3.199c0.897-0.951,1.912-1.786,3.047-2.517c1.138-0.743,2.398-1.357,3.756-2.034
		C125.953,109.545,125.498,109.51,125.041,109.51"/>
	<path fill="#231F20" d="M121.518,179.231c-25.734,0-49.945-1.05-68.172-2.955c-8.951-0.936-16.007-2.031-20.973-3.259
		c-5.091-1.258-9.803-2.952-9.803-6.791c0-3.859,4.385-6.054,16.182-8.1l1.014,5.858c-4.891,0.849-7.764,1.645-9.426,2.241
		c3.085,1.105,10.355,2.898,27.062,4.48c17.58,1.663,40.35,2.58,64.115,2.58c23.769,0,46.538-0.917,64.117-2.58
		c16.738-1.584,24.002-3.382,27.08-4.486c-1.761-0.631-4.896-1.485-10.428-2.402l0.974-5.865
		c12.543,2.081,17.207,4.323,17.207,8.274c0,3.839-4.711,5.533-9.802,6.791c-4.968,1.228-12.023,2.323-20.974,3.259
		C171.465,178.182,147.255,179.231,121.518,179.231z"/>
	<polygon fill="#231F20" points="124.492,176.259 131.069,285.996 111.969,285.996 118.545,176.259 	"/>
</g>
</svg>
