<?xml version="1.0" encoding="utf-8"?>
<!-- Generator: Adobe Illustrator 15.0.0, SVG Export Plug-In . SVG Version: 6.00 Build 0)  -->
<!DOCTYPE svg PUBLIC "-//W3C//DTD SVG 1.1//EN" "http://www.w3.org/Graphics/SVG/1.1/DTD/svg11.dtd">
<svg version="1.1" id="Layer_1" xmlns="http://www.w3.org/2000/svg" xmlns:xlink="http://www.w3.org/1999/xlink" x="0px" y="0px"
	 width="1280px" height="800px" viewBox="0 0 1280 800" enable-background="new 0 0 1280 800" xml:space="preserve">
<g>
	<g>
		<path d="M512.911,376.036c0.456-0.107,1.188-0.18,1.907-0.18c1.044,0,1.715,0.18,2.207,0.588c0.42,0.312,0.684,0.791,0.684,1.427
			c0,0.792-0.527,1.476-1.367,1.775v0.036c0.768,0.18,1.667,0.815,1.667,2.015c0,0.695-0.276,1.235-0.695,1.619
			c-0.552,0.516-1.464,0.756-2.783,0.756c-0.72,0-1.271-0.048-1.619-0.097V376.036z M513.955,379.347h0.947
			c1.092,0,1.739-0.588,1.739-1.367c0-0.936-0.708-1.319-1.763-1.319c-0.48,0-0.756,0.036-0.924,0.072V379.347z M513.955,383.208
			c0.216,0.036,0.504,0.049,0.875,0.049c1.08,0,2.075-0.396,2.075-1.571c0-1.092-0.947-1.56-2.087-1.56h-0.863V383.208z"/>
		<path d="M519.38,380.006c0-0.684-0.013-1.271-0.049-1.811h0.924l0.048,1.151h0.036c0.264-0.779,0.911-1.271,1.619-1.271
			c0.108,0,0.192,0.012,0.288,0.024v0.995c-0.108-0.024-0.216-0.024-0.36-0.024c-0.743,0-1.271,0.552-1.415,1.344
			c-0.023,0.144-0.036,0.323-0.036,0.491V384h-1.055V380.006z"/>
		<path d="M528.437,381.05c0,2.146-1.499,3.082-2.891,3.082c-1.56,0-2.782-1.151-2.782-2.986c0-1.931,1.283-3.07,2.878-3.07
			C527.309,378.075,528.437,379.286,528.437,381.05z M523.843,381.109c0,1.271,0.72,2.231,1.751,2.231
			c1.008,0,1.763-0.948,1.763-2.255c0-0.983-0.491-2.219-1.738-2.219C524.383,378.867,523.843,380.019,523.843,381.109z"/>
		<path d="M530.119,378.195l0.78,2.95c0.155,0.647,0.312,1.247,0.419,1.847h0.036c0.132-0.587,0.324-1.211,0.516-1.835l0.948-2.962
			h0.887l0.9,2.902c0.216,0.695,0.384,1.308,0.516,1.895h0.035c0.097-0.587,0.252-1.199,0.444-1.883l0.827-2.914h1.044L535.601,384
			h-0.96l-0.887-2.771c-0.204-0.647-0.372-1.224-0.516-1.907h-0.024c-0.144,0.696-0.324,1.296-0.527,1.919L531.751,384h-0.96
			l-1.751-5.805H530.119z"/>
		<path d="M538.531,379.767c0-0.612-0.013-1.092-0.049-1.571h0.936l0.061,0.959h0.023c0.288-0.539,0.96-1.079,1.919-1.079
			c0.804,0,2.051,0.479,2.051,2.471V384h-1.055v-3.346c0-0.936-0.349-1.716-1.344-1.716c-0.684,0-1.224,0.492-1.415,1.08
			c-0.048,0.132-0.072,0.312-0.072,0.491V384h-1.055V379.767z"/>
		<path d="M547.638,380.378v0.768h-2.963v-0.768H547.638z"/>
	</g>
	<rect x="-20.166" y="-29.134" fill="#704214" width="1317.621" height="845.742"/>
</g>
</svg>
