<?xml version="1.0" encoding="utf-8"?>
<!-- Generator: Adobe Illustrator 15.0.0, SVG Export Plug-In . SVG Version: 6.00 Build 0)  -->
<!DOCTYPE svg PUBLIC "-//W3C//DTD SVG 1.1//EN" "http://www.w3.org/Graphics/SVG/1.1/DTD/svg11.dtd">
<svg version="1.1" id="Layer_1" xmlns="http://www.w3.org/2000/svg" xmlns:xlink="http://www.w3.org/1999/xlink" x="0px" y="0px"
	 width="1280px" height="800px" viewBox="0 0 1280 800" enable-background="new 0 0 1280 800" xml:space="preserve">
<g>
	<polyline fill="#FFFFFF" points="1280.75,799.999 0.748,799.999 0.748,0 1280.75,0 1280.75,799.999 	"/>
	<g>
		<path fill="#704214" d="M414.286,589.021h-22.925v-32.666h22.925c2.734,8.887,7.885,13.33,15.454,13.33
			c5.468,0,8.203-2.197,8.203-6.592c0-2.295-0.952-4.199-2.856-5.713c-2.051-1.66-6.372-3.955-12.964-6.885
			c-8.302-3.76-14.404-7.007-18.311-9.742c-3.662-2.49-6.787-5.932-9.375-10.326c-2.589-4.346-3.882-9.156-3.882-14.43
			c0-9.472,3.076-16.869,9.229-22.191c6.104-5.322,13.623-7.984,22.559-7.984s16.504,2.54,22.705,7.617v-6.299h23.071v29.004
			h-22.778c-2.783-8.007-7.716-12.012-14.795-12.012c-4.98,0-7.471,2.125-7.471,6.373c0,2.051,0.707,3.588,2.124,4.613
			c1.366,1.075,5.786,3.443,13.257,7.105c10.009,4.98,16.699,8.618,20.068,10.912c1.709,1.124,3.454,2.699,5.236,4.725
			c1.782,2.026,3.26,4.114,4.432,6.262c2.685,4.786,4.028,9.961,4.028,15.527c0,8.546-3.175,15.772-9.521,21.68
			c-6.348,6.006-14.355,9.01-24.023,9.01c-8.984,0-17.114-2.661-24.39-7.984V589.021z"/>
		<path fill="#704214" d="M582.304,589.021h-97.192V564.63h7.91v-53.1h-8.057V487.14h97.339v32.594H555.57v-8.203h-23.145v15.674
			h20.142v20.727h-20.142v16.699h23.145v-8.203h26.733V589.021z"/>
		<path fill="#704214" d="M656.938,589.021h-59.546V564.63h9.888v-53.1h-9.888V487.14h62.476c14.355,0,24.854,1.393,31.494,4.176
			c6.64,2.832,11.523,6.689,14.648,11.572c3.124,4.883,4.688,10.229,4.688,16.039c0,7.178-1.856,13.136-5.566,17.871
			c-3.711,4.786-8.618,8.253-14.722,10.4c-6.006,2.101-15.283,3.15-27.832,3.15h-15.894v14.281h10.254V589.021z M646.684,509.479
			v19.115h7.69c5.371,0,9.276-0.634,11.719-1.904c2.344-1.269,3.516-3.734,3.516-7.396c0-2.393-0.635-4.419-1.904-6.08
			c-1.221-1.611-2.856-2.637-4.907-3.076c-1.953-0.439-5.273-0.658-9.961-0.658H646.684z"/>
		<path fill="#704214" d="M777.641,589.021H719.56V564.63h9.375v-53.1h-9.375V487.14h58.081v24.391h-9.302v53.1h9.302V589.021z"/>
		<path fill="#704214" d="M825.028,589.021h-40.356V564.63h7.764l19.116-53.1h-8.203V487.14h73.242v24.391h-8.203l19.482,53.1h7.471
			v24.391h-53.174v-22.34h8.936l-3.882-12.816h-26.074l-4.468,12.816h8.35V589.021z M834.623,512.995l-9.595,28.197h18.237
			L834.623,512.995z"/>
	</g>
	<path fill="#D6D6D7" d="M641.012,359.039c-33.216,0-60.145,2.598-60.145,5.805c0,3.209,26.929,5.809,60.145,5.809
		c33.221,0,60.145-2.6,60.145-5.809C701.156,361.637,674.232,359.039,641.012,359.039"/>
	<polygon fill="#231F20" points="707.866,296.348 727.812,369.52 713.944,369.52 703.451,297.271 	"/>
	<polygon fill="#231F20" points="576.13,297.271 563.722,369.52 553.688,369.52 571.716,296.348 	"/>
	<path fill="#F5F5F5" d="M700.812,262.818c0.356,3.58,0.213,7.251-0.092,11.008c-0.166,1.881-0.369,3.777-0.592,5.706
		c-0.111,0.954-0.219,1.836-0.364,2.768c-0.134,0.918-0.296,1.836-0.47,2.753c-0.72,3.658-1.766,7.267-3.202,10.737
		c-1.425,3.466-3.229,6.772-5.323,9.885c-1.055,1.554-2.186,3.047-3.376,4.497c-1.208,1.441-2.474,2.821-3.8,4.143
		c-2.65,2.646-5.563,5.029-8.643,7.138c-3.087,2.109-6.342,3.961-9.742,5.485c-3.383,1.547-6.91,2.792-10.514,3.701
		c-7.205,1.829-14.731,2.313-22.104,1.457c-7.406-0.842-14.598-2.974-21.184-6.343c-6.576-3.359-12.531-7.927-17.479-13.396
		c-4.953-5.463-8.906-11.82-11.599-18.655c-1.353-3.422-2.39-6.956-3.097-10.553c-0.354-1.806-0.516-3.633-0.683-5.453
		c-0.151-1.822-0.393-3.635-0.501-5.471c-0.069-0.918-0.113-1.829-0.129-2.754c-0.029-0.92-0.045-1.843-0.037-2.761
		c0.008-0.927,0.047-1.852,0.094-2.778c0.021-0.462,0.043-0.925,0.072-1.387l0.117-1.435c0.293-3.846,0.682-7.594,1.522-11.227
		c0.841-3.62,2.17-7.093,4.134-10.205c0.973-1.562,2.096-3.02,3.338-4.377c0.623-0.682,1.273-1.326,1.951-1.958l2.153-1.971
		c2.884-2.648,5.804-5.259,8.665-7.95c2.868-2.686,5.734-5.395,8.497-8.254c2.768-2.853,5.452-5.842,7.864-9.163
		c1.207-1.662,2.332-3.415,3.309-5.312c0.972-1.896,1.793-3.938,2.3-6.131c0.508-2.19,0.675-4.543,0.37-6.865
		c-0.288-2.314-1.023-4.559-2.047-6.578c-0.562-1.113-1.205-2.168-1.906-3.163l14.611,2.353l18.467,3.02l9.248,1.466l9.248,1.386
		l9.26,1.321l3.555,0.478c-0.117,0.106-0.229,0.212-0.344,0.327c-1.471,1.464-2.824,3.164-3.846,5.072
		c-1.04,1.905-1.753,3.999-2.102,6.094c-0.342,2.1-0.334,4.186-0.115,6.168c0.223,1.986,0.676,3.877,1.229,5.681
		c1.123,3.62,2.702,6.928,4.423,10.09l-0.05,0.022c1.712,3.62,3.496,7.147,5.324,10.652c1.842,3.481,3.725,6.933,5.627,10.362
		l2.878,5.128c0.46,0.842,0.999,1.737,1.362,2.475c0.42,0.796,0.791,1.606,1.148,2.427
		C699.631,255.771,700.463,259.244,700.812,262.818"/>
	<path fill="#704214" d="M700.812,262.818c-0.35-3.574-1.182-7.048-2.57-10.34c-0.357-0.82-0.729-1.631-1.148-2.427
		c-0.363-0.737-0.902-1.633-1.362-2.475l-2.878-5.128c-1.902-3.43-3.785-6.881-5.627-10.362c-1.209-2.319-2.393-4.661-3.553-7.021
		c-1.191,0.416-2.417,0.687-3.576,0.819c-3.981,0.451-7.939,0.007-11.895-0.44c-4.086-0.46-8.169-0.921-12.268-0.395
		c-7.963,1.026-15.941,2.237-23.977,2.526c-7.163,0.257-14.338-0.298-21.491-0.678c-4.298-0.229-8.755-0.427-13.075-1.134
		c-2.039,1.877-4.09,3.735-6.126,5.608l-2.153,1.971c-0.678,0.632-1.328,1.276-1.951,1.958c-1.242,1.357-2.365,2.814-3.338,4.377
		c-1.964,3.112-3.293,6.585-4.134,10.205c-0.841,3.633-1.229,7.381-1.522,11.227l-0.117,1.435c-0.029,0.462-0.052,0.925-0.072,1.387
		c-0.047,0.927-0.086,1.852-0.094,2.778c-0.008,0.918,0.008,1.841,0.037,2.761c0.016,0.925,0.06,1.836,0.129,2.754
		c0.108,1.836,0.35,3.648,0.501,5.471c0.167,1.82,0.329,3.647,0.683,5.453c0.707,3.597,1.744,7.131,3.097,10.553
		c2.692,6.835,6.646,13.192,11.599,18.655c4.947,5.469,10.902,10.036,17.479,13.396c6.586,3.369,13.777,5.501,21.184,6.343
		c7.372,0.856,14.898,0.372,22.104-1.457c3.604-0.909,7.131-2.154,10.514-3.701c3.4-1.524,6.655-3.376,9.742-5.485
		c3.079-2.108,5.992-4.492,8.643-7.138c1.326-1.321,2.592-2.701,3.8-4.143c1.19-1.45,2.321-2.943,3.376-4.497
		c2.094-3.112,3.898-6.419,5.323-9.885c1.437-3.471,2.482-7.079,3.202-10.737c0.174-0.917,0.336-1.835,0.47-2.753
		c0.146-0.932,0.253-1.813,0.364-2.768c0.223-1.929,0.426-3.825,0.592-5.706C701.025,270.069,701.169,266.398,700.812,262.818"/>
	<path fill="#231F20" d="M687.962,188.678l-5.256-0.697c0.626-0.615,1.294-1.184,1.962-1.715c0.402-0.311,0.806-0.623,1.208-0.91
		l0.644-0.439l0.569-0.387l0.061-0.039c-0.066,0.084-0.16,0.213-0.265,0.418c-0.091,0.166-0.175,0.395-0.242,0.682
		c-0.062,0.281-0.084,0.615-0.054,0.949c0.021,0.334,0.107,0.645,0.205,0.895c0.099,0.258,0.213,0.447,0.31,0.592
		c0.197,0.281,0.327,0.379,0.379,0.439l0.053,0.047l0.009,0.008L687.962,188.678z"/>
	<path fill="#231F20" d="M687.173,184.467c0.122-0.09,0.174-0.167,0.075-0.081L687.173,184.467 M615.42,170.532l18.572,2.275
		l18.588,2.224l9.277,1.161l9.277,1.236l9.258,1.312l9.769,1.456l0.586,0.227l0.149,0.067l0.289,0.131
		c0.182,0.09,0.363,0.181,0.545,0.288c0.365,0.205,0.738,0.447,1.146,0.773c0.403,0.325,0.85,0.735,1.299,1.381
		c0.219,0.318,0.438,0.697,0.622,1.159c0.183,0.456,0.317,0.987,0.363,1.533c0.052,0.546,0.007,1.107-0.099,1.608
		c-0.106,0.493-0.271,0.934-0.454,1.297c-0.365,0.729-0.767,1.206-1.13,1.585c-0.732,0.737-1.336,1.132-1.906,1.481l-0.545,0.318
		l-0.457,0.28c-0.326,0.196-0.635,0.401-0.946,0.606c-0.615,0.419-1.199,0.856-1.745,1.321c-2.21,1.843-3.795,4.012-4.553,6.698
		c-0.789,2.67-0.736,5.818-0.213,9.021c0.539,3.207,1.518,6.486,2.67,9.718l0.053-0.022c0.746,1.75,1.588,3.474,2.49,5.174
		c0.457,0.848,0.917,1.691,1.389,2.532c0.478,0.837,0.972,1.669,1.463,2.497c0.979,1.669,1.994,3.322,3.035,4.959
		c1.031,1.64,2.087,3.271,3.147,4.902l3.218,4.886c0.537,0.825,1.053,1.569,1.638,2.548c0.548,0.902,1.062,1.829,1.526,2.778
		c1.879,3.799,3.078,7.981,3.566,12.16c0.5,4.188,0.36,8.367-0.115,12.373c-0.23,2.01-0.541,3.982-0.875,5.925
		c-0.156,0.972-0.361,2.018-0.576,3.005c-0.221,1-0.46,1.994-0.717,2.98c-1.062,3.946-2.467,7.782-4.152,11.479
		c-1.684,3.694-3.655,7.26-5.917,10.629c-1.13,1.685-2.329,3.322-3.604,4.9c-1.258,1.593-2.594,3.126-3.989,4.599
		c-2.808,2.943-5.854,5.649-9.143,8.069c-3.284,2.411-6.804,4.506-10.474,6.281c-3.688,1.768-7.543,3.188-11.488,4.256
		c-7.904,2.133-16.201,2.808-24.365,1.979c-8.125-0.789-16.19-3.026-23.562-6.659c-7.389-3.627-14.111-8.627-19.738-14.65
		c-5.629-6.023-10.176-13.069-13.322-20.717c-1.578-3.824-2.808-7.792-3.674-11.843c-0.426-2.024-0.881-4.052-1.145-6.113
		c-0.271-2.057-0.287-4.143-0.267-6.214c0.031-1.039,0.077-2.07,0.145-3.103c0.083-1.033,0.191-2.055,0.313-3.081
		c0.127-1.023,0.271-2.048,0.451-3.056c0.094-0.51,0.191-1.018,0.291-1.518l0.311-1.466c0.818-3.875,1.768-7.844,3.146-11.714
		c1.367-3.86,3.14-7.639,5.465-11.066c1.158-1.714,2.451-3.34,3.852-4.854c0.701-0.76,1.435-1.481,2.193-2.179l2.163-1.988
		c5.727-5.28,11.394-10.628,16.514-16.347c2.534-2.876,4.954-5.834,6.957-8.951c1.994-3.112,3.61-6.404,4.179-9.684
		c0.273-1.631,0.298-3.229,0.016-4.778c-0.272-1.548-0.834-3.05-1.646-4.476c-0.813-1.427-1.829-2.8-3.009-4.088l-0.494-0.523
		c-0.275-0.312-0.48-0.568-0.73-0.927c-0.242-0.354-0.482-0.749-0.704-1.312c-0.214-0.544-0.427-1.297-0.333-2.267
		c0.045-0.48,0.18-0.988,0.395-1.441c0.208-0.465,0.492-0.859,0.776-1.168c0.588-0.632,1.156-0.958,1.642-1.2
		c0.492-0.234,0.926-0.372,1.335-0.478c0.203-0.055,0.403-0.091,0.608-0.131l0.305-0.043l0.164-0.024l0.229-0.021l0.273-0.024
		L615.42,170.532 M615.862,174.819l0.014,0.029L615.862,174.819 M615.894,174.871c0.036,0.092,0.141,0.35,0.097,0.834
		c-0.014,0.229-0.083,0.503-0.195,0.744c-0.109,0.235-0.251,0.426-0.375,0.56c-0.209,0.23-0.348,0.313-0.408,0.343l-0.555-0.016
		l3.861,0.622c0.701,0.995,1.344,2.05,1.906,3.163c1.023,2.02,1.759,4.264,2.047,6.578c0.305,2.322,0.138,4.675-0.37,6.865
		c-0.507,2.193-1.328,4.234-2.3,6.131c-0.977,1.896-2.102,3.649-3.309,5.312c-2.412,3.321-5.097,6.311-7.864,9.163
		c-2.763,2.859-5.629,5.568-8.497,8.254c-2.861,2.691-5.781,5.302-8.665,7.95l-2.153,1.971c-0.678,0.632-1.328,1.276-1.951,1.958
		c-1.242,1.357-2.365,2.814-3.338,4.377c-1.964,3.112-3.293,6.585-4.134,10.205c-0.841,3.633-1.229,7.381-1.522,11.227l-0.117,1.435
		c-0.029,0.462-0.052,0.925-0.072,1.387c-0.047,0.927-0.086,1.852-0.094,2.778c-0.008,0.918,0.008,1.841,0.037,2.761
		c0.016,0.925,0.06,1.836,0.129,2.754c0.108,1.836,0.35,3.648,0.501,5.471c0.167,1.82,0.329,3.647,0.683,5.453
		c0.707,3.597,1.744,7.131,3.097,10.553c2.692,6.835,6.646,13.192,11.599,18.655c4.947,5.469,10.902,10.036,17.479,13.396
		c6.586,3.369,13.777,5.501,21.184,6.343c7.372,0.856,14.898,0.372,22.104-1.457c3.604-0.909,7.131-2.154,10.514-3.701
		c3.4-1.524,6.655-3.376,9.742-5.485c3.079-2.108,5.992-4.492,8.643-7.138c1.326-1.321,2.592-2.701,3.8-4.143
		c1.19-1.45,2.321-2.943,3.376-4.497c2.094-3.112,3.898-6.419,5.323-9.885c1.437-3.471,2.482-7.079,3.202-10.737
		c0.174-0.917,0.336-1.835,0.47-2.753c0.146-0.932,0.253-1.813,0.364-2.768c0.223-1.929,0.426-3.825,0.592-5.706
		c0.305-3.757,0.448-7.428,0.092-11.008c-0.35-3.574-1.182-7.048-2.57-10.34c-0.357-0.82-0.729-1.631-1.148-2.427
		c-0.363-0.737-0.902-1.633-1.362-2.475l-2.878-5.128c-1.902-3.43-3.785-6.881-5.627-10.362c-1.828-3.505-3.612-7.032-5.324-10.652
		l0.05-0.022c-1.721-3.162-3.3-6.47-4.423-10.09c-0.553-1.804-1.006-3.694-1.229-5.681c-0.219-1.982-0.227-4.068,0.115-6.168
		c0.349-2.095,1.062-4.188,2.102-6.094c1.021-1.908,2.375-3.608,3.846-5.072c0.114-0.115,0.227-0.221,0.344-0.327l5.255,0.697
		l-0.419-0.158l-0.008-0.007l-0.053-0.047c-0.053-0.062-0.181-0.158-0.379-0.44c-0.098-0.144-0.211-0.333-0.31-0.593
		c-0.097-0.248-0.185-0.56-0.205-0.894c-0.03-0.333-0.007-0.667,0.054-0.949c0.068-0.286,0.151-0.516,0.242-0.681
		c0.104-0.205,0.197-0.334,0.264-0.42l-0.059,0.04l-0.57,0.387l-0.644,0.439c-0.401,0.287-0.805,0.6-1.208,0.911
		c-0.668,0.53-1.336,1.099-1.961,1.714l-3.555-0.478l-9.26-1.321l-9.248-1.386l-9.248-1.466l-18.467-3.02l-14.611-2.353
		c-0.568-0.805-1.175-1.576-1.795-2.313l-0.489-0.568L615.894,174.871"/>
	<path fill="#231F20" d="M615.991,175.705c0.044-0.484-0.061-0.742-0.098-0.834l0.142,0.205l0.487,0.568
		c0.621,0.736,1.229,1.51,1.796,2.314l-3.86-0.623l0.555,0.016l-0.031,0.023h0.047l0.114-0.016l-0.13-0.008
		c0.061-0.029,0.197-0.113,0.407-0.342c0.124-0.135,0.266-0.326,0.374-0.561C615.907,176.207,615.977,175.934,615.991,175.705z"/>
	<polygon fill="#231F20" points="614.981,177.375 615.013,177.352 615.143,177.359 615.028,177.375 	"/>
	<path fill="#60350E" d="M684.374,226.508c0,3.623-19.415,6.56-43.362,6.56c-23.945,0-43.355-2.937-43.355-6.56
		s19.41-6.561,43.355-6.561C664.959,219.947,684.374,222.885,684.374,226.508"/>
	<path fill="#704214" d="M619.58,223.443c0-1.932-1.562-3.496-3.495-3.496c-1.934,0-3.499,1.564-3.499,3.496
		C615.031,224.324,618.275,223.981,619.58,223.443"/>
	<path fill="#8D6843" d="M615.771,220.504c-0.232,0-0.465,0.042-0.688,0.121c-0.318,0.114-0.619,0.31-0.853,0.56
		c-0.238,0.252-0.413,0.559-0.517,0.878c-0.101,0.32-0.141,0.661-0.069,0.985c0.13-0.301,0.269-0.573,0.419-0.83
		c0.153-0.256,0.325-0.489,0.52-0.697c0.199-0.207,0.418-0.39,0.664-0.55c0.249-0.161,0.523-0.295,0.82-0.443
		C615.971,220.512,615.871,220.504,615.771,220.504"/>
	<path fill="#704214" d="M632.857,227.985c0-1.932-1.564-3.498-3.496-3.498c-1.934,0-3.5,1.566-3.5,3.498
		C628.31,228.867,631.549,228.522,632.857,227.985"/>
	<path fill="#8D6843" d="M629.049,225.045c-0.232,0-0.467,0.042-0.689,0.122c-0.319,0.113-0.619,0.31-0.854,0.562
		c-0.236,0.25-0.412,0.556-0.512,0.874c-0.1,0.319-0.143,0.66-0.074,0.985c0.133-0.301,0.268-0.573,0.423-0.829
		c0.153-0.256,0.321-0.49,0.519-0.697s0.417-0.391,0.666-0.549c0.244-0.162,0.521-0.298,0.818-0.445
		C629.248,225.053,629.148,225.045,629.049,225.045"/>
	<path fill="#704214" d="M651.064,221.427c0-1.932-1.565-3.5-3.498-3.5c-1.932,0-3.498,1.568-3.498,3.5
		C646.514,222.306,649.756,221.964,651.064,221.427"/>
	<path fill="#8D6843" d="M647.255,218.485c-0.231,0-0.466,0.042-0.688,0.121c-0.32,0.115-0.619,0.31-0.852,0.562
		c-0.238,0.252-0.414,0.557-0.515,0.876c-0.099,0.322-0.142,0.661-0.073,0.988c0.134-0.303,0.268-0.578,0.422-0.833
		c0.154-0.256,0.324-0.49,0.518-0.697c0.197-0.207,0.418-0.392,0.667-0.55c0.247-0.161,0.52-0.295,0.819-0.443
		C647.454,218.493,647.355,218.485,647.255,218.485"/>
	<path fill="#704214" d="M664.338,228.297c0-2.806-2.275-5.082-5.08-5.082c-2.809,0-5.086,2.276-5.086,5.082
		C657.727,229.578,662.438,229.079,664.338,228.297"/>
	<path fill="#8D6843" d="M658.803,224.023c-0.337,0-0.676,0.062-1.002,0.178c-0.465,0.165-0.896,0.45-1.24,0.815
		c-0.344,0.364-0.596,0.808-0.746,1.272c-0.144,0.468-0.205,0.959-0.102,1.434c0.189-0.438,0.389-0.836,0.609-1.206
		c0.223-0.374,0.472-0.715,0.755-1.016c0.285-0.303,0.608-0.564,0.966-0.798c0.359-0.234,0.76-0.429,1.191-0.645
		C659.092,224.035,658.947,224.023,658.803,224.023"/>
	<path fill="#231F20" d="M639.214,303.559c-19.521,0-37.891-0.795-51.717-2.242c-6.791-0.709-12.144-1.541-15.911-2.473
		c-3.862-0.953-7.436-2.238-7.436-5.15c0-2.928,3.327-4.594,12.272-6.145l0.773,4.443c-3.714,0.643-5.894,1.248-7.152,1.701
		c2.34,0.838,7.854,2.199,20.531,3.398c13.336,1.262,30.61,1.957,48.639,1.957c18.029,0,35.304-0.695,48.643-1.957
		c12.696-1.203,18.207-2.566,20.541-3.404c-1.334-0.479-3.712-1.125-7.908-1.822l0.737-4.449c9.515,1.578,13.052,3.279,13.052,6.277
		c0,2.912-3.575,4.197-7.436,5.15c-3.768,0.932-9.122,1.764-15.909,2.473C677.106,302.764,658.739,303.559,639.214,303.559z"/>
	<polygon fill="#231F20" points="641.469,301.305 646.46,384.553 631.969,384.553 636.96,301.305 	"/>
</g>
</svg>
