<?xml version="1.0" encoding="utf-8"?>
<!-- Generator: Adobe Illustrator 15.0.0, SVG Export Plug-In . SVG Version: 6.00 Build 0)  -->
<!DOCTYPE svg PUBLIC "-//W3C//DTD SVG 1.1//EN" "http://www.w3.org/Graphics/SVG/1.1/DTD/svg11.dtd">
<svg version="1.1" id="Layer_1" xmlns="http://www.w3.org/2000/svg" xmlns:xlink="http://www.w3.org/1999/xlink" x="0px" y="0px"
	 width="1280px" height="800px" viewBox="0 0 1280 800" enable-background="new 0 0 1280 800" xml:space="preserve">
<g>
	<polyline fill="#FFFFFF" points="1280.75,795.917 0.748,795.917 0.748,-4.084 1280.75,-4.084 1280.75,795.917 	"/>
	<g>
		<path fill="#882D17" d="M349.062,584.195h-22.925v-32.666h22.925c2.734,8.887,7.885,13.33,15.454,13.33
			c5.468,0,8.203-2.197,8.203-6.592c0-2.295-0.952-4.199-2.856-5.713c-2.051-1.66-6.372-3.955-12.964-6.885
			c-8.302-3.76-14.404-7.007-18.311-9.742c-3.662-2.49-6.787-5.932-9.375-10.326c-2.589-4.346-3.882-9.156-3.882-14.43
			c0-9.472,3.076-16.869,9.229-22.191c6.104-5.322,13.623-7.984,22.559-7.984s16.504,2.54,22.705,7.617v-6.299h23.071v29.004
			h-22.778c-2.783-8.007-7.716-12.012-14.795-12.012c-4.98,0-7.471,2.125-7.471,6.373c0,2.051,0.707,3.588,2.124,4.613
			c1.366,1.075,5.786,3.443,13.257,7.105c10.009,4.98,16.699,8.618,20.068,10.912c1.709,1.124,3.454,2.699,5.236,4.725
			c1.782,2.026,3.26,4.114,4.432,6.262c2.685,4.786,4.028,9.961,4.028,15.527c0,8.546-3.175,15.772-9.521,21.68
			c-6.348,6.006-14.355,9.01-24.023,9.01c-8.984,0-17.114-2.661-24.39-7.984V584.195z"/>
		<path fill="#882D17" d="M476.431,584.195H418.35v-24.391h9.375v-53.1h-9.375v-24.391h58.081v24.391h-9.302v53.1h9.302V584.195z"/>
		<path fill="#882D17" d="M585.781,584.195h-97.192v-24.391h7.91v-53.1h-8.057v-24.391h97.339v32.594h-26.733v-8.203h-23.145v15.674
			h20.142v20.727h-20.142v16.699h23.145v-8.203h26.733V584.195z"/>
		<path fill="#882D17" d="M641.006,584.195h-41.821v-24.391h8.936v-53.1h-8.936v-24.391h48.267l37.061,53.248v-28.857h-8.276
			v-24.391h41.089v24.391h-8.862v78.809h-33.545l-42.92-61.598v35.889h9.009V584.195z"/>
		<path fill="#882D17" d="M769.106,584.195h-41.821v-24.391h8.936v-53.1h-8.936v-24.391h48.267l37.061,53.248v-28.857h-8.276
			v-24.391h41.089v24.391h-8.862v78.809h-33.545l-42.92-61.598v35.889h9.009V584.195z"/>
		<path fill="#882D17" d="M890.27,584.195h-40.356v-24.391h7.764l19.116-53.1h-8.203v-24.391h73.242v24.391h-8.203l19.482,53.1
			h7.471v24.391h-53.174v-22.34h8.936l-3.882-12.816h-26.074l-4.468,12.816h8.35V584.195z M899.864,508.17l-9.595,28.197h18.237
			L899.864,508.17z"/>
	</g>
	<path fill="#D6D6D7" d="M639.697,362.063c-29.191,0-52.852,2.22-52.852,4.96s23.66,4.962,52.852,4.962
		c29.189,0,52.85-2.222,52.85-4.962S668.887,362.063,639.697,362.063"/>
	<polygon fill="#231F20" points="707.867,289.437 727.811,362.608 713.943,362.608 703.451,290.36 	"/>
	<polygon fill="#231F20" points="576.129,290.36 563.723,362.608 553.688,362.608 571.715,289.437 	"/>
	<path fill="#F5F5F5" d="M602.178,174.016l-0.563-0.479l-0.12-0.105h0.008l0.021-0.008c6.162-0.008,12.307,0.077,18.459,0.289
		c6.236,0.196,12.472,0.539,18.707,0.871c6.236,0.326,12.473,0.684,18.708,0.904c4.303,0.158,8.602,0.257,12.911,0.311
		c-0.119,0.136-0.227,0.273-0.334,0.408c-1.258,1.662-2.365,3.536-3.125,5.584c-0.773,2.032-1.176,4.227-1.221,6.357
		c-0.037,2.139,0.258,4.211,0.769,6.145c0.497,1.943,1.226,3.748,2.03,5.463c1.639,3.429,3.688,6.471,5.855,9.347l-0.042,0.031
		c4.216,6.795,9.094,12.985,13.994,19.093l3.717,4.553c0.616,0.742,1.283,1.532,1.79,2.207c0.555,0.728,1.078,1.472,1.572,2.238
		c1.971,3.065,3.398,6.446,4.301,10.014c0.918,3.563,1.319,7.289,1.471,11.092c0.068,1.903,0.092,3.822,0.092,5.757
		c-0.008,1.903-0.101,3.763-0.266,5.636c-0.174,1.875-0.432,3.74-0.773,5.584c-0.35,1.852-0.781,3.679-1.297,5.485
		c-1.023,3.61-2.391,7.124-4.068,10.476c-3.352,6.707-7.926,12.775-13.412,17.844c-5.475,5.076-11.871,9.141-18.768,11.902
		c-6.888,2.77-14.27,4.256-21.666,4.394c-7.427,0.16-14.801-0.994-21.743-3.437c-6.924-2.436-13.388-6.146-18.979-10.864
		c-5.592-4.711-10.311-10.431-13.854-16.78c-1.775-3.172-3.262-6.502-4.43-9.933c-0.592-1.714-1.084-3.457-1.555-5.203
		c-0.463-1.75-0.881-3.519-1.213-5.302c-0.343-1.783-0.594-3.581-0.768-5.395c-0.092-0.911-0.158-1.813-0.205-2.723
		c-0.022-0.455-0.038-0.918-0.054-1.373l-0.028-1.428c-0.076-3.829-0.084-7.539,0.34-11.12c0.419-3.581,1.244-7.032,2.619-10.257
		c0.682-1.608,1.51-3.164,2.466-4.65c0.468-0.744,0.983-1.473,1.524-2.179l1.781-2.305c2.391-3.104,4.779-6.22,7.125-9.384
		c2.357-3.156,4.673-6.373,6.857-9.695c2.191-3.329,4.293-6.76,6.031-10.453c0.863-1.852,1.638-3.764,2.251-5.767
		c0.601-2.003,1.024-4.104,1.139-6.268c0.114-2.161-0.122-4.392-0.767-6.501c-0.65-2.107-1.676-4.08-2.951-5.804
		C605.242,176.861,603.756,175.359,602.178,174.016"/>
	<path fill="#882D17" d="M700.6,252.418c-0.5,0.215-1.023,0.406-1.59,0.549c-7.014,1.768-13.842,1.118-20.941,0.617
		c-6.963-0.49-13.986-0.469-20.965-0.457c-13.951,0.022-27.898,0.379-41.848,0.084c-7.25-0.154-14.52-0.477-21.77-0.365
		c-4.877,0.074-10.207,1-15.16,0.259c-0.289,3.192-0.295,6.479-0.227,9.867l0.029,1.427c0.016,0.455,0.031,0.918,0.053,1.373
		c0.047,0.91,0.113,1.812,0.205,2.723c0.174,1.813,0.424,3.611,0.768,5.395c0.332,1.783,0.75,3.551,1.213,5.303
		c0.471,1.744,0.963,3.489,1.555,5.203c1.168,3.43,2.654,6.76,4.43,9.932c3.543,6.35,8.262,12.069,13.854,16.78
		c5.592,4.718,12.055,8.429,18.98,10.863c6.941,2.442,14.314,3.597,21.742,3.437c7.396-0.137,14.777-1.623,21.666-4.393
		c6.896-2.762,13.293-6.827,18.768-11.902c5.486-5.068,10.061-11.137,13.412-17.843c1.678-3.353,3.045-6.866,4.068-10.477
		c0.516-1.806,0.947-3.634,1.297-5.485c0.342-1.844,0.6-3.709,0.773-5.583c0.166-1.874,0.258-3.733,0.266-5.637
		c0-1.935-0.023-3.854-0.092-5.758C701.006,256.334,700.855,254.359,700.6,252.418z"/>
	<path fill="#231F20" d="M674.004,172.256c-0.061,0.182-0.113,0.424-0.137,0.713c-0.023,0.295,0,0.637,0.076,0.963
		s0.205,0.63,0.34,0.865c0.137,0.234,0.283,0.41,0.396,0.539c0.234,0.25,0.379,0.334,0.455,0.379l0.068,0.03l0.363,0.091
		c-1.752-0.008-3.504-0.022-5.258-0.037c0.531-0.676,1.102-1.312,1.686-1.928c0.35-0.363,0.705-0.729,1.068-1.069l0.576-0.523
		l0.516-0.455l0.092-0.076C674.186,171.83,674.102,171.982,674.004,172.256z"/>
	<path fill="#231F20" d="M601.094,172.977c0.006,0.022,0.021,0.076,0.029,0.174c0.014,0.175-0.076,0.418-0.145,0.493l0.008,0.015
		c0.061-0.037,0.168-0.098,0.305-0.15l0.203-0.076l0.121,0.105l0.562,0.479c1.578,1.343,3.064,2.845,4.338,4.574
		c1.275,1.723,2.301,3.695,2.951,5.803c0.645,2.109,0.881,4.34,0.768,6.502c-0.115,2.162-0.539,4.264-1.139,6.267
		c-0.615,2.003-1.389,3.915-2.252,5.766c-1.738,3.694-3.84,7.124-6.031,10.454c-2.186,3.322-4.5,6.539-6.857,9.695
		c-2.346,3.163-4.734,6.281-7.125,9.384l-1.781,2.306c-0.541,0.706-1.057,1.434-1.525,2.178c-0.955,1.486-1.783,3.042-2.465,4.65
		c-1.375,3.225-2.201,6.676-2.619,10.257c-0.424,3.581-0.416,7.29-0.34,11.121l0.029,1.427c0.016,0.455,0.031,0.918,0.053,1.373
		c0.047,0.91,0.113,1.812,0.205,2.723c0.174,1.813,0.424,3.611,0.768,5.395c0.332,1.783,0.75,3.551,1.213,5.303
		c0.471,1.744,0.963,3.489,1.555,5.203c1.168,3.43,2.654,6.76,4.43,9.932c3.543,6.35,8.262,12.069,13.854,16.78
		c5.592,4.718,12.055,8.429,18.98,10.863c6.941,2.442,14.314,3.597,21.742,3.437c7.396-0.137,14.777-1.623,21.666-4.393
		c6.896-2.762,13.293-6.827,18.768-11.902c5.486-5.068,10.061-11.137,13.412-17.843c1.678-3.353,3.045-6.866,4.068-10.477
		c0.516-1.806,0.947-3.634,1.297-5.485c0.342-1.844,0.6-3.709,0.773-5.583c0.166-1.874,0.258-3.733,0.266-5.637
		c0-1.935-0.023-3.854-0.092-5.758c-0.15-3.801-0.553-7.526-1.471-11.091c-0.902-3.566-2.33-6.949-4.301-10.014
		c-0.494-0.767-1.018-1.51-1.572-2.238c-0.508-0.676-1.174-1.465-1.789-2.207l-3.717-4.553c-4.902-6.106-9.779-12.297-13.996-19.094
		l0.043-0.031c-2.168-2.875-4.217-5.917-5.855-9.346c-0.805-1.715-1.533-3.52-2.031-5.463c-0.51-1.934-0.805-4.006-0.768-6.145
		c0.045-2.131,0.447-4.324,1.221-6.357c0.76-2.048,1.867-3.922,3.125-5.583c0.107-0.137,0.215-0.273,0.334-0.409
		c1.754,0.015,3.506,0.029,5.258,0.037l-0.363-0.083l-0.068-0.038c-0.076-0.045-0.221-0.129-0.455-0.379
		c-0.113-0.129-0.26-0.305-0.396-0.539c-0.135-0.235-0.264-0.539-0.34-0.865s-0.1-0.668-0.076-0.963
		c0.023-0.289,0.076-0.531,0.137-0.713c0.098-0.273,0.182-0.426,0.242-0.509l-0.092,0.076l-0.516,0.455l-0.576,0.523
		c-0.363,0.341-0.719,0.706-1.068,1.069c-0.584,0.615-1.154,1.252-1.686,1.928c-4.309-0.054-8.609-0.152-12.912-0.312
		c-6.234-0.22-12.471-0.577-18.707-0.903c-6.234-0.333-12.471-0.675-18.707-0.871c-6.152-0.213-12.297-0.297-18.459-0.289
		l0.139-0.045l-0.205,0.021l-0.184-0.189C601.184,173.105,601.115,173.014,601.094,172.977z M705.852,258.139
		c0.082,2.004,0.098,3.983,0.098,5.948c0,2.011-0.076,4.052-0.242,6.062c-0.35,4.035-1.047,8.041-2.094,11.963
		c-1.047,3.915-2.459,7.738-4.188,11.41c-3.461,7.352-8.277,14.072-14.143,19.739c-5.848,5.667-12.742,10.287-20.262,13.55
		c-7.51,3.27-15.643,5.15-23.859,5.529c-8.178,0.41-16.514-0.629-24.389-3.163c-7.875-2.519-15.301-6.501-21.795-11.675
		c-6.502-5.174-12.07-11.539-16.35-18.708c-2.139-3.581-3.959-7.366-5.416-11.288c-0.713-1.973-1.373-3.961-1.873-5.994
		c-0.508-2.032-0.889-4.088-1.184-6.159c-0.289-2.071-0.479-4.149-0.584-6.235c-0.047-1.04-0.076-2.079-0.084-3.127
		c0-0.516,0.008-1.039,0.016-1.555l0.037-1.502c0.1-3.975,0.35-8.094,1.07-12.244c0.713-4.135,1.949-8.307,3.898-12.152
		c0.963-1.928,2.094-3.771,3.361-5.5c0.629-0.857,1.305-1.692,1.996-2.496l1.941-2.216c5.129-5.864,10.225-11.728,14.785-17.88
		c2.26-3.088,4.371-6.26,6.107-9.566c1.729-3.293,3.049-6.775,3.33-10.25c0.129-1.729-0.008-3.443-0.471-5.082
		s-1.244-3.194-2.262-4.627c-1.023-1.435-2.266-2.755-3.654-3.945l-0.555-0.471c-0.258-0.228-0.471-0.433-0.705-0.698
		c-0.236-0.258-0.471-0.554-0.691-0.948c-0.213-0.379-0.424-0.895-0.447-1.555c-0.037-0.66,0.205-1.396,0.545-1.866
		c0.35-0.485,0.723-0.782,1.07-1.009c0.35-0.229,0.676-0.38,0.994-0.509c0.16-0.068,0.318-0.122,0.479-0.175l0.25-0.068
		c0.092-0.021,0.145-0.037,0.295-0.076l0.184-0.037h0.203c6.244,0.008,12.48-0.084,18.717-0.289
		c6.236-0.204,12.473-0.537,18.707-0.871c6.236-0.334,12.473-0.684,18.707-0.903c6.236-0.228,12.473-0.349,18.709-0.364h0.492
		l0.639,0.152l0.166,0.045l0.295,0.084c0.197,0.061,0.387,0.129,0.586,0.204c0.387,0.151,0.795,0.334,1.242,0.6
		c0.449,0.266,0.949,0.606,1.488,1.183c0.273,0.289,0.545,0.631,0.789,1.062c0.25,0.426,0.463,0.934,0.584,1.473
		c0.129,0.537,0.166,1.107,0.129,1.615s-0.137,0.971-0.266,1.357c-0.258,0.781-0.592,1.312-0.895,1.746
		c-0.615,0.834-1.168,1.312-1.676,1.744l-0.494,0.395l-0.41,0.349c-0.287,0.243-0.568,0.485-0.842,0.736
		c-0.555,0.501-1.055,1.024-1.531,1.556c-1.912,2.131-3.143,4.482-3.529,7.221c-0.418,2.74,0.061,5.834,1.018,8.938
		c0.963,3.103,2.367,6.213,3.943,9.263l0.047-0.03c2.078,3.201,4.361,6.297,6.736,9.346c2.367,3.058,4.811,6.077,7.283,9.073
		l3.709,4.515c0.631,0.766,1.229,1.464,1.896,2.344c0.639,0.818,1.236,1.669,1.805,2.549c2.27,3.498,3.922,7.396,4.932,11.402
		C705.266,250.061,705.691,254.142,705.852,258.139z"/>
	<polygon fill="#231F20" points="601.662,173.379 601.523,173.424 601.486,173.424 601.457,173.4 	"/>
	<polygon fill="#231F20" points="601.523,173.424 601.502,173.432 601.494,173.432 601.486,173.424 	"/>
	<polygon fill="#231F20" points="601.486,173.424 601.291,173.424 601.457,173.4 	"/>
	<path fill="#231F20" d="M600.979,173.644c0.068-0.075,0.158-0.318,0.145-0.493c-0.008-0.098-0.023-0.151-0.029-0.174
		c0.021,0.037,0.09,0.129,0.18,0.234l0.184,0.189l-0.166,0.023h0.195l0.008,0.008l-0.203,0.076c-0.137,0.053-0.244,0.113-0.305,0.15
		L600.979,173.644z"/>
	<path fill="#6B2415" d="M701.084,252.961c0,3.623-27.484,6.561-61.387,6.561c-33.904,0-61.387-2.938-61.387-6.561
		s27.482-6.559,61.387-6.559C673.6,246.402,701.084,249.338,701.084,252.961"/>
	<path fill="#882D17" d="M629.57,252.811c0-10.906-8.844-19.748-19.748-19.748c-10.908,0-19.751,8.842-19.751,19.748
		C603.881,257.787,622.184,255.847,629.57,252.811"/>
	<path fill="#882D17" d="M665.018,250.082c0-4.998-4.053-9.05-9.051-9.05c-5.002,0-9.055,4.052-9.055,9.05
		C653.242,252.365,661.633,251.477,665.018,250.082"/>
	<path fill="#A05745" d="M655.162,242.473c-0.604,0-1.208,0.109-1.787,0.315c-0.828,0.294-1.6,0.8-2.208,1.45
		c-0.13,0.138-0.253,0.281-0.368,0.432c0.32,0.269,0.625,0.553,0.916,0.854c0.119-0.145,0.242-0.284,0.369-0.42
		c0.506-0.537,1.08-1.008,1.724-1.42c0.64-0.42,1.351-0.768,2.119-1.151C655.674,242.492,655.418,242.473,655.162,242.473"/>
	<path fill="#A05745" d="M608.059,236.206c-1.312,0-2.627,0.239-3.889,0.688c-1.809,0.644-3.489,1.744-4.818,3.166
		c-1.341,1.42-2.326,3.141-2.902,4.949c-0.561,1.812-0.793,3.727-0.406,5.571c0.746-1.702,1.516-3.247,2.381-4.693
		s1.824-2.767,2.93-3.941c1.105-1.171,2.355-2.2,3.756-3.1c1.398-0.914,2.951-1.671,4.625-2.507
		C609.18,236.25,608.619,236.206,608.059,236.206"/>
	<path fill="#882D17" d="M655.137,253.98c0-6.716-5.445-12.162-12.162-12.162c-6.719,0-12.165,5.446-12.165,12.162
		C639.316,257.047,650.588,255.853,655.137,253.98"/>
	<path fill="#A05745" d="M641.887,243.755c-0.807,0-1.616,0.147-2.396,0.426c-1.112,0.395-2.147,1.072-2.966,1.948
		c-0.826,0.875-1.432,1.934-1.787,3.046c-0.346,1.116-0.49,2.298-0.25,3.432c0.461-1.046,0.934-1.997,1.467-2.89
		c0.532-0.892,1.123-1.703,1.805-2.426c0.68-0.722,1.45-1.354,2.312-1.909c0.862-0.563,1.818-1.031,2.848-1.544
		C642.578,243.782,642.232,243.755,641.887,243.755"/>
	<path fill="#231F20" d="M639.215,296.648c-19.525,0-37.891-0.797-51.717-2.242c-6.791-0.709-12.145-1.541-15.912-2.473
		c-3.861-0.953-7.436-2.238-7.436-5.151c0-2.928,3.326-4.593,12.273-6.146l0.771,4.445c-3.713,0.643-5.891,1.246-7.152,1.699
		c2.342,0.839,7.855,2.199,20.531,3.399c13.338,1.262,30.611,1.957,48.641,1.957s35.303-0.695,48.639-1.957
		c12.697-1.202,18.209-2.565,20.543-3.403c-1.334-0.479-3.715-1.127-7.908-1.822l0.738-4.449c9.514,1.578,13.053,3.279,13.053,6.276
		c0,2.913-3.574,4.198-7.438,5.151c-3.768,0.932-9.119,1.764-15.91,2.473C677.105,295.852,658.738,296.648,639.215,296.648z"/>
	<polygon fill="#231F20" points="641.469,294.393 646.459,377.643 631.969,377.643 636.959,294.393 	"/>
</g>
</svg>
