<?xml version="1.0" encoding="utf-8"?>
<!-- Generator: Adobe Illustrator 15.0.0, SVG Export Plug-In . SVG Version: 6.00 Build 0)  -->
<!DOCTYPE svg PUBLIC "-//W3C//DTD SVG 1.1//EN" "http://www.w3.org/Graphics/SVG/1.1/DTD/svg11.dtd">
<svg version="1.1" id="Layer_1" xmlns="http://www.w3.org/2000/svg" xmlns:xlink="http://www.w3.org/1999/xlink" x="0px" y="0px"
	 width="1280px" height="800px" viewBox="0 0 1280 800" enable-background="new 0 0 1280 800" xml:space="preserve">
<g>
	<polyline fill="#FFFFFF" points="1281.017,798 1.014,798 1.014,-2.001 1281.017,-2.001 1281.017,798 	"/>
	<g>
		<path fill="#C3B091" d="M450.902,563.366h-47.091v-20.797h6.62v-45.28h-6.808v-20.798h47.278v20.798h-6.87v45.28h6.87V563.366z
			 M504.926,563.366h-44.968v-20.797h4.185l-19.049-24.732l22.109-20.547h-7.058v-20.798h42.782v20.798h-6.745l-17.737,16.488
			l22.171,28.792h4.31V563.366z"/>
		<path fill="#C3B091" d="M558.637,563.366H512.92v-20.797h6.558v-45.28h-6.683v-20.798h45.842v20.798h-5.559v13.24h20.11v-13.24
			h-5.621v-20.798h45.78v20.798h-6.559v45.28h6.559v20.797h-45.78v-20.797h5.621v-14.24h-20.11v14.24h5.559V563.366z"/>
		<path fill="#C3B091" d="M654.943,563.366H620.53v-20.797h6.62l16.301-45.28h-6.995v-20.798h62.455v20.798h-6.995l16.613,45.28
			h6.37v20.797h-45.342v-19.049h7.619l-3.31-10.93h-22.234l-3.81,10.93h7.12V563.366z M663.125,498.538l-8.182,24.045h15.551
			L663.125,498.538z"/>
		<path fill="#C3B091" d="M769.235,563.366h-47.091v-20.797h6.62v-45.28h-6.808v-20.798h47.278v20.798h-6.87v45.28h6.87V563.366z
			 M823.259,563.366h-44.968v-20.797h4.185l-19.049-24.732l22.109-20.547h-7.058v-20.798h42.782v20.798h-6.745l-17.737,16.488
			l22.171,28.792h4.31V563.366z"/>
		<path fill="#C3B091" d="M879.53,563.366h-49.526v-20.797h7.994v-45.28h-7.994v-20.798h49.526v20.798h-7.932v45.28h7.932V563.366z"
			/>
	</g>
	<path fill="#D6D6D7" d="M639.444,351.917c-23.336,0-42.253,1.827-42.253,4.078c0,2.255,18.917,4.081,42.253,4.081
		c23.334,0,42.253-1.826,42.253-4.081C681.697,353.744,662.778,351.917,639.444,351.917"/>
	<path fill="#F5F5F5" d="M619.322,204.53c3.354,1.162,6.6,2.756,9.762,4.522c3.174,1.775,6.252,3.778,9.266,5.873
		c3.011,2.107,5.939,4.354,8.8,6.691c2.86,2.328,5.649,4.755,8.39,7.251c2.73,2.497,5.387,5.083,7.965,7.731
		c1.289,1.327,2.549,2.677,3.779,4.044c1.229,1.365,2.451,2.752,3.548,4.141c4.409,5.614,7.611,12.145,9.606,19.011
		c0.993,3.437,1.682,6.964,2.087,10.514c0.386,3.559,0.477,7.147,0.278,10.713c-0.387,7.131-1.936,14.17-4.666,20.679
		c-2.714,6.502-6.611,12.479-11.56,17.29c-4.925,4.802-10.925,8.39-17.366,10.014c-3.221,0.812-6.525,1.153-9.831,0.993
		c-1.632-0.082-3.278-0.28-4.886-0.589c-1.616-0.329-3.209-0.708-4.794-1.177c-3.164-0.94-6.221-2.359-9.081-4.164
		c-2.861-1.807-5.543-3.962-7.967-6.435c-4.844-4.939-8.699-11.008-11.363-17.616c-2.67-6.606-4.149-13.767-4.375-21.004
		c-0.113-3.703-0.138-7.382,0.205-10.963c0.18-1.791,0.439-3.566,0.832-5.295c0.395-1.737,0.911-3.429,1.572-5.068
		c0.66-1.631,1.463-3.201,2.396-4.689l0.357-0.553l0.385-0.584l0.788-1.236c0.519-0.819,1.012-1.662,1.481-2.519
		c1.895-3.421,3.404-7.145,4.201-11.121c0.396-1.987,0.601-4.037,0.58-6.099c-0.026-2.057-0.252-4.127-0.694-6.146
		c-0.88-4.044-2.556-7.851-4.581-11.32c-2.041-3.473-4.469-6.615-6.994-9.542c-0.379-0.449-0.765-0.888-1.152-1.321
		c2.921-0.174,5.842-0.409,8.76-0.674l7.43-0.72l3.693-0.365l1.82-0.165l0.873-0.07l0.395-0.022L619.322,204.53"/>
	<path fill="#C3B091" d="M681.436,267.796c-0.887,0.236-1.805,0.351-2.727,0.321c-16.328-0.542-32.796-2.288-49.135-2.062
		c-10.672,0.146-21.265,2.604-31.864,1.869c-0.263,1.356-0.45,2.735-0.591,4.124c-0.343,3.581-0.318,7.26-0.205,10.963
		c0.226,7.237,1.705,14.398,4.375,21.004c2.664,6.608,6.52,12.677,11.363,17.616c2.424,2.472,5.105,4.628,7.967,6.435
		c2.86,1.804,5.917,3.223,9.081,4.164c1.585,0.469,3.178,0.848,4.794,1.177c1.607,0.31,3.254,0.508,4.886,0.589
		c3.306,0.16,6.61-0.181,9.831-0.993c6.441-1.624,12.441-5.212,17.366-10.014c4.948-4.811,8.846-10.788,11.56-17.29
		c2.73-6.509,4.279-13.548,4.666-20.679c0.198-3.566,0.107-7.154-0.278-10.713C682.273,272.123,681.905,269.948,681.436,267.796"/>
	<path fill="#231F20" d="M592.561,202.536l0.027,0.039L592.561,202.536 M592.611,202.597l-0.015-0.022
		c0.031,0.052,0.073,0.136,0.143,0.289c0.099,0.242,0.251,0.727,0.185,1.403c-0.031,0.334-0.131,0.683-0.26,0.986
		c-0.135,0.297-0.304,0.539-0.447,0.713c-0.303,0.356-0.518,0.478-0.637,0.554l-0.151,0.083l-0.067,0.023l-0.047,0.016
		c-0.039,0.016,0,0.007-0.154,0.045l-0.408,0.106c1.845-0.045,3.695-0.13,5.539-0.236c0.388,0.433,0.773,0.873,1.152,1.321
		c2.525,2.928,4.953,6.069,6.994,9.542c2.025,3.469,3.701,7.276,4.581,11.32c0.442,2.018,0.668,4.089,0.694,6.146
		c0.021,2.062-0.185,4.111-0.58,6.099c-0.797,3.976-2.307,7.7-4.201,11.121c-0.47,0.857-0.963,1.7-1.481,2.519l-0.788,1.236
		l-0.385,0.584l-0.357,0.553c-0.934,1.488-1.736,3.058-2.396,4.689c-0.661,1.639-1.178,3.331-1.572,5.068
		c-0.393,1.729-0.652,3.504-0.832,5.295c-0.343,3.581-0.318,7.26-0.205,10.963c0.226,7.237,1.705,14.398,4.375,21.004
		c2.664,6.608,6.52,12.677,11.363,17.616c2.424,2.472,5.105,4.628,7.967,6.435c2.86,1.804,5.917,3.223,9.081,4.164
		c1.585,0.469,3.178,0.848,4.794,1.177c1.607,0.31,3.254,0.508,4.886,0.589c3.306,0.16,6.61-0.181,9.831-0.993
		c6.441-1.624,12.441-5.212,17.366-10.014c4.948-4.811,8.846-10.788,11.56-17.29c2.73-6.509,4.279-13.548,4.666-20.679
		c0.198-3.566,0.107-7.154-0.278-10.713c-0.405-3.55-1.094-7.077-2.087-10.514c-1.995-6.866-5.197-13.397-9.606-19.011
		c-1.097-1.389-2.319-2.776-3.548-4.141c-1.23-1.367-2.49-2.717-3.779-4.044c-2.578-2.647-5.234-5.234-7.965-7.731
		c-2.74-2.497-5.529-4.923-8.39-7.251c-2.86-2.338-5.789-4.584-8.8-6.691c-3.014-2.095-6.092-4.098-9.266-5.873
		c-3.162-1.766-6.408-3.36-9.762-4.522l0.075-0.007l0.022-0.007l-0.129-0.054l-0.016,0.054l0.047,0.014l-0.061,0.009l-0.395,0.022
		l-0.873,0.07l-1.82,0.165l-3.693,0.365l-7.43,0.72c-2.918,0.266-5.839,0.5-8.76,0.674c-0.25-0.28-0.51-0.56-0.76-0.841
		l-1.939-2.093L592.611,202.597 M592.541,202.52l0.008,0.009v-0.009H592.541 M688.486,273.55c0.555,3.877,0.789,7.79,0.713,11.705
		c-0.158,7.831-1.594,15.682-4.391,23.093c-2.803,7.404-6.981,14.383-12.58,20.233c-2.801,2.92-5.954,5.545-9.43,7.738
		c-3.473,2.192-7.275,3.938-11.279,5.106c-4,1.168-8.209,1.744-12.383,1.691c-2.109-0.031-4.195-0.205-6.272-0.554
		c-2.081-0.325-4.112-0.887-6.083-1.593c-3.938-1.425-7.625-3.421-10.963-5.812c-3.346-2.389-6.321-5.212-8.938-8.275
		c-5.229-6.154-8.968-13.329-11.35-20.803c-2.381-7.495-3.412-15.308-3.277-23.039c0.098-3.786,0.205-7.609,0.706-11.462
		c0.503-3.854,1.39-7.731,2.935-11.389c0.76-1.827,1.687-3.595,2.754-5.264l0.412-0.623l0.387-0.584
		c0.258-0.379,0.486-0.743,0.719-1.13c0.471-0.767,0.918-1.547,1.344-2.336c1.654-3.155,2.838-6.539,3.203-9.967
		c0.379-3.423-0.055-6.836-1.214-10c-1.139-3.178-2.931-6.114-5.052-8.868c-2.127-2.754-4.547-5.348-7.096-7.919
		c-0.638-0.647-1.283-1.283-1.936-1.928l-1.963-1.935l-0.995-0.979l-0.175-0.174l-0.24-0.273c-0.138-0.16-0.291-0.334-0.434-0.532
		c-0.295-0.393-0.615-0.871-0.895-1.554c-0.275-0.676-0.531-1.631-0.418-2.778c0.061-0.56,0.221-1.144,0.449-1.653
		c0.228-0.515,0.523-0.957,0.816-1.304c0.6-0.721,1.199-1.13,1.732-1.434c0.264-0.151,0.523-0.273,0.78-0.386
		c0.128-0.054,0.257-0.106,0.388-0.153l0.217-0.068c0.092-0.029,0.107-0.036,0.32-0.099l0.479-0.128l0.515-0.007
		c4.998-0.083,9.991,0.151,14.991,0.507c2.503,0.198,5.005,0.395,7.511,0.661c1.252,0.129,2.51,0.28,3.771,0.44
		c0.635,0.077,1.263,0.158,1.91,0.264l0.992,0.16l0.547,0.099l0.318,0.068l0.213,0.054c0.083,0.022,0.191,0.052,0.35,0.106
		l0.021-0.054c3.742,1.184,7.292,2.77,10.68,4.583c3.395,1.829,6.641,3.854,9.766,6.04c6.25,4.36,12.1,9.2,17.693,14.308
		c2.783,2.562,5.527,5.165,8.198,7.858c1.327,1.344,2.661,2.693,3.97,4.082c1.303,1.394,2.576,2.792,3.844,4.31
		c5.014,6.038,8.725,13.093,11.108,20.535C687.076,265.859,687.939,269.682,688.486,273.55"/>
	<polygon fill="#231F20" points="619.42,204.516 619.397,204.523 619.323,204.53 619.276,204.516 619.292,204.463 	"/>
	<polygon fill="#231F20" points="592.549,202.521 592.549,202.528 592.542,202.521 	"/>
	<path fill="#231F20" d="M593.591,203.62l1.94,2.094c0.251,0.281,0.509,0.562,0.761,0.842c-1.846,0.106-3.695,0.19-5.54,0.235
		l0.409-0.105c0.152-0.038,0.115-0.03,0.152-0.046l0.047-0.015l0.068-0.023l0.15-0.083c0.12-0.076,0.334-0.197,0.637-0.554
		c0.145-0.175,0.312-0.417,0.448-0.714c0.13-0.303,0.229-0.651,0.259-0.985c0.066-0.676-0.084-1.161-0.184-1.403
		c-0.069-0.152-0.111-0.235-0.143-0.289l0.014,0.023L593.591,203.62z"/>
	<path fill="#231F20" d="M639.931,310.069c-13.812,0-26.812-0.563-36.599-1.587c-4.828-0.504-8.638-1.098-11.33-1.762
		c-2.987-0.739-5.754-1.77-5.754-4.281c0-2.827,3.528-4.007,9.22-4.994l0.769,4.444c-1.102,0.191-2.003,0.376-2.739,0.548
		c2.272,0.531,6.129,1.188,12.589,1.784c9.333,0.862,21.353,1.337,33.845,1.337s24.512-0.475,33.842-1.337
		c6.461-0.597,10.316-1.252,12.592-1.783c-0.85-0.199-1.92-0.414-3.263-0.638l0.737-4.449c6.189,1.026,9.773,2.188,9.773,5.088
		c0,2.512-2.766,3.542-5.756,4.281c-2.692,0.664-6.503,1.258-11.328,1.762C666.741,309.506,653.743,310.069,639.931,310.069z"/>
	<polygon fill="#231F20" points="688.42,304.313 702.507,355.996 692.714,355.996 685.301,304.966 	"/>
	<polygon fill="#231F20" points="595.372,304.966 586.606,355.996 579.52,355.996 592.254,304.313 	"/>
	<polygon fill="#231F20" points="642.186,307.814 647.175,366.615 632.686,366.615 637.675,307.814 	"/>
	<path fill="#AD997D" d="M681.002,267.75c0,3.623-18.604,6.56-41.558,6.56s-41.561-2.937-41.561-6.56s18.606-6.561,41.561-6.561
		S681.002,264.127,681.002,267.75"/>
	<path fill="#C3B091" d="M631.393,267.033c0-7.634-6.189-13.819-13.824-13.819c-7.633,0-13.82,6.186-13.82,13.819
		C613.414,270.515,626.223,269.159,631.393,267.033"/>
	<path fill="#CFC0A7" d="M616.337,255.413c-0.917,0-1.839,0.167-2.726,0.481c-1.26,0.45-2.438,1.22-3.371,2.216
		c-0.935,0.995-1.621,2.199-2.026,3.465c-0.394,1.264-0.558,2.606-0.287,3.898c0.523-1.191,1.062-2.272,1.667-3.286
		c0.602-1.012,1.278-1.935,2.052-2.757c0.774-0.821,1.645-1.541,2.627-2.17c0.979-0.64,2.063-1.17,3.237-1.754
		C617.121,255.443,616.73,255.413,616.337,255.413"/>
	<path fill="#C3B091" d="M639.649,269.317c0-4.621-3.745-8.364-8.366-8.364c-4.619,0-8.365,3.743-8.365,8.364
		C628.77,271.424,636.52,270.604,639.649,269.317"/>
	<path fill="#CFC0A7" d="M630.533,262.284c-0.553,0-1.109,0.102-1.644,0.291c-0.763,0.273-1.476,0.739-2.041,1.342
		c-0.566,0.602-0.981,1.33-1.228,2.097c-0.238,0.765-0.339,1.577-0.174,2.357c0.316-0.72,0.644-1.373,1.01-1.987
		c0.365-0.612,0.774-1.172,1.242-1.669c0.467-0.496,0.996-0.932,1.589-1.313c0.593-0.388,1.25-0.708,1.959-1.06
		C631.012,262.303,630.773,262.284,630.533,262.284"/>
	<path fill="#C3B091" d="M675.559,266.572c0-1.931-1.566-3.496-3.498-3.496c-1.934,0-3.5,1.565-3.5,3.496
		C671.009,267.453,674.248,267.111,675.559,266.572"/>
	<path fill="#CFC0A7" d="M671.746,263.632c-0.232,0-0.465,0.042-0.686,0.122c-0.321,0.115-0.621,0.31-0.855,0.562
		c-0.238,0.25-0.412,0.556-0.513,0.875c-0.099,0.321-0.141,0.661-0.073,0.987c0.133-0.301,0.268-0.576,0.423-0.831
		c0.153-0.255,0.325-0.49,0.521-0.697c0.193-0.207,0.414-0.391,0.664-0.549c0.248-0.162,0.521-0.295,0.818-0.443
		C671.945,263.64,671.846,263.632,671.746,263.632"/>
</g>
</svg>
