<?xml version="1.0" encoding="utf-8"?>
<!-- Generator: Adobe Illustrator 15.0.0, SVG Export Plug-In . SVG Version: 6.00 Build 0)  -->
<!DOCTYPE svg PUBLIC "-//W3C//DTD SVG 1.1//EN" "http://www.w3.org/Graphics/SVG/1.1/DTD/svg11.dtd">
<svg version="1.1" id="Layer_1" xmlns="http://www.w3.org/2000/svg" xmlns:xlink="http://www.w3.org/1999/xlink" x="0px" y="0px"
	 width="257px" height="292px" viewBox="0 0 257 292" enable-background="new 0 0 257 292" xml:space="preserve">
<g>
	<path fill="#D6D6D7" d="M125.505,265.462c-38.476,0-69.665,2.924-69.665,6.535c0,3.613,31.189,6.54,69.665,6.54
		c38.479,0,69.67-2.927,69.67-6.54C195.175,268.386,163.984,265.462,125.505,265.462"/>
	<polygon fill="#231F20" points="216.002,169.726 242.291,266.179 224.012,266.179 210.182,170.943 	"/>
	<polygon fill="#231F20" points="42.35,170.943 25.994,266.179 12.768,266.179 36.531,169.726 	"/>
	<path fill="#F5F5F5" d="M166.558,17.068l3.432,0.203l6.931,0.478l13.899,0.961c6.489,0.42,12.979,0.8,19.471,1.04
		c-1.001,0.89-1.99,1.79-2.98,2.72c-4.642,4.33-9.161,8.981-13.121,14.24c-1.97,2.641-3.799,5.42-5.391,8.38
		c-1.59,2.949-2.938,6.091-3.868,9.38c-0.94,3.29-1.46,6.722-1.481,10.141c-0.029,3.419,0.462,6.809,1.331,10.051
		c0.89,3.229,2.141,6.31,3.65,9.209c1.489,2.909,3.261,5.631,5.128,8.239c0.952,1.302,1.922,2.561,2.951,3.802l0.71,0.879
		c0.23,0.291,0.462,0.581,0.679,0.869c0.443,0.591,0.871,1.18,1.283,1.79c1.649,2.421,3.07,4.992,4.188,7.69
		c1.132,2.701,1.982,5.521,2.601,8.411c0.611,2.891,0.979,5.85,1.201,8.839c0.208,2.991,0.239,6.02,0.219,9.071
		c-0.011,3.1-0.108,6.059-0.398,9.04c-1.102,11.889-4.961,23.439-11.06,33.54c-3.052,5.051-6.643,9.75-10.682,14
		s-8.52,8.039-13.33,11.321c-4.81,3.269-9.971,5.988-15.32,8.168c-5.359,2.17-10.95,3.711-16.608,4.681
		c-5.65,1.019-11.4,1.64-17.182,1.56c-5.761-0.071-11.529-0.75-17.16-2.07c-11.26-2.621-21.949-7.759-31.1-14.971
		c-9.159-7.179-16.771-16.409-22.069-26.86c-5.319-10.429-8.309-22.09-8.69-33.859c-0.429-11.819,1.8-23.7,6.471-34.601
		c2.33-5.438,5.27-10.64,8.74-15.469c1.728-2.41,3.591-4.741,5.581-6.951c1.957-2.2,4.118-4.309,6.35-6.379
		c4.468-4.14,9.14-8.139,13.908-12.01c4.771-3.87,9.651-7.611,14.621-11.22c9.95-7.202,20.22-13.96,30.907-19.9
		c5.352-2.952,10.782-5.761,16.342-8.211c5.552-2.471,11.221-4.649,17.008-6.27l-0.008-0.04l0.05,0.01h0.341l0.778,0.021
		L166.558,17.068"/>
	<path fill="#964B00" d="M205.969,115.551c-0.618-2.891-1.469-5.71-2.601-8.411c-1.117-2.698-2.538-5.27-4.188-7.69
		c-0.412-0.61-0.84-1.199-1.283-1.79c-0.217-0.288-0.448-0.579-0.679-0.869l-0.71-0.879c-1.029-1.241-1.999-2.5-2.951-3.802
		c-1.867-2.608-3.639-5.33-5.128-8.239c-0.685-1.316-1.31-2.674-1.877-4.061c-4.796,1.506-10.001,0.67-15.005,0.349
		c-8.827-0.568-17.787-2.45-26.651-1.71c-8.927,0.746-18.271,3.104-27.633,3.137c-7.81,0.029-15.592-0.539-23.37-1.109
		c-9.286-0.679-18.57-1.357-27.898-1.021c-0.482,0.507-0.956,1.019-1.414,1.535c-1.99,2.209-3.854,4.541-5.581,6.951
		c-3.471,4.829-6.41,10.03-8.74,15.469c-4.671,10.901-6.899,22.781-6.471,34.601c0.382,11.77,3.371,23.431,8.69,33.859
		c5.299,10.452,12.91,19.682,22.069,26.86c9.15,7.212,19.84,12.35,31.1,14.971c5.631,1.32,11.399,1.999,17.16,2.07
		c5.781,0.08,11.531-0.541,17.182-1.56c5.658-0.969,11.249-2.51,16.608-4.681c5.35-2.181,10.511-4.9,15.32-8.168
		c4.811-3.282,9.291-7.07,13.33-11.321s7.63-8.95,10.682-14c6.099-10.101,9.958-21.651,11.06-33.54c0.29-2.98,0.388-5.94,0.398-9.04
		c0.021-3.052-0.011-6.08-0.219-9.071C206.948,121.401,206.58,118.441,205.969,115.551"/>
	<path fill="#231F20" d="M216.349,14.46l-0.05,0.05l-0.039,0.04l-0.062,0.061l-0.108,0.1l-1.721,1.47l-3.551,3.089
		c-0.18,0.161-0.359,0.32-0.528,0.48c-6.491-0.24-12.981-0.62-19.471-1.04l-13.899-0.961l-6.931-0.478l-3.432-0.203l-1.68-0.077
		L164.1,16.97h-0.341l-0.05-0.01v-0.029c-0.119,0.04-0.071,0.04,0,0.029l0.008,0.04c-5.787,1.621-11.456,3.799-17.008,6.27
		c-5.56,2.45-10.99,5.259-16.342,8.211c-10.688,5.94-20.957,12.699-30.907,19.9c-4.97,3.609-9.851,7.35-14.621,11.22
		c-4.769,3.871-9.44,7.87-13.908,12.01c-2.231,2.07-4.393,4.179-6.35,6.379c-1.99,2.209-3.854,4.541-5.581,6.951
		c-3.471,4.829-6.41,10.03-8.74,15.469c-4.671,10.901-6.899,22.781-6.471,34.601c0.382,11.77,3.371,23.431,8.69,33.859
		c5.299,10.452,12.91,19.682,22.069,26.86c9.15,7.212,19.84,12.35,31.1,14.971c5.631,1.32,11.399,1.999,17.16,2.07
		c5.781,0.08,11.531-0.541,17.182-1.56c5.658-0.969,11.249-2.51,16.608-4.681c5.35-2.181,10.511-4.9,15.32-8.168
		c4.811-3.282,9.291-7.07,13.33-11.321s7.63-8.95,10.682-14c6.099-10.101,9.958-21.651,11.06-33.54c0.29-2.98,0.388-5.94,0.398-9.04
		c0.021-3.052-0.011-6.08-0.219-9.071c-0.222-2.989-0.59-5.948-1.201-8.839c-0.618-2.891-1.469-5.71-2.601-8.411
		c-1.117-2.698-2.538-5.27-4.188-7.69c-0.412-0.61-0.84-1.199-1.283-1.79c-0.217-0.288-0.448-0.579-0.679-0.869l-0.71-0.879
		c-1.029-1.241-1.999-2.5-2.951-3.802c-1.867-2.608-3.639-5.33-5.128-8.239c-1.51-2.899-2.761-5.98-3.65-9.209
		c-0.869-3.242-1.36-6.632-1.331-10.051c0.021-3.419,0.541-6.851,1.481-10.141c0.93-3.289,2.278-6.431,3.868-9.38
		c1.592-2.96,3.421-5.739,5.391-8.38c3.96-5.259,8.479-9.91,13.121-14.24c0.99-0.93,1.979-1.83,2.98-2.72
		c2.561,0.101,5.119,0.169,7.678,0.222l-0.42-0.103h-0.019l-0.011-0.008h-0.008c-0.042-0.021-0.161-0.082-0.401-0.28
		c-0.161-0.14-0.37-0.351-0.618-0.71c-0.24-0.341-0.491-0.86-0.622-1.441c-0.13-0.589-0.13-1.18-0.051-1.629
		c0.08-0.451,0.211-0.75,0.301-0.95C216.251,14.6,216.33,14.491,216.349,14.46 M227.018,14.911c0.222,0.958,0.222,1.948,0.071,2.78
		c-0.14,0.829-0.391,1.5-0.649,2.049c-0.541,1.101-1.09,1.761-1.59,2.329c-0.25,0.271-0.501,0.522-0.73,0.731
		c-0.119,0.11-0.259,0.24-0.391,0.361l-0.27,0.219l-1.851,1.489l-3.56,2.901c-1.19,0.948-2.359,1.909-3.519,2.88
		c-4.642,3.868-9.101,7.81-13.061,12.089c-3.952,4.269-7.36,8.939-9.451,14.119c-1.051,2.582-1.74,5.291-2.01,8.052
		c-0.259,2.77-0.121,5.598,0.46,8.388c0.549,2.801,1.522,5.541,2.751,8.2c1.259,2.641,2.771,5.201,4.509,7.622
		c0.86,1.22,1.771,2.408,2.711,3.569l0.75,0.919c0.251,0.321,0.51,0.641,0.759,0.961c0.501,0.649,0.971,1.31,1.44,1.979
		c1.872,2.68,3.451,5.561,4.761,8.56c2.61,6.011,3.949,12.461,4.551,18.811c0.31,3.181,0.46,6.35,0.541,9.491
		c0.029,1.569,0.077,3.11,0.077,4.729c0.013,1.6-0.029,3.21-0.119,4.81c-0.332,6.41-1.37,12.801-3.052,19.04
		c-1.689,6.23-4.068,12.29-7.067,18.05c-6.009,11.521-14.581,21.799-25.03,29.78c-10.431,8.01-22.75,13.688-35.752,16.439
		c-6.519,1.301-13.2,1.682-19.807,1.431c-6.612-0.259-13.202-1.23-19.594-2.92c-12.798-3.36-24.788-9.57-34.878-17.981
		c-10.1-8.409-18.32-18.998-23.909-30.818c-5.61-11.811-8.552-24.822-8.609-37.832c-0.081-12.95,2.638-25.95,8.01-37.709
		c2.678-5.89,5.999-11.471,9.878-16.621c1.941-2.569,4.021-5.04,6.222-7.39c2.23-2.371,4.538-4.549,6.88-6.661
		c9.389-8.358,19.18-16.089,29.278-23.46c10.109-7.339,20.591-14.209,31.581-20.278c10.99-6.041,22.549-11.31,34.909-14.51
		l0.021,0.068c0.42-0.119,0.589-0.14,0.8-0.179l0.528-0.1l0.95-0.13l1.801-0.229c1.19-0.13,2.358-0.251,3.538-0.359
		c2.344-0.211,4.672-0.411,7.014-0.572c4.66-0.359,9.317-0.618,13.978-0.869c9.311-0.459,18.62-0.75,27.932-0.62h0.56l0.518,0.121
		c0.24,0.05,0.271,0.059,0.391,0.09l0.282,0.079c0.18,0.051,0.349,0.101,0.521,0.161c0.338,0.108,0.679,0.24,1.038,0.399
		c0.712,0.322,1.491,0.721,2.399,1.481c0.451,0.391,0.939,0.879,1.401,1.56C226.39,13.079,226.81,13.95,227.018,14.911"/>
	<polygon fill="#231F20" points="217.529,19.87 217.479,19.86 217.51,19.86 217.519,19.86 	"/>
	<path fill="#231F20" d="M217.109,19.58c0.24,0.2,0.359,0.26,0.4,0.28h-0.031l0.051,0.01h0.02l0.42,0.101
		c-2.559-0.051-5.119-0.121-7.68-0.221c0.17-0.16,0.35-0.319,0.53-0.48l3.549-3.09l1.722-1.47l0.109-0.1l0.061-0.061l0.039-0.04
		l0.051-0.05c-0.02,0.03-0.1,0.14-0.23,0.39c-0.09,0.2-0.221,0.5-0.3,0.95c-0.079,0.45-0.079,1.04,0.049,1.631
		c0.132,0.579,0.382,1.099,0.622,1.439C216.74,19.23,216.948,19.44,217.109,19.58z"/>
	<path fill="#231F20" d="M163.709,16.931v0.029C163.639,16.971,163.59,16.971,163.709,16.931z"/>
	<path fill="#7A3A00" d="M186.678,80.998c0,4.776-27.246,8.647-60.859,8.647c-33.608,0-60.855-3.871-60.855-8.647
		c0-4.774,27.247-8.647,60.855-8.647C159.432,72.351,186.678,76.224,186.678,80.998"/>
	<path fill="#964B00" d="M126.846,82.872c0-5.947-4.82-10.767-10.765-10.767c-5.948,0-10.77,4.82-10.77,10.767
		C112.842,85.585,122.819,84.528,126.846,82.872"/>
	<path fill="#AB6F33" d="M115.112,73.82c-0.712,0-1.428,0.13-2.114,0.375c-0.983,0.351-1.9,0.95-2.627,1.725
		c-0.731,0.775-1.266,1.713-1.579,2.699c-0.308,0.986-0.435,2.032-0.224,3.037c0.407-0.928,0.827-1.77,1.299-2.559
		c0.47-0.788,0.994-1.508,1.598-2.147c0.602-0.639,1.283-1.201,2.047-1.692c0.763-0.497,1.608-0.911,2.521-1.364
		C115.729,73.845,115.421,73.82,115.112,73.82"/>
	<path fill="#964B00" d="M143.549,77.197c0-4.896-3.966-8.864-8.862-8.864c-4.897,0-8.868,3.968-8.868,8.864
		C132.018,79.432,140.234,78.561,143.549,77.197"/>
	<path fill="#AB6F33" d="M133.893,69.742c-0.588,0-1.178,0.107-1.743,0.309c-0.812,0.289-1.566,0.784-2.166,1.42
		c-0.602,0.639-1.042,1.412-1.302,2.223c-0.25,0.812-0.354,1.675-0.182,2.502c0.334-0.765,0.681-1.458,1.069-2.107
		c0.387-0.649,0.819-1.241,1.316-1.77c0.495-0.526,1.057-0.987,1.686-1.391c0.626-0.412,1.324-0.752,2.076-1.126
		C134.397,69.762,134.146,69.742,133.893,69.742"/>
	<path fill="#964B00" d="M159.078,81.976c0-3.147-2.55-5.7-5.698-5.7c-3.149,0-5.699,2.553-5.699,5.7
		C151.666,83.41,156.947,82.851,159.078,81.976"/>
	<path fill="#AB6F33" d="M152.87,77.184c-0.379,0-0.758,0.068-1.121,0.199c-0.522,0.184-1.007,0.501-1.391,0.913
		c-0.389,0.412-0.673,0.906-0.838,1.428c-0.161,0.522-0.229,1.076-0.119,1.608c0.215-0.491,0.438-0.938,0.691-1.355
		c0.246-0.416,0.524-0.798,0.842-1.136c0.321-0.338,0.681-0.635,1.084-0.896c0.403-0.263,0.853-0.482,1.335-0.723
		C153.193,77.196,153.031,77.184,152.87,77.184"/>
	<path fill="#964B00" d="M88.434,78.953c0-2.185-1.773-3.96-3.958-3.96c-2.188,0-3.962,1.775-3.962,3.96
		C83.283,79.952,86.951,79.563,88.434,78.953"/>
	<path fill="#AB6F33" d="M84.121,75.625c-0.264,0-0.528,0.047-0.781,0.137c-0.363,0.13-0.7,0.351-0.968,0.635
		c-0.267,0.286-0.464,0.631-0.578,0.992c-0.115,0.363-0.161,0.75-0.084,1.118c0.148-0.34,0.304-0.65,0.479-0.94
		c0.173-0.29,0.366-0.556,0.587-0.792c0.224-0.233,0.473-0.44,0.754-0.62c0.279-0.184,0.592-0.336,0.926-0.503
		C84.344,75.634,84.232,75.625,84.121,75.625"/>
	<path fill="#231F20" d="M125.506,179.231c-25.736,0-49.945-1.05-68.174-2.955c-8.949-0.936-16.006-2.031-20.973-3.259
		c-5.09-1.258-9.801-2.952-9.801-6.791c0-3.859,4.385-6.054,16.18-8.1l1.016,5.858c-4.893,0.849-7.766,1.645-9.428,2.241
		c3.086,1.105,10.355,2.898,27.064,4.48c17.58,1.663,40.35,2.58,64.115,2.58c23.768,0,46.537-0.917,64.114-2.58
		c16.739-1.584,24.005-3.382,27.08-4.486c-1.759-0.631-4.896-1.485-10.425-2.402l0.973-5.865
		c12.543,2.081,17.207,4.323,17.207,8.274c0,3.839-4.711,5.533-9.804,6.791c-4.966,1.228-12.021,2.323-20.972,3.259
		C175.452,178.182,151.242,179.231,125.506,179.231z"/>
	<polygon fill="#231F20" points="128.479,176.259 135.057,285.996 115.955,285.996 122.532,176.259 	"/>
</g>
</svg>
