<?xml version="1.0" encoding="utf-8"?>
<!-- Generator: Adobe Illustrator 15.0.0, SVG Export Plug-In . SVG Version: 6.00 Build 0)  -->
<!DOCTYPE svg PUBLIC "-//W3C//DTD SVG 1.1//EN" "http://www.w3.org/Graphics/SVG/1.1/DTD/svg11.dtd">
<svg version="1.1" id="Layer_1" xmlns="http://www.w3.org/2000/svg" xmlns:xlink="http://www.w3.org/1999/xlink" x="0px" y="0px"
	 width="242px" height="298.49px" viewBox="0 0 242 298.49" enable-background="new 0 0 242 298.49" xml:space="preserve">
<g>
	<path fill="#D6D6D7" d="M121.904,255.835c-43.787,0-79.281,3.426-79.281,7.654c0,4.228,35.494,7.654,79.281,7.654
		s79.281-3.426,79.281-7.654C201.186,259.261,165.691,255.835,121.904,255.835"/>
	<polygon fill="#231F20" points="210.027,173.197 236.318,269.651 218.039,269.651 204.209,174.415 	"/>
	<polygon fill="#231F20" points="36.377,174.415 20.02,269.651 6.795,269.651 30.559,173.197 	"/>
	<path fill="#F5F5F5" d="M200.73,129c0.471,4.721,0.279,9.56-0.119,14.51c-0.22,2.479-0.49,4.98-0.781,7.52
		c-0.15,1.26-0.289,2.421-0.48,3.652c-0.18,1.21-0.389,2.418-0.619,3.629c-0.949,4.82-2.33,9.581-4.22,14.151
		c-1.88,4.569-4.261,8.93-7.021,13.029c-1.391,2.049-2.88,4.02-4.45,5.931c-1.589,1.899-3.259,3.719-5.009,5.459
		c-3.489,3.489-7.33,6.629-11.391,9.41c-4.07,2.781-8.358,5.221-12.84,7.229c-4.461,2.041-9.111,3.68-13.861,4.881
		c-9.5,2.411-19.42,3.051-29.138,1.921c-9.761-1.111-19.241-3.92-27.922-8.361c-8.669-4.431-16.519-10.45-23.04-17.66
		c-6.53-7.2-11.74-15.58-15.289-24.591c-1.781-4.509-3.15-9.168-4.08-13.91c-0.472-2.379-0.68-4.79-0.9-7.189
		c-0.199-2.401-0.52-4.791-0.66-7.209c-0.091-1.21-0.15-2.411-0.17-3.631c-0.039-1.21-0.061-2.43-0.051-3.641
		c0.012-1.22,0.061-2.439,0.121-3.659c0.029-0.611,0.061-1.22,0.1-1.831l0.15-1.89c0.391-5.069,0.9-10.009,2.009-14.801
		c1.11-4.768,2.86-9.349,5.45-13.45c1.281-2.059,2.762-3.979,4.4-5.768c0.819-0.902,1.68-1.75,2.57-2.581l2.84-2.601
		c3.801-3.491,7.649-6.931,11.42-10.479c3.782-3.541,7.561-7.11,11.201-10.881c3.649-3.759,7.189-7.7,10.369-12.079
		c1.589-2.191,3.071-4.5,4.359-7.001c1.281-2.499,2.361-5.189,3.031-8.079c0.671-2.89,0.889-5.992,0.49-9.05
		c-0.381-3.051-1.352-6.011-2.701-8.671c-0.739-1.471-1.59-2.861-2.511-4.169l19.261,3.099l24.34,3.98l12.191,1.931l12.189,1.829
		l12.208,1.741l4.683,0.63c-0.15,0.14-0.301,0.28-0.451,0.429c-1.939,1.931-3.721,4.171-5.07,6.691
		c-1.369,2.51-2.309,5.27-2.769,8.029c-0.45,2.771-0.44,5.521-0.151,8.13c0.291,2.62,0.891,5.109,1.621,7.49
		c1.479,4.77,3.559,9.13,5.83,13.301l-0.071,0.028c2.262,4.771,4.611,9.422,7.021,14.041c2.43,4.59,4.91,9.14,7.42,13.661
		l3.791,6.76c0.609,1.109,1.318,2.291,1.799,3.259c0.551,1.051,1.041,2.12,1.509,3.2C199.17,119.711,200.27,124.289,200.73,129"/>
	<path fill="#704214" d="M200.73,129c-0.461-4.711-1.561-9.289-3.392-13.63c-0.468-1.08-0.958-2.148-1.509-3.2
		c-0.48-0.969-1.189-2.15-1.799-3.259l-3.791-6.76c-2.51-4.521-4.99-9.071-7.42-13.661c-1.594-3.058-3.15-6.143-4.684-9.253
		c-1.568,0.548-3.184,0.904-4.715,1.078c-5.247,0.597-10.465,0.009-15.68-0.58c-5.383-0.607-10.764-1.214-16.168-0.519
		c-10.494,1.352-21.016,2.951-31.605,3.33c-9.443,0.339-18.898-0.393-28.328-0.895c-5.666-0.3-11.541-0.561-17.236-1.491
		c-2.688,2.472-5.389,4.925-8.074,7.39l-2.84,2.601c-0.891,0.831-1.751,1.679-2.57,2.581c-1.639,1.789-3.119,3.709-4.4,5.768
		c-2.59,4.102-4.34,8.683-5.45,13.45c-1.108,4.792-1.618,9.732-2.009,14.801l-0.15,1.89c-0.039,0.611-0.07,1.22-0.1,1.831
		c-0.061,1.22-0.109,2.439-0.121,3.659c-0.01,1.21,0.012,2.431,0.051,3.641c0.02,1.22,0.079,2.42,0.17,3.631
		c0.141,2.418,0.461,4.808,0.66,7.209c0.221,2.399,0.429,4.81,0.9,7.189c0.93,4.741,2.299,9.4,4.08,13.91
		c3.549,9.012,8.759,17.391,15.289,24.591c6.521,7.21,14.371,13.229,23.04,17.66c8.681,4.441,18.161,7.25,27.922,8.361
		c9.718,1.13,19.638,0.49,29.138-1.921c4.75-1.201,9.4-2.84,13.861-4.881c4.481-2.009,8.77-4.449,12.84-7.229
		c4.061-2.78,7.901-5.921,11.391-9.41c1.75-1.741,3.42-3.56,5.009-5.459c1.57-1.911,3.06-3.882,4.45-5.931
		c2.76-4.1,5.141-8.46,7.021-13.029c1.89-4.57,3.271-9.331,4.22-14.151c0.23-1.21,0.439-2.418,0.619-3.629
		c0.191-1.231,0.33-2.392,0.48-3.652c0.291-2.539,0.562-5.04,0.781-7.52C201.01,138.56,201.201,133.721,200.73,129"/>
	<path fill="#231F20" d="M183.791,31.271l-6.93-0.92c0.828-0.811,1.709-1.561,2.59-2.26c0.529-0.41,1.059-0.82,1.59-1.2l0.85-0.58
		l0.75-0.51l0.08-0.05c-0.09,0.11-0.211,0.28-0.35,0.55c-0.121,0.22-0.23,0.52-0.32,0.9c-0.08,0.37-0.111,0.81-0.07,1.25
		c0.029,0.44,0.141,0.85,0.27,1.18c0.131,0.34,0.281,0.59,0.41,0.78c0.26,0.37,0.43,0.5,0.5,0.58l0.07,0.06l0.01,0.009
		L183.791,31.271z"/>
	<path fill="#231F20" d="M182.749,25.721c0.161-0.121,0.231-0.221,0.1-0.109L182.749,25.721 M88.169,7.351l24.48,3.001l24.501,2.93
		l12.231,1.53l12.23,1.629l12.198,1.729l12.879,1.921l0.772,0.3l0.199,0.09l0.379,0.168c0.241,0.121,0.479,0.241,0.72,0.381
		c0.48,0.27,0.971,0.59,1.51,1.019c0.531,0.431,1.121,0.971,1.711,1.821c0.289,0.419,0.581,0.919,0.82,1.53
		c0.241,0.6,0.42,1.301,0.48,2.021c0.068,0.72,0.01,1.459-0.131,2.12c-0.141,0.649-0.359,1.229-0.599,1.71
		c-0.48,0.959-1.011,1.589-1.491,2.089c-0.962,0.971-1.76,1.49-2.51,1.949l-0.721,0.422l-0.6,0.369
		c-0.43,0.261-0.839,0.53-1.251,0.801c-0.81,0.549-1.579,1.13-2.3,1.738c-2.91,2.43-5,5.291-6,8.832
		c-1.039,3.52-0.969,7.669-0.279,11.89c0.711,4.23,2,8.55,3.52,12.809l0.069-0.028c0.98,2.31,2.091,4.579,3.28,6.819
		c0.602,1.12,1.211,2.23,1.83,3.339c0.631,1.101,1.281,2.2,1.932,3.29c1.29,2.2,2.629,4.382,4,6.542
		c1.359,2.16,2.75,4.311,4.149,6.459l4.239,6.439c0.711,1.092,1.391,2.07,2.16,3.361c0.721,1.189,1.4,2.409,2.009,3.66
		c2.481,5.009,4.062,10.521,4.701,16.029c0.661,5.521,0.479,11.03-0.149,16.31c-0.301,2.65-0.711,5.251-1.15,7.811
		c-0.209,1.281-0.48,2.66-0.761,3.96c-0.291,1.321-0.608,2.631-0.948,3.929c-1.401,5.201-3.249,10.26-5.471,15.13
		c-2.221,4.872-4.82,9.571-7.801,14.009c-1.49,2.222-3.07,4.382-4.75,6.461c-1.66,2.101-3.42,4.119-5.26,6.061
		c-3.699,3.879-7.719,7.449-12.049,10.639c-4.33,3.181-8.971,5.94-13.811,8.28c-4.859,2.331-9.939,4.199-15.141,5.611
		c-10.42,2.809-21.359,3.7-32.119,2.608c-10.711-1.04-21.34-3.989-31.061-8.778c-9.741-4.782-18.6-11.371-26.02-19.31
		c-7.421-7.941-13.41-17.23-17.561-27.311c-2.08-5.04-3.699-10.27-4.841-15.611c-0.56-2.669-1.158-5.34-1.509-8.06
		c-0.359-2.709-0.381-5.459-0.351-8.19c0.04-1.369,0.1-2.729,0.189-4.09c0.111-1.359,0.251-2.709,0.412-4.058
		c0.169-1.352,0.358-2.702,0.599-4.031c0.121-0.67,0.25-1.34,0.382-2.001l0.409-1.93c1.08-5.109,2.331-10.338,4.148-15.44
		c1.802-5.09,4.14-10.068,7.201-14.59c1.529-2.26,3.23-4.398,5.081-6.399c0.919-1,1.888-1.95,2.888-2.871l2.852-2.619
		c7.549-6.961,15.021-14.01,21.771-21.551c3.339-3.79,6.528-7.688,9.169-11.8c2.629-4.1,4.76-8.439,5.509-12.759
		c0.36-2.151,0.391-4.261,0.021-6.3c-0.359-2.04-1.101-4.02-2.169-5.9c-1.07-1.881-2.411-3.69-3.97-5.391l-0.65-0.689
		c-0.361-0.41-0.631-0.75-0.96-1.22c-0.321-0.471-0.64-0.99-0.931-1.731c-0.279-0.72-0.561-1.71-0.438-2.989
		c0.06-0.63,0.239-1.3,0.519-1.9c0.279-0.61,0.649-1.13,1.029-1.539c0.771-0.831,1.521-1.26,2.159-1.58
		c0.651-0.311,1.222-0.49,1.76-0.63c0.272-0.071,0.532-0.121,0.803-0.171l0.399-0.061l0.219-0.029l0.301-0.03L87.6,7.28
		L88.169,7.351 M88.749,13l0.021,0.041L88.749,13 M88.791,13.07c0.049,0.121,0.189,0.46,0.129,1.1c-0.02,0.3-0.109,0.66-0.261,0.98
		c-0.14,0.31-0.329,0.559-0.49,0.741c-0.277,0.299-0.458,0.41-0.538,0.45l-0.731-0.021l5.09,0.821
		c0.921,1.308,1.771,2.698,2.511,4.169c1.35,2.66,2.32,5.62,2.701,8.671c0.398,3.058,0.181,6.16-0.49,9.05
		c-0.67,2.89-1.75,5.58-3.031,8.079c-1.288,2.501-2.771,4.81-4.359,7.001c-3.18,4.379-6.72,8.32-10.369,12.079
		c-3.641,3.771-7.419,7.34-11.201,10.881c-3.771,3.548-7.619,6.987-11.42,10.479l-2.84,2.601c-0.891,0.831-1.751,1.679-2.57,2.581
		c-1.639,1.789-3.119,3.709-4.4,5.768c-2.59,4.102-4.34,8.683-5.45,13.45c-1.108,4.792-1.618,9.732-2.009,14.801l-0.15,1.89
		c-0.039,0.611-0.07,1.22-0.1,1.831c-0.061,1.22-0.109,2.439-0.121,3.659c-0.01,1.21,0.012,2.431,0.051,3.641
		c0.02,1.22,0.079,2.42,0.17,3.631c0.141,2.418,0.461,4.808,0.66,7.209c0.221,2.399,0.429,4.81,0.9,7.189
		c0.93,4.741,2.299,9.4,4.08,13.91c3.549,9.012,8.759,17.391,15.289,24.591c6.521,7.21,14.371,13.229,23.04,17.66
		c8.681,4.441,18.161,7.25,27.922,8.361c9.718,1.13,19.638,0.49,29.138-1.921c4.75-1.201,9.4-2.84,13.861-4.881
		c4.481-2.009,8.77-4.449,12.84-7.229c4.061-2.78,7.901-5.921,11.391-9.41c1.75-1.741,3.42-3.56,5.009-5.459
		c1.57-1.911,3.06-3.882,4.45-5.931c2.76-4.1,5.141-8.46,7.021-13.029c1.89-4.57,3.271-9.331,4.22-14.151
		c0.23-1.21,0.439-2.418,0.619-3.629c0.191-1.231,0.33-2.392,0.48-3.652c0.291-2.539,0.562-5.04,0.781-7.52
		c0.398-4.95,0.59-9.789,0.119-14.51c-0.461-4.711-1.561-9.289-3.392-13.63c-0.468-1.08-0.958-2.148-1.509-3.2
		c-0.48-0.969-1.189-2.15-1.799-3.259l-3.791-6.76c-2.51-4.521-4.99-9.071-7.42-13.661c-2.409-4.619-4.759-9.27-7.021-14.041
		l0.071-0.028c-2.271-4.171-4.352-8.531-5.83-13.301c-0.73-2.381-1.33-4.87-1.621-7.49c-0.289-2.61-0.299-5.36,0.151-8.13
		c0.46-2.76,1.399-5.519,2.769-8.029c1.35-2.521,3.131-4.761,5.07-6.691c0.15-0.149,0.301-0.289,0.451-0.429l6.93,0.919l-0.552-0.21
		l-0.009-0.01l-0.069-0.06c-0.071-0.08-0.241-0.211-0.5-0.58c-0.13-0.189-0.28-0.44-0.411-0.779c-0.129-0.332-0.24-0.739-0.269-1.18
		c-0.042-0.44-0.012-0.881,0.069-1.25c0.09-0.381,0.199-0.68,0.321-0.9c0.138-0.271,0.259-0.44,0.349-0.552l-0.08,0.052l-0.75,0.51
		l-0.85,0.58c-0.53,0.379-1.061,0.791-1.59,1.2c-0.881,0.699-1.762,1.45-2.59,2.26l-4.683-0.63l-12.208-1.741l-12.189-1.829
		l-12.191-1.931l-24.34-3.98l-19.261-3.099c-0.749-1.061-1.55-2.082-2.368-3.051l-0.641-0.75L88.791,13.07"/>
	<path fill="#231F20" d="M88.92,14.17c0.061-0.64-0.08-0.98-0.129-1.1l0.189,0.27l0.641,0.75c0.818,0.969,1.619,1.99,2.369,3.05
		l-5.09-0.82l0.73,0.02l-0.041,0.03h0.061l0.15-0.02l-0.17-0.01c0.08-0.04,0.26-0.15,0.539-0.45c0.16-0.181,0.35-0.43,0.49-0.74
		C88.811,14.83,88.9,14.47,88.92,14.17z"/>
	<polygon fill="#231F20" points="87.59,16.37 87.631,16.34 87.801,16.351 87.65,16.37 	"/>
	<path fill="#60350E" d="M179.061,81.135c0,4.775-25.591,8.647-57.156,8.647S64.75,85.91,64.75,81.135
		c0-4.774,25.589-8.646,57.154-8.646S179.061,76.36,179.061,81.135"/>
	<path fill="#704214" d="M93.651,77.098c0-2.547-2.062-4.609-4.608-4.609s-4.609,2.062-4.609,4.609
		C87.656,78.258,91.93,77.807,93.651,77.098"/>
	<path fill="#8D6843" d="M88.635,73.222c-0.307,0-0.615,0.056-0.91,0.161c-0.421,0.149-0.813,0.406-1.126,0.739
		c-0.312,0.331-0.542,0.733-0.678,1.155c-0.13,0.423-0.184,0.872-0.092,1.3c0.173-0.396,0.353-0.758,0.554-1.096
		c0.201-0.337,0.427-0.645,0.684-0.919c0.26-0.273,0.551-0.515,0.877-0.724c0.325-0.215,0.689-0.391,1.08-0.586
		C88.895,73.232,88.766,73.222,88.635,73.222"/>
	<path fill="#704214" d="M111.152,83.086c0-2.547-2.062-4.611-4.609-4.611c-2.545,0-4.609,2.064-4.609,4.611
		C105.156,84.246,109.431,83.794,111.152,83.086"/>
	<path fill="#8D6843" d="M106.129,79.209c-0.305,0-0.611,0.056-0.904,0.16c-0.422,0.151-0.814,0.408-1.125,0.739
		c-0.312,0.331-0.542,0.733-0.678,1.154c-0.131,0.423-0.186,0.872-0.094,1.3c0.174-0.396,0.354-0.756,0.555-1.095
		c0.201-0.337,0.426-0.646,0.684-0.919c0.261-0.274,0.552-0.514,0.877-0.724c0.326-0.212,0.689-0.391,1.08-0.584
		C106.393,79.219,106.262,79.209,106.129,79.209"/>
	<path fill="#704214" d="M135.152,74.436c0-2.545-2.062-4.607-4.609-4.607c-2.545,0-4.609,2.062-4.609,4.607
		C129.156,75.599,133.43,75.146,135.152,74.436"/>
	<path fill="#8D6843" d="M130.131,70.562c-0.305,0-0.613,0.056-0.906,0.162c-0.423,0.149-0.815,0.406-1.125,0.737
		c-0.312,0.333-0.543,0.733-0.678,1.157c-0.131,0.421-0.187,0.869-0.095,1.3c0.175-0.398,0.354-0.758,0.556-1.097
		c0.201-0.337,0.425-0.644,0.684-0.919c0.26-0.272,0.551-0.513,0.877-0.724c0.326-0.212,0.689-0.389,1.08-0.584
		C130.394,70.571,130.263,70.562,130.131,70.562"/>
	<path fill="#704214" d="M152.652,83.496c0-3.702-3.001-6.7-6.698-6.7c-3.702,0-6.702,2.999-6.702,6.7
		C143.938,85.183,150.146,84.526,152.652,83.496"/>
	<path fill="#8D6843" d="M145.352,77.862c-0.443,0-0.89,0.081-1.316,0.233c-0.613,0.218-1.184,0.592-1.635,1.074
		c-0.455,0.48-0.789,1.064-0.984,1.68c-0.189,0.612-0.269,1.264-0.137,1.89c0.251-0.578,0.514-1.103,0.807-1.593
		s0.618-0.938,0.994-1.336c0.375-0.396,0.798-0.747,1.273-1.052c0.475-0.31,1.003-0.566,1.57-0.85
		C145.734,77.877,145.543,77.862,145.352,77.862"/>
	<path fill="#231F20" d="M119.533,182.704c-25.734,0-49.947-1.05-68.174-2.955c-8.951-0.936-16.006-2.032-20.973-3.26
		c-5.092-1.258-9.801-2.951-9.801-6.791c0-3.858,4.385-6.054,16.178-8.1l1.018,5.857c-4.895,0.849-7.766,1.646-9.428,2.242
		c3.086,1.104,10.355,2.898,27.064,4.479c17.58,1.664,40.35,2.58,64.115,2.58s46.535-0.916,64.117-2.58
		c16.738-1.584,24.002-3.381,27.078-4.485c-1.76-0.631-4.895-1.485-10.426-2.402l0.971-5.865c12.545,2.08,17.207,4.322,17.207,8.273
		c0,3.84-4.711,5.533-9.801,6.791c-4.967,1.228-12.023,2.324-20.973,3.26C169.48,181.654,145.27,182.704,119.533,182.704z"/>
	<polygon fill="#231F20" points="122.506,179.731 129.084,289.469 109.982,289.469 116.561,179.731 	"/>
</g>
</svg>
