<?xml version="1.0" encoding="utf-8"?>
<!-- Generator: Adobe Illustrator 15.0.0, SVG Export Plug-In . SVG Version: 6.00 Build 0)  -->
<!DOCTYPE svg PUBLIC "-//W3C//DTD SVG 1.1//EN" "http://www.w3.org/Graphics/SVG/1.1/DTD/svg11.dtd">
<svg version="1.1" id="Layer_1" xmlns="http://www.w3.org/2000/svg" xmlns:xlink="http://www.w3.org/1999/xlink" x="0px" y="0px"
	 width="186px" height="236px" viewBox="0 0 186 236" enable-background="new 0 0 186 236" xml:space="preserve">
<g>
	<path fill="#D6D6D7" d="M91.5,210.622c-30.761,0-55.697,2.407-55.697,5.377c0,2.969,24.937,5.377,55.697,5.377
		s55.695-2.408,55.695-5.377C147.195,213.029,122.261,210.622,91.5,210.622"/>
	<path fill="#F5F5F5" d="M64.975,16.34c4.42,1.53,8.702,3.63,12.871,5.959c4.18,2.34,8.24,4.98,12.209,7.74
		c3.971,2.781,7.83,5.739,11.602,8.82c3.77,3.071,7.448,6.27,11.061,9.56c3.598,3.29,7.098,6.7,10.499,10.19
		c1.7,1.75,3.36,3.53,4.98,5.33c1.618,1.799,3.229,3.63,4.681,5.46c5.81,7.399,10.029,16.009,12.658,25.06
		c1.311,4.529,2.221,9.18,2.752,13.86c0.51,4.689,0.629,9.42,0.369,14.121c-0.512,9.398-2.551,18.678-6.15,27.26
		c-3.58,8.569-8.72,16.45-15.24,22.789c-6.49,6.331-14.4,11.06-22.889,13.202c-4.25,1.068-8.602,1.519-12.961,1.308
		c-2.15-0.109-4.32-0.369-6.439-0.778c-2.131-0.432-4.23-0.93-6.32-1.551c-4.17-1.239-8.2-3.109-11.971-5.489
		c-3.77-2.38-7.31-5.221-10.499-8.479c-6.391-6.511-11.472-14.51-14.981-23.221c-3.52-8.71-5.47-18.15-5.77-27.69
		c-0.149-4.881-0.18-9.73,0.271-14.45c0.24-2.36,0.58-4.7,1.099-6.98c0.521-2.291,1.2-4.52,2.071-6.68
		c0.869-2.151,1.928-4.22,3.158-6.179l0.471-0.731l0.51-0.77l1.039-1.628c0.681-1.081,1.33-2.191,1.951-3.321
		c2.5-4.511,4.49-9.42,5.539-14.66c0.52-2.621,0.791-5.321,0.76-8.039c-0.029-2.71-0.329-5.441-0.91-8.102
		c-1.158-5.329-3.369-10.348-6.039-14.919c-2.689-4.58-5.892-8.72-9.22-12.581c-0.501-0.589-1.008-1.17-1.521-1.739
		c3.85-0.229,7.7-0.539,11.551-0.89l9.789-0.95l4.871-0.48l2.4-0.218l1.15-0.091l0.518-0.031L64.975,16.34"/>
	<path fill="#C3B091" d="M146.852,99.734c-1.17,0.313-2.377,0.466-3.594,0.424c-21.527-0.715-43.231-3.013-64.767-2.716
		c-14.069,0.192-28.034,3.434-42.006,2.462c-0.345,1.788-0.593,3.606-0.778,5.437c-0.451,4.72-0.421,9.569-0.271,14.45
		c0.3,9.54,2.25,18.98,5.77,27.69c3.51,8.711,8.591,16.71,14.981,23.221c3.189,3.259,6.729,6.099,10.499,8.479
		c3.771,2.38,7.801,4.25,11.971,5.489c2.09,0.621,4.189,1.119,6.32,1.551c2.119,0.409,4.289,0.669,6.439,0.778
		c4.359,0.211,8.711-0.24,12.961-1.308c8.488-2.142,16.398-6.871,22.889-13.202c6.521-6.339,11.66-14.22,15.24-22.789
		c3.6-8.582,5.639-17.861,6.15-27.26c0.26-4.7,0.141-9.431-0.369-14.121C147.959,105.438,147.472,102.572,146.852,99.734"/>
	<path fill="#231F20" d="M29.696,13.709l0.04,0.051L29.696,13.709 M29.766,13.789l-0.021-0.029c0.04,0.069,0.101,0.181,0.191,0.381
		c0.129,0.32,0.329,0.959,0.24,1.851c-0.04,0.44-0.171,0.898-0.341,1.299c-0.18,0.39-0.4,0.71-0.59,0.939
		c-0.399,0.471-0.68,0.631-0.84,0.732c-0.092,0.049-0.151,0.08-0.2,0.109l-0.091,0.031l-0.061,0.021c-0.049,0.02,0,0.009-0.199,0.06
		l-0.541,0.14c2.431-0.062,4.871-0.171,7.301-0.311c0.513,0.569,1.02,1.15,1.521,1.739c3.328,3.861,6.53,8.001,9.22,12.581
		c2.67,4.571,4.881,9.59,6.039,14.919c0.581,2.661,0.881,5.392,0.91,8.102c0.031,2.718-0.24,5.418-0.76,8.039
		c-1.049,5.24-3.039,10.149-5.539,14.66c-0.621,1.13-1.271,2.24-1.951,3.321L43.016,84l-0.51,0.77l-0.471,0.731
		c-1.23,1.959-2.289,4.028-3.158,6.179c-0.871,2.16-1.551,4.389-2.071,6.68c-0.519,2.28-0.858,4.62-1.099,6.98
		c-0.451,4.72-0.421,9.569-0.271,14.45c0.3,9.54,2.25,18.98,5.77,27.69c3.51,8.711,8.591,16.71,14.981,23.221
		c3.189,3.259,6.729,6.099,10.499,8.479c3.771,2.38,7.801,4.25,11.971,5.489c2.09,0.621,4.189,1.119,6.32,1.551
		c2.119,0.409,4.289,0.669,6.439,0.778c4.359,0.211,8.711-0.24,12.961-1.308c8.488-2.142,16.398-6.871,22.889-13.202
		c6.521-6.339,11.66-14.22,15.24-22.789c3.6-8.582,5.639-17.861,6.15-27.26c0.26-4.7,0.141-9.431-0.369-14.121
		c-0.531-4.68-1.441-9.331-2.752-13.86c-2.629-9.051-6.849-17.661-12.658-25.06c-1.451-1.83-3.062-3.661-4.681-5.46
		c-1.62-1.799-3.28-3.579-4.98-5.33c-3.401-3.49-6.901-6.9-10.499-10.19c-3.612-3.29-7.291-6.489-11.061-9.56
		c-3.771-3.081-7.631-6.04-11.602-8.82c-3.969-2.76-8.029-5.4-12.209-7.74c-4.169-2.329-8.451-4.429-12.871-5.959l0.103-0.011
		l0.028-0.009c-0.01-0.011-0.061-0.02-0.17-0.071l-0.019,0.071l0.058,0.02l-0.08,0.009l-0.518,0.031l-1.15,0.091l-2.4,0.218
		l-4.871,0.48l-9.789,0.95c-3.851,0.351-7.701,0.66-11.551,0.89c-0.33-0.369-0.668-0.741-1-1.11l-2.56-2.76L29.766,13.789
		 M29.676,13.691l0.01,0.009v-0.009H29.676 M156.146,107.32c0.731,5.111,1.041,10.27,0.94,15.43
		c-0.209,10.319-2.1,20.669-5.789,30.44c-3.691,9.759-9.201,18.961-16.581,26.671c-3.69,3.848-7.85,7.309-12.43,10.199
		c-4.58,2.889-9.591,5.189-14.87,6.731c-5.271,1.539-10.819,2.298-16.32,2.229c-2.782-0.04-5.529-0.269-8.27-0.729
		c-2.74-0.43-5.42-1.17-8.021-2.1c-5.189-1.88-10.048-4.511-14.449-7.661c-4.409-3.15-8.33-6.869-11.779-10.909
		c-6.891-8.112-11.82-17.572-14.961-27.42c-3.141-9.881-4.5-20.182-4.319-30.371c0.13-4.99,0.27-10.03,0.93-15.11
		c0.659-5.079,1.831-10.19,3.87-15.01c1-2.409,2.219-4.738,3.631-6.94l0.538-0.819l0.512-0.77c0.339-0.5,0.64-0.98,0.95-1.49
		c0.62-1.01,1.209-2.04,1.77-3.081c2.18-4.16,3.74-8.62,4.221-13.139c0.5-4.511-0.072-9.011-1.602-13.18
		c-1.5-4.19-3.859-8.061-6.658-11.691c-2.801-3.628-5.992-7.049-9.352-10.439c-0.84-0.85-1.689-1.69-2.549-2.541l-2.592-2.551
		l-1.308-1.288l-0.231-0.231l-0.32-0.36c-0.18-0.209-0.38-0.44-0.571-0.698c-0.39-0.521-0.808-1.152-1.179-2.051
		c-0.359-0.89-0.699-2.151-0.55-3.659c0.078-0.741,0.29-1.511,0.59-2.182c0.3-0.679,0.691-1.259,1.079-1.719
		c0.791-0.95,1.581-1.49,2.281-1.889c0.35-0.2,0.689-0.36,1.03-0.512c0.169-0.069,0.341-0.14,0.509-0.2l0.292-0.089
		c0.12-0.04,0.138-0.051,0.419-0.131l0.631-0.169l0.679-0.011c6.591-0.109,13.171,0.2,19.761,0.672c3.301,0.26,6.6,0.519,9.898,0.87
		c1.652,0.169,3.312,0.37,4.972,0.581c0.839,0.1,1.669,0.209,2.519,0.349l1.311,0.209l0.721,0.131l0.42,0.089l0.28,0.071
		c0.108,0.029,0.251,0.069,0.46,0.14l0.029-0.071c4.93,1.559,9.609,3.65,14.08,6.041c4.471,2.409,8.751,5.078,12.871,7.959
		c8.24,5.75,15.948,12.13,23.32,18.86c3.67,3.379,7.289,6.809,10.809,10.359c1.75,1.771,3.51,3.552,5.23,5.38
		c1.72,1.839,3.399,3.679,5.07,5.681c6.61,7.959,11.5,17.259,14.641,27.068C154.286,97.181,155.425,102.22,156.146,107.32"/>
	<path fill="#231F20" d="M65.105,16.32l-0.029,0.01l-0.101,0.01l-0.06-0.02l0.02-0.07C65.045,16.3,65.096,16.31,65.105,16.32z"/>
	<polygon fill="#231F20" points="29.686,13.69 29.686,13.7 29.676,13.69 	"/>
	<path fill="#231F20" d="M31.056,15.14l2.56,2.76c0.331,0.37,0.671,0.74,1,1.109c-2.43,0.141-4.869,0.25-7.301,0.311l0.541-0.14
		c0.2-0.05,0.15-0.04,0.2-0.06l0.06-0.02l0.091-0.031c0.05-0.029,0.108-0.06,0.2-0.109c0.159-0.1,0.439-0.26,0.84-0.73
		c0.189-0.23,0.41-0.55,0.59-0.94c0.17-0.4,0.3-0.859,0.34-1.3c0.09-0.89-0.11-1.53-0.24-1.85c-0.09-0.2-0.149-0.31-0.189-0.38
		l0.02,0.03L31.056,15.14z"/>
	<path fill="#231F20" d="M92.141,155.458c-18.208,0-35.341-0.742-48.243-2.091c-6.362-0.665-11.386-1.447-14.933-2.323
		c-3.941-0.975-7.588-2.332-7.588-5.644c0-3.726,4.65-5.281,12.153-6.582l1.015,5.857c-1.452,0.252-2.643,0.496-3.612,0.723
		c2.999,0.7,8.08,1.565,16.597,2.352c12.299,1.137,28.144,1.763,44.611,1.763c16.467,0,32.311-0.626,44.611-1.763
		c8.514-0.787,13.597-1.65,16.597-2.351c-1.122-0.262-2.531-0.546-4.302-0.84l0.971-5.865c8.162,1.353,12.885,2.884,12.885,6.706
		c0,3.312-3.646,4.669-7.588,5.644c-3.545,0.876-8.57,1.658-14.931,2.323C127.481,154.716,110.349,155.458,92.141,155.458z"/>
	<polygon fill="#231F20" points="156.059,147.871 174.628,215.999 161.717,215.999 151.949,148.731 	"/>
	<polygon fill="#231F20" points="33.405,148.731 21.852,215.999 12.51,215.999 29.296,147.871 	"/>
	<polygon fill="#231F20" points="95.111,152.485 101.69,229.996 82.59,229.996 89.168,152.485 	"/>
	<path fill="#AD997D" d="M146.281,99.674c0,4.776-24.525,8.646-54.781,8.646c-30.255,0-54.783-3.87-54.783-8.646
		c0-4.775,24.528-8.647,54.783-8.647C121.756,91.027,146.281,94.899,146.281,99.674"/>
	<path fill="#C3B091" d="M80.885,98.729c0-10.062-8.156-18.218-18.219-18.218s-18.22,8.156-18.22,18.218
		C57.186,103.32,74.071,101.531,80.885,98.729"/>
	<path fill="#CFC0A7" d="M61.041,83.411c-1.209,0-2.425,0.222-3.592,0.636c-1.667,0.593-3.219,1.606-4.445,2.92
		c-1.234,1.31-2.141,2.899-2.674,4.567c-0.516,1.667-0.732,3.435-0.374,5.137c0.687-1.569,1.399-2.995,2.196-4.331
		c0.795-1.332,1.684-2.551,2.703-3.632c1.021-1.081,2.168-2.031,3.463-2.862c1.291-0.845,2.723-1.542,4.268-2.312
		C62.075,83.452,61.559,83.411,61.041,83.411"/>
	<path fill="#C3B091" d="M91.77,101.739c0-6.091-4.936-11.023-11.025-11.023s-11.027,4.933-11.027,11.023
		C77.429,104.518,87.646,103.435,91.77,101.739"/>
	<path fill="#CFC0A7" d="M79.759,92.469c-0.731,0-1.467,0.134-2.172,0.385c-1.008,0.358-1.946,0.972-2.691,1.767
		c-0.745,0.793-1.294,1.756-1.616,2.764c-0.314,1.01-0.443,2.08-0.229,3.109c0.416-0.95,0.848-1.812,1.33-2.622
		c0.482-0.806,1.018-1.543,1.636-2.198c0.618-0.653,1.313-1.228,2.095-1.73c0.783-0.511,1.648-0.934,2.584-1.399
		C80.385,92.494,80.072,92.469,79.759,92.469"/>
	<path fill="#C3B091" d="M139.102,98.122c0-2.545-2.062-4.609-4.609-4.609c-2.546,0-4.609,2.063-4.609,4.609
		C133.107,99.282,137.378,98.831,139.102,98.122"/>
	<path fill="#CFC0A7" d="M134.082,94.246c-0.306,0-0.613,0.056-0.907,0.162c-0.423,0.149-0.815,0.406-1.126,0.737
		c-0.312,0.333-0.543,0.735-0.678,1.155c-0.131,0.424-0.186,0.872-0.094,1.301c0.174-0.396,0.354-0.759,0.557-1.095
		c0.199-0.339,0.426-0.646,0.682-0.921c0.261-0.273,0.552-0.513,0.877-0.723c0.328-0.213,0.689-0.391,1.08-0.586
		C134.344,94.256,134.213,94.246,134.082,94.246"/>
</g>
</svg>
