<?xml version="1.0" encoding="utf-8"?>
<!-- Generator: Adobe Illustrator 15.0.0, SVG Export Plug-In . SVG Version: 6.00 Build 0)  -->
<!DOCTYPE svg PUBLIC "-//W3C//DTD SVG 1.1//EN" "http://www.w3.org/Graphics/SVG/1.1/DTD/svg11.dtd">
<svg version="1.1" id="Layer_1" xmlns="http://www.w3.org/2000/svg" xmlns:xlink="http://www.w3.org/1999/xlink" x="0px" y="0px"
	 width="1280px" height="800px" viewBox="0 0 1280 800" enable-background="new 0 0 1280 800" xml:space="preserve">
<g>
	<polyline fill="#FFFFFF" points="1280,800 0,800 0,0 1280,0 1280,800 	"/>
	<g>
		<path fill="#964B00" d="M412.206,596.844h-57.642v-24.391h8.862v-53.1h-8.862v-24.391h62.256c12.206,0,21.654,0.709,28.345,2.125
			c6.592,1.465,11.767,4.37,15.527,8.715c3.76,4.444,5.64,9.62,5.64,15.527c0,5.763-1.783,10.353-5.347,13.77
			c-3.662,3.516-8.105,5.958-13.33,7.324c7.178,2.149,12.695,5.47,16.553,9.961c3.906,4.591,5.859,9.742,5.859,15.455
			c0,6.836-2.197,12.646-6.592,17.432c-4.395,4.736-10.426,7.836-18.091,9.301C437.815,596.087,426.756,596.844,412.206,596.844z
			 M402.831,517.303v18.604h8.716c5.907,0,9.789-0.854,11.646-2.564c1.758-1.708,2.637-3.955,2.637-6.738
			c0-2.392-0.806-4.541-2.417-6.445s-6.031-2.855-13.257-2.855H402.831z M402.831,554.436v20.068h8.862
			c5.664,0,9.741-0.732,12.231-2.197c2.441-1.465,3.662-4.052,3.662-7.764c0-3.466-1.099-6.029-3.296-7.689
			c-2.197-1.611-6.445-2.418-12.744-2.418H402.831z"/>
		<path fill="#964B00" d="M538.036,596.844h-55.371v-24.391h8.276v-53.1h-8.276v-24.391h55.371c4.98,0,9.595,0.086,13.843,0.257
			c4.248,0.172,7.885,0.415,10.913,0.732c3.027,0.318,5.811,0.745,8.35,1.282c7.129,1.514,12.915,4.81,17.358,9.887
			c4.492,5.177,6.738,11.279,6.738,18.311c0,5.273-1.367,10.06-4.102,14.355c-2.735,4.248-6.324,7.374-10.767,9.375l14.062,23.291
			h7.324v24.391h-36.694l-22.192-41.602h-12.524v17.211h7.69V596.844z M530.346,517.303v19.408h4.395
			c5.761,0,9.668-0.17,11.719-0.512c2.197-0.342,4.053-1.318,5.566-2.93c1.513-1.514,2.271-3.59,2.271-6.227
			s-0.758-4.735-2.271-6.299c-1.514-1.611-3.442-2.587-5.786-2.93c-2.246-0.341-6.348-0.512-12.305-0.512H530.346z"/>
		<path fill="#964B00" d="M609.395,545.646c0-8.496,2.075-16.723,6.226-24.682c4.102-7.91,10.474-14.576,19.116-19.996
			c3.076-1.904,6.237-3.417,9.484-4.541c3.247-1.122,6.775-1.988,10.584-2.6c3.809-0.61,7.812-0.916,12.012-0.916
			c18.262,0,32.397,5.348,42.407,16.041c4.98,5.273,8.74,10.986,11.279,17.139c2.538,6.152,3.809,12.67,3.809,19.555
			c0,14.209-5.176,26.563-15.527,37.061c-10.353,10.499-24.342,15.748-41.968,15.748c-17.041,0-30.86-4.932-41.455-14.795
			C614.716,573.846,609.395,561.174,609.395,545.646z M653.633,545.646c0,11.329,1.099,18.971,3.296,22.926
			c2.099,4.004,5.395,6.006,9.888,6.006c4.442,0,7.764-1.929,9.961-5.787c2.197-3.905,3.296-11.62,3.296-23.145
			c0-11.181-1.074-18.798-3.223-22.852c-2.1-4.003-5.445-6.006-10.034-6.006c-4.395,0-7.69,1.93-9.888,5.787
			S653.633,534.124,653.633,545.646z"/>
		<path fill="#964B00" d="M795.526,597.723h-32.08l-28.711-78.369h-7.031v-24.391h52.808v24.391h-7.617l12.012,43.871l15.234-43.871
			h-7.544v-24.391h44.385v24.391h-7.544l15.454,43.871l12.158-43.871h-7.324v-24.391h41.089v24.391h-7.031l-29.004,78.369h-31.641
			l-13.77-39.258L795.526,597.723z"/>
		<path fill="#964B00" d="M938.788,596.844h-41.821v-24.391h8.936v-53.1h-8.936v-24.391h48.267l37.061,53.248v-28.857h-8.276
			v-24.391h41.089v24.391h-8.862v78.809h-33.545l-42.92-61.598v35.889h9.009V596.844z"/>
	</g>
	<path fill="#D6D6D7" d="M682.51,377.291c-29.189,0-52.852,2.219-52.852,4.959s23.662,4.961,52.852,4.961s52.852-2.221,52.852-4.961
		S711.699,377.291,682.51,377.291"/>
	<polygon fill="#231F20" points="751.162,304.662 771.105,377.834 757.238,377.834 746.746,305.586 	"/>
	<polygon fill="#231F20" points="619.424,305.586 607.018,377.834 596.982,377.834 615.012,304.662 	"/>
	<path fill="#F5F5F5" d="M713.652,188.855l2.604,0.149l5.258,0.366l10.545,0.729c4.922,0.318,9.845,0.605,14.77,0.789
		c-0.76,0.674-1.509,1.358-2.262,2.062c-3.52,3.285-6.949,6.812-9.953,10.803c-1.495,2.004-2.882,4.111-4.088,6.357
		c-1.207,2.238-2.23,4.621-2.935,7.117c-0.714,2.494-1.11,5.098-1.125,7.692c-0.022,2.593,0.352,5.164,1.009,7.624
		c0.676,2.449,1.625,4.787,2.769,6.986c1.132,2.207,2.474,4.271,3.892,6.25c0.722,0.986,1.457,1.943,2.241,2.883l0.537,0.668
		c0.175,0.222,0.349,0.442,0.515,0.66c0.334,0.447,0.66,0.895,0.973,1.357c1.252,1.837,2.328,3.787,3.178,5.835
		c0.857,2.048,1.502,4.187,1.973,6.38c0.463,2.191,0.742,4.438,0.91,6.707c0.158,2.268,0.182,4.566,0.166,6.879
		c-0.008,2.354-0.082,4.598-0.303,6.859c-0.834,9.02-3.765,17.781-8.391,25.443c-2.314,3.832-5.037,7.396-8.102,10.621
		s-6.465,6.1-10.111,8.589c-3.65,2.48-7.564,4.542-11.623,6.196c-4.066,1.646-8.309,2.814-12.6,3.55
		c-4.288,0.773-8.65,1.245-13.035,1.185c-4.369-0.053-8.746-0.569-13.018-1.57c-8.543-1.988-16.652-5.888-23.594-11.357
		c-6.949-5.448-12.722-12.449-16.742-20.376c-4.034-7.913-6.305-16.759-6.592-25.687c-0.326-8.967,1.365-17.98,4.908-26.247
		c1.768-4.128,3.997-8.073,6.631-11.737c1.311-1.828,2.723-3.596,4.232-5.273c1.486-1.668,3.125-3.27,4.816-4.84
		c3.391-3.141,6.936-6.174,10.553-9.111c3.619-2.936,7.322-5.771,11.092-8.512c7.548-5.461,15.341-10.59,23.449-15.096
		c4.057-2.238,8.176-4.369,12.395-6.229c4.211-1.875,8.514-3.527,12.904-4.756l-0.007-0.031l0.038,0.008h0.258l0.592,0.016
		L713.652,188.855"/>
	<path fill="#964B00" d="M743.551,263.564c-0.471-2.193-1.115-4.332-1.973-6.38c-0.85-2.048-1.926-3.998-3.178-5.835
		c-0.312-0.463-0.639-0.91-0.973-1.357c-0.166-0.218-0.34-0.438-0.515-0.66l-0.537-0.668c-0.784-0.939-1.52-1.896-2.241-2.883
		c-1.418-1.979-2.76-4.043-3.892-6.25c-0.519-0.998-0.991-2.027-1.423-3.08c-3.639,1.143-7.586,0.509-11.383,0.264
		c-6.697-0.43-13.494-1.859-20.219-1.297c-6.771,0.564-13.861,2.354-20.964,2.38c-5.927,0.022-11.832-0.409-17.737-0.841
		c-7.041-0.516-14.083-1.029-21.156-0.775c-0.363,0.385-0.725,0.773-1.072,1.164c-1.51,1.678-2.922,3.445-4.232,5.273
		c-2.634,3.664-4.863,7.609-6.631,11.737c-3.543,8.267-5.234,17.28-4.908,26.247c0.287,8.928,2.558,17.773,6.592,25.687
		c4.021,7.927,9.793,14.928,16.742,20.376c6.941,5.47,15.051,9.369,23.594,11.357c4.271,1.001,8.648,1.518,13.018,1.57
		c4.385,0.061,8.747-0.411,13.035-1.185c4.291-0.735,8.533-1.903,12.6-3.55c4.059-1.654,7.973-3.716,11.623-6.196
		c3.646-2.489,7.047-5.364,10.111-8.589s5.787-6.789,8.102-10.621c4.626-7.662,7.557-16.424,8.391-25.443
		c0.221-2.262,0.295-4.506,0.303-6.859c0.016-2.312-0.008-4.611-0.166-6.879C744.293,268.002,744.014,265.756,743.551,263.564"/>
	<path fill="#231F20" d="M751.426,186.875l-0.039,0.037l-0.029,0.031l-0.047,0.045l-0.082,0.076l-1.307,1.115l-2.691,2.345
		c-0.137,0.12-0.273,0.243-0.402,0.364c-4.925-0.184-9.848-0.471-14.77-0.789l-10.545-0.729l-5.258-0.366l-2.604-0.149l-1.273-0.061
		l-0.592-0.016h-0.258l-0.038-0.008v-0.023v0.023l0.007,0.031c-4.391,1.229-8.693,2.881-12.904,4.756
		c-4.219,1.859-8.338,3.99-12.395,6.229c-8.108,4.506-15.901,9.635-23.449,15.096c-3.77,2.74-7.473,5.576-11.092,8.512
		c-3.617,2.938-7.162,5.971-10.553,9.111c-1.691,1.57-3.33,3.172-4.816,4.84c-1.51,1.678-2.922,3.445-4.232,5.273
		c-2.634,3.664-4.863,7.609-6.631,11.737c-3.543,8.267-5.234,17.28-4.908,26.247c0.287,8.928,2.558,17.773,6.592,25.687
		c4.021,7.927,9.793,14.928,16.742,20.376c6.941,5.47,15.051,9.369,23.594,11.357c4.271,1.001,8.648,1.518,13.018,1.57
		c4.385,0.061,8.747-0.411,13.035-1.185c4.291-0.735,8.533-1.903,12.6-3.55c4.059-1.654,7.973-3.716,11.623-6.196
		c3.646-2.489,7.047-5.364,10.111-8.589s5.787-6.789,8.102-10.621c4.626-7.662,7.557-16.424,8.391-25.443
		c0.221-2.262,0.295-4.506,0.303-6.859c0.016-2.312-0.008-4.611-0.166-6.879c-0.168-2.27-0.447-4.516-0.91-6.707
		c-0.471-2.193-1.115-4.332-1.973-6.38c-0.85-2.048-1.926-3.998-3.178-5.835c-0.312-0.463-0.639-0.91-0.973-1.357
		c-0.166-0.218-0.34-0.438-0.515-0.66l-0.537-0.668c-0.784-0.939-1.52-1.896-2.241-2.883c-1.418-1.979-2.76-4.043-3.892-6.25
		c-1.144-2.199-2.093-4.537-2.769-6.986c-0.657-2.46-1.031-5.031-1.009-7.624c0.015-2.595,0.411-5.198,1.125-7.692
		c0.704-2.496,1.728-4.879,2.935-7.117c1.206-2.246,2.593-4.354,4.088-6.357c3.004-3.99,6.434-7.518,9.953-10.803
		c0.753-0.704,1.502-1.389,2.262-2.062c1.941,0.075,3.885,0.129,5.826,0.166l-0.318-0.076h-0.016l-0.008-0.008h-0.008
		c-0.031-0.014-0.121-0.061-0.302-0.212c-0.122-0.106-0.282-0.265-0.472-0.538c-0.182-0.258-0.371-0.652-0.471-1.092
		c-0.098-0.449-0.098-0.896-0.037-1.238c0.059-0.34,0.158-0.568,0.227-0.719C751.35,186.98,751.41,186.898,751.426,186.875
		 M759.52,187.217c0.168,0.729,0.168,1.479,0.053,2.109c-0.105,0.63-0.295,1.137-0.491,1.555c-0.411,0.834-0.829,1.334-1.208,1.768
		c-0.189,0.205-0.379,0.395-0.553,0.553c-0.092,0.084-0.197,0.184-0.297,0.273l-0.205,0.168l-1.402,1.129l-2.701,2.201
		c-0.902,0.721-1.791,1.448-2.67,2.184c-3.521,2.938-6.904,5.926-9.908,9.172c-2.996,3.239-5.584,6.783-7.168,10.712
		c-0.799,1.958-1.32,4.013-1.525,6.108c-0.197,2.102-0.092,4.248,0.348,6.363c0.418,2.125,1.153,4.203,2.086,6.22
		c0.957,2.005,2.104,3.946,3.422,5.782c0.654,0.926,1.344,1.828,2.057,2.709l0.568,0.697c0.189,0.242,0.387,0.486,0.576,0.729
		c0.381,0.494,0.736,0.994,1.092,1.502c1.421,2.033,2.618,4.219,3.611,6.494c1.982,4.559,2.998,9.451,3.453,14.27
		c0.234,2.412,0.35,4.816,0.41,7.199c0.021,1.191,0.061,2.359,0.061,3.588c0.008,1.215-0.023,2.436-0.092,3.65
		c-0.25,4.861-1.039,9.71-2.314,14.443c-1.281,4.727-3.086,9.322-5.361,13.693c-4.561,8.738-11.061,16.538-18.99,22.592
		c-7.912,6.076-17.258,10.385-27.12,12.471c-4.945,0.985-10.015,1.275-15.029,1.086c-5.015-0.197-10.013-0.934-14.86-2.214
		c-9.711-2.55-18.806-7.261-26.461-13.642c-7.662-6.381-13.899-14.414-18.139-23.382c-4.256-8.958-6.485-18.829-6.531-28.698
		c-0.061-9.824,2.002-19.686,6.076-28.607c2.033-4.468,4.553-8.701,7.494-12.608c1.473-1.95,3.051-3.823,4.719-5.605
		c1.693-1.798,3.443-3.452,5.221-5.054c7.122-6.342,14.551-12.205,22.214-17.797c7.667-5.568,15.618-10.779,23.956-15.385
		c8.339-4.582,17.104-8.58,26.482-11.008l0.016,0.053c0.318-0.09,0.447-0.105,0.607-0.137l0.402-0.074l0.719-0.1l1.367-0.174
		c0.902-0.1,1.789-0.189,2.684-0.273c1.777-0.16,3.545-0.311,5.319-0.434c3.536-0.271,7.069-0.469,10.605-0.658
		c7.063-0.35,14.126-0.57,21.188-0.472h0.423l0.395,0.091c0.183,0.039,0.209,0.047,0.298,0.067l0.213,0.062
		c0.137,0.039,0.267,0.076,0.395,0.123c0.258,0.082,0.516,0.183,0.788,0.303c0.54,0.243,1.13,0.547,1.821,1.123
		c0.34,0.295,0.713,0.668,1.062,1.184C759.041,185.828,759.359,186.488,759.52,187.217"/>
	<polygon fill="#231F20" points="752.32,190.979 752.281,190.971 752.305,190.971 752.312,190.971 	"/>
	<path fill="#231F20" d="M752.002,190.76c0.182,0.15,0.271,0.197,0.303,0.211h-0.023l0.039,0.008h0.016l0.318,0.076
		c-1.941-0.037-3.885-0.09-5.826-0.166c0.129-0.121,0.266-0.244,0.402-0.365l2.691-2.344l1.307-1.115l0.082-0.076l0.047-0.045
		l0.029-0.031l0.039-0.037c-0.016,0.023-0.076,0.105-0.176,0.297c-0.068,0.15-0.168,0.379-0.227,0.719
		c-0.061,0.342-0.061,0.789,0.037,1.238c0.1,0.439,0.289,0.834,0.471,1.092C751.721,190.494,751.881,190.652,752.002,190.76z"/>
	<path fill="#231F20" d="M711.49,188.748v0.023V188.748z"/>
	<path fill="#7A3A00" d="M728.915,237.352c0,3.623-20.669,6.562-46.167,6.562s-46.168-2.938-46.168-6.562
		c0-3.621,20.67-6.559,46.168-6.559S728.915,233.73,728.915,237.352"/>
	<path fill="#964B00" d="M683.525,238.773c0-4.51-3.656-8.165-8.166-8.165c-4.514,0-8.17,3.655-8.17,8.165
		C672.902,240.832,680.473,240.029,683.525,238.773"/>
	<path fill="#AB6F33" d="M674.627,231.906c-0.541,0-1.084,0.1-1.607,0.285c-0.747,0.267-1.442,0.721-1.991,1.31
		c-0.557,0.587-0.962,1.298-1.2,2.046c-0.232,0.75-0.328,1.543-0.168,2.305c0.31-0.704,0.627-1.342,0.984-1.941
		c0.357-0.598,0.754-1.143,1.213-1.629c0.457-0.484,0.973-0.91,1.553-1.283c0.578-0.377,1.221-0.691,1.912-1.035
		C675.092,231.925,674.859,231.906,674.627,231.906"/>
	<path fill="#964B00" d="M696.199,234.469c0-3.715-3.012-6.725-6.725-6.725c-3.717,0-6.727,3.01-6.727,6.725
		C687.451,236.164,693.682,235.502,696.199,234.469"/>
	<path fill="#AB6F33" d="M688.873,228.814c-0.446,0-0.895,0.081-1.324,0.234c-0.617,0.219-1.189,0.593-1.643,1.078
		c-0.457,0.482-0.791,1.068-0.986,1.686c-0.191,0.615-0.271,1.27-0.139,1.896c0.252-0.58,0.516-1.105,0.811-1.599
		c0.295-0.49,0.621-0.942,0.999-1.343c0.376-0.398,0.8-0.748,1.279-1.055c0.475-0.311,1.003-0.568,1.573-0.854
		C689.254,228.829,689.064,228.814,688.873,228.814"/>
	<path fill="#964B00" d="M707.979,238.094c0-2.389-1.936-4.324-4.322-4.324c-2.388,0-4.326,1.936-4.326,4.324
		C702.355,239.184,706.361,238.758,707.979,238.094"/>
	<path fill="#AB6F33" d="M703.268,234.459c-0.287,0-0.576,0.053-0.852,0.15c-0.395,0.141-0.762,0.381-1.056,0.693
		c-0.292,0.311-0.507,0.688-0.632,1.082c-0.123,0.398-0.176,0.816-0.092,1.221c0.164-0.373,0.332-0.712,0.523-1.027
		c0.189-0.316,0.398-0.605,0.641-0.863c0.242-0.255,0.516-0.48,0.822-0.678c0.305-0.201,0.646-0.367,1.012-0.549
		C703.514,234.469,703.391,234.459,703.268,234.459"/>
	<path fill="#964B00" d="M654.385,235.801c0-1.658-1.346-3.004-3.004-3.004s-3.004,1.346-3.004,3.004
		C650.479,236.559,653.26,236.263,654.385,235.801"/>
	<path fill="#AB6F33" d="M651.11,233.277c-0.198,0-0.397,0.035-0.589,0.104c-0.275,0.098-0.531,0.266-0.734,0.479
		c-0.203,0.218-0.352,0.479-0.44,0.755c-0.085,0.275-0.12,0.566-0.062,0.848c0.114-0.26,0.231-0.493,0.362-0.714
		c0.133-0.22,0.279-0.421,0.446-0.601c0.169-0.178,0.358-0.335,0.571-0.471c0.213-0.139,0.449-0.254,0.703-0.381
		C651.281,233.283,651.196,233.277,651.11,233.277"/>
	<path fill="#231F20" d="M682.51,311.875c-19.525,0-37.891-0.797-51.719-2.242c-6.789-0.709-12.143-1.541-15.91-2.473
		c-3.861-0.953-7.436-2.238-7.436-5.152c0-2.928,3.326-4.592,12.273-6.145l0.771,4.445c-3.711,0.643-5.891,1.246-7.152,1.699
		c2.342,0.838,7.855,2.199,20.531,3.398c13.338,1.262,30.611,1.957,48.641,1.957s35.303-0.695,48.639-1.957
		c12.697-1.201,18.209-2.564,20.543-3.402c-1.334-0.479-3.715-1.127-7.908-1.822l0.738-4.449c9.514,1.578,13.053,3.279,13.053,6.275
		c0,2.914-3.574,4.199-7.438,5.152c-3.768,0.932-9.119,1.764-15.91,2.473C720.4,311.078,702.033,311.875,682.51,311.875z"/>
	<polygon fill="#231F20" points="684.764,309.619 689.754,392.869 675.264,392.869 680.254,309.619 	"/>
</g>
</svg>
