<?xml version="1.0" encoding="utf-8"?>
<!-- Generator: Adobe Illustrator 15.0.0, SVG Export Plug-In . SVG Version: 6.00 Build 0)  -->
<!DOCTYPE svg PUBLIC "-//W3C//DTD SVG 1.1//EN" "http://www.w3.org/Graphics/SVG/1.1/DTD/svg11.dtd">
<svg version="1.1" id="Layer_1" xmlns="http://www.w3.org/2000/svg" xmlns:xlink="http://www.w3.org/1999/xlink" x="0px" y="0px"
	 width="1280px" height="800px" viewBox="0 0 1280 800" enable-background="new 0 0 1280 800" xml:space="preserve">
<g>
	<polyline fill="#FFFFFF" points="1281.439,798 1.438,798 1.438,-2 1281.439,-2 1281.439,798 	"/>
	<g>
		<path fill="#120A8F" d="M141.487,516.505h-6.27v-19.512h41.719v19.512h-3.867v27.48c0,6.562,0.624,11.035,1.875,13.418
			c1.25,2.344,3.495,3.516,6.738,3.516c2.695,0,4.648-0.996,5.859-2.988c1.21-1.953,1.816-5.957,1.816-12.012v-29.414h-4.102
			v-19.512h30.645v19.512h-6.445v29.531c0,7.539-1.094,13.711-3.281,18.516c-2.188,4.766-5.821,8.496-10.898,11.191
			c-5.078,2.695-11.329,4.043-18.75,4.043c-5.977,0-11.271-0.724-15.879-2.168c-4.688-1.406-8.399-3.555-11.133-6.445
			c-2.734-2.852-4.746-6.309-6.035-10.371c-1.328-3.945-1.992-10-1.992-18.164V516.505z"/>
		<path fill="#120A8F" d="M301.038,578.497H223.46v-19.512h7.324v-42.48h-7.324v-19.512h46.582v19.512h-7.734v42.48h19.277v-13.066
			h19.453V578.497z"/>
		<path fill="#120A8F" d="M361.94,578.497h-45.762v-19.512h7.031v-42.48h-9.375v14.824h-15.293v-34.336h80.801v34.336H364.05
			v-14.824h-9.316v42.48h7.207V578.497z"/>
		<path fill="#120A8F" d="M433.542,578.497h-44.297v-19.512h6.621v-42.48h-6.621v-19.512h44.297c3.984,0,7.676,0.068,11.074,0.205
			s6.308,0.332,8.73,0.586c2.422,0.254,4.648,0.596,6.68,1.025c5.703,1.211,10.332,3.848,13.887,7.91
			c3.594,4.141,5.391,9.023,5.391,14.648c0,4.219-1.094,8.047-3.281,11.484c-2.188,3.398-5.06,5.898-8.613,7.5l11.25,18.633h5.859
			v19.512h-29.355l-17.754-33.281h-10.02v13.77h6.152V578.497z M427.39,514.864v15.527h3.516c4.608,0,7.734-0.137,9.375-0.41
			c1.758-0.273,3.242-1.055,4.453-2.344c1.21-1.211,1.816-2.871,1.816-4.98s-0.606-3.789-1.816-5.039
			c-1.211-1.289-2.754-2.07-4.629-2.344c-1.797-0.273-5.078-0.41-9.844-0.41H427.39z"/>
		<path fill="#120A8F" d="M520.085,578.497H487.8v-19.512h6.211l15.293-42.48h-6.562v-19.512h58.594v19.512h-6.562l15.586,42.48
			h5.977v19.512h-42.539v-17.871h7.148l-3.105-10.254h-20.859l-3.574,10.254h6.68V578.497z M527.761,517.677l-7.676,22.559h14.59
			L527.761,517.677z"/>
		<path fill="#120A8F" d="M614.421,578.497h-31.582v-19.512h6.27v-42.48h-6.445v-19.512h49.16l12.012,31.465l12.305-31.465h48.867
			v19.512h-6.387v42.48h6.562v19.512h-42.539v-19.512h6.504v-45.527l-24.609,65.039h-12.188l-24.375-64.453v44.941h6.445V578.497z"
			/>
		<path fill="#120A8F" d="M743.737,578.497h-32.285v-19.512h6.211l15.293-42.48h-6.562v-19.512h58.594v19.512h-6.562l15.586,42.48
			h5.977v19.512h-42.539v-17.871h7.148l-3.105-10.254h-20.859l-3.574,10.254h6.68V578.497z M751.413,517.677l-7.676,22.559h14.59
			L751.413,517.677z"/>
		<path fill="#120A8F" d="M850.847,578.497H806.55v-19.512h6.621v-42.48h-6.621v-19.512h44.297c3.984,0,7.676,0.068,11.074,0.205
			s6.308,0.332,8.73,0.586c2.422,0.254,4.648,0.596,6.68,1.025c5.703,1.211,10.332,3.848,13.887,7.91
			c3.594,4.141,5.391,9.023,5.391,14.648c0,4.219-1.094,8.047-3.281,11.484c-2.188,3.398-5.06,5.898-8.613,7.5l11.25,18.633h5.859
			v19.512h-29.355l-17.754-33.281h-10.02v13.77h6.152V578.497z M844.694,514.864v15.527h3.516c4.608,0,7.734-0.137,9.375-0.41
			c1.758-0.273,3.242-1.055,4.453-2.344c1.21-1.211,1.816-2.871,1.816-4.98s-0.606-3.789-1.816-5.039
			c-1.211-1.289-2.754-2.07-4.629-2.344c-1.797-0.273-5.078-0.41-9.844-0.41H844.694z"/>
		<path fill="#120A8F" d="M954.44,578.497h-46.465v-19.512h7.5v-42.48h-7.5v-19.512h46.465v19.512h-7.441v42.48h7.441V578.497z"/>
		<path fill="#120A8F" d="M996.101,578.497h-33.457v-19.512h7.148v-42.48h-7.148v-19.512h38.613l29.648,42.598v-23.086h-6.621
			v-19.512h32.871v19.512h-7.09v63.047h-26.836l-34.336-49.277v28.711h7.207V578.497z"/>
		<path fill="#120A8F" d="M1144.401,578.497h-77.754v-19.512h6.328v-42.48h-6.445v-19.512h77.871v26.074h-21.387v-6.562h-18.516
			v12.539h16.113v16.582h-16.113v13.359h18.516v-6.562h21.387V578.497z"/>
	</g>
	<ellipse fill="#99999A" cx="641.438" cy="391.34" rx="97.923" ry="5.69"/>
	<path fill="#FFFFFF" d="M675.812,291.688c8.314-6.713,13.434-15.854,13.434-25.928c0-14.682-10.867-27.379-26.664-33.469v-28.489
		h3.879c3.721,0,6.738-3.017,6.738-6.737v-0.346c0-3.721-3.018-6.737-6.738-6.737h-50.045c-3.721,0-6.738,3.017-6.738,6.737v0.346
		c0,3.721,3.018,6.737,6.738,6.737h3.879v28.489c-15.797,6.09-26.664,18.787-26.664,33.469c0,10.074,5.118,19.215,13.434,25.928
		c-31.501,12.926-53.592,41.318-53.592,62.455c0,28.221,39.383,32.814,87.967,32.814c48.582,0,87.965-4.594,87.965-32.814
		C729.404,333.006,707.314,304.613,675.812,291.688"/>
	<path fill="#120A8F" d="M675.812,291.688c8.314-6.713,13.434-15.854,13.434-25.928c0-8.74-3.854-16.777-10.305-23.137
		c-1.246,0.695-2.562,1.213-3.904,1.475c-4.248,0.824-8.18,1.171-12.422,0.66c-2.139-0.258-4.148-0.328-6.224-0.188
		c-6.397,1.108-12.878,2.672-19.349,1.885c-4.126-0.504-8.111-1.156-12.148-2.093c-1.711-0.397-3.422-0.793-5.145-1.123
		c-0.303-0.018-0.605-0.028-0.906-0.034c-5.004,1.995-10.51,1.84-15.155-0.334c-6.302,6.32-10.058,14.262-10.058,22.889
		c0,10.074,5.118,19.215,13.434,25.928c-31.501,12.926-53.592,41.318-53.592,62.455c0,28.221,39.383,32.814,87.967,32.814
		c48.582,0,87.965-4.594,87.965-32.814C729.404,333.006,707.314,304.613,675.812,291.688"/>
	<path fill="#231F20" d="M674.193,289.705c0.895-1.303,1.74-2.508,2.535-3.75c0.79-1.236,1.536-2.459,2.201-3.699
		c1.336-2.473,2.412-4.961,3.168-7.471c0.758-2.506,1.209-5.025,1.328-7.561c0.035-0.641,0.041-1.256,0.033-1.918
		c-0.008-0.607-0.045-1.261-0.102-1.887c-0.111-1.264-0.318-2.52-0.615-3.762c-1.174-4.98-3.852-9.736-7.535-13.941
		c-1.84-2.105-3.938-4.063-6.209-5.898c-2.275-1.834-4.741-3.509-7.332-5.139l-0.004-0.001l-1.639-0.639v-1.749v-28.488v-0.001
		l-0.26-2.213l2.818-0.347c1.051-0.129,2.102-0.225,3.152-0.337l0.393-0.04l0.197-0.018l0.099-0.01l0.024-0.002l-0.014-0.002
		l0.051-0.005c0.18-0.015,0.125-0.028,0.23-0.046l0.213-0.056c0.279-0.087,0.543-0.196,0.783-0.335
		c0.973-0.553,1.598-1.539,1.709-2.488c0.027-0.238,0.03-0.475,0.008-0.713l-0.01-0.088l-0.004-0.05l-0.007-0.099l-0.013-0.197
		l-0.002-0.024v0.024l-0.004-0.049l-0.008-0.1l-0.015-0.047l-0.018-0.085l-0.043-0.165c-0.128-0.432-0.343-0.814-0.63-1.129
		c-0.588-0.633-1.393-0.938-2.146-0.855l-3.032,0.117c-1.05,0.043-2.101,0.076-3.15,0.105c-2.101,0.064-4.202,0.123-6.302,0.16
		c-2.101,0.051-4.201,0.076-6.302,0.102c-2.101,0.034-4.201,0.034-6.302,0.045c-4.201,0.018-8.402-0.02-12.604-0.084l-6.301-0.146
		l-3.15-0.1l-1.576-0.058l-1.512-0.061l-0.018-0.006l-0.068-0.004h-0.139c-0.092,0.002-0.183,0.01-0.273,0.023
		c-0.182,0.027-0.365,0.066-0.545,0.135c-0.359,0.135-0.701,0.369-0.982,0.672c-0.285,0.3-0.5,0.67-0.621,1.09
		c-0.03,0.105-0.059,0.215-0.08,0.328l-0.014,0.104l-0.013,0.197l-0.007,0.098l-0.002-0.023v0.023l-0.004,0.051l-0.005,0.094
		l-0.005,0.015c-0.028,0.192-0.025,0.452,0.003,0.677c0.095,0.928,0.698,1.908,1.652,2.465c0.237,0.144,0.495,0.254,0.771,0.342
		c0.138,0.044,0.28,0.08,0.429,0.108l0.168,0.021l0.197,0.02l0.394,0.04c1.05,0.122,2.101,0.224,3.151,0.364h0.006h2.56v2.56v28.485
		l0.001,0.004l0.194,1.344l-1.835,1.045c-2.639,1.502-5.167,3.081-7.514,4.843c-2.348,1.753-4.525,3.663-6.46,5.74
		c-3.879,4.137-6.777,8.956-8.128,14.12c-1.362,5.156-1.188,10.658,0.547,15.84c0.855,2.598,2.09,5.125,3.62,7.539
		c1.526,2.422,3.364,4.707,5.386,6.93l0.006,0.004l3.354,2.588l-3.989,1.772c-3.514,1.562-6.942,3.307-10.247,5.259
		c-3.312,1.938-6.51,4.066-9.57,6.369c-6.12,4.601-11.732,9.871-16.551,15.74c-2.419,2.924-4.638,6-6.592,9.207
		c-1.954,3.206-3.643,6.551-4.949,9.986c-1.303,3.434-2.244,6.963-2.582,10.46c-0.342,3.495-0.066,6.933,1.022,9.978
		c0.539,1.527,1.284,2.957,2.208,4.285c0.93,1.324,2.045,2.541,3.303,3.658c2.52,2.234,5.621,4.02,8.951,5.463
		c3.336,1.443,6.91,2.555,10.57,3.454c3.664,0.899,7.424,1.581,11.222,2.136c7.601,1.115,15.356,1.689,23.143,2.051
		c7.789,0.364,15.628,0.448,23.472,0.475c7.856,0.012,15.687-0.088,23.479-0.439c7.789-0.354,15.542-0.959,23.148-2.041
		c3.799-0.552,7.561-1.238,11.225-2.139c3.662-0.9,7.238-2.014,10.578-3.459c3.332-1.447,6.432-3.236,8.969-5.461
		c2.541-2.223,4.45-4.9,5.525-7.965c0.545-1.529,0.887-3.152,1.047-4.833c0.039-0.421,0.072-0.843,0.088-1.271
		c0.011-0.213,0.014-0.428,0.02-0.643l0.004-0.311v-0.363c-0.004-0.387-0.018-0.842-0.039-1.271c-0.025-0.436-0.058-0.871-0.1-1.309
		c-0.35-3.5-1.272-7.039-2.578-10.475c-2.631-6.89-6.741-13.349-11.557-19.203c-4.824-5.871-10.449-11.131-16.57-15.734
		c-6.129-4.596-12.797-8.502-19.832-11.604l-2.793-1.231L674.193,289.705 M681.575,291.311c2.124,0.947,4.22,1.961,6.276,3.049
		c3.582,1.908,7.052,4.033,10.394,6.35c6.683,4.635,12.824,10.078,18.233,16.238c2.704,3.08,5.193,6.368,7.438,9.844
		c2.24,3.479,4.226,7.158,5.824,11.062c1.594,3.9,2.806,8.037,3.309,12.395c0.062,0.545,0.113,1.092,0.154,1.642
		c0.037,0.556,0.065,1.087,0.08,1.687l0.008,0.377l0.002,0.43c-0.001,0.277-0.002,0.557-0.011,0.838
		c-0.011,0.559-0.043,1.121-0.085,1.684c-0.175,2.252-0.603,4.531-1.344,6.736c-0.732,2.207-1.783,4.326-3.079,6.258
		c-1.299,1.93-2.837,3.665-4.509,5.188c-3.352,3.057-7.183,5.26-11.062,6.996c-3.892,1.732-7.874,3.004-11.864,4.033
		c-3.992,1.025-8.002,1.798-12.008,2.423c-8.016,1.251-16.029,1.874-24.01,2.269c-7.982,0.389-15.947,0.516-23.881,0.531
		c-7.947,0.022-15.902-0.121-23.887-0.496c-7.984-0.388-15.994-1.041-24.016-2.258c-4.008-0.623-8.019-1.4-12.014-2.426
		c-3.991-1.031-7.975-2.305-11.869-4.041c-3.881-1.738-7.711-3.945-11.08-6.992c-1.68-1.52-3.219-3.262-4.52-5.195
		c-1.298-1.936-2.35-4.061-3.084-6.271c-0.74-2.21-1.168-4.494-1.342-6.749c-0.02-0.282-0.043-0.563-0.054-0.845
		c-0.015-0.277-0.026-0.564-0.032-0.867l-0.008-0.43v-0.37l0.002-0.433l0.008-0.418c0.028-1.112,0.109-2.214,0.234-3.304
		c0.516-4.359,1.708-8.507,3.305-12.411c1.604-3.904,3.592-7.586,5.836-11.064c2.246-3.479,4.748-6.758,7.441-9.85
		c5.416-6.16,11.57-11.595,18.252-16.232c3.346-2.314,6.82-4.433,10.402-6.341c3.592-1.892,7.285-3.588,11.074-5.026l-0.635,4.36
		l-0.006-0.005c-2.885-1.742-5.533-3.953-7.857-6.531c-2.32-2.58-4.295-5.557-5.758-8.828c-1.469-3.266-2.39-6.834-2.686-10.463
		c-0.039-0.463-0.068-0.887-0.082-1.387l-0.018-0.629l-0.003-0.713c0.005-0.91,0.045-1.822,0.122-2.731
		c0.17-1.817,0.488-3.621,0.947-5.384c0.475-1.757,1.078-3.475,1.816-5.123c0.748-1.645,1.6-3.232,2.578-4.727
		c1.943-2.998,4.301-5.664,6.916-7.955c5.248-4.574,11.469-7.738,17.945-9.301l-1.639,2.389v-0.004v-28.485l2.561,2.56h-0.006
		c-1.051,0.141-2.102,0.242-3.151,0.365l-0.394,0.039l-0.197,0.021c-0.068,0.007-0.119,0.013-0.227,0.019
		c-0.377,0.023-0.759,0.023-1.143,0.003c-0.766-0.047-1.533-0.185-2.278-0.415c-1.495-0.457-2.882-1.293-4.024-2.404
		c-1.136-1.117-2.024-2.521-2.541-4.08c-0.256-0.787-0.42-1.571-0.488-2.429l-0.035-0.53l-0.014-0.197l-0.01-0.289
		c-0.006-0.412,0.008-0.828,0.051-1.242c0.17-1.66,0.744-3.299,1.666-4.719c1.844-2.848,5.069-4.799,8.668-4.943l1.639-0.067
		l1.576-0.057l3.15-0.101l6.301-0.145c4.201-0.065,8.402-0.102,12.604-0.084c2.101,0.01,4.201,0.01,6.302,0.045
		c2.101,0.024,4.201,0.051,6.302,0.102c2.1,0.037,4.201,0.096,6.302,0.16c1.05,0.029,2.101,0.062,3.15,0.105l3.269,0.121
		c1.718,0.093,3.423,0.599,4.898,1.455c1.482,0.853,2.732,2.055,3.645,3.465c0.916,1.408,1.492,3.033,1.652,4.684
		c0.021,0.205,0.033,0.41,0.043,0.617l0.009,0.307v0.347l-0.011,0.245l-0.012,0.197l-0.014,0.245l-0.02,0.306
		c-0.064,0.812-0.23,1.619-0.486,2.393c-1.014,3.109-3.538,5.549-6.518,6.454c-0.74,0.232-1.506,0.374-2.268,0.419
		c-0.191,0.011-0.381,0.018-0.571,0.018c-0.155,0-0.473-0.002-0.556-0.016l-0.136-0.008l-0.099-0.01l-0.197-0.018l-0.393-0.039
		c-1.051-0.112-2.102-0.208-3.152-0.337l2.561-2.561v0.001v28.488l-1.639-2.389l0.004,0.001c3.295,0.642,6.52,1.752,9.615,3.229
		c3.098,1.477,6.049,3.361,8.763,5.623c2.71,2.264,5.175,4.923,7.218,7.953c2.045,3.023,3.666,6.42,4.682,10.037
		c0.508,1.807,0.865,3.664,1.062,5.54c0.099,0.944,0.154,1.866,0.174,2.837c0.023,0.914-0.01,1.875-0.067,2.811
		c-0.263,3.764-1.231,7.473-2.799,10.83c-1.563,3.361-3.698,6.377-6.212,8.898C684.587,289.016,683.123,290.242,681.575,291.311"/>
	<path fill="#2F368F" d="M673.488,244.65c0,1.855-14.579,3.359-32.562,3.359c-17.982,0-32.561-1.504-32.561-3.359
		c0-1.856,14.578-3.361,32.561-3.361C658.909,241.289,673.488,242.794,673.488,244.65"/>
	<path fill="#3831A1" d="M613.884,299.043c-2.14,0-6.337,1.515-11.768,4.506c-3.617,2.009-7.777,4.689-12.11,8.158
		c-4.32,3.476-8.854,7.722-12.9,13.066c-4.024,5.319-7.15,11.392-8.28,17.688c-0.57,3.127-0.612,6.268-0.149,9.133
		c0.453,2.87,1.399,5.438,2.561,7.547c2.353,4.247,5.359,6.658,7.587,7.867c1.321,0.703,2.415,1.015,3.186,1.015
		c0.55,0,0.936-0.159,1.12-0.446c0.455-0.695-0.082-1.965-1.032-3.898c-0.935-1.926-2.285-4.551-3.01-7.754
		c-0.736-3.199-0.756-6.905,0.514-10.986c1.237-4.082,3.736-8.518,7.087-12.94c3.347-4.431,7.13-8.447,10.694-12.054
		c3.574-3.606,6.961-6.807,9.785-9.578c5.666-5.526,9.063-9.399,8.144-10.809C615.088,299.214,614.602,299.043,613.884,299.043"/>
	<path fill="#FFFFFF" d="M624.164,240.294c-0.153,0-0.312,0.005-0.479,0.016c-1.537,0.101-3.604,0.649-5.965,1.872
		c-0.087,0.045-0.175,0.092-0.263,0.139c2.667-0.286,5.821-0.523,9.324-0.698c-0.032-0.117-0.077-0.228-0.136-0.333
		C626.292,240.646,625.44,240.294,624.164,240.294"/>
	<path fill="#3831A1" d="M612.12,246.218c-0.618,0.593-1.229,1.238-1.824,1.941c-2.405,2.819-4.472,6.635-5.44,10.92
		c-0.987,4.284-0.814,8.455-0.073,11.958c0.744,3.521,2.022,6.429,3.383,8.66c2.304,3.739,4.789,5.626,6.349,5.626
		c0.303,0,0.571-0.071,0.797-0.215c1.411-0.878,1.232-3.925,0.855-8.232c-0.371-4.296-0.847-9.841,0.386-15.11
		c0.605-2.644,1.568-5.016,2.744-7.183c1.17-2.165,2.542-4.112,3.787-5.827c0.312-0.425,0.614-0.837,0.903-1.235
		C618.982,247.205,614.868,246.755,612.12,246.218"/>
	<path fill="#5056A1" d="M626.782,241.622c-3.503,0.175-6.657,0.412-9.324,0.698c-1.697,0.909-3.548,2.181-5.338,3.897
		c2.748,0.537,6.862,0.987,11.866,1.303C625.853,244.943,627.143,242.935,626.782,241.622"/>
	<path fill="#2F289D" d="M655.269,262.154c-2.478,0-4.486,2.008-4.486,4.486s2.009,4.486,4.486,4.486s4.486-2.008,4.486-4.486
		S657.746,262.154,655.269,262.154"/>
	<path fill="#2F289D" d="M607.17,333.566c-4.295,0-7.777,3.482-7.777,7.777c0,4.297,3.482,7.778,7.777,7.778
		c4.297,0,7.777-3.481,7.777-7.778C614.947,337.049,611.467,333.566,607.17,333.566"/>
	<path fill="#2F289D" d="M611.023,354.994c-1.469,0-2.658,1.191-2.658,2.658c0,1.469,1.189,2.658,2.658,2.658
		s2.658-1.189,2.658-2.658C613.682,356.186,612.492,354.994,611.023,354.994"/>
	<path fill="#2F289D" d="M676.146,306.042c-1.469,0-2.658,1.19-2.658,2.657c0,1.469,1.189,2.658,2.658,2.658
		c1.467,0,2.657-1.189,2.657-2.658C678.804,307.232,677.613,306.042,676.146,306.042"/>
	<path fill="#2F289D" d="M650.782,274.263c-1.515,0-2.743,1.228-2.743,2.742s1.229,2.743,2.743,2.743s2.742-1.229,2.742-2.743
		S652.297,274.263,650.782,274.263"/>
</g>
</svg>
