<?xml version="1.0" encoding="utf-8"?>
<!-- Generator: Adobe Illustrator 15.0.0, SVG Export Plug-In . SVG Version: 6.00 Build 0)  -->
<!DOCTYPE svg PUBLIC "-//W3C//DTD SVG 1.1//EN" "http://www.w3.org/Graphics/SVG/1.1/DTD/svg11.dtd">
<svg version="1.1" id="Layer_1" xmlns="http://www.w3.org/2000/svg" xmlns:xlink="http://www.w3.org/1999/xlink" x="0px" y="0px"
	 width="1280px" height="800px" viewBox="0 0 1280 800" enable-background="new 0 0 1280 800" xml:space="preserve">
<g>
	<polyline fill="#FFFFFF" points="1280.001,800 0,800 0,0 1280.001,0 1280.001,800 	"/>
	<g>
		<path fill="#4B0082" d="M376.768,636.847h-58.081v-24.39h9.375v-53.101h-9.375v-24.39h58.081v24.39h-9.302v53.101h9.302V636.847z"
			/>
		<path fill="#4B0082" d="M428.843,636.847h-41.821v-24.39h8.936v-53.101h-8.936v-24.39h48.267l37.061,53.247v-28.857h-8.276v-24.39
			h41.088v24.39H496.3v78.809h-33.545l-42.92-61.597v35.889h9.009V636.847z"/>
		<path fill="#4B0082" d="M565.294,636.847h-47.389v-24.39h7.984v-53.101h-7.984v-24.39h48.779c11.133,0,20.215,0.685,27.246,2.051
			c7.08,1.367,13.744,4.175,19.996,8.423c6.199,4.297,11.084,10.107,14.648,17.432c1.758,3.516,3.1,7.276,4.027,11.279
			c0.928,4.004,1.393,8.203,1.393,12.598c0,8.838-1.881,16.895-5.641,24.17c-3.711,7.227-8.422,12.77-14.135,16.626
			c-5.566,3.857-11.672,6.372-18.311,7.544C589.317,636.261,579.11,636.847,565.294,636.847z M565.294,559.356v53.101h3.734
			c9.277,0,15.309-2.465,18.092-7.397c2.734-4.932,4.102-11.133,4.102-18.604c0-4.492-0.586-8.936-1.758-13.33
			c-1.221-4.395-3.369-7.788-6.445-10.181c-3.029-2.392-8.449-3.589-16.26-3.589H565.294z"/>
		<path fill="#4B0082" d="M704.819,636.847h-58.08v-24.39h9.375v-53.101h-9.375v-24.39h58.08v24.39h-9.301v53.101h9.301V636.847z"/>
		<path fill="#4B0082" d="M793.956,601.764h-10.4v-19.336h45.557c0,11.133-0.781,19.409-2.344,24.829
			c-1.514,5.226-4.688,10.522-9.521,15.894c-4.736,5.322-10.475,9.204-17.213,11.646s-13.965,3.662-21.68,3.662
			c-11.475,0-21.898-1.904-31.273-5.713c-9.424-3.71-16.699-9.862-21.826-18.457c-5.176-8.447-7.764-17.919-7.764-28.418
			c0-15.868,5.225-28.662,15.674-38.379c10.352-9.716,23.045-14.575,38.086-14.575c12.549,0,22.387,3.052,29.516,9.155v-7.104
			h24.537v35.596h-24.537c-2.148-4.395-4.943-7.715-8.385-9.961c-3.443-2.245-7.461-3.369-12.049-3.369
			c-6.445,0-11.182,2.1-14.209,6.299c-2.979,4.2-4.469,11.914-4.469,23.145c0,11.182,1.562,18.775,4.688,22.778
			c3.174,4.054,7.789,6.079,13.844,6.079C789.366,615.533,793.956,610.944,793.956,601.764z"/>
		<path fill="#4B0082" d="M844.272,585.65c0-8.496,2.076-16.724,6.227-24.683c4.102-7.91,10.473-14.575,19.115-19.995
			c3.076-1.904,6.238-3.417,9.484-4.541c3.248-1.123,6.775-1.989,10.584-2.6s7.812-0.916,12.012-0.916
			c18.262,0,32.398,5.347,42.408,16.04c4.98,5.273,8.74,10.986,11.279,17.139c2.537,6.152,3.809,12.671,3.809,19.556
			c0,14.209-5.176,26.562-15.527,37.061c-10.354,10.499-24.342,15.747-41.969,15.747c-17.041,0-30.859-4.932-41.455-14.795
			C849.595,613.849,844.272,601.178,844.272,585.65z M888.511,585.65c0,11.328,1.1,18.97,3.297,22.925
			c2.098,4.004,5.395,6.006,9.887,6.006c4.443,0,7.764-1.929,9.961-5.786c2.197-3.906,3.297-11.62,3.297-23.145
			c0-11.181-1.074-18.798-3.223-22.852c-2.1-4.003-5.445-6.006-10.035-6.006c-4.395,0-7.689,1.93-9.887,5.786
			C889.61,566.437,888.511,574.127,888.511,585.65z"/>
	</g>
	<ellipse fill="#99999A" cx="640.001" cy="427.182" rx="94.242" ry="5.689"/>
	<path fill="#FFFFFF" d="M691.056,316.379c4.23-8.059,6.627-17.229,6.627-26.961c0-20.463-10.582-38.453-26.57-48.801
		c5.065-6.652,8.071-14.955,8.071-23.961c0-14.092-7.361-26.463-18.45-33.48v-38.928h3.879c3.721,0,6.739-3.719,6.739-8.307v-0.426
		c0-4.588-3.019-8.307-6.739-8.307h-50.045c-3.721,0-6.737,3.719-6.737,8.307v0.426c0,4.588,3.017,8.307,6.737,8.307h3.879v38.928
		c-11.088,7.018-18.451,19.389-18.451,33.48c0,9.006,3.008,17.309,8.073,23.959c-15.989,10.35-26.569,28.34-26.569,48.803
		c0,9.73,2.396,18.902,6.626,26.961c-22.11,17.957-36.501,44.811-36.501,65.838c0,34.791,39.383,40.455,87.966,40.455
		s87.965-5.664,87.965-40.455C727.555,361.189,713.167,334.336,691.056,316.379"/>
	<path fill="#4B0082" d="M691.056,316.379c4.23-8.059,6.627-17.229,6.627-26.961c0-20.463-10.582-38.453-26.57-48.801
		c3.08-4.047,5.393-8.705,6.738-13.758c-2.687,0.92-5.51,1.375-8.17,1.254c-3.252-0.148-6.377-0.852-9.536-1.428
		c-8.862-0.602-17.489,1.725-26.341,1.959c-4.016,0.106-8.056-0.1-12.098-0.308c-4.951-0.255-9.909-0.508-14.833-0.187
		c-0.657,0.178-1.305,0.393-1.947,0.658l0.665-0.281c-1.154,0.406-2.311,0.721-3.479,0.924c1.387,4.059,3.411,7.82,5.957,11.164
		c-15.989,10.35-26.569,28.34-26.569,48.803c0,9.73,2.396,18.902,6.626,26.961c-22.11,17.957-36.501,44.811-36.501,65.838
		c0,34.791,39.383,40.455,87.966,40.455s87.965-5.664,87.965-40.455C727.555,361.189,713.167,334.336,691.056,316.379"/>
	<path fill="#231F20" d="M682.089,318.117l3.375-6.035c0.174-0.309,0.369-0.682,0.547-1.025c0.361-0.701,0.703-1.414,1.031-2.135
		c0.648-1.441,1.232-2.914,1.738-4.416c1.014-3.004,1.732-6.115,2.15-9.273c0.828-6.324,0.461-12.842-1.125-19.033
		c-1.576-6.199-4.352-12.104-8.139-17.277c-3.777-5.178-8.551-9.641-13.986-13l-0.002-0.002l-5.789-4.338l4.195-4.793
		c3.039-3.469,5.383-7.619,6.783-12.139c1.406-4.512,1.871-9.418,1.322-14.25c-0.543-4.832-2.129-9.607-4.662-13.914
		c-2.529-4.311-6.002-8.143-10.158-11.145l-0.004-0.002l-1.191-0.768v-1.396v-38.928l-0.064-2.492l2.623-0.068l3.314-0.084
		l0.414-0.012l0.166-0.006l0.104-0.004l0.039-0.004c0.102-0.014,0.271-0.037,0.402-0.074c0.275-0.068,0.547-0.182,0.811-0.334
		c1.064-0.609,1.951-1.967,2.256-3.484c0.082-0.379,0.131-0.768,0.148-1.162c0.006-0.197,0.008-0.391,0-0.596l-0.01-0.383
		l-0.008-0.207l-0.01-0.121c-0.059-0.779-0.244-1.541-0.545-2.215c-0.295-0.674-0.707-1.262-1.17-1.689
		c-0.463-0.43-0.961-0.686-1.418-0.781c-0.115-0.023-0.229-0.039-0.342-0.045l-0.17-0.004l-0.27,0.008l-1.656,0.041l-3.314,0.086
		l-6.627,0.17l-13.256,0.338l-13.254,0.34l-6.629,0.17l-3.314,0.084l-1.656,0.043l-0.104,0.002l-0.053,0.002h0.047h-0.027
		l-0.121,0.01l0.023,0.002l-0.018,0.004l-0.035,0.008l-0.139,0.049c-0.184,0.08-0.428,0.238-0.691,0.545
		c-0.26,0.303-0.512,0.736-0.682,1.242c-0.172,0.506-0.262,1.078-0.258,1.666l0.016,0.631l0.002-0.023v0.025l0.002,0.053
		l0.004,0.104l0.008,0.078l0.023,0.209c0.037,0.287,0.096,0.564,0.176,0.824c0.156,0.52,0.402,0.977,0.67,1.305
		c0.264,0.33,0.547,0.518,0.717,0.572l0.189,0.025c0.092-0.004-0.143-0.02,0.637-0.033l3.314-0.086l0.006,0.002l5.611,0.391
		l-0.34,4.881l-2.713,38.928l0.08,1.23l-1.27,0.934c-4.133,3.037-7.57,6.895-10.055,11.213c-2.492,4.316-4.023,9.084-4.523,13.889
		s0.01,9.666,1.443,14.117c1.428,4.459,3.785,8.531,6.814,11.922l0.002,0.002l3.271,8.195l-4.994,1.666
		c-1.549,0.518-3.041,1.186-4.492,1.951c-0.729,0.379-1.434,0.797-2.141,1.221c-0.697,0.438-1.389,0.889-2.066,1.367
		c-2.701,1.91-5.184,4.176-7.389,6.707c-4.412,5.066-7.668,11.219-9.449,17.781c-0.896,3.279-1.438,6.658-1.607,10.055
		c-0.082,1.705-0.08,3.383,0.021,5.111c0.094,1.66,0.293,3.371,0.572,5.027c0.566,3.332,1.512,6.584,2.816,9.658
		c1.311,3.07,2.955,5.982,5.018,8.561l0.002,0.004l2.098,4.035l-3.52,2.883c-5.664,4.641-10.83,9.926-15.396,15.678
		c-4.561,5.752-8.527,11.979-11.691,18.531c-3.148,6.541-5.516,13.445-6.541,20.357c-0.254,1.725-0.422,3.445-0.488,5.15
		c-0.014,0.426-0.025,0.85-0.029,1.273v0.598l0.01,0.717l0.02,0.582l0.031,0.621c0.025,0.416,0.053,0.828,0.092,1.24
		c0.303,3.283,1.086,6.387,2.414,9.168c1.324,2.785,3.195,5.258,5.549,7.396c2.346,2.143,5.16,3.945,8.234,5.451
		c3.076,1.508,6.412,2.715,9.865,3.713c3.457,0.992,7.033,1.775,10.674,2.404c7.283,1.258,14.789,1.936,22.35,2.336
		c7.564,0.395,15.205,0.5,22.855,0.473c7.672-0.031,15.295-0.195,22.855-0.648c7.553-0.459,15.047-1.193,22.299-2.506
		c3.623-0.656,7.184-1.465,10.613-2.48c3.424-1.021,6.725-2.248,9.752-3.766c3.025-1.514,5.779-3.314,8.051-5.43
		c2.283-2.113,4.072-4.531,5.332-7.242s1.992-5.73,2.26-8.939c0.27-3.211,0.082-6.596-0.445-9.98
		c-1.066-6.789-3.457-13.588-6.621-20.027c-3.178-6.447-7.152-12.574-11.703-18.223c-4.559-5.648-9.705-10.826-15.322-15.355
		L682.089,318.117z M699.476,314.439c4.811,4.332,9.25,9.049,13.268,14.102c5.107,6.441,9.562,13.41,13.174,20.875
		c1.801,3.734,3.387,7.596,4.695,11.588c1.307,3.994,2.34,8.121,2.971,12.385c0.627,4.264,0.867,8.662,0.459,13.166
		c-0.406,4.492-1.514,9.115-3.561,13.412c-1.016,2.146-2.258,4.197-3.678,6.094c-1.422,1.898-3.023,3.635-4.732,5.197
		c-3.426,3.133-7.262,5.543-11.164,7.461c-3.91,1.918-7.91,3.352-11.908,4.512c-4,1.15-8.01,2.023-12.004,2.717
		c-7.994,1.381-15.943,2.088-23.838,2.508c-7.896,0.412-15.756,0.521-23.561,0.494c-7.83-0.031-15.67-0.199-23.562-0.67
		c-7.889-0.479-15.822-1.244-23.787-2.678c-3.98-0.721-7.969-1.619-11.943-2.793c-3.969-1.182-7.934-2.635-11.797-4.562
		c-3.854-1.926-7.627-4.336-10.98-7.441c-1.674-1.549-3.236-3.266-4.619-5.139c-1.383-1.869-2.588-3.889-3.572-5.998
		c-1.979-4.227-3.037-8.764-3.406-13.182c-0.049-0.553-0.084-1.105-0.111-1.656l-0.035-0.828l-0.02-0.869l-0.004-0.734l0.006-0.854
		c0.008-0.543,0.025-1.086,0.051-1.627c0.1-2.162,0.326-4.295,0.652-6.396c0.652-4.203,1.699-8.273,3.02-12.213
		c1.32-3.938,2.918-7.746,4.727-11.43c3.625-7.363,8.086-14.23,13.186-20.568c5.105-6.332,10.863-12.135,17.213-17.258l-1.422,6.916
		l-0.002-0.006c-1.266-3.768-2.361-7.508-3.15-11.287c-0.795-3.775-1.307-7.57-1.537-11.359c-0.117-1.9-0.154-3.768-0.131-5.689
		c0.029-1.854,0.123-3.76,0.297-5.627c0.342-3.752,0.969-7.471,1.893-11.121c1.852-7.299,4.852-14.311,8.867-20.834
		c2.006-3.266,4.27-6.406,6.766-9.426c0.625-0.754,1.26-1.504,1.918-2.238c0.648-0.746,1.324-1.467,2.004-2.197
		c1.365-1.449,2.789-2.865,4.246-4.295l-1.721,9.859l-0.004-0.002c-3.6-5.311-6.047-11.324-7.154-17.51
		c-1.115-6.188-0.906-12.49,0.521-18.453c1.428-5.965,4.109-11.547,7.75-16.289c3.633-4.752,8.215-8.668,13.324-11.48l-1.191,2.162
		l-2.711-38.928l5.271,5.271h-0.006l-3.314-0.084c-0.309-0.012-0.43-0.004-1.078-0.035c-0.533-0.033-1.062-0.105-1.582-0.217
		c-1.041-0.223-2.031-0.602-2.922-1.086c-1.787-0.977-3.16-2.346-4.164-3.818c-1.006-1.479-1.664-3.08-2.041-4.703
		c-0.188-0.811-0.303-1.629-0.354-2.443c-0.012-0.207-0.02-0.4-0.025-0.619l-0.004-0.334l0.004-0.258l0.01-0.416
		c0.006-0.203,0.012-0.406,0.023-0.607c0.096-1.619,0.449-3.244,1.094-4.791c0.646-1.547,1.584-3.025,2.875-4.299
		c1.285-1.266,2.971-2.328,4.924-2.832c0.486-0.125,0.984-0.217,1.486-0.268c0.125-0.014,0.25-0.025,0.377-0.033l0.188-0.012
		l0.232-0.008c0.191-0.006,0.213-0.002,0.291-0.002h0.176l0.104,0.004l1.656,0.043l3.314,0.084l6.629,0.17l13.254,0.338l13.256,0.34
		l6.627,0.17l3.314,0.084l1.656,0.043l0.232,0.006l0.328,0.014c0.219,0.012,0.439,0.035,0.654,0.064
		c0.436,0.059,0.865,0.152,1.283,0.273c1.68,0.49,3.109,1.457,4.193,2.6c1.09,1.148,1.865,2.475,2.383,3.854
		s0.773,2.816,0.803,4.242l0.004,0.293l-0.004,0.207l-0.01,0.445c-0.008,0.348-0.027,0.707-0.062,1.059
		c-0.07,0.709-0.197,1.414-0.385,2.105c-0.377,1.385-0.992,2.723-1.869,3.924c-0.881,1.195-2.041,2.264-3.475,2.986
		c-0.713,0.357-1.492,0.627-2.299,0.773c-0.412,0.074-0.793,0.115-1.24,0.129l-0.168,0.004l-0.105-0.002l-0.248-0.004l-0.414-0.01
		l-3.314-0.084l2.561-2.561v38.928l-1.191-2.162l0.006,0.002c5.086,2.85,9.631,6.793,13.219,11.553
		c3.594,4.754,6.225,10.328,7.602,16.264c1.379,5.936,1.545,12.195,0.4,18.322c-1.137,6.121-3.598,12.059-7.189,17.289l-1.596-9.131
		l0.004,0.002c6.598,4.422,12.398,9.986,17.037,16.404c4.639,6.416,8.121,13.676,10.174,21.342
		c2.061,7.668,2.709,15.686,1.945,23.602c-0.379,3.961-1.119,7.896-2.205,11.742c-0.541,1.924-1.172,3.824-1.885,5.695
		C699.571,314.215,699.521,314.324,699.476,314.439z"/>
	<ellipse fill="#6821A5" cx="639.679" cy="227.766" rx="31.998" ry="3.361"/>
	<path fill="#682996" d="M616.88,251.949c-1.982,0-5.239,1.049-9.023,3.586c-2.846,1.926-5.96,4.75-8.683,8.557
		c-2.726,3.785-4.995,8.586-6.164,13.889c-1.183,5.303-1.175,10.486-0.52,14.973c0.655,4.5,1.917,8.338,3.288,11.373
		c2.549,5.537,5.313,8.465,6.905,8.465c0.153,0,0.296-0.027,0.427-0.082c1.564-0.645,1.345-4.691,0.863-10.576
		c-0.455-5.882-1.021-13.678,0.75-21.543c1.702-7.879,5.578-14.271,8.939-18.867c3.348-4.615,5.916-7.498,5.17-8.986
		C618.595,252.232,617.909,251.949,616.88,251.949"/>
	<path fill="#682996" d="M600.084,327.632c-0.709,0-1.672,0.228-2.853,0.687c-2.123,0.83-4.956,2.418-8.119,4.902
		c-3.159,2.48-6.65,5.873-9.866,10.26c-3.218,4.371-6.124,9.768-8.014,15.852c-1.903,6.078-2.585,12.18-2.4,17.623
		c0.177,5.457,1.179,10.262,2.467,14.107c2.398,7.108,5.641,10.96,7.286,10.96c0.142,0,0.271-0.028,0.388-0.085
		c1.509-0.701,0.926-5.332,0.659-12.467c-0.278-7.107-0.056-16.725,3.055-26.564c3.039-9.863,8.332-17.93,12.519-23.781
		c4.2-5.852,7.116-9.705,6.075-11.057C601.057,327.777,600.652,327.632,600.084,327.632"/>
	<path fill="#611F91" d="M658.327,267.992c-3.838,0-6.947,3.111-6.947,6.947c0,3.838,3.109,6.949,6.947,6.949s6.95-3.111,6.95-6.949
		C665.277,271.104,662.165,267.992,658.327,267.992"/>
	<path fill="#611F91" d="M615.292,365.004c-3.839,0-6.95,3.109-6.95,6.947s3.111,6.947,6.95,6.947c3.836,0,6.947-3.109,6.947-6.947
		S619.128,365.004,615.292,365.004"/>
	<path fill="#611F91" d="M661.07,293.328c-1.515,0-2.743,1.229-2.743,2.742c0,1.516,1.229,2.742,2.743,2.742
		s2.743-1.227,2.743-2.742C663.813,294.557,662.585,293.328,661.07,293.328"/>
	<path fill="#611F91" d="M608.342,352.752c-1.512,0-2.74,1.229-2.74,2.744c0,1.514,1.229,2.742,2.74,2.742
		c1.518,0,2.743-1.229,2.743-2.742C611.085,353.98,609.859,352.752,608.342,352.752"/>
</g>
</svg>
