<?xml version="1.0" encoding="utf-8"?>
<!-- Generator: Adobe Illustrator 15.0.0, SVG Export Plug-In . SVG Version: 6.00 Build 0)  -->
<!DOCTYPE svg PUBLIC "-//W3C//DTD SVG 1.1//EN" "http://www.w3.org/Graphics/SVG/1.1/DTD/svg11.dtd">
<svg version="1.1" id="Layer_1" xmlns="http://www.w3.org/2000/svg" xmlns:xlink="http://www.w3.org/1999/xlink" x="0px" y="0px"
	 width="272.667px" height="290.667px" viewBox="0 0 272.667 290.667" enable-background="new 0 0 272.667 290.667"
	 xml:space="preserve">
<g>
	<ellipse fill="#99999A" cx="138.114" cy="278.882" rx="129.079" ry="7.5"/>
	<path fill="#FFFFFF" d="M183.426,147.521c10.961-8.85,17.707-20.897,17.707-34.178c0-19.352-14.324-36.09-35.146-44.118V31.673
		h5.113c4.904,0,8.881-3.976,8.881-8.881v-0.457c0-4.904-3.977-8.881-8.881-8.881h-65.969c-4.904,0-8.883,3.977-8.883,8.881v0.457
		c0,4.905,3.979,8.881,8.883,8.881h5.113v37.553c-20.824,8.028-35.148,24.767-35.148,44.118c0,13.28,6.746,25.328,17.707,34.178
		C51.279,164.56,22.16,201.987,22.16,229.848c0,37.201,51.914,43.255,115.955,43.255c64.039,0,115.955-6.055,115.955-43.255
		C254.07,201.987,224.949,164.56,183.426,147.521"/>
	<path fill="#120A8F" d="M183.426,147.521c10.961-8.85,17.707-20.897,17.707-34.178c0-11.521-5.078-22.115-13.582-30.498
		c-1.645,0.916-3.379,1.6-5.146,1.943c-5.6,1.088-10.783,1.544-16.375,0.872c-2.818-0.34-5.469-0.433-8.203-0.248
		c-8.434,1.462-16.977,3.522-25.506,2.484c-5.439-0.662-10.693-1.522-16.014-2.757c-2.256-0.524-4.51-1.045-6.781-1.481
		c-0.398-0.022-0.797-0.037-1.195-0.045c-6.596,2.63-13.852,2.425-19.977-0.439c-8.307,8.331-13.258,18.798-13.258,30.17
		c0,13.28,6.746,25.328,17.707,34.178C51.279,164.56,22.16,201.987,22.16,229.848c0,37.201,51.914,43.255,115.955,43.255
		c64.039,0,115.955-6.055,115.955-43.255C254.07,201.987,224.949,164.56,183.426,147.521"/>
	<path fill="#231F20" d="M181.291,144.908c1.18-1.717,2.295-3.305,3.342-4.943c1.041-1.629,2.025-3.241,2.9-4.876
		c1.764-3.261,3.182-6.54,4.178-9.847c1-3.305,1.594-6.626,1.75-9.967c0.047-0.844,0.053-1.654,0.043-2.528
		c-0.01-0.8-0.057-1.663-0.133-2.486c-0.146-1.666-0.42-3.321-0.811-4.96c-1.547-6.564-5.078-12.833-9.934-18.375
		c-2.426-2.778-5.189-5.356-8.184-7.775c-2.998-2.419-6.25-4.626-9.666-6.773l-0.006-0.002l-2.16-0.842v-2.307V31.675v-0.002
		l-0.34-2.917l3.715-0.457c1.385-0.171,2.77-0.297,4.154-0.445l0.518-0.052l0.26-0.023l0.131-0.012l0.031-0.004l-0.018-0.002
		l0.066-0.007c0.236-0.02,0.166-0.037,0.305-0.06c0.096-0.021,0.189-0.049,0.281-0.074c0.367-0.115,0.715-0.259,1.033-0.443
		c1.281-0.727,2.105-2.028,2.25-3.279c0.037-0.315,0.041-0.627,0.012-0.939l-0.012-0.115l-0.008-0.067l-0.008-0.13l-0.016-0.259
		l-0.002-0.033l-0.002,0.031l-0.006-0.064l-0.008-0.13l-0.021-0.063l-0.023-0.112l-0.057-0.218c-0.168-0.569-0.451-1.074-0.83-1.489
		c-0.775-0.833-1.836-1.235-2.828-1.125l-3.998,0.154c-1.385,0.055-2.77,0.1-4.152,0.138c-2.77,0.086-5.539,0.163-8.307,0.211
		c-2.77,0.068-5.537,0.102-8.307,0.134c-2.77,0.046-5.539,0.046-8.307,0.059c-5.539,0.023-11.076-0.024-16.613-0.11l-8.307-0.192
		l-4.154-0.132l-2.076-0.075l-1.994-0.082l-0.021-0.007l-0.09-0.005h-0.182c-0.121,0.003-0.242,0.012-0.361,0.031
		c-0.24,0.036-0.482,0.088-0.719,0.179c-0.475,0.177-0.926,0.488-1.295,0.884c-0.375,0.396-0.66,0.883-0.818,1.438
		c-0.041,0.139-0.078,0.283-0.105,0.431l-0.018,0.137l-0.018,0.26l-0.01,0.13l-0.002-0.032l-0.002,0.032l-0.004,0.065l-0.006,0.123
		l-0.006,0.022c-0.037,0.254-0.033,0.594,0.004,0.891c0.125,1.223,0.92,2.515,2.178,3.25c0.312,0.189,0.652,0.334,1.016,0.451
		c0.184,0.056,0.371,0.104,0.566,0.142l0.221,0.027l0.26,0.025l0.52,0.052c1.385,0.162,2.77,0.295,4.152,0.481h0.01h3.373v3.374
		v37.549v0.003l0.258,1.772l-2.418,1.377c-3.48,1.98-6.812,4.061-9.904,6.383c-3.096,2.312-5.967,4.83-8.516,7.568
		c-5.113,5.452-8.934,11.806-10.715,18.611c-1.795,6.797-1.566,14.051,0.721,20.88c1.129,3.426,2.756,6.757,4.771,9.939
		c2.012,3.192,4.436,6.204,7.102,9.133l0.008,0.006l4.418,3.411l-5.258,2.337c-4.631,2.058-9.15,4.359-13.508,6.931
		c-4.367,2.556-8.58,5.362-12.613,8.397c-8.068,6.064-15.467,13.01-21.818,20.749c-3.188,3.854-6.113,7.908-8.689,12.136
		c-2.576,4.227-4.801,8.634-6.523,13.165c-1.717,4.524-2.959,9.177-3.404,13.787c-0.449,4.607-0.086,9.138,1.348,13.153
		c0.711,2.012,1.693,3.897,2.912,5.646c1.225,1.746,2.695,3.351,4.354,4.824c3.32,2.945,7.408,5.298,11.799,7.201
		c4.398,1.902,9.109,3.367,13.934,4.553c4.83,1.186,9.785,2.085,14.791,2.814c10.02,1.471,20.242,2.229,30.508,2.706
		c10.266,0.479,20.6,0.589,30.938,0.624c10.357,0.015,20.68-0.115,30.951-0.578c10.266-0.468,20.486-1.265,30.514-2.691
		c5.008-0.727,9.965-1.632,14.795-2.819c4.828-1.187,9.541-2.654,13.943-4.56c4.393-1.906,8.48-4.265,11.822-7.198
		c3.35-2.93,5.867-6.46,7.285-10.499c0.717-2.016,1.168-4.155,1.381-6.371c0.051-0.553,0.094-1.111,0.113-1.675
		c0.016-0.28,0.02-0.564,0.025-0.847l0.006-0.41v-0.48c-0.004-0.51-0.023-1.108-0.053-1.675c-0.031-0.574-0.074-1.149-0.131-1.726
		c-0.459-4.613-1.676-9.277-3.396-13.808c-3.469-9.081-8.887-17.596-15.234-25.313c-6.359-7.739-13.773-14.671-21.842-20.739
		c-8.08-6.059-16.869-11.209-26.145-15.298l-3.68-1.623L181.291,144.908 M191.021,147.025c2.799,1.248,5.562,2.584,8.273,4.018
		c4.723,2.516,9.295,5.318,13.701,8.371c8.809,6.108,16.904,13.285,24.035,21.404c3.564,4.061,6.844,8.395,9.803,12.977
		c2.953,4.585,5.57,9.436,7.678,14.581c2.102,5.142,3.699,10.596,4.361,16.338c0.082,0.718,0.148,1.439,0.203,2.164
		c0.051,0.733,0.086,1.434,0.105,2.225l0.01,0.496l0.004,0.565c-0.002,0.367-0.002,0.735-0.014,1.104
		c-0.016,0.737-0.057,1.479-0.113,2.22c-0.23,2.969-0.793,5.973-1.77,8.879c-0.967,2.909-2.352,5.704-4.061,8.249
		c-1.711,2.543-3.738,4.833-5.943,6.839c-4.418,4.028-9.467,6.933-14.58,9.22c-5.131,2.285-10.379,3.961-15.639,5.318
		c-5.264,1.352-10.549,2.369-15.83,3.193c-10.566,1.65-21.127,2.47-31.648,2.991c-10.521,0.51-21.02,0.68-31.479,0.701
		c-10.477,0.028-20.963-0.162-31.488-0.655c-10.525-0.512-21.082-1.372-31.656-2.977c-5.283-0.821-10.57-1.844-15.836-3.198
		c-5.262-1.358-10.512-3.038-15.645-5.325c-5.115-2.292-10.166-5.201-14.605-9.218c-2.217-2.002-4.244-4.3-5.959-6.849
		c-1.711-2.551-3.098-5.353-4.064-8.267c-0.977-2.913-1.541-5.924-1.77-8.896c-0.025-0.371-0.057-0.743-0.07-1.114
		c-0.02-0.364-0.035-0.743-0.041-1.142l-0.012-0.565v-0.489l0.002-0.571l0.01-0.551c0.039-1.465,0.145-2.918,0.311-4.354
		c0.678-5.747,2.25-11.214,4.355-16.359c2.113-5.148,4.734-10,7.693-14.587c2.961-4.586,6.258-8.908,9.809-12.983
		c7.139-8.12,15.25-15.283,24.061-21.396c4.408-3.051,8.988-5.844,13.711-8.359c4.734-2.495,9.604-4.73,14.598-6.625l-0.838,5.747
		l-0.008-0.006c-3.803-2.298-7.293-5.212-10.357-8.61c-3.059-3.401-5.66-7.325-7.588-11.637c-1.936-4.305-3.15-9.008-3.541-13.794
		c-0.051-0.609-0.09-1.167-0.107-1.828l-0.023-0.828l-0.004-0.939c0.006-1.2,0.059-2.402,0.162-3.601
		c0.223-2.395,0.641-4.772,1.248-7.096c0.625-2.316,1.422-4.581,2.393-6.755c0.988-2.167,2.111-4.26,3.398-6.23
		c2.562-3.95,5.67-7.465,9.119-10.486c6.916-6.03,15.115-10.2,23.654-12.26l-2.16,3.148v-0.003V31.673l3.375,3.374h-0.01
		c-1.383,0.185-2.768,0.32-4.152,0.48l-0.52,0.052l-0.26,0.027c-0.09,0.008-0.156,0.017-0.297,0.024
		c-0.498,0.03-1.002,0.031-1.506,0.004c-1.01-0.062-2.023-0.244-3.006-0.548c-1.971-0.601-3.799-1.704-5.303-3.169
		c-1.498-1.473-2.67-3.325-3.352-5.379c-0.336-1.036-0.553-2.071-0.643-3.201L91.15,22.64l-0.018-0.26l-0.012-0.382
		c-0.01-0.544,0.01-1.092,0.066-1.637c0.223-2.188,0.98-4.349,2.195-6.22c2.432-3.754,6.682-6.325,11.428-6.516l2.158-0.088
		l2.076-0.075l4.154-0.132l8.307-0.191c5.537-0.086,11.074-0.134,16.613-0.111c2.768,0.014,5.537,0.014,8.307,0.058
		c2.77,0.034,5.537,0.068,8.307,0.135c2.768,0.049,5.537,0.126,8.307,0.211c1.383,0.038,2.768,0.083,4.152,0.138l4.311,0.161
		c2.262,0.122,4.51,0.788,6.457,1.918c1.953,1.124,3.6,2.708,4.803,4.567c1.207,1.855,1.967,3.998,2.178,6.173
		c0.027,0.27,0.045,0.541,0.057,0.813l0.012,0.406v0.457l-0.014,0.323l-0.016,0.259l-0.018,0.323l-0.027,0.402
		c-0.084,1.072-0.303,2.136-0.641,3.154c-1.336,4.099-4.664,7.315-8.59,8.509c-0.977,0.306-1.986,0.492-2.99,0.552
		c-0.252,0.014-0.502,0.024-0.754,0.022c-0.205,0.002-0.623-0.003-0.732-0.019l-0.178-0.011l-0.131-0.012l-0.26-0.023l-0.518-0.053
		c-1.385-0.147-2.77-0.273-4.154-0.443l3.375-3.375v0.002v37.551l-2.162-3.147l0.008,0.001c4.342,0.845,8.592,2.31,12.672,4.257
		c4.084,1.946,7.975,4.431,11.553,7.412c3.572,2.983,6.822,6.489,9.516,10.482c2.693,3.986,4.83,8.465,6.17,13.231
		c0.67,2.381,1.141,4.831,1.4,7.303c0.129,1.245,0.203,2.46,0.23,3.739c0.029,1.205-0.014,2.474-0.09,3.706
		c-0.348,4.962-1.625,9.85-3.689,14.276c-2.062,4.431-4.875,8.405-8.189,11.729C194.992,143.999,193.062,145.617,191.021,147.025"/>
	<path fill="#2F368F" d="M180.361,85.518c0,2.446-19.217,4.43-42.922,4.43s-42.922-1.983-42.922-4.43s19.217-4.431,42.922-4.431
		S180.361,83.071,180.361,85.518"/>
	<path fill="#3831A1" d="M102.569,157.504c-2.349,0-7.965,2.291-15.485,6.737c-4.643,2.769-10.002,6.386-15.594,10.979
		c-5.575,4.603-11.431,10.166-16.653,17.063c-5.196,6.872-9.22,14.612-10.726,22.561c-0.76,3.95-0.86,7.9-0.334,11.514
		c0.517,3.618,1.645,6.869,3.049,9.568c2.843,5.432,6.542,8.645,9.273,10.352c1.851,1.137,3.328,1.632,4.238,1.632
		c0.455,0,0.769-0.124,0.916-0.354c0.457-0.696-0.42-2.176-1.881-4.608c-1.439-2.425-3.482-5.851-4.697-10.238
		c-1.234-4.373-1.449-9.659,0.211-15.389c1.612-5.733,5.011-11.84,9.531-17.813c4.524-5.984,9.628-11.317,14.447-16.05
		c4.834-4.731,9.42-8.867,13.27-12.399c7.725-7.039,12.461-11.75,11.539-13.162C103.503,157.634,103.129,157.504,102.569,157.504"/>
	<path fill="#FFFFFF" d="M116.552,80.3c-0.427,0-0.911,0.043-1.45,0.131c-1.378,0.23-3.119,0.757-5.098,1.68
		c2.664-0.229,5.602-0.425,8.754-0.583c-0.02-0.159-0.065-0.306-0.141-0.441C118.333,80.572,117.626,80.3,116.552,80.3"/>
	<path fill="#3831A1" d="M101.499,87.94c-1.021,0.962-2.029,2.034-3.003,3.225c-2.976,3.613-5.524,8.413-6.743,13.8
		c-1.241,5.386-1.073,10.648-0.212,15.12c0.865,4.492,2.381,8.254,3.986,11.183c2.838,5.118,5.879,7.749,7.522,7.749
		c0.239,0,0.449-0.056,0.624-0.167c1.416-0.877,0.729-4.699-0.146-10.402c-0.855-5.672-1.818-13.301-0.08-20.794
		c0.856-3.747,2.302-7.102,4.047-10.063c1.739-2.961,3.755-5.523,5.572-7.705c0.194-0.231,0.386-0.457,0.574-0.68
		C108.814,88.872,104.678,88.441,101.499,87.94"/>
	<path fill="#5056A1" d="M118.758,81.528c-3.152,0.158-6.09,0.354-8.754,0.583c-0.736,0.343-1.504,0.741-2.299,1.199
		c-1.966,1.135-4.108,2.651-6.206,4.631c3.179,0.501,7.315,0.932,12.143,1.265C116.688,85.608,118.938,83.031,118.758,81.528"/>
	<path fill="#2F289D" d="M156.346,108.592c-3.268,0-5.914,2.647-5.914,5.913c0,3.267,2.646,5.914,5.914,5.914
		c3.266,0,5.914-2.647,5.914-5.914C162.26,111.239,159.611,108.592,156.346,108.592"/>
	<path fill="#2F289D" d="M92.943,202.726c-5.662,0-10.252,4.59-10.252,10.251c0,5.664,4.59,10.253,10.252,10.253
		s10.252-4.59,10.252-10.253C103.195,207.316,98.605,202.726,92.943,202.726"/>
	<path fill="#2F289D" d="M98.023,230.972c-1.936,0-3.506,1.569-3.506,3.503c0,1.935,1.57,3.504,3.506,3.504
		c1.934,0,3.502-1.569,3.502-3.504C101.525,232.541,99.957,230.972,98.023,230.972"/>
	<path fill="#2F289D" d="M183.865,166.444c-1.936,0-3.504,1.568-3.504,3.503c0,1.935,1.568,3.503,3.504,3.503
		s3.504-1.568,3.504-3.503C187.369,168.012,185.801,166.444,183.865,166.444"/>
	<path fill="#2F289D" d="M150.432,124.552c-1.998,0-3.615,1.619-3.615,3.615c0,1.999,1.617,3.616,3.615,3.616
		c1.996,0,3.615-1.618,3.615-3.616C154.047,126.171,152.428,124.552,150.432,124.552"/>
</g>
</svg>
