<?xml version="1.0" encoding="utf-8"?>
<!-- Generator: Adobe Illustrator 15.0.0, SVG Export Plug-In . SVG Version: 6.00 Build 0)  -->
<!DOCTYPE svg PUBLIC "-//W3C//DTD SVG 1.1//EN" "http://www.w3.org/Graphics/SVG/1.1/DTD/svg11.dtd">
<svg version="1.1" id="Layer_1" xmlns="http://www.w3.org/2000/svg" xmlns:xlink="http://www.w3.org/1999/xlink" x="0px" y="0px"
	 width="1280px" height="800px" viewBox="0 0 1280 800" enable-background="new 0 0 1280 800" xml:space="preserve">
<g>
	<polyline fill="#FFFFFF" points="1278.001,800.08 -2,800.08 -2,0.08 1278.001,0.08 1278.001,800.08 	"/>
	<g>
		<path fill="#C8A2C8" d="M485.621,600.884h-96.973v-24.39h9.155v-53.101h-9.155v-24.39h58.228v24.39h-9.668v53.101h24.097v-16.333
			h24.316V600.884z"/>
		<path fill="#C8A2C8" d="M551.393,600.884h-58.081v-24.39h9.375v-53.101h-9.375v-24.39h58.081v24.39h-9.302v53.101h9.302V600.884z"
			/>
		<path fill="#C8A2C8" d="M659.059,600.884h-96.973v-24.39h9.155v-53.101h-9.155v-24.39h58.228v24.39h-9.668v53.101h24.097v-16.333
			h24.316V600.884z"/>
		<path fill="#C8A2C8" d="M703.517,600.884H663.16v-24.39h7.764l19.116-53.101h-8.203v-24.39h73.242v24.39h-8.203l19.482,53.101
			h7.471v24.39h-53.174v-22.339h8.936l-3.882-12.817h-26.074l-4.468,12.817h8.35V600.884z M713.111,524.859l-9.595,28.198h18.237
			L713.111,524.859z"/>
		<path fill="#C8A2C8" d="M859.965,555.987l26.44,9.302c-2.246,10.889-7.397,19.801-15.454,26.733
			c-8.155,6.983-19.385,10.474-33.691,10.474c-19.531,0-33.984-5.102-43.359-15.308c-9.424-10.155-14.136-22.559-14.136-37.207
			c0-14.746,4.614-27.27,13.843-37.573c9.229-10.302,21.215-15.454,35.962-15.454c11.963,0,21.704,2.955,29.224,8.862v-6.812h24.463
			v37.207h-25.415c-1.318-4.638-3.541-8.3-6.665-10.986c-3.125-2.637-6.69-3.955-10.693-3.955c-11.035,0-16.553,9.498-16.553,28.491
			c0,19.043,5.713,28.564,17.139,28.564C851.077,578.326,857.376,570.88,859.965,555.987z"/>
	</g>
	<ellipse fill="#99999A" cx="636.269" cy="390.152" rx="82.047" ry="5.69"/>
	<path fill="#FFFFFF" d="M671.708,278.047c10.551-7.273,17.209-17.909,17.209-29.761c0-15.273-11.055-28.528-27.258-35.166v-34.003
		h4.33c4.154,0,7.523-3.368,7.523-7.522v-0.386c0-4.154-3.369-7.521-7.523-7.521H610.12c-4.154,0-7.523,3.367-7.523,7.521v0.386
		c0,4.154,3.369,7.522,7.523,7.522h4.33v34.002c-16.203,6.638-27.258,19.894-27.258,35.167c0,11.852,6.658,22.487,17.209,29.761
		c-27.516,14.313-46.607,43.817-46.607,66.781c0,31.507,35.934,38.763,80.26,38.763c44.328,0,80.262-7.256,80.262-38.763
		C718.315,321.864,699.222,292.36,671.708,278.047"/>
	<path fill="#C8A2C8" d="M671.708,278.047c10.551-7.273,17.209-17.909,17.209-29.761c0-4.57-0.998-8.959-2.818-13.045
		c-1.521,0.968-3.186,1.716-4.938,2.198c-3.924,1.08-9.307,0.959-13.068-1.172c-2.027-0.012-4.059,0.119-6.08,0.225
		c-3.477,0.181-6.957,0.248-10.434,0.457c-7.893,0.474-15.773,1.146-23.674,1.518c-7.77,0.364-15.609,0.535-23.357-0.279
		c-4.533-0.478-10.076-0.8-14.799-2.351c-1.658,3.916-2.557,8.101-2.557,12.449c0,11.852,6.658,22.487,17.209,29.761
		c-27.516,14.313-46.607,43.817-46.607,66.781c0,31.507,35.934,38.763,80.26,38.763c44.328,0,80.262-7.256,80.262-38.763
		C718.315,321.864,699.222,292.36,671.708,278.047"/>
	<path fill="#231F20" d="M670.241,275.948c2.385-2.367,4.557-4.735,6.439-7.278c1.881-2.532,3.465-5.191,4.658-7.954
		c0.607-1.376,1.1-2.784,1.508-4.202c0.395-1.423,0.697-2.858,0.887-4.307c0.195-1.454,0.275-2.891,0.258-4.38
		c-0.014-1.431-0.154-2.907-0.406-4.339c-0.979-5.765-3.811-11.265-7.863-15.991c-2.027-2.365-4.342-4.554-6.871-6.548
		c-2.529-1.996-5.275-3.79-8.158-5.459l-0.002-0.002l-1.648-0.756l0.059-1.612l1.229-34.003l0.049-1.378l1.281,0.046h0.002
		c1.172-0.171,2.344-0.314,3.518-0.457l0.855-0.104c0.176-0.019,0.205-0.038,0.334-0.062c0.107-0.023,0.215-0.051,0.318-0.08
		c0.418-0.123,0.816-0.283,1.184-0.488c0.73-0.409,1.346-0.975,1.791-1.624c0.441-0.654,0.725-1.376,0.82-2.102
		c0.047-0.362,0.053-0.725,0.023-1.081l-0.014-0.134l-0.018-0.182l-0.018-0.22l-0.002-0.027l-0.002,0.011l-0.006-0.055l-0.01-0.109
		l-0.047-0.228l-0.064-0.252c-0.189-0.661-0.518-1.251-0.953-1.732c-0.885-0.968-2.127-1.438-3.279-1.313l-3.414,0.186
		c-1.172,0.063-2.344,0.123-3.516,0.171c-2.346,0.103-4.691,0.207-7.037,0.278c-4.689,0.176-9.379,0.277-14.07,0.349
		c-4.689,0.069-9.381,0.091-14.07,0.054c-2.344-0.018-4.689-0.052-7.035-0.102l-3.518-0.088l-1.758-0.05l-1.693-0.059l-0.031-0.006
		l-0.088-0.001l-0.174,0.004c-0.115,0.007-0.23,0.019-0.344,0.039c-0.227,0.041-0.453,0.103-0.676,0.191
		c-0.443,0.179-0.859,0.478-1.193,0.859c-0.342,0.377-0.598,0.836-0.734,1.353c-0.033,0.13-0.066,0.262-0.088,0.399l-0.016,0.125
		l-0.014,0.22l-0.008,0.11l-0.002-0.023v0.027l-0.004,0.055l-0.004,0.103l-0.006,0.023c-0.029,0.242-0.021,0.551,0.018,0.822
		c0.137,1.122,0.877,2.283,2.023,2.938c0.283,0.167,0.596,0.297,0.924,0.397c0.166,0.051,0.336,0.093,0.512,0.124l0.191,0.023
		l0.221,0.022l0.439,0.045c1.172,0.131,2.346,0.258,3.518,0.422h0.004h2.559v2.56v34.002v1.711l-1.59,0.658
		c-2.807,1.854-5.477,3.742-7.922,5.817c-2.447,2.065-4.678,4.285-6.619,6.657c-3.893,4.731-6.59,10.085-7.562,15.668
		c-0.488,2.787-0.566,5.646-0.24,8.469c0.328,2.824,1.062,5.63,2.182,8.368c1.117,2.74,2.611,5.411,4.406,7.984
		c0.451,0.642,0.912,1.284,1.404,1.91c0.479,0.638,0.988,1.257,1.504,1.881c1.039,1.241,2.143,2.458,3.281,3.694l0.002,0.002
		l3.479,2.121l-3.75,2.258c-12.783,7.695-23.533,18.462-31.303,30.854c-1.943,3.095-3.682,6.3-5.182,9.587
		c-1.508,3.281-2.779,6.645-3.734,10.051c-0.955,3.403-1.627,6.844-1.865,10.237c-0.236,3.391-0.072,6.729,0.625,9.797
		c0.693,3.077,1.936,5.874,3.701,8.335c1.756,2.468,4.059,4.606,6.748,6.42c2.691,1.809,5.734,3.318,8.971,4.56
		c3.236,1.242,6.66,2.227,10.172,3.026c7.023,1.63,14.383,2.514,21.811,3.082c7.432,0.575,14.977,0.734,22.52,0.763
		c7.58,0.023,15.096-0.2,22.541-0.721c7.432-0.54,14.787-1.464,21.826-3.048c3.514-0.802,6.939-1.789,10.18-3.035
		c3.242-1.234,6.301-2.729,8.996-4.552c2.695-1.821,4.998-3.972,6.775-6.439c1.783-2.468,3.02-5.285,3.713-8.372
		c0.705-3.079,0.881-6.428,0.633-9.825c-0.254-3.399-0.908-6.85-1.869-10.258c-1.941-6.821-5.062-13.462-8.941-19.655
		c-7.791-12.394-18.566-23.154-31.373-30.808l-2.926-1.747L670.241,275.948 M677.169,277.888
		c5.625,2.958,10.934,6.548,15.824,10.649c6.125,5.127,11.623,11.034,16.342,17.574c4.695,6.551,8.65,13.741,11.32,21.598
		c1.332,3.926,2.34,8.022,2.834,12.276c0.492,4.245,0.516,8.668-0.314,13.13c-0.818,4.445-2.543,8.891-5.129,12.756
		c-1.283,1.935-2.76,3.729-4.369,5.344c-1.613,1.614-3.344,3.066-5.145,4.36c-3.609,2.589-7.459,4.579-11.355,6.185
		c-3.904,1.591-7.861,2.808-11.822,3.797c-7.924,1.978-15.865,3.015-23.75,3.694c-1.973,0.166-3.943,0.307-5.91,0.425
		c-1.967,0.109-3.932,0.197-5.895,0.267c-3.922,0.138-7.848,0.2-11.736,0.209c-3.922,0.013-7.826-0.048-11.754-0.189
		c-3.926-0.138-7.861-0.352-11.807-0.67c-3.947-0.311-7.902-0.765-11.865-1.352c-3.963-0.591-7.934-1.335-11.9-2.308
		c-3.963-0.99-7.924-2.212-11.832-3.806c-3.902-1.598-7.771-3.573-11.381-6.177c-3.602-2.588-6.957-5.837-9.543-9.723
		c-2.604-3.872-4.322-8.338-5.141-12.793c-0.416-2.232-0.623-4.463-0.666-6.664l-0.008-0.871l0.012-0.721l0.023-0.866l0.037-0.814
		c0.057-1.083,0.154-2.157,0.279-3.223c0.51-4.26,1.5-8.366,2.84-12.296c1.34-3.932,3.004-7.696,4.91-11.302
		c1.922-3.598,4.078-7.037,6.434-10.314c4.732-6.54,10.24-12.445,16.377-17.565c6.129-5.126,12.904-9.459,20.141-12.723
		l-0.271,4.379l-0.002-0.001c-1.707-0.728-3.348-1.624-4.926-2.643c-1.582-1.018-3.094-2.17-4.525-3.437
		c-2.863-2.536-5.395-5.568-7.383-9.012c-1.99-3.437-3.424-7.29-4.111-11.31c-0.697-4.018-0.66-8.168,0.105-12.183
		c0.756-4.015,2.23-7.862,4.24-11.313c2.01-3.457,4.535-6.529,7.379-9.149c2.848-2.623,6.006-4.805,9.334-6.543
		c3.332-1.728,6.828-3.043,10.418-3.813h0.002l-1.59,2.368v-34.002l2.561,2.56h-0.004c-1.172,0.163-2.346,0.29-3.518,0.42
		l-0.439,0.046l-0.221,0.022c-0.078,0.007-0.133,0.016-0.248,0.021c-0.41,0.026-0.826,0.029-1.242,0.007
		c-0.834-0.048-1.67-0.197-2.482-0.445c-1.627-0.491-3.141-1.4-4.387-2.609c-1.236-1.217-2.207-2.745-2.77-4.442
		c-0.277-0.856-0.457-1.713-0.531-2.644l-0.037-0.584l-0.016-0.22l-0.01-0.315c-0.008-0.448,0.008-0.901,0.057-1.353
		c0.186-1.807,0.814-3.588,1.816-5.134c1.008-1.542,2.387-2.848,4.006-3.784c0.811-0.468,1.68-0.844,2.586-1.104
		c0.453-0.132,0.914-0.236,1.379-0.312c0.232-0.039,0.467-0.071,0.699-0.096l0.352-0.032l0.406-0.024l1.828-0.064l1.758-0.049
		l3.518-0.088c2.346-0.051,4.691-0.084,7.035-0.102c4.689-0.037,9.381-0.017,14.07,0.053c4.691,0.072,9.381,0.174,14.07,0.349
		c2.346,0.072,4.691,0.176,7.037,0.279c1.172,0.047,2.344,0.107,3.516,0.17l3.623,0.191c1.764,0.117,3.502,0.658,4.996,1.553
		c1.502,0.889,2.752,2.137,3.658,3.579c0.908,1.44,1.463,3.093,1.594,4.755c0.018,0.207,0.029,0.415,0.035,0.621l0.002,0.311
		l-0.006,0.341l-0.014,0.259l-0.018,0.22l-0.02,0.258l-0.025,0.307c-0.076,0.814-0.26,1.618-0.529,2.385
		c-1.068,3.084-3.633,5.444-6.57,6.259c-0.73,0.21-1.479,0.329-2.223,0.354c-0.188,0.006-0.373,0.009-0.557,0.003
		c-0.164-0.004-0.43-0.013-0.545-0.029l-0.135-0.012l-0.109-0.012l-0.219-0.025l-0.439-0.053c-1.174-0.143-2.346-0.287-3.518-0.457
		h-0.002l1.332-1.331l1.229,34.003l-1.59-2.369l0.004,0.002c3.516,0.953,6.936,2.366,10.184,4.172
		c3.246,1.809,6.32,4.023,9.08,6.652c2.768,2.62,5.209,5.665,7.17,9.061c0.973,1.699,1.816,3.488,2.525,5.34
		c0.689,1.859,1.236,3.781,1.621,5.741c0.371,1.969,0.576,3.945,0.619,5.974c0.035,1.968-0.104,3.993-0.426,5.959
		c-0.637,3.948-1.994,7.751-3.9,11.169c-1.91,3.421-4.354,6.464-7.131,9.04C680.751,275.364,678.997,276.704,677.169,277.888"/>
	<path fill="#AE8BAF" d="M681.407,238.047c0,2.424-19.482,4.389-43.518,4.389c-24.033,0-43.516-1.965-43.516-4.389
		s19.482-4.389,43.516-4.389C661.925,233.658,681.407,235.623,681.407,238.047"/>
	<path fill="#D1B1D1" d="M613.787,284.475c-2.191,0-7.228,2.22-13.825,6.626c-4.068,2.744-8.717,6.353-13.436,10.97
		c-4.699,4.62-9.512,10.258-13.439,17.149c-3.918,6.864-6.443,14.455-6.76,21.747c-0.07,1.83-0.07,3.527,0.191,5.549
		c0.256,1.936,0.803,3.807,1.549,5.495c1.504,3.402,3.797,5.94,6.025,7.71c2.248,1.784,4.467,2.894,6.426,3.663
		c1.965,0.761,3.693,1.172,5.117,1.386c0.837,0.124,1.569,0.178,2.188,0.178c0.434,0,0.812-0.027,1.132-0.075
		c0.396-0.055,0.672-0.157,0.904-0.266c0.236-0.114,0.395-0.219,0.49-0.398c0.076-0.137,0.117-0.313,0.094-0.504
		c-1.135,0.647-2.449,1.017-3.85,1.017c-4.295,0-7.777-3.481-7.777-7.777c0-1.323,0.33-2.569,0.914-3.66
		c-1.07-1.438-1.92-3.042-2.35-4.77c-0.488-1.902-0.438-3.752-0.041-6.581c0.754-5.282,2.91-11.049,6.184-16.792
		c3.271-5.751,7.24-10.944,11.098-15.541c3.867-4.598,7.641-8.613,10.828-12.031c6.402-6.812,10.393-11.347,9.402-12.716
		C614.671,284.601,614.31,284.475,613.787,284.475"/>
	<path fill="#FFFFFF" d="M613.526,227.735c-1.517,0-3.805,1.121-6.307,3.608c-1.041,1.053-2.104,2.364-3.073,3.932
		c3.017-0.373,6.63-0.695,10.69-0.952c0.758-2.953,1.104-5.19,0.016-6.151C614.531,227.885,614.08,227.735,613.526,227.735"/>
	<path fill="#D1B1D1" d="M601.716,240.487c-0.857,2.585-1.364,5.525-1.311,8.575c0.053,3.884,0.975,7.479,2.273,10.429
		c1.303,2.962,2.963,5.313,4.594,7.039c2.434,2.558,4.768,3.776,6.298,3.776c0.536,0,0.974-0.15,1.282-0.444
		c1.211-1.135,0.678-3.857-0.246-7.597c-0.926-3.74-2.148-8.454-2.203-13.38c-0.054-2.544,0.224-4.971,0.645-7.233
		C608.591,241.337,604.741,240.942,601.716,240.487"/>
	<path fill="#BB9EBC" d="M614.837,234.324c-4.061,0.256-7.674,0.579-10.69,0.952c-0.595,0.963-1.156,2.022-1.655,3.178
		c-0.282,0.648-0.542,1.328-0.775,2.033c3.025,0.456,6.875,0.851,11.332,1.164c0.393-2.11,0.91-4.077,1.4-5.864
		C614.586,235.282,614.717,234.794,614.837,234.324"/>
	<path fill="#CFADCF" d="M586.595,349.167c-2.972,0-5.555,1.667-6.863,4.117c0.082,0.112,0.167,0.222,0.252,0.332
		c2.412,3.057,5.445,5.208,7.469,6.852c1.029,0.824,1.852,1.527,2.381,2.153c0.258,0.309,0.477,0.614,0.564,0.885
		c0.023,0.067,0.039,0.134,0.047,0.2c2.348-1.339,3.93-3.864,3.93-6.76C594.374,352.649,590.892,349.167,586.595,349.167"/>
	<path fill="#D7BAD7" d="M579.731,353.284c-0.584,1.091-0.914,2.337-0.914,3.66c0,4.296,3.482,7.777,7.777,7.777
		c1.4,0,2.715-0.37,3.85-1.017c-0.008-0.065-0.023-0.132-0.047-0.2c-0.088-0.271-0.307-0.576-0.564-0.885
		c-0.529-0.626-1.352-1.329-2.381-2.153c-2.023-1.644-5.057-3.794-7.469-6.852C579.898,353.506,579.813,353.396,579.731,353.284"/>
	<path fill="#CFADCF" d="M672.435,332.662c-1.469,0-2.658,1.19-2.658,2.658s1.189,2.658,2.658,2.658c1.467,0,2.658-1.19,2.658-2.658
		S673.901,332.662,672.435,332.662"/>
	<path fill="#CFADCF" d="M631.405,249.018c-1.467,0-2.658,1.189-2.658,2.658c0,1.468,1.191,2.658,2.658,2.658
		c1.469,0,2.658-1.19,2.658-2.658C634.063,250.207,632.874,249.018,631.405,249.018"/>
	<path fill="#CFADCF" d="M676.921,318.217c-2.479,0-4.486,2.009-4.486,4.487c0,2.478,2.008,4.485,4.486,4.485
		s4.486-2.008,4.486-4.485C681.407,320.226,679.399,318.217,676.921,318.217"/>
	<path fill="#CFADCF" d="M642.376,265.375c-2.477,0-4.486,2.009-4.486,4.486s2.01,4.486,4.486,4.486
		c2.479,0,4.488-2.009,4.488-4.486S644.854,265.375,642.376,265.375"/>
	<circle fill="#C8A2C8" cx="628.749" cy="216.105" r="4.486"/>
	<circle fill="#C8A2C8" cx="642.272" cy="206.009" r="2.969"/>
	<circle fill="#C8A2C8" cx="636.269" cy="195.518" r="7.521"/>
	<circle fill="#FFFFFF" cx="634.46" cy="192.405" r="2.238"/>
	<circle fill="#FFFFFF" cx="637.457" cy="195.402" r="0.759"/>
	<circle fill="#FFFFFF" cx="641.157" cy="205.165" r="1.115"/>
	<circle fill="#FFFFFF" cx="627.669" cy="215.506" r="1.328"/>
</g>
</svg>
