<?xml version="1.0" encoding="utf-8"?>
<!-- Generator: Adobe Illustrator 15.0.0, SVG Export Plug-In . SVG Version: 6.00 Build 0)  -->
<!DOCTYPE svg PUBLIC "-//W3C//DTD SVG 1.1//EN" "http://www.w3.org/Graphics/SVG/1.1/DTD/svg11.dtd">
<svg version="1.1" id="Layer_1" xmlns="http://www.w3.org/2000/svg" xmlns:xlink="http://www.w3.org/1999/xlink" x="0px" y="0px"
	 width="264px" height="425px" viewBox="0 0 264 425" enable-background="new 0 0 264 425" xml:space="preserve">
<g>
	<ellipse fill="#99999A" cx="131.755" cy="410.88" rx="124.229" ry="7.5"/>
	<path fill="#FFFFFF" d="M199.053,264.824c5.576-10.622,8.736-22.711,8.736-35.541c0-26.974-13.949-50.687-35.025-64.328
		c6.678-8.77,10.643-19.713,10.643-31.583c0-18.577-9.706-34.884-24.322-44.133V37.925h5.113c4.904,0,8.882-4.902,8.882-10.949
		v-0.562c0-6.047-3.978-10.949-8.882-10.949H98.229c-4.905,0-8.881,4.902-8.881,10.949v0.562c0,6.047,3.976,10.949,8.881,10.949
		h5.113v51.314c-14.616,9.249-24.322,25.556-24.322,44.133c0,11.871,3.965,22.814,10.642,31.583
		c-21.075,13.642-35.023,37.355-35.023,64.329c0,12.828,3.159,24.918,8.735,35.541c-29.145,23.67-48.115,59.067-48.115,86.787
		c0,45.861,51.915,53.326,115.955,53.326s115.957-7.464,115.957-53.326C247.17,323.891,228.199,288.494,199.053,264.824"/>
	<path fill="#4B0082" d="M199.053,264.824c5.576-10.622,8.736-22.711,8.736-35.541c0-26.974-13.949-50.687-35.025-64.328
		c4.061-5.333,7.109-11.474,8.883-18.135c-3.543,1.215-7.264,1.813-10.77,1.653c-4.287-0.195-8.405-1.121-12.569-1.882
		c-11.683-0.792-23.054,2.273-34.724,2.582c-5.295,0.141-10.62-0.132-15.95-0.406c-6.525-0.336-13.058-0.67-19.548-0.245
		c-0.867,0.234-1.719,0.518-2.569,0.868l0.88-0.371c-1.523,0.535-3.047,0.948-4.588,1.218c1.827,5.35,4.497,10.308,7.853,14.716
		c-21.075,13.642-35.023,37.355-35.023,64.329c0,12.828,3.159,24.918,8.735,35.541c-29.145,23.67-48.115,59.067-48.115,86.787
		c0,45.861,51.915,53.326,115.955,53.326s115.957-7.464,115.957-53.326C247.17,323.891,228.199,288.494,199.053,264.824"/>
	<path fill="#231F20" d="M187.233,267.115l4.449-7.955c0.23-0.407,0.485-0.899,0.723-1.351c0.475-0.927,0.924-1.867,1.357-2.814
		c0.854-1.9,1.625-3.843,2.291-5.823c1.337-3.96,2.285-8.06,2.835-12.224c1.092-8.337,0.608-16.928-1.483-25.09
		c-2.077-8.17-5.734-15.953-10.728-22.773c-4.98-6.825-11.272-12.707-18.436-17.137l-0.003-0.001l-7.632-5.718l5.531-6.318
		c4.004-4.574,7.095-10.044,8.94-16.002c1.854-5.946,2.466-12.414,1.744-18.782c-0.718-6.369-2.807-12.664-6.147-18.342
		c-3.334-5.682-7.912-10.734-13.39-14.69l-0.006-0.004l-1.57-1.011v-1.839V37.925v0l-0.084-3.286l3.458-0.089l4.369-0.111
		l0.546-0.014l0.218-0.008l0.138-0.006l0.05-0.006c0.136-0.016,0.358-0.049,0.53-0.096c0.365-0.091,0.722-0.24,1.069-0.442
		c1.403-0.803,2.571-2.591,2.976-4.591c0.106-0.5,0.17-1.014,0.192-1.532c0.011-0.262,0.011-0.515,0.002-0.786l-0.014-0.506
		l-0.01-0.273l-0.013-0.158c-0.078-1.028-0.323-2.031-0.718-2.919c-0.39-0.889-0.934-1.664-1.542-2.228
		c-0.61-0.566-1.268-0.905-1.87-1.03c-0.152-0.031-0.302-0.053-0.451-0.061l-0.225-0.004l-0.354,0.01l-2.184,0.056l-4.369,0.112
		l-8.736,0.224l-17.473,0.446l-17.473,0.447l-8.737,0.224l-4.368,0.112l-2.185,0.056l-0.137,0.004l-0.067,0.002
		c-0.096,0,0.092-0.001,0.06,0l-0.034,0.001l-0.16,0.012l0.031,0.002l-0.023,0.005l-0.046,0.011l-0.183,0.065
		c-0.242,0.104-0.564,0.314-0.911,0.717c-0.344,0.399-0.677,0.971-0.899,1.638c-0.227,0.667-0.346,1.421-0.34,2.195l0.022,0.833
		v-0.032l0.001,0.034l0.003,0.068l0.005,0.137l0.011,0.104l0.03,0.276c0.048,0.377,0.127,0.742,0.231,1.085
		c0.207,0.686,0.529,1.287,0.882,1.721c0.351,0.434,0.721,0.682,0.946,0.754c0.115,0.038,0.193,0.043,0.25,0.034
		c0.121-0.006-0.188-0.026,0.84-0.045l4.368-0.112l0.008,0.001l7.397,0.515l-0.449,6.434l-3.574,51.313v0.001l0.105,1.62
		l-1.675,1.23c-5.449,4.004-9.979,9.089-13.254,14.782c-3.284,5.69-5.305,11.974-5.962,18.308
		c-0.658,6.332,0.011,12.742,1.901,18.608c1.883,5.877,4.991,11.248,8.983,15.716l0.002,0.004l4.313,10.801l-6.583,2.197
		c-2.042,0.681-4.011,1.563-5.922,2.573c-0.96,0.499-1.891,1.05-2.823,1.609c-0.918,0.578-1.831,1.173-2.722,1.803
		c-3.562,2.518-6.835,5.505-9.741,8.842c-5.815,6.678-10.107,14.787-12.456,23.438c-1.181,4.323-1.894,8.777-2.119,13.254
		c-0.107,2.248-0.105,4.459,0.03,6.738c0.124,2.188,0.385,4.442,0.753,6.628c0.746,4.392,1.994,8.677,3.713,12.73
		c1.729,4.047,3.895,7.886,6.613,11.284l0.003,0.006l2.765,5.317l-4.638,3.8c-7.466,6.117-14.277,13.084-20.295,20.667
		c-6.013,7.583-11.243,15.791-15.411,24.427c-4.15,8.624-7.271,17.724-8.623,26.834c-0.335,2.274-0.557,4.543-0.643,6.79
		c-0.021,0.561-0.036,1.121-0.039,1.68l-0.001,0.788l0.014,0.944l0.024,0.766l0.041,0.821c0.033,0.547,0.071,1.091,0.122,1.633
		c0.399,4.329,1.43,8.419,3.181,12.087c1.747,3.67,4.214,6.93,7.315,9.748c3.093,2.825,6.803,5.201,10.855,7.186
		c4.055,1.987,8.451,3.58,13.002,4.895c4.557,1.309,9.273,2.341,14.07,3.171c9.601,1.657,19.495,2.55,29.461,3.078
		c9.971,0.519,20.044,0.66,30.127,0.623c10.114-0.041,20.163-0.258,30.13-0.854c9.955-0.605,19.832-1.575,29.394-3.303
		c4.776-0.866,9.467-1.933,13.988-3.271c4.514-1.345,8.864-2.963,12.855-4.962c3.989-1.996,7.618-4.37,10.614-7.159
		c3.007-2.784,5.366-5.972,7.026-9.546c1.662-3.572,2.627-7.552,2.979-11.784c0.356-4.231,0.109-8.694-0.587-13.155
		c-1.404-8.948-4.557-17.91-8.727-26.398c-4.189-8.501-9.428-16.576-15.429-24.022c-6.007-7.445-12.79-14.271-20.197-20.241
		L187.233,267.115z M210.153,262.267c6.342,5.712,12.193,11.927,17.487,18.59c6.734,8.49,12.605,17.675,17.365,27.517
		c2.374,4.922,4.466,10.012,6.19,15.275c1.723,5.265,3.083,10.704,3.916,16.325c0.828,5.62,1.143,11.418,0.604,17.354
		c-0.534,5.922-1.995,12.015-4.692,17.681c-1.341,2.827-2.977,5.532-4.85,8.032c-1.873,2.501-3.984,4.79-6.237,6.85
		c-4.517,4.129-9.571,7.308-14.716,9.835c-5.155,2.529-10.427,4.419-15.697,5.947c-5.273,1.518-10.557,2.668-15.824,3.582
		c-10.537,1.819-21.015,2.751-31.423,3.306c-10.407,0.543-20.768,0.686-31.056,0.649c-10.32-0.041-20.655-0.261-31.059-0.882
		c-10.399-0.631-20.857-1.64-31.356-3.53c-5.247-0.95-10.504-2.135-15.742-3.682c-5.234-1.558-10.459-3.473-15.552-6.015
		c-5.08-2.538-10.055-5.715-14.475-9.809c-2.206-2.042-4.266-4.305-6.089-6.772c-1.823-2.465-3.41-5.127-4.708-7.907
		c-2.608-5.57-4.004-11.553-4.491-17.376c-0.063-0.729-0.109-1.457-0.147-2.184l-0.045-1.09l-0.026-1.147l-0.006-0.968l0.008-1.124
		c0.011-0.717,0.036-1.432,0.067-2.145c0.132-2.852,0.431-5.663,0.859-8.433c0.86-5.539,2.242-10.905,3.98-16.098
		c1.742-5.192,3.847-10.213,6.231-15.067c4.778-9.706,10.659-18.759,17.382-27.112c6.729-8.347,14.319-15.998,22.688-22.75
		l-1.873,9.116l-0.004-0.008c-1.669-4.967-3.113-9.896-4.151-14.879c-1.05-4.975-1.724-9.977-2.027-14.971
		c-0.155-2.507-0.204-4.969-0.172-7.502c0.039-2.441,0.162-4.956,0.392-7.417c0.449-4.944,1.276-9.847,2.495-14.657
		c2.44-9.624,6.395-18.866,11.688-27.465c2.643-4.305,5.626-8.445,8.917-12.424c0.823-0.994,1.661-1.984,2.529-2.95
		c0.854-0.984,1.746-1.935,2.641-2.897c1.8-1.91,3.676-3.778,5.598-5.663l-2.27,12.998l-0.004-0.004
		c-4.746-7-7.972-14.927-9.432-23.08c-1.47-8.157-1.193-16.465,0.688-24.325c1.882-7.863,5.417-15.22,10.215-21.472
		c4.79-6.263,10.83-11.426,17.564-15.135l-1.569,2.852v-0.001l-3.575-51.313l6.95,6.948l-0.008,0.001l-4.368-0.111
		c-0.409-0.016-0.568-0.006-1.422-0.046c-0.701-0.043-1.401-0.139-2.087-0.287c-1.372-0.292-2.677-0.791-3.851-1.431
		c-2.356-1.286-4.164-3.092-5.489-5.033c-1.325-1.949-2.194-4.06-2.689-6.198c-0.247-1.07-0.4-2.148-0.466-3.223
		c-0.017-0.273-0.026-0.526-0.033-0.814l-0.005-0.441l0.005-0.339l0.014-0.55c0.006-0.267,0.016-0.534,0.03-0.801
		c0.124-2.135,0.59-4.276,1.441-6.316c0.851-2.037,2.086-3.987,3.79-5.664c1.692-1.669,3.915-3.071,6.49-3.734
		c0.64-0.165,1.296-0.287,1.958-0.354c0.166-0.016,0.331-0.033,0.496-0.043l0.249-0.015l0.306-0.011
		c0.252-0.007,0.281-0.003,0.385-0.003l0.229,0.002l0.137,0.003l2.185,0.057l4.368,0.111l8.737,0.223l17.473,0.447l17.473,0.447
		l8.736,0.224l4.369,0.111l2.184,0.057l0.306,0.008l0.433,0.018c0.29,0.017,0.578,0.048,0.864,0.085
		c0.574,0.078,1.14,0.201,1.69,0.362c2.213,0.645,4.099,1.919,5.526,3.426c1.437,1.514,2.46,3.262,3.143,5.079
		c0.682,1.819,1.019,3.712,1.058,5.592l0.004,0.388l-0.004,0.273l-0.015,0.586c-0.009,0.456-0.036,0.931-0.081,1.396
		c-0.094,0.932-0.262,1.862-0.508,2.774c-0.495,1.825-1.306,3.589-2.465,5.172c-1.161,1.576-2.688,2.984-4.578,3.935
		c-0.941,0.473-1.967,0.828-3.03,1.02c-0.543,0.098-1.045,0.153-1.635,0.171l-0.223,0.005l-0.137-0.002l-0.328-0.005l-0.546-0.014
		l-4.369-0.112l3.374-3.374v0v51.314l-1.568-2.852l0.006,0.004c6.705,3.756,12.695,8.954,17.425,15.229
		c4.737,6.265,8.204,13.612,10.022,21.438c1.816,7.824,2.034,16.074,0.526,24.15c-1.5,8.071-4.743,15.897-9.478,22.79l-2.103-12.035
		l0.004,0.002c8.696,5.83,16.344,13.164,22.458,21.625c6.114,8.457,10.704,18.028,13.412,28.131
		c2.714,10.109,3.569,20.678,2.563,31.112c-0.501,5.22-1.476,10.408-2.908,15.478c-0.712,2.536-1.542,5.041-2.483,7.508
		C210.277,261.97,210.211,262.116,210.153,262.267z"/>
	<ellipse fill="#6821A5" cx="131.329" cy="148.017" rx="42.179" ry="4.43"/>
	<path fill="#682996" d="M102.229,180.303c-0.709,0-1.621,0.149-2.703,0.465c-2.395,0.703-5.641,2.232-9.217,4.838
		c-3.565,2.6-7.467,6.307-10.876,11.221c-3.415,4.891-6.262,11.024-7.755,17.796c-1.513,6.773-1.553,13.403-0.799,19.187
		c0.757,5.801,2.26,10.792,3.885,14.777c1.637,3.99,3.389,6.994,4.879,8.922c1.294,1.671,2.389,2.542,3.152,2.542
		c0.117,0,0.229-0.021,0.33-0.063c1.578-0.646,0.837-5.805-0.165-13.593c-0.96-7.767-1.998-18.337,0.431-29.161
		c1.197-5.403,3.137-10.312,5.435-14.573c2.29-4.267,4.905-7.888,7.288-10.866c4.797-5.963,8.494-9.371,7.739-10.861
		C103.653,180.524,103.092,180.303,102.229,180.303"/>
	<path fill="#682996" d="M79.783,279.897c-0.855,0-2.193,0.411-3.932,1.235c-2.639,1.26-6.21,3.483-10.209,6.832
		c-3.991,3.34-8.418,7.825-12.5,13.543c-4.082,5.699-7.779,12.67-10.215,20.504c-2.449,7.829-3.377,15.675-3.229,22.704
		c0.141,7.045,1.307,13.278,2.818,18.302c2.875,9.465,6.811,14.654,8.492,14.654c0.109,0,0.21-0.022,0.299-0.066
		c1.516-0.699,0.268-6.683-0.459-16.18c-0.352-4.737-0.543-10.34-0.097-16.452c0.441-6.109,1.546-12.72,3.63-19.388
		c4.125-13.387,11.502-24.161,17.355-31.719c2.922-3.801,5.455-6.846,7.094-9.14c1.643-2.288,2.392-3.833,1.883-4.495
		C80.543,280.009,80.229,279.897,79.783,279.897"/>
	<path fill="#611F91" d="M155.913,201.042c-5.059,0-9.159,4.1-9.159,9.158c0,5.059,4.101,9.159,9.159,9.159s9.159-4.101,9.159-9.159
		C165.072,205.142,160.972,201.042,155.913,201.042"/>
	<path fill="#611F91" d="M99.182,328.919c-5.057,0-9.157,4.1-9.157,9.159c0,5.058,4.101,9.159,9.157,9.159
		c5.06,0,9.16-4.101,9.16-9.159C108.342,333.019,104.241,328.919,99.182,328.919"/>
	<path fill="#611F91" d="M159.527,234.438c-1.996,0-3.614,1.619-3.614,3.615c0,1.997,1.618,3.615,3.614,3.615
		c1.997,0,3.616-1.618,3.616-3.615C163.144,236.058,161.524,234.438,159.527,234.438"/>
	<path fill="#611F91" d="M90.024,312.771c-1.997,0-3.616,1.618-3.616,3.616c0,1.997,1.619,3.615,3.616,3.615
		s3.616-1.618,3.616-3.615C93.641,314.389,92.021,312.771,90.024,312.771"/>
</g>
</svg>
