<?xml version="1.0" encoding="utf-8"?>
<!-- Generator: Adobe Illustrator 15.0.0, SVG Export Plug-In . SVG Version: 6.00 Build 0)  -->
<!DOCTYPE svg PUBLIC "-//W3C//DTD SVG 1.1//EN" "http://www.w3.org/Graphics/SVG/1.1/DTD/svg11.dtd">
<svg version="1.1" id="Layer_1" xmlns="http://www.w3.org/2000/svg" xmlns:xlink="http://www.w3.org/1999/xlink" x="0px" y="0px"
	 width="238px" height="323.333px" viewBox="0 0 238 323.333" enable-background="new 0 0 238 323.333" xml:space="preserve">
<g>
	<ellipse fill="#99999A" cx="117.511" cy="311.548" rx="108.152" ry="7.5"/>
	<path fill="#FFFFFF" d="M164.224,163.773c13.91-9.587,22.686-23.607,22.686-39.229c0-20.133-14.57-37.605-35.93-46.355V33.365
		h5.707c5.477,0,9.916-4.439,9.916-9.914v-0.509c0-5.476-4.439-9.915-9.916-9.915H83.04c-5.477,0-9.914,4.439-9.914,9.915v0.509
		c0,5.475,4.438,9.914,9.914,9.914h5.707v44.822c-21.357,8.75-35.928,26.223-35.928,46.356c0,15.622,8.775,29.642,22.686,39.229
		c-36.271,18.868-61.439,57.759-61.439,88.029c0,41.531,47.367,51.097,105.799,51.097c58.43,0,105.799-9.565,105.799-51.097
		C225.663,221.532,200.495,182.641,164.224,163.773"/>
	<path fill="#C8A2C8" d="M164.224,163.773c13.91-9.587,22.686-23.607,22.686-39.229c0-6.025-1.314-11.81-3.717-17.195
		c-2.004,1.275-4.195,2.262-6.508,2.897c-5.17,1.423-12.268,1.264-17.225-1.545c-2.672-0.015-5.352,0.157-8.016,0.296
		c-4.584,0.24-9.17,0.328-13.752,0.603c-10.406,0.624-20.795,1.512-31.207,2c-10.242,0.48-20.576,0.706-30.789-0.368
		c-5.975-0.629-13.283-1.054-19.51-3.098c-2.184,5.161-3.367,10.678-3.367,16.41c0,15.622,8.775,29.642,22.686,39.229
		c-36.271,18.868-61.439,57.759-61.439,88.029c0,41.531,47.367,51.097,105.799,51.097c58.43,0,105.799-9.565,105.799-51.097
		C225.663,221.532,200.495,182.641,164.224,163.773"/>
	<path fill="#231F20" d="M162.292,161.006c3.145-3.12,6.006-6.241,8.488-9.594c2.479-3.337,4.566-6.844,6.141-10.484
		c0.799-1.815,1.449-3.671,1.988-5.541c0.518-1.875,0.918-3.769,1.168-5.677c0.256-1.916,0.361-3.81,0.338-5.774
		c-0.018-1.885-0.203-3.831-0.535-5.719c-1.289-7.599-5.021-14.849-10.363-21.079c-2.672-3.117-5.725-6.002-9.059-8.631
		c-3.334-2.632-6.953-4.997-10.752-7.196L149.7,81.31l-2.172-0.997l0.078-2.125l1.619-44.823l0.064-1.816l1.689,0.062h0.002
		c1.545-0.226,3.09-0.415,4.637-0.603l1.127-0.136c0.234-0.025,0.27-0.05,0.441-0.083c0.141-0.031,0.281-0.067,0.42-0.106
		c0.551-0.162,1.076-0.373,1.559-0.643c0.965-0.54,1.773-1.285,2.361-2.141c0.582-0.862,0.957-1.814,1.082-2.77
		c0.062-0.479,0.07-0.955,0.029-1.426l-0.018-0.176l-0.021-0.239l-0.023-0.291l-0.002-0.035l-0.004,0.014l-0.006-0.072l-0.014-0.145
		l-0.064-0.3c-0.023-0.111-0.051-0.223-0.082-0.332c-0.25-0.872-0.684-1.649-1.258-2.284c-1.164-1.277-2.805-1.895-4.322-1.731
		l-4.5,0.244c-1.545,0.083-3.09,0.163-4.637,0.225c-3.09,0.136-6.182,0.274-9.273,0.368c-6.182,0.231-12.365,0.365-18.547,0.46
		c-6.184,0.092-12.365,0.119-18.547,0.07c-3.092-0.024-6.184-0.068-9.275-0.134l-4.637-0.116l-2.318-0.065l-2.229-0.078
		l-0.043-0.007l-0.115-0.002l-0.229,0.005c-0.152,0.009-0.305,0.026-0.453,0.051c-0.301,0.054-0.6,0.135-0.893,0.252
		c-0.584,0.237-1.133,0.63-1.574,1.134c-0.449,0.497-0.787,1.102-0.967,1.783c-0.043,0.171-0.086,0.346-0.115,0.527
		c-0.006,0.059-0.014,0.063-0.02,0.165l-0.02,0.289l-0.01,0.145l-0.002-0.03l-0.002,0.036l-0.004,0.072l-0.006,0.135l-0.008,0.031
		c-0.037,0.318-0.027,0.726,0.023,1.084c0.182,1.479,1.154,3.008,2.666,3.871c0.375,0.221,0.785,0.393,1.221,0.524
		c0.217,0.067,0.441,0.122,0.674,0.165c0.039,0.01,0.16,0.02,0.252,0.029l0.289,0.031l0.58,0.058
		c1.547,0.173,3.092,0.34,4.637,0.556h0.004h3.375v3.373v44.822v2.255l-2.096,0.868c-3.701,2.442-7.221,4.933-10.443,7.668
		c-3.225,2.722-6.166,5.649-8.725,8.775c-5.133,6.237-8.688,13.294-9.969,20.653c-0.643,3.674-0.746,7.442-0.316,11.163
		c0.432,3.723,1.4,7.421,2.877,11.031c1.471,3.613,3.439,7.134,5.807,10.525c0.596,0.845,1.203,1.693,1.85,2.519
		c0.633,0.839,1.305,1.656,1.984,2.478c1.369,1.636,2.824,3.24,4.324,4.87l0.004,0.003l4.584,2.796l-4.941,2.976
		C60.21,176.912,46.038,191.104,35.8,207.439c-2.562,4.079-4.855,8.305-6.832,12.638c-1.988,4.324-3.664,8.758-4.924,13.248
		c-1.258,4.486-2.145,9.021-2.457,13.496c-0.311,4.469-0.096,8.87,0.822,12.914c0.914,4.057,2.553,7.743,4.881,10.986
		c2.314,3.253,5.35,6.072,8.895,8.462c3.549,2.384,7.559,4.375,11.824,6.011c4.268,1.638,8.779,2.935,13.408,3.989
		c9.258,2.147,18.961,3.313,28.752,4.062c9.797,0.759,19.74,0.969,29.684,1.006c9.99,0.03,19.9-0.265,29.711-0.951
		c9.799-0.712,19.494-1.93,28.771-4.017c4.631-1.057,9.148-2.359,13.42-4.001c4.273-1.627,8.307-3.597,11.859-5.999
		c3.551-2.402,6.588-5.236,8.932-8.49c2.35-3.252,3.979-6.966,4.895-11.036c0.93-4.058,1.16-8.473,0.832-12.951
		c-0.332-4.48-1.195-9.029-2.461-13.522c-2.561-8.991-6.674-17.744-11.789-25.909c-10.27-16.336-24.473-30.522-41.355-40.609
		l-3.857-2.303L162.292,161.006 M171.425,163.563c7.412,3.898,14.41,8.631,20.857,14.038c8.074,6.759,15.324,14.545,21.541,23.166
		c6.191,8.635,11.404,18.113,14.922,28.47c1.758,5.175,3.086,10.574,3.738,16.183c0.648,5.596,0.678,11.426-0.414,17.308
		c-1.078,5.859-3.352,11.719-6.762,16.815c-1.691,2.549-3.639,4.914-5.76,7.043c-2.125,2.128-4.408,4.042-6.783,5.748
		c-4.754,3.412-9.83,6.035-14.965,8.15c-5.148,2.098-10.365,3.702-15.586,5.006c-10.445,2.606-20.914,3.974-31.309,4.87
		c-2.6,0.219-5.195,0.405-7.789,0.56c-2.594,0.145-5.184,0.261-7.771,0.352c-5.168,0.181-10.344,0.265-15.469,0.275
		c-5.172,0.017-10.316-0.063-15.494-0.249c-5.174-0.183-10.361-0.464-15.564-0.883c-5.201-0.41-10.414-1.009-15.639-1.782
		c-5.223-0.78-10.459-1.76-15.688-3.042c-5.225-1.306-10.445-2.915-15.598-5.017c-5.143-2.106-10.242-4.709-15-8.141
		c-4.75-3.412-9.17-7.695-12.58-12.816c-3.432-5.104-5.697-10.99-6.777-16.864c-0.547-2.941-0.82-5.883-0.877-8.783l-0.01-1.148
		l0.014-0.95l0.031-1.143l0.051-1.073c0.074-1.428,0.203-2.843,0.367-4.248c0.672-5.614,1.977-11.028,3.742-16.208
		c1.768-5.183,3.961-10.146,6.475-14.897c2.531-4.742,5.375-9.276,8.48-13.597c6.236-8.62,13.498-16.404,21.588-23.154
		c8.076-6.757,17.01-12.468,26.549-16.771l-0.357,5.773l-0.004-0.002c-2.25-0.959-4.414-2.141-6.494-3.484
		c-2.084-1.341-4.076-2.859-5.965-4.53c-3.773-3.343-7.111-7.339-9.73-11.878c-2.625-4.53-4.514-9.61-5.422-14.908
		c-0.916-5.296-0.867-10.767,0.139-16.059c0.998-5.292,2.941-10.364,5.592-14.913c2.648-4.557,5.979-8.607,9.727-12.062
		c3.752-3.456,7.916-6.333,12.303-8.624c4.395-2.277,9-4.012,13.734-5.027v-0.001l-2.094,3.123V33.365l3.373,3.375h-0.004
		c-1.545,0.215-3.09,0.383-4.637,0.553l-0.58,0.061l-0.289,0.029c-0.102,0.01-0.174,0.021-0.328,0.028
		c-0.541,0.035-1.088,0.039-1.637,0.01c-1.098-0.063-2.201-0.26-3.271-0.588c-2.146-0.648-4.141-1.845-5.781-3.439
		c-1.631-1.604-2.912-3.618-3.652-5.856c-0.365-1.129-0.602-2.257-0.701-3.484l-0.049-0.771l-0.02-0.289l-0.014-0.416
		c-0.012-0.59,0.012-1.188,0.074-1.783c0.244-2.381,1.072-4.73,2.396-6.767c1.326-2.034,3.145-3.754,5.279-4.989
		c1.068-0.616,2.215-1.112,3.408-1.456c0.598-0.171,1.205-0.31,1.816-0.411c0.309-0.051,0.615-0.093,0.924-0.126l0.463-0.043
		l0.537-0.031l2.406-0.084l2.318-0.066l4.637-0.115c3.092-0.065,6.184-0.11,9.275-0.134c6.182-0.048,12.363-0.022,18.547,0.07
		c6.182,0.095,12.365,0.229,18.547,0.46c3.092,0.095,6.184,0.231,9.273,0.368c1.547,0.062,3.092,0.141,4.637,0.225l4.775,0.252
		c2.324,0.155,4.615,0.868,6.586,2.047c1.979,1.171,3.629,2.817,4.822,4.718c1.197,1.898,1.928,4.076,2.102,6.267
		c0.023,0.273,0.037,0.548,0.045,0.82l0.004,0.409l-0.008,0.45l-0.02,0.34l-0.023,0.291l-0.023,0.339l-0.033,0.404
		c-0.102,1.074-0.344,2.134-0.699,3.144c-1.408,4.066-4.789,7.177-8.66,8.25c-0.963,0.278-1.951,0.435-2.932,0.466
		c-0.246,0.009-0.49,0.011-0.734,0.004c-0.215-0.005-0.564-0.016-0.717-0.039l-0.176-0.014l-0.145-0.017l-0.291-0.033l-0.578-0.069
		c-1.547-0.188-3.092-0.378-4.637-0.602h-0.002l1.756-1.756l1.619,44.823l-2.096-3.123l0.006,0.002
		c4.633,1.258,9.143,3.119,13.422,5.5c4.279,2.385,8.332,5.303,11.971,8.769c3.646,3.453,6.867,7.467,9.449,11.942
		c1.283,2.241,2.396,4.599,3.328,7.04c0.91,2.45,1.631,4.984,2.139,7.567c0.49,2.596,0.762,5.201,0.816,7.874
		c0.047,2.594-0.137,5.264-0.561,7.856c-0.84,5.204-2.629,10.216-5.143,14.722c-2.518,4.509-5.736,8.52-9.4,11.917
		C176.146,160.236,173.833,162.003,171.425,163.563"/>
	<path fill="#AE8BAF" d="M177.011,111.045c0,3.195-25.684,5.785-57.363,5.785c-31.682,0-57.363-2.59-57.363-5.785
		s25.682-5.784,57.363-5.784C151.327,105.261,177.011,107.851,177.011,111.045"/>
	<path fill="#D1B1D1" d="M57.025,276.73c-0.927,0.518-1.941,0.896-3.018,1.106c0.341,0.024,0.651,0.036,0.934,0.036
		c0.118,0,0.232-0.002,0.341-0.006c0.496-0.016,0.867-0.077,1.125-0.173c0.289-0.09,0.473-0.168,0.574-0.342
		C57.075,277.198,57.109,276.973,57.025,276.73 M88.46,172.455c-0.968,0-2.666,0.563-4.973,1.659
		c-3.258,1.556-7.734,4.175-12.964,7.896c-5.222,3.725-11.211,8.546-17.296,14.63c-6.06,6.086-12.268,13.447-17.341,22.349
		c-5.062,8.87-8.333,18.585-8.819,27.878c-0.111,2.329-0.13,4.517,0.172,7.011c0.296,2.409,0.951,4.732,1.852,6.838
		c1.818,4.238,4.626,7.454,7.398,9.749c2.794,2.31,5.586,3.805,8.064,4.875c0.361,0.154,0.717,0.3,1.066,0.436
		c-2.341-1.879-3.84-4.765-3.84-8c0-1.203,0.207-2.357,0.588-3.43c-1.728-2.043-3.188-4.433-3.962-7.125
		c-0.384-1.351-0.626-2.775-0.659-4.285c-0.038-1.423,0.104-3.297,0.334-5.1c0.926-7.283,3.824-15.176,8.242-22.923
		c4.417-7.762,9.783-14.679,15-20.741c5.233-6.064,10.348-11.292,14.688-15.691c8.722-8.764,14.265-14.355,13.267-15.732
		C89.137,172.551,88.861,172.455,88.46,172.455"/>
	<path fill="#FFFFFF" d="M88.238,97.691c-0.612,0-1.393,0.228-2.311,0.689c-1.561,0.791-3.524,2.269-5.56,4.537
		c-1.064,1.188-2.149,2.603-3.17,4.238c3.198-0.354,6.825-0.669,10.803-0.935c1.485-4.194,2.447-7.161,1.277-8.189
		C89.022,97.805,88.673,97.691,88.238,97.691"/>
	<path fill="#D1B1D1" d="M73.781,114.521c-1.071,3.326-1.706,7.098-1.638,11.017c0.066,4.896,1.184,9.443,2.758,13.223
		c1.579,3.793,3.59,6.855,5.553,9.152c3.146,3.656,6.119,5.421,7.801,5.421c0.433,0,0.78-0.117,1.023-0.35
		c1.215-1.135,0.104-4.453-1.49-9.337c-1.588-4.872-3.563-11.325-3.646-18.287c-0.072-3.435,0.352-6.694,1.006-9.692
		C80.849,115.341,77.019,114.955,73.781,114.521"/>
	<path fill="#BB9EBC" d="M88.001,106.22c-3.978,0.266-7.604,0.58-10.803,0.935c-0.922,1.478-1.79,3.137-2.542,4.974
		c-0.315,0.767-0.608,1.565-0.875,2.392c3.237,0.434,7.067,0.82,11.366,1.147c0.671-3.073,1.582-5.872,2.448-8.308
		C87.734,106.971,87.869,106.591,88.001,106.22"/>
	<path fill="#CFADCF" d="M45.62,275.774c1.756,1.409,3.984,2.252,6.412,2.252c0.676,0,1.336-0.065,1.976-0.19
		c-0.821-0.06-1.811-0.195-2.952-0.432C49.507,277.081,47.674,276.577,45.62,275.774 M52.032,257.522
		c-4.461,0-8.254,2.847-9.664,6.822c0.004,0.005,0.008,0.01,0.012,0.014c1.732,2.05,3.696,3.744,5.523,5.169
		c1.837,1.425,3.551,2.587,4.969,3.576c1.42,0.988,2.551,1.805,3.289,2.512c0.364,0.352,0.646,0.681,0.812,0.99
		c0.021,0.042,0.039,0.084,0.053,0.125c3.138-1.753,5.259-5.107,5.259-8.956C62.284,262.112,57.694,257.522,52.032,257.522"/>
	<path fill="#D7BAD7" d="M42.368,264.344c-0.381,1.073-0.588,2.227-0.588,3.43c0,3.235,1.499,6.121,3.84,8
		c2.054,0.802,3.887,1.306,5.436,1.63c1.142,0.236,2.131,0.372,2.952,0.432c1.076-0.21,2.091-0.588,3.018-1.106
		c-0.014-0.041-0.031-0.083-0.053-0.125c-0.165-0.309-0.447-0.639-0.812-0.99c-0.738-0.707-1.869-1.523-3.289-2.512
		c-1.418-0.989-3.132-2.151-4.969-3.576c-1.827-1.425-3.791-3.119-5.523-5.169C42.376,264.354,42.372,264.349,42.368,264.344"/>
	<path fill="#CFADCF" d="M165.183,235.766c-1.936,0-3.504,1.568-3.504,3.503c0,1.935,1.568,3.503,3.504,3.503
		s3.504-1.568,3.504-3.503C168.687,237.334,167.118,235.766,165.183,235.766"/>
	<path fill="#CFADCF" d="M111.101,125.507c-1.936,0-3.504,1.568-3.504,3.503s1.568,3.505,3.504,3.505
		c1.934,0,3.502-1.57,3.502-3.505S113.034,125.507,111.101,125.507"/>
	<path fill="#CFADCF" d="M171.097,216.725c-3.268,0-5.914,2.647-5.914,5.914s2.646,5.914,5.914,5.914
		c3.266,0,5.914-2.648,5.914-5.914S174.362,216.725,171.097,216.725"/>
	<path fill="#CFADCF" d="M125.562,147.07c-3.268,0-5.914,2.648-5.914,5.914s2.646,5.913,5.914,5.913
		c3.266,0,5.914-2.647,5.914-5.913S128.827,147.07,125.562,147.07"/>
	<circle fill="#C8A2C8" cx="107.597" cy="82.124" r="5.914"/>
	<circle fill="#C8A2C8" cx="125.423" cy="68.813" r="3.914"/>
	<circle fill="#C8A2C8" cx="117.51" cy="54.985" r="9.913"/>
	<circle fill="#FFFFFF" cx="115.126" cy="50.882" r="2.951"/>
	<circle fill="#FFFFFF" cx="119.077" cy="54.833" r="1"/>
	<circle fill="#FFFFFF" cx="123.953" cy="67.702" r="1.47"/>
	<circle fill="#FFFFFF" cx="106.175" cy="81.333" r="1.75"/>
</g>
</svg>
