<?xml version="1.0" encoding="utf-8"?>
<!-- Generator: Adobe Illustrator 15.0.0, SVG Export Plug-In . SVG Version: 6.00 Build 0)  -->
<!DOCTYPE svg PUBLIC "-//W3C//DTD SVG 1.1//EN" "http://www.w3.org/Graphics/SVG/1.1/DTD/svg11.dtd">
<svg version="1.1" id="Layer_1" xmlns="http://www.w3.org/2000/svg" xmlns:xlink="http://www.w3.org/1999/xlink" x="0px" y="0px"
	 width="263.333px" height="328.382px" viewBox="0 0 263.333 328.382" enable-background="new 0 0 263.333 328.382"
	 xml:space="preserve">
<g>
	<ellipse fill="#99999A" cx="132.998" cy="318.547" rx="105.423" ry="7.5"/>
	<path fill="#FFFFFF" d="M194.591,168.246c13.609-8.214,21.897-19.092,21.897-31.024c0-20.276-23.92-37.506-57.232-43.79V34.66
		h5.112c4.905,0,8.881-4.901,8.881-10.948V23.15c0-6.047-3.976-10.948-8.881-10.948H98.399c-4.904,0-8.881,4.901-8.881,10.948v0.562
		c0,6.047,3.977,10.948,8.881,10.948h5.113v58.771c-33.312,6.284-57.233,23.514-57.233,43.79c0,11.933,8.288,22.811,21.898,31.024
		c-31.753,23.562-52.749,61.224-52.749,90.386c0,45.861,51.915,53.326,115.955,53.326c64.041,0,115.956-7.465,115.956-53.326
		C247.34,229.47,226.344,191.809,194.591,168.246"/>
	<path fill="#0047AB" d="M194.591,168.246c8.795-5.308,15.362-11.729,18.912-18.828c-4.657,2.104-9.948,3.125-14.988,2.513
		c-2.702-0.328-5.357-0.777-8.018-1.214c-2.654-0.112-5.352,0.167-7.997,0.218c-3.117,0.06-6.235,0.086-9.354,0.065
		c-6.574-0.043-13.146-0.225-19.717-0.457c-13.015-0.457-26.059-0.552-39.014-1.905c-6.35-0.661-12.537-0.983-18.895-0.265
		c-5.867,0.663-11.729,1.682-17.638,1.873c-3.137,0.103-6.274-0.023-9.412-0.147c-2.407-0.096-4.815-0.192-7.223-0.186
		c-3.839,0.009-7.68,0.127-11.508,0.424c3.646,6.734,10.022,12.831,18.437,17.909c-31.753,23.562-52.749,61.224-52.749,90.386
		c0,45.861,51.915,53.326,115.955,53.326c64.041,0,115.956-7.465,115.956-53.326C247.34,229.47,226.344,191.809,194.591,168.246"/>
	<path fill="#231F20" d="M192.832,165.365c3.697-2.955,7.081-6.059,9.899-9.468c2.801-3.398,5.026-7.058,6.204-10.791
		c0.603-1.858,0.958-3.724,1.035-5.565c0.025-0.46,0.036-0.919,0.026-1.377c-0.004-0.229-0.01-0.457-0.023-0.686l-0.048-0.73
		l-0.071-0.631c-0.028-0.226-0.062-0.45-0.097-0.675c-0.071-0.447-0.159-0.893-0.263-1.334c-0.396-1.77-1.04-3.495-1.907-5.162
		c-0.862-1.668-1.926-3.291-3.177-4.832c-2.506-3.083-5.662-5.883-9.171-8.357c-3.516-2.475-7.377-4.643-11.424-6.537
		c-2.021-0.958-4.109-1.792-6.184-2.701c-2.079-0.896-4.166-1.821-6.265-2.799c-2.097-0.984-4.21-2-6.33-3.14
		c-2.122-1.139-4.269-2.313-6.404-3.831l-0.004-0.001l-2.551-0.312l-0.198-3.004L152,34.661l-0.445-6.746l7.701-0.509h0.002
		l4.369,0.121l0.546,0.015l0.137,0.004l0.034,0c0.11,0-0.113,0.002-0.077,0.002l0.068,0.001l0.136,0.002l-0.04,0.003l-0.044,0.009
		l0.009,0.007l0.019,0.012c0.028,0.016,0.079,0.022,0.172-0.002c0.182-0.045,0.522-0.257,0.854-0.659
		c0.332-0.4,0.646-0.969,0.849-1.625c0.103-0.328,0.181-0.677,0.229-1.04c0.025-0.186,0.042-0.357,0.053-0.564l0.008-0.274
		l0.003-0.135l0.002-0.069l0.001-0.034c0.001,0.019,0.001-0.091,0.002,0.035l0.005-0.273l0.004-0.077
		c0.011-0.74-0.1-1.472-0.312-2.11c-0.208-0.642-0.521-1.188-0.837-1.564c-0.319-0.38-0.605-0.569-0.802-0.664l-0.15-0.061
		l-0.077-0.021l-0.04-0.009l-0.093-0.004l-0.137-0.003l-2.184-0.062l-4.368-0.121l-8.736-0.243l-17.474-0.485l-17.473-0.485
		l-8.736-0.242l-4.368-0.122l-2.185-0.06l-0.137-0.004l-0.067-0.002l0.034-0.001h-0.034l-0.188-0.002l-0.015-0.003l-0.055,0.001
		l-0.109,0.003c-0.146,0.006-0.292,0.026-0.44,0.056c-0.588,0.117-1.236,0.445-1.843,1.002c-0.604,0.553-1.146,1.319-1.537,2.201
		c-0.395,0.881-0.643,1.873-0.725,2.901l-0.022,0.388l-0.016,0.544l-0.008,0.402l0.008,0.382c0.021,0.517,0.082,1.029,0.186,1.527
		c0.396,1.993,1.551,3.78,2.945,4.585c0.346,0.204,0.7,0.353,1.063,0.446c0.396,0.101,0.594,0.116,1.476,0.134l4.369,0.122h0.005
		h3.374v3.374v58.771v2.789l-2.749,0.527h-0.001c-4.376,2.479-8.656,4.599-12.786,6.808c-4.131,2.189-8.122,4.386-11.918,6.679
		c-3.789,2.298-7.392,4.682-10.65,7.231c-3.258,2.539-6.195,5.235-8.459,8.117c-2.272,2.88-3.857,5.855-4.645,8.922
		c-0.787,3.079-0.814,6.338,0.091,9.805c0.885,3.471,2.734,7.105,5.217,10.635c2.472,3.558,5.583,6.951,8.934,10.412h0.002
		l4.239,2.201l-3.973,3.398c-7.753,6.633-14.792,14-20.991,21.968c-6.204,7.958-11.576,16.513-15.918,25.461
		c-2.165,4.475-4.048,9.058-5.623,13.696c-1.566,4.641-2.776,9.356-3.582,14.057c-0.799,4.714-1.127,9.374-0.886,13.959
		c0.011,0.255,0.028,0.527,0.051,0.813c0.018,0.281,0.038,0.562,0.065,0.84c0.048,0.559,0.107,1.112,0.177,1.661
		c0.138,1.099,0.316,2.181,0.538,3.24c0.442,2.121,1.058,4.155,1.851,6.079c1.575,3.854,3.859,7.269,6.829,10.213
		c1.478,1.477,3.129,2.83,4.905,4.081c1.772,1.257,3.679,2.404,5.688,3.447c4.019,2.089,8.432,3.754,13.023,5.125
		c4.591,1.387,9.374,2.467,14.245,3.338c9.758,1.706,19.841,2.716,30.02,3.274c10.18,0.581,20.48,0.808,30.796,0.824
		c10.348,0.019,20.628-0.079,30.823-0.619c10.185-0.534,20.295-1.396,30.077-3.114c4.884-0.859,9.691-1.898,14.312-3.266
		c4.619-1.36,9.056-3.043,13.119-5.13c4.063-2.081,7.738-4.593,10.747-7.589c3.009-2.997,5.359-6.463,6.972-10.383
		c1.615-3.916,2.476-8.281,2.715-12.851c0.258-4.575-0.101-9.32-0.908-14.051c-1.613-9.487-4.97-18.905-9.329-27.867
		c-1.094-2.242-2.261-4.456-3.49-6.639c-1.222-2.188-2.51-4.346-3.856-6.469c-2.699-4.244-5.621-8.365-8.757-12.331
		c-6.275-7.929-13.374-15.263-21.222-21.771l-3.308-2.743L192.832,165.365z M201.1,168.69c7.197,5.246,13.889,11.222,19.979,17.784
		c3.668,3.96,7.134,8.124,10.347,12.493c3.225,4.361,6.207,8.92,8.905,13.668c2.707,4.744,5.136,9.676,7.203,14.802
		c2.063,5.126,3.812,10.436,5.027,15.951c1.219,5.511,1.961,11.221,1.926,17.094c-0.042,5.861-0.921,11.949-3.04,17.803
		c-1.052,2.922-2.421,5.765-4.063,8.438c-1.644,2.674-3.58,5.159-5.697,7.422c-4.248,4.536-9.216,8.119-14.346,10.975
		c-5.146,2.855-10.485,4.991-15.835,6.734c-5.357,1.732-10.742,3.066-16.124,4.125c-5.383,1.05-10.759,1.849-16.12,2.485
		c-5.362,0.63-10.709,1.115-16.043,1.447c-10.664,0.669-21.282,0.944-31.826,0.97c-10.575,0.01-21.173-0.138-31.854-0.765
		c-5.337-0.323-10.691-0.757-16.063-1.354c-5.372-0.591-10.76-1.371-16.155-2.418s-10.805-2.339-16.192-4.052
		c-5.378-1.734-10.74-3.887-15.932-6.739c-2.593-1.428-5.139-3.035-7.583-4.86c-2.438-1.833-4.772-3.886-6.916-6.176
		c-4.3-4.557-7.775-10.109-9.904-16.029c-1.068-2.957-1.829-5.984-2.322-9.001c-0.247-1.51-0.428-3.017-0.55-4.516
		c-0.062-0.75-0.109-1.498-0.141-2.244c-0.019-0.372-0.03-0.744-0.039-1.116c-0.011-0.366-0.019-0.745-0.021-1.143l-0.005-0.587
		l0.005-0.509l0.016-1.087c0.016-0.735,0.05-1.467,0.093-2.196c0.086-1.459,0.218-2.907,0.387-4.342
		c0.342-2.871,0.833-5.694,1.453-8.466c1.229-5.547,2.99-10.882,5.079-16.025c2.085-5.146,4.544-10.089,7.274-14.842
		c5.457-9.508,12.039-18.244,19.438-26.139c7.419-7.873,15.684-14.915,24.707-20.74l0.267,5.599l-0.001-0.001
		c-5.004-1.584-9.794-4.051-14.24-7.395c-4.407-3.362-8.481-7.736-11.309-13.322c-1.398-2.783-2.474-5.854-3.041-9.073
		c-0.584-3.217-0.67-6.557-0.268-9.838c0.401-3.281,1.299-6.472,2.543-9.426c1.248-2.957,2.839-5.678,4.627-8.152
		c1.795-2.471,3.783-4.705,5.892-6.722c2.103-2.025,4.338-3.823,6.643-5.441c4.624-3.22,9.539-5.704,14.574-7.578
		c5.038-1.875,10.198-3.15,15.393-3.856c5.197-0.685,10.421-0.88,15.639-0.214h0.002l-2.748,3.315V34.661l3.374,3.375h-0.005
		l-4.369,0.121c-0.388,0.006-0.643,0.031-1.261,0.017c-0.54-0.015-1.08-0.072-1.611-0.168c-1.066-0.192-2.093-0.546-3.036-1.02
		c-1.894-0.951-3.426-2.361-4.59-3.938c-1.164-1.585-1.979-3.352-2.477-5.181c-0.248-0.914-0.418-1.844-0.512-2.78
		c-0.023-0.237-0.042-0.462-0.057-0.708l-0.028-0.69l-0.015-0.549c-0.004-0.234-0.005-0.469-0.001-0.704
		c0.036-1.881,0.372-3.783,1.055-5.61c0.683-1.823,1.708-3.58,3.149-5.103c1.434-1.516,3.33-2.8,5.558-3.45
		c0.554-0.161,1.124-0.286,1.701-0.364c0.145-0.019,0.289-0.038,0.434-0.052l0.218-0.02l0.259-0.016l0.356-0.018l0.342-0.008
		l2.185-0.061l4.368-0.121l8.736-0.242l17.473-0.485l17.474-0.485l8.736-0.243l4.368-0.122l2.184-0.06l0.317-0.007
		c0.168,0,0.337,0,0.505,0.006c0.337,0.009,0.675,0.033,1.011,0.067c0.674,0.07,1.341,0.193,1.992,0.36
		c2.619,0.674,4.878,2.097,6.598,3.79c1.729,1.702,2.983,3.677,3.848,5.741c0.864,2.069,1.337,4.232,1.466,6.401l0.031,0.741
		l0.016,0.615c0.01,0.52,0,1.078-0.033,1.617c-0.065,1.089-0.22,2.182-0.469,3.267c-0.501,2.168-1.381,4.311-2.726,6.293
		c-1.346,1.972-3.184,3.812-5.586,5.125c-1.196,0.652-2.526,1.162-3.928,1.461c-0.349,0.076-0.703,0.137-1.059,0.187
		c-0.178,0.022-0.356,0.047-0.535,0.063c-0.177,0.018-0.347,0.033-0.588,0.045l-0.45,0.021l-0.384,0.009l-0.546,0.016l-4.369,0.12
		h-0.002l7.255-7.255l-3.881,58.771l-2.749-3.315l0.004,0.001c2.661-0.61,5.29-0.758,7.908-0.726
		c2.621,0.025,5.215,0.313,7.782,0.776c2.564,0.471,5.096,1.137,7.574,1.991c2.483,0.843,4.893,1.917,7.287,3.045
		c4.779,2.276,9.434,4.978,13.801,8.273c4.356,3.293,8.463,7.183,11.822,11.922c1.669,2.37,3.169,4.936,4.33,7.714
		c1.156,2.774,1.996,5.745,2.398,8.794c0.096,0.763,0.164,1.528,0.206,2.296c0.021,0.384,0.034,0.768,0.042,1.151
		c0.006,0.38,0.008,0.762,0.002,1.199l-0.008,0.266l-0.009,0.229l-0.011,0.318l-0.015,0.287c-0.018,0.382-0.047,0.764-0.08,1.145
		c-0.065,0.762-0.163,1.52-0.283,2.271c-0.501,3.007-1.436,5.897-2.687,8.556c-2.536,5.323-6.235,9.67-10.323,13.165
		C206.939,165.075,204.063,167.017,201.1,168.69z"/>
	<path fill="#02418C" d="M205.401,151.91c0,2.446-32.804,4.431-73.268,4.431c-40.465,0-73.268-1.984-73.268-4.431
		s32.803-4.429,73.268-4.429C172.598,147.481,205.401,149.464,205.401,151.91"/>
	<path fill="#FFFFFF" d="M71.874,130.645c-0.522,0-1.094,0.167-1.689,0.529c-0.984,0.594-2.02,1.749-2.81,3.413
		c-0.792,1.657-1.296,3.812-1.324,6.138c-0.036,2.329,0.384,4.811,1.216,7.184c0.228,0.645,0.477,1.264,0.743,1.857
		c3.312-0.361,7.436-0.691,12.221-0.981c-0.488-1.565-1.057-3.2-1.636-4.835l-2.82-8.164c-0.802-2.179-1.43-4.194-2.935-4.931
		C72.544,130.718,72.22,130.645,71.874,130.645"/>
	<path fill="#2965B9" d="M70.706,154.326c1.174,1.541,2.434,2.768,3.635,3.666c1.67,1.241,3.252,1.871,4.501,1.871
		c0.683,0,1.267-0.188,1.711-0.566c0.978-0.821,1.263-2.295,1.109-4.174C77.521,154.884,73.839,154.616,70.706,154.326"/>
	<path fill="#2B609E" d="M80.23,148.784c-4.785,0.29-8.909,0.62-12.221,0.981c0.778,1.737,1.707,3.261,2.696,4.56
		c3.133,0.291,6.815,0.558,10.956,0.796C81.515,153.311,80.961,151.124,80.23,148.784"/>
	<path fill="#2965B9" d="M79.743,178.286c-2.147,0-7.733,3.065-14.722,9.242c-4.1,3.647-8.678,8.388-13.065,14.326
		c-4.364,5.933-8.59,13.103-11.361,21.524c-0.688,2.102-1.263,4.229-1.711,6.361c-0.224,1.067-0.415,2.135-0.574,3.202
		c-0.159,1.05-0.289,2.177-0.376,3.131c-0.383,3.952-0.556,7.801-0.513,11.485c0.075,7.365,1.061,14.074,2.725,19.536
		c1.646,5.469,3.992,9.65,6.214,12.12c1.668,1.903,3.286,2.775,4.18,2.775c0.282,0,0.492-0.086,0.609-0.255
		c0.482-0.658-0.034-2.088-0.716-4.805c-0.693-2.688-1.537-6.582-1.971-11.517c-0.447-4.93-0.498-10.883,0.01-17.529
		c0.252-3.324,0.632-6.818,1.139-10.442c0.126-0.94,0.248-1.721,0.404-2.585c0.154-0.847,0.331-1.7,0.529-2.557
		c0.398-1.715,0.885-3.447,1.455-5.188c2.289-6.973,5.656-13.396,9.117-19.066c3.475-5.677,7.057-10.619,10.139-14.763
		c6.197-8.283,10.346-13.402,9.298-14.705C80.399,178.384,80.126,178.286,79.743,178.286"/>
	<path fill="#1F5DB5" d="M153.342,172.794c-5.06,0-9.159,4.101-9.159,9.158s4.1,9.159,9.159,9.159c5.058,0,9.158-4.101,9.158-9.159
		S158.399,172.794,153.342,172.794"/>
	<path fill="#1F5DB5" d="M143.459,197.859c-1.996,0-3.615,1.619-3.615,3.615c0,1.997,1.619,3.616,3.615,3.616
		c1.997,0,3.616-1.619,3.616-3.616C147.075,199.479,145.456,197.859,143.459,197.859"/>
	<circle fill="#0047AB" cx="130.214" cy="135.912" r="2.784"/>
	<circle fill="#0047AB" cx="144.111" cy="117.874" r="4.227"/>
	<circle fill="#0047AB" cx="127.486" cy="98.559" r="3.615"/>
	<circle fill="#FFFFFF" cx="126.313" cy="97.248" r="1.312"/>
	<circle fill="#FFFFFF" cx="143.666" cy="116.917" r="1.75"/>
	<circle fill="#FFFFFF" cx="129.502" cy="135.503" r="0.711"/>
</g>
</svg>
