<?xml version="1.0" encoding="utf-8"?>
<!-- Generator: Adobe Illustrator 15.0.0, SVG Export Plug-In . SVG Version: 6.00 Build 0)  -->
<!DOCTYPE svg PUBLIC "-//W3C//DTD SVG 1.1//EN" "http://www.w3.org/Graphics/SVG/1.1/DTD/svg11.dtd">
<svg version="1.1" id="Layer_1" xmlns="http://www.w3.org/2000/svg" xmlns:xlink="http://www.w3.org/1999/xlink" x="0px" y="0px"
	 width="1280px" height="800px" viewBox="0 0 1280 800" enable-background="new 0 0 1280 800" xml:space="preserve">
<g>
	<polyline fill="#FFFFFF" points="1280,797.883 -0.001,797.883 -0.001,-2.117 1280,-2.117 1280,797.883 	"/>
	<g>
		<path fill="#0047AB" d="M379.989,558.418l26.44,9.303c-2.246,10.889-7.397,19.8-15.454,26.732
			c-8.155,6.983-19.385,10.475-33.691,10.475c-19.531,0-33.984-5.103-43.359-15.309c-9.424-10.155-14.136-22.559-14.136-37.207
			c0-14.745,4.614-27.27,13.843-37.572s21.215-15.455,35.962-15.455c11.963,0,21.704,2.955,29.224,8.863v-6.812h24.463v37.207
			h-25.415c-1.318-4.638-3.541-8.3-6.665-10.986c-3.125-2.637-6.69-3.955-10.693-3.955c-11.035,0-16.553,9.498-16.553,28.492
			c0,19.043,5.713,28.564,17.139,28.564C371.102,580.758,377.4,573.312,379.989,558.418z"/>
		<path fill="#0047AB" d="M420.199,552.119c0-8.496,2.075-16.723,6.226-24.682c4.102-7.91,10.474-14.576,19.116-19.996
			c3.076-1.904,6.237-3.417,9.484-4.541c3.247-1.122,6.775-1.988,10.584-2.6c3.809-0.61,7.812-0.916,12.012-0.916
			c18.262,0,32.397,5.348,42.407,16.041c4.98,5.273,8.74,10.986,11.279,17.139c2.538,6.152,3.809,12.67,3.809,19.555
			c0,14.209-5.176,26.563-15.527,37.061c-10.353,10.499-24.342,15.748-41.968,15.748c-17.041,0-30.86-4.932-41.455-14.795
			C425.521,580.318,420.199,567.646,420.199,552.119z M464.438,552.119c0,11.329,1.099,18.971,3.296,22.926
			c2.099,4.004,5.395,6.006,9.888,6.006c4.442,0,7.764-1.929,9.961-5.787c2.197-3.905,3.296-11.62,3.296-23.145
			c0-11.181-1.074-18.798-3.223-22.852c-2.1-4.003-5.445-6.006-10.034-6.006c-4.395,0-7.69,1.93-9.888,5.787
			S464.438,540.597,464.438,552.119z"/>
		<path fill="#0047AB" d="M606.747,603.316h-57.642v-24.391h8.862v-53.1h-8.862v-24.391h62.256c12.206,0,21.654,0.709,28.345,2.125
			c6.592,1.465,11.767,4.37,15.527,8.715c3.76,4.444,5.64,9.62,5.64,15.527c0,5.763-1.783,10.353-5.347,13.77
			c-3.662,3.516-8.105,5.958-13.33,7.324c7.178,2.149,12.695,5.47,16.553,9.961c3.906,4.591,5.859,9.742,5.859,15.455
			c0,6.836-2.197,12.646-6.592,17.432c-4.395,4.736-10.426,7.836-18.091,9.301C632.356,602.56,621.297,603.316,606.747,603.316z
			 M597.372,523.775v18.604h8.716c5.907,0,9.789-0.854,11.646-2.564c1.758-1.708,2.637-3.955,2.637-6.738
			c0-2.392-0.806-4.541-2.417-6.445s-6.031-2.855-13.257-2.855H597.372z M597.372,560.908v20.068h8.862
			c5.664,0,9.741-0.732,12.231-2.197c2.441-1.465,3.662-4.052,3.662-7.764c0-3.466-1.099-6.029-3.296-7.689
			c-2.197-1.611-6.445-2.418-12.744-2.418H597.372z"/>
		<path fill="#0047AB" d="M709.655,603.316h-40.356v-24.391h7.764l19.116-53.1h-8.203v-24.391h73.242v24.391h-8.203l19.482,53.1
			h7.471v24.391h-53.174v-22.34h8.936l-3.882-12.816h-26.074l-4.468,12.816h8.35V603.316z M719.25,527.291l-9.595,28.197h18.237
			L719.25,527.291z"/>
		<path fill="#0047AB" d="M883.898,603.316h-96.973v-24.391h9.155v-53.1h-9.155v-24.391h58.228v24.391h-9.668v53.1h24.097v-16.332
			h24.316V603.316z"/>
		<path fill="#0047AB" d="M960.026,603.316h-57.202v-24.391h8.789v-53.1h-11.719v18.529h-19.116v-42.92h101.001v42.92h-19.116
			v-18.529h-11.646v53.1h9.009V603.316z"/>
	</g>
	<ellipse fill="#99999A" cx="641.438" cy="389.074" rx="79.977" ry="5.689"/>
	<path fill="#FFFFFF" d="M688.163,275.052c10.326-6.231,16.613-14.483,16.613-23.536c0-15.381-18.146-28.453-43.418-33.22v-44.585
		h3.878c3.722,0,6.737-3.719,6.737-8.307v-0.426c0-4.587-3.016-8.306-6.737-8.306h-50.045c-3.722,0-6.737,3.719-6.737,8.306v0.426
		c0,4.588,3.016,8.307,6.737,8.307h3.878v44.585c-25.271,4.767-43.418,17.839-43.418,33.22c0,9.053,6.288,17.305,16.613,23.536
		c-24.088,17.875-40.018,46.446-40.018,68.569c0,34.791,39.385,40.454,87.967,40.454c48.583,0,87.967-5.663,87.967-40.454
		C728.181,321.498,712.253,292.927,688.163,275.052"/>
	<path fill="#0047AB" d="M688.163,275.052c6.674-4.026,11.655-8.898,14.348-14.283c-3.532,1.597-7.547,2.371-11.37,1.907
		c-2.05-0.25-4.063-0.59-6.081-0.922c-2.014-0.085-4.061,0.127-6.067,0.166c-2.365,0.045-4.731,0.064-7.097,0.049
		c-4.986-0.033-9.973-0.172-14.957-0.347c-9.873-0.347-19.769-0.419-29.597-1.444c-4.817-0.503-9.511-0.746-14.334-0.203
		c-4.45,0.504-8.897,1.277-13.381,1.422c-2.381,0.078-4.762-0.018-7.143-0.113c-1.825-0.072-3.65-0.146-5.476-0.141
		c-2.913,0.008-5.826,0.098-8.73,0.322c2.766,5.109,7.604,9.734,13.986,13.587c-24.088,17.875-40.018,46.446-40.018,68.569
		c0,34.791,39.385,40.454,87.967,40.454c48.583,0,87.967-5.663,87.967-40.454C728.181,321.498,712.253,292.927,688.163,275.052"/>
	<path fill="#231F20" d="M686.83,272.866c2.805-2.242,5.372-4.597,7.51-7.183c2.125-2.578,3.813-5.354,4.706-8.186
		c0.458-1.41,0.727-2.825,0.786-4.223c0.019-0.349,0.027-0.697,0.021-1.045c-0.004-0.173-0.008-0.346-0.019-0.52l-0.036-0.555
		l-0.055-0.479c-0.021-0.171-0.046-0.342-0.072-0.512c-0.055-0.339-0.121-0.677-0.2-1.012c-0.3-1.343-0.788-2.651-1.446-3.916
		c-0.654-1.266-1.461-2.497-2.41-3.666c-1.901-2.339-4.295-4.463-6.957-6.34c-2.668-1.877-5.597-3.522-8.667-4.959
		c-1.532-0.727-3.117-1.359-4.69-2.049c-1.578-0.68-3.16-1.382-4.752-2.123c-1.592-0.747-3.194-1.518-4.803-2.383
		c-1.61-0.863-3.238-1.755-4.859-2.906l-0.002-0.001l-1.936-0.236l-0.15-2.279l-2.944-44.585l-0.337-5.118l5.842-0.386h0.002
		l3.314,0.092l0.414,0.012l0.104,0.002l0.025,0.001l-0.059,0.001l0.053,0.001l0.103,0.001l-0.03,0.002l-0.033,0.008l0.006,0.006
		l0.014,0.009l0.131-0.002c0.139-0.034,0.396-0.194,0.648-0.499s0.49-0.735,0.645-1.233c0.078-0.249,0.137-0.514,0.174-0.789
		c0.018-0.142,0.031-0.271,0.039-0.429l0.006-0.207l0.002-0.103l0.002-0.053l0.001-0.026c0.001,0.016,0.001-0.068,0.001,0.027
		l0.004-0.208l0.002-0.059c0.009-0.562-0.074-1.116-0.236-1.601c-0.158-0.486-0.396-0.902-0.635-1.186
		c-0.242-0.289-0.459-0.433-0.608-0.504l-0.114-0.047l-0.059-0.016l-0.029-0.007l-0.07-0.003l-0.104-0.003l-1.658-0.047
		l-3.312-0.092l-6.629-0.184l-13.255-0.368l-13.255-0.368l-6.629-0.185l-3.312-0.092l-1.658-0.046l-0.104-0.003l-0.051-0.002h0.025
		h-0.025l-0.143-0.002l-0.012-0.003l-0.041,0.001l-0.083,0.002c-0.11,0.004-0.222,0.02-0.335,0.042
		c-0.445,0.089-0.938,0.338-1.396,0.761c-0.459,0.42-0.87,1.001-1.167,1.67c-0.3,0.668-0.487,1.42-0.55,2.201l-0.018,0.293
		l-0.012,0.413l-0.006,0.305l0.006,0.29c0.016,0.392,0.062,0.779,0.141,1.158c0.301,1.512,1.178,2.867,2.235,3.479
		c0.262,0.154,0.53,0.268,0.806,0.338c0.301,0.076,0.451,0.088,1.121,0.102l3.313,0.092h0.003h2.561v2.561v44.585v2.116
		l-2.086,0.399c-3.32,1.881-6.567,3.489-9.7,5.165c-3.134,1.66-6.161,3.326-9.041,5.066c-2.875,1.742-5.607,3.551-8.079,5.486
		c-2.473,1.926-4.701,3.971-6.418,6.157c-1.725,2.185-2.926,4.442-3.523,6.769c-0.598,2.336-0.618,4.809,0.068,7.438
		c0.672,2.633,2.075,5.391,3.958,8.068c1.876,2.699,4.235,5.273,6.777,7.898h0.001l3.217,1.67l-3.014,2.578
		c-5.882,5.032-11.222,10.621-15.924,16.666c-4.707,6.037-8.783,12.527-12.076,19.315c-1.643,3.395-3.07,6.871-4.266,10.39
		c-1.189,3.521-2.107,7.098-2.718,10.664c-0.606,3.576-0.854,7.111-0.673,10.59c0.009,0.193,0.022,0.4,0.039,0.617
		c0.014,0.213,0.029,0.426,0.05,0.637c0.036,0.424,0.081,0.844,0.134,1.26c0.105,0.834,0.24,1.655,0.408,2.459
		c0.336,1.609,0.803,3.152,1.404,4.611c1.195,2.924,2.928,5.515,5.18,7.748c1.122,1.12,2.375,2.146,3.723,3.096
		c1.344,0.954,2.791,1.824,4.314,2.615c3.049,1.585,6.396,2.848,9.879,3.889c3.482,1.052,7.111,1.871,10.807,2.531
		c7.403,1.295,15.053,2.061,22.774,2.484c7.722,0.441,15.536,0.613,23.362,0.625c7.85,0.015,15.648-0.06,23.383-0.469
		c7.727-0.406,15.396-1.06,22.817-2.363c3.706-0.651,7.353-1.439,10.858-2.477c3.504-1.032,6.869-2.309,9.953-3.893
		c3.082-1.578,5.869-3.484,8.152-5.757c2.282-2.272,4.066-4.903,5.289-7.876c1.225-2.971,1.877-6.283,2.059-9.75
		c0.196-3.471-0.076-7.069-0.689-10.658c-1.223-7.198-3.77-14.343-7.076-21.142c-0.83-1.7-1.715-3.38-2.648-5.036
		c-0.926-1.66-1.903-3.297-2.925-4.907c-2.048-3.22-4.265-6.346-6.644-9.354c-4.76-6.015-10.146-11.578-16.1-16.516l-2.508-2.081
		L686.83,272.866z M693.103,275.389c5.459,3.98,10.535,8.514,15.155,13.492c2.783,3.004,5.413,6.162,7.85,9.477
		c2.446,3.309,4.708,6.768,6.755,10.369c2.055,3.6,3.896,7.342,5.465,11.23c1.566,3.889,2.893,7.916,3.814,12.101
		c0.924,4.181,1.488,8.513,1.461,12.968c-0.032,4.446-0.699,9.064-2.307,13.506c-0.797,2.217-1.836,4.373-3.082,6.4
		c-1.248,2.029-2.717,3.914-4.322,5.631c-3.223,3.441-6.992,6.159-10.883,8.326c-3.904,2.165-7.955,3.785-12.014,5.107
		c-4.064,1.314-8.148,2.326-12.231,3.13c-4.083,0.796-8.162,1.403-12.229,1.886c-4.068,0.478-8.123,0.846-12.17,1.098
		c-8.09,0.508-16.146,0.717-24.145,0.735c-8.023,0.008-16.062-0.104-24.164-0.58c-4.049-0.245-8.111-0.573-12.187-1.027
		c-4.075-0.448-8.163-1.04-12.257-1.835c-4.092-0.793-8.195-1.773-12.283-3.073c-4.08-1.315-8.147-2.948-12.086-5.112
		c-1.967-1.083-3.898-2.303-5.753-3.688c-1.849-1.391-3.62-2.947-5.246-4.686c-3.263-3.456-5.899-7.668-7.514-12.16
		c-0.811-2.242-1.388-4.539-1.762-6.828c-0.188-1.145-0.325-2.288-0.417-3.426c-0.047-0.568-0.084-1.136-0.107-1.701
		c-0.014-0.283-0.023-0.565-0.029-0.848c-0.008-0.277-0.014-0.564-0.016-0.867l-0.004-0.445l0.004-0.386l0.012-0.824
		c0.012-0.558,0.037-1.113,0.07-1.667c0.066-1.105,0.166-2.204,0.294-3.293c0.259-2.178,0.632-4.32,1.103-6.422
		c0.932-4.209,2.268-8.256,3.853-12.158c1.581-3.904,3.447-7.653,5.519-11.259c4.141-7.213,9.133-13.841,14.746-19.829
		c5.629-5.973,11.898-11.315,18.744-15.734l0.202,4.247l-0.001-0.001c-3.796-1.201-7.43-3.072-10.803-5.609
		c-3.344-2.551-6.435-5.869-8.58-10.106c-1.061-2.111-1.876-4.44-2.307-6.884c-0.443-2.439-0.508-4.974-0.202-7.463
		c0.304-2.489,0.985-4.909,1.929-7.15c0.947-2.244,2.154-4.308,3.51-6.185c1.362-1.874,2.871-3.569,4.471-5.1
		c1.594-1.536,3.291-2.9,5.039-4.128c3.508-2.442,7.236-4.326,11.057-5.748c3.82-1.423,7.736-2.391,11.676-2.926
		c3.943-0.52,7.906-0.668,11.865-0.162h0.001l-2.085,2.515v-44.585l2.559,2.56h-0.003l-3.313,0.092
		c-0.295,0.005-0.488,0.023-0.957,0.013c-0.41-0.011-0.82-0.054-1.223-0.127c-0.809-0.146-1.588-0.414-2.303-0.773
		c-1.438-0.722-2.6-1.791-3.482-2.987c-0.883-1.202-1.501-2.544-1.879-3.931c-0.188-0.693-0.316-1.398-0.389-2.109
		c-0.018-0.179-0.031-0.35-0.043-0.536l-0.021-0.523l-0.011-0.416c-0.003-0.179-0.003-0.356-0.001-0.534
		c0.027-1.428,0.283-2.87,0.801-4.256c0.518-1.383,1.295-2.716,2.389-3.871c1.088-1.15,2.527-2.124,4.217-2.617
		c0.42-0.123,0.852-0.218,1.29-0.276c0.109-0.015,0.22-0.029,0.329-0.039l0.166-0.015l0.195-0.013l0.271-0.014l0.258-0.006
		l1.658-0.046l3.312-0.092l6.629-0.185l13.255-0.368l13.255-0.368l6.629-0.185l3.312-0.092l1.658-0.046l0.24-0.005
		c0.127,0,0.256,0,0.383,0.004c0.256,0.007,0.512,0.025,0.768,0.052c0.51,0.052,1.017,0.146,1.51,0.272
		c1.988,0.512,3.701,1.592,5.006,2.875c1.312,1.292,2.264,2.791,2.918,4.356c0.656,1.569,1.016,3.211,1.113,4.855l0.023,0.562
		l0.012,0.466c0.008,0.395,0,0.818-0.025,1.228c-0.049,0.826-0.166,1.655-0.355,2.478c-0.38,1.645-1.047,3.271-2.068,4.774
		c-1.02,1.497-2.414,2.892-4.236,3.888c-0.908,0.495-1.918,0.882-2.98,1.108c-0.264,0.058-0.533,0.104-0.803,0.143
		c-0.135,0.017-0.271,0.035-0.406,0.048c-0.134,0.013-0.264,0.025-0.445,0.034l-0.342,0.016l-0.291,0.007l-0.414,0.012l-3.314,0.092
		h-0.002l5.504-5.504l-2.944,44.585l-2.085-2.515h0.002c2.02-0.463,4.014-0.574,6-0.551c1.988,0.02,3.956,0.238,5.903,0.589
		c1.946,0.357,3.866,0.862,5.747,1.511c1.883,0.64,3.711,1.454,5.527,2.311c3.625,1.727,7.156,3.775,10.47,6.275
		c3.305,2.499,6.421,5.449,8.968,9.045c1.268,1.799,2.404,3.744,3.285,5.852c0.878,2.105,1.516,4.358,1.82,6.672
		c0.072,0.578,0.125,1.159,0.156,1.742c0.016,0.291,0.025,0.582,0.031,0.873c0.005,0.288,0.006,0.578,0.002,0.91l-0.006,0.201
		l-0.006,0.174l-0.01,0.24l-0.01,0.219c-0.014,0.289-0.037,0.579-0.062,0.868c-0.05,0.577-0.124,1.152-0.215,1.724
		c-0.38,2.281-1.089,4.473-2.038,6.489c-1.924,4.038-4.73,7.337-7.832,9.987C697.532,272.646,695.351,274.119,693.103,275.389z"/>
	<path fill="#02418C" d="M696.366,262.659c0,1.855-24.887,3.36-55.583,3.36c-30.698,0-55.583-1.505-55.583-3.36
		c0-1.856,24.885-3.36,55.583-3.36C671.479,259.299,696.366,260.803,696.366,262.659"/>
	<path fill="#FFFFFF" d="M594.61,246.422c-0.431,0-0.885,0.098-1.352,0.312c-0.92,0.417-1.875,1.309-2.616,2.639
		c-0.744,1.323-1.235,3.071-1.317,4.955c-0.089,1.886,0.221,3.887,0.881,5.773c0.135,0.381,0.28,0.75,0.434,1.106
		c2.987-0.376,7.102-0.714,12.075-0.996c-0.297-1.351-0.714-2.736-1.181-4.069c-0.82-2.355-1.618-4.026-2.493-5.57
		c-0.9-1.508-1.744-3.15-3.239-3.885C595.434,246.516,595.033,246.422,594.61,246.422"/>
	<path fill="#2965B9" d="M592.397,264.314c1.137,1.573,2.439,2.751,3.689,3.523c1.231,0.758,2.429,1.135,3.465,1.135
		c0.822,0,1.543-0.237,2.101-0.711c0.86-0.728,1.312-1.821,1.467-3.132C598.886,264.895,595.257,264.619,592.397,264.314"/>
	<path fill="#2B609E" d="M602.715,260.211c-4.974,0.282-9.088,0.62-12.075,0.996c0.504,1.165,1.104,2.201,1.758,3.107
		c2.859,0.305,6.488,0.58,10.722,0.815C603.291,263.687,603.105,261.979,602.715,260.211"/>
	<path fill="#2965B9" d="M600.612,282.511c-2.001,0-6.273,2.133-11.494,6.475c-3.232,2.707-6.826,6.278-10.265,10.815
		c-3.419,4.533-6.728,10.061-8.889,16.625c-0.536,1.639-0.982,3.299-1.328,4.968c-0.174,0.834-0.322,1.67-0.441,2.507
		c-0.123,0.817-0.221,1.717-0.284,2.44c-0.276,3.037-0.382,6-0.313,8.839c0.128,5.674,0.987,10.854,2.397,15.062
		c1.394,4.213,3.355,7.421,5.226,9.267c1.31,1.33,2.583,1.943,3.392,1.943c0.333,0,0.588-0.104,0.732-0.306
		c0.491-0.655,0.279-1.839-0.051-3.922c-0.342-2.065-0.8-4.982-0.983-8.663c-0.191-3.676-0.117-8.101,0.339-13.057
		c0.225-2.477,0.539-5.085,0.938-7.795c0.104-0.71,0.193-1.261,0.314-1.895c0.114-0.615,0.246-1.235,0.396-1.861
		c0.296-1.25,0.654-2.517,1.072-3.794c1.678-5.114,4.13-9.898,6.645-14.169c2.525-4.273,5.122-8.048,7.338-11.251
		c4.456-6.404,7.344-10.55,6.301-11.851C601.453,282.637,601.101,282.511,600.612,282.511"/>
	<path fill="#1F5DB5" d="M656.872,278.502c-3.838,0-6.949,3.11-6.949,6.947c0,3.838,3.111,6.948,6.949,6.948
		c3.836,0,6.947-3.11,6.947-6.948C663.819,281.612,660.708,278.502,656.872,278.502"/>
	<path fill="#1F5DB5" d="M649.374,297.518c-1.514,0-2.742,1.229-2.742,2.742c0,1.516,1.229,2.743,2.742,2.743
		c1.516,0,2.744-1.228,2.744-2.743C652.118,298.746,650.89,297.518,649.374,297.518"/>
	<circle fill="#0047AB" cx="639.327" cy="250.521" r="2.112"/>
	<circle fill="#0047AB" cx="649.869" cy="236.838" r="3.206"/>
	<circle fill="#0047AB" cx="637.257" cy="222.186" r="2.742"/>
	<circle fill="#FFFFFF" cx="636.367" cy="221.19" r="0.995"/>
	<circle fill="#FFFFFF" cx="649.532" cy="236.112" r="1.328"/>
	<circle fill="#FFFFFF" cx="638.787" cy="250.213" r="0.54"/>
</g>
</svg>
