<?xml version="1.0" encoding="utf-8"?>
<!-- Generator: Adobe Illustrator 15.0.0, SVG Export Plug-In . SVG Version: 6.00 Build 0)  -->
<!DOCTYPE svg PUBLIC "-//W3C//DTD SVG 1.1//EN" "http://www.w3.org/Graphics/SVG/1.1/DTD/svg11.dtd">
<svg version="1.1" id="Layer_1" xmlns="http://www.w3.org/2000/svg" xmlns:xlink="http://www.w3.org/1999/xlink" x="0px" y="0px"
	 width="180.666px" height="342.667px" viewBox="0 0 180.666 342.667" enable-background="new 0 0 180.666 342.667"
	 xml:space="preserve">
<g>
	<path fill="#FFFFFF" d="M163.637,153.168c0-6.389,13.197-16.816,6.811-16.816H21.625c-6.388,0,6.811,10.428,6.811,16.816v163.745
		c0,6.386,5.179,11.565,11.565,11.565h112.07c6.388,0,11.565-5.179,11.565-11.565V153.168"/>
	<path fill="#0000FF" d="M159.961,210.746H30.895l-2.459,104.015c0,5.914,7.962,13.717,14.061,13.717l106.424-4.024
		c6.098,0,14.717-1.626,14.717-7.541L159.961,210.746"/>
	<path fill="#0A0AE5" d="M159.961,211.334c0,4.675-28.893,8.464-64.533,8.464s-64.533-3.79-64.533-8.464s28.893-8.464,64.533-8.464
		S159.961,206.659,159.961,211.334"/>
	<path fill="#FFFFFF" d="M71.047,287.273L18.387,11.92c-0.719-2.795-3.568-4.477-6.363-3.759c-2.795,0.719-4.478,3.569-3.758,6.364
		l52.661,275.354c-3.967,3.104-5.943,8.364-4.607,13.553c1.799,6.988,8.924,11.194,15.911,9.396
		c6.989-1.801,11.196-8.924,9.396-15.913C80.291,291.727,76.018,288.076,71.047,287.273"/>
	<path fill="#231F20" d="M69.984,287.478C60.176,240.39,50.738,193.23,41.43,146.046l-3.496-17.693l-3.459-17.7L27.568,75.25
		l-6.833-35.415l-3.409-17.71l-1.705-8.855l-0.105-0.553l-0.027-0.138c-0.031-0.136-0.012-0.063,0.005,0.01
		c0.014,0.057,0.027,0.114,0.017,0.072l-0.028-0.1l-0.012-0.035c-0.051-0.156-0.116-0.302-0.198-0.442
		c-0.162-0.276-0.386-0.517-0.654-0.703c-0.268-0.186-0.576-0.314-0.893-0.371c-0.156-0.028-0.316-0.038-0.477-0.033L13.008,11
		l-0.121,0.021l-0.059,0.014l-0.024,0.005l-0.13,0.036l-0.025,0.009l-0.115,0.039l-0.221,0.097
		c-0.145,0.071-0.279,0.158-0.403,0.259c-0.249,0.202-0.458,0.463-0.603,0.755c-0.146,0.292-0.224,0.612-0.233,0.932
		c-0.003,0.161,0.01,0.321,0.04,0.481l0.025,0.122c-0.003-0.014,0.017,0.073,0.035,0.16c0.022,0.104,0.045,0.208,0.029,0.139
		l0.027,0.138l0.104,0.553l1.684,8.86l3.366,17.717l6.718,35.438l6.644,35.453l3.317,17.727l3.277,17.734
		c8.761,47.29,17.39,94.604,25.649,141.987l0.115,0.662l-0.512,0.395l-0.003,0.002c-1.893,2-3.078,4.471-3.403,6.979
		c-0.171,1.252-0.126,2.508,0.107,3.71c0.124,0.61,0.278,1.173,0.499,1.781c0.197,0.533,0.469,1.104,0.754,1.618
		c1.178,2.081,3.025,3.717,5.172,4.624c1.07,0.451,2.204,0.742,3.352,0.817c0.574,0.044,1.149,0.044,1.721-0.009
		c0.287-0.024,0.572-0.062,0.855-0.113c0.143-0.023,0.283-0.052,0.424-0.083l0.386-0.092l0.269-0.071l0.197-0.058
		c0.113-0.032,0.269-0.081,0.4-0.126c0.271-0.092,0.54-0.198,0.803-0.315c0.526-0.23,1.031-0.509,1.511-0.824
		c0.968-0.622,1.821-1.423,2.54-2.335c1.441-1.831,2.27-4.156,2.295-6.546c0.029-2.396-0.738-4.857-2.244-6.882
		c-1.498-2.04-3.729-3.631-6.352-4.467l-0.762-0.243L69.984,287.478 M71.965,286.266c3.004,0.278,5.979,1.65,8.25,3.87
		c1.23,1.201,2.26,2.641,3.002,4.229c0.745,1.586,1.211,3.31,1.367,5.086c0.324,3.554-0.692,7.242-2.797,10.189
		c-1.045,1.479-2.366,2.769-3.864,3.808c-0.751,0.518-1.552,0.961-2.382,1.339c-0.414,0.189-0.838,0.359-1.267,0.511
		c-0.22,0.077-0.419,0.144-0.661,0.218l-0.338,0.101l-0.27,0.073l-0.366,0.088l-0.333,0.074c-0.223,0.047-0.447,0.089-0.671,0.126
		c-0.45,0.075-0.901,0.13-1.356,0.166c-0.908,0.07-1.824,0.068-2.732-0.022c-1.812-0.187-3.593-0.678-5.223-1.467
		c-3.266-1.565-5.938-4.302-7.371-7.571c-0.367-0.821-0.643-1.639-0.862-2.531c-0.199-0.818-0.347-1.716-0.398-2.583
		c-0.116-1.749,0.089-3.506,0.586-5.152c0.991-3.292,3.179-6.129,5.977-7.787l0.003-0.002l-0.396,1.055
		c-9.807-47.088-19.246-94.247-28.554-141.431l-3.496-17.692l-3.458-17.7l-6.907-35.402l-6.833-35.416L7.204,24.73l-1.706-8.854
		l-0.105-0.553l-0.026-0.138c-0.027-0.117-0.014-0.063-0.001-0.01c0.01,0.045,0.021,0.09,0.007,0.034
		c-0.035-0.142-0.067-0.284-0.096-0.428c-0.112-0.576-0.163-1.169-0.149-1.76c0.028-1.184,0.317-2.356,0.836-3.412
		c0.517-1.057,1.263-2.001,2.18-2.748c0.458-0.375,0.958-0.698,1.485-0.966c0.264-0.133,0.535-0.252,0.811-0.354
		c0.138-0.052,0.277-0.1,0.418-0.145l0.246-0.073l0.141-0.038l0.25-0.062l0.215-0.046c0.145-0.03,0.29-0.055,0.436-0.075
		c0.291-0.043,0.586-0.069,0.881-0.081c0.592-0.022,1.186,0.021,1.768,0.128c1.163,0.212,2.271,0.678,3.236,1.354
		c0.964,0.675,1.783,1.561,2.379,2.584c0.297,0.511,0.539,1.054,0.719,1.612l0.071,0.234l0.048,0.173
		c0.001-0.001,0.022,0.095,0.045,0.192c0.027,0.125,0.055,0.249,0.035,0.164l0.026,0.138l0.104,0.553l1.683,8.86l3.366,17.717
		l6.717,35.438l6.645,35.453l3.316,17.727l3.279,17.736C55.173,192.104,63.749,239.15,71.965,286.266"/>
	<path fill="#0000FF" d="M127.52,288.859c-0.841,0-1.523-0.682-1.523-1.522s0.683-1.522,1.523-1.522s1.522,0.682,1.522,1.522
		S128.36,288.859,127.52,288.859 M131.352,282.997c-1.275,0-2.31-1.036-2.31-2.312c0-1.275,1.034-2.309,2.31-2.309
		c1.276,0,2.311,1.034,2.311,2.309C133.662,281.961,132.628,282.997,131.352,282.997 M157.66,213.854
		c-8.181,3.444-32.678,5.944-61.623,5.944c-0.102,0-0.202,0-0.305,0c-0.102,0-0.203,0-0.305,0c-13.128,0-25.339-0.514-35.529-1.397
		c4.089,22.607,8.119,45.229,12.066,67.864c3.004,0.278,5.979,1.65,8.25,3.87c1.23,1.201,2.26,2.641,3.002,4.229
		c0.745,1.586,1.211,3.31,1.367,5.086c0.324,3.554-0.692,7.242-2.797,10.189c-1.045,1.479-2.366,2.769-3.864,3.808
		c-0.751,0.518-1.552,0.961-2.382,1.339c-0.414,0.189-0.838,0.359-1.267,0.511c-0.22,0.077-0.419,0.144-0.661,0.218l-0.338,0.101
		l-0.27,0.073l-0.366,0.088l-0.333,0.074c-0.223,0.047-0.447,0.089-0.671,0.126c-0.45,0.075-0.901,0.13-1.356,0.166
		c-0.42,0.033-0.842,0.049-1.264,0.049c-0.49,0-0.98-0.023-1.469-0.071c-1.812-0.187-3.593-0.678-5.223-1.467
		c-3.266-1.565-5.938-4.302-7.371-7.571c-0.367-0.821-0.643-1.639-0.862-2.531c-0.199-0.818-0.347-1.716-0.398-2.583
		c-0.116-1.749,0.089-3.506,0.586-5.152c0.927-3.076,2.897-5.755,5.435-7.446c-4.249-20.411-8.432-40.845-12.562-61.279
		c-0.156,32.7-1.029,57.724-2.08,57.724c-1.161,0-2.105-30.586-2.105-68.314c0-0.412,0-0.825,0-1.236
		c-3.852-0.704-6.899-1.488-8.97-2.331l-0.036,19.901l-0.09,20.801l-0.14,41.604l-0.009,10.399l-0.004,5.201l-0.001,2.6
		c-0.003,0.435,0.007,0.868,0.015,1.301c0.005,0.216,0.004,0.434-0.003,0.65l-0.015,0.325l-0.011,0.161l-0.013,0.097
		c-0.121,0.977-0.094,1.96,0.162,2.986c0.09,0.358,0.211,0.719,0.365,1.073c1.732,1.648,4.022,2.943,6.385,3.701l2.161-0.062
		c13.868-0.393,27.735-0.861,41.604-1.476c3.467-0.142,6.934-0.293,10.401-0.46l10.4-0.487l20.801-1.025l19.046-0.919
		c1.837-3.312,4.274-6.352,6.644-9.198c0.988-1.188,2.011-2.365,3.039-3.544L157.66,213.854"/>
	<path fill="#0808EA" d="M59.889,218.347c0.004,0.02,0.007,0.034,0.01,0.054c10.19,0.883,22.401,1.397,35.529,1.397
		c0.102,0,0.203,0,0.305,0C82.455,219.79,70.123,219.256,59.889,218.347 M33.995,213.672v0.262c2.07,0.842,5.118,1.627,8.97,2.331
		c0-0.039,0-0.074,0-0.113C39.012,215.403,35.955,214.568,33.995,213.672"/>
	<path fill="#CCCCFF" d="M49.08,217.141c4.378,24.165,8.691,48.34,12.909,72.535l0.115,0.662l-0.512,0.395l-0.003,0.002
		c-1.893,2-3.078,4.471-3.403,6.979c-0.171,1.252-0.126,2.508,0.107,3.71c0.124,0.61,0.278,1.173,0.499,1.781
		c0.197,0.533,0.469,1.104,0.754,1.618c1.178,2.081,3.025,3.717,5.172,4.624c1.07,0.451,2.204,0.742,3.352,0.817
		c0.274,0.021,0.549,0.032,0.823,0.032c0.3,0,0.599-0.013,0.897-0.041c0.287-0.024,0.572-0.062,0.855-0.113
		c0.143-0.023,0.283-0.052,0.424-0.083l0.386-0.092l0.269-0.071l0.197-0.058c0.113-0.032,0.269-0.081,0.4-0.126
		c0.271-0.092,0.54-0.198,0.803-0.315c0.526-0.23,1.031-0.509,1.511-0.824c0.968-0.622,1.821-1.423,2.54-2.335
		c1.441-1.831,2.27-4.156,2.295-6.546c0.029-2.396-0.738-4.857-2.244-6.882c-1.498-2.04-3.729-3.631-6.352-4.467l-0.762-0.243
		l-0.129-0.623c-4.825-23.162-9.56-46.34-14.233-69.53C53.386,217.699,51.156,217.429,49.08,217.141"/>
	<path fill="#1C194D" d="M60.258,289.027L60.258,289.027 M47.176,216.864c0,0.211,0,0.424,0,0.636c0,3.602-0.009,7.141-0.025,10.591
		c4.131,20.435,8.313,40.868,12.562,61.279c-2.537,1.691-4.508,4.37-5.435,7.446c-0.497,1.646-0.702,3.403-0.586,5.152
		c0.052,0.867,0.199,1.764,0.398,2.583c0.22,0.893,0.495,1.71,0.862,2.531c1.434,3.269,4.105,6.006,7.371,7.571
		c1.63,0.79,3.41,1.281,5.223,1.467c0.488,0.048,0.979,0.071,1.469,0.071c0.422,0,0.844-0.017,1.264-0.049
		c0.455-0.036,0.906-0.09,1.356-0.166c0.224-0.037,0.448-0.079,0.671-0.126l0.333-0.074l0.366-0.088l0.27-0.073l0.338-0.101
		c0.242-0.074,0.441-0.141,0.661-0.218c0.429-0.151,0.853-0.321,1.267-0.511c0.83-0.377,1.631-0.821,2.382-1.339
		c1.498-1.039,2.819-2.328,3.864-3.808c2.104-2.947,3.121-6.636,2.797-10.189c-0.156-1.776-0.622-3.5-1.367-5.086
		c-0.742-1.588-1.771-3.027-3.002-4.229c-2.271-2.22-5.246-3.592-8.25-3.87c-3.947-22.635-7.978-45.257-12.066-67.864
		c-0.003-0.021-0.006-0.034-0.01-0.054c-1.42-0.126-2.801-0.26-4.138-0.4c4.674,23.19,9.408,46.368,14.233,69.53l0.129,0.623
		l0.762,0.243c2.623,0.836,4.854,2.427,6.352,4.467c1.506,2.024,2.273,4.486,2.244,6.882c-0.025,2.39-0.854,4.715-2.295,6.546
		c-0.719,0.913-1.572,1.714-2.54,2.335c-0.479,0.315-0.984,0.593-1.511,0.824c-0.263,0.117-0.531,0.223-0.803,0.315
		c-0.132,0.045-0.287,0.094-0.4,0.126l-0.197,0.058l-0.269,0.071l-0.386,0.092c-0.141,0.031-0.281,0.06-0.424,0.083
		c-0.283,0.051-0.568,0.089-0.855,0.113c-0.299,0.028-0.598,0.041-0.897,0.041c-0.274,0-0.549-0.011-0.823-0.032
		c-1.147-0.076-2.281-0.366-3.352-0.817c-2.146-0.906-3.994-2.542-5.172-4.624c-0.285-0.514-0.557-1.084-0.754-1.618
		c-0.221-0.608-0.375-1.171-0.499-1.781c-0.233-1.202-0.278-2.458-0.107-3.71c0.325-2.509,1.511-4.98,3.403-6.979l0.003-0.002
		l0.512-0.395l-0.115-0.662c-4.218-24.195-8.531-48.371-12.909-72.535C48.43,217.05,47.795,216.958,47.176,216.864"/>
	<path fill="#0A0AE5" d="M42.973,211.334h-8.98l0.002,0.462h8.978C42.973,211.641,42.973,211.489,42.973,211.334 M157.739,211.334
		h-99.12c0.027,0.155,0.056,0.307,0.084,0.462h99.021L157.739,211.334"/>
	<path fill="#CECEFA" d="M54.42,211.334h-6.394c0.027,0.153,0.056,0.309,0.084,0.462h6.402
		C54.481,211.641,54.451,211.489,54.42,211.334"/>
	<path fill="#1E1B47" d="M48.026,211.334h-0.859c0.001,0.155,0.001,0.307,0.002,0.462h0.941
		C48.082,211.643,48.054,211.487,48.026,211.334 M58.619,211.334H54.42c0.031,0.155,0.062,0.307,0.093,0.462h4.19
		C58.675,211.641,58.646,211.489,58.619,211.334"/>
	<path fill="#0202FA" d="M157.669,213.578c-7.473,3.573-32.354,6.202-61.937,6.22c0.103,0,0.203,0,0.305,0
		c28.945,0,53.442-2.5,61.623-5.944L157.669,213.578"/>
	<path fill="#0808E9" d="M42.972,211.796h-8.978l0.002,1.237l-0.001,0.639c1.96,0.896,5.017,1.731,8.97,2.479
		C42.966,214.688,42.969,213.234,42.972,211.796 M157.725,211.796H58.703c0.396,2.183,0.791,4.368,1.186,6.551
		c10.234,0.909,22.566,1.443,35.844,1.451c29.583-0.018,54.464-2.647,61.937-6.22L157.725,211.796"/>
	<path fill="#A5A5FA" d="M54.513,211.796H48.11c0.323,1.782,0.646,3.562,0.97,5.345c2.076,0.289,4.306,0.559,6.671,0.807
		C55.338,215.898,54.925,213.845,54.513,211.796"/>
	<path fill="#18166B" d="M48.11,211.796h-0.941c0.004,1.673,0.007,3.363,0.007,5.068c0.619,0.094,1.254,0.186,1.904,0.277
		C48.757,215.358,48.434,213.578,48.11,211.796 M58.703,211.796h-4.19c0.412,2.049,0.825,4.103,1.238,6.151
		c1.337,0.14,2.718,0.273,4.138,0.4C59.494,216.164,59.099,213.979,58.703,211.796"/>
	<circle fill="#0000FF" cx="75.025" cy="179.675" r="6.301"/>
	<circle fill="#0000FF" cx="81.326" cy="192.345" r="3.185"/>
	<path fill="#7070FF" d="M131.352,278.377c-1.275,0-2.31,1.034-2.31,2.309c0,1.276,1.034,2.312,2.31,2.312
		c1.276,0,2.311-1.036,2.311-2.312C133.662,279.411,132.628,278.377,131.352,278.377"/>
	<path fill="#7070FF" d="M127.52,285.814c-0.841,0-1.523,0.682-1.523,1.522s0.683,1.522,1.523,1.522s1.522-0.682,1.522-1.522
		S128.36,285.814,127.52,285.814"/>
	<path fill="#231F20" d="M159.579,153.103l0.009-0.177l0.021-0.352c0.017-0.191,0.038-0.38,0.065-0.562
		c0.053-0.362,0.123-0.705,0.205-1.031c0.164-0.65,0.369-1.234,0.592-1.773c0.447-1.076,0.96-1.995,1.484-2.852
		c1.051-1.706,2.181-3.164,3.258-4.574l1.572-2.051c0.498-0.661,0.969-1.321,1.338-1.899c0.184-0.286,0.332-0.56,0.414-0.733
		l0.048-0.108c-0.003,0.033-0.056,0.144-0.048,0.543c0.01,0.198,0.048,0.475,0.168,0.802c0.117,0.324,0.324,0.681,0.559,0.951
		c0.234,0.273,0.474,0.46,0.65,0.593c0.182,0.13,0.311,0.207,0.401,0.271c0.178,0.122,0.208,0.189,0.194,0.227l-0.073,0.037
		c-0.108,0.005-0.218-0.001-0.325-0.007c-3.467-0.139-6.934-0.534-10.4-0.866c-1.734-0.166-3.467-0.291-5.201-0.356
		c-1.734-0.068-3.467-0.063-5.2-0.081c-13.868-0.119-27.735-0.204-41.604-0.19l-41.602,0.086l-20.803,0.022l-10.4-0.022
		l-5.199-0.012l-2.602-0.006c-0.434,0-0.866,0.003-1.299-0.063c-0.434-0.065-0.867-0.168-1.301-0.237
		c-0.434-0.062-0.867-0.097-1.301-0.034c-0.434,0.091-0.866,0.466-1.299,0.53l-0.163,0.025l-0.124,0.023l-0.104,0.026l-0.034,0.026
		c-0.06,0.033-0.063,0.08,0.084,0.067c0.073-0.01,0.188-0.035,0.355-0.116c0.164-0.081,0.386-0.23,0.587-0.455
		c0.203-0.222,0.365-0.511,0.454-0.759c0.091-0.25,0.122-0.451,0.138-0.589c0.026-0.274,0.029-0.336,0.066-0.345l0.174,0.142
		l0.613,0.665c0.49,0.515,1.076,1.083,1.676,1.67c1.207,1.181,2.503,2.437,3.721,3.901c0.609,0.735,1.211,1.519,1.779,2.399
		c0.568,0.881,1.115,1.847,1.586,3.017c0.23,0.588,0.453,1.225,0.616,1.952c0.082,0.362,0.152,0.748,0.202,1.158
		c0.025,0.206,0.045,0.417,0.058,0.636l0.015,0.332l0.004,0.272l0.029,2.601l0.057,5.2l0.115,10.401
		c0.074,6.933,0.094,13.867,0.145,20.8l0.047,20.802l-0.037,20.802l-0.09,20.801l-0.14,41.604l-0.009,10.399l-0.004,5.201
		l-0.001,2.6c-0.003,0.435,0.007,0.868,0.015,1.301c0.005,0.216,0.004,0.434-0.003,0.65l-0.015,0.325l-0.011,0.161l-0.013,0.097
		c-0.121,0.977-0.094,1.96,0.162,2.986c0.256,1.015,0.76,2.049,1.539,2.892c0.773,0.844,1.816,1.478,2.963,1.743
		c0.285,0.066,0.576,0.114,0.871,0.139c0.146,0.011,0.294,0.021,0.442,0.021l0.222-0.001l0.273-0.007l2.601-0.074
		c13.868-0.393,27.735-0.861,41.604-1.476c3.467-0.142,6.934-0.293,10.401-0.46l10.4-0.487l20.801-1.025l20.803-1.004l5.199-0.243
		c0.15-0.003-0.023-0.003,0.055-0.008l0.163-0.009l0.065-0.009l-0.016-0.008l0.154-0.041c0.111-0.031,0.218-0.068,0.32-0.11
		c0.203-0.083,0.391-0.189,0.564-0.313c0.345-0.247,0.633-0.577,0.822-0.935c0.193-0.358,0.279-0.731,0.285-1.083l5.193-164.295
		L159.579,153.103 M167.695,153.168l2.62,83.206l1.326,41.604l0.663,20.8l0.331,10.401l0.166,5.201l0.082,2.654
		c0.027,1.548-0.212,3.108-0.603,4.617c-0.785,3.024-2.262,5.844-4.256,8.176c-1.991,2.338-4.495,4.207-7.287,5.439
		c-1.393,0.617-2.856,1.075-4.346,1.361c-0.745,0.142-1.496,0.243-2.246,0.301c-0.384,0.029-0.734,0.046-1.143,0.057l-0.34,0.003
		c-0.125,0.003-0.229,0.002-0.26,0l-0.163-0.005l-0.271-0.006l-5.199-0.243l-20.803-1.003l-20.801-1.025l-10.4-0.487
		c-3.468-0.167-6.935-0.32-10.401-0.461c-13.868-0.614-27.735-1.083-41.604-1.476l-2.601-0.074l-0.376-0.011
		c-0.144-0.004-0.285-0.011-0.428-0.019c-0.284-0.017-0.569-0.038-0.854-0.068c-0.569-0.059-1.136-0.145-1.698-0.258
		c-2.246-0.454-4.424-1.326-6.384-2.613c-1.958-1.285-3.71-2.997-4.993-5.089c-1.294-2.077-2.09-4.552-2.244-7.041
		c-0.006-0.084-0.012-0.042-0.016-0.23l-0.01-0.161l-0.016-0.325c-0.008-0.217-0.008-0.434-0.003-0.65
		c0.008-0.433,0.017-0.866,0.015-1.301l-0.002-2.6l-0.004-5.201l-0.008-10.399l-0.14-41.604l-0.089-20.801l-0.039-20.802
		l0.049-20.802c0.049-6.933,0.068-13.867,0.144-20.8l0.114-10.401l0.058-5.2l0.028-2.601l0.002-0.053l0.002,0.009l0.002-0.012
		l-0.014-0.122c-0.024-0.12-0.064-0.312-0.141-0.534c-0.146-0.451-0.393-1.033-0.686-1.655c-0.297-0.623-0.638-1.296-1.006-1.992
		c-0.737-1.398-1.545-2.901-2.379-4.522c-0.42-0.816-0.842-1.658-1.271-2.613c-0.217-0.483-0.434-0.988-0.646-1.606
		c-0.107-0.311-0.213-0.652-0.307-1.066c-0.09-0.422-0.184-0.911-0.159-1.62c0.017-0.354,0.071-0.773,0.226-1.232
		c0.15-0.455,0.413-0.94,0.752-1.331c0.336-0.396,0.727-0.685,1.076-0.879c0.352-0.194,0.668-0.306,0.947-0.382
		c0.559-0.148,0.985-0.167,1.357-0.167l0.291,0.007c0.121,0.003,0.172,0.011,0.222,0.019l0.201,0.022l0.163,0.025
		c0.433,0.063,0.865,0.438,1.299,0.528c0.434,0.064,0.867,0.029,1.301-0.032c0.434-0.07,0.867-0.172,1.301-0.237
		c0.433-0.067,0.865-0.063,1.299-0.063l2.602-0.005l5.199-0.012l10.4-0.022l20.803,0.021l41.602,0.086
		c13.869,0.015,27.736-0.071,41.604-0.19c1.733-0.017,3.466-0.013,5.2-0.081c1.734-0.064,3.467-0.191,5.201-0.356
		c3.467-0.332,6.934-0.728,10.4-0.865c0.107-0.005,0.217-0.011,0.325-0.006c0.169,0.005,0.371,0.02,0.576,0.055
		c0.417,0.066,0.88,0.19,1.476,0.432c0.297,0.128,0.631,0.284,1.002,0.515c0.366,0.234,0.784,0.551,1.166,0.985
		c0.383,0.428,0.704,0.972,0.897,1.499c0.198,0.53,0.271,1.023,0.29,1.438c0.029,0.833-0.11,1.376-0.232,1.825
		c-0.131,0.447-0.273,0.791-0.414,1.104c-0.283,0.615-0.564,1.094-0.836,1.546c-0.544,0.895-1.082,1.648-1.6,2.391l-1.512,2.138
		c-0.971,1.383-1.863,2.75-2.557,4.042c-0.342,0.644-0.625,1.271-0.803,1.811c-0.091,0.27-0.15,0.514-0.182,0.709
		c-0.016,0.097-0.022,0.181-0.023,0.247l0.001,0.087l0.005-0.027l0.002,0.147L167.695,153.168"/>
	<path fill="#4949EC" d="M42.987,207.414c-0.006,1.294-0.011,2.604-0.015,3.92h0.802C43.512,210.027,43.25,208.72,42.987,207.414"/>
	<path fill="#FFFFFF" d="M43.984,158.979c-0.321,6.292-0.587,15.288-0.767,26.016c1.315,7.169,2.626,14.342,3.931,21.514
		c-0.064-12.932-0.24-24.645-0.496-34.065C45.762,167.954,44.872,163.468,43.984,158.979"/>
	<path fill="#5C595A" d="M43.218,184.994c-0.114,6.852-0.193,14.408-0.23,22.419c0.263,1.307,0.524,2.614,0.787,3.92h3.393
		c-0.004-1.625-0.011-3.236-0.019-4.826C45.844,199.336,44.533,192.163,43.218,184.994 M45.07,149.185
		c-0.396,0-0.769,3.577-1.086,9.793c0.888,4.489,1.777,8.976,2.668,13.464C46.267,158.187,45.701,149.185,45.07,149.185"/>
	<path fill="#4242FF" d="M42.965,216.264c0,0.411,0,0.824,0,1.236c0,37.728,0.944,68.314,2.105,68.314
		c1.051,0,1.924-25.023,2.08-57.724c-0.775-3.835-1.548-7.666-2.319-11.502C44.189,216.482,43.567,216.374,42.965,216.264"/>
	<path fill="#4848EF" d="M42.965,216.151c0,0.039,0,0.074,0,0.113c0.603,0.11,1.225,0.218,1.866,0.325
		c-0.007-0.035-0.015-0.071-0.021-0.106C44.175,216.374,43.56,216.264,42.965,216.151"/>
	<path fill="#57557B" d="M44.81,216.482c0.007,0.035,0.015,0.071,0.021,0.106c0.771,3.836,1.544,7.667,2.319,11.502
		c0.017-3.45,0.025-6.989,0.025-10.591c0-0.212,0-0.425,0-0.636C46.359,216.74,45.57,216.613,44.81,216.482"/>
	<path fill="#4949EC" d="M43.774,211.334h-0.802c0,0.155,0,0.307-0.001,0.462h0.896C43.836,211.641,43.806,211.489,43.774,211.334"
		/>
	<path fill="#585677" d="M47.167,211.334h-3.393c0.031,0.155,0.062,0.307,0.093,0.462h3.302
		C47.168,211.641,47.168,211.489,47.167,211.334"/>
	<path fill="#4848EF" d="M43.867,211.796h-0.896c-0.003,1.438-0.006,2.893-0.007,4.355c0.595,0.112,1.21,0.223,1.845,0.331
		C44.495,214.92,44.181,213.358,43.867,211.796"/>
	<path fill="#545291" d="M47.169,211.796h-3.302c0.313,1.562,0.628,3.124,0.942,4.687c0.761,0.13,1.55,0.257,2.366,0.381
		C47.176,215.159,47.173,213.469,47.169,211.796"/>
	<circle fill="#FFFFFF" cx="73.516" cy="177.28" r="2.395"/>
	<circle fill="#FFFFFF" cx="80.286" cy="191.307" r="1.356"/>
	<circle fill="#FFFFFF" cx="76.158" cy="180.808" r="1.133"/>
</g>
</svg>
