<?xml version="1.0" encoding="utf-8"?>
<!-- Generator: Adobe Illustrator 15.0.0, SVG Export Plug-In . SVG Version: 6.00 Build 0)  -->
<!DOCTYPE svg PUBLIC "-//W3C//DTD SVG 1.1//EN" "http://www.w3.org/Graphics/SVG/1.1/DTD/svg11.dtd">
<svg version="1.1" id="Layer_1" xmlns="http://www.w3.org/2000/svg" xmlns:xlink="http://www.w3.org/1999/xlink" x="0px" y="0px"
	 width="155.333px" height="189.333px" viewBox="0 0 155.333 189.333" enable-background="new 0 0 155.333 189.333"
	 xml:space="preserve">
<g>
	<path fill="#FFFFFF" d="M136.661,23.331c0-5.696,11.77-14.993,6.073-14.993H10.031c-5.695,0,6.074,9.297,6.074,14.993v146.01
		c0,5.695,4.617,10.312,10.312,10.312h99.931c5.695,0,10.312-4.617,10.312-10.312V23.331"/>
	<path fill="#007BA7" d="M133.384,74.674H18.296l-2.191,92.748c0,5.274,7.098,12.231,12.537,12.231l94.897-3.588
		c5.437,0,13.122-1.451,13.122-6.724L133.384,74.674"/>
	<path fill="#066782" d="M133.384,75.198c0,4.168-25.763,7.547-57.544,7.547c-31.78,0-57.543-3.379-57.543-7.547
		s25.763-7.547,57.543-7.547C107.621,67.651,133.384,71.029,133.384,75.198"/>
	<path fill="#A3B4D8" d="M124.815,176.039c-0.005,0-0.009,0-0.014,0c-0.095,0.081-0.189,0.162-0.284,0.243l-0.021,0.022
		c-0.049,0.226-0.092,0.452-0.131,0.679c0.147-0.009,0.295-0.019,0.44-0.033l0.211-0.127
		C124.843,176.616,124.756,176.344,124.815,176.039"/>
	<path fill="#2472AC" d="M124.818,176.025c-0.005,0.005-0.011,0.009-0.017,0.014c0.005,0,0.009,0,0.014,0
		C124.816,176.034,124.817,176.03,124.818,176.025"/>
	<path fill="#007BA7" d="M125.979,164.166c1.139-1.368,2.327-2.719,3.512-4.079c1.333-2.011,2.705-3.996,4.127-5.947V75.61H18.531
		v91.843c0,5.273,6.969,9.529,12.406,9.529l87.218-0.259C119.624,172.016,122.869,167.904,125.979,164.166"/>
	<path fill="#066782" d="M133.926,75.198c0,4.168-25.764,7.547-57.543,7.547c-31.781,0-57.543-3.379-57.543-7.547H133.926"/>
	<path fill="#70B5CE" d="M78.509,144.326c-2.92,0-5.286,2.367-5.286,5.287c0,2.919,2.366,5.286,5.286,5.286s5.287-2.367,5.287-5.286
		C83.796,146.693,81.429,144.326,78.509,144.326"/>
	<path fill="#70B5CE" d="M84.324,160.186c-1.476,0-2.672,1.196-2.672,2.672c0,1.477,1.197,2.672,2.672,2.672
		s2.672-1.196,2.672-2.672C86.996,161.382,85.799,160.186,84.324,160.186"/>
	<path fill="#70B5CE" d="M107.874,134.979c-1.138,0-2.06,0.923-2.06,2.06c0,1.138,0.922,2.06,2.06,2.06
		c1.138,0,2.06-0.922,2.06-2.06C109.934,135.901,109.012,134.979,107.874,134.979"/>
	<path fill="#70B5CE" d="M104.457,141.611c-0.75,0-1.358,0.608-1.358,1.357c0,0.75,0.608,1.357,1.358,1.357
		c0.749,0,1.357-0.607,1.357-1.357C105.814,142.219,105.206,141.611,104.457,141.611"/>
	<path fill="#231F20" d="M134.113,23.291l0.005-0.155l0.014-0.263c0.011-0.149,0.026-0.296,0.045-0.438
		c0.037-0.286,0.088-0.558,0.148-0.819c0.119-0.523,0.271-1.004,0.439-1.456c0.337-0.904,0.722-1.712,1.121-2.482
		c0.798-1.534,1.642-2.936,2.447-4.303c0.405-0.68,0.806-1.345,1.181-1.991c0.371-0.643,0.731-1.273,0.994-1.822
		c0.128-0.27,0.235-0.521,0.271-0.672l-0.012-0.073l-0.054,0.157c-0.021,0.091-0.043,0.228-0.041,0.436
		c0.003,0.206,0.034,0.493,0.153,0.831c0.116,0.336,0.333,0.7,0.581,0.969c0.247,0.273,0.502,0.453,0.697,0.562
		c0.197,0.111,0.34,0.163,0.443,0.196c0.201,0.06,0.243,0.053,0.237,0.055l-0.06-0.003l-0.29-0.002l-9.273-0.114l-9.274-0.144
		L86.789,11.18l-37.097-0.603l-18.549-0.31l-9.274-0.155l-4.637-0.078l-2.318-0.039c-0.387-0.006-0.773-0.01-1.159-0.053
		l-1.16-0.146c-0.386-0.036-0.772-0.057-1.159-0.017c-0.386,0.057-0.772,0.293-1.159,0.332l-0.145,0.016l-0.121,0.015l-0.107,0.018
		L9.838,10.18c-0.094,0.025-0.153,0.063-0.115,0.073l0.146-0.038c0.078-0.035,0.195-0.111,0.305-0.229
		c0.109-0.117,0.199-0.272,0.246-0.401c0.05-0.13,0.065-0.228,0.076-0.286c0.018-0.115,0.032-0.098,0.072-0.049l0.174,0.246
		c0.146,0.207,0.343,0.46,0.555,0.715c0.432,0.515,0.935,1.056,1.448,1.607c1.032,1.106,2.129,2.255,3.15,3.555
		c0.512,0.651,1.011,1.338,1.481,2.089c0.468,0.755,0.911,1.569,1.282,2.521c0.185,0.477,0.35,0.989,0.475,1.557
		c0.062,0.284,0.114,0.582,0.149,0.896c0.019,0.158,0.032,0.319,0.041,0.484l0.009,0.252l0.002,0.213l-0.005,2.319l-0.011,4.636
		l-0.038,9.274c-0.032,6.183-0.078,12.366-0.141,18.548l-0.225,18.549c-0.345,24.731-0.834,49.462-1.051,74.194l-0.137,18.528
		c0.004,1.312,0.345,2.604,0.979,3.73c0.63,1.128,1.547,2.075,2.597,2.76c1.051,0.69,2.231,1.117,3.424,1.298
		c0.299,0.047,0.6,0.075,0.899,0.089c0.15,0.007,0.301,0.011,0.451,0.011l0.226-0.005l0.258-0.008l2.318-0.073l37.097-1.152
		l37.098-1.107l18.548-0.548l4.638-0.137c0.108-0.001,0.014-0.002,0.077-0.004l0.145-0.006l0.083-0.007l0.033-0.006l0.267-0.036
		c0.183-0.031,0.362-0.071,0.537-0.122c0.351-0.099,0.685-0.239,1-0.413c0.629-0.347,1.178-0.84,1.586-1.418
		c0.411-0.578,0.673-1.231,0.783-1.896c0.057-0.334,0.058-0.671,0.084-1.016l0.054-2.286l0.107-4.637l0.215-9.274l0.456-18.548
		l0.959-37.097c0.64-24.731,1.142-49.463,1.468-74.194V23.291z M139.209,23.331c0.325,24.731,0.828,49.463,1.468,74.194
		l0.959,37.097l0.455,18.548l0.215,9.274l0.107,4.637l0.053,2.352c0.016,1.201-0.161,2.409-0.457,3.579
		c-0.594,2.345-1.726,4.538-3.266,6.361c-1.536,1.826-3.477,3.292-5.644,4.265c-1.082,0.487-2.22,0.851-3.38,1.08
		c-0.58,0.115-1.165,0.197-1.751,0.246c-0.298,0.024-0.576,0.04-0.89,0.05l-0.256,0.004c-0.094,0.002-0.172,0.002-0.207,0.001
		l-0.357-0.005l-4.638-0.138l-18.548-0.548l-37.098-1.107l-37.097-1.152l-2.318-0.072l-0.322-0.012
		c-0.118-0.004-0.236-0.011-0.354-0.02c-0.236-0.016-0.472-0.04-0.706-0.07c-0.469-0.06-0.933-0.151-1.391-0.266
		c-1.832-0.459-3.523-1.375-4.911-2.585c-2.79-2.425-4.352-6.005-4.394-9.568l-0.14-18.569c-0.217-24.732-0.706-49.463-1.051-74.194
		l-0.225-18.549c-0.062-6.183-0.108-12.365-0.141-18.548l-0.038-9.274l-0.011-4.636l-0.005-2.319l-0.001-0.076l-0.002-0.039
		l-0.009-0.093c-0.008-0.07-0.022-0.152-0.044-0.247c-0.042-0.187-0.11-0.413-0.199-0.659c-0.179-0.493-0.442-1.061-0.743-1.646
		c-0.302-0.588-0.643-1.2-1.003-1.825c-0.722-1.254-1.5-2.565-2.289-3.956c-0.395-0.698-0.791-1.416-1.179-2.212
		c-0.195-0.402-0.389-0.818-0.57-1.312c-0.09-0.248-0.178-0.516-0.254-0.831c-0.072-0.319-0.143-0.684-0.128-1.187
		c0.011-0.25,0.049-0.543,0.154-0.857C6.71,8.135,6.889,7.804,7.12,7.536c0.229-0.27,0.497-0.471,0.741-0.607
		c0.246-0.137,0.471-0.218,0.673-0.274c0.405-0.11,0.73-0.131,1.021-0.136l0.226,0.002l0.182,0.011l0.169,0.014l0.145,0.016
		c0.387,0.04,0.773,0.276,1.159,0.333c0.387,0.04,0.773,0.019,1.159-0.017l1.16-0.146c0.386-0.043,0.772-0.047,1.159-0.053
		l2.318-0.038l4.637-0.079l9.274-0.155l18.549-0.31l37.097-0.603l37.098-0.579l9.274-0.143l9.273-0.114l0.29-0.002
		c0.152,0,0.334,0.003,0.52,0.014c0.38,0.028,0.808,0.071,1.381,0.239c0.287,0.088,0.611,0.209,0.979,0.413
		c0.365,0.2,0.778,0.495,1.157,0.91c0.38,0.411,0.699,0.941,0.884,1.458c0.188,0.52,0.251,0.999,0.263,1.398
		c0.014,0.805-0.133,1.316-0.261,1.734c-0.136,0.416-0.28,0.728-0.424,1.01c-0.289,0.552-0.566,0.972-0.844,1.36
		c-0.552,0.765-1.091,1.394-1.626,2.002l-1.568,1.744c-1.021,1.125-1.98,2.242-2.736,3.382c-0.374,0.568-0.698,1.139-0.92,1.677
		c-0.111,0.268-0.195,0.525-0.249,0.755c-0.026,0.115-0.046,0.223-0.058,0.321l-0.011,0.138l-0.002,0.162L139.209,23.331z"/>
	<path fill="#FFFFFF" d="M27.146,11.436c-0.661,0-1.209,26.042-1.306,60.024c0.813-0.187,1.685-0.368,2.612-0.544
		C28.351,37.199,27.805,11.436,27.146,11.436"/>
	<path fill="#468EA2" d="M28.452,70.915c-0.927,0.176-1.799,0.358-2.612,0.544c-0.003,1.237-0.006,2.481-0.008,3.738h2.63
		C28.459,73.757,28.456,72.33,28.452,70.915"/>
	<path fill="#429DBE" d="M25.827,78.806c-0.001,1.11-0.001,2.224-0.001,3.347c0,39.055,0.591,70.715,1.32,70.715
		c0.731,0,1.323-31.661,1.323-70.715c0-0.93,0-1.853-0.001-2.773C27.524,79.193,26.644,79.002,25.827,78.806"/>
	<path fill="#468EA2" d="M28.462,75.198h-2.63c-0.002,1.192-0.004,2.399-0.005,3.608c0.817,0.196,1.698,0.388,2.641,0.573
		C28.466,77.976,28.464,76.578,28.462,75.198"/>
</g>
</svg>
