<?xml version="1.0" encoding="utf-8"?>
<!-- Generator: Adobe Illustrator 15.0.0, SVG Export Plug-In . SVG Version: 6.00 Build 0)  -->
<!DOCTYPE svg PUBLIC "-//W3C//DTD SVG 1.1//EN" "http://www.w3.org/Graphics/SVG/1.1/DTD/svg11.dtd">
<svg version="1.1" id="Layer_1" xmlns="http://www.w3.org/2000/svg" xmlns:xlink="http://www.w3.org/1999/xlink" x="0px" y="0px"
	 width="1280px" height="800px" viewBox="0 0 1280 800" enable-background="new 0 0 1280 800" xml:space="preserve">
<g>
	<polyline fill="#FFFFFF" points="1279,797.883 -1.001,797.883 -1.001,-2.117 1279,-2.117 1279,797.883 	"/>
	<g>
		<path fill="#89CFF0" d="M218.881,599.529H161.24v-24.391h8.862v-53.1h-8.862v-24.391h62.256c12.206,0,21.654,0.709,28.345,2.125
			c6.592,1.465,11.767,4.37,15.527,8.715c3.76,4.444,5.64,9.62,5.64,15.527c0,5.763-1.783,10.353-5.347,13.77
			c-3.662,3.516-8.105,5.958-13.33,7.324c7.178,2.149,12.695,5.47,16.553,9.961c3.906,4.591,5.859,9.742,5.859,15.455
			c0,6.836-2.197,12.646-6.592,17.432c-4.395,4.736-10.426,7.836-18.091,9.301C244.491,598.772,233.431,599.529,218.881,599.529z
			 M209.506,519.988v18.604h8.716c5.907,0,9.789-0.854,11.646-2.564c1.758-1.708,2.637-3.955,2.637-6.738
			c0-2.392-0.806-4.541-2.417-6.445s-6.031-2.855-13.257-2.855H209.506z M209.506,557.121v20.068h8.862
			c5.664,0,9.741-0.732,12.231-2.197c2.441-1.465,3.662-4.052,3.662-7.764c0-3.466-1.099-6.029-3.296-7.689
			c-2.197-1.611-6.445-2.418-12.744-2.418H209.506z"/>
		<path fill="#89CFF0" d="M321.79,599.529h-40.356v-24.391h7.764l19.116-53.1h-8.203v-24.391h73.242v24.391h-8.203l19.482,53.1
			h7.471v24.391h-53.174v-22.34h8.936l-3.882-12.816h-26.074l-4.468,12.816h8.35V599.529z M331.384,523.504l-9.595,28.197h18.237
			L331.384,523.504z"/>
		<path fill="#89CFF0" d="M457.947,599.529h-57.642v-24.391h8.862v-53.1h-8.862v-24.391h62.256c12.206,0,21.654,0.709,28.345,2.125
			c6.592,1.465,11.767,4.37,15.527,8.715c3.76,4.444,5.64,9.62,5.64,15.527c0,5.763-1.783,10.353-5.347,13.77
			c-3.662,3.516-8.105,5.958-13.33,7.324c7.178,2.149,12.695,5.47,16.553,9.961c3.906,4.591,5.859,9.742,5.859,15.455
			c0,6.836-2.197,12.646-6.592,17.432c-4.395,4.736-10.426,7.836-18.091,9.301C483.556,598.772,472.497,599.529,457.947,599.529z
			 M448.572,519.988v18.604h8.716c5.907,0,9.789-0.854,11.646-2.564c1.758-1.708,2.637-3.955,2.637-6.738
			c0-2.392-0.806-4.541-2.417-6.445s-6.031-2.855-13.257-2.855H448.572z M448.572,557.121v20.068h8.862
			c5.664,0,9.741-0.732,12.231-2.197c2.441-1.465,3.662-4.052,3.662-7.764c0-3.466-1.099-6.029-3.296-7.689
			c-2.197-1.611-6.445-2.418-12.744-2.418H448.572z"/>
		<path fill="#89CFF0" d="M604.578,599.529h-55.664v-24.391h8.203v-16.186l-25.708-36.914h-6.958v-24.391h53.247v24.391h-6.079
			l10.84,20.801l13.11-20.801h-6.226v-24.391h39.185v24.391h-6.372l-25.635,36.914v16.186h8.057V599.529z"/>
		<path fill="#89CFF0" d="M732.898,599.529h-57.642v-24.391h8.862v-53.1h-8.862v-24.391h62.256c12.206,0,21.654,0.709,28.345,2.125
			c6.592,1.465,11.767,4.37,15.527,8.715c3.76,4.444,5.64,9.62,5.64,15.527c0,5.763-1.783,10.353-5.347,13.77
			c-3.662,3.516-8.105,5.958-13.33,7.324c7.178,2.149,12.695,5.47,16.553,9.961c3.906,4.591,5.859,9.742,5.859,15.455
			c0,6.836-2.197,12.646-6.592,17.432c-4.395,4.736-10.426,7.836-18.091,9.301C758.507,598.772,747.448,599.529,732.898,599.529z
			 M723.523,519.988v18.604h8.716c5.907,0,9.789-0.854,11.646-2.564c1.758-1.708,2.637-3.955,2.637-6.738
			c0-2.392-0.806-4.541-2.417-6.445s-6.031-2.855-13.257-2.855H723.523z M723.523,557.121v20.068h8.862
			c5.664,0,9.741-0.732,12.231-2.197c2.441-1.465,3.662-4.052,3.662-7.764c0-3.466-1.099-6.029-3.296-7.689
			c-2.197-1.611-6.445-2.418-12.744-2.418H723.523z"/>
		<path fill="#89CFF0" d="M899.084,599.529h-96.973v-24.391h9.155v-53.1h-9.155v-24.391h58.228v24.391h-9.668v53.1h24.097v-16.332
			h24.316V599.529z"/>
		<path fill="#89CFF0" d="M913.733,522.039h-7.837v-24.391h52.148v24.391h-4.834v34.35c0,8.203,0.78,13.795,2.344,16.773
			c1.562,2.93,4.369,4.395,8.423,4.395c3.369,0,5.811-1.246,7.324-3.736c1.513-2.44,2.271-7.445,2.271-15.014v-36.768h-5.127
			v-24.391h38.306v24.391h-8.057v36.914c0,9.424-1.367,17.139-4.102,23.145c-2.735,5.957-7.276,10.619-13.623,13.988
			c-6.348,3.369-14.161,5.055-23.438,5.055c-7.471,0-14.088-0.904-19.849-2.711c-5.859-1.758-10.499-4.442-13.916-8.057
			c-3.418-3.563-5.933-7.885-7.544-12.963c-1.66-4.932-2.49-12.5-2.49-22.705V522.039z"/>
		<path fill="#89CFF0" d="M1114.856,599.529h-97.192v-24.391h7.91v-53.1h-8.057v-24.391h97.339v32.594h-26.733v-8.203h-23.145
			v15.674h20.142v20.727h-20.142v16.699h23.145v-8.203h26.733V599.529z"/>
	</g>
	<path fill="#FFFFFF" d="M718.812,178.214c0-7.556,15.609-19.89,8.055-19.89H550.852c-7.554,0,8.056,12.334,8.056,19.89v193.664
		c0,7.555,6.124,13.679,13.679,13.679h132.546c7.555,0,13.68-6.124,13.68-13.679V178.214"/>
	<path fill="#89CFF0" d="M714.465,246.313H561.816l-2.909,123.02c0,6.995,9.416,16.224,16.628,16.224l125.87-4.76
		c7.212,0,17.406-1.924,17.406-8.919L714.465,246.313"/>
	<path fill="#6BB4D1" d="M714.465,247.009c0,5.528-34.173,10.011-76.325,10.011c-42.153,0-76.324-4.482-76.324-10.011
		c0-5.529,34.171-10.01,76.324-10.01C680.292,236.999,714.465,241.479,714.465,247.009"/>
	<path fill="#A3B4D8" d="M703.099,380.762c-0.005,0-0.012,0.001-0.017,0.001c-0.126,0.106-0.251,0.215-0.377,0.322l-0.027,0.029
		c-0.065,0.299-0.122,0.599-0.174,0.899c0.196-0.011,0.392-0.025,0.584-0.044c0.093-0.058,0.188-0.109,0.28-0.168
		C703.137,381.528,703.02,381.166,703.099,380.762"/>
	<path fill="#689CD0" d="M703.103,380.745c-0.007,0.006-0.014,0.012-0.021,0.018c0.005,0,0.012-0.001,0.017-0.001
		C703.1,380.756,703.102,380.751,703.103,380.745"/>
	<path fill="#89CFF0" d="M704.645,365.014c1.509-1.814,3.085-3.604,4.656-5.409c1.77-2.667,3.588-5.301,5.475-7.887V247.556H562.126
		v121.818c0,6.994,9.245,12.64,16.456,12.64l115.685-0.343C696.215,375.426,700.518,369.972,704.645,365.014"/>
	<path fill="#6BB4D1" d="M715.185,247.009c0,5.528-34.173,10.011-76.325,10.011c-42.153,0-76.326-4.482-76.326-10.011H715.185"/>
	<path fill="#BDE4F7" d="M586.033,264.659c-4.116,0-7.452,3.336-7.452,7.451c0,4.116,3.336,7.451,7.452,7.451
		s7.452-3.335,7.452-7.451C593.485,267.995,590.149,264.659,586.033,264.659"/>
	<path fill="#BDE4F7" d="M594.23,287.014c-2.082,0-3.769,1.687-3.769,3.767c0,2.081,1.687,3.767,3.769,3.767
		c2.08,0,3.766-1.686,3.766-3.767C597.997,288.7,596.31,287.014,594.23,287.014"/>
	<path fill="#BDE4F7" d="M680.628,326.301c-1.51,0-2.732,1.224-2.732,2.732s1.223,2.732,2.732,2.732
		c1.509,0,2.732-1.224,2.732-2.732S682.137,326.301,680.628,326.301"/>
	<path fill="#BDE4F7" d="M676.096,335.099c-0.995,0-1.801,0.806-1.801,1.8c0,0.996,0.806,1.802,1.801,1.802
		c0.995,0,1.8-0.806,1.8-1.802C677.896,335.904,677.091,335.099,676.096,335.099"/>
	<path fill="#231F20" d="M716.227,178.173l0.007-0.201c0.005-0.104,0.011-0.22,0.019-0.312c0.015-0.182,0.034-0.359,0.059-0.533
		c0.048-0.35,0.115-0.685,0.193-1.007c0.157-0.645,0.361-1.242,0.588-1.806c0.456-1.127,0.999-2.135,1.57-3.09
		c1.145-1.904,2.416-3.604,3.662-5.266l1.841-2.449c0.596-0.803,1.17-1.608,1.655-2.379c0.242-0.384,0.454-0.764,0.604-1.089
		c0.073-0.159,0.13-0.308,0.157-0.401c0.031-0.092,0.019-0.139,0.021-0.002c0.003,0.066,0.017,0.184,0.073,0.336
		c0.054,0.152,0.154,0.328,0.263,0.456c0.109,0.132,0.213,0.215,0.273,0.271l0.091,0.107c0,0.045-0.099,0.072-0.226,0.089
		l-0.224,0.018c-0.127,0.003-0.256-0.001-0.384-0.005c-4.101-0.088-8.2-0.34-12.301-0.551c-2.051-0.105-4.101-0.186-6.151-0.227
		c-2.05-0.044-4.1-0.041-6.151-0.052c-16.401-0.075-32.803-0.13-49.205-0.121l-49.205,0.056l-24.603,0.014l-12.301-0.015
		l-6.15-0.008l-3.075-0.004c-0.513,0-1.025,0.003-1.538-0.04c-0.513-0.041-1.025-0.107-1.538-0.151
		c-0.513-0.039-1.025-0.062-1.538-0.021c-0.513,0.058-1.025,0.297-1.538,0.337l-0.192,0.017l-0.168,0.016l-0.155,0.018l-0.11,0.021
		c-0.155,0.029-0.276,0.078-0.294,0.106l0.065-0.001c0.054-0.021,0.149-0.076,0.24-0.174c0.093-0.096,0.168-0.227,0.208-0.327
		c0.041-0.103,0.054-0.172,0.064-0.2c0.017-0.056,0.044,0.021,0.103,0.129c0.059,0.112,0.141,0.26,0.241,0.42
		c0.199,0.32,0.458,0.681,0.736,1.043c0.563,0.729,1.211,1.477,1.87,2.233c1.327,1.517,2.726,3.069,4.035,4.783
		c0.655,0.859,1.295,1.756,1.894,2.726c0.598,0.972,1.162,2.009,1.63,3.197c0.231,0.595,0.444,1.227,0.599,1.921
		c0.078,0.347,0.143,0.708,0.188,1.088c0.023,0.189,0.041,0.383,0.052,0.581c0.005,0.101,0.011,0.198,0.013,0.301l0.004,0.262
		l0.018,3.076l0.037,6.15l0.073,12.301l0.091,24.603l0.031,24.603l-0.17,98.41l-0.005,12.301l-0.002,6.15l-0.001,3.076l0.009,1.537
		c0.003,0.256,0.002,0.512-0.001,0.769l-0.01,0.385l-0.014,0.363c-0.069,1.526,0.174,3.127,0.759,4.617
		c0.584,1.493,1.519,2.903,2.763,4.021c1.239,1.119,2.783,1.933,4.438,2.298c0.414,0.092,0.833,0.159,1.256,0.197
		c0.211,0.019,0.423,0.033,0.636,0.038l0.318,0.005l0.352-0.005l3.075-0.047c16.402-0.25,32.803-0.549,49.205-0.939l12.302-0.293
		l12.301-0.311l24.603-0.653l24.603-0.64l6.15-0.154l0.158-0.005l0.139-0.007l0.217-0.016c0.155-0.014,0.309-0.031,0.462-0.053
		c0.306-0.045,0.607-0.105,0.904-0.182c0.592-0.155,1.162-0.375,1.7-0.657c1.076-0.562,2.021-1.372,2.737-2.335
		c0.718-0.963,1.203-2.07,1.42-3.217c0.111-0.574,0.142-1.157,0.168-1.748l0.053-3.042l0.105-6.15l0.212-12.302l0.422-24.602
		l0.845-49.205l1.668-98.41L716.227,178.173z M721.396,178.214l1.669,98.41l0.844,49.205l0.422,24.602l0.211,12.302l0.105,6.15
		l0.052,3.109c0.016,1.459-0.193,2.926-0.549,4.347c-0.714,2.849-2.084,5.514-3.95,7.735c-1.863,2.224-4.22,4.015-6.853,5.204
		c-1.315,0.595-2.698,1.039-4.109,1.322c-0.706,0.143-1.418,0.244-2.131,0.305c-0.357,0.031-0.714,0.051-1.071,0.062l-0.268,0.007
		l-0.284,0.002l-0.245-0.002l-0.227-0.004l-6.15-0.154l-24.603-0.639l-24.603-0.653l-12.301-0.311l-12.302-0.294
		c-16.402-0.391-32.803-0.689-49.205-0.939l-3.075-0.047l-0.417-0.007l-0.449-0.017c-0.3-0.017-0.6-0.038-0.898-0.068
		c-0.598-0.061-1.192-0.152-1.782-0.273c-2.357-0.484-4.623-1.451-6.618-2.854c-1.995-1.397-3.723-3.239-4.963-5.419
		c-1.246-2.18-1.977-4.669-2.086-7.243l-0.016-0.405l-0.01-0.385c-0.004-0.257-0.005-0.513-0.002-0.769l0.01-1.537l-0.001-3.076
		l-0.002-6.15l-0.005-12.301l-0.17-98.41l0.03-24.603l0.091-24.603l0.073-12.301l0.037-6.15l0.018-3.076v-0.122l-0.002-0.083
		l-0.014-0.185c-0.013-0.13-0.036-0.274-0.068-0.429c-0.066-0.307-0.164-0.654-0.297-1.018c-0.261-0.729-0.634-1.523-1.056-2.328
		c-0.425-0.808-0.899-1.633-1.4-2.467c-1.003-1.673-2.092-3.383-3.181-5.18c-0.545-0.902-1.09-1.823-1.613-2.834
		c-0.263-0.508-0.521-1.034-0.757-1.643c-0.118-0.305-0.23-0.633-0.326-1.009c-0.092-0.382-0.177-0.81-0.163-1.38
		c0.01-0.285,0.052-0.611,0.167-0.959c0.112-0.348,0.308-0.709,0.561-1.005c0.251-0.298,0.545-0.521,0.818-0.675
		c0.275-0.154,0.531-0.249,0.765-0.316c0.469-0.131,0.858-0.161,1.214-0.17c0.087-0.002,0.176-0.003,0.273,0
		c0.106,0,0.168,0.004,0.229,0.009l0.217,0.014l0.192,0.017c0.513,0.04,1.025,0.279,1.538,0.337c0.512,0.04,1.025,0.019,1.538-0.021
		c0.513-0.045,1.025-0.11,1.538-0.151c0.512-0.043,1.025-0.04,1.538-0.04l3.075-0.004l6.15-0.008l12.301-0.015l24.603,0.014
		l49.205,0.055c16.402,0.009,32.803-0.045,49.205-0.12c2.051-0.012,4.101-0.008,6.151-0.053c2.05-0.04,4.1-0.121,6.151-0.227
		c4.101-0.211,8.2-0.463,12.301-0.551c0.128-0.004,0.257-0.008,0.384-0.004c0.167,0.004,0.356,0.014,0.545,0.04
		c0.384,0.05,0.796,0.144,1.289,0.332c0.247,0.098,0.514,0.218,0.802,0.394c0.286,0.178,0.601,0.414,0.883,0.734
		c0.284,0.315,0.521,0.713,0.665,1.104c0.147,0.393,0.204,0.767,0.219,1.089c0.023,0.648-0.089,1.113-0.2,1.512
		c-0.116,0.398-0.251,0.727-0.39,1.035c-0.278,0.606-0.576,1.117-0.873,1.606c-0.596,0.972-1.213,1.837-1.821,2.692l-1.805,2.505
		c-1.177,1.645-2.297,3.285-3.214,4.927c-0.455,0.819-0.852,1.641-1.137,2.427c-0.143,0.393-0.253,0.773-0.326,1.128
		c-0.036,0.178-0.062,0.348-0.078,0.507l-0.016,0.231l-0.002,0.254L721.396,178.214z"/>
	<path fill="#FFFFFF" d="M572.914,208.206c-0.48,0-0.901,13.529-1.139,33.854c0.723-0.166,1.48-0.329,2.271-0.489
		C573.809,221.516,573.39,208.206,572.914,208.206"/>
	<path fill="#91C7DD" d="M574.046,241.571c-0.792,0.16-1.549,0.323-2.271,0.489c-0.019,1.608-0.036,3.259-0.052,4.948h2.382
		C574.087,245.148,574.067,243.332,574.046,241.571"/>
	<path fill="#A8DBF4" d="M571.681,251.765c-0.069,8.651-0.108,18.174-0.108,28.178c0,39.617,0.602,71.735,1.341,71.735
		c0.74,0,1.341-32.118,1.341-71.735c0-9.789-0.037-19.12-0.103-27.622C573.285,252.139,572.459,251.953,571.681,251.765"/>
	<path fill="#91C7DD" d="M574.105,247.009h-2.382c-0.015,1.553-0.029,3.14-0.042,4.756c0.779,0.188,1.604,0.374,2.471,0.556
		C574.137,250.51,574.122,248.74,574.105,247.009"/>
</g>
</svg>
