<?xml version="1.0" encoding="utf-8"?>
<!-- Generator: Adobe Illustrator 15.0.0, SVG Export Plug-In . SVG Version: 6.00 Build 0)  -->
<!DOCTYPE svg PUBLIC "-//W3C//DTD SVG 1.1//EN" "http://www.w3.org/Graphics/SVG/1.1/DTD/svg11.dtd">
<svg version="1.1" id="Layer_1" xmlns="http://www.w3.org/2000/svg" xmlns:xlink="http://www.w3.org/1999/xlink" x="0px" y="0px"
	 width="1280px" height="800px" viewBox="0 0 1280 800" enable-background="new 0 0 1280 800" xml:space="preserve">
<g>
	<polyline fill="#FFFFFF" points="1277.801,796.346 -2.199,796.346 -2.199,-3.654 1277.801,-3.654 1277.801,796.346 	"/>
	<g>
		<path fill="#0000FF" d="M474.69,605.504h-57.642v-24.39h8.862v-53.101h-8.862v-24.39h62.256c12.206,0,21.654,0.708,28.345,2.124
			c6.592,1.465,11.767,4.37,15.527,8.716c3.76,4.443,5.64,9.62,5.64,15.527c0,5.762-1.783,10.353-5.347,13.77
			c-3.662,3.516-8.105,5.958-13.33,7.324c7.178,2.149,12.695,5.469,16.553,9.961c3.906,4.59,5.859,9.741,5.859,15.454
			c0,6.837-2.197,12.646-6.592,17.432c-4.395,4.736-10.426,7.837-18.091,9.302C500.299,604.747,489.24,605.504,474.69,605.504z
			 M465.315,525.963v18.604h8.716c5.907,0,9.789-0.854,11.646-2.563c1.758-1.709,2.637-3.955,2.637-6.738
			c0-2.392-0.806-4.541-2.417-6.445s-6.031-2.856-13.257-2.856H465.315z M465.315,563.097v20.068h8.862
			c5.664,0,9.741-0.732,12.231-2.197c2.441-1.465,3.662-4.053,3.662-7.764c0-3.467-1.099-6.03-3.296-7.69
			c-2.197-1.611-6.445-2.417-12.744-2.417H465.315z"/>
		<path fill="#0000FF" d="M640.876,605.504h-96.973v-24.39h9.155v-53.101h-9.155v-24.39h58.228v24.39h-9.668v53.101h24.097v-16.333
			h24.316V605.504z"/>
		<path fill="#0000FF" d="M655.525,528.014h-7.837v-24.39h52.148v24.39h-4.834v34.351c0,8.203,0.78,13.795,2.344,16.772
			c1.562,2.93,4.369,4.395,8.423,4.395c3.369,0,5.811-1.245,7.324-3.735c1.513-2.441,2.271-7.445,2.271-15.015v-36.768h-5.127
			v-24.39h38.306v24.39h-8.057v36.914c0,9.424-1.367,17.139-4.102,23.145c-2.735,5.958-7.276,10.62-13.623,13.989
			c-6.348,3.369-14.161,5.054-23.438,5.054c-7.471,0-14.088-0.904-19.849-2.71c-5.859-1.758-10.499-4.442-13.916-8.057
			c-3.418-3.563-5.933-7.885-7.544-12.964c-1.66-4.932-2.49-12.499-2.49-22.705V528.014z"/>
		<path fill="#0000FF" d="M856.648,605.504h-97.192v-24.39h7.91v-53.101h-8.057v-24.39h97.339v32.593h-26.733v-8.203H806.77v15.674
			h20.142v20.728H806.77v16.699h23.145v-8.203h26.733V605.504z"/>
	</g>
	<path fill="#FFFFFF" d="M693.293,259.076c0-4.846,10.013-12.758,5.167-12.758h-112.9c-4.845,0,5.168,7.912,5.168,12.758v124.221
		c0,4.846,3.929,8.773,8.774,8.773h85.019c4.846,0,8.773-3.928,8.773-8.773V259.076"/>
	<path fill="#0000FF" d="M690.505,302.756h-97.913l-1.865,78.908c0,4.486,6.039,10.406,10.666,10.406l80.737-3.053
		c4.625,0,11.163-1.234,11.163-5.721L690.505,302.756"/>
	<path fill="#0A0AE5" d="M690.505,303.203c0,3.547-21.918,6.42-48.956,6.42s-48.957-2.873-48.957-6.42s21.919-6.422,48.957-6.422
		S690.505,299.656,690.505,303.203"/>
	<path fill="#FFFFFF" d="M623.053,360.812l-39.948-208.891c-0.547-2.119-2.708-3.396-4.827-2.85
		c-2.121,0.545-3.397,2.707-2.851,4.828l39.948,208.889c-3.009,2.354-4.508,6.346-3.495,10.281c1.365,5.301,6.77,8.494,12.07,7.129
		c5.303-1.365,8.495-6.77,7.128-12.072C630.065,364.191,626.825,361.422,623.053,360.812"/>
	<path fill="#231F20" d="M622.246,360.967c-7.439-35.723-14.6-71.498-21.661-107.293l-2.652-13.422l-2.625-13.428l-5.238-26.857
		l-5.185-26.867l-2.586-13.436l-1.293-6.717l-0.082-0.42l-0.02-0.105c-0.024-0.104-0.01-0.049,0.004,0.008
		c0.01,0.043,0.02,0.086,0.011,0.055l-0.021-0.076l-0.009-0.025c-0.038-0.119-0.089-0.23-0.149-0.336
		c-0.123-0.209-0.294-0.393-0.496-0.533c-0.204-0.141-0.438-0.238-0.678-0.281c-0.119-0.021-0.24-0.029-0.361-0.023l-0.183,0.016
		l-0.092,0.018l-0.045,0.01l-0.017,0.002l-0.1,0.027l-0.019,0.006l-0.087,0.031l-0.167,0.072c-0.11,0.055-0.212,0.119-0.306,0.197
		c-0.189,0.152-0.348,0.352-0.458,0.572c-0.109,0.223-0.169,0.465-0.177,0.707c-0.002,0.121,0.007,0.244,0.031,0.365l0.02,0.092
		c-0.003-0.01,0.011,0.057,0.025,0.123c0.017,0.078,0.034,0.156,0.022,0.105l0.02,0.105l0.08,0.42l1.276,6.721l2.554,13.439
		l5.096,26.885l5.041,26.895l2.516,13.449l2.488,13.453c6.646,35.875,13.192,71.768,19.457,107.715l0.088,0.502l-0.389,0.299
		l-0.001,0.002c-1.437,1.518-2.335,3.391-2.582,5.295c-0.129,0.949-0.096,1.902,0.082,2.814c0.093,0.463,0.211,0.891,0.379,1.352
		c0.148,0.404,0.354,0.838,0.572,1.227c0.893,1.58,2.294,2.82,3.923,3.508c0.811,0.342,1.671,0.562,2.543,0.621
		c0.435,0.033,0.872,0.031,1.305-0.008c0.218-0.018,0.434-0.047,0.648-0.086c0.107-0.018,0.215-0.039,0.322-0.062l0.292-0.07
		l0.205-0.053l0.148-0.045c0.086-0.023,0.204-0.061,0.304-0.096c0.206-0.07,0.41-0.15,0.609-0.238
		c0.4-0.176,0.783-0.387,1.147-0.625c0.733-0.471,1.382-1.08,1.926-1.771c1.093-1.389,1.722-3.152,1.74-4.967
		c0.024-1.816-0.558-3.686-1.701-5.221c-1.137-1.547-2.829-2.754-4.819-3.389l-0.578-0.184L622.246,360.967 M623.749,360.047
		c2.279,0.211,4.537,1.252,6.26,2.938c0.933,0.91,1.714,2.002,2.277,3.207c0.565,1.203,0.917,2.51,1.036,3.857
		c0.247,2.697-0.524,5.494-2.121,7.73c-0.794,1.123-1.795,2.102-2.933,2.889c-0.569,0.393-1.177,0.73-1.806,1.016
		c-0.315,0.145-0.636,0.273-0.962,0.389c-0.167,0.059-0.318,0.109-0.5,0.164l-0.257,0.076l-0.205,0.057l-0.278,0.066l-0.251,0.057
		c-0.169,0.035-0.339,0.066-0.51,0.096c-0.34,0.057-0.684,0.098-1.028,0.125c-0.689,0.053-1.384,0.051-2.074-0.018
		c-1.375-0.141-2.725-0.514-3.961-1.113c-2.478-1.188-4.505-3.264-5.593-5.742c-0.277-0.623-0.486-1.244-0.653-1.922
		c-0.151-0.619-0.264-1.301-0.302-1.957c-0.089-1.328,0.068-2.66,0.444-3.908c0.753-2.498,2.411-4.65,4.535-5.908l0.003-0.002
		l-0.301,0.801c-7.44-35.723-14.6-71.498-21.662-107.293l-2.653-13.422l-2.622-13.428l-5.241-26.857l-5.183-26.867l-2.587-13.436
		l-1.292-6.717l-0.081-0.42l-0.021-0.105c-0.02-0.09-0.01-0.049,0-0.008c0.007,0.035,0.016,0.069,0.005,0.027
		c-0.027-0.107-0.051-0.217-0.072-0.326c-0.085-0.438-0.123-0.887-0.113-1.334c0.02-0.898,0.24-1.789,0.634-2.59
		c0.392-0.801,0.958-1.518,1.654-2.084c0.346-0.285,0.726-0.529,1.126-0.732c0.201-0.1,0.405-0.191,0.615-0.27
		c0.104-0.039,0.21-0.076,0.316-0.109l0.187-0.055l0.107-0.029l0.189-0.047l0.164-0.035c0.109-0.021,0.22-0.041,0.331-0.057
		c0.22-0.033,0.443-0.053,0.668-0.061c0.448-0.018,0.899,0.016,1.341,0.096c0.881,0.162,1.724,0.516,2.454,1.027
		c0.731,0.512,1.354,1.186,1.805,1.961c0.226,0.387,0.408,0.799,0.545,1.223l0.054,0.178l0.037,0.131c0,0,0.017,0.074,0.034,0.147
		c0.021,0.093,0.041,0.188,0.026,0.124l0.02,0.105l0.079,0.42l1.277,6.719l2.554,13.441l5.096,26.885l5.041,26.895l2.516,13.449
		l2.486,13.453C611.011,288.615,617.517,324.305,623.749,360.047"/>
	<path fill="#0000FF" d="M665.894,362.016c-0.638,0-1.155-0.518-1.155-1.154c0-0.639,0.517-1.156,1.155-1.156
		c0.639,0,1.156,0.518,1.156,1.156C667.05,361.498,666.533,362.016,665.894,362.016 M668.802,357.568
		c-0.968,0-1.752-0.785-1.752-1.754c0-0.967,0.784-1.752,1.752-1.752c0.969,0,1.753,0.785,1.753,1.752
		C670.555,356.783,669.771,357.568,668.802,357.568 M688.759,305.115c-6.206,2.613-24.79,4.508-46.748,4.508
		c-0.078,0-0.153,0-0.231,0s-0.153,0-0.231,0c-9.959,0-19.223-0.389-26.954-1.059c3.102,17.15,6.159,34.312,9.153,51.482
		c2.279,0.211,4.537,1.252,6.26,2.938c0.933,0.91,1.714,2.002,2.277,3.207c0.565,1.203,0.917,2.51,1.036,3.857
		c0.247,2.697-0.524,5.494-2.121,7.73c-0.794,1.123-1.795,2.102-2.933,2.889c-0.569,0.393-1.177,0.73-1.806,1.016
		c-0.315,0.145-0.636,0.273-0.962,0.389c-0.167,0.059-0.318,0.109-0.5,0.164l-0.257,0.076l-0.205,0.057l-0.278,0.066l-0.251,0.057
		c-0.169,0.035-0.339,0.066-0.51,0.096c-0.34,0.057-0.684,0.098-1.028,0.125c-0.316,0.024-0.634,0.037-0.952,0.037
		c-0.375,0-0.749-0.018-1.122-0.055c-1.375-0.141-2.725-0.514-3.961-1.113c-2.478-1.188-4.505-3.264-5.593-5.742
		c-0.277-0.623-0.486-1.244-0.653-1.922c-0.151-0.619-0.264-1.301-0.302-1.957c-0.089-1.328,0.068-2.66,0.444-3.908
		c0.704-2.334,2.198-4.367,4.124-5.649c-3.225-15.487-6.397-30.987-9.531-46.492c-0.119,24.808-0.78,43.794-1.577,43.794
		c-0.882,0-1.598-23.203-1.598-51.824c0-0.312,0-0.626,0-0.938c-2.922-0.533-5.234-1.129-6.805-1.768l-0.027,15.096l-0.068,15.781
		l-0.106,31.562l-0.007,7.889l-0.003,3.945l-0.001,1.973c-0.001,0.33,0.005,0.658,0.013,0.986c0.003,0.164,0.003,0.328-0.003,0.494
		l-0.013,0.246l-0.007,0.123l-0.009,0.072c-0.093,0.742-0.072,1.488,0.122,2.266c0.069,0.272,0.162,0.547,0.278,0.816
		c1.315,1.25,3.052,2.232,4.844,2.807l1.639-0.047c10.519-0.299,21.04-0.654,31.561-1.119c2.63-0.107,5.26-0.223,7.89-0.35
		l7.89-0.371l15.781-0.777l14.448-0.697c1.394-2.512,3.243-4.818,5.04-6.977c0.75-0.902,1.524-1.795,2.304-2.688L688.759,305.115"/>
	<path fill="#0808EA" d="M614.588,308.523c0.003,0.015,0.005,0.025,0.007,0.041c7.731,0.67,16.994,1.059,26.954,1.059
		c0.078,0,0.153,0,0.231,0C631.708,309.617,622.352,309.213,614.588,308.523 M594.945,304.977l0,0.199
		c1.571,0.639,3.883,1.234,6.805,1.768c0-0.029,0-0.057,0-0.086C598.75,306.29,596.431,305.656,594.945,304.977"/>
	<path fill="#CCCCFF" d="M606.388,307.607c3.322,18.332,6.594,36.672,9.793,55.027l0.088,0.502l-0.389,0.299l-0.001,0.002
		c-1.437,1.518-2.335,3.391-2.582,5.295c-0.129,0.949-0.096,1.902,0.082,2.814c0.093,0.463,0.211,0.891,0.379,1.352
		c0.148,0.404,0.354,0.838,0.572,1.227c0.893,1.58,2.294,2.82,3.923,3.508c0.811,0.342,1.671,0.562,2.543,0.621
		c0.203,0.016,0.405,0.023,0.608,0.023c0.232,0,0.465-0.011,0.697-0.031c0.218-0.018,0.434-0.047,0.648-0.086
		c0.107-0.018,0.215-0.039,0.322-0.062l0.292-0.07l0.205-0.053l0.148-0.045c0.086-0.023,0.204-0.061,0.304-0.096
		c0.206-0.07,0.41-0.15,0.609-0.238c0.4-0.176,0.783-0.387,1.147-0.625c0.733-0.471,1.382-1.08,1.926-1.771
		c1.093-1.389,1.722-3.152,1.74-4.967c0.024-1.816-0.558-3.686-1.701-5.221c-1.137-1.547-2.829-2.754-4.819-3.389l-0.578-0.184
		l-0.099-0.473c-3.659-17.571-7.251-35.154-10.796-52.747C609.655,308.031,607.963,307.827,606.388,307.607"/>
	<path fill="#1C194D" d="M614.869,362.143L614.869,362.143 M604.943,307.398c0,0.16,0,0.321,0,0.482c0,2.732-0.006,5.412-0.019,8.03
		c3.134,15.505,6.307,31.005,9.531,46.492c-1.926,1.282-3.42,3.315-4.124,5.649c-0.376,1.248-0.533,2.58-0.444,3.908
		c0.038,0.656,0.151,1.338,0.302,1.957c0.167,0.678,0.376,1.299,0.653,1.922c1.088,2.479,3.115,4.555,5.593,5.742
		c1.236,0.6,2.587,0.973,3.961,1.113c0.373,0.037,0.747,0.055,1.122,0.055c0.318,0,0.636-0.013,0.952-0.037
		c0.345-0.027,0.688-0.068,1.028-0.125c0.171-0.029,0.341-0.061,0.51-0.096l0.251-0.057l0.278-0.066l0.205-0.057l0.257-0.076
		c0.182-0.055,0.333-0.105,0.5-0.164c0.326-0.115,0.647-0.244,0.962-0.389c0.629-0.285,1.236-0.623,1.806-1.016
		c1.137-0.787,2.139-1.766,2.933-2.889c1.596-2.236,2.368-5.033,2.121-7.73c-0.119-1.348-0.471-2.654-1.036-3.857
		c-0.563-1.205-1.345-2.297-2.277-3.207c-1.723-1.686-3.981-2.727-6.26-2.938c-2.994-17.171-6.052-34.332-9.153-51.482
		c-0.002-0.016-0.004-0.026-0.007-0.041c-1.078-0.096-2.125-0.197-3.139-0.304c3.545,17.593,7.137,35.176,10.796,52.747l0.099,0.473
		l0.578,0.184c1.99,0.635,3.682,1.842,4.819,3.389c1.143,1.535,1.725,3.404,1.701,5.221c-0.018,1.814-0.647,3.578-1.74,4.967
		c-0.544,0.691-1.192,1.301-1.926,1.771c-0.364,0.238-0.747,0.449-1.147,0.625c-0.199,0.088-0.403,0.168-0.609,0.238
		c-0.1,0.035-0.218,0.072-0.304,0.096l-0.148,0.045l-0.205,0.053l-0.292,0.07c-0.107,0.023-0.215,0.045-0.322,0.062
		c-0.215,0.039-0.431,0.068-0.648,0.086c-0.232,0.021-0.464,0.031-0.697,0.031c-0.203,0-0.406-0.008-0.608-0.023
		c-0.872-0.059-1.732-0.279-2.543-0.621c-1.629-0.688-3.03-1.928-3.923-3.508c-0.218-0.389-0.424-0.822-0.572-1.227
		c-0.168-0.461-0.286-0.889-0.379-1.352c-0.178-0.912-0.21-1.865-0.082-2.814c0.247-1.904,1.146-3.777,2.582-5.295l0.001-0.002
		l0.389-0.299l-0.088-0.502c-3.199-18.355-6.471-36.695-9.793-55.027C605.895,307.539,605.414,307.469,604.943,307.398"/>
	<path fill="#0A0AE5" d="M601.756,303.203h-6.813l0,0.35h6.812C601.755,303.438,601.755,303.319,601.756,303.203 M688.82,303.203
		h-75.195c0.021,0.117,0.042,0.232,0.063,0.35h75.121L688.82,303.203"/>
	<path fill="#CECEFA" d="M610.44,303.203h-4.851c0.021,0.116,0.042,0.234,0.063,0.35h4.857
		C610.486,303.436,610.463,303.32,610.44,303.203"/>
	<path fill="#1E1B47" d="M605.589,303.203h-0.652c0,0.116,0,0.234,0.001,0.35h0.715C605.632,303.438,605.61,303.319,605.589,303.203
		 M613.625,303.203h-3.185c0.023,0.117,0.046,0.232,0.07,0.35h3.178C613.667,303.436,613.646,303.32,613.625,303.203"/>
	<path fill="#0202FA" d="M688.766,304.906c-5.668,2.711-24.544,4.703-46.986,4.717c0.078,0,0.153,0,0.231,0
		c21.958,0,40.542-1.895,46.748-4.508L688.766,304.906"/>
	<path fill="#0808E9" d="M601.755,303.553h-6.812l0.002,0.939l-0.001,0.484c1.486,0.68,3.806,1.313,6.805,1.881
		C601.75,305.748,601.752,304.645,601.755,303.553 M688.809,303.553h-75.121c0.3,1.656,0.601,3.314,0.9,4.971
		c7.764,0.689,17.119,1.094,27.192,1.1c22.442-0.014,41.317-2.006,46.986-4.717L688.809,303.553"/>
	<path fill="#A5A5FA" d="M610.51,303.553h-4.857c0.246,1.353,0.491,2.703,0.735,4.055c1.575,0.22,3.267,0.424,5.062,0.612
		C611.136,306.666,610.823,305.107,610.51,303.553"/>
	<path fill="#18166B" d="M605.653,303.553h-0.715c0.003,1.27,0.005,2.552,0.005,3.846c0.47,0.07,0.952,0.141,1.445,0.209
		C606.144,306.256,605.898,304.905,605.653,303.553 M613.688,303.553h-3.178c0.312,1.555,0.626,3.113,0.939,4.667
		c1.014,0.106,2.061,0.208,3.139,0.304C614.289,306.867,613.989,305.209,613.688,303.553"/>
	<circle fill="#0000FF" cx="626.071" cy="279.186" r="4.78"/>
	<circle fill="#0000FF" cx="630.851" cy="288.797" r="2.416"/>
	<path fill="#7070FF" d="M668.802,354.062c-0.968,0-1.752,0.785-1.752,1.752c0,0.969,0.784,1.754,1.752,1.754
		c0.969,0,1.753-0.785,1.753-1.754C670.555,354.848,669.771,354.062,668.802,354.062"/>
	<path fill="#7070FF" d="M665.894,359.705c-0.638,0-1.155,0.518-1.155,1.156c0,0.637,0.517,1.154,1.155,1.154
		c0.639,0,1.156-0.518,1.156-1.154C667.05,360.223,666.533,359.705,665.894,359.705"/>
	<path fill="#231F20" d="M690.215,259.027l0.007-0.135l0.016-0.266c0.013-0.146,0.03-0.289,0.05-0.426
		c0.039-0.275,0.093-0.537,0.155-0.783c0.124-0.492,0.28-0.936,0.449-1.344c0.34-0.818,0.729-1.514,1.126-2.164
		c0.798-1.295,1.654-2.4,2.472-3.471l1.192-1.557c0.378-0.5,0.734-1,1.014-1.439c0.14-0.217,0.253-0.426,0.315-0.557l0.037-0.082
		c-0.002,0.025-0.043,0.109-0.037,0.412c0.007,0.15,0.037,0.361,0.127,0.607c0.089,0.248,0.246,0.518,0.424,0.723
		c0.176,0.207,0.358,0.35,0.493,0.449c0.137,0.1,0.236,0.158,0.305,0.207c0.134,0.092,0.157,0.143,0.147,0.172l-0.055,0.027
		l-0.247-0.004c-2.63-0.105-5.261-0.406-7.89-0.658c-1.316-0.125-2.63-0.221-3.945-0.27c-1.315-0.053-2.63-0.049-3.944-0.061
		c-10.521-0.092-21.041-0.156-31.562-0.145l-31.561,0.064l-15.78,0.018l-7.89-0.018l-3.946-0.01l-1.972-0.004
		c-0.329,0-0.658,0.002-0.986-0.049c-0.329-0.049-0.658-0.127-0.988-0.18c-0.328-0.047-0.657-0.072-0.986-0.025
		c-0.329,0.068-0.657,0.354-0.986,0.402l-0.123,0.02l-0.095,0.018l-0.078,0.02l-0.027,0.02c-0.044,0.025-0.048,0.061,0.063,0.051
		c0.055-0.008,0.143-0.025,0.27-0.088c0.124-0.061,0.292-0.174,0.445-0.346c0.155-0.168,0.278-0.387,0.345-0.574
		c0.069-0.191,0.093-0.344,0.106-0.447c0.019-0.209,0.021-0.256,0.049-0.262l0.131,0.107l0.466,0.504
		c0.372,0.391,0.815,0.822,1.27,1.268c0.916,0.896,1.9,1.848,2.823,2.959c0.462,0.559,0.919,1.152,1.351,1.82
		c0.431,0.668,0.846,1.4,1.204,2.289c0.175,0.445,0.343,0.93,0.467,1.48c0.061,0.275,0.115,0.566,0.153,0.879
		c0.02,0.156,0.035,0.316,0.043,0.482l0.012,0.252l0.002,0.207l0.021,1.973l0.045,3.945l0.086,7.891
		c0.057,5.26,0.072,10.52,0.109,15.779l0.037,15.781l-0.028,15.779l-0.068,15.781l-0.106,31.562l-0.007,7.889l-0.003,3.945
		l-0.001,1.973c-0.001,0.33,0.005,0.658,0.013,0.986c0.003,0.164,0.003,0.328-0.003,0.494l-0.013,0.246l-0.007,0.123l-0.009,0.072
		c-0.093,0.742-0.072,1.488,0.122,2.266c0.195,0.77,0.577,1.555,1.167,2.195c0.588,0.639,1.38,1.119,2.248,1.32
		c0.218,0.051,0.438,0.088,0.661,0.105c0.112,0.008,0.225,0.018,0.336,0.016h0.168l0.208-0.004l1.974-0.057
		c10.519-0.299,21.04-0.654,31.561-1.119c2.63-0.107,5.26-0.223,7.89-0.35l7.89-0.371l15.781-0.777l15.78-0.762l3.946-0.184
		c0.113-0.002-0.018-0.002,0.041-0.006l0.123-0.006l0.049-0.008l-0.011-0.006l0.117-0.031l0.243-0.082
		c0.155-0.064,0.296-0.145,0.428-0.238c0.262-0.188,0.48-0.438,0.625-0.709c0.146-0.271,0.212-0.555,0.215-0.822l3.941-124.639
		V259.027 M696.373,259.076l1.988,63.123l1.006,31.561l0.503,15.781l0.251,7.889l0.126,3.945l0.062,2.014
		c0.021,1.174-0.161,2.357-0.457,3.502c-0.596,2.295-1.716,4.434-3.23,6.203c-1.509,1.773-3.409,3.191-5.527,4.127
		c-1.057,0.467-2.167,0.814-3.297,1.031c-0.565,0.109-1.135,0.186-1.705,0.23c-0.29,0.021-0.557,0.035-0.866,0.041l-0.257,0.004
		c-0.095,0.002-0.174,0.002-0.198,0l-0.123-0.004l-0.205-0.006l-3.946-0.184l-15.78-0.762l-15.781-0.777l-7.89-0.369
		c-2.63-0.127-5.26-0.242-7.89-0.35c-10.521-0.467-21.042-0.822-31.561-1.119l-1.974-0.057l-0.285-0.008
		c-0.109-0.002-0.216-0.008-0.325-0.014c-0.216-0.014-0.432-0.029-0.647-0.053c-0.432-0.043-0.862-0.109-1.288-0.195
		c-1.704-0.344-3.355-1.006-4.843-1.982c-1.485-0.975-2.814-2.273-3.789-3.861c-0.98-1.576-1.583-3.453-1.702-5.342
		c-0.003-0.064-0.009-0.031-0.011-0.174l-0.007-0.123l-0.013-0.246c-0.005-0.166-0.005-0.33-0.001-0.494
		c0.006-0.328,0.013-0.656,0.011-0.986l-0.001-1.973l-0.003-3.945l-0.006-7.889l-0.106-31.562l-0.068-15.781l-0.029-15.779
		l0.037-15.781c0.038-5.26,0.052-10.52,0.109-15.779l0.087-7.891l0.042-3.945l0.022-1.973v-0.041l0.003,0.006l0.001-0.002
		l-0.011-0.1c-0.019-0.09-0.048-0.236-0.106-0.404c-0.11-0.342-0.298-0.785-0.52-1.256c-0.226-0.473-0.484-0.982-0.763-1.51
		c-0.56-1.062-1.173-2.201-1.806-3.432c-0.318-0.619-0.639-1.258-0.965-1.982c-0.164-0.367-0.328-0.75-0.49-1.219
		c-0.081-0.236-0.161-0.496-0.233-0.809c-0.068-0.32-0.139-0.691-0.12-1.23c0.013-0.268,0.054-0.586,0.171-0.934
		c0.114-0.346,0.313-0.713,0.571-1.01c0.255-0.301,0.551-0.52,0.816-0.666c0.267-0.148,0.506-0.232,0.718-0.291
		c0.424-0.111,0.749-0.125,1.031-0.125l0.22,0.004c0.092,0.002,0.13,0.01,0.168,0.014l0.153,0.018l0.123,0.02
		c0.329,0.047,0.657,0.332,0.986,0.4c0.329,0.049,0.658,0.021,0.986-0.023c0.33-0.053,0.659-0.131,0.988-0.18
		c0.328-0.051,0.657-0.049,0.986-0.049l1.972-0.004l3.946-0.01l7.89-0.018l15.78,0.016l31.561,0.066
		c10.521,0.012,21.042-0.053,31.562-0.145c1.314-0.014,2.629-0.008,3.944-0.061c1.315-0.049,2.629-0.145,3.945-0.27
		c2.629-0.252,5.26-0.553,7.89-0.658l0.247-0.004c0.129,0.004,0.281,0.016,0.437,0.041c0.316,0.051,0.668,0.145,1.119,0.328
		c0.226,0.098,0.479,0.215,0.76,0.391c0.278,0.178,0.596,0.418,0.886,0.748c0.29,0.324,0.534,0.736,0.681,1.137
		c0.15,0.402,0.206,0.775,0.219,1.09c0.023,0.633-0.083,1.045-0.176,1.385c-0.099,0.34-0.207,0.6-0.314,0.838
		c-0.213,0.467-0.428,0.83-0.633,1.174c-0.414,0.678-0.822,1.25-1.215,1.812l-1.146,1.621c-0.738,1.051-1.415,2.088-1.94,3.068
		c-0.26,0.488-0.475,0.965-0.61,1.373c-0.067,0.205-0.113,0.391-0.137,0.539l-0.019,0.188l0.001,0.064l0.003-0.021l0.002,0.113
		L696.373,259.076"/>
	<path fill="#4949EC" d="M601.767,300.228c-0.004,0.983-0.008,1.976-0.011,2.976h0.608
		C602.165,302.212,601.965,301.219,601.767,300.228"/>
	<path fill="#FFFFFF" d="M602.523,263.482c-0.244,4.773-0.445,11.597-0.582,19.736c0.998,5.438,1.992,10.878,2.981,16.318
		c-0.049-9.809-0.183-18.695-0.376-25.84C603.872,270.294,603.196,266.886,602.523,263.482"/>
	<path fill="#5C595A" d="M601.941,283.219c-0.087,5.197-0.147,10.932-0.175,17.009c0.199,0.991,0.398,1.984,0.597,2.976h2.573
		c-0.003-1.236-0.008-2.457-0.014-3.666C603.933,294.097,602.939,288.657,601.941,283.219 M603.347,256.055
		c-0.302,0-0.583,2.713-0.824,7.428c0.673,3.403,1.349,6.812,2.024,10.215C604.254,262.881,603.825,256.055,603.347,256.055"/>
	<path fill="#4242FF" d="M601.75,306.943c0,0.312,0,0.625,0,0.938c0,28.621,0.716,51.824,1.598,51.824
		c0.797,0,1.458-18.986,1.577-43.794c-0.588-2.907-1.174-5.813-1.759-8.722C602.679,307.109,602.207,307.027,601.75,306.943"/>
	<path fill="#4848EF" d="M601.75,306.857c0,0.029,0,0.057,0,0.086c0.457,0.084,0.93,0.166,1.416,0.246
		c-0.005-0.026-0.011-0.055-0.016-0.08C602.668,307.027,602.201,306.943,601.75,306.857"/>
	<path fill="#57557B" d="M603.149,307.109c0.005,0.025,0.011,0.054,0.016,0.08c0.585,2.908,1.171,5.814,1.759,8.722
		c0.013-2.618,0.019-5.298,0.019-8.03c0-0.161,0-0.322,0-0.482C604.324,307.304,603.727,307.207,603.149,307.109"/>
	<path fill="#4949EC" d="M602.364,303.203h-0.608c0,0.116-0.001,0.234-0.001,0.35h0.679
		C602.411,303.436,602.388,303.32,602.364,303.203"/>
	<path fill="#585677" d="M604.937,303.203h-2.573c0.024,0.117,0.047,0.232,0.07,0.35h2.504
		C604.938,303.438,604.938,303.319,604.937,303.203"/>
	<path fill="#4848EF" d="M602.434,303.553h-0.679c-0.003,1.092-0.004,2.195-0.005,3.305c0.451,0.086,0.918,0.17,1.399,0.252
		C602.911,305.924,602.672,304.738,602.434,303.553"/>
	<path fill="#545291" d="M604.938,303.553h-2.504c0.238,1.186,0.477,2.371,0.715,3.557c0.578,0.098,1.175,0.194,1.794,0.289
		C604.943,306.104,604.941,304.822,604.938,303.553"/>
	<circle fill="#FFFFFF" cx="624.926" cy="277.369" r="1.817"/>
	<circle fill="#FFFFFF" cx="630.062" cy="288.01" r="1.029"/>
	<circle fill="#FFFFFF" cx="626.931" cy="280.045" r="0.859"/>
</g>
</svg>
