<?xml version="1.0" encoding="utf-8"?>
<!-- Generator: Adobe Illustrator 15.0.0, SVG Export Plug-In . SVG Version: 6.00 Build 0)  -->
<!DOCTYPE svg PUBLIC "-//W3C//DTD SVG 1.1//EN" "http://www.w3.org/Graphics/SVG/1.1/DTD/svg11.dtd">
<svg version="1.1" id="Layer_1" xmlns="http://www.w3.org/2000/svg" xmlns:xlink="http://www.w3.org/1999/xlink" x="0px" y="0px"
	 width="1280px" height="800px" viewBox="0 0 1280 800" enable-background="new 0 0 1280 800" xml:space="preserve">
<g>
	<polyline fill="#FFFFFF" points="1281,799 1,799 1,-1 1281,-1 1281,799 	"/>
	<g>
		<path fill="#00FFFF" d="M454.746,596.169h-40.356v-24.39h7.764l19.116-53.101h-8.203v-24.39h73.242v24.39h-8.203l19.482,53.101
			h7.471v24.39h-53.174V573.83h8.936l-3.882-12.817h-26.074l-4.468,12.817h8.35V596.169z M464.34,520.144l-9.595,28.198h18.237
			L464.34,520.144z"/>
		<path fill="#00FFFF" d="M590.247,597.707c3.809,0.732,7.642,1.659,11.499,2.783c8.594,2.49,15.722,3.735,21.387,3.735
			c1.904,0,4.149-0.196,6.738-0.586l-8.496,23.73c-1.856,0.097-2.905,0.146-3.149,0.146c-5.176,0-12.085-2.003-20.728-6.006
			c-5.859-2.686-10.4-4.541-13.623-5.566c-3.076-0.928-6.494-1.392-10.254-1.392c-5.519,0-10.107,1.245-13.77,3.735l-10.767-14.062
			c5.664-5.079,13.378-7.764,23.145-8.057c-11.035-2.441-20.63-8.154-28.784-17.139c-8.203-8.936-12.305-19.946-12.305-33.032
			c0-15.088,5.225-27.832,15.674-38.232c10.448-10.351,24.364-15.527,41.748-15.527c17.676,0,31.665,5.226,41.968,15.674
			c10.352,10.499,15.527,22.852,15.527,37.061c0,14.601-5.273,27.026-15.82,37.28C619.738,592.556,606.408,597.707,590.247,597.707z
			 M575.378,544.973c0,11.329,1.099,18.97,3.296,22.925c2.099,4.004,5.395,6.006,9.888,6.006c4.442,0,7.764-1.928,9.961-5.786
			c2.197-3.906,3.296-11.62,3.296-23.145c0-11.181-1.074-18.798-3.223-22.852c-2.1-4.003-5.445-6.006-10.034-6.006
			c-4.395,0-7.69,1.93-9.888,5.786C576.477,525.759,575.378,533.45,575.378,544.973z"/>
		<path fill="#00FFFF" d="M662.086,518.679h-7.837v-24.39h52.148v24.39h-4.834v34.351c0,8.203,0.78,13.795,2.344,16.772
			c1.562,2.93,4.369,4.395,8.423,4.395c3.369,0,5.811-1.245,7.324-3.735c1.513-2.441,2.271-7.445,2.271-15.015v-36.768h-5.127
			v-24.39h38.306v24.39h-8.057v36.914c0,9.424-1.367,17.139-4.102,23.145c-2.735,5.958-7.276,10.62-13.623,13.989
			c-6.348,3.369-14.161,5.054-23.438,5.054c-7.471,0-14.088-0.904-19.849-2.71c-5.859-1.758-10.499-4.442-13.916-8.057
			c-3.418-3.563-5.933-7.885-7.544-12.964c-1.66-4.931-2.49-12.499-2.49-22.705V518.679z"/>
		<path fill="#00FFFF" d="M797.646,596.169H757.29v-24.39h7.764l19.116-53.101h-8.203v-24.39h73.242v24.39h-8.203l19.482,53.101
			h7.471v24.39h-53.174V573.83h8.936l-3.882-12.817h-26.074l-4.468,12.817h8.35V596.169z M807.241,520.144l-9.595,28.198h18.237
			L807.241,520.144z"/>
	</g>
	<path fill="#FFFFFF" d="M704.452,220.709c0-6.081,12.565-16.009,6.484-16.009H569.256c-6.081,0,6.483,9.928,6.483,16.009v155.888
		c0,6.08,4.93,11.01,11.011,11.01h106.691c6.081,0,11.011-4.93,11.011-11.01V220.709"/>
	<path fill="#00FFFF" d="M700.953,275.524H578.08l-2.341,99.023c0,5.631,7.58,13.059,13.385,13.059l101.317-3.83
		c5.806,0,14.011-1.55,14.011-7.18L700.953,275.524"/>
	<path fill="#0BE0DA" d="M700.953,276.085c0,4.45-27.507,8.058-61.437,8.058c-33.931,0-61.437-3.607-61.437-8.058
		s27.506-8.058,61.437-8.058C673.446,268.027,700.953,271.635,700.953,276.085"/>
	<path fill="#FFFFFF" d="M634.545,358.725l77.671-187.073c1.054-2.537-0.148-5.449-2.687-6.502
		c-2.538-1.054-5.449,0.148-6.503,2.687l-77.671,187.072c-4.793,0.089-9.311,2.957-11.266,7.668
		c-2.635,6.345,0.374,13.625,6.718,16.259c6.346,2.635,13.625-0.374,16.259-6.719C639.022,367.405,637.865,362.182,634.545,358.725"
		/>
	<path fill="#231F20" d="M633.391,358.245c12.604-32.731,25.613-65.294,38.745-97.806l9.89-24.366l9.948-24.343l10.004-24.319
		l5.027-12.149l1.257-3.037l0.629-1.519l0.141-0.339l0.038-0.096l0.004-0.014l0.017-0.049l0.057-0.246
		c0.048-0.327-0.02-0.682-0.19-0.98c-0.173-0.299-0.424-0.521-0.747-0.654c-0.322-0.134-0.657-0.156-0.991-0.066
		c-0.332,0.089-0.63,0.291-0.828,0.557l-0.135,0.213l-0.056,0.118l-0.155,0.374l-0.632,1.518l-1.264,3.034l-5.057,12.138
		l-10.163,24.253l-10.219,24.23l-10.277,24.206c-13.757,32.252-27.638,64.452-41.923,96.485l-0.345,0.772l-0.787-0.001h-0.015
		c-1.267,0.267-2.451,0.698-3.52,1.284c-1.065,0.588-2.015,1.323-2.805,2.171c-0.796,0.843-1.429,1.799-1.896,2.81
		c-0.117,0.253-0.218,0.514-0.316,0.771c-0.099,0.263-0.18,0.516-0.265,0.81l-0.096,0.379c-0.03,0.133-0.061,0.267-0.085,0.4
		c-0.05,0.269-0.093,0.536-0.123,0.805c-0.245,2.144,0.23,4.306,1.29,6.101c0.528,0.897,1.193,1.704,1.97,2.375
		c0.386,0.338,0.799,0.643,1.236,0.91c0.218,0.136,0.44,0.263,0.67,0.379c0.114,0.059,0.229,0.115,0.348,0.169l0.316,0.139
		l0.246,0.1l0.165,0.062c0.095,0.035,0.235,0.085,0.352,0.122c0.244,0.08,0.492,0.148,0.742,0.206
		c0.498,0.12,1.006,0.197,1.518,0.231c1.023,0.073,2.064-0.025,3.071-0.286c2.02-0.52,3.886-1.711,5.229-3.399
		c0.675-0.841,1.223-1.818,1.612-2.864c0.385-1.045,0.613-2.169,0.647-3.327c0.041-1.158-0.111-2.349-0.447-3.519
		c-0.341-1.17-0.873-2.312-1.579-3.397l-0.483-0.744L633.391,358.245 M636.061,358.38c2.181,1.919,3.718,4.694,4.221,7.735
		c0.275,1.662,0.251,3.398-0.089,5.088c-0.084,0.423-0.184,0.844-0.309,1.257c-0.03,0.102-0.062,0.205-0.101,0.32l-0.096,0.291
		c-0.074,0.213-0.146,0.41-0.227,0.613c-0.315,0.808-0.703,1.595-1.164,2.341c-0.918,1.497-2.119,2.834-3.518,3.928
		c-1.401,1.091-2.999,1.941-4.704,2.486c-1.703,0.549-3.513,0.796-5.315,0.722c-0.901-0.036-1.799-0.158-2.681-0.351
		c-0.44-0.097-0.876-0.216-1.306-0.352c-0.22-0.069-0.415-0.136-0.651-0.223l-0.331-0.124l-0.247-0.098l-0.348-0.149
		c-0.103-0.044-0.204-0.093-0.307-0.14c-0.204-0.095-0.405-0.194-0.605-0.299c-0.399-0.207-0.791-0.432-1.171-0.674
		c-0.76-0.487-1.48-1.037-2.143-1.649c-1.327-1.222-2.432-2.677-3.247-4.27c-0.819-1.591-1.347-3.322-1.565-5.085
		c-0.217-1.762-0.119-3.557,0.29-5.264c0.103-0.427,0.221-0.849,0.361-1.262c0.07-0.207,0.146-0.411,0.223-0.614
		c0.081-0.203,0.158-0.398,0.257-0.622c0.162-0.369,0.354-0.769,0.56-1.146c0.204-0.38,0.432-0.747,0.671-1.105
		c0.954-1.435,2.166-2.68,3.536-3.659c2.739-1.961,6.127-2.838,9.258-2.416l0.019-0.001l-1.131,0.771
		c12.604-32.731,25.612-65.294,38.744-97.806l9.891-24.367l9.948-24.343l10.003-24.319l5.027-12.149l1.258-3.037l0.629-1.518
		l0.159-0.386c0.088-0.212,0.187-0.421,0.292-0.626c0.211-0.411,0.458-0.806,0.736-1.178c1.112-1.494,2.727-2.586,4.51-3.072
		c1.779-0.499,3.75-0.372,5.45,0.341c1.705,0.701,3.187,2.008,4.09,3.62c0.914,1.606,1.28,3.521,1.007,5.363
		c-0.067,0.459-0.172,0.913-0.313,1.353c-0.038,0.116-0.068,0.206-0.118,0.34l-0.105,0.274l-0.175,0.419l-0.631,1.519l-1.265,3.034
		l-5.056,12.137l-10.164,24.253l-10.219,24.23l-10.276,24.206C663.982,294.694,650.217,326.618,636.061,358.38"/>
	<path fill="#00FFFF" d="M670.068,349.89c-0.8,0-1.449-0.648-1.449-1.449s0.649-1.449,1.449-1.449c0.801,0,1.449,0.648,1.449,1.449
		S670.869,349.89,670.068,349.89 M673.717,344.309c-1.215,0-2.199-0.985-2.199-2.199c0-1.215,0.984-2.199,2.199-2.199
		s2.199,0.984,2.199,2.199C675.916,343.323,674.932,344.309,673.717,344.309 M604.171,314.351c-1.674,0-3.032-1.357-3.032-3.032
		s1.358-3.032,3.032-3.032c1.676,0,3.032,1.357,3.032,3.032S605.847,314.351,604.171,314.351 M597.574,302.288
		c-3.313,0-5.999-2.686-5.999-5.998c0-3.313,2.686-5.999,5.999-5.999c3.312,0,5.998,2.686,5.998,5.999
		C603.572,299.603,600.887,302.288,597.574,302.288 M578.933,277.431l-0.003,0.271c-0.181,12.18-0.396,24.361-0.6,36.541v60.337
		c0,5.631,7.441,10.175,13.245,10.175l1.262-0.004l36.148-1.193l39.606-1.256l17.151-0.539c1.793-3.915,4.596-7.436,7.305-10.691
		c1.216-1.461,2.484-2.902,3.748-4.354c0.443-0.667,0.889-1.332,1.34-1.994l1.758-64.8c0.205-7.446,0.397-14.893,0.577-22.339
		c-3.503,2.441-15.4,4.494-31.611,5.623c-10.778,25.122-21.668,50.199-32.799,75.173c2.181,1.919,3.718,4.694,4.221,7.735
		c0.275,1.662,0.251,3.398-0.089,5.088c-0.084,0.423-0.184,0.844-0.309,1.257c-0.03,0.102-0.062,0.205-0.101,0.32l-0.096,0.291
		c-0.074,0.213-0.146,0.41-0.227,0.613c-0.315,0.808-0.703,1.595-1.164,2.341c-0.918,1.497-2.119,2.834-3.518,3.928
		c-1.401,1.091-2.999,1.941-4.704,2.486c-1.506,0.485-3.096,0.734-4.69,0.734c-0.208,0-0.417-0.004-0.625-0.013
		c-0.901-0.036-1.799-0.158-2.681-0.351c-0.44-0.097-0.876-0.216-1.306-0.352c-0.22-0.069-0.415-0.136-0.651-0.223l-0.331-0.124
		l-0.247-0.098l-0.348-0.149c-0.103-0.044-0.204-0.093-0.307-0.14c-0.204-0.095-0.405-0.194-0.605-0.299
		c-0.399-0.207-0.791-0.432-1.171-0.674c-0.76-0.487-1.48-1.037-2.143-1.649c-1.327-1.222-2.432-2.677-3.247-4.27
		c-0.819-1.591-1.347-3.322-1.565-5.085c-0.217-1.762-0.119-3.557,0.29-5.264c0.103-0.427,0.221-0.849,0.361-1.262
		c0.07-0.207,0.146-0.411,0.223-0.614c0.081-0.203,0.158-0.398,0.257-0.622c0.162-0.369,0.354-0.769,0.56-1.146
		c0.204-0.38,0.432-0.747,0.671-1.105c0.954-1.435,2.166-2.68,3.536-3.659c2.288-1.638,5.029-2.52,7.695-2.52
		c0.26,0,0.519,0.008,0.777,0.025c8.965-23.268,18.133-46.448,27.404-69.588c-3.83,0.098-7.787,0.149-11.836,0.149
		c-0.097,0-0.192,0-0.29,0s-0.192,0-0.29,0c-21.894,0-41.113-1.502-51.994-3.763c0.002,1.601,0.003,3.216,0.003,4.844
		c0,39.76-0.672,71.99-1.5,71.99c-0.827,0-1.499-32.23-1.499-71.99c0-1.864,0.001-3.712,0.004-5.54
		C581.867,278.984,579.954,278.227,578.933,277.431"/>
	<path fill="#09E6E1" d="M587.523,280.256c0,0.041,0,0.083,0,0.123c10.88,2.261,30.1,3.763,51.994,3.763c0.097,0,0.192,0,0.29,0
		C617.64,284.129,598.245,282.576,587.523,280.256 M578.94,276.861l-0.007,0.57c1.021,0.796,2.934,1.554,5.599,2.253
		c0-0.053,0-0.104,0-0.156C581.566,278.706,579.63,277.807,578.94,276.861"/>
	<path fill="#CCFFFF" d="M662.82,283.573c-1.646,0.086-3.331,0.163-5.044,0.23c-10.275,23.922-20.66,47.8-31.267,71.584
		l-0.345,0.772l-0.787-0.001h-0.015c-1.267,0.267-2.451,0.698-3.52,1.284c-1.065,0.588-2.015,1.323-2.805,2.171
		c-0.796,0.843-1.429,1.799-1.896,2.81c-0.117,0.253-0.218,0.514-0.316,0.771c-0.099,0.263-0.18,0.516-0.265,0.81l-0.096,0.379
		c-0.03,0.133-0.061,0.267-0.085,0.4c-0.05,0.269-0.093,0.536-0.123,0.805c-0.245,2.144,0.23,4.306,1.29,6.101
		c0.528,0.897,1.193,1.704,1.97,2.375c0.386,0.338,0.799,0.643,1.236,0.91c0.218,0.136,0.44,0.263,0.67,0.379
		c0.114,0.059,0.229,0.115,0.348,0.169l0.316,0.139l0.246,0.1l0.165,0.062c0.095,0.035,0.235,0.085,0.352,0.122
		c0.244,0.08,0.492,0.148,0.742,0.206c0.498,0.12,1.006,0.197,1.518,0.231c0.219,0.016,0.439,0.023,0.66,0.023
		c0.808,0,1.62-0.104,2.411-0.31c2.02-0.52,3.886-1.711,5.229-3.399c0.675-0.841,1.223-1.818,1.612-2.864
		c0.385-1.045,0.613-2.169,0.647-3.327c0.041-1.158-0.111-2.349-0.447-3.519c-0.341-1.17-0.873-2.312-1.579-3.397l-0.483-0.744
		l0.23-0.601C643.007,333.273,652.858,308.401,662.82,283.573"/>
	<path fill="#1C4C4D" d="M625.332,353.659L625.332,353.659 M668.86,283.207c-1.953,0.136-3.969,0.259-6.04,0.367
		c-9.962,24.828-19.813,49.7-29.43,74.672l-0.23,0.601l0.483,0.744c0.706,1.085,1.238,2.228,1.579,3.397
		c0.336,1.17,0.488,2.36,0.447,3.519c-0.034,1.158-0.263,2.282-0.647,3.327c-0.39,1.046-0.938,2.023-1.612,2.864
		c-1.343,1.688-3.209,2.88-5.229,3.399c-0.791,0.205-1.603,0.31-2.411,0.31c-0.221,0-0.441-0.008-0.66-0.023
		c-0.512-0.034-1.02-0.111-1.518-0.231c-0.25-0.058-0.498-0.126-0.742-0.206c-0.116-0.037-0.257-0.087-0.352-0.122l-0.165-0.062
		l-0.246-0.1l-0.316-0.139c-0.118-0.054-0.233-0.11-0.348-0.169c-0.229-0.116-0.452-0.243-0.67-0.379
		c-0.438-0.268-0.851-0.572-1.236-0.91c-0.776-0.671-1.441-1.478-1.97-2.375c-1.06-1.795-1.535-3.957-1.29-6.101
		c0.03-0.269,0.073-0.536,0.123-0.805c0.024-0.134,0.055-0.268,0.085-0.4l0.096-0.379c0.085-0.294,0.166-0.547,0.265-0.81
		c0.099-0.258,0.199-0.519,0.316-0.771c0.468-1.011,1.101-1.967,1.896-2.81c0.79-0.848,1.739-1.583,2.805-2.171
		c1.068-0.586,2.253-1.018,3.52-1.284h0.015l0.787,0.001l0.345-0.772c10.606-23.784,20.991-47.662,31.267-71.584
		c-1.911,0.075-3.86,0.139-5.845,0.189c-9.271,23.141-18.439,46.32-27.404,69.588c-0.258-0.017-0.518-0.025-0.777-0.025
		c-2.666,0-5.407,0.881-7.695,2.52c-1.37,0.979-2.582,2.225-3.536,3.659c-0.239,0.358-0.467,0.726-0.671,1.105
		c-0.205,0.378-0.397,0.777-0.56,1.146c-0.099,0.224-0.176,0.419-0.257,0.622c-0.077,0.203-0.152,0.407-0.223,0.614
		c-0.141,0.413-0.259,0.835-0.361,1.262c-0.409,1.707-0.507,3.502-0.29,5.264c0.219,1.763,0.746,3.494,1.565,5.085
		c0.815,1.593,1.92,3.048,3.247,4.27c0.662,0.612,1.383,1.162,2.143,1.649c0.38,0.242,0.771,0.467,1.171,0.674
		c0.2,0.104,0.401,0.204,0.605,0.299c0.103,0.047,0.204,0.096,0.307,0.14l0.348,0.149l0.247,0.098l0.331,0.124
		c0.236,0.087,0.432,0.153,0.651,0.223c0.43,0.136,0.865,0.255,1.306,0.352c0.882,0.192,1.779,0.314,2.681,0.351
		c0.208,0.009,0.417,0.013,0.625,0.013c1.594,0,3.184-0.249,4.69-0.734c1.705-0.545,3.303-1.396,4.704-2.486
		c1.398-1.094,2.6-2.431,3.518-3.928c0.461-0.746,0.849-1.533,1.164-2.341c0.081-0.203,0.152-0.4,0.227-0.613l0.096-0.291
		c0.039-0.115,0.07-0.219,0.101-0.32c0.125-0.413,0.225-0.834,0.309-1.257c0.34-1.689,0.364-3.426,0.089-5.088
		c-0.503-3.041-2.04-5.816-4.221-7.735C647.192,333.405,658.082,308.329,668.86,283.207"/>
	<path fill="#0BE0DA" d="M584.54,276.085h-5.589l-0.005,0.439h5.593C584.539,276.376,584.539,276.233,584.54,276.085
		 M655.104,276.085h-67.59c0,0.148,0.001,0.292,0.001,0.439h67.413C654.987,276.377,655.045,276.232,655.104,276.085
		 M700.507,276.085h-28.595c-0.062,0.146-0.125,0.293-0.188,0.439h28.773C700.5,276.378,700.503,276.232,700.507,276.085"/>
	<path fill="#CEF9F8" d="M665.829,276.085h-4.741c-0.062,0.146-0.125,0.294-0.188,0.439h4.752
		C665.711,276.377,665.77,276.232,665.829,276.085"/>
	<path fill="#1E4645" d="M661.087,276.085h-5.983c-0.059,0.147-0.117,0.292-0.176,0.439h5.971
		C660.962,276.379,661.025,276.23,661.087,276.085 M671.912,276.085h-6.083c-0.059,0.147-0.118,0.292-0.177,0.439h6.071
		C671.786,276.378,671.849,276.231,671.912,276.085"/>
	<path fill="#02F9F8" d="M651.938,283.978c-3.92,0.106-7.978,0.162-12.132,0.165c0.097,0,0.192,0,0.29,0
		c4.049,0,8.006-0.051,11.836-0.149C651.934,283.987,651.936,283.984,651.938,283.978 M700.483,277.087
		c-2.485,2.628-14.617,4.863-31.605,6.078c-0.006,0.014-0.012,0.028-0.018,0.042c16.211-1.128,28.108-3.181,31.611-5.623
		C700.475,277.418,700.479,277.253,700.483,277.087"/>
	<path fill="#09E5E0" d="M584.538,276.524h-5.593l-0.004,0.336c0.689,0.946,2.626,1.845,5.591,2.667
		C584.534,278.521,584.536,277.519,584.538,276.524 M654.928,276.524h-67.413c0.003,1.234,0.006,2.479,0.008,3.732
		c10.722,2.319,30.117,3.873,52.283,3.886c4.154-0.003,8.211-0.059,12.132-0.165C652.933,281.495,653.931,279.007,654.928,276.524
		 M700.497,276.524h-28.773c-0.948,2.214-1.896,4.427-2.845,6.64c16.988-1.214,29.12-3.45,31.605-6.078
		C700.487,276.9,700.492,276.711,700.497,276.524"/>
	<path fill="#A5F9F8" d="M665.652,276.524h-4.752c-1.04,2.427-2.081,4.853-3.123,7.279c1.713-0.067,3.397-0.145,5.044-0.23
		C663.763,281.224,664.708,278.874,665.652,276.524"/>
	<path fill="#196A69" d="M660.899,276.524h-5.971c-0.997,2.482-1.995,4.97-2.99,7.453c-0.002,0.006-0.004,0.01-0.006,0.016
		c1.985-0.051,3.934-0.114,5.845-0.189C658.819,281.377,659.859,278.952,660.899,276.524 M671.723,276.524h-6.071
		c-0.944,2.349-1.889,4.699-2.832,7.049c2.071-0.108,4.086-0.23,6.04-0.367c0.006-0.014,0.012-0.028,0.018-0.042
		C669.827,280.951,670.775,278.738,671.723,276.524"/>
	<path fill="#70FFFF" d="M597.574,290.291c-3.313,0-5.999,2.686-5.999,5.999c0,3.312,2.686,5.998,5.999,5.998
		c3.312,0,5.998-2.686,5.998-5.998C603.572,292.977,600.887,290.291,597.574,290.291"/>
	<path fill="#70FFFF" d="M604.171,308.286c-1.674,0-3.032,1.357-3.032,3.032s1.358,3.032,3.032,3.032
		c1.676,0,3.032-1.357,3.032-3.032S605.847,308.286,604.171,308.286"/>
	<path fill="#70FFFF" d="M673.717,339.91c-1.215,0-2.199,0.984-2.199,2.199c0,1.214,0.984,2.199,2.199,2.199
		s2.199-0.985,2.199-2.199C675.916,340.895,674.932,339.91,673.717,339.91"/>
	<path fill="#70FFFF" d="M670.068,346.991c-0.8,0-1.449,0.648-1.449,1.449s0.649,1.449,1.449,1.449c0.801,0,1.449-0.648,1.449-1.449
		S670.869,346.991,670.068,346.991"/>
	<path fill="#231F20" d="M701.562,220.664l0.004-0.166l0.016-0.289c0.013-0.163,0.028-0.323,0.05-0.479
		c0.04-0.311,0.095-0.607,0.161-0.892c0.129-0.568,0.294-1.089,0.476-1.578c0.363-0.978,0.776-1.849,1.203-2.677
		c0.854-1.651,1.75-3.157,2.604-4.625c0.429-0.729,0.853-1.442,1.247-2.133c0.392-0.688,0.77-1.36,1.041-1.939
		c0.132-0.284,0.24-0.548,0.27-0.695l-0.027-0.046c-0.018,0.033-0.041,0.091-0.064,0.197c-0.024,0.11-0.052,0.27-0.049,0.513
		c0.004,0.241,0.04,0.573,0.179,0.963c0.134,0.387,0.383,0.805,0.669,1.115c0.285,0.315,0.579,0.523,0.806,0.649
		c0.229,0.128,0.397,0.189,0.521,0.229c0.242,0.072,0.303,0.066,0.309,0.069l-0.048-0.003l-0.31-0.003l-9.902-0.129l-9.901-0.163
		l-39.606-0.656l-39.607-0.684l-19.803-0.353l-9.901-0.177l-4.951-0.087l-2.476-0.045c-0.412-0.006-0.825-0.011-1.237-0.06
		l-1.238-0.165c-0.412-0.041-0.825-0.064-1.237-0.02c-0.413,0.064-0.825,0.332-1.238,0.377l-0.154,0.019l-0.128,0.017l-0.112,0.02
		l-0.063,0.021c-0.093,0.027-0.148,0.068-0.093,0.075c0.027,0.002,0.086-0.006,0.183-0.05c0.095-0.044,0.232-0.133,0.36-0.273
		c0.129-0.138,0.233-0.32,0.289-0.472c0.058-0.154,0.077-0.271,0.089-0.344c0.02-0.145,0.033-0.137,0.075-0.094
		c0.042,0.048,0.104,0.139,0.183,0.243c0.155,0.211,0.365,0.476,0.593,0.743c0.461,0.54,1.003,1.112,1.555,1.696
		c1.11,1.171,2.291,2.393,3.393,3.781c0.551,0.696,1.089,1.432,1.597,2.239c0.505,0.812,0.985,1.688,1.388,2.721
		c0.2,0.517,0.38,1.073,0.516,1.692c0.067,0.31,0.125,0.636,0.164,0.979c0.02,0.172,0.035,0.349,0.044,0.529
		c0.004,0.092,0.01,0.182,0.01,0.276l0.003,0.232l-0.006,2.476l-0.013,4.95l-0.043,9.902c-0.036,6.601-0.089,13.202-0.16,19.803
		l-0.254,19.804c-0.392,26.404-0.946,52.809-1.192,79.213l-0.155,19.78c0.003,1.387,0.365,2.75,1.038,3.935
		c0.669,1.187,1.642,2.18,2.751,2.893c1.11,0.72,2.354,1.159,3.606,1.343c0.313,0.048,0.628,0.075,0.943,0.089
		c0.158,0.007,0.315,0.011,0.474,0.009l0.236-0.005l0.272-0.01l2.476-0.083l39.606-1.308l39.606-1.256l19.804-0.622l4.951-0.155
		c0.12-0.002,0.009-0.002,0.078-0.005l0.154-0.007l0.085-0.008l0.027-0.007l0.265-0.039c0.181-0.032,0.358-0.074,0.532-0.125
		c0.347-0.101,0.677-0.243,0.987-0.418c0.62-0.35,1.16-0.844,1.558-1.419c0.4-0.574,0.651-1.221,0.753-1.875l2.108-77.699
		c0.727-26.405,1.297-52.81,1.667-79.214V220.664 M707.344,220.709c0.369,26.404,0.939,52.809,1.665,79.214l1.088,39.606
		l0.518,19.804l0.243,9.901l0.122,4.951l0.06,2.513c0.019,1.311-0.176,2.63-0.5,3.907c-0.65,2.561-1.888,4.954-3.569,6.94
		c-1.678,1.992-3.797,3.59-6.162,4.649c-1.182,0.53-2.423,0.927-3.688,1.175c-0.633,0.125-1.271,0.214-1.91,0.268
		c-0.325,0.025-0.627,0.043-0.97,0.052l-0.282,0.006c-0.102,0.002-0.188,0.002-0.224,0.001l-0.387-0.007l-4.951-0.155l-19.804-0.622
		l-39.606-1.256l-39.606-1.308l-2.476-0.083l-0.347-0.014c-0.127-0.004-0.254-0.013-0.382-0.021
		c-0.254-0.019-0.508-0.045-0.761-0.076c-0.507-0.065-1.008-0.166-1.501-0.29c-1.979-0.501-3.801-1.494-5.294-2.804
		c-3.001-2.625-4.671-6.483-4.719-10.318l-0.158-19.827c-0.247-26.404-0.801-52.809-1.192-79.213l-0.254-19.804
		c-0.071-6.601-0.124-13.202-0.16-19.803l-0.044-9.902l-0.012-4.95l-0.006-2.476l-0.001-0.076l-0.002-0.034l-0.008-0.087
		c-0.008-0.065-0.021-0.147-0.043-0.24c-0.042-0.187-0.112-0.419-0.204-0.674c-0.185-0.512-0.46-1.108-0.775-1.727
		c-0.315-0.623-0.675-1.273-1.055-1.94c-0.76-1.338-1.581-2.742-2.415-4.237c-0.417-0.751-0.836-1.523-1.25-2.383
		c-0.207-0.434-0.413-0.884-0.608-1.42c-0.097-0.269-0.192-0.561-0.273-0.905c-0.079-0.351-0.155-0.751-0.139-1.309
		c0.012-0.278,0.055-0.604,0.172-0.955c0.114-0.35,0.314-0.718,0.572-1.018c0.256-0.302,0.555-0.525,0.826-0.676
		c0.272-0.152,0.522-0.241,0.745-0.304c0.448-0.121,0.805-0.144,1.121-0.146l0.246,0.003c0.099,0.001,0.148,0.007,0.197,0.012
		l0.182,0.016l0.154,0.019c0.413,0.045,0.825,0.312,1.238,0.377c0.412,0.045,0.825,0.021,1.237-0.019l1.238-0.166
		c0.412-0.049,0.825-0.054,1.237-0.06l2.476-0.045l4.951-0.088l9.901-0.176l19.803-0.353l39.607-0.684l39.606-0.656l9.901-0.163
		l9.902-0.129l0.31-0.003c0.166,0,0.365,0.003,0.57,0.015c0.417,0.031,0.89,0.078,1.527,0.266c0.32,0.099,0.683,0.233,1.093,0.46
		c0.408,0.225,0.872,0.556,1.298,1.021c0.426,0.461,0.785,1.058,0.993,1.639c0.21,0.583,0.281,1.121,0.294,1.567
		c0.015,0.899-0.149,1.468-0.291,1.929c-0.15,0.46-0.309,0.802-0.467,1.11c-0.316,0.602-0.618,1.057-0.92,1.474
		c-0.599,0.824-1.179,1.496-1.757,2.145l-1.688,1.854c-1.097,1.193-2.125,2.376-2.931,3.58c-0.399,0.6-0.743,1.201-0.976,1.764
		c-0.117,0.28-0.205,0.547-0.26,0.783c-0.026,0.118-0.046,0.228-0.059,0.326l-0.01,0.137l-0.002,0.164L707.344,220.709"/>
	<path fill="#FFFFFF" d="M586.026,213.234c-0.737,0-1.35,25.567-1.476,59.247c0.899-0.235,1.884-0.464,2.949-0.686
		C587.369,238.454,586.759,213.234,586.026,213.234"/>
	<path fill="#4AE8E4" d="M587.5,271.795c-1.065,0.222-2.05,0.451-2.949,0.686c-0.004,1.191-0.008,2.393-0.011,3.604h2.975
		C587.51,274.642,587.506,273.21,587.5,271.795"/>
	<path fill="#42FFFF" d="M584.532,279.684c-0.003,1.828-0.004,3.676-0.004,5.54c0,39.76,0.672,71.99,1.499,71.99
		c0.828,0,1.5-32.23,1.5-71.99c0-1.628-0.001-3.243-0.003-4.844C586.441,280.154,585.443,279.922,584.532,279.684"/>
	<path fill="#49ECE9" d="M584.532,279.527c0,0.052,0,0.104,0,0.156c0.911,0.239,1.91,0.471,2.991,0.696c0-0.041,0-0.083,0-0.123
		C586.434,280.021,585.436,279.778,584.532,279.527"/>
	<path fill="#4AE8E4" d="M587.514,276.085h-2.975c0,0.148-0.001,0.292-0.001,0.439h2.977
		C587.515,276.376,587.515,276.233,587.514,276.085"/>
	<path fill="#49ECE8" d="M587.515,276.524h-2.977c-0.002,0.994-0.004,1.997-0.006,3.003c0.904,0.25,1.902,0.494,2.991,0.729
		C587.521,279.004,587.519,277.758,587.515,276.524"/>
</g>
</svg>
