<?xml version="1.0" encoding="utf-8"?>
<!-- Generator: Adobe Illustrator 15.0.0, SVG Export Plug-In . SVG Version: 6.00 Build 0)  -->
<!DOCTYPE svg PUBLIC "-//W3C//DTD SVG 1.1//EN" "http://www.w3.org/Graphics/SVG/1.1/DTD/svg11.dtd">
<svg version="1.1" id="Layer_1" xmlns="http://www.w3.org/2000/svg" xmlns:xlink="http://www.w3.org/1999/xlink" x="0px" y="0px"
	 width="254.667px" height="318px" viewBox="0 0 254.667 318" enable-background="new 0 0 254.667 318" xml:space="preserve">
<g>
	<path fill="#FFFFFF" d="M232.04,34.037c0-9.958,20.577-26.216,10.619-26.216H10.64c-9.958,0,10.619,16.258,10.619,26.216v255.284
		c0,9.959,8.073,18.032,18.031,18.032h174.72c9.958,0,18.031-8.073,18.031-18.032V34.037"/>
	<path fill="#89CFF0" d="M226.31,123.803H25.091l-3.833,162.163c0,9.221,12.412,21.386,21.919,21.386l165.918-6.275
		c9.506,0,22.944-2.535,22.944-11.756L226.31,123.803"/>
	<path fill="#6BB4D1" d="M226.31,124.722c0,7.288-45.045,13.195-100.609,13.195c-55.565,0-100.609-5.907-100.609-13.195
		c0-7.29,45.044-13.197,100.609-13.197C181.265,111.526,226.31,117.433,226.31,124.722"/>
	<path fill="#A3B4D8" d="M211.328,301.031c-0.008,0-0.016,0-0.023,0.001c-0.167,0.14-0.33,0.284-0.496,0.425l-0.036,0.038
		c-0.086,0.395-0.161,0.789-0.23,1.187c0.258-0.014,0.516-0.034,0.77-0.059c0.123-0.075,0.249-0.144,0.37-0.221
		C211.379,302.042,211.225,301.565,211.328,301.031"/>
	<path fill="#689CD0" d="M211.333,301.008c-0.009,0.008-0.019,0.016-0.028,0.024c0.008,0,0.016,0,0.023-0.001
		C211.33,301.024,211.331,301.016,211.333,301.008"/>
	<path fill="#89CFF0" d="M213.365,280.272c1.99-2.391,4.068-4.752,6.138-7.128c2.331-3.518,4.729-6.989,7.216-10.397V125.442H25.5
		V286.02c0,9.221,12.186,16.662,21.692,16.662l152.491-0.454C202.254,293.998,207.926,286.809,213.365,280.272"/>
	<path fill="#6BB4D1" d="M227.258,124.722c0,7.288-45.045,13.195-100.609,13.195c-55.565,0-100.609-5.907-100.609-13.195H227.258"/>
	<path fill="#BDE4F7" d="M57.015,147.987c-5.425,0-9.823,4.398-9.823,9.823c0,5.425,4.397,9.822,9.823,9.822
		c5.425,0,9.823-4.397,9.823-9.822C66.838,152.385,62.44,147.987,57.015,147.987"/>
	<path fill="#BDE4F7" d="M67.818,177.455c-2.743,0-4.966,2.223-4.966,4.964c0,2.743,2.223,4.967,4.966,4.967
		s4.967-2.224,4.967-4.967C72.785,179.678,70.562,177.455,67.818,177.455"/>
	<path fill="#BDE4F7" d="M181.708,229.242c-1.99,0-3.602,1.612-3.602,3.602c0,1.988,1.612,3.601,3.602,3.601
		c1.988,0,3.601-1.612,3.601-3.601C185.309,230.855,183.696,229.242,181.708,229.242"/>
	<path fill="#BDE4F7" d="M175.733,240.839c-1.312,0-2.375,1.063-2.375,2.374s1.063,2.374,2.375,2.374
		c1.31,0,2.373-1.063,2.373-2.374S177.043,240.839,175.733,240.839"/>
	<path fill="#231F20" d="M228.633,33.983l0.009-0.266c0.007-0.136,0.014-0.289,0.024-0.412c0.02-0.239,0.044-0.474,0.077-0.704
		c0.063-0.46,0.151-0.902,0.255-1.326c0.208-0.85,0.476-1.637,0.775-2.38c0.601-1.486,1.317-2.814,2.07-4.073
		c1.508-2.511,3.185-4.751,4.827-6.941l2.427-3.229c0.786-1.06,1.542-2.121,2.182-3.137c0.318-0.505,0.598-1.006,0.796-1.435
		c0.096-0.21,0.172-0.405,0.208-0.529c0.041-0.121,0.025-0.182,0.027-0.003c0.004,0.088,0.022,0.242,0.097,0.444
		c0.071,0.2,0.203,0.431,0.347,0.6c0.143,0.174,0.281,0.283,0.36,0.358l0.12,0.142c0,0.058-0.13,0.094-0.298,0.116
		c-0.088,0.012-0.178,0.019-0.295,0.023c-0.168,0.004-0.337-0.001-0.506-0.006c-5.405-0.115-10.81-0.448-16.215-0.726
		c-2.703-0.139-5.405-0.245-8.107-0.299c-2.703-0.058-5.405-0.054-8.108-0.068c-21.62-0.1-43.24-0.172-64.86-0.159l-64.861,0.072
		l-32.431,0.019l-16.215-0.019l-8.107-0.01l-4.054-0.006c-0.676,0.001-1.352,0.004-2.027-0.053c-0.676-0.054-1.351-0.14-2.027-0.199
		c-0.676-0.051-1.352-0.081-2.027-0.027c-0.676,0.076-1.351,0.391-2.027,0.444l-0.253,0.021c-0.113,0.007-0.13,0.012-0.221,0.02
		l-0.204,0.025l-0.145,0.028c-0.204,0.039-0.364,0.103-0.388,0.14l0.085-0.002c0.072-0.027,0.197-0.101,0.317-0.229
		c0.122-0.125,0.222-0.298,0.274-0.43c0.054-0.136,0.07-0.227,0.085-0.264c0.022-0.074,0.059,0.028,0.136,0.17
		c0.078,0.148,0.186,0.343,0.318,0.553c0.262,0.422,0.604,0.898,0.97,1.376c0.742,0.961,1.596,1.946,2.466,2.944
		c1.749,1.999,3.593,4.045,5.319,6.305c0.863,1.133,1.707,2.314,2.496,3.593c0.788,1.281,1.532,2.648,2.149,4.214
		c0.304,0.785,0.585,1.618,0.789,2.533c0.103,0.457,0.188,0.934,0.249,1.434c0.03,0.25,0.053,0.505,0.068,0.766
		c0.007,0.132,0.015,0.261,0.017,0.396l0.005,0.345l0.023,4.054l0.048,8.107l0.096,16.215l0.121,32.43l0.041,32.43l-0.224,129.723
		l-0.007,16.215l-0.003,8.108l-0.002,4.053l0.013,2.027c0.004,0.338,0.003,0.675-0.002,1.013l-0.013,0.507l-0.019,0.479
		c-0.091,2.012,0.23,4.122,1.001,6.086c0.771,1.968,2.002,3.827,3.642,5.3c1.634,1.475,3.669,2.547,5.851,3.028
		c0.545,0.121,1.098,0.209,1.655,0.26c0.279,0.024,0.558,0.044,0.838,0.051l0.42,0.006l0.463-0.005l4.054-0.062
		c21.621-0.33,43.241-0.723,64.861-1.239l16.215-0.387l16.215-0.409l32.431-0.86l32.43-0.843l8.107-0.204l0.208-0.007
		c0.097-0.002,0.167-0.005,0.184-0.008l0.286-0.022c0.205-0.018,0.408-0.04,0.61-0.069c0.403-0.058,0.801-0.138,1.191-0.24
		c0.78-0.204,1.532-0.494,2.241-0.865c1.418-0.74,2.664-1.808,3.608-3.078c0.947-1.27,1.585-2.729,1.872-4.241
		c0.146-0.757,0.188-1.524,0.223-2.304l0.069-4.009l0.139-8.108l0.279-16.215l0.556-32.431l1.114-64.861l2.199-129.721
		L228.633,33.983z M235.447,34.037l2.2,129.721l1.113,64.861l0.557,32.431l0.279,16.215l0.139,8.108l0.069,4.098
		c0.021,1.924-0.255,3.857-0.724,5.73c-0.941,3.755-2.748,7.269-5.207,10.196c-2.456,2.932-5.562,5.292-9.033,6.86
		c-1.734,0.784-3.557,1.371-5.417,1.744c-0.93,0.187-1.869,0.32-2.81,0.401c-0.47,0.042-0.941,0.068-1.411,0.082l-0.353,0.008
		l-0.375,0.003l-0.322-0.002l-0.299-0.005l-8.107-0.203l-32.43-0.843l-32.431-0.861l-16.215-0.409l-16.215-0.387
		c-21.621-0.516-43.241-0.909-64.861-1.239l-4.054-0.062l-0.55-0.009l-0.592-0.022c-0.396-0.022-0.79-0.05-1.184-0.09
		c-0.788-0.08-1.572-0.2-2.349-0.36c-3.107-0.639-6.094-1.913-8.723-3.761c-2.63-1.842-4.908-4.27-6.543-7.143
		c-1.642-2.873-2.606-6.154-2.75-9.548l-0.021-0.535l-0.013-0.507c-0.006-0.338-0.006-0.675-0.003-1.013l0.013-2.027l-0.001-4.053
		l-0.003-8.108l-0.006-16.215L16.59,127.369l0.04-32.43l0.121-32.43l0.096-16.215l0.049-8.107l0.023-4.054v-0.161l-0.002-0.11
		l-0.018-0.243c-0.018-0.172-0.047-0.361-0.09-0.564c-0.087-0.405-0.216-0.863-0.391-1.342c-0.344-0.962-0.835-2.008-1.392-3.07
		c-0.561-1.064-1.186-2.152-1.847-3.251c-1.322-2.204-2.757-4.458-4.192-6.827c-0.719-1.189-1.437-2.403-2.127-3.735
		c-0.346-0.67-0.686-1.364-0.997-2.166c-0.155-0.401-0.304-0.833-0.43-1.33c-0.121-0.502-0.233-1.068-0.214-1.819
		C5.233,9.139,5.289,8.709,5.44,8.25c0.148-0.457,0.405-0.934,0.739-1.324c0.331-0.393,0.719-0.687,1.079-0.89
		c0.362-0.204,0.7-0.328,1.008-0.416c0.618-0.173,1.131-0.213,1.6-0.225c0.115-0.002,0.232-0.004,0.36,0
		c0.141,0,0.222,0.007,0.303,0.012l0.286,0.019l0.253,0.021c0.676,0.052,1.351,0.367,2.027,0.444
		c0.675,0.053,1.351,0.024,2.027-0.027c0.676-0.059,1.351-0.145,2.027-0.199c0.675-0.057,1.351-0.053,2.027-0.053l4.054-0.006
		l8.107-0.01l16.215-0.019l32.431,0.018l64.861,0.073c21.62,0.012,43.24-0.059,64.86-0.159c2.703-0.015,5.405-0.01,8.108-0.068
		c2.703-0.053,5.405-0.16,8.107-0.299c5.405-0.278,10.81-0.611,16.215-0.726c0.169-0.005,0.338-0.01,0.506-0.006
		c0.221,0.005,0.469,0.019,0.718,0.053c0.506,0.066,1.05,0.19,1.699,0.438c0.325,0.129,0.677,0.287,1.058,0.52
		c0.377,0.234,0.791,0.546,1.164,0.967c0.375,0.417,0.687,0.94,0.876,1.456c0.194,0.518,0.268,1.01,0.288,1.435
		c0.031,0.855-0.117,1.468-0.263,1.994c-0.153,0.525-0.332,0.958-0.514,1.364c-0.367,0.8-0.759,1.474-1.15,2.117
		c-0.786,1.281-1.599,2.422-2.4,3.55l-2.378,3.301c-1.552,2.168-3.028,4.331-4.237,6.496c-0.6,1.08-1.124,2.162-1.499,3.198
		c-0.188,0.517-0.334,1.019-0.429,1.487c-0.048,0.233-0.083,0.458-0.103,0.668c-0.01,0.105-0.017,0.207-0.021,0.305l-0.002,0.335
		L235.447,34.037z"/>
	<path fill="#FFFFFF" d="M39.721,73.572c-0.633,0-1.189,17.834-1.501,44.628c0.952-0.22,1.951-0.435,2.995-0.646
		C40.901,91.117,40.349,73.572,39.721,73.572"/>
	<path fill="#91C7DD" d="M41.214,117.553c-1.043,0.211-2.042,0.426-2.995,0.646c-0.025,2.122-0.048,4.293-0.069,6.523h3.141
		C41.267,122.268,41.242,119.877,41.214,117.553"/>
	<path fill="#A8DBF4" d="M38.094,130.99c-0.091,11.401-0.142,23.958-0.142,37.142c0,52.224,0.792,94.561,1.768,94.561
		s1.767-42.337,1.767-94.561c0-12.903-0.048-25.203-0.136-36.41C40.208,131.484,39.123,131.24,38.094,130.99"/>
	<path fill="#91C7DD" d="M41.291,124.722H38.15c-0.02,2.047-0.039,4.137-0.056,6.268c1.028,0.249,2.113,0.493,3.258,0.732
		C41.333,129.34,41.313,127.002,41.291,124.722"/>
</g>
</svg>
