<?xml version="1.0" encoding="utf-8"?>
<!-- Generator: Adobe Illustrator 15.0.0, SVG Export Plug-In . SVG Version: 6.00 Build 0)  -->
<!DOCTYPE svg PUBLIC "-//W3C//DTD SVG 1.1//EN" "http://www.w3.org/Graphics/SVG/1.1/DTD/svg11.dtd">
<svg version="1.1" id="Layer_1" xmlns="http://www.w3.org/2000/svg" xmlns:xlink="http://www.w3.org/1999/xlink" x="0px" y="0px"
	 width="1280px" height="800px" viewBox="0 0 1280 800" enable-background="new 0 0 1280 800" xml:space="preserve">
<g>
	<polyline fill="#FFFFFF" points="1282,798 2,798 2,-2 1282,-2 1282,798 	"/>
	<g>
		<path fill="#007BA7" d="M266.268,503.999l26.44,9.303c-2.246,10.889-7.397,19.8-15.454,26.732
			c-8.155,6.983-19.385,10.475-33.691,10.475c-19.531,0-33.984-5.103-43.359-15.309c-9.424-10.155-14.136-22.559-14.136-37.207
			c0-14.745,4.614-27.27,13.843-37.572s21.215-15.455,35.962-15.455c11.963,0,21.704,2.955,29.224,8.863v-6.812h24.463v37.207
			h-25.415c-1.318-4.638-3.541-8.3-6.665-10.986c-3.125-2.637-6.69-3.955-10.693-3.955c-11.035,0-16.553,9.498-16.553,28.492
			c0,19.043,5.713,28.564,17.139,28.564C257.38,526.339,263.679,518.893,266.268,503.999z"/>
		<path fill="#007BA7" d="M403.011,548.897h-97.192v-24.391h7.91v-53.1h-8.057v-24.391h97.339v32.594h-26.733v-8.203h-23.145v15.674
			h20.142v20.727h-20.142v16.699h23.145v-8.203h26.733V548.897z"/>
		<path fill="#007BA7" d="M473.47,548.897h-55.371v-24.391h8.276v-53.1h-8.276v-24.391h55.371c4.98,0,9.595,0.086,13.843,0.257
			c4.248,0.172,7.885,0.415,10.913,0.732c3.027,0.318,5.811,0.745,8.35,1.282c7.129,1.514,12.915,4.81,17.358,9.887
			c4.492,5.177,6.738,11.279,6.738,18.311c0,5.273-1.367,10.06-4.102,14.355c-2.735,4.248-6.324,7.374-10.767,9.375l14.062,23.291
			h7.324v24.391h-36.694l-22.192-41.602H465.78v17.211h7.69V548.897z M465.78,469.356v19.408h4.395c5.761,0,9.668-0.17,11.719-0.512
			c2.197-0.342,4.053-1.318,5.566-2.93c1.513-1.514,2.271-3.59,2.271-6.227s-0.758-4.735-2.271-6.299
			c-1.514-1.611-3.442-2.587-5.786-2.93c-2.246-0.341-6.348-0.512-12.305-0.512H465.78z"/>
		<path fill="#007BA7" d="M548.839,471.407h-7.837v-24.391h52.148v24.391h-4.834v34.35c0,8.203,0.78,13.795,2.344,16.773
			c1.562,2.93,4.369,4.395,8.423,4.395c3.369,0,5.811-1.246,7.324-3.736c1.513-2.44,2.271-7.445,2.271-15.014v-36.768h-5.127
			v-24.391h38.306v24.391H633.8v36.914c0,9.424-1.367,17.139-4.102,23.145c-2.735,5.957-7.276,10.619-13.623,13.988
			c-6.348,3.369-14.161,5.055-23.438,5.055c-7.471,0-14.088-0.904-19.849-2.711c-5.859-1.758-10.499-4.442-13.916-8.057
			c-3.418-3.563-5.933-7.885-7.544-12.963c-1.66-4.932-2.49-12.5-2.49-22.705V471.407z"/>
		<path fill="#007BA7" d="M748.278,548.897h-96.973v-24.391h9.155v-53.1h-9.155v-24.391h58.228v24.391h-9.668v53.1h24.097v-16.332
			h24.316V548.897z"/>
		<path fill="#007BA7" d="M854.699,548.897h-97.192v-24.391h7.91v-53.1h-8.057v-24.391h97.339v32.594h-26.733v-8.203h-23.145v15.674
			h20.142v20.727h-20.142v16.699h23.145v-8.203h26.733V548.897z"/>
		<path fill="#007BA7" d="M905.236,548.897h-40.356v-24.391h7.764l19.116-53.1h-8.203v-24.391h73.242v24.391h-8.203l19.482,53.1
			h7.471v24.391h-53.174v-22.34h8.936l-3.882-12.816h-26.074l-4.468,12.816h8.35V548.897z M914.831,472.872l-9.595,28.197h18.237
			L914.831,472.872z"/>
		<path fill="#007BA7" d="M1023.888,548.897h-41.821v-24.391h8.936v-53.1h-8.936v-24.391h48.267l37.061,53.248v-28.857h-8.276
			v-24.391h41.089v24.391h-8.862v78.809h-33.545l-42.92-61.598v35.889h9.009V548.897z"/>
	</g>
	<path fill="#FFFFFF" d="M687.124,220.769c0-4.32,8.929-11.375,4.608-11.375H591.06c-4.32,0,4.607,7.055,4.607,11.375v110.766
		c0,4.322,3.503,7.824,7.824,7.824h75.81c4.321,0,7.823-3.502,7.823-7.824V220.769"/>
	<path fill="#007BA7" d="M684.638,259.718h-87.308l-1.663,70.361c0,4.002,5.386,9.279,9.511,9.279l71.991-2.723
		c4.125,0,9.955-1.1,9.955-5.102L684.638,259.718"/>
	<path fill="#066782" d="M684.638,260.116c0,3.162-19.544,5.727-43.654,5.727c-24.11,0-43.654-2.564-43.654-5.727
		s19.544-5.725,43.654-5.725C665.094,254.392,684.638,256.954,684.638,260.116"/>
	<path fill="#A3B4D8" d="M678.138,336.616c-0.003,0-0.006,0-0.009,0l-0.217,0.186l-0.016,0.016c-0.038,0.172-0.07,0.344-0.099,0.516
		c0.112-0.006,0.223-0.016,0.334-0.025l0.16-0.096C678.159,337.054,678.093,336.849,678.138,336.616"/>
	<polyline fill="#2472AC" points="678.14,336.606 678.129,336.616 678.138,336.616 678.14,336.606 	"/>
	<path fill="#007BA7" d="M679.021,327.608c0.864-1.037,1.765-2.061,2.664-3.094c1.011-1.525,2.052-3.031,3.131-4.51v-59.576h-87.308
		v69.674c0,4.002,5.287,7.23,9.411,7.23l66.166-0.197C674.2,333.565,676.662,330.444,679.021,327.608"/>
	<path fill="#066782" d="M685.05,260.116c0,3.162-19.544,5.727-43.654,5.727s-43.654-2.564-43.654-5.727H685.05"/>
	<path fill="#70B5CE" d="M643.009,312.56c-2.215,0-4.01,1.795-4.01,4.01s1.795,4.01,4.01,4.01s4.01-1.795,4.01-4.01
		S645.224,312.56,643.009,312.56"/>
	<path fill="#70B5CE" d="M647.42,324.589c-1.12,0-2.027,0.908-2.027,2.027c0,1.121,0.908,2.027,2.027,2.027s2.027-0.906,2.027-2.027
		C649.448,325.497,648.54,324.589,647.42,324.589"/>
	<path fill="#70B5CE" d="M665.286,305.468c-0.863,0-1.562,0.699-1.562,1.562s0.699,1.562,1.562,1.562s1.562-0.699,1.562-1.562
		S666.149,305.468,665.286,305.468"/>
	<path fill="#70B5CE" d="M662.693,310.499c-0.569,0-1.03,0.461-1.03,1.029s0.461,1.031,1.03,1.031s1.03-0.463,1.03-1.031
		S663.262,310.499,662.693,310.499"/>
	<path fill="#231F20" d="M685.192,220.739l0.003-0.117l0.011-0.201c0.008-0.113,0.02-0.225,0.034-0.332
		c0.028-0.217,0.066-0.424,0.112-0.621c0.09-0.398,0.206-0.762,0.333-1.105c0.255-0.686,0.547-1.299,0.85-1.883
		c0.605-1.164,1.246-2.227,1.857-3.264c0.307-0.516,0.611-1.02,0.896-1.51c0.282-0.488,0.555-0.967,0.754-1.383
		c0.097-0.205,0.179-0.396,0.205-0.51l-0.009-0.055l-0.041,0.117c-0.016,0.07-0.033,0.174-0.032,0.332
		c0.002,0.156,0.026,0.373,0.117,0.629c0.088,0.256,0.252,0.531,0.441,0.736c0.188,0.207,0.381,0.344,0.529,0.426
		c0.15,0.084,0.258,0.123,0.336,0.148c0.152,0.045,0.185,0.041,0.18,0.043l-0.045-0.004l-0.22-0.002l-7.035-0.086l-7.036-0.109
		l-28.143-0.438l-28.143-0.457l-14.072-0.236l-7.035-0.117l-3.518-0.059l-1.759-0.029c-0.293-0.006-0.587-0.008-0.88-0.041
		l-0.879-0.111c-0.293-0.027-0.586-0.043-0.879-0.012c-0.293,0.043-0.586,0.221-0.879,0.252l-0.11,0.012l-0.092,0.012l-0.082,0.014
		l-0.049,0.014l-0.087,0.055l0.11-0.027l0.231-0.174c0.083-0.09,0.151-0.207,0.187-0.305c0.037-0.1,0.05-0.174,0.058-0.217
		l0.055-0.037l0.132,0.188c0.111,0.156,0.26,0.348,0.421,0.541c0.327,0.391,0.709,0.801,1.099,1.221
		c0.783,0.838,1.615,1.709,2.39,2.695c0.388,0.494,0.767,1.016,1.124,1.586c0.355,0.572,0.691,1.189,0.973,1.912
		c0.14,0.361,0.266,0.75,0.36,1.182c0.047,0.215,0.086,0.441,0.113,0.68c0.014,0.119,0.024,0.242,0.031,0.367l0.007,0.191
		l0.001,0.16l-0.004,1.76l-0.008,3.518l-0.029,7.035c-0.023,4.691-0.059,9.381-0.106,14.072l-0.17,14.072
		c-0.262,18.762-0.633,37.521-0.798,56.285l-0.104,14.055c0.003,0.996,0.262,1.977,0.742,2.83c0.479,0.855,1.174,1.574,1.97,2.094
		c0.797,0.523,1.693,0.848,2.598,0.984c0.226,0.037,0.455,0.057,0.682,0.068c0.114,0.006,0.228,0.008,0.343,0.008l0.171-0.004
		l0.195-0.006l1.759-0.055l28.143-0.875l28.143-0.84l14.071-0.416l3.518-0.104l0.059-0.004l0.11-0.004l0.063-0.006l0.025-0.004
		l0.203-0.029c0.138-0.023,0.274-0.053,0.407-0.092c0.267-0.074,0.52-0.18,0.759-0.312c0.478-0.264,0.894-0.637,1.203-1.076
		c0.312-0.438,0.511-0.934,0.594-1.438c0.043-0.254,0.044-0.51,0.064-0.771l0.041-1.734l0.082-3.518l0.163-7.035l0.346-14.07
		l0.728-28.145c0.485-18.762,0.867-37.523,1.114-56.285L685.192,220.739z M689.058,220.769c0.247,18.762,0.628,37.523,1.114,56.285
		l0.728,28.145l0.346,14.07l0.163,7.035l0.082,3.518l0.04,1.785c0.012,0.91-0.122,1.826-0.346,2.715
		c-0.45,1.779-1.31,3.443-2.478,4.826c-1.165,1.385-2.638,2.498-4.281,3.234c-0.821,0.369-1.685,0.646-2.564,0.818
		c-0.44,0.088-0.884,0.15-1.328,0.188c-0.226,0.02-0.437,0.031-0.675,0.037l-0.194,0.004h-0.157l-0.271-0.004l-3.518-0.104
		l-14.071-0.416l-28.143-0.84l-28.143-0.873l-1.759-0.057l-0.245-0.008l-0.268-0.016c-0.179-0.012-0.357-0.031-0.535-0.053
		c-0.356-0.045-0.708-0.115-1.055-0.201c-1.39-0.35-2.673-1.045-3.726-1.963c-2.116-1.84-3.301-4.555-3.333-7.258l-0.106-14.086
		c-0.165-18.764-0.536-37.523-0.797-56.285l-0.17-14.072c-0.048-4.691-0.083-9.381-0.107-14.072l-0.029-7.035l-0.008-3.518
		l-0.003-1.76l-0.001-0.057l-0.001-0.029l-0.006-0.07l-0.033-0.188c-0.032-0.141-0.084-0.312-0.151-0.5
		c-0.136-0.373-0.336-0.805-0.564-1.248c-0.229-0.445-0.488-0.91-0.761-1.385c-0.547-0.951-1.138-1.945-1.737-3
		c-0.299-0.531-0.6-1.074-0.894-1.68c-0.148-0.305-0.294-0.619-0.432-0.994c-0.069-0.188-0.135-0.391-0.193-0.631
		c-0.055-0.242-0.108-0.518-0.097-0.898c0.008-0.191,0.037-0.412,0.117-0.652c0.077-0.236,0.213-0.488,0.388-0.691
		c0.174-0.205,0.376-0.357,0.562-0.461c0.187-0.104,0.357-0.164,0.511-0.207c0.307-0.084,0.554-0.1,0.774-0.104l0.171,0.002
		l0.138,0.008l0.128,0.01l0.11,0.012c0.293,0.031,0.586,0.209,0.879,0.252c0.293,0.031,0.586,0.016,0.879-0.012l0.879-0.111
		c0.293-0.031,0.586-0.035,0.88-0.039l1.759-0.029l3.518-0.061l7.035-0.117l14.072-0.234l28.143-0.457l28.143-0.439l7.036-0.109
		l7.035-0.086l0.22-0.002c0.115,0,0.253,0.002,0.395,0.01c0.288,0.021,0.612,0.055,1.047,0.182c0.218,0.066,0.464,0.158,0.743,0.312
		c0.276,0.152,0.59,0.377,0.877,0.691c0.289,0.311,0.531,0.715,0.671,1.105c0.143,0.395,0.19,0.76,0.199,1.061
		c0.01,0.611-0.101,1-0.198,1.316c-0.103,0.316-0.213,0.553-0.322,0.766c-0.219,0.42-0.429,0.738-0.64,1.031
		c-0.419,0.58-0.827,1.059-1.234,1.52l-1.189,1.322c-0.774,0.855-1.502,1.701-2.076,2.566c-0.284,0.432-0.53,0.863-0.698,1.273
		c-0.084,0.203-0.148,0.396-0.189,0.572l-0.043,0.244l-0.008,0.104l-0.002,0.123L689.058,220.769z"/>
	<path fill="#FFFFFF" d="M604.044,211.745c-0.502,0-0.918,19.757-0.992,45.535c0.617-0.142,1.278-0.279,1.981-0.413
		C604.958,231.29,604.544,211.745,604.044,211.745"/>
	<path fill="#468EA2" d="M605.034,256.867c-0.703,0.134-1.365,0.271-1.981,0.413c-0.002,0.938-0.005,1.882-0.006,2.836h1.996
		C605.04,259.023,605.038,257.94,605.034,256.867"/>
	<path fill="#429DBE" d="M603.042,262.854c0,0.842-0.001,1.687-0.001,2.538c0,29.629,0.449,53.646,1.003,53.646
		s1.002-24.018,1.002-53.646c0-0.705,0-1.404,0-2.104C604.331,263.147,603.663,263.002,603.042,262.854"/>
	<path fill="#468EA2" d="M605.042,260.116h-1.996c-0.002,0.904-0.003,1.82-0.004,2.737c0.62,0.148,1.289,0.294,2.004,0.435
		C605.045,262.224,605.044,261.164,605.042,260.116"/>
</g>
</svg>
