<?xml version="1.0" encoding="utf-8"?>
<!-- Generator: Adobe Illustrator 15.0.0, SVG Export Plug-In . SVG Version: 6.00 Build 0)  -->
<!DOCTYPE svg PUBLIC "-//W3C//DTD SVG 1.1//EN" "http://www.w3.org/Graphics/SVG/1.1/DTD/svg11.dtd">
<svg version="1.1" id="Layer_1" xmlns="http://www.w3.org/2000/svg" xmlns:xlink="http://www.w3.org/1999/xlink" x="0px" y="0px"
	 width="208px" height="316px" viewBox="0 0 208 316" enable-background="new 0 0 208 316" xml:space="preserve">
<g>
	<path fill="#FFFFFF" d="M188.5,83.659c0-8.016,16.563-21.102,8.547-21.102H10.288c-8.016,0,8.548,13.086,8.548,21.102v205.486
		c0,8.016,6.498,14.515,14.513,14.515h140.638c8.016,0,14.514-6.499,14.514-14.515V83.659"/>
	<path fill="#00FFFF" d="M183.888,155.916H21.92l-3.084,130.531c0,7.422,9.991,17.214,17.643,17.214l133.554-5.051
		c7.653,0,18.468-2.041,18.468-9.464L183.888,155.916"/>
	<path fill="#0BE0DA" d="M183.888,156.654c0,5.865-36.258,10.622-80.983,10.622c-44.728,0-80.984-4.757-80.984-10.622
		c0-5.866,36.257-10.622,80.984-10.622C147.63,146.032,183.888,150.788,183.888,156.654"/>
	<path fill="#FFFFFF" d="M96.352,265.587L198.735,18.993c1.389-3.345-0.196-7.183-3.542-8.572c-3.346-1.389-7.183,0.197-8.572,3.542
		L84.238,260.558c-6.318,0.116-12.273,3.898-14.851,10.107c-3.472,8.363,0.494,17.96,8.856,21.432
		c8.364,3.473,17.959-0.493,21.432-8.856C102.253,277.031,100.729,270.145,96.352,265.587"/>
	<path fill="#231F20" d="M94.83,264.957c16.614-43.146,33.762-86.07,51.071-128.925l13.038-32.12l13.113-32.088l13.187-32.058
		l6.627-16.015l1.658-4.003l0.829-2.001l0.186-0.447l0.049-0.126l0.006-0.019l0.021-0.063c0.035-0.109,0.058-0.217,0.075-0.325
		c0.062-0.431-0.025-0.898-0.252-1.291c-0.227-0.395-0.558-0.686-0.984-0.864c-0.426-0.176-0.867-0.205-1.307-0.088
		c-0.438,0.117-0.83,0.385-1.092,0.734c-0.066,0.088-0.125,0.18-0.178,0.282l-0.072,0.156l-0.205,0.491l-0.833,2l-1.666,4
		l-6.665,15.999l-13.398,31.97l-13.47,31.939l-13.547,31.909c-18.134,42.514-36.432,84.96-55.261,127.185l-0.455,1.019l-1.038-0.002
		h-0.02c-1.668,0.352-3.229,0.92-4.638,1.692c-1.405,0.776-2.656,1.745-3.698,2.862c-1.049,1.111-1.883,2.372-2.5,3.704
		c-0.155,0.334-0.287,0.676-0.417,1.018c-0.13,0.344-0.238,0.678-0.35,1.066l-0.126,0.499c-0.04,0.176-0.079,0.353-0.111,0.529
		c-0.065,0.354-0.123,0.706-0.164,1.059c-0.322,2.826,0.306,5.676,1.702,8.043c0.696,1.182,1.573,2.246,2.595,3.13
		c0.509,0.445,1.054,0.847,1.63,1.2c0.287,0.178,0.581,0.345,0.884,0.5c0.151,0.076,0.303,0.151,0.457,0.221l0.418,0.184
		l0.324,0.132l0.219,0.082c0.125,0.047,0.309,0.112,0.463,0.161c0.322,0.105,0.649,0.195,0.978,0.271
		c0.657,0.158,1.326,0.26,2,0.305c1.349,0.097,2.721-0.034,4.05-0.376c2.661-0.686,5.121-2.256,6.891-4.482
		c0.889-1.107,1.612-2.396,2.125-3.775c0.508-1.377,0.807-2.859,0.853-4.385c0.055-1.527-0.146-3.097-0.59-4.639
		c-0.449-1.542-1.151-3.049-2.082-4.479l-0.638-0.98L94.83,264.957 M98.349,265.134c2.875,2.53,4.901,6.187,5.563,10.196
		c0.363,2.19,0.332,4.48-0.117,6.707c-0.111,0.556-0.241,1.112-0.407,1.657c-0.04,0.134-0.082,0.271-0.132,0.423l-0.126,0.382
		c-0.099,0.281-0.192,0.541-0.299,0.81c-0.416,1.063-0.927,2.102-1.535,3.085c-1.21,1.973-2.793,3.735-4.637,5.178
		c-1.848,1.438-3.953,2.558-6.201,3.276c-2.245,0.725-4.631,1.05-7.006,0.952c-1.188-0.046-2.372-0.207-3.533-0.462
		c-0.581-0.128-1.155-0.285-1.721-0.464c-0.291-0.091-0.547-0.178-0.86-0.292l-0.436-0.165l-0.325-0.128l-0.458-0.197
		c-0.135-0.057-0.269-0.123-0.403-0.184c-0.27-0.125-0.535-0.258-0.798-0.394c-0.527-0.273-1.043-0.569-1.544-0.889
		c-1.001-0.643-1.951-1.367-2.824-2.174c-1.75-1.61-3.206-3.528-4.28-5.627c-1.08-2.098-1.776-4.38-2.064-6.703
		c-0.285-2.322-0.156-4.688,0.383-6.938c0.136-0.563,0.291-1.119,0.477-1.664c0.092-0.273,0.191-0.541,0.293-0.81
		c0.105-0.268,0.209-0.523,0.337-0.82c0.215-0.485,0.468-1.013,0.739-1.51c0.269-0.501,0.569-0.986,0.884-1.458
		c1.258-1.892,2.855-3.532,4.661-4.824c3.611-2.583,8.077-3.74,12.204-3.184l0.024-0.002l-1.491,1.016
		c16.615-43.146,33.763-86.068,51.073-128.925l13.037-32.119l13.113-32.088l13.187-32.058l6.626-16.014l1.657-4.003l0.83-2.001
		l0.21-0.508c0.116-0.28,0.245-0.555,0.384-0.826c0.279-0.542,0.605-1.062,0.971-1.553c1.467-1.97,3.596-3.409,5.945-4.05
		c2.346-0.657,4.944-0.49,7.185,0.45c2.247,0.923,4.2,2.646,5.391,4.772c1.206,2.117,1.688,4.641,1.328,7.07
		c-0.09,0.605-0.227,1.204-0.415,1.783c-0.048,0.153-0.088,0.272-0.154,0.448l-0.14,0.362l-0.23,0.553l-0.831,2l-1.667,4
		l-6.665,15.999l-13.397,31.97l-13.471,31.939l-13.546,31.909C135.155,181.184,117.009,223.267,98.349,265.134"/>
	<path fill="#00FFFF" d="M143.178,253.942c-1.056,0-1.911-0.856-1.911-1.911s0.855-1.91,1.911-1.91c1.055,0,1.91,0.855,1.91,1.91
		S144.232,253.942,143.178,253.942 M147.987,246.585c-1.602,0-2.899-1.298-2.899-2.899s1.298-2.9,2.899-2.9
		c1.601,0,2.899,1.299,2.899,2.9S149.587,246.585,147.987,246.585 M56.313,207.095c-2.207,0-3.997-1.789-3.997-3.996
		c0-2.208,1.791-3.998,3.997-3.998c2.208,0,3.997,1.79,3.997,3.998C60.31,205.306,58.521,207.095,56.313,207.095 M47.617,191.194
		c-4.368,0-7.907-3.54-7.907-7.906c0-4.367,3.54-7.907,7.907-7.907c4.367,0,7.905,3.54,7.905,7.907
		C55.522,187.654,51.984,191.194,47.617,191.194 M23.044,158.428l-0.005,0.359c-0.238,16.049-0.522,32.1-0.79,48.149v79.552
		c0,7.423,9.809,13.413,17.46,13.413l1.649-0.005l47.664-1.573l52.208-1.656l22.607-0.71c2.364-5.161,6.06-9.803,9.631-14.094
		c1.602-1.926,3.275-3.825,4.941-5.74c0.583-0.879,1.171-1.755,1.765-2.627l2.319-85.419c0.27-9.814,0.523-19.632,0.759-29.447
		c-4.617,3.218-20.299,5.925-41.669,7.412c-14.207,33.115-28.562,66.171-43.234,99.092c2.875,2.53,4.901,6.187,5.563,10.196
		c0.363,2.19,0.332,4.48-0.117,6.707c-0.111,0.556-0.241,1.112-0.407,1.657c-0.04,0.134-0.082,0.271-0.132,0.423l-0.126,0.382
		c-0.099,0.281-0.192,0.541-0.299,0.81c-0.416,1.063-0.927,2.102-1.535,3.085c-1.21,1.973-2.793,3.735-4.637,5.178
		c-1.848,1.438-3.953,2.558-6.201,3.276c-1.983,0.64-4.077,0.969-6.177,0.969c-0.276,0-0.553-0.006-0.83-0.017
		c-1.188-0.046-2.372-0.207-3.533-0.462c-0.581-0.128-1.155-0.285-1.721-0.464c-0.291-0.091-0.547-0.178-0.86-0.292l-0.436-0.165
		l-0.325-0.128l-0.458-0.197c-0.135-0.057-0.269-0.123-0.403-0.184c-0.27-0.125-0.535-0.258-0.798-0.394
		c-0.527-0.273-1.043-0.569-1.544-0.889c-1.001-0.643-1.951-1.367-2.824-2.174c-1.75-1.61-3.206-3.528-4.28-5.627
		c-1.08-2.098-1.776-4.38-2.064-6.703c-0.285-2.322-0.156-4.688,0.383-6.938c0.136-0.563,0.291-1.119,0.477-1.664
		c0.092-0.273,0.191-0.541,0.293-0.81c0.105-0.268,0.209-0.523,0.337-0.82c0.215-0.485,0.468-1.013,0.739-1.51
		c0.269-0.501,0.569-0.986,0.884-1.458c1.258-1.892,2.855-3.532,4.661-4.824c3.016-2.158,6.629-3.32,10.144-3.32
		c0.343,0,0.684,0.011,1.024,0.033c11.818-30.671,23.903-61.226,36.124-91.729c-5.048,0.129-10.266,0.197-15.603,0.197
		c-0.128,0-0.253,0-0.381,0c-0.128,0-0.253,0-0.381,0c-28.861,0-54.195-1.98-68.537-4.962c0.003,2.111,0.004,4.24,0.004,6.387
		c0,52.41-0.886,94.896-1.977,94.896s-1.977-42.486-1.977-94.896c0-2.457,0.002-4.895,0.006-7.304
		C26.912,160.476,24.39,159.478,23.044,158.428"/>
	<path fill="#09E6E1" d="M34.367,162.153c0,0.053,0,0.108,0,0.162c14.342,2.981,39.676,4.962,68.537,4.962c0.128,0,0.253,0,0.381,0
		C74.067,167.258,48.5,165.21,34.367,162.153 M23.054,157.678l-0.009,0.75c1.346,1.05,3.868,2.048,7.38,2.97
		c0-0.069,0-0.137,0-0.206C26.516,160.108,23.962,158.925,23.054,157.678"/>
	<path fill="#CCFFFF" d="M133.623,166.525c-2.171,0.114-4.391,0.215-6.649,0.304c-13.545,31.533-27.233,63.009-41.214,94.36
		l-0.455,1.019l-1.038-0.002h-0.02c-1.668,0.352-3.229,0.92-4.638,1.692c-1.405,0.776-2.656,1.745-3.698,2.862
		c-1.049,1.111-1.883,2.372-2.5,3.704c-0.155,0.334-0.287,0.676-0.417,1.018c-0.13,0.344-0.238,0.678-0.35,1.066l-0.126,0.499
		c-0.04,0.176-0.079,0.353-0.111,0.529c-0.065,0.354-0.123,0.706-0.164,1.059c-0.322,2.826,0.306,5.676,1.702,8.043
		c0.696,1.182,1.573,2.246,2.595,3.13c0.509,0.445,1.054,0.847,1.63,1.2c0.287,0.178,0.581,0.345,0.884,0.5
		c0.151,0.076,0.303,0.151,0.457,0.221l0.418,0.184l0.324,0.132l0.219,0.082c0.125,0.047,0.309,0.112,0.463,0.161
		c0.322,0.105,0.649,0.195,0.978,0.271c0.657,0.158,1.326,0.26,2,0.305c0.29,0.021,0.581,0.031,0.873,0.031
		c1.064,0,2.134-0.139,3.177-0.407c2.661-0.686,5.121-2.256,6.891-4.482c0.889-1.107,1.612-2.396,2.125-3.775
		c0.508-1.377,0.807-2.859,0.853-4.385c0.055-1.527-0.146-3.097-0.59-4.639c-0.449-1.542-1.151-3.049-2.082-4.479l-0.638-0.98
		l0.306-0.791C107.505,232.039,120.491,199.253,133.623,166.525"/>
	<path fill="#1C4C4D" d="M84.206,258.91L84.206,258.91 M141.583,166.042c-2.574,0.18-5.231,0.341-7.961,0.483
		c-13.132,32.728-26.117,65.513-38.792,98.431l-0.306,0.791l0.638,0.98c0.931,1.431,1.633,2.937,2.082,4.479
		c0.444,1.542,0.645,3.111,0.59,4.639c-0.046,1.526-0.345,3.007-0.853,4.385c-0.514,1.379-1.236,2.668-2.125,3.775
		c-1.771,2.227-4.23,3.797-6.891,4.482c-1.043,0.269-2.113,0.407-3.177,0.407c-0.292,0-0.583-0.011-0.873-0.031
		c-0.675-0.045-1.344-0.146-2-0.305c-0.329-0.076-0.656-0.166-0.978-0.271c-0.154-0.049-0.338-0.114-0.463-0.161l-0.219-0.082
		l-0.324-0.132l-0.418-0.184c-0.154-0.069-0.306-0.145-0.457-0.221c-0.303-0.155-0.597-0.322-0.884-0.5
		c-0.577-0.354-1.122-0.755-1.63-1.2c-1.022-0.885-1.899-1.949-2.595-3.13c-1.396-2.367-2.024-5.217-1.702-8.043
		c0.041-0.353,0.099-0.706,0.164-1.059c0.032-0.177,0.071-0.354,0.111-0.529l0.126-0.499c0.112-0.388,0.22-0.722,0.35-1.066
		c0.13-0.342,0.262-0.684,0.417-1.018c0.617-1.332,1.451-2.593,2.5-3.704c1.042-1.118,2.292-2.086,3.698-2.862
		c1.409-0.772,2.97-1.34,4.638-1.692h0.02l1.038,0.002l0.455-1.019c13.981-31.351,27.669-62.827,41.214-94.36
		c-2.52,0.099-5.087,0.183-7.704,0.25c-12.221,30.504-24.306,61.059-36.124,91.729c-0.34-0.022-0.682-0.033-1.024-0.033
		c-3.514,0-7.127,1.162-10.144,3.32c-1.806,1.292-3.402,2.933-4.661,4.824c-0.315,0.472-0.615,0.957-0.884,1.458
		c-0.271,0.497-0.524,1.024-0.739,1.51c-0.128,0.297-0.232,0.553-0.337,0.82c-0.103,0.269-0.202,0.537-0.293,0.81
		c-0.186,0.544-0.341,1.101-0.477,1.664c-0.539,2.25-0.668,4.617-0.383,6.938c0.289,2.323,0.984,4.605,2.064,6.703
		c1.074,2.1,2.53,4.018,4.28,5.627c0.874,0.807,1.823,1.532,2.824,2.174c0.501,0.319,1.017,0.615,1.544,0.889
		c0.263,0.136,0.528,0.269,0.798,0.394c0.134,0.061,0.268,0.127,0.403,0.184l0.458,0.197l0.325,0.128l0.436,0.165
		c0.313,0.114,0.569,0.201,0.86,0.292c0.566,0.179,1.14,0.336,1.721,0.464c1.162,0.255,2.345,0.416,3.533,0.462
		c0.276,0.011,0.553,0.017,0.83,0.017c2.1,0,4.193-0.329,6.177-0.969c2.248-0.719,4.354-1.839,6.201-3.276
		c1.844-1.442,3.426-3.205,4.637-5.178c0.608-0.983,1.119-2.021,1.535-3.085c0.107-0.269,0.2-0.528,0.299-0.81l0.126-0.382
		c0.05-0.152,0.092-0.289,0.132-0.423c0.166-0.545,0.296-1.101,0.407-1.657c0.449-2.227,0.48-4.517,0.117-6.707
		c-0.662-4.01-2.688-7.666-5.563-10.196C113.021,232.213,127.377,199.157,141.583,166.042"/>
	<path fill="#0BE0DA" d="M30.434,156.654h-7.367l-0.007,0.579h7.373C30.433,157.039,30.434,156.849,30.434,156.654 M123.453,156.654
		H34.356c0,0.195,0.001,0.384,0.001,0.579h88.862C123.298,157.04,123.375,156.848,123.453,156.654 M183.3,156.654h-37.693
		c-0.083,0.193-0.166,0.387-0.248,0.579h37.928C183.291,157.042,183.295,156.846,183.3,156.654"/>
	<path fill="#CEF9F8" d="M137.588,156.654h-6.249c-0.083,0.194-0.165,0.385-0.248,0.579h6.264
		C137.433,157.04,137.51,156.848,137.588,156.654"/>
	<path fill="#1E4645" d="M131.339,156.654h-7.886c-0.078,0.194-0.155,0.386-0.233,0.579h7.871
		C131.174,157.039,131.255,156.849,131.339,156.654 M145.606,156.654h-8.019c-0.078,0.194-0.155,0.386-0.233,0.579h8.003
		C145.441,157.041,145.524,156.847,145.606,156.654"/>
	<path fill="#02F9F8" d="M119.278,167.059c-5.167,0.14-10.517,0.214-15.993,0.218c0.128,0,0.253,0,0.381,0
		c5.337,0,10.555-0.068,15.603-0.197C119.273,167.071,119.275,167.067,119.278,167.059 M183.269,157.975
		c-3.276,3.463-19.269,6.411-41.661,8.012c-0.008,0.018-0.016,0.038-0.024,0.055c21.37-1.487,37.052-4.194,41.669-7.412
		C183.258,158.411,183.263,158.193,183.269,157.975"/>
	<path fill="#09E5E0" d="M30.433,157.233H23.06l-0.006,0.444c0.909,1.247,3.462,2.431,7.371,3.514
		C30.427,159.865,30.429,158.544,30.433,157.233 M123.22,157.233H34.357c0.004,1.627,0.007,3.269,0.01,4.919
		c14.133,3.057,39.7,5.105,68.918,5.124c5.476-0.004,10.825-0.078,15.993-0.218C120.59,163.785,121.906,160.506,123.22,157.233
		 M183.286,157.233h-37.928c-1.25,2.919-2.5,5.836-3.751,8.753c22.393-1.601,38.385-4.549,41.661-8.012
		C183.274,157.726,183.28,157.482,183.286,157.233"/>
	<path fill="#A5F9F8" d="M137.355,157.233h-6.264c-1.372,3.2-2.743,6.397-4.117,9.596c2.258-0.089,4.478-0.19,6.649-0.304
		C134.865,163.429,136.11,160.33,137.355,157.233"/>
	<path fill="#196A69" d="M131.091,157.233h-7.871c-1.314,3.272-2.63,6.552-3.941,9.825c-0.003,0.008-0.005,0.013-0.008,0.021
		c2.616-0.067,5.184-0.15,7.704-0.25C128.348,163.631,129.719,160.434,131.091,157.233 M145.358,157.233h-8.003
		c-1.245,3.097-2.49,6.195-3.732,9.292c2.729-0.143,5.387-0.304,7.961-0.483c0.008-0.018,0.016-0.037,0.024-0.055
		C142.859,163.069,144.109,160.152,145.358,157.233"/>
	<path fill="#70FFFF" d="M47.617,175.381c-4.368,0-7.907,3.54-7.907,7.907c0,4.366,3.54,7.906,7.907,7.906
		c4.367,0,7.905-3.54,7.905-7.906C55.522,178.921,51.984,175.381,47.617,175.381"/>
	<path fill="#70FFFF" d="M56.313,199.101c-2.207,0-3.997,1.79-3.997,3.998c0,2.207,1.791,3.996,3.997,3.996
		c2.208,0,3.997-1.789,3.997-3.996C60.31,200.891,58.521,199.101,56.313,199.101"/>
	<path fill="#70FFFF" d="M147.987,240.786c-1.602,0-2.899,1.299-2.899,2.9s1.298,2.899,2.899,2.899c1.601,0,2.899-1.298,2.899-2.899
		S149.587,240.786,147.987,240.786"/>
	<path fill="#70FFFF" d="M143.178,250.121c-1.056,0-1.911,0.855-1.911,1.91s0.855,1.911,1.911,1.911c1.055,0,1.91-0.856,1.91-1.911
		S144.232,250.121,143.178,250.121"/>
	<path fill="#231F20" d="M184.689,83.599l0.006-0.219l0.021-0.382c0.016-0.215,0.037-0.425,0.066-0.63
		c0.052-0.41,0.125-0.802,0.212-1.175c0.171-0.749,0.388-1.436,0.626-2.081c0.48-1.288,1.024-2.436,1.587-3.529
		c1.124-2.176,2.307-4.161,3.432-6.096c0.565-0.961,1.123-1.901,1.644-2.812c0.516-0.906,1.015-1.792,1.372-2.555
		c0.173-0.376,0.317-0.722,0.355-0.917l-0.036-0.06c-0.023,0.044-0.053,0.119-0.085,0.259c-0.032,0.146-0.068,0.357-0.065,0.677
		c0.005,0.318,0.054,0.755,0.236,1.27c0.177,0.51,0.505,1.061,0.882,1.471c0.376,0.414,0.764,0.689,1.063,0.855
		c0.302,0.169,0.523,0.25,0.685,0.302c0.319,0.094,0.399,0.087,0.407,0.092l-0.064-0.005l-0.408-0.004l-13.052-0.17l-13.052-0.214
		l-52.209-0.866l-52.209-0.901L40,65.444l-13.052-0.233l-6.526-0.115l-3.264-0.058c-0.544-0.008-1.088-0.014-1.631-0.08
		l-1.632-0.217c-0.544-0.053-1.088-0.085-1.631-0.025c-0.544,0.084-1.088,0.436-1.632,0.496l-0.204,0.024
		c-0.099,0.009-0.092,0.013-0.168,0.023l-0.148,0.026l-0.083,0.027c-0.123,0.037-0.196,0.092-0.122,0.101
		c0.035,0.002,0.113-0.009,0.241-0.067c0.125-0.057,0.306-0.175,0.475-0.36c0.169-0.182,0.306-0.423,0.38-0.622
		c0.076-0.203,0.101-0.359,0.117-0.453c0.026-0.19,0.044-0.18,0.099-0.124c0.057,0.064,0.139,0.183,0.241,0.322
		c0.204,0.278,0.481,0.626,0.781,0.979c0.609,0.712,1.322,1.466,2.05,2.235c1.463,1.544,3.02,3.155,4.472,4.985
		c0.727,0.917,1.435,1.888,2.104,2.952c0.667,1.07,1.298,2.226,1.829,3.587c0.264,0.68,0.501,1.413,0.679,2.23
		c0.09,0.408,0.165,0.837,0.217,1.291c0.026,0.226,0.046,0.458,0.058,0.698c0.006,0.121,0.013,0.239,0.014,0.364l0.002,0.306
		l-0.007,3.263l-0.017,6.526l-0.057,13.052c-0.047,8.701-0.117,17.402-0.211,26.104l-0.335,26.105
		c-0.516,34.805-1.248,69.61-1.571,104.417l-0.205,26.074c0.004,1.826,0.481,3.624,1.368,5.187c0.882,1.563,2.164,2.872,3.627,3.812
		c1.463,0.949,3.103,1.528,4.753,1.771c0.414,0.063,0.829,0.1,1.244,0.118c0.208,0.008,0.416,0.014,0.624,0.011
		c0.104-0.001,0.208-0.002,0.311-0.008l0.36-0.012l3.263-0.109l52.208-1.723l52.208-1.656l26.104-0.82l6.526-0.205
		c0.159-0.003,0.013-0.003,0.104-0.007l0.203-0.009l0.112-0.011l0.037-0.009c0.091-0.012,0.235-0.031,0.347-0.05
		c0.24-0.043,0.474-0.098,0.702-0.165c0.458-0.134,0.894-0.32,1.302-0.552c0.818-0.46,1.53-1.112,2.054-1.87
		c0.528-0.757,0.859-1.609,0.992-2.471l2.78-102.422c0.956-34.806,1.709-69.612,2.196-104.418V83.599 M192.312,83.659
		c0.488,34.805,1.24,69.612,2.195,104.418l1.436,52.209l0.682,26.104l0.32,13.052l0.161,6.526l0.079,3.313
		c0.024,1.728-0.232,3.465-0.66,5.15c-0.857,3.375-2.489,6.53-4.705,9.149c-2.211,2.625-5.004,4.731-8.123,6.128
		c-1.558,0.698-3.193,1.222-4.862,1.55c-0.834,0.163-1.676,0.281-2.518,0.351c-0.429,0.035-0.828,0.057-1.279,0.07l-0.372,0.007
		c-0.134,0.002-0.248,0.003-0.296,0.001l-0.51-0.009l-6.526-0.204l-26.104-0.821l-52.208-1.655l-52.208-1.724l-3.263-0.108
		l-0.456-0.018c-0.168-0.005-0.336-0.017-0.504-0.029c-0.335-0.023-0.67-0.059-1.003-0.101c-0.667-0.086-1.329-0.218-1.979-0.383
		c-2.607-0.659-5.01-1.968-6.977-3.695c-3.957-3.461-6.158-8.547-6.22-13.602l-0.209-26.135
		c-0.326-34.806-1.056-69.611-1.572-104.417l-0.335-26.105c-0.093-8.702-0.163-17.403-0.211-26.104l-0.057-13.052l-0.015-6.526
		l-0.009-3.263l-0.001-0.1L14,83.591l-0.01-0.115c-0.011-0.087-0.03-0.194-0.057-0.317c-0.056-0.246-0.148-0.552-0.27-0.888
		c-0.242-0.675-0.606-1.461-1.021-2.277c-0.417-0.82-0.891-1.678-1.391-2.557c-1.002-1.763-2.083-3.614-3.184-5.585
		c-0.55-0.991-1.102-2.008-1.647-3.141c-0.273-0.572-0.545-1.164-0.802-1.872c-0.127-0.354-0.253-0.74-0.36-1.194
		c-0.104-0.462-0.206-0.99-0.184-1.725c0.017-0.366,0.073-0.795,0.227-1.258c0.151-0.461,0.415-0.948,0.755-1.342
		c0.338-0.397,0.731-0.692,1.088-0.891c0.361-0.2,0.689-0.318,0.984-0.4c0.59-0.16,1.06-0.189,1.478-0.194L9.93,59.84
		c0.13,0.002,0.194,0.01,0.259,0.015l0.239,0.022l0.204,0.024c0.544,0.059,1.088,0.412,1.632,0.496
		c0.543,0.06,1.087,0.029,1.631-0.025l1.632-0.218c0.543-0.065,1.087-0.072,1.631-0.079l3.264-0.058l6.526-0.116L40,59.669
		l26.104-0.465l52.209-0.9l52.209-0.867l13.052-0.214l13.052-0.17l0.408-0.004c0.22,0,0.483,0.004,0.752,0.02
		c0.55,0.04,1.173,0.102,2.014,0.349c0.423,0.129,0.899,0.307,1.441,0.606c0.538,0.295,1.149,0.732,1.709,1.347
		c0.562,0.607,1.037,1.395,1.31,2.159c0.278,0.768,0.37,1.479,0.387,2.067c0.021,1.185-0.195,1.934-0.382,2.542
		c-0.199,0.605-0.408,1.057-0.616,1.463c-0.417,0.793-0.815,1.393-1.212,1.942c-0.791,1.087-1.555,1.973-2.316,2.827l-2.224,2.443
		c-1.446,1.574-2.802,3.133-3.864,4.719c-0.525,0.79-0.979,1.583-1.286,2.324c-0.154,0.37-0.271,0.723-0.343,1.033
		c-0.034,0.156-0.06,0.301-0.076,0.43l-0.014,0.18l-0.002,0.217V83.659"/>
	<path fill="#FFFFFF" d="M32.395,73.806c-0.972,0-1.78,33.702-1.946,78.098c1.186-0.311,2.484-0.612,3.888-0.904
		C34.165,107.05,33.36,73.806,32.395,73.806"/>
	<path fill="#4AE8E4" d="M34.337,151c-1.404,0.292-2.703,0.594-3.888,0.904c-0.006,1.57-0.011,3.154-0.015,4.75h3.922
		C34.351,154.752,34.345,152.865,34.337,151"/>
	<path fill="#42FFFF" d="M30.424,161.397c-0.004,2.409-0.006,4.847-0.006,7.304c0,52.41,0.886,94.896,1.977,94.896
		s1.977-42.486,1.977-94.896c0-2.146-0.001-4.275-0.004-6.387C32.941,162.019,31.625,161.712,30.424,161.397"/>
	<path fill="#49ECE9" d="M30.424,161.191c0,0.069,0,0.137,0,0.206c1.201,0.315,2.517,0.621,3.943,0.917c0-0.053,0-0.108,0-0.162
		C32.932,161.843,31.616,161.522,30.424,161.191"/>
	<path fill="#4AE8E4" d="M34.356,156.654h-3.922c0,0.195-0.001,0.384-0.001,0.579h3.925
		C34.357,157.039,34.356,156.849,34.356,156.654"/>
	<path fill="#49ECE8" d="M34.357,157.233h-3.925c-0.003,1.311-0.006,2.632-0.008,3.958c1.191,0.331,2.507,0.651,3.943,0.961
		C34.365,160.502,34.361,158.86,34.357,157.233"/>
</g>
</svg>
