<?xml version="1.0" encoding="utf-8"?>
<!-- Generator: Adobe Illustrator 15.0.0, SVG Export Plug-In . SVG Version: 6.00 Build 0)  -->
<!DOCTYPE svg PUBLIC "-//W3C//DTD SVG 1.1//EN" "http://www.w3.org/Graphics/SVG/1.1/DTD/svg11.dtd">
<svg version="1.1" id="Layer_1" xmlns="http://www.w3.org/2000/svg" xmlns:xlink="http://www.w3.org/1999/xlink" x="0px" y="0px"
	 width="101px" height="327.281px" viewBox="0 0 101 327.281" enable-background="new 0 0 101 327.281" xml:space="preserve">
<g>
	<path fill="#D6D6D7" d="M49.734,318.673c-6.535,0-11.832,0.733-11.832,1.635c0,0.901,5.297,1.634,11.832,1.634
		c6.537,0,11.834-0.733,11.834-1.634C61.568,319.406,56.271,318.673,49.734,318.673"/>
	<path fill="#FFFFFF" d="M83.936,4.68H15.561c-4.088,0-7.4,4.753-7.4,10.616c0,5.863,3.312,10.616,7.4,10.616h5.582v177.448
		c0,14.142,14.464,27.606,28.607,27.606c14.142,0,28.604-13.464,28.604-27.606V25.913h5.582c4.088,0,7.4-4.753,7.4-10.616
		C91.336,9.434,88.023,4.68,83.936,4.68z"/>
	<path fill="#231F20" d="M64.825,41.294c-2.152-0.957-4.996-1.352-8.575-1.368c-3.93-0.018-7.834,0.225-11.741,0.621
		c-7.782,0.79-15.534,1.784-23.366,1.367v161.447c0,14.142,14.464,27.606,28.607,27.606c14.142,0,28.604-13.464,28.604-27.606
		V41.487C74.453,43.45,69.659,43.445,64.825,41.294z"/>
	<path fill="#231F20" d="M83.936,6.097c-8.54-0.091-17.08-0.151-25.621-0.085c-8.54,0.058-17.08,0.248-25.62,0.399L19.884,6.675
		l-3.202,0.066l-0.801,0.016l-0.2,0.004L15.58,6.763c0.025,0-0.092,0.001,0.051,0l-0.025,0.001l-0.05,0.003
		c-0.106,0.011-0.326,0.014-0.339,0.031c-0.206,0.033-0.594,0.148-0.865,0.3c-1.201,0.631-2.024,2.145-2.455,3.712
		c-0.443,1.607-0.656,3.222-0.725,5.037c-0.037,1.626,0.234,3.43,0.873,4.934c0.646,1.518,1.625,2.781,2.967,3.345
		c0.17,0.067,0.348,0.12,0.531,0.166l0.793,0.13l1.602,0.289c1.068,0.206,2.136,0.427,3.203,0.702h0.002l0.485-0.014l0.015,0.514
		c1.076,36.838,1.812,73.674,2.469,110.511l0.839,55.256l0.105,6.907l0.052,3.454l0.027,1.663c0,0.326,0.02,0.468,0.027,0.69
		l0.057,0.696c0.404,3.737,1.922,7.481,4.201,10.822c2.27,3.349,5.319,6.287,8.827,8.449c3.499,2.172,7.536,3.461,11.501,3.476
		c3.965-0.029,7.994-1.333,11.479-3.517c3.492-2.176,6.521-5.122,8.771-8.467c2.26-3.337,3.757-7.064,4.158-10.776
		c0.046-0.464,0.077-0.928,0.084-1.39l0.026-1.646l0.053-3.454l0.107-6.907l0.854-55.256c0.674-36.837,1.438-73.674,2.574-110.511
		l0.016-0.515l0.484,0.015h0.004c1.422-0.425,2.842-0.741,4.264-1.018c0.664-0.157,1.573-0.248,1.832-0.434
		c0.432-0.178,0.807-0.448,1.158-0.759c1.399-1.278,2.238-3.477,2.507-5.689c0.061-0.559,0.11-1.123,0.104-1.691l-0.021-0.878
		l-0.04-0.819c-0.065-1.123-0.154-2.245-0.347-3.374c-0.195-1.12-0.547-2.255-1.209-3.149C85.959,6.703,84.979,6.109,83.936,6.097z
		 M83.936,3.264c1.818-0.026,3.591,0.639,5.062,1.62c1.47,0.996,2.708,2.298,3.641,3.78c0.941,1.48,1.517,3.157,1.728,4.86
		c0.058,0.392,0.085,0.93,0.09,1.309l0.003,0.266l0.002,0.133l-0.008,0.213l-0.035,0.64c-0.066,0.852-0.175,1.704-0.377,2.542
		c-0.393,1.675-1.056,3.31-2.053,4.789c-1.002,1.464-2.354,2.816-4.121,3.626c-0.871,0.412-1.85,0.649-2.822,0.692
		c-1.149,0.028-1.67-0.178-2.424-0.304c-1.422-0.277-2.842-0.593-4.264-1.018h-0.004l0.5-0.5
		c1.137,36.838,1.898,73.674,2.574,110.511l0.854,55.256l0.107,6.907l0.053,3.454l0.014,0.863l0.006,0.431l-0.006,0.512
		c-0.011,0.688-0.055,1.375-0.123,2.055c-0.532,5.48-2.875,10.479-6.039,14.554c-3.196,4.082-7.207,7.385-11.718,9.764
		c-4.505,2.351-9.556,3.896-14.827,3.877c-5.271,0.005-10.312-1.556-14.803-3.92c-4.494-2.392-8.484-5.702-11.66-9.78
		c-3.146-4.072-5.471-9.054-6-14.507c-0.035-0.341-0.059-0.674-0.084-1.026c-0.016-0.352-0.038-0.785-0.037-1.035l-0.006-0.495
		l0.006-0.431l0.014-0.863l0.052-3.454l0.106-6.907l0.838-55.256c0.656-36.837,1.393-73.674,2.469-110.511l0.5,0.5h-0.002
		c-1.067,0.275-2.135,0.496-3.203,0.702l-1.602,0.289c-0.27,0.051-0.525,0.09-0.808,0.129c-0.35,0.035-0.705,0.05-1.062,0.034
		c-1.438-0.052-2.84-0.593-3.985-1.377c-1.151-0.788-2.085-1.792-2.832-2.882c-1.476-2.214-2.263-4.674-2.473-7.306
		c-0.232-2.445,0.229-5.158,1.497-7.47c1.26-2.303,3.244-4.432,6.038-5.456c0.718-0.251,1.376-0.399,2.233-0.464
		c0.252-0.021,0.299-0.007,0.459-0.012l0.477,0.005l0.801,0.016l3.202,0.066l12.811,0.264c8.54,0.151,17.08,0.342,25.62,0.399
		C66.855,3.415,75.396,3.354,83.936,3.264z"/>
	<ellipse fill="#605A5C" cx="49.736" cy="42.68" rx="27.625" ry="4.681"/>
	<circle fill="#FFFFFF" cx="34.638" cy="196.402" r="2.487"/>
	<circle fill="#FFFFFF" cx="42.909" cy="177.464" r="1.808"/>
	<circle fill="#FFFFFF" cx="46.525" cy="172.069" r="1.809"/>
	<circle fill="#FFFFFF" cx="33.229" cy="126.709" r="2.537"/>
	<circle fill="#FFFFFF" cx="69.303" cy="57.635" r="2.538"/>
</g>
</svg>
