<?xml version="1.0" encoding="utf-8"?>
<!-- Generator: Adobe Illustrator 15.0.0, SVG Export Plug-In . SVG Version: 6.00 Build 0)  -->
<!DOCTYPE svg PUBLIC "-//W3C//DTD SVG 1.1//EN" "http://www.w3.org/Graphics/SVG/1.1/DTD/svg11.dtd">
<svg version="1.1" id="Layer_1" xmlns="http://www.w3.org/2000/svg" xmlns:xlink="http://www.w3.org/1999/xlink" x="0px" y="0px"
	 width="1280px" height="800px" viewBox="0 0 1280 800" enable-background="new 0 0 1280 800" xml:space="preserve">
<g>
	<polyline fill="#FFFFFF" points="1280.002,797 0,797 0,-3 1280.002,-3 1280.002,797 	"/>
	<g>
		<path fill="#343434" d="M496.886,615.036v-24.975c1.562,0.39,3.003,0.586,4.321,0.586c3.124,0,5.127-1.075,6.006-3.223
			c0.83-2.197,1.245-7.446,1.245-15.748v-64.232h-9.375v-24.391h57.495v24.391h-8.716v59.691c0,11.085-0.293,18.896-0.879,23.438
			c-0.586,4.59-2.271,8.96-5.054,13.111c-2.882,4.198-6.592,7.348-11.133,9.447s-10.84,3.15-18.896,3.15
			C507.261,616.282,502.257,615.866,496.886,615.036z"/>
		<path fill="#343434" d="M665.123,584.935h-97.192v-24.391h7.91v-53.1h-8.057v-24.391h97.339v32.594H638.39v-8.203h-23.145v15.674
			h20.142v20.727h-20.142v16.699h23.145v-8.203h26.733V584.935z"/>
		<path fill="#343434" d="M758.58,584.935h-57.202v-24.391h8.789v-53.1h-11.719v18.529h-19.116v-42.92h101.001v42.92h-19.116
			v-18.529h-11.646v53.1h9.009V584.935z"/>
	</g>
	<path fill="#D6D6D7" d="M640.132,372.55c-5.776,0-10.46,1.102-10.46,2.459c0,1.358,4.684,2.459,10.46,2.459
		c5.777,0,10.46-1.101,10.46-2.459C650.592,373.651,645.909,372.55,640.132,372.55"/>
	<path fill="#FFFFFF" d="M665.9,171.554h-51.871c-3.101,0-5.614,2.934-5.614,6.553s2.514,6.553,5.614,6.553h4.235v134.215
		c0,8.729,10.972,17.039,21.701,17.039s21.699-8.311,21.699-17.039V184.659h4.235c3.101,0,5.614-2.934,5.614-6.553
		S669.001,171.554,665.9,171.554z"/>
	<path fill="#343434" d="M654.981,211.081c-7.478-1.049-16.553,0.166-24.633-0.373c-2.429-0.162-4.959-0.363-7.426-0.747
		c-0.512,0.079-1.03,0.142-1.562,0.171c-0.825,0.104-1.653,0.19-2.482,0.207c-0.197,0.004-0.407-0.007-0.613-0.014v108.549
		c0,8.729,10.972,17.039,21.701,17.039s21.699-8.311,21.699-17.039V210.685C659.63,211.274,657.327,211.411,654.981,211.081z"/>
	<path fill="#231F20" d="M665.9,174.486c-6.478,0.015-12.958,0.106-19.436,0.036c-6.48-0.014-12.959-0.133-19.437-0.225
		l-9.719-0.167l-2.43-0.042l-0.608-0.01l-0.15-0.004h-0.075c0.042-0.002-0.126,0.002,0.094-0.002h-0.02h-0.039h-0.15h-0.078
		l0.013,0.001l-0.062-0.003l-0.163,0.025c-0.479,0.064-1.368,0.572-1.959,1.395c-0.628,0.818-0.969,1.839-0.971,2.955
		c-0.005,1.002,0.278,2.104,0.83,2.963c0.541,0.883,1.426,1.467,2.184,1.574c0.099,0.016,0.197,0.023,0.298,0.027l0.596,0.006
		l1.216-0.002c0.811,0,1.619,0,2.43-0.014h0.002l2.118,0.067l-0.08,1.591c-0.671,13.426-0.889,26.852-1.023,40.277l-0.057,10.07
		l0.026,10.068c0.001,3.357,0.022,6.713,0.077,10.07l0.067,5.035l0.124,5.033c0.376,13.427,1.031,26.852,1.461,40.278
		c0.115,3.356,0.173,6.712,0.24,10.069l0.053,2.518l0.028,1.203c0.014,0.281,0.054,0.657,0.108,0.988
		c0.238,1.359,0.744,2.721,1.507,4.021c1.508,2.607,3.934,4.998,6.918,6.771c2.962,1.792,6.577,2.909,10.133,2.919
		c3.556-0.021,7.162-1.152,10.102-2.955c2.965-1.783,5.365-4.176,6.858-6.77c0.756-1.295,1.259-2.648,1.501-3.998
		c0.124-0.702,0.12-1.266,0.144-2.18l0.066-2.518c0.091-3.357,0.16-6.713,0.312-10.069c0.516-13.427,1.458-26.852,1.85-40.278
		c0.096-3.355,0.196-6.712,0.215-10.068c0.044-3.357,0.082-6.713,0.051-10.07l-0.03-10.068l-0.162-10.07
		c-0.035-3.355-0.157-6.712-0.254-10.068c-0.082-3.357-0.218-6.713-0.37-10.069c-0.287-6.714-0.656-13.427-1.241-20.14l-0.173-1.994
		l2.832-0.17h0.004c1.078,0.094,2.157,0.154,3.234,0.199c0.49,0.026,1.254,0.047,1.251,0.039c0.222-0.014,0.463-0.059,0.709-0.174
		c1.036-0.43,1.957-1.736,2.181-3.09c0.065-0.341,0.1-0.689,0.104-1.039l-0.002-0.262l-0.023-0.279
		c-0.02-0.205-0.042-0.309-0.087-0.5c-0.154-0.681-0.515-1.315-0.975-1.812c-0.459-0.5-1.024-0.85-1.453-1.002
		C666.152,174.423,665.98,174.481,665.9,174.486z M665.9,168.622c1.026,0.01,2.057,0.202,2.937,0.541
		c0.888,0.336,1.629,0.794,2.221,1.301c1.19,1.012,1.829,2.167,2.228,3.273c0.401,1.113,0.544,2.207,0.599,3.27
		c0.008,0.246,0.017,0.58,0.013,0.814l-0.016,0.378l-0.022,0.396c-0.041,0.525-0.127,1.052-0.262,1.572
		c-0.28,1.039-0.715,2.066-1.402,3.039c-0.702,0.957-1.631,1.9-3.002,2.578c-0.683,0.33-1.465,0.6-2.312,0.721
		c-0.098,0.018-0.244,0.03-0.364,0.043l-0.315,0.025l-0.202,0.011l-0.287,0.008l-0.809,0.033c-1.077,0.046-2.156,0.106-3.234,0.198
		h-0.004l2.66-2.164c-0.584,6.713-0.954,13.426-1.24,20.14c-0.15,3.356-0.287,6.712-0.372,10.069
		c-0.096,3.356-0.216,6.713-0.253,10.068l-0.16,10.07l-0.032,10.068c-0.031,3.357,0.007,6.713,0.053,10.07
		c0.018,3.356,0.117,6.713,0.215,10.068c0.39,13.427,1.334,26.852,1.848,40.278c0.153,3.356,0.221,6.712,0.313,10.069l0.066,2.518
		c0.038,0.764,0.026,1.883-0.139,2.844c-0.297,1.98-1.091,3.862-2.173,5.57c-2.202,3.417-5.552,6.14-9.409,8.119
		c-3.876,1.938-8.346,3.244-13.077,3.234c-4.729-0.002-9.19-1.322-13.047-3.271c-3.835-1.99-7.16-4.715-9.35-8.118
		c-1.075-1.702-1.864-3.573-2.165-5.544c-0.076-0.502-0.132-0.963-0.151-1.521l-0.008-0.33l-0.003-0.195l0.003-0.158l0.014-0.629
		l0.05-2.518c0.07-3.357,0.127-6.713,0.243-10.069c0.43-13.427,1.084-26.852,1.461-40.278l0.125-5.033l0.066-5.035
		c0.057-3.357,0.074-6.713,0.077-10.07l0.026-10.068l-0.058-10.07c-0.133-13.426-0.352-26.852-1.023-40.277l2.039,1.66h-0.002
		c-0.811-0.016-1.619-0.016-2.43-0.016h-1.216l-0.616,0.004c-0.305-0.002-0.611-0.018-0.915-0.055
		c-1.217-0.145-2.314-0.598-3.171-1.164c-0.862-0.573-1.526-1.25-2.064-1.954c-1.053-1.437-1.572-2.966-1.708-4.593
		c-0.126-1.512,0.044-3.163,0.716-4.764c0.343-0.803,0.832-1.604,1.544-2.355c0.71-0.748,1.679-1.447,2.94-1.908
		c0.312-0.115,0.646-0.207,0.988-0.282c0.349-0.075,0.666-0.13,1.135-0.167l0.392-0.025l0.414-0.01l0.608-0.01l2.43-0.043
		l9.719-0.167c6.478-0.092,12.956-0.21,19.437-0.224C652.942,168.517,659.423,168.608,665.9,168.622z"/>
	<ellipse fill="#272828" cx="640.132" cy="211.313" rx="20.38" ry="2.889"/>
	<ellipse fill="#FFFFFF" cx="633.054" cy="318.843" rx="1.734" ry="1.41"/>
	<ellipse fill="#FFFFFF" cx="631.318" cy="264.173" rx="1.734" ry="1.41"/>
	<ellipse fill="#FFFFFF" cx="648.099" cy="217.681" rx="2.493" ry="2.029"/>
</g>
</svg>
