<?xml version="1.0" encoding="utf-8"?>
<!-- Generator: Adobe Illustrator 15.0.0, SVG Export Plug-In . SVG Version: 6.00 Build 0)  -->
<!DOCTYPE svg PUBLIC "-//W3C//DTD SVG 1.1//EN" "http://www.w3.org/Graphics/SVG/1.1/DTD/svg11.dtd">
<svg version="1.1" id="Layer_1" xmlns="http://www.w3.org/2000/svg" xmlns:xlink="http://www.w3.org/1999/xlink" x="0px" y="0px"
	 width="98px" height="356.409px" viewBox="0 0 98 356.409" enable-background="new 0 0 98 356.409" xml:space="preserve">
<g>
	<path fill="#D6D6D7" d="M51.7,341.558c-15.638,0-28.315,2.418-28.315,5.403s12.678,5.403,28.315,5.403
		c15.641,0,28.317-2.418,28.317-5.403S67.341,341.558,51.7,341.558"/>
	<path fill="#FFFFFF" d="M83.604,6.667H15.229c-4.088,0-7.4,4.753-7.4,10.616c0,5.864,3.312,10.616,7.4,10.616h5.582v247.448
		c0,14.142,14.464,27.607,28.607,27.607c14.142,0,28.604-13.465,28.604-27.607V27.899h5.582c4.088,0,7.4-4.752,7.4-10.616
		C91.004,11.419,87.691,6.667,83.604,6.667z"/>
	<path fill="#708090" d="M62.133,47.996c-12.853,0.135-25.646-1.373-38.493-1.45c-0.967-0.006-1.912-0.121-2.829-0.328v229.128
		c0,14.142,14.464,27.607,28.607,27.607c14.142,0,28.604-13.465,28.604-27.607V46.13C72.953,47.499,67.354,47.941,62.133,47.996z"/>
	<path fill="#231F20" d="M83.604,8.75L57.982,9.26c-8.539,0.188-17.08,0.394-25.62,0.501c-4.271,0.025-8.54,0.096-12.81,0.072
		L16.35,9.83l-0.801-0.001h-0.2H15.25c0.041-0.001-0.133,0.002,0.088-0.002l-0.024,0.001l-0.05,0.002l-0.2,0.007L14.963,9.84
		l-0.01,0.006c0.011,0.004-0.133,0.017-0.232,0.047c-0.107,0.026-0.217,0.058-0.327,0.106c-0.9,0.325-1.968,1.444-2.604,2.897
		c-0.664,1.467-0.962,3.13-0.932,4.937c0.029,1.621,0.34,3.394,0.988,4.859c0.658,1.476,1.592,2.696,2.861,3.247
		c0.16,0.072,0.328,0.129,0.505,0.179l0.792,0.146l1.602,0.321c1.067,0.232,2.135,0.486,3.202,0.814h0.003l0.49-0.01l0.01,0.51
		l0.707,36.378l0.624,36.377l1.044,72.756l0.793,72.755l0.197,18.189l0.1,9.094l0.025,2.21l0.006,0.284l0.012,0.204l0.025,0.425
		c0.021,0.308,0.055,0.615,0.09,0.923c0.154,1.232,0.456,2.455,0.828,3.673c0.383,1.216,0.873,2.416,1.473,3.578
		c0.572,1.175,1.25,2.316,2.012,3.411c1.526,2.188,3.387,4.192,5.484,5.914c4.16,3.462,9.449,5.75,14.686,5.753
		c5.236-0.021,10.511-2.33,14.646-5.804c4.178-3.452,7.342-8.066,8.896-12.887c0.366-1.212,0.668-2.427,0.818-3.652
		c0.074-0.611,0.119-1.222,0.13-1.831l0.026-2.2l0.102-9.094l0.201-18.189l0.807-72.755l1.08-72.756l0.654-36.377l0.744-36.378
		l0.01-0.511l0.49,0.011h0.004l4.264-0.248c0.69-0.055,1.49-0.045,1.994-0.168c0.582-0.128,1.133-0.373,1.633-0.71
		c2.023-1.381,3.127-3.962,3.455-6.475c0.322-2.542-0.057-5.212-1.141-7.384C87.178,10.232,85.299,8.638,83.604,8.75z M83.604,4.583
		c2.011,0.022,3.881,0.94,5.176,2.158c1.309,1.233,2.195,2.708,2.779,4.233c1.155,3.064,1.266,6.304,0.564,9.341
		c-0.359,1.519-0.943,2.991-1.789,4.325c-0.852,1.324-1.98,2.529-3.436,3.305c-0.723,0.386-1.523,0.649-2.348,0.742
		c-0.904,0.091-1.533-0.014-2.262-0.039l-4.264-0.248h-0.004l0.5-0.5l0.744,36.378l0.654,36.377l1.082,72.756l0.805,72.755
		l0.201,18.189l0.102,9.094l0.012,1.138c0.004,0.388,0.014,0.724,0.002,1.21c-0.016,0.907-0.08,1.81-0.189,2.703
		c-0.234,1.782-0.613,3.536-1.199,5.202c-2.301,6.714-6.934,12.082-12.365,15.972c-2.736,1.95-5.744,3.494-8.92,4.634
		c-3.184,1.106-6.568,1.804-10.033,1.776c-3.465,0.018-6.846-0.689-10.021-1.805c-3.169-1.149-6.167-2.702-8.891-4.658
		c-2.729-1.947-5.189-4.28-7.301-6.942c-1.054-1.332-2.021-2.748-2.872-4.25c-0.835-1.509-1.546-3.104-2.121-4.764
		c-0.581-1.66-0.958-3.406-1.19-5.18c-0.051-0.446-0.1-0.891-0.129-1.34l-0.041-0.71l-0.014-0.365l-0.005-0.284l-0.004-0.632
		l0.007-0.568l0.012-1.138l0.1-9.094l0.197-18.189l0.793-72.755l1.044-72.756l0.624-36.377l0.707-36.378l0.5,0.5h-0.003
		c-1.067,0.328-2.135,0.582-3.202,0.814l-1.602,0.321c-0.271,0.057-0.525,0.101-0.809,0.145c-0.357,0.041-0.723,0.06-1.09,0.048
		c-1.473-0.058-2.904-0.615-4.068-1.414c-1.17-0.807-2.109-1.833-2.853-2.942c-1.466-2.255-2.212-4.743-2.357-7.382
		c-0.135-2.453,0.243-5.118,1.29-7.569c0.522-1.233,1.229-2.436,2.18-3.536c0.949-1.09,2.172-2.103,3.711-2.735
		c0.381-0.159,0.782-0.289,1.193-0.391c0.416-0.103,0.801-0.174,1.344-0.221l0.189-0.015l0.1-0.004l0.2-0.007l0.515-0.005
		l0.801-0.001L19.553,3.5c4.27-0.024,8.539,0.046,12.81,0.071c8.54,0.107,17.081,0.313,25.62,0.501L83.604,4.583z"/>
	<ellipse fill="#607382" cx="49.329" cy="47.735" rx="27.69" ry="4.681"/>
	<circle fill="#FFFFFF" cx="39.09" cy="72.105" r="7.454"/>
	<circle fill="#FFFFFF" cx="66.471" cy="129.221" r="3.62"/>
	<circle fill="#FFFFFF" cx="51.703" cy="251.388" r="2.287"/>
	<circle fill="#FFFFFF" cx="36.423" cy="206.601" r="4.787"/>
</g>
</svg>
