<?xml version="1.0" encoding="utf-8"?>
<!-- Generator: Adobe Illustrator 15.0.0, SVG Export Plug-In . SVG Version: 6.00 Build 0)  -->
<!DOCTYPE svg PUBLIC "-//W3C//DTD SVG 1.1//EN" "http://www.w3.org/Graphics/SVG/1.1/DTD/svg11.dtd">
<svg version="1.1" id="Layer_1" xmlns="http://www.w3.org/2000/svg" xmlns:xlink="http://www.w3.org/1999/xlink" x="0px" y="0px"
	 width="101px" height="349.742px" viewBox="0 0 101 349.742" enable-background="new 0 0 101 349.742" xml:space="preserve">
<g>
	<path fill="#D6D6D7" d="M51.969,336.31c-7.615,0-13.789,1.783-13.789,3.985c0,2.199,6.174,3.983,13.789,3.983
		s13.787-1.784,13.787-3.983C65.756,338.093,59.584,336.31,51.969,336.31"/>
	<path fill="#FFFFFF" d="M85.936,10.667H17.562c-4.088,0-7.4,4.753-7.4,10.616s3.312,10.617,7.4,10.617h5.582v217.448
		c0,14.142,14.464,27.606,28.606,27.606s28.604-13.465,28.604-27.606V31.9h5.582c4.089,0,7.4-4.753,7.4-10.617
		S90.024,10.667,85.936,10.667z"/>
	<path fill="#343434" d="M71.543,74.707c-9.857-1.699-21.819,0.268-32.471-0.605c-3.2-0.262-6.537-0.588-9.789-1.211
		c-0.673,0.129-1.357,0.229-2.058,0.278c-1.089,0.166-2.18,0.308-3.274,0.334c-0.259,0.006-0.535-0.011-0.808-0.022v175.866
		c0,14.142,14.464,27.606,28.606,27.606s28.604-13.465,28.604-27.606V74.064C77.67,75.02,74.635,75.24,71.543,74.707z"/>
	<path fill="#231F20" d="M85.936,15.417c-8.539,0.023-17.079,0.171-25.619,0.059c-8.541-0.022-17.082-0.214-25.621-0.363
		l-12.811-0.271l-3.203-0.068l-0.801-0.017l-0.199-0.004l-0.1-0.002c0.057-0.001-0.164,0.002,0.123-0.003H17.68l-0.05,0l-0.2,0
		h-0.101l0.016,0.001l-0.081-0.004l-0.217,0.042c-0.629,0.104-1.804,0.927-2.582,2.258c-0.828,1.327-1.276,2.979-1.279,4.789
		c-0.005,1.623,0.367,3.406,1.095,4.8c0.713,1.431,1.878,2.376,2.879,2.55c0.128,0.024,0.259,0.038,0.39,0.045l0.787,0.008
		l1.603-0.002c1.067,0,2.135,0,3.202-0.022h0.003l2.792,0.109L25.831,31.9c-0.886,21.751-1.173,43.503-1.35,65.255l-0.075,16.314
		l0.035,16.314c0.003,5.438,0.027,10.876,0.102,16.313l0.088,8.158l0.164,8.157c0.496,21.752,1.359,43.503,1.926,65.255
		c0.154,5.438,0.229,10.876,0.319,16.314l0.067,4.078l0.037,1.95c0.018,0.455,0.071,1.064,0.143,1.6
		c0.312,2.202,0.982,4.409,1.986,6.517c1.988,4.223,5.186,8.098,9.12,10.969c3.903,2.903,8.67,4.713,13.356,4.729
		c4.686-0.033,9.439-1.866,13.315-4.787c3.908-2.889,7.071-6.766,9.04-10.969c0.996-2.097,1.66-4.29,1.979-6.475
		c0.164-1.138,0.158-2.052,0.189-3.533l0.088-4.078c0.12-5.438,0.211-10.876,0.411-16.314c0.679-21.752,1.922-43.503,2.437-65.255
		c0.127-5.438,0.26-10.876,0.283-16.314c0.06-5.438,0.109-10.875,0.069-16.313l-0.042-16.314l-0.212-16.314
		c-0.048-5.438-0.208-10.876-0.334-16.314c-0.11-5.438-0.29-10.876-0.489-16.314c-0.379-10.876-0.865-21.752-1.636-32.627
		l-0.229-3.233l3.734-0.273h0.005c1.421,0.15,2.843,0.248,4.264,0.321c0.646,0.044,1.652,0.077,1.649,0.064
		c0.291-0.024,0.609-0.096,0.935-0.282c1.364-0.697,2.579-2.814,2.874-5.006c0.086-0.553,0.131-1.117,0.137-1.684l-0.004-0.426
		l-0.028-0.452c-0.026-0.331-0.056-0.5-0.116-0.81c-0.203-1.102-0.678-2.13-1.283-2.937c-0.604-0.809-1.352-1.375-1.916-1.624
		C86.27,15.314,86.041,15.409,85.936,15.417z M85.936,5.917c1.354,0.016,2.711,0.326,3.872,0.876
		c1.169,0.545,2.146,1.287,2.927,2.107c1.568,1.641,2.412,3.511,2.936,5.305c0.529,1.802,0.717,3.574,0.79,5.297
		c0.009,0.398,0.022,0.938,0.015,1.317l-0.019,0.613l-0.029,0.64c-0.055,0.853-0.169,1.705-0.347,2.548
		c-0.369,1.683-0.941,3.349-1.847,4.923c-0.927,1.55-2.151,3.079-3.958,4.176c-0.898,0.537-1.932,0.972-3.046,1.169
		c-0.13,0.028-0.322,0.048-0.479,0.068l-0.416,0.041l-0.268,0.019l-0.379,0.012l-1.065,0.054c-1.421,0.073-2.843,0.171-4.264,0.322
		l-0.005,0L83.86,31.9c-0.771,10.875-1.257,21.751-1.636,32.627c-0.199,5.438-0.379,10.876-0.49,16.314
		c-0.125,5.438-0.285,10.876-0.333,16.314l-0.212,16.314l-0.042,16.314c-0.04,5.438,0.01,10.876,0.069,16.313
		c0.023,5.438,0.155,10.876,0.283,16.314c0.514,21.752,1.758,43.503,2.436,65.255c0.201,5.438,0.292,10.876,0.412,16.314
		l0.088,4.078c0.051,1.236,0.036,3.05-0.182,4.608c-0.392,3.21-1.438,6.258-2.864,9.025c-2.903,5.535-7.319,9.947-12.403,13.153
		c-5.108,3.14-11.002,5.256-17.236,5.239c-6.236-0.001-12.117-2.141-17.199-5.299c-5.057-3.224-9.438-7.639-12.323-13.153
		c-1.419-2.758-2.459-5.791-2.856-8.983c-0.1-0.813-0.172-1.558-0.199-2.463l-0.01-0.535l-0.004-0.318l0.004-0.255l0.018-1.02
		l0.067-4.078c0.091-5.438,0.166-10.876,0.319-16.314c0.566-21.752,1.43-43.503,1.926-65.255l0.164-8.157l0.088-8.158
		c0.074-5.438,0.099-10.875,0.102-16.313l0.035-16.314l-0.075-16.314c-0.177-21.752-0.464-43.504-1.35-65.255l2.688,2.688h-0.003
		c-1.067-0.023-2.135-0.023-3.202-0.023l-1.603-0.002l-0.812,0.006c-0.402-0.001-0.807-0.027-1.205-0.086
		c-1.603-0.235-3.05-0.969-4.182-1.888C11,31.666,10.125,30.57,9.416,29.429c-1.388-2.326-2.071-4.804-2.252-7.44
		c-0.166-2.451,0.06-5.125,0.943-7.718c0.453-1.3,1.098-2.598,2.035-3.817c0.936-1.21,2.213-2.345,3.877-3.092
		c0.412-0.186,0.853-0.335,1.304-0.457c0.458-0.122,0.876-0.209,1.495-0.271l0.516-0.042l0.547-0.015l0.801-0.017l3.203-0.068
		l12.811-0.271c8.539-0.149,17.08-0.341,25.621-0.363C68.856,5.746,77.396,5.894,85.936,5.917z"/>
	<ellipse fill="#272828" cx="51.969" cy="75.083" rx="26.865" ry="4.681"/>
	<circle fill="#FFFFFF" cx="42.638" cy="249.295" r="2.287"/>
	<circle fill="#FFFFFF" cx="40.351" cy="160.722" r="2.286"/>
	<path fill="#FFFFFF" d="M65.757,85.4c0,1.815-1.474,3.287-3.286,3.287c-1.816,0-3.289-1.472-3.289-3.287
		c0-1.815,1.473-3.287,3.289-3.287C64.283,82.113,65.757,83.584,65.757,85.4z"/>
</g>
</svg>
