<?xml version="1.0" encoding="utf-8"?>
<!-- Generator: Adobe Illustrator 15.0.0, SVG Export Plug-In . SVG Version: 6.00 Build 0)  -->
<!DOCTYPE svg PUBLIC "-//W3C//DTD SVG 1.1//EN" "http://www.w3.org/Graphics/SVG/1.1/DTD/svg11.dtd">
<svg version="1.1" id="Layer_1" xmlns="http://www.w3.org/2000/svg" xmlns:xlink="http://www.w3.org/1999/xlink" x="0px" y="0px"
	 width="101px" height="363.79px" viewBox="0 0 101 363.79" enable-background="new 0 0 101 363.79" xml:space="preserve">
<g>
	<path fill="#D6D6D7" d="M47.859,351.815c-17.213,0-31.164,1.926-31.164,4.302c0,2.375,13.951,4.301,31.164,4.301
		c17.209,0,31.16-1.926,31.16-4.301C79.02,353.741,65.068,351.815,47.859,351.815"/>
	<path fill="#FFFFFF" d="M84.602,9.156H16.228c-4.088,0-7.4,4.752-7.4,10.616s3.312,10.616,7.4,10.616h5.582v277.448
		c0,14.142,14.464,27.606,28.606,27.606s28.604-13.465,28.604-27.606V30.388h5.582c4.089,0,7.4-4.753,7.4-10.616
		S88.69,9.156,84.602,9.156z"/>
	<path fill="#36454F" d="M70.145,39.796c-5.541-0.305-12.597-1.934-16.61-2.048c-4.433-0.126-8.821,0.436-13.226,0.868
		c-6.215,0.61-12.46,0.957-18.499,0.011v269.21c0,14.142,14.464,27.606,28.606,27.606s28.604-13.465,28.604-27.606V38.644
		C76.25,39.536,73.295,39.97,70.145,39.796z"/>
	<path fill="#231F20" d="M84.602,12.195c-8.539-0.275-17.079-1.153-25.619-1.479c-4.271-0.164-8.541-0.16-12.811-0.073
		c-4.271,0.122-8.54,0.376-12.811,0.719c-4.27,0.326-8.541,0.685-12.811,0.902L17.349,12.4l-0.801,0.035l-0.2,0.009l-0.1,0.005
		c0.045-0.001-0.137,0.002,0.094-0.001l-0.024,0.001l-0.05,0.003l-0.201,0.013l-0.099,0.006l-0.006,0.009l-0.202,0.065
		c-0.098,0.031-0.195,0.068-0.296,0.121c-0.796,0.377-1.757,1.443-2.417,2.832c-0.678,1.402-1.141,3.004-1.232,4.826
		c-0.125,1.636,0.127,3.469,0.74,5.024c0.641,1.555,1.66,2.896,3.094,3.437c0.181,0.067,0.367,0.118,0.561,0.16l0.793,0.118
		l1.602,0.252c1.068,0.174,2.136,0.363,3.203,0.574h0.003l0.491-0.009l0.009,0.509l0.696,40.128l0.619,40.128l1.033,80.256
		l0.78,80.255l0.194,20.064l0.098,10.031l0.049,5.016l0.014,1.254l0.007,0.564c0.001,0.22,0.007,0.421,0.017,0.548
		c0.029,0.604,0.102,1.337,0.212,1.998c0.901,5.422,4.028,10.792,8.435,14.828c2.203,2.017,4.709,3.75,7.435,4.953
		c2.717,1.216,5.644,1.881,8.519,1.9c2.874-0.03,5.796-0.704,8.504-1.931c2.717-1.213,5.212-2.956,7.4-4.978
		c4.354-4.067,7.479-9.397,8.361-14.791c0.109-0.674,0.18-1.349,0.211-2.021c0.01-0.168,0.014-0.336,0.015-0.504l0.009-0.566
		l0.012-1.254l0.05-5.016l0.099-10.031l0.198-20.064l0.792-80.255l1.074-80.256l0.646-40.128l0.732-40.128l0.01-0.51l0.49,0.01
		h0.006c1.421-0.316,2.842-0.578,4.262-0.813c0.673-0.134,1.554-0.205,1.874-0.38c0.468-0.179,0.876-0.459,1.257-0.782
		c1.516-1.34,2.308-3.652,2.491-5.902c0.161-2.284-0.281-4.614-1.075-6.504c-0.402-0.943-0.902-1.798-1.488-2.377
		C85.754,12.548,85.189,12.256,84.602,12.195z M84.602,6.117c2.277-0.075,4.464,0.893,5.989,2.19
		c1.548,1.31,2.637,2.893,3.364,4.551c1.445,3.345,1.49,6.925,0.629,10.22c-0.425,1.658-1.137,3.254-2.139,4.691
		c-0.994,1.437-2.349,2.718-4.049,3.511c-0.844,0.401-1.787,0.628-2.725,0.67c-1.088,0.04-1.637-0.146-2.385-0.25
		c-1.42-0.235-2.841-0.497-4.262-0.813H79.02l0.5-0.5l0.734,40.128l0.646,40.128l1.073,80.256l0.792,80.255l0.199,20.064
		l0.099,10.031l0.05,5.016l0.014,1.254l-0.004,0.688c-0.002,0.251-0.008,0.501-0.021,0.75c-0.044,0.998-0.148,1.988-0.305,2.965
		c-0.613,3.92-2.176,7.552-4.224,10.734c-2.062,3.189-4.651,5.94-7.546,8.254c-2.895,2.323-6.141,4.169-9.601,5.523
		c-3.465,1.327-7.19,2.163-11.011,2.138c-3.822,0.013-7.543-0.832-10.998-2.17c-3.453-1.364-6.688-3.219-9.566-5.547
		c-2.885-2.319-5.429-5.092-7.498-8.256c-1.041-1.581-1.914-3.287-2.633-5.074c-0.729-1.786-1.262-3.674-1.568-5.62
		c-0.156-0.989-0.256-1.922-0.303-2.989c-0.014-0.29-0.019-0.506-0.021-0.705l-0.002-0.69l0.013-1.254l0.049-5.016l0.098-10.031
		l0.194-20.064l0.78-80.255l1.034-80.256l0.618-40.128l0.696-40.128l0.5,0.5h-0.003c-1.067,0.211-2.135,0.401-3.203,0.574
		l-1.602,0.252l-0.807,0.117c-0.34,0.033-0.687,0.045-1.034,0.028c-1.398-0.059-2.76-0.589-3.88-1.355
		c-1.135-0.76-2.064-1.74-2.808-2.812c-1.5-2.164-2.306-4.594-2.606-7.216c-0.255-2.438-0.043-5.163,0.991-7.68
		c0.514-1.265,1.238-2.496,2.224-3.612c0.984-1.108,2.268-2.11,3.854-2.723c0.392-0.155,0.804-0.281,1.225-0.377
		c0.426-0.098,0.819-0.162,1.375-0.202l0.193-0.012l0.1-0.001l0.2-0.002l0.22-0.001l0.1,0.004l0.2,0.009l0.801,0.035l3.202,0.138
		c4.27,0.216,8.541,0.575,12.811,0.901c4.271,0.342,8.54,0.598,12.811,0.719c4.27,0.086,8.54,0.091,12.811-0.074
		C67.522,7.27,76.062,6.392,84.602,6.117z"/>
	<ellipse fill="#29373F" cx="50.345" cy="40.489" rx="27.991" ry="4.681"/>
	<path fill="#FFFFFF" d="M40.369,54.244c0,2.938-2.383,5.32-5.317,5.32c-2.94,0-5.322-2.382-5.322-5.32
		c0-2.938,2.382-5.319,5.322-5.319C37.986,48.924,40.369,51.306,40.369,54.244z"/>
	<circle fill="#FFFFFF" cx="56.47" cy="121.466" r="2.487"/>
	<circle fill="#FFFFFF" cx="50.345" cy="127.878" r="2.487"/>
	<circle fill="#FFFFFF" cx="50.46" cy="199.544" r="2.487"/>
</g>
</svg>
