<?xml version="1.0" encoding="utf-8"?>
<!-- Generator: Adobe Illustrator 15.0.0, SVG Export Plug-In . SVG Version: 6.00 Build 0)  -->
<!DOCTYPE svg PUBLIC "-//W3C//DTD SVG 1.1//EN" "http://www.w3.org/Graphics/SVG/1.1/DTD/svg11.dtd">
<svg version="1.1" id="Layer_1" xmlns="http://www.w3.org/2000/svg" xmlns:xlink="http://www.w3.org/1999/xlink" x="0px" y="0px"
	 width="1280px" height="800px" viewBox="0 0 1280 800" enable-background="new 0 0 1280 800" xml:space="preserve">
<g>
	<polyline fill="#FFFFFF" points="1280.002,798 0,798 0,-2 1280.002,-2 1280.002,798 	"/>
	<g>
		<path d="M408.152,578.291h-57.642V553.9h8.862v-53.1h-8.862V476.41h62.256c12.206,0,21.654,0.709,28.345,2.125
			c6.592,1.465,11.767,4.37,15.527,8.715c3.76,4.444,5.64,9.62,5.64,15.527c0,5.763-1.783,10.353-5.347,13.77
			c-3.662,3.516-8.105,5.958-13.33,7.324c7.178,2.149,12.695,5.47,16.553,9.961c3.906,4.591,5.859,9.742,5.859,15.455
			c0,6.836-2.197,12.646-6.592,17.432c-4.395,4.736-10.426,7.836-18.091,9.301C433.762,577.534,422.702,578.291,408.152,578.291z
			 M398.777,498.75v18.604h8.716c5.907,0,9.789-0.854,11.646-2.564c1.758-1.708,2.637-3.955,2.637-6.738
			c0-2.392-0.806-4.541-2.417-6.445s-6.031-2.855-13.257-2.855H398.777z M398.777,535.883v20.068h8.862
			c5.664,0,9.741-0.732,12.231-2.197c2.441-1.465,3.662-4.052,3.662-7.764c0-3.466-1.099-6.029-3.296-7.689
			c-2.197-1.611-6.445-2.418-12.744-2.418H398.777z"/>
		<path d="M574.339,578.291h-96.973V553.9h9.155v-53.1h-9.155V476.41h58.228v24.391h-9.668v53.1h24.097v-16.332h24.316V578.291z"/>
		<path d="M618.797,578.291H578.44V553.9h7.764l19.116-53.1h-8.203V476.41h73.242v24.391h-8.203l19.482,53.1h7.471v24.391h-53.174
			v-22.34h8.936l-3.882-12.816h-26.074l-4.468,12.816h8.35V578.291z M628.392,502.266l-9.595,28.197h18.237L628.392,502.266z"/>
		<path d="M775.245,533.393l26.44,9.303c-2.246,10.889-7.397,19.8-15.454,26.732c-8.155,6.983-19.385,10.475-33.691,10.475
			c-19.531,0-33.984-5.103-43.359-15.309c-9.424-10.155-14.136-22.559-14.136-37.207c0-14.745,4.614-27.27,13.843-37.572
			s21.215-15.455,35.962-15.455c11.963,0,21.704,2.955,29.224,8.863v-6.812h24.463v37.207h-25.415
			c-1.318-4.638-3.541-8.3-6.665-10.986c-3.125-2.637-6.69-3.955-10.693-3.955c-11.035,0-16.553,9.498-16.553,28.492
			c0,19.043,5.713,28.564,17.139,28.564C766.357,555.732,772.656,548.286,775.245,533.393z"/>
		<path d="M870.094,578.291h-55.225V553.9h7.764v-53.1h-7.983V476.41h55.444v24.391h-8.057v53.1h8.057V578.291z M933.448,578.291
			h-52.734V553.9h4.907l-22.339-29.004l25.928-24.096h-8.276V476.41h50.171v24.391h-7.91l-20.801,19.336l26.001,33.764h5.054
			V578.291z"/>
	</g>
	<path fill="#D6D6D7" d="M639.959,372.299c-4.957,0-8.978,0.451-8.978,1.008s4.021,1.01,8.978,1.01c4.959,0,8.978-0.453,8.978-1.01
		S644.918,372.299,639.959,372.299"/>
	<path fill="#FFFFFF" d="M665.904,178.494h-51.871c-3.1,0-5.613,2.934-5.613,6.551c0,3.619,2.514,6.553,5.613,6.553h4.235v109.527
		c0,8.729,10.972,17.039,21.701,17.039c10.729,0,21.7-8.311,21.7-17.039V191.598h4.234c3.102,0,5.615-2.934,5.615-6.553
		C671.52,181.428,669.006,178.494,665.904,178.494z"/>
	<path fill="#231F20" d="M651.406,201.092c-1.633-0.59-3.789-0.834-6.506-0.844c-2.979-0.012-5.942,0.139-8.906,0.383
		c-5.902,0.488-11.783,1.102-17.726,0.844v99.65c0,8.729,10.972,17.039,21.701,17.039c10.729,0,21.7-8.311,21.7-17.039v-99.914
		C658.711,202.424,655.074,202.42,651.406,201.092z"/>
	<path fill="#231F20" d="M665.904,179.367c-6.479-0.055-12.957-0.094-19.436-0.053c-6.48,0.037-12.958,0.154-19.438,0.246
		l-9.718,0.164l-2.429,0.041l-0.607,0.01l-0.152,0.002l-0.076,0.002c0.02,0-0.069,0,0.039,0h-0.02l-0.039,0.002l-0.256,0.02
		c-0.157,0.021-0.45,0.092-0.656,0.186c-0.912,0.389-1.537,1.322-1.863,2.291c-0.336,0.992-0.497,1.988-0.549,3.109
		c-0.028,1.004,0.178,2.117,0.662,3.045c0.49,0.938,1.232,1.717,2.25,2.064c0.13,0.041,0.265,0.074,0.404,0.102l0.602,0.08
		l1.215,0.18c0.811,0.127,1.619,0.262,2.43,0.432h0.001l0.368-0.008l0.012,0.316c0.816,22.738,1.375,45.475,1.873,68.211
		l0.635,34.105l0.08,4.264l0.04,2.131l0.021,1.027c0,0.201,0.016,0.289,0.021,0.426l0.043,0.43c0.307,2.307,1.458,4.617,3.188,6.68
		c1.721,2.066,4.034,3.881,6.695,5.215c2.655,1.34,5.718,2.137,8.726,2.145c3.008-0.018,6.063-0.822,8.708-2.17
		c2.649-1.344,4.945-3.162,6.652-5.227c1.715-2.059,2.852-4.359,3.154-6.65c0.037-0.287,0.06-0.574,0.064-0.857l0.02-1.018
		l0.041-2.131l0.081-4.264l0.647-34.105c0.512-22.736,1.091-45.473,1.953-68.211l0.012-0.316l0.367,0.008h0.004
		c1.078-0.262,2.155-0.457,3.234-0.627c0.504-0.098,1.192-0.152,1.39-0.268c0.327-0.111,0.612-0.277,0.879-0.469
		c1.06-0.789,1.698-2.146,1.9-3.512c0.046-0.346,0.085-0.693,0.08-1.045l-0.017-0.541l-0.03-0.506
		c-0.05-0.693-0.117-1.385-0.263-2.082c-0.148-0.691-0.415-1.393-0.917-1.943C667.44,179.742,666.696,179.375,665.904,179.367z
		 M665.904,177.619c1.381-0.016,2.725,0.395,3.842,1c1.113,0.615,2.053,1.418,2.762,2.332c0.713,0.914,1.149,1.949,1.31,3
		c0.044,0.242,0.065,0.574,0.068,0.809l0.003,0.164l0.001,0.082l-0.006,0.133l-0.026,0.395c-0.051,0.525-0.134,1.051-0.286,1.568
		c-0.298,1.033-0.802,2.043-1.558,2.955c-0.76,0.904-1.785,1.738-3.127,2.238c-0.66,0.256-1.402,0.402-2.14,0.428
		c-0.873,0.018-1.269-0.109-1.839-0.188c-1.079-0.17-2.156-0.365-3.234-0.629h-0.004l0.38-0.309
		c0.862,22.738,1.44,45.475,1.952,68.211l0.648,34.105l0.081,4.264l0.04,2.131l0.011,0.533l0.003,0.268l-0.003,0.314
		c-0.009,0.426-0.042,0.85-0.095,1.27c-0.403,3.383-2.18,6.467-4.582,8.982c-2.424,2.52-5.467,4.559-8.889,6.027
		c-3.416,1.451-7.248,2.404-11.247,2.393c-3.999,0.004-7.823-0.961-11.229-2.42c-3.41-1.477-6.438-3.52-8.846-6.035
		c-2.387-2.514-4.15-5.59-4.552-8.955c-0.028-0.211-0.045-0.416-0.063-0.633c-0.012-0.217-0.03-0.484-0.029-0.639l-0.004-0.305
		l0.004-0.268l0.011-0.533l0.039-2.131l0.08-4.264l0.637-34.105c0.498-22.736,1.057-45.473,1.873-68.211l0.379,0.309h-0.001
		c-0.811,0.17-1.619,0.307-2.43,0.434l-1.215,0.178c-0.205,0.033-0.399,0.057-0.614,0.08c-0.265,0.021-0.534,0.031-0.804,0.021
		c-1.093-0.031-2.155-0.365-3.024-0.85c-0.873-0.486-1.581-1.105-2.148-1.779c-1.119-1.367-1.716-2.885-1.876-4.51
		c-0.177-1.508,0.174-3.182,1.137-4.611c0.955-1.42,2.461-2.734,4.58-3.367c0.545-0.154,1.044-0.246,1.694-0.285
		c0.191-0.014,0.227-0.006,0.349-0.008l0.361,0.002l0.607,0.01l2.429,0.041l9.718,0.164c6.479,0.092,12.957,0.211,19.438,0.246
		C652.947,177.713,659.426,177.676,665.904,177.619z"/>
	<ellipse fill="#605A5C" cx="639.96" cy="201.947" rx="20.958" ry="2.891"/>
	<path fill="#FFFFFF" d="M630.394,296.83c0,0.848-0.846,1.533-1.886,1.533c-1.043,0-1.889-0.686-1.889-1.533
		c0-0.85,0.846-1.535,1.889-1.535C629.548,295.295,630.394,295.98,630.394,296.83z"/>
	<ellipse fill="#FFFFFF" cx="634.781" cy="285.141" rx="1.371" ry="1.115"/>
	<path fill="#FFFFFF" d="M638.896,281.811c0,0.615-0.616,1.115-1.371,1.115c-0.759,0-1.373-0.5-1.373-1.115
		c0-0.617,0.614-1.117,1.373-1.117C638.28,280.693,638.896,281.193,638.896,281.811z"/>
	<ellipse fill="#FFFFFF" cx="627.438" cy="253.812" rx="1.925" ry="1.566"/>
	<ellipse fill="#FFFFFF" cx="654.804" cy="211.178" rx="1.924" ry="1.566"/>
</g>
</svg>
