<?xml version="1.0" encoding="utf-8"?>
<!-- Generator: Adobe Illustrator 15.0.0, SVG Export Plug-In . SVG Version: 6.00 Build 0)  -->
<!DOCTYPE svg PUBLIC "-//W3C//DTD SVG 1.1//EN" "http://www.w3.org/Graphics/SVG/1.1/DTD/svg11.dtd">
<svg version="1.1" id="Layer_1" xmlns="http://www.w3.org/2000/svg" xmlns:xlink="http://www.w3.org/1999/xlink" x="0px" y="0px"
	 width="1280px" height="800px" viewBox="0 0 1280 800" enable-background="new 0 0 1280 800" xml:space="preserve">
<g>
	<polyline fill="#FFFFFF" points="1279.002,798 -1,798 -1,-2 1279.002,-2 1279.002,798 	"/>
	<g>
		<path fill="#708090" d="M221.77,588.272h-19.548v-27.855h19.548c2.332,7.579,6.724,11.367,13.179,11.367
			c4.662,0,6.994-1.874,6.994-5.621c0-1.957-0.812-3.581-2.436-4.872c-1.749-1.415-5.434-3.373-11.055-5.871
			c-7.078-3.206-12.283-5.975-15.613-8.307c-3.123-2.124-5.788-5.059-7.994-8.806c-2.208-3.706-3.311-7.807-3.311-12.304
			c0-8.077,2.623-14.385,7.869-18.924c5.205-4.538,11.617-6.808,19.236-6.808c7.62,0,14.073,2.166,19.361,6.495v-5.371h19.673
			v24.732h-19.423c-2.373-6.828-6.579-10.243-12.616-10.243c-4.247,0-6.37,1.811-6.37,5.434c0,1.749,0.603,3.06,1.811,3.935
			c1.166,0.917,4.935,2.936,11.305,6.058c8.535,4.247,14.24,7.349,17.112,9.306c1.457,0.958,2.945,2.301,4.466,4.028
			c1.52,1.729,2.779,3.508,3.778,5.34c2.29,4.081,3.436,8.494,3.436,13.24c0,7.287-2.707,13.449-8.119,18.487
			c-5.413,5.121-12.241,7.682-20.485,7.682c-7.661,0-14.594-2.269-20.798-6.808V588.272z"/>
		<path fill="#708090" d="M363.605,588.272h-82.69v-20.797h7.807v-45.28h-7.807v-20.797h49.651v20.797h-8.244v45.28h20.548v-13.928
			h20.735V588.272z"/>
		<path fill="#708090" d="M401.516,588.272h-34.413v-20.797h6.62l16.301-45.28h-6.995v-20.797h62.455v20.797h-6.995l16.613,45.28
			h6.37v20.797H416.13v-19.049h7.619l-3.31-10.93h-22.234l-3.81,10.93h7.12V588.272z M409.697,523.444l-8.182,24.045h15.551
			L409.697,523.444z"/>
		<path fill="#708090" d="M529.027,588.272H480.25v-20.797h7.494v-45.28h-9.993v15.801H461.45v-36.599h86.126v36.599h-16.301
			v-15.801h-9.931v45.28h7.683V588.272z"/>
		<path fill="#708090" d="M641.196,588.272h-82.878v-20.797h6.745v-45.28h-6.87v-20.797h83.003v27.792h-22.797v-6.995h-19.735
			v13.366h17.175v17.675h-17.175v14.24h19.735v-6.995h22.797V588.272z"/>
		<path fill="#708090" d="M751.865,558.356h-8.868v-16.488h38.847c0,9.493-0.666,16.55-1.998,21.172
			c-1.291,4.456-3.997,8.973-8.119,13.553c-4.039,4.539-8.932,7.849-14.678,9.931c-5.745,2.081-11.908,3.123-18.486,3.123
			c-9.785,0-18.674-1.624-26.668-4.872c-8.036-3.164-14.24-8.41-18.611-15.739c-4.414-7.203-6.621-15.28-6.621-24.232
			c0-13.531,4.455-24.44,13.366-32.727c8.826-8.285,19.651-12.428,32.477-12.428c10.7,0,19.089,2.603,25.169,7.807v-6.058h20.923
			v30.353h-20.923c-1.833-3.747-4.216-6.578-7.151-8.494c-2.936-1.915-6.36-2.873-10.273-2.873c-5.496,0-9.535,1.791-12.116,5.371
			c-2.54,3.582-3.81,10.16-3.81,19.736c0,9.535,1.332,16.01,3.997,19.424c2.706,3.456,6.641,5.184,11.804,5.184
			C747.951,570.098,751.865,566.185,751.865,558.356z"/>
		<path fill="#708090" d="M841.239,588.272h-47.216v-20.797h7.058v-45.28h-7.058v-20.797h47.216c4.247,0,8.182,0.073,11.804,0.219
			c3.623,0.146,6.724,0.354,9.306,0.625c2.582,0.271,4.955,0.635,7.12,1.093c6.079,1.291,11.013,4.102,14.802,8.432
			c3.83,4.414,5.746,9.618,5.746,15.614c0,4.497-1.166,8.578-3.497,12.241c-2.333,3.622-5.393,6.288-9.182,7.994l11.992,19.861
			h6.245v20.797h-31.29l-18.924-35.475h-10.68v14.677h6.558V588.272z M834.682,520.446v16.551h3.747
			c4.912,0,8.244-0.146,9.993-0.438c1.873-0.291,3.455-1.124,4.746-2.498c1.29-1.29,1.937-3.06,1.937-5.309
			s-0.646-4.038-1.937-5.371c-1.291-1.374-2.936-2.207-4.934-2.499c-1.916-0.291-5.413-0.437-10.492-0.437H834.682z"/>
		<path fill="#708090" d="M933.485,588.272h-34.413v-20.797h6.62l16.301-45.28h-6.995v-20.797h62.455v20.797h-6.995l16.613,45.28
			h6.37v20.797H948.1v-19.049h7.619l-3.31-10.93h-22.234l-3.81,10.93h7.12V588.272z M941.667,523.444l-8.182,24.045h15.551
			L941.667,523.444z"/>
		<path fill="#708090" d="M1059.122,588.272h-47.466v-20.797h6.995v-13.803l-21.922-31.478h-5.934v-20.797h45.405v20.797h-5.184
			l9.243,17.737l11.18-17.737h-5.309v-20.797h33.413v20.797h-5.434l-21.859,31.478v13.803h6.87V588.272z"/>
	</g>
	<path fill="#D6D6D7" d="M641.293,381.85c-11.864,0-21.481,1.493-21.481,3.335s9.617,3.335,21.481,3.335
		c11.863,0,21.481-1.493,21.481-3.335S653.156,381.85,641.293,381.85"/>
	<path fill="#FFFFFF" d="M665.495,175.146h-51.871c-3.103,0-5.614,2.934-5.614,6.553s2.512,6.553,5.614,6.553h4.234v152.731
		c0,8.729,10.972,17.039,21.701,17.039c10.729,0,21.7-8.311,21.7-17.039V188.252h4.235c3.101,0,5.613-2.934,5.613-6.553
		S668.596,175.146,665.495,175.146z"/>
	<path fill="#708090" d="M649.205,200.657c-9.75,0.083-19.455-0.848-29.201-0.896c-0.732-0.004-1.45-0.074-2.146-0.201v141.423
		c0,8.729,10.972,17.039,21.701,17.039c10.729,0,21.7-8.311,21.7-17.039V199.505C657.415,200.35,653.167,200.623,649.205,200.657z"
		/>
	<path fill="#231F20" d="M665.495,176.433l-19.438,0.315c-6.478,0.116-12.957,0.243-19.437,0.31
		c-3.239,0.016-6.478,0.059-9.717,0.044l-2.431-0.002l-0.607-0.001h-0.152h-0.075c0.031-0.001-0.1,0.001,0.068-0.001h-0.02
		l-0.037,0.002l-0.152,0.004l-0.076,0.002l-0.007,0.004l-0.177,0.028l-0.25,0.066c-0.682,0.2-1.491,0.891-1.974,1.788
		c-0.506,0.905-0.73,1.932-0.707,3.047c0.022,1.001,0.258,2.095,0.75,2.999c0.499,0.911,1.207,1.664,2.17,2.004
		c0.122,0.045,0.25,0.08,0.383,0.11l0.602,0.091l1.215,0.198c0.809,0.144,1.619,0.3,2.429,0.502h0.003l0.372-0.006l0.006,0.314
		l0.538,22.454l0.473,22.453l0.792,44.906l0.602,44.906l0.149,11.228l0.076,5.612l0.02,1.364l0.004,0.176l0.009,0.126l0.02,0.262
		c0.015,0.19,0.042,0.38,0.068,0.57c0.117,0.761,0.345,1.515,0.628,2.267c0.29,0.75,0.662,1.491,1.117,2.208
		c0.435,0.726,0.948,1.43,1.526,2.105c1.157,1.351,2.569,2.588,4.16,3.65c3.156,2.137,7.168,3.549,11.142,3.551
		c3.972-0.013,7.973-1.438,11.11-3.583c3.17-2.131,5.57-4.979,6.748-7.954c0.278-0.748,0.507-1.498,0.622-2.254
		c0.057-0.377,0.091-0.754,0.098-1.13l0.021-1.358l0.076-5.612l0.153-11.228l0.61-44.906l0.82-44.906l0.497-22.453l0.564-22.454
		l0.006-0.315l0.373,0.007h0.003l3.234-0.152c0.524-0.034,1.131-0.028,1.514-0.104c0.441-0.079,0.858-0.23,1.238-0.438
		c1.535-0.853,2.372-2.445,2.62-3.997c0.245-1.569-0.042-3.217-0.864-4.558C668.205,177.348,666.78,176.363,665.495,176.433z
		 M665.495,173.861c1.524,0.013,2.942,0.58,3.926,1.331c0.993,0.762,1.665,1.672,2.108,2.613c0.875,1.891,0.959,3.891,0.429,5.765
		c-0.273,0.938-0.716,1.847-1.357,2.67c-0.647,0.816-1.502,1.562-2.606,2.04c-0.548,0.238-1.157,0.4-1.781,0.457
		c-0.686,0.057-1.163-0.009-1.716-0.023l-3.234-0.153h-0.003l0.38-0.309l0.564,22.454l0.496,22.453l0.819,44.906l0.612,44.906
		l0.152,11.228l0.077,5.612l0.008,0.702c0.002,0.239,0.011,0.447,0.002,0.747c-0.012,0.561-0.061,1.117-0.144,1.669
		c-0.178,1.1-0.465,2.183-0.909,3.21c-1.746,4.145-5.261,7.458-9.381,9.858c-2.076,1.204-4.357,2.157-6.768,2.86
		c-2.416,0.683-4.982,1.114-7.61,1.097c-2.629,0.011-5.193-0.425-7.604-1.114c-2.404-0.709-4.678-1.668-6.743-2.875
		c-2.07-1.201-3.937-2.642-5.539-4.284c-0.8-0.822-1.533-1.696-2.179-2.624c-0.633-0.931-1.174-1.916-1.609-2.94
		c-0.44-1.024-0.726-2.102-0.902-3.197c-0.038-0.274-0.075-0.55-0.098-0.827l-0.031-0.438l-0.011-0.225l-0.005-0.175l-0.002-0.39
		l0.006-0.352l0.009-0.702l0.075-5.612l0.149-11.228l0.602-44.906l0.792-44.906l0.474-22.453l0.537-22.454l0.379,0.309h-0.003
		c-0.81,0.202-1.62,0.359-2.429,0.503l-1.215,0.198c-0.206,0.034-0.398,0.062-0.613,0.089c-0.271,0.025-0.549,0.037-0.827,0.029
		c-1.117-0.036-2.203-0.38-3.086-0.873c-0.888-0.498-1.601-1.131-2.164-1.816c-1.112-1.392-1.678-2.928-1.789-4.556
		c-0.103-1.515,0.185-3.159,0.979-4.672c0.396-0.762,0.932-1.504,1.653-2.183c0.72-0.674,1.647-1.299,2.815-1.688
		c0.289-0.098,0.593-0.179,0.905-0.241c0.314-0.063,0.607-0.107,1.02-0.136l0.144-0.01l0.075-0.002l0.151-0.004l0.391-0.004
		l0.607-0.001l2.431-0.002c3.239-0.015,6.478,0.028,9.717,0.044c6.479,0.066,12.959,0.193,19.437,0.31L665.495,173.861z"/>
	<ellipse fill="#607382" cx="639.493" cy="200.496" rx="21.007" ry="2.889"/>
	<ellipse fill="#FFFFFF" cx="631.726" cy="215.537" rx="5.654" ry="4.601"/>
	<ellipse fill="#FFFFFF" cx="652.498" cy="250.791" rx="2.746" ry="2.234"/>
	<ellipse fill="#FFFFFF" cx="641.294" cy="326.195" rx="1.734" ry="1.412"/>
	<ellipse fill="#FFFFFF" cx="629.702" cy="298.552" rx="3.631" ry="2.954"/>
</g>
</svg>
