<?xml version="1.0" encoding="utf-8"?>
<!-- Generator: Adobe Illustrator 15.0.0, SVG Export Plug-In . SVG Version: 6.00 Build 0)  -->
<!DOCTYPE svg PUBLIC "-//W3C//DTD SVG 1.1//EN" "http://www.w3.org/Graphics/SVG/1.1/DTD/svg11.dtd">
<svg version="1.1" id="Layer_1" xmlns="http://www.w3.org/2000/svg" xmlns:xlink="http://www.w3.org/1999/xlink" x="0px" y="0px"
	 width="1280px" height="800px" viewBox="0 0 1280 800" enable-background="new 0 0 1280 800" xml:space="preserve">
<g>
	<polyline fill="#FFFFFF" points="1279.002,797 -1,797 -1,-3 1279.002,-3 1279.002,797 	"/>
	<g>
		<path fill="#36454F" d="M266.007,563.227l26.44,9.303c-2.246,10.889-7.397,19.8-15.454,26.732
			c-8.155,6.983-19.385,10.475-33.691,10.475c-19.531,0-33.984-5.103-43.359-15.309c-9.424-10.155-14.136-22.559-14.136-37.207
			c0-14.745,4.614-27.27,13.843-37.572s21.215-15.455,35.962-15.455c11.963,0,21.704,2.955,29.224,8.863v-6.812h24.463v37.207
			h-25.415c-1.318-4.638-3.541-8.3-6.665-10.986c-3.125-2.637-6.69-3.955-10.693-3.955c-11.035,0-16.553,9.498-16.553,28.492
			c0,19.043,5.713,28.564,17.139,28.564C257.119,585.566,263.418,578.12,266.007,563.227z"/>
		<path fill="#36454F" d="M359.098,608.125h-53.613v-24.391h7.69v-53.1h-7.837v-24.391h53.76v24.391h-6.519v15.527h23.584v-15.527
			h-6.592v-24.391h53.687v24.391h-7.69v53.1h7.69v24.391h-53.687v-24.391h6.592v-16.699h-23.584v16.699h6.519V608.125z"/>
		<path fill="#36454F" d="M472.037,608.125h-40.356v-24.391h7.764l19.116-53.1h-8.203v-24.391H523.6v24.391h-8.203l19.482,53.1
			h7.471v24.391h-53.174v-22.34h8.936l-3.882-12.816h-26.074l-4.468,12.816h8.35V608.125z M481.632,532.1l-9.595,28.197h18.237
			L481.632,532.1z"/>
		<path fill="#36454F" d="M605.924,608.125h-55.371v-24.391h8.276v-53.1h-8.276v-24.391h55.371c4.98,0,9.595,0.086,13.843,0.257
			c4.248,0.172,7.885,0.415,10.913,0.732c3.027,0.318,5.811,0.745,8.35,1.282c7.129,1.514,12.915,4.81,17.358,9.887
			c4.492,5.177,6.738,11.279,6.738,18.311c0,5.273-1.367,10.06-4.102,14.355c-2.735,4.248-6.324,7.374-10.767,9.375l14.062,23.291
			h7.324v24.391H632.95l-22.192-41.602h-12.524v17.211h7.69V608.125z M598.233,528.584v19.408h4.395
			c5.761,0,9.668-0.17,11.719-0.512c2.197-0.342,4.053-1.318,5.566-2.93c1.513-1.514,2.271-3.59,2.271-6.227
			s-0.758-4.735-2.271-6.299c-1.514-1.611-3.442-2.587-5.786-2.93c-2.246-0.341-6.348-0.512-12.305-0.512H598.233z"/>
		<path fill="#36454F" d="M759.586,563.227l26.44,9.303c-2.246,10.889-7.397,19.8-15.454,26.732
			c-8.155,6.983-19.385,10.475-33.691,10.475c-19.531,0-33.984-5.103-43.359-15.309c-9.424-10.155-14.136-22.559-14.136-37.207
			c0-14.745,4.614-27.27,13.843-37.572s21.215-15.455,35.962-15.455c11.963,0,21.704,2.955,29.224,8.863v-6.812h24.463v37.207
			h-25.415c-1.318-4.638-3.541-8.3-6.665-10.986c-3.125-2.637-6.69-3.955-10.693-3.955c-11.035,0-16.553,9.498-16.553,28.492
			c0,19.043,5.713,28.564,17.139,28.564C750.698,585.566,756.997,578.12,759.586,563.227z"/>
		<path fill="#36454F" d="M799.796,556.928c0-8.496,2.075-16.723,6.226-24.682c4.102-7.91,10.474-14.576,19.116-19.996
			c3.076-1.904,6.237-3.417,9.484-4.541c3.247-1.122,6.775-1.988,10.584-2.6c3.809-0.61,7.812-0.916,12.012-0.916
			c18.262,0,32.397,5.348,42.407,16.041c4.98,5.273,8.74,10.986,11.279,17.139c2.538,6.152,3.809,12.67,3.809,19.555
			c0,14.209-5.176,26.563-15.527,37.061c-10.353,10.499-24.342,15.748-41.968,15.748c-17.041,0-30.86-4.932-41.455-14.795
			C805.117,585.127,799.796,572.455,799.796,556.928z M844.034,556.928c0,11.329,1.099,18.971,3.296,22.926
			c2.099,4.004,5.395,6.006,9.888,6.006c4.442,0,7.764-1.929,9.961-5.787c2.197-3.905,3.296-11.62,3.296-23.145
			c0-11.181-1.074-18.798-3.223-22.852c-2.1-4.003-5.445-6.006-10.034-6.006c-4.395,0-7.69,1.93-9.888,5.787
			S844.034,545.405,844.034,556.928z"/>
		<path fill="#36454F" d="M955.151,608.125h-40.356v-24.391h7.764l19.116-53.1h-8.203v-24.391h73.242v24.391h-8.203l19.482,53.1
			h7.471v24.391H972.29v-22.34h8.936l-3.882-12.816H951.27l-4.468,12.816h8.35V608.125z M964.746,532.1l-9.595,28.197h18.237
			L964.746,532.1z"/>
		<path fill="#36454F" d="M1129.395,608.125h-96.973v-24.391h9.155v-53.1h-9.155v-24.391h58.228v24.391h-9.668v53.1h24.097v-16.332
			h24.316V608.125z"/>
	</g>
	<path fill="#D6D6D7" d="M653.167,393.261c-13.057,0-23.64,1.188-23.64,2.654s10.583,2.657,23.64,2.657s23.641-1.191,23.641-2.657
		S666.224,393.261,653.167,393.261"/>
	<path fill="#FFFFFF" d="M681.042,181.763h-51.87c-3.102,0-5.615,2.934-5.615,6.553c0,3.618,2.514,6.553,5.615,6.553h4.234v171.248
		c0,8.729,10.973,17.039,21.702,17.039c10.729,0,21.699-8.311,21.699-17.039V194.868h4.234c3.102,0,5.614-2.935,5.614-6.553
		C686.656,184.696,684.144,181.763,681.042,181.763z"/>
	<path fill="#36454F" d="M670.074,200.674c-4.203-0.188-9.557-1.193-12.602-1.264c-3.361-0.079-6.691,0.269-10.032,0.535
		c-4.715,0.376-9.453,0.591-14.034,0.007v166.164c0,8.729,10.973,17.039,21.702,17.039c10.729,0,21.699-8.311,21.699-17.039V199.963
		C674.705,200.514,672.465,200.781,670.074,200.674z"/>
	<path fill="#231F20" d="M681.042,183.638c-6.478-0.17-12.957-0.711-19.435-0.913c-3.241-0.101-6.48-0.099-9.719-0.045
		c-3.24,0.075-6.479,0.232-9.719,0.443c-3.238,0.201-6.479,0.423-9.718,0.557l-2.431,0.085l-0.607,0.021l-0.15,0.006l-0.076,0.002
		c0.033,0-0.104,0.002,0.071,0h-0.021l-0.037,0.002l-0.151,0.008l-0.075,0.004l-0.004,0.005l-0.153,0.041l-0.226,0.074
		c-0.604,0.233-1.332,0.892-1.832,1.749c-0.515,0.865-0.866,1.854-0.936,2.979c-0.095,1.01,0.096,2.141,0.562,3.101
		c0.485,0.96,1.261,1.788,2.347,2.122c0.137,0.041,0.279,0.072,0.426,0.098l0.602,0.074l1.215,0.155
		c0.811,0.106,1.619,0.224,2.43,0.354h0.002l0.373-0.006l0.006,0.315l0.529,24.768l0.468,24.768l0.786,49.536l0.591,49.535
		l0.147,12.384l0.074,6.192l0.037,3.096l0.01,0.774l0.006,0.348c0.001,0.136,0.006,0.26,0.013,0.339
		c0.022,0.372,0.077,0.825,0.16,1.233c0.685,3.347,3.057,6.661,6.399,9.152c1.672,1.244,3.572,2.314,5.641,3.057
		c2.059,0.75,4.281,1.16,6.462,1.173c2.18-0.019,4.396-0.435,6.451-1.192c2.062-0.748,3.953-1.824,5.614-3.072
		c3.303-2.51,5.673-5.8,6.343-9.129c0.083-0.416,0.136-0.833,0.16-1.248c0.007-0.104,0.011-0.207,0.011-0.311l0.006-0.35l0.01-0.774
		l0.037-3.096l0.076-6.192l0.149-12.384l0.602-49.535l0.814-49.536l0.491-24.768l0.555-24.768l0.008-0.315l0.372,0.006h0.005
		c1.076-0.194,2.154-0.356,3.232-0.501c0.51-0.084,1.178-0.127,1.421-0.235c0.354-0.11,0.665-0.284,0.952-0.482
		c1.152-0.827,1.752-2.255,1.892-3.643c0.123-1.41-0.214-2.849-0.815-4.015c-0.305-0.582-0.685-1.109-1.129-1.468
		C681.916,183.856,681.488,183.676,681.042,183.638z M681.042,179.886c1.728-0.045,3.386,0.552,4.543,1.353
		c1.175,0.809,2.001,1.785,2.553,2.81c1.097,2.064,1.131,4.273,0.478,6.308c-0.323,1.023-0.862,2.009-1.623,2.896
		c-0.754,0.887-1.782,1.678-3.071,2.168c-0.64,0.248-1.355,0.387-2.065,0.413c-0.828,0.024-1.243-0.09-1.811-0.154
		c-1.078-0.146-2.156-0.307-3.232-0.502h-0.005l0.379-0.308l0.558,24.768l0.49,24.768l0.813,49.536l0.602,49.535l0.151,12.384
		l0.074,6.192l0.038,3.096l0.009,0.774l-0.001,0.425c-0.003,0.154-0.007,0.309-0.017,0.463c-0.035,0.615-0.112,1.227-0.231,1.83
		c-0.465,2.419-1.651,4.661-3.204,6.626c-1.564,1.967-3.528,3.665-5.725,5.094c-2.195,1.434-4.658,2.573-7.283,3.409
		c-2.629,0.819-5.455,1.335-8.354,1.319c-2.897,0.009-5.721-0.514-8.343-1.339c-2.617-0.843-5.072-1.987-7.256-3.425
		c-2.188-1.431-4.119-3.142-5.688-5.096c-0.79-0.975-1.452-2.028-1.997-3.132c-0.553-1.103-0.959-2.268-1.189-3.47
		c-0.119-0.609-0.195-1.186-0.23-1.844c-0.012-0.18-0.016-0.312-0.016-0.436l-0.002-0.426l0.012-0.774l0.036-3.096l0.073-6.192
		l0.146-12.384l0.594-49.535l0.783-49.536l0.47-24.768l0.527-24.768l0.38,0.308h-0.002c-0.811,0.13-1.619,0.247-2.43,0.354
		l-1.215,0.155l-0.612,0.071c-0.258,0.021-0.521,0.028-0.785,0.018c-1.061-0.036-2.094-0.363-2.942-0.836
		c-0.861-0.469-1.566-1.074-2.131-1.735c-1.138-1.336-1.75-2.835-1.977-4.454c-0.195-1.504-0.033-3.187,0.751-4.74
		c0.39-0.78,0.938-1.541,1.687-2.23c0.748-0.684,1.721-1.302,2.925-1.68c0.296-0.096,0.608-0.174,0.929-0.232
		c0.323-0.061,0.621-0.101,1.043-0.125l0.146-0.008l0.076-0.001l0.152-0.001l0.166-0.001l0.076,0.003l0.15,0.006l0.607,0.021
		l2.431,0.085c3.238,0.133,6.479,0.355,9.718,0.557c3.239,0.211,6.479,0.369,9.719,0.443c3.238,0.054,6.478,0.057,9.719-0.045
		C668.085,180.599,674.564,180.056,681.042,179.886z"/>
	<ellipse fill="#29373F" cx="655.054" cy="201.102" rx="21.235" ry="2.89"/>
	<ellipse fill="#FFFFFF" cx="643.45" cy="209.592" rx="4.036" ry="3.284"/>
	<ellipse fill="#FFFFFF" cx="659.701" cy="251.083" rx="1.887" ry="1.535"/>
	<ellipse fill="#FFFFFF" cx="655.054" cy="255.041" rx="1.887" ry="1.534"/>
	<ellipse fill="#FFFFFF" cx="655.141" cy="299.274" rx="1.887" ry="1.535"/>
</g>
</svg>
