<?xml version="1.0" encoding="utf-8"?>
<!-- Generator: Adobe Illustrator 15.0.0, SVG Export Plug-In . SVG Version: 6.00 Build 0)  -->
<!DOCTYPE svg PUBLIC "-//W3C//DTD SVG 1.1//EN" "http://www.w3.org/Graphics/SVG/1.1/DTD/svg11.dtd">
<svg version="1.1" id="Layer_1" xmlns="http://www.w3.org/2000/svg" xmlns:xlink="http://www.w3.org/1999/xlink" x="0px" y="0px"
	 width="1280px" height="800px" viewBox="0 0 1280 800" enable-background="new 0 0 1280 800" xml:space="preserve">
<g>
	<polyline fill="#FFFFFF" points="1282.681,797.883 2.681,797.883 2.681,-2.117 1282.681,-2.117 1282.681,797.883 	"/>
	<g>
		<path fill="#9966CC" d="M213.871,536.4h-40.356v-24.389h7.764l19.116-53.102h-8.203v-24.389h73.242v24.389h-8.203l19.482,53.102
			h7.471V536.4H231.01v-22.338h8.936l-3.882-12.818h-26.074l-4.468,12.818h8.35V536.4z M223.466,460.375l-9.595,28.199h18.237
			L223.466,460.375z"/>
		<path fill="#9966CC" d="M331.791,536.4h-39.478v-24.389h7.837V458.91h-8.057v-24.389h61.45l15.015,39.33l15.381-39.33h61.084
			v24.389h-7.983v53.102h8.203V536.4h-53.174v-24.389h8.13v-56.91L369.438,536.4h-15.234l-30.469-80.566v56.178h8.057V536.4z"/>
		<path fill="#9966CC" d="M555.399,536.4h-97.192v-24.389h7.91V458.91h-8.057v-24.389h97.339v32.592h-26.733v-8.203h-23.145v15.674
			h20.142v20.729h-20.142v16.699h23.145v-8.203h26.733V536.4z"/>
		<path fill="#9966CC" d="M648.856,536.4h-57.202v-24.389h8.789V458.91h-11.719v18.531h-19.116v-42.92h101.001v42.92h-19.116V458.91
			h-11.646v53.102h9.009V536.4z"/>
		<path fill="#9966CC" d="M736.747,536.4h-53.613v-24.389h7.69V458.91h-7.837v-24.389h53.76v24.389h-6.519v15.527h23.584V458.91
			h-6.592v-24.389h53.687v24.389h-7.69v53.102h7.69V536.4h-53.687v-24.389h6.592v-16.699h-23.584v16.699h6.519V536.4z"/>
		<path fill="#9966CC" d="M890.409,536.4h-55.664v-24.389h8.203v-16.188L817.24,458.91h-6.958v-24.389h53.247v24.389h-6.079
			l10.84,20.801l13.11-20.801h-6.226v-24.389h39.185v24.389h-6.372l-25.635,36.914v16.188h8.057V536.4z"/>
		<path fill="#9966CC" d="M946.732,536.4h-22.925v-32.666h22.925c2.734,8.888,7.885,13.33,15.454,13.33
			c5.468,0,8.203-2.197,8.203-6.592c0-2.294-0.952-4.198-2.856-5.713c-2.051-1.659-6.372-3.955-12.964-6.885
			c-8.302-3.759-14.404-7.006-18.311-9.74c-3.662-2.49-6.787-5.934-9.375-10.328c-2.589-4.345-3.882-9.154-3.882-14.428
			c0-9.473,3.076-16.87,9.229-22.193c6.104-5.321,13.623-7.982,22.559-7.982s16.504,2.539,22.705,7.617v-6.299h23.071v29.004
			h-22.778c-2.783-8.008-7.716-12.012-14.795-12.012c-4.98,0-7.471,2.123-7.471,6.371c0,2.051,0.707,3.59,2.124,4.615
			c1.366,1.074,5.786,3.441,13.257,7.104c10.009,4.98,16.699,8.619,20.068,10.914c1.709,1.123,3.454,2.698,5.236,4.724
			c1.782,2.026,3.26,4.114,4.432,6.263c2.685,4.785,4.028,9.961,4.028,15.527c0,8.545-3.175,15.771-9.521,21.68
			c-6.348,6.006-14.355,9.008-24.023,9.008c-8.984,0-17.114-2.66-24.39-7.982V536.4z"/>
		<path fill="#9966CC" d="M1095.707,536.4h-57.202v-24.389h8.789V458.91h-11.719v18.531h-19.116v-42.92h101.001v42.92h-19.116
			V458.91h-11.646v53.102h9.009V536.4z"/>
	</g>
	<path fill="#FFFFFF" d="M555.721,288.744l1.699-19.895c0,0-4.066-12.09,89.135-13.584c93.202-1.496,92.892,14.172,92.892,14.172
		l0.892,21.168L555.721,288.744"/>
	<path fill="#9966CC" d="M555.721,276.869h184.098v33.865c0,0-14.715,12.727-98.313,12.727c-83.596,0-85.784-14.232-85.784-14.232
		V276.869"/>
	<path fill="#8255B7" d="M737.736,276.869c0,5.248-40.278,9.504-89.966,9.504c-49.687,0-89.966-4.256-89.966-9.504
		s40.279-9.504,89.966-9.504C697.458,267.365,737.736,271.621,737.736,276.869"/>
	<path d="M605.209,275.57c-4.033,0.16-8.078,0.199-12.123,0.125c-4.047-0.076-8.096-0.266-12.143-0.592
		c-4.047-0.328-8.09-0.781-12.129-1.473c-2.02-0.352-4.037-0.76-6.062-1.307c-1.013-0.277-2.025-0.586-3.05-0.98
		c-0.512-0.199-1.029-0.42-1.554-0.688c-0.265-0.135-0.529-0.281-0.8-0.453c-0.27-0.17-0.546-0.363-0.828-0.604l2.566-2.838
		c0.093,0.098,0.221,0.209,0.368,0.318c0.147,0.113,0.315,0.225,0.493,0.336c0.355,0.221,0.754,0.432,1.168,0.631
		c0.83,0.398,1.725,0.754,2.636,1.082c1.83,0.652,3.735,1.201,5.66,1.693c3.855,0.98,7.796,1.744,11.759,2.383
		c3.967,0.637,7.959,1.141,11.969,1.535C597.15,275.131,601.176,275.412,605.209,275.57z"/>
	<path d="M740.88,269.818l-0.129,0.09l-0.134,0.086l-0.252,0.15c-0.161,0.09-0.315,0.168-0.467,0.238
		c-0.299,0.141-0.585,0.258-0.866,0.363c-0.562,0.211-1.106,0.385-1.647,0.543c-1.084,0.312-2.152,0.564-3.221,0.795
		c-2.135,0.453-4.264,0.807-6.395,1.113c-4.258,0.609-8.518,1.029-12.779,1.354c-4.262,0.32-8.523,0.539-12.784,0.684
		s-8.52,0.213-12.778,0.227c4.246-0.33,8.482-0.719,12.711-1.18c4.227-0.463,8.441-0.996,12.637-1.631
		c4.191-0.637,8.367-1.369,12.482-2.275c2.055-0.457,4.096-0.955,6.088-1.539c0.994-0.291,1.978-0.604,2.916-0.955
		c0.468-0.176,0.926-0.361,1.346-0.557c0.209-0.098,0.41-0.199,0.584-0.299l0.232-0.145l0.086-0.062l0.033-0.025l0.004-0.006
		l-0.002,0.002l0.001-0.002l0.009-0.008l0.02-0.016L740.88,269.818z"/>
	<path fill="#231F20" d="M552.541,309.242c0.066-4.805,0.258-9.609,0.547-14.412c0.283-4.805,0.629-9.609,0.837-14.414
		c0.106-2.402,0.179-4.803,0.222-7.205c0.018-1.201,0.031-2.402,0.033-3.604l0.002-0.451v-0.225v-0.131l0.008-0.203
		c0.036-0.506,0.174-0.986,0.367-1.4c0.191-0.418,0.428-0.773,0.68-1.086s0.52-0.582,0.791-0.828
		c0.545-0.488,1.107-0.881,1.674-1.232c0.568-0.352,1.142-0.658,1.718-0.938c1.153-0.561,2.315-1.029,3.485-1.451
		c1.168-0.42,2.342-0.799,3.52-1.145c1.178-0.348,2.357-0.668,3.542-0.967c2.364-0.6,4.741-1.123,7.12-1.605
		c2.379-0.48,4.764-0.914,7.152-1.32c2.387-0.406,4.779-0.781,7.174-1.127c2.395-0.35,4.791-0.67,7.189-0.973
		c9.598-1.199,19.231-2.051,28.882-2.545c9.649-0.496,19.312-0.637,28.968-0.443c4.83,0.1,9.658,0.293,14.48,0.582
		c4.824,0.293,9.643,0.678,14.451,1.17c4.809,0.484,9.609,1.07,14.398,1.75c2.395,0.342,4.785,0.703,7.172,1.096
		c2.387,0.391,4.77,0.809,7.149,1.264c2.378,0.453,4.752,0.938,7.118,1.477c2.365,0.535,4.723,1.127,7.066,1.809
		c2.338,0.691,4.67,1.453,6.945,2.488c1.136,0.527,2.264,1.109,3.332,1.914c0.529,0.404,1.053,0.865,1.506,1.471
		c0.226,0.303,0.43,0.645,0.582,1.035c0.153,0.389,0.246,0.83,0.244,1.273c-0.008,2.402,0.016,4.805,0.076,7.207
		s0.158,4.805,0.283,7.207c0.25,4.805,0.609,9.607,0.867,14.412c0.131,2.402,0.234,4.805,0.31,7.207
		c0.036,1.201,0.067,2.402,0.089,3.604l0.009,0.449l0.005,0.227l0.001,0.143c-0.001,0.113-0.006,0.193-0.011,0.273
		c-0.039,0.662-0.219,1.291-0.457,1.814c-0.238,0.529-0.529,0.969-0.827,1.344c-0.298,0.377-0.606,0.695-0.914,0.979
		c-0.614,0.564-1.231,0.998-1.839,1.385c-0.61,0.385-1.215,0.715-1.818,1.018c-1.205,0.602-2.404,1.09-3.602,1.533
		c-2.397,0.879-4.789,1.566-7.186,2.174s-4.794,1.127-7.195,1.594c-2.4,0.469-4.805,0.879-7.209,1.254
		c-4.81,0.748-9.628,1.344-14.447,1.84c-2.411,0.248-4.824,0.471-7.236,0.668c-2.413,0.199-4.825,0.377-7.238,0.537
		c-4.828,0.314-9.656,0.555-14.486,0.732c-9.661,0.354-19.323,0.451-28.985,0.342c-9.663-0.115-19.329-0.443-28.989-1.078
		c-2.415-0.158-4.83-0.344-7.246-0.547c-2.413-0.203-4.828-0.426-7.24-0.684c-4.828-0.508-9.65-1.129-14.469-1.92
		c-2.409-0.398-4.818-0.836-7.227-1.344c-2.408-0.506-4.812-1.076-7.221-1.758c-1.205-0.342-2.412-0.715-3.619-1.135
		c-1.209-0.42-2.42-0.885-3.643-1.445c-0.611-0.281-1.225-0.588-1.846-0.938c-0.621-0.352-1.248-0.742-1.886-1.229
		c-0.319-0.244-0.642-0.512-0.965-0.822c-0.321-0.311-0.647-0.662-0.962-1.088c-0.311-0.422-0.615-0.926-0.85-1.531
		C552.688,310.686,552.535,309.969,552.541,309.242z M558.902,309.242c0.004-0.125-0.022-0.244-0.039-0.289l0.039,0.027
		c0.093,0.117,0.34,0.352,0.665,0.58c0.323,0.234,0.722,0.475,1.153,0.701c0.43,0.229,0.898,0.449,1.383,0.658
		c0.971,0.418,2.014,0.795,3.08,1.139c1.07,0.346,2.168,0.658,3.279,0.951c2.227,0.586,4.508,1.082,6.807,1.533
		c2.303,0.445,4.627,0.844,6.961,1.203c4.671,0.723,9.385,1.303,14.112,1.805c2.364,0.246,4.732,0.479,7.104,0.686
		c2.373,0.209,4.749,0.393,7.125,0.566c9.512,0.682,19.059,1.088,28.609,1.252c4.776,0.086,9.553,0.102,14.332,0.066
		c4.777-0.037,9.554-0.131,14.326-0.287c4.773-0.156,9.543-0.373,14.305-0.66c4.762-0.279,9.518-0.641,14.26-1.074
		c2.371-0.219,4.74-0.455,7.1-0.721c2.363-0.264,4.719-0.555,7.069-0.877c4.694-0.646,9.367-1.41,13.923-2.434
		c1.139-0.258,2.268-0.535,3.381-0.834c1.112-0.299,2.211-0.623,3.278-0.98c1.067-0.359,2.105-0.754,3.063-1.195
		c0.479-0.221,0.936-0.453,1.351-0.697c0.413-0.242,0.785-0.498,1.065-0.738c0.139-0.117,0.254-0.23,0.332-0.32
		c0.078-0.092,0.121-0.158,0.133-0.176l0.002,0.082v0.051l0.002-0.082l0.004-0.227l0.009-0.449c0.021-1.201,0.055-2.402,0.089-3.604
		c0.076-2.402,0.18-4.805,0.31-7.207c0.258-4.805,0.616-9.607,0.866-14.412c0.125-2.402,0.223-4.805,0.283-7.207
		s0.085-4.805,0.079-7.207c-0.001-0.156-0.034-0.312-0.103-0.482s-0.172-0.348-0.307-0.525c-0.271-0.355-0.654-0.703-1.083-1.018
		c-0.43-0.314-0.903-0.604-1.398-0.869c-0.495-0.268-1.011-0.514-1.54-0.742c-1.057-0.457-2.156-0.855-3.273-1.213
		s-2.254-0.678-3.4-0.969c-2.291-0.586-4.622-1.062-6.963-1.48c-2.344-0.414-4.701-0.768-7.068-1.072
		c-4.732-0.604-9.491-1.039-14.258-1.365c-4.768-0.328-9.543-0.555-14.318-0.73c-4.779-0.17-9.557-0.295-14.334-0.387
		c-4.777-0.094-9.557-0.156-14.334-0.193c-9.559-0.08-19.119-0.047-28.674,0.119c-2.391,0.043-4.779,0.096-7.167,0.158
		c-2.389,0.061-4.776,0.135-7.164,0.227c-4.775,0.176-9.55,0.412-14.314,0.742c-2.383,0.164-4.763,0.355-7.138,0.574
		c-2.377,0.223-4.75,0.473-7.115,0.764s-4.723,0.623-7.07,1.008c-2.346,0.387-4.68,0.828-6.984,1.348
		c-2.305,0.523-4.588,1.123-6.781,1.877c-1.096,0.381-2.172,0.795-3.184,1.279c-0.504,0.24-0.992,0.498-1.449,0.775
		c-0.456,0.275-0.881,0.576-1.23,0.889c-0.35,0.311-0.618,0.645-0.735,0.906c-0.06,0.129-0.086,0.236-0.093,0.33l-0.002,0.027v0.09
		v0.225l0.002,0.451c0.001,1.201,0.016,2.402,0.033,3.604c0.042,2.402,0.115,4.803,0.221,7.205
		c0.209,4.805,0.555,9.609,0.836,14.414C558.645,299.633,558.836,304.438,558.902,309.242z"/>
	<circle fill="#9D5FB7" cx="566.438" cy="288.148" r="1.777"/>
	<path fill="#AD85D6" d="M574.227,295.412c-1.358,0-2.459,1.102-2.459,2.461c0,1.357,1.101,2.461,2.459,2.461
		c1.361,0,2.461-1.104,2.461-2.461C576.688,296.514,575.588,295.412,574.227,295.412"/>
	<path fill="#AD85D6" d="M591.176,303.525c-1.358,0-2.461,1.102-2.461,2.461s1.103,2.461,2.461,2.461c1.359,0,2.46-1.102,2.46-2.461
		S592.535,303.525,591.176,303.525"/>
	<path fill="#AD85D6" d="M613.044,290.965c-1.36,0-2.461,1.102-2.461,2.459c0,1.359,1.101,2.461,2.461,2.461
		c1.358,0,2.46-1.102,2.46-2.461C615.504,292.066,614.402,290.965,613.044,290.965"/>
	<path fill="#AD85D6" d="M650.23,304.707c-1.359,0-2.46,1.102-2.46,2.459c0,1.359,1.101,2.461,2.46,2.461
		c1.358,0,2.462-1.102,2.462-2.461C652.692,305.809,651.589,304.707,650.23,304.707"/>
	<path fill="#AD85D6" d="M681.641,288.148c-1.359,0-2.46,1.102-2.46,2.461c0,1.357,1.101,2.459,2.46,2.459
		c1.358,0,2.459-1.102,2.459-2.459C684.1,289.25,682.999,288.148,681.641,288.148"/>
	<path fill="#AD85D6" d="M684.9,293.15c-0.547,0-0.993,0.445-0.993,0.992s0.446,0.99,0.993,0.99s0.99-0.443,0.99-0.99
		S685.447,293.15,684.9,293.15"/>
	<path fill="#AD85D6" d="M725.938,295.412c-1.359,0-2.461,1.102-2.461,2.461c0,1.357,1.102,2.461,2.461,2.461
		c1.357,0,2.461-1.104,2.461-2.461C728.398,296.514,727.295,295.412,725.938,295.412"/>
	<path fill="#AD85D6" d="M717.04,304.707c-1.358,0-2.458,1.102-2.458,2.459c0,1.359,1.1,2.461,2.458,2.461
		c1.359,0,2.46-1.102,2.46-2.461C719.5,305.809,718.399,304.707,717.04,304.707"/>
	<path fill="#9966CC" d="M633.445,272.705c-2.961,1.639-5.117,2.793-11.432,2.793c-6.312,0-8.465-0.879-11.431-2.793
		c0-6.312,5.118-11.432,11.431-11.432C628.328,261.273,633.445,266.393,633.445,272.705"/>
	<path fill="#9966CC" d="M653.461,277.652c-1.58,0.873-2.731,1.49-6.102,1.49c-3.369,0-4.519-0.469-6.1-1.49
		c0-3.371,2.73-6.102,6.1-6.102C650.729,271.551,653.461,274.281,653.461,277.652"/>
	<path fill="#CCB3E6" d="M621.605,263.356c-0.916,0-1.838,0.167-2.723,0.481c-1.264,0.449-2.441,1.219-3.372,2.217
		c-0.937,0.992-1.623,2.197-2.028,3.463c-0.393,1.266-0.555,2.607-0.284,3.898c0.521-1.189,1.062-2.273,1.667-3.285
		c0.604-1.012,1.275-1.936,2.051-2.756s1.645-1.541,2.627-2.172c0.979-0.641,2.065-1.168,3.236-1.752
		C622.392,263.388,621.999,263.356,621.605,263.356"/>
	<path fill="#CCB3E6" d="M646.612,272.79c-0.422,0-0.846,0.077-1.251,0.222c-0.582,0.207-1.125,0.562-1.553,1.021
		c-0.432,0.457-0.748,1.012-0.936,1.596c-0.179,0.584-0.256,1.201-0.131,1.795c0.239-0.547,0.49-1.047,0.769-1.514
		c0.276-0.465,0.589-0.891,0.944-1.27c0.356-0.377,0.758-0.709,1.21-1c0.45-0.295,0.951-0.537,1.491-0.807
		C646.977,272.805,646.794,272.79,646.612,272.79"/>
</g>
</svg>
