<?xml version="1.0" encoding="utf-8"?>
<!-- Generator: Adobe Illustrator 15.0.0, SVG Export Plug-In . SVG Version: 6.00 Build 0)  -->
<!DOCTYPE svg PUBLIC "-//W3C//DTD SVG 1.1//EN" "http://www.w3.org/Graphics/SVG/1.1/DTD/svg11.dtd">
<svg version="1.1" id="Layer_1" xmlns="http://www.w3.org/2000/svg" xmlns:xlink="http://www.w3.org/1999/xlink" x="0px" y="0px"
	 width="267px" height="110px" viewBox="0 0 267 110" enable-background="new 0 0 267 110" xml:space="preserve">
<g>
	<path fill="#FFFFFF" d="M12.67,55.65l2.238-26.224c0,0-5.359-15.936,117.496-17.907s122.447,18.682,122.447,18.682l1.175,27.903
		L12.67,55.65"/>
	<path fill="#9966CC" d="M12.67,39.998h242.674V84.64c0,0-19.398,16.774-129.594,16.774S12.67,82.654,12.67,82.654V39.998"/>
	<path fill="#8255B7" d="M252.598,39.998c0,6.919-53.095,12.526-118.59,12.526c-65.496,0-118.592-5.607-118.592-12.526
		s53.096-12.527,118.592-12.527C199.503,27.471,252.598,33.079,252.598,39.998"/>
	<path d="M77.904,38.287c-5.317,0.21-10.648,0.262-15.98,0.163c-5.334-0.101-10.672-0.35-16.006-0.778
		c-5.334-0.434-10.664-1.03-15.988-1.943c-2.663-0.463-5.322-1-7.99-1.722c-1.334-0.364-2.67-0.772-4.021-1.293
		c-0.676-0.262-1.356-0.552-2.049-0.906c-0.347-0.178-0.696-0.372-1.054-0.596c-0.355-0.225-0.719-0.479-1.092-0.797l3.385-3.74
		c0.12,0.128,0.289,0.274,0.483,0.421c0.194,0.147,0.416,0.296,0.65,0.441c0.47,0.291,0.995,0.568,1.54,0.832
		c1.094,0.525,2.272,0.993,3.475,1.426c2.411,0.861,4.924,1.584,7.46,2.233c5.083,1.292,10.278,2.297,15.501,3.14
		c5.228,0.839,10.492,1.505,15.777,2.023C67.28,37.708,72.587,38.077,77.904,38.287z"/>
	<path d="M256.741,30.704l-0.17,0.118l-0.176,0.114c-0.114,0.073-0.224,0.137-0.331,0.196c-0.213,0.12-0.417,0.222-0.615,0.315
		c-0.395,0.186-0.771,0.339-1.143,0.479c-0.74,0.279-1.459,0.506-2.173,0.715c-1.427,0.413-2.835,0.746-4.244,1.048
		c-2.814,0.599-5.62,1.063-8.429,1.469c-5.614,0.803-11.229,1.356-16.847,1.783c-5.616,0.423-11.234,0.71-16.851,0.901
		c-5.617,0.189-11.231,0.281-16.844,0.298c5.596-0.436,11.182-0.948,16.754-1.556c5.571-0.609,11.129-1.313,16.657-2.149
		c5.526-0.839,11.03-1.804,16.453-2.999c2.71-0.601,5.401-1.259,8.026-2.027c1.31-0.385,2.606-0.798,3.844-1.26
		c0.617-0.231,1.221-0.476,1.774-0.734c0.276-0.129,0.54-0.263,0.771-0.395c0.114-0.065,0.22-0.13,0.307-0.189l0.113-0.083
		l0.042-0.034l0.007-0.006l-0.004,0.001l0.001-0.001l0.013-0.01l0.025-0.021L256.741,30.704z"/>
	<path fill="#231F20" d="M8.479,82.672c0.087-6.333,0.339-12.666,0.721-18.999c0.373-6.333,0.827-12.666,1.104-18.999
		c0.141-3.167,0.235-6.333,0.291-9.5c0.022-1.583,0.042-3.166,0.044-4.75l0.002-0.593v-0.297l0.001-0.171
		c0.002-0.107,0.007-0.188,0.012-0.27c0.046-0.666,0.229-1.3,0.481-1.847c0.252-0.549,0.565-1.018,0.897-1.43
		c0.332-0.411,0.685-0.769,1.043-1.091c0.718-0.645,1.459-1.162,2.207-1.627c0.748-0.462,1.504-0.866,2.264-1.236
		c1.52-0.738,3.052-1.356,4.594-1.912c1.54-0.554,3.087-1.053,4.64-1.509c1.552-0.458,3.108-0.881,4.669-1.273
		c3.117-0.791,6.249-1.481,9.385-2.115c3.137-0.634,6.28-1.207,9.429-1.742c3.147-0.534,6.299-1.029,9.456-1.485
		c3.156-0.462,6.315-0.883,9.479-1.282c12.65-1.581,25.35-2.704,38.069-3.355c12.72-0.655,25.457-0.839,38.187-0.584
		c6.366,0.132,12.73,0.386,19.088,0.768c6.357,0.385,12.709,0.894,19.048,1.541c6.339,0.64,12.667,1.41,18.979,2.307
		c3.155,0.45,6.308,0.927,9.454,1.445c3.147,0.515,6.288,1.064,9.424,1.664s6.265,1.236,9.383,1.946
		c3.118,0.708,6.226,1.486,9.314,2.385c3.083,0.912,6.156,1.916,9.156,3.281c1.496,0.694,2.982,1.462,4.391,2.522
		c0.7,0.535,1.39,1.142,1.986,1.939c0.297,0.398,0.567,0.85,0.769,1.364c0.2,0.513,0.323,1.094,0.32,1.68
		c-0.01,3.167,0.021,6.333,0.102,9.499c0.079,3.167,0.209,6.333,0.373,9.5c0.33,6.333,0.803,12.666,1.143,18.999
		c0.172,3.167,0.308,6.333,0.408,9.5c0.047,1.583,0.09,3.167,0.117,4.75l0.012,0.594l0.006,0.297l0.001,0.188
		c-0.002,0.15-0.007,0.256-0.014,0.362c-0.053,0.873-0.289,1.7-0.603,2.392c-0.315,0.698-0.697,1.276-1.09,1.771
		c-0.393,0.497-0.8,0.915-1.205,1.289c-0.811,0.743-1.623,1.316-2.425,1.826c-0.804,0.507-1.601,0.942-2.396,1.341
		c-1.59,0.794-3.17,1.438-4.749,2.021c-3.159,1.158-6.312,2.063-9.471,2.865c-3.159,0.8-6.32,1.484-9.485,2.1
		c-3.164,0.618-6.332,1.158-9.502,1.653c-6.341,0.985-12.691,1.771-19.046,2.426c-3.178,0.327-6.356,0.619-9.538,0.88
		c-3.18,0.263-6.36,0.498-9.542,0.709c-6.362,0.415-12.729,0.731-19.096,0.964c-12.733,0.467-25.47,0.597-38.207,0.452
		c-12.737-0.153-25.478-0.584-38.213-1.423c-3.184-0.207-6.366-0.451-9.55-0.719c-3.182-0.27-6.365-0.562-9.546-0.9
		c-6.362-0.672-12.72-1.491-19.072-2.533c-3.175-0.524-6.351-1.102-9.524-1.771c-3.174-0.666-6.345-1.418-9.521-2.317
		c-1.588-0.45-3.177-0.941-4.769-1.494c-1.594-0.556-3.189-1.169-4.801-1.907c-0.807-0.37-1.616-0.774-2.435-1.236
		c-0.817-0.463-1.645-0.979-2.485-1.619c-0.421-0.321-0.846-0.675-1.271-1.083c-0.425-0.409-0.854-0.873-1.268-1.433
		c-0.411-0.559-0.812-1.221-1.122-2.021C8.671,84.574,8.47,83.63,8.479,82.672z M16.863,82.672c0.006-0.165-0.03-0.322-0.051-0.38
		l0.051,0.036c0.122,0.153,0.449,0.463,0.876,0.764c0.427,0.309,0.951,0.624,1.521,0.925c0.568,0.301,1.186,0.59,1.823,0.866
		c1.28,0.552,2.654,1.049,4.062,1.502c1.41,0.454,2.856,0.867,4.322,1.254c2.934,0.771,5.94,1.426,8.973,2.019
		c3.034,0.588,6.098,1.113,9.176,1.587c6.156,0.952,12.368,1.716,18.602,2.377c3.117,0.325,6.238,0.632,9.365,0.904
		c3.127,0.275,6.259,0.518,9.393,0.746c12.537,0.899,25.12,1.435,37.711,1.651c6.296,0.113,12.594,0.133,18.893,0.087
		c6.297-0.048,12.593-0.172,18.884-0.378c6.292-0.205,12.579-0.492,18.856-0.871c6.277-0.368,12.546-0.845,18.797-1.415
		c3.125-0.29,6.247-0.6,9.359-0.952c3.114-0.346,6.221-0.729,9.317-1.153c6.188-0.852,12.349-1.859,18.354-3.209
		c1.5-0.339,2.987-0.704,4.455-1.099c1.467-0.395,2.916-0.821,4.322-1.294c1.405-0.473,2.774-0.993,4.037-1.575
		c0.631-0.29,1.234-0.598,1.78-0.919c0.545-0.319,1.036-0.657,1.405-0.972c0.183-0.156,0.333-0.305,0.437-0.424
		c0.104-0.12,0.161-0.208,0.177-0.23l0.001,0.108v0.066l0.003-0.109l0.006-0.297l0.012-0.594c0.027-1.583,0.071-3.167,0.117-4.75
		c0.1-3.166,0.235-6.333,0.408-9.5c0.34-6.333,0.812-12.666,1.143-18.999c0.164-3.167,0.293-6.333,0.373-9.5
		c0.079-3.166,0.111-6.332,0.103-9.499c-0.002-0.206-0.045-0.413-0.135-0.637c-0.089-0.223-0.227-0.458-0.404-0.692
		c-0.357-0.47-0.862-0.928-1.427-1.342c-0.566-0.414-1.191-0.795-1.844-1.146c-0.652-0.351-1.333-0.677-2.029-0.977
		c-1.394-0.602-2.844-1.128-4.316-1.598c-1.474-0.472-2.971-0.895-4.481-1.278c-3.021-0.772-6.093-1.4-9.18-1.952
		c-3.09-0.545-6.197-1.012-9.315-1.411c-6.238-0.798-12.513-1.37-18.796-1.801c-6.284-0.433-12.579-0.73-18.875-0.963
		c-6.298-0.225-12.595-0.39-18.894-0.51c-6.298-0.123-12.596-0.206-18.896-0.256c-12.599-0.104-25.2-0.06-37.796,0.159
		c-3.15,0.057-6.299,0.125-9.447,0.207c-3.149,0.081-6.297,0.18-9.444,0.299c-6.295,0.232-12.587,0.544-18.868,0.979
		c-3.141,0.215-6.277,0.47-9.409,0.756c-3.133,0.295-6.261,0.623-9.379,1.007s-6.227,0.822-9.319,1.33
		c-3.092,0.509-6.168,1.09-9.208,1.775c-3.037,0.691-6.046,1.482-8.939,2.476c-1.443,0.501-2.861,1.047-4.194,1.684
		c-0.665,0.318-1.31,0.658-1.911,1.023c-0.601,0.364-1.161,0.759-1.622,1.173c-0.461,0.409-0.814,0.849-0.969,1.192
		c-0.079,0.173-0.113,0.312-0.123,0.438l-0.002,0.026L14.7,29.535l0.001,0.297l0.002,0.593c0.002,1.583,0.021,3.167,0.045,4.75
		c0.054,3.167,0.149,6.333,0.29,9.5c0.276,6.333,0.731,12.665,1.103,18.999C16.522,70.006,16.774,76.339,16.863,82.672z"/>
	<circle fill="#9D5FB7" cx="26.795" cy="54.867" r="2.342"/>
	<path fill="#AD85D6" d="M37.064,64.441c-1.791,0-3.242,1.452-3.242,3.243s1.451,3.244,3.242,3.244c1.792,0,3.243-1.453,3.243-3.244
		S38.856,64.441,37.064,64.441"/>
	<path fill="#AD85D6" d="M59.406,75.137c-1.792,0-3.244,1.452-3.244,3.243c0,1.791,1.452,3.242,3.244,3.242
		c1.79,0,3.242-1.452,3.242-3.242C62.648,76.589,61.196,75.137,59.406,75.137"/>
	<path fill="#AD85D6" d="M88.231,58.58c-1.792,0-3.243,1.451-3.243,3.242c0,1.791,1.451,3.243,3.243,3.243
		c1.791,0,3.242-1.453,3.242-3.243C91.474,60.03,90.022,58.58,88.231,58.58"/>
	<path fill="#AD85D6" d="M137.25,76.692c-1.791,0-3.242,1.452-3.242,3.243c0,1.791,1.451,3.243,3.242,3.243s3.243-1.453,3.243-3.243
		C140.493,78.145,139.041,76.692,137.25,76.692"/>
	<path fill="#AD85D6" d="M178.653,54.867c-1.79,0-3.242,1.451-3.242,3.243c0,1.79,1.452,3.242,3.242,3.242
		c1.792,0,3.243-1.452,3.243-3.242C181.896,56.318,180.445,54.867,178.653,54.867"/>
	<path fill="#AD85D6" d="M182.951,61.461c-0.721,0-1.307,0.585-1.307,1.306c0,0.721,0.586,1.307,1.307,1.307
		s1.306-0.586,1.306-1.307C184.257,62.046,183.672,61.461,182.951,61.461"/>
	<path fill="#AD85D6" d="M237.045,64.441c-1.791,0-3.242,1.452-3.242,3.243s1.451,3.244,3.242,3.244s3.243-1.453,3.243-3.244
		S238.836,64.441,237.045,64.441"/>
	<path fill="#AD85D6" d="M225.318,76.692c-1.792,0-3.243,1.452-3.243,3.243c0,1.791,1.451,3.243,3.243,3.243
		c1.791,0,3.242-1.453,3.242-3.243C228.561,78.145,227.109,76.692,225.318,76.692"/>
	<path fill="#9966CC" d="M115.125,34.508c-3.905,2.162-6.747,3.683-15.068,3.683c-8.322,0-11.158-1.161-15.068-3.683
		c0-8.322,6.746-15.068,15.068-15.068C108.378,19.44,115.125,26.187,115.125,34.508"/>
	<path fill="#9966CC" d="M141.508,41.029c-2.083,1.153-3.601,1.966-8.041,1.966c-4.441,0-5.955-0.619-8.042-1.966
		c0-4.441,3.601-8.042,8.042-8.042C137.907,32.987,141.508,36.588,141.508,41.029"/>
	<path fill="#CCB3E6" d="M99.519,22.186c-1.208,0-2.423,0.221-3.59,0.635c-1.665,0.593-3.218,1.608-4.444,2.921
		c-1.234,1.311-2.141,2.898-2.674,4.567c-0.518,1.668-0.733,3.438-0.376,5.137c0.688-1.567,1.4-2.994,2.197-4.33
		c0.796-1.332,1.683-2.552,2.703-3.633c1.021-1.081,2.169-2.03,3.463-2.861c1.292-0.845,2.723-1.542,4.267-2.312
		C100.554,22.227,100.037,22.186,99.519,22.186"/>
	<path fill="#CCB3E6" d="M132.484,34.622c-0.556,0-1.115,0.102-1.652,0.292c-0.768,0.272-1.482,0.74-2.048,1.345
		c-0.569,0.603-0.986,1.335-1.231,2.104c-0.238,0.769-0.338,1.583-0.174,2.367c0.316-0.723,0.645-1.379,1.013-1.996
		c0.366-0.613,0.775-1.174,1.245-1.673c0.471-0.498,0.999-0.936,1.596-1.319c0.594-0.389,1.254-0.709,1.965-1.064
		C132.961,34.64,132.724,34.622,132.484,34.622"/>
</g>
</svg>
