<?xml version="1.0" encoding="utf-8"?>
<!-- Generator: Adobe Illustrator 15.0.0, SVG Export Plug-In . SVG Version: 6.00 Build 0)  -->
<!DOCTYPE svg PUBLIC "-//W3C//DTD SVG 1.1//EN" "http://www.w3.org/Graphics/SVG/1.1/DTD/svg11.dtd">
<svg version="1.1" id="Layer_1" xmlns="http://www.w3.org/2000/svg" xmlns:xlink="http://www.w3.org/1999/xlink" x="0px" y="0px"
	 width="1280px" height="800px" viewBox="0 0 1280 800" enable-background="new 0 0 1280 800" xml:space="preserve">
<g>
	<polyline fill="#FFFFFF" points="1281,800.081 1,800.081 1,0.081 1281,0.081 1281,800.081 	"/>
	<g>
		<path fill="#B57EDC" d="M275.632,527.792h-96.973v-24.39h9.155v-53.101h-9.155v-24.39h58.228v24.39h-9.668v53.101h24.097v-16.333
			h24.316V527.792z"/>
		<path fill="#B57EDC" d="M320.09,527.792h-40.356v-24.39h7.764l19.116-53.101h-8.203v-24.39h73.242v24.39h-8.203l19.482,53.101
			h7.471v24.39h-53.174v-22.339h8.936l-3.882-12.817h-26.074l-4.468,12.817h8.35V527.792z M329.685,451.767l-9.595,28.198h18.237
			L329.685,451.767z"/>
		<path fill="#B57EDC" d="M456.859,528.671h-31.714l-32.52-78.369h-7.544v-24.39h54.785v24.39h-8.643l15.161,43.433l15.894-43.433
			h-8.35v-24.39h41.089v24.39h-7.544L456.859,528.671z"/>
		<path fill="#B57EDC" d="M600.268,527.792h-97.192v-24.39h7.91v-53.101h-8.057v-24.39h97.339v32.593h-26.733v-8.203H550.39v15.674
			h20.142v20.728H550.39v16.699h23.145v-8.203h26.733V527.792z"/>
		<path fill="#B57EDC" d="M655.492,527.792h-41.821v-24.39h8.936v-53.101h-8.936v-24.39h48.267l37.061,53.247v-28.857h-8.276v-24.39
			h41.089v24.39h-8.862v78.809h-33.545l-42.92-61.597v35.889h9.009V527.792z"/>
		<path fill="#B57EDC" d="M791.942,527.792h-47.388v-24.39h7.983v-53.101h-7.983v-24.39h48.779c11.133,0,20.215,0.685,27.246,2.051
			c7.079,1.368,13.744,4.175,19.995,8.423c6.2,4.297,11.084,10.107,14.648,17.432c1.758,3.516,3.101,7.276,4.028,11.279
			c0.927,4.004,1.392,8.203,1.392,12.598c0,8.838-1.88,16.895-5.64,24.17c-3.711,7.227-8.423,12.77-14.136,16.626
			c-5.566,3.858-11.671,6.372-18.311,7.544C815.966,527.206,805.76,527.792,791.942,527.792z M791.942,450.302v53.101h3.735
			c9.276,0,15.308-2.465,18.091-7.397c2.734-4.931,4.102-11.133,4.102-18.604c0-4.492-0.586-8.936-1.758-13.33
			c-1.221-4.395-3.369-7.788-6.445-10.181c-3.028-2.392-8.448-3.589-16.26-3.589H791.942z"/>
		<path fill="#B57EDC" d="M972.118,527.792h-97.192v-24.39h7.91v-53.101h-8.057v-24.39h97.339v32.593h-26.733v-8.203H922.24v15.674
			h20.142v20.728H922.24v16.699h23.145v-8.203h26.733V527.792z"/>
		<path fill="#B57EDC" d="M1042.577,527.792h-55.371v-24.39h8.276v-53.101h-8.276v-24.39h55.371c4.98,0,9.595,0.086,13.843,0.256
			c4.248,0.172,7.885,0.416,10.913,0.732c3.027,0.318,5.811,0.745,8.35,1.282c7.129,1.514,12.915,4.81,17.358,9.888
			c4.492,5.176,6.738,11.279,6.738,18.311c0,5.273-1.367,10.06-4.102,14.355c-2.735,4.248-6.324,7.374-10.767,9.375l14.062,23.291
			h7.324v24.39h-36.694l-22.192-41.602h-12.524v17.212h7.69V527.792z M1034.887,448.251v19.409h4.395
			c5.761,0,9.668-0.17,11.719-0.513c2.197-0.341,4.053-1.318,5.566-2.93c1.513-1.513,2.271-3.589,2.271-6.226
			s-0.758-4.735-2.271-6.299c-1.514-1.611-3.442-2.587-5.786-2.93c-2.246-0.341-6.348-0.513-12.305-0.513H1034.887z"/>
	</g>
	<path fill="#FFFFFF" d="M549.106,266.568l1.703-19.933c0,0-4.076-12.114,89.314-13.613c93.388-1.499,93.079,14.2,93.079,14.2
		l0.891,21.211L549.106,266.568"/>
	<path fill="#B57EDC" d="M549.106,257.9h184.097v27.844c0,0-14.713,15.871-98.312,15.871c-83.596,0-85.785-13.353-85.785-13.353
		V257.9"/>
	<path fill="#A271CC" d="M731.121,257.9c0,5.249-40.279,9.504-89.964,9.504c-49.688,0-89.967-4.255-89.967-9.504
		c0-5.25,40.279-9.503,89.967-9.503C690.842,248.397,731.121,252.651,731.121,257.9"/>
	<path d="M611.034,256.203c-5.253,0.157-10.516,0.101-15.774-0.114c-5.259-0.216-10.516-0.591-15.761-1.115
		c-5.246-0.527-10.482-1.195-15.704-2.081c-2.612-0.446-5.218-0.943-7.827-1.562c-1.305-0.312-2.608-0.652-3.932-1.079
		c-0.662-0.218-1.326-0.451-2.025-0.766c-0.354-0.161-0.711-0.335-1.12-0.603c-0.208-0.14-0.429-0.295-0.692-0.565
		c-0.131-0.139-0.278-0.308-0.43-0.57c-0.074-0.129-0.149-0.292-0.209-0.485c-0.061-0.191-0.104-0.422-0.105-0.672h3.828
		c-0.002-0.169-0.031-0.318-0.066-0.433c-0.036-0.113-0.08-0.2-0.113-0.258c-0.07-0.12-0.113-0.159-0.135-0.179l0.064,0.063
		c0.133,0.104,0.355,0.239,0.594,0.365c0.482,0.255,1.045,0.497,1.616,0.723c1.153,0.451,2.37,0.852,3.599,1.225
		c2.463,0.746,4.984,1.389,7.52,1.983c5.076,1.182,10.22,2.158,15.387,2.997c5.168,0.835,10.365,1.525,15.581,2.059
		C600.545,255.667,605.781,256.042,611.034,256.203z"/>
	<path fill="#231F20" d="M546.003,287.397c0.025-4.804,0.178-9.608,0.45-14.412c0.263-4.806,0.614-9.61,0.849-14.414
		c0.121-2.402,0.207-4.804,0.269-7.208c0.028-1.201,0.052-2.402,0.063-3.602l0.006-0.451l0.002-0.225l0.002-0.13l0.012-0.204
		c0.037-0.505,0.179-0.984,0.371-1.396c0.194-0.414,0.435-0.767,0.688-1.076c0.252-0.311,0.521-0.577,0.795-0.82
		c0.547-0.483,1.111-0.868,1.68-1.213c0.57-0.342,1.146-0.641,1.723-0.915c1.156-0.545,2.324-0.993,3.496-1.397
		c2.344-0.802,4.709-1.426,7.08-1.976c2.373-0.548,4.754-1.013,7.139-1.43c2.385-0.415,4.775-0.783,7.166-1.115
		c4.785-0.663,9.58-1.186,14.381-1.617c9.601-0.856,19.22-1.375,28.842-1.663c9.621-0.286,19.246-0.339,28.867-0.186
		c4.812,0.077,9.621,0.209,14.43,0.403c4.808,0.19,9.613,0.448,14.415,0.77c2.402,0.163,4.803,0.345,7.201,0.546
		s4.799,0.423,7.193,0.67c4.791,0.497,9.576,1.08,14.344,1.825c2.385,0.375,4.766,0.782,7.139,1.251
		c2.371,0.472,4.738,0.998,7.086,1.63c1.176,0.316,2.346,0.659,3.51,1.044c1.162,0.386,2.32,0.812,3.461,1.315
		c0.57,0.251,1.137,0.524,1.695,0.829c0.559,0.304,1.111,0.64,1.648,1.037c0.533,0.4,1.059,0.854,1.514,1.453
		c0.227,0.3,0.434,0.641,0.588,1.028c0.154,0.387,0.252,0.826,0.252,1.271c0.023,4.805,0.178,9.608,0.449,14.413
		c0.262,4.804,0.613,9.608,0.848,14.412c0.121,2.402,0.209,4.806,0.27,7.208c0.027,1.201,0.053,2.402,0.064,3.603l0.004,0.452
		l0.004,0.224v0.142c-0.002,0.114-0.006,0.195-0.012,0.276c-0.043,0.661-0.223,1.287-0.461,1.812
		c-0.24,0.527-0.533,0.964-0.832,1.338c-0.299,0.375-0.607,0.69-0.916,0.971c-0.617,0.561-1.234,0.991-1.844,1.374
		c-0.609,0.38-1.215,0.706-1.82,1.004c-1.207,0.594-2.408,1.076-3.604,1.512c-2.398,0.865-4.791,1.538-7.188,2.138
		c-2.396,0.597-4.793,1.109-7.193,1.57c-2.4,0.463-4.803,0.869-7.207,1.239c-4.809,0.741-9.623,1.338-14.441,1.845
		c-9.637,1.01-19.29,1.642-28.948,2.027c-4.83,0.188-9.66,0.317-14.492,0.377c-4.83,0.063-9.66,0.062-14.492,0.001
		c-9.663-0.125-19.326-0.489-28.982-1.167c-4.828-0.338-9.654-0.756-14.479-1.278c-4.824-0.52-9.644-1.146-14.459-1.93
		c-2.409-0.391-4.815-0.83-7.222-1.328c-2.406-0.5-4.812-1.056-7.222-1.726c-1.205-0.336-2.41-0.701-3.619-1.112
		c-1.21-0.413-2.42-0.869-3.646-1.422c-0.609-0.276-1.227-0.577-1.848-0.921c-0.621-0.346-1.25-0.732-1.891-1.213
		c-0.318-0.241-0.641-0.507-0.965-0.814c-0.325-0.308-0.65-0.656-0.965-1.078c-0.314-0.422-0.621-0.922-0.857-1.527
		C546.155,288.841,545.999,288.124,546.003,287.397 M552.364,287.397c0.002-0.125-0.029-0.243-0.045-0.286l0.032,0.035
		c0.091,0.121,0.335,0.362,0.657,0.595c0.324,0.24,0.721,0.484,1.148,0.718c0.434,0.233,0.898,0.458,1.383,0.672
		c0.971,0.427,2.012,0.812,3.079,1.164c1.068,0.353,2.167,0.676,3.277,0.974c2.226,0.598,4.507,1.107,6.809,1.562
		c2.302,0.456,4.628,0.855,6.962,1.221c4.674,0.729,9.392,1.305,14.121,1.796c2.367,0.243,4.736,0.463,7.11,0.661
		c2.374,0.2,4.752,0.38,7.13,0.542c4.758,0.319,9.523,0.574,14.294,0.764c4.77,0.191,9.545,0.322,14.32,0.399
		c9.554,0.152,19.114,0.1,28.661-0.184c9.546-0.284,19.083-0.799,28.575-1.644c4.744-0.427,9.475-0.941,14.174-1.593
		c2.352-0.324,4.689-0.687,7.016-1.09c2.326-0.405,4.637-0.857,6.912-1.382c2.273-0.526,4.521-1.122,6.658-1.851
		c1.064-0.366,2.104-0.766,3.061-1.217c0.477-0.224,0.934-0.461,1.348-0.709c0.412-0.246,0.785-0.507,1.062-0.75
		c0.137-0.121,0.25-0.235,0.328-0.328c0.078-0.093,0.121-0.163,0.131-0.181l-0.004,0.08l-0.002,0.05l0.002-0.083l0.002-0.224
		l0.006-0.452c0.012-1.2,0.037-2.401,0.064-3.603c0.061-2.402,0.148-4.805,0.268-7.208c0.234-4.803,0.588-9.608,0.848-14.412
		c0.273-4.805,0.428-9.608,0.451-14.413c0-0.156-0.029-0.315-0.094-0.487c-0.066-0.17-0.17-0.351-0.303-0.532
		c-0.266-0.361-0.648-0.713-1.074-1.035c-0.426-0.321-0.898-0.617-1.391-0.892c-0.494-0.274-1.008-0.527-1.533-0.766
		c-1.055-0.477-2.15-0.893-3.264-1.271c-1.115-0.38-2.248-0.724-3.389-1.042c-2.285-0.635-4.605-1.175-6.941-1.66
		c-2.336-0.483-4.688-0.913-7.049-1.296c-4.721-0.767-9.473-1.386-14.236-1.9c-4.764-0.515-9.539-0.93-14.322-1.265
		c-9.567-0.673-19.157-1.034-28.751-1.158c-4.797-0.06-9.595-0.061-14.391,0.004c-4.797,0.058-9.593,0.186-14.385,0.373
		c-9.584,0.384-19.156,1.011-28.684,2.01c-4.762,0.502-9.514,1.092-14.238,1.82c-2.359,0.364-4.715,0.763-7.055,1.214
		c-2.34,0.451-4.668,0.95-6.967,1.522c-2.299,0.575-4.574,1.221-6.765,2.012c-1.091,0.398-2.161,0.833-3.171,1.331
		c-0.502,0.25-0.99,0.514-1.444,0.799c-0.454,0.284-0.876,0.591-1.224,0.91c-0.348,0.316-0.612,0.656-0.725,0.922
		c-0.06,0.132-0.082,0.24-0.086,0.335v0.021v0.095l0.002,0.225l0.006,0.451c0.013,1.2,0.037,2.401,0.064,3.602
		c0.061,2.403,0.15,4.805,0.268,7.208c0.234,4.804,0.588,9.608,0.85,14.414C552.186,277.789,552.339,282.594,552.364,287.397"/>
	<path fill="#C498E3" d="M715.955,274.025c-0.865,0-1.568,0.703-1.568,1.57s0.703,1.571,1.568,1.571c0.869,0,1.57-0.704,1.57-1.571
		S716.824,274.025,715.955,274.025"/>
	<path fill="#C498E3" d="M675.855,289.912c-0.868,0-1.569,0.703-1.569,1.571c0,0.866,0.701,1.569,1.569,1.569
		c0.867,0,1.568-0.703,1.568-1.569C677.424,290.615,676.723,289.912,675.855,289.912"/>
	<path fill="#C498E3" d="M606.933,277.166c-0.867,0-1.57,0.703-1.57,1.57s0.703,1.57,1.57,1.57c0.868,0,1.57-0.703,1.57-1.57
		S607.801,277.166,606.933,277.166"/>
	<path fill="#C498E3" d="M578.631,278.736c-0.866,0-1.571,0.703-1.571,1.57s0.705,1.57,1.571,1.57s1.569-0.703,1.569-1.57
		S579.497,278.736,578.631,278.736"/>
	<path fill="#C498E3" d="M564.017,268.434c-0.866,0-1.57,0.703-1.57,1.572c0,0.866,0.704,1.569,1.57,1.569
		c0.867,0,1.57-0.703,1.57-1.569C565.587,269.137,564.884,268.434,564.017,268.434"/>
	<path fill="#C498E3" d="M642.726,275.595c-0.867,0-1.568,0.704-1.568,1.571s0.701,1.57,1.568,1.57s1.57-0.703,1.57-1.57
		S643.593,275.595,642.726,275.595"/>
	<path fill="#B57EDC" d="M659.69,257.978c-1.662,0.919-2.871,1.566-6.41,1.566c-3.542,0-4.746-0.494-6.41-1.566
		c0-3.541,2.868-6.411,6.41-6.411C656.819,251.566,659.69,254.437,659.69,257.978"/>
	<path fill="#B57EDC" d="M623.854,252.999c-1.661,0.92-2.87,1.567-6.409,1.567c-3.541,0-4.746-0.494-6.41-1.567
		c0-3.54,2.869-6.409,6.41-6.409C620.983,246.59,623.854,249.459,623.854,252.999z"/>
	<path fill="#B57EDC" d="M708.064,253.561c-3.541,1.958-6.117,3.339-13.664,3.339s-10.117-1.053-13.664-3.339
		c0-7.548,6.117-13.665,13.664-13.665S708.064,246.013,708.064,253.561"/>
	<path d="M734.094,248.403l-0.061,0.045l-0.092,0.062l-0.158,0.104c-0.104,0.065-0.203,0.125-0.303,0.181
		c-0.195,0.111-0.387,0.208-0.57,0.296c-0.371,0.178-0.73,0.327-1.086,0.465c-0.709,0.271-1.404,0.498-2.1,0.707
		c-1.387,0.413-2.764,0.751-4.141,1.058c-2.756,0.611-5.512,1.092-8.273,1.515c-5.518,0.837-11.047,1.43-16.58,1.898
		c-5.531,0.465-11.068,0.795-16.605,1.031c-5.537,0.234-11.075,0.374-16.61,0.438c5.521-0.382,11.038-0.84,16.542-1.392
		c5.502-0.554,10.994-1.2,16.459-1.979c5.465-0.781,10.908-1.687,16.283-2.821c2.686-0.57,5.354-1.198,7.967-1.937
		c1.303-0.37,2.594-0.769,3.838-1.219c0.619-0.227,1.229-0.465,1.795-0.723c0.285-0.129,0.559-0.263,0.805-0.399
		c0.123-0.067,0.236-0.136,0.338-0.201l0.137-0.095l0.055-0.043l0.012-0.009l0.006-0.004l0.039-0.033L734.094,248.403z"/>
	<path fill="#DABFEE" d="M693.012,242.077c-0.977,0-1.96,0.178-2.904,0.513c-1.346,0.479-2.602,1.3-3.594,2.363
		c-0.998,1.059-1.73,2.344-2.162,3.693c-0.418,1.349-0.594,2.779-0.305,4.155c0.559-1.269,1.133-2.423,1.777-3.503
		c0.643-1.077,1.361-2.063,2.186-2.938c0.826-0.874,1.754-1.642,2.803-2.313c1.043-0.682,2.201-1.246,3.449-1.869
		C693.849,242.109,693.431,242.077,693.012,242.077"/>
	<path fill="#DABFEE" d="M652.946,253.912c-0.389,0-0.778,0.071-1.152,0.204c-0.535,0.19-1.033,0.516-1.426,0.937
		c-0.396,0.42-0.686,0.929-0.857,1.464c-0.165,0.534-0.234,1.101-0.121,1.646c0.221-0.502,0.449-0.96,0.706-1.388
		c0.255-0.428,0.539-0.818,0.865-1.166c0.329-0.345,0.696-0.65,1.111-0.917c0.413-0.27,0.872-0.494,1.368-0.742
		C653.277,253.924,653.112,253.912,652.946,253.912"/>
</g>
</svg>
