<?xml version="1.0" encoding="utf-8"?>
<!-- Generator: Adobe Illustrator 15.0.0, SVG Export Plug-In . SVG Version: 6.00 Build 0)  -->
<!DOCTYPE svg PUBLIC "-//W3C//DTD SVG 1.1//EN" "http://www.w3.org/Graphics/SVG/1.1/DTD/svg11.dtd">
<svg version="1.1" id="Layer_1" xmlns="http://www.w3.org/2000/svg" xmlns:xlink="http://www.w3.org/1999/xlink" x="0px" y="0px"
	 width="208px" height="98.613px" viewBox="0 0 208 98.613" enable-background="new 0 0 208 98.613" xml:space="preserve">
<g>
	<path fill="#FFFFFF" d="M10.408,54.184l1.697-19.865c0,0-4.061-12.073,89.008-13.566c93.068-1.494,92.76,14.151,92.76,14.151
		l0.889,21.139L10.408,54.184"/>
	<path fill="#E0B0FF" d="M11.545,44.78h186.178v31.229c0,0-14.881,14.379-99.422,14.379c-84.543,0-86.756-12.098-86.756-12.098
		V44.78"/>
	<path fill="#C698EA" d="M195.539,44.78c0,5.309-40.734,9.611-90.982,9.611s-90.982-4.303-90.982-9.611
		c0-5.308,40.734-9.61,90.982-9.61S195.539,39.472,195.539,44.78"/>
	<path d="M198.26,37.671l-0.17,0.119l-0.176,0.114c-0.115,0.072-0.225,0.137-0.332,0.196c-0.213,0.12-0.418,0.221-0.615,0.314
		c-0.395,0.187-0.771,0.339-1.143,0.48c-0.74,0.279-1.459,0.505-2.172,0.714c-1.428,0.413-2.836,0.746-4.244,1.048
		c-2.816,0.6-5.621,1.063-8.43,1.47c-5.613,0.803-11.229,1.356-16.848,1.783c-5.615,0.423-11.234,0.71-16.85,0.9
		c-5.617,0.189-11.232,0.282-16.844,0.298c5.596-0.436,11.182-0.947,16.754-1.556c5.57-0.608,11.129-1.312,16.658-2.148
		c5.525-0.839,11.029-1.804,16.453-2.999c2.709-0.601,5.4-1.26,8.025-2.027c1.311-0.385,2.607-0.798,3.844-1.26
		c0.617-0.231,1.221-0.475,1.775-0.734c0.275-0.128,0.541-0.262,0.77-0.394c0.115-0.065,0.221-0.13,0.307-0.189l0.113-0.083
		l0.041-0.034l0.008-0.006h-0.004l0.014-0.011l0.025-0.021L198.26,37.671z"/>
	<path fill="#231F20" d="M7.354,76.008c0.018-2.43,0.078-4.859,0.188-7.287c0.107-2.43,0.262-4.859,0.453-7.289
		c0.371-4.858,0.863-9.717,1.16-14.576c0.152-2.429,0.254-4.858,0.312-7.288c0.025-1.215,0.043-2.43,0.047-3.645v-0.455l0.002-0.228
		v-0.156c0-0.017,0.004-0.113,0.01-0.205c0.006-0.094,0.014-0.148,0.02-0.224l0.031-0.211c0.025-0.139,0.053-0.276,0.09-0.408
		c0.07-0.266,0.164-0.517,0.271-0.749c0.213-0.463,0.475-0.856,0.75-1.196c0.273-0.34,0.561-0.631,0.85-0.893
		c0.582-0.52,1.174-0.931,1.766-1.297c0.59-0.363,1.186-0.679,1.779-0.967c1.189-0.575,2.381-1.048,3.574-1.476
		c1.195-0.425,2.395-0.799,3.596-1.146c1.199-0.345,2.4-0.661,3.604-0.955c4.814-1.17,9.65-2.038,14.496-2.792
		c2.422-0.374,4.848-0.709,7.275-1.019c2.426-0.312,4.855-0.599,7.285-0.86c4.861-0.519,9.727-0.964,14.598-1.331
		c4.869-0.369,9.744-0.676,14.619-0.918c9.752-0.491,19.516-0.75,29.285-0.784c9.771-0.031,19.549,0.167,29.332,0.687
		c2.445,0.13,4.891,0.278,7.338,0.452c2.445,0.174,4.893,0.372,7.338,0.595c4.895,0.444,9.787,1.008,14.686,1.725
		c2.451,0.359,4.9,0.772,7.355,1.242c2.455,0.473,4.912,1.006,7.387,1.657c1.236,0.326,2.477,0.688,3.727,1.096
		c1.25,0.411,2.508,0.869,3.793,1.432c0.645,0.282,1.293,0.591,1.957,0.951s1.344,0.77,2.051,1.288
		c0.352,0.262,0.713,0.553,1.078,0.895c0.367,0.342,0.742,0.738,1.111,1.226c0.367,0.487,0.732,1.072,1.02,1.799
		c0.145,0.361,0.266,0.754,0.35,1.174c0.086,0.419,0.133,0.859,0.133,1.301c0.033,4.858-0.021,9.717-0.158,14.576
		c-0.066,2.43-0.148,4.859-0.227,7.287c-0.078,2.43-0.162,4.859-0.221,7.288c-0.062,2.43-0.107,4.858-0.135,7.288
		c-0.012,1.215-0.02,2.43-0.021,3.643l-0.002,0.457v0.227l-0.002,0.187c0,0.002-0.004,0.142-0.012,0.275
		c-0.008,0.136-0.018,0.203-0.029,0.309c-0.012,0.095-0.025,0.19-0.041,0.284c-0.033,0.188-0.072,0.373-0.121,0.551
		c-0.096,0.356-0.221,0.689-0.359,0.992c-0.281,0.609-0.615,1.104-0.953,1.522c-0.338,0.419-0.684,0.766-1.021,1.071
		c-0.68,0.607-1.342,1.063-1.99,1.464c-0.648,0.397-1.287,0.734-1.918,1.039c-1.262,0.608-2.5,1.095-3.736,1.533
		c-1.232,0.436-2.461,0.817-3.686,1.167c-1.225,0.35-2.447,0.668-3.668,0.964c-4.885,1.178-9.76,2.029-14.637,2.771
		c-2.438,0.367-4.879,0.696-7.318,0.996c-2.438,0.304-4.879,0.579-7.32,0.831c-9.762,0.999-19.533,1.661-29.311,2.069
		c-9.777,0.413-19.559,0.585-29.342,0.508c-4.893-0.038-9.785-0.13-14.68-0.297c-4.893-0.171-9.787-0.402-14.68-0.728
		c-2.447-0.161-4.893-0.339-7.34-0.544c-2.447-0.208-4.893-0.437-7.34-0.691c-4.893-0.507-9.783-1.136-14.678-1.917
		c-2.449-0.391-4.895-0.836-7.346-1.338c-2.451-0.507-4.904-1.071-7.371-1.753c-1.232-0.342-2.467-0.718-3.713-1.142
		c-1.244-0.427-2.496-0.898-3.771-1.475c-0.641-0.29-1.283-0.605-1.941-0.972c-0.658-0.367-1.33-0.779-2.025-1.301
		c-0.348-0.263-0.701-0.555-1.062-0.896c-0.359-0.342-0.727-0.736-1.088-1.218c-0.357-0.482-0.713-1.06-0.99-1.772
		c-0.141-0.355-0.258-0.741-0.338-1.151S7.354,76.439,7.354,76.008 M15.736,76.008c0.006-0.257-0.055-0.505-0.111-0.646
		c-0.057-0.146-0.098-0.199-0.092-0.194c0.006,0.012,0.191,0.206,0.469,0.404c0.277,0.204,0.643,0.431,1.049,0.649
		c0.406,0.22,0.855,0.435,1.326,0.642c0.941,0.413,1.969,0.792,3.025,1.14c1.059,0.35,2.152,0.667,3.262,0.967
		c2.221,0.6,4.508,1.112,6.818,1.573c2.311,0.462,4.65,0.862,7,1.238c4.701,0.748,9.457,1.333,14.225,1.849
		c2.387,0.255,4.775,0.486,7.17,0.694c2.396,0.212,4.793,0.406,7.193,0.58c19.205,1.366,38.549,1.765,57.842,1.271
		c4.822-0.131,9.643-0.327,14.455-0.595c4.812-0.269,9.619-0.604,14.408-1.049c2.395-0.22,4.785-0.462,7.172-0.734
		c2.383-0.275,4.762-0.578,7.131-0.915c4.734-0.674,9.441-1.49,14.012-2.569c2.279-0.542,4.527-1.158,6.645-1.903
		c1.057-0.373,2.08-0.779,3.006-1.226c0.463-0.224,0.9-0.457,1.285-0.694c0.387-0.235,0.723-0.48,0.949-0.684
		c0.111-0.101,0.193-0.189,0.236-0.243l0.02-0.014l-0.049,0.139l-0.021,0.104l-0.008,0.061l-0.01,0.082v0.047
		c0-0.023-0.001-0.015-0.001-0.006c0,0.012-0.001,0.023,0.001-0.036l-0.002-0.227v-0.457c-0.002-1.213-0.012-2.428-0.023-3.643
		c-0.025-2.43-0.072-4.858-0.133-7.288c-0.061-2.429-0.143-4.858-0.223-7.288c-0.078-2.428-0.158-4.857-0.227-7.287
		c-0.137-4.859-0.189-9.718-0.158-14.576c0,0.278,0.068,0.544,0.133,0.697c0.068,0.16,0.119,0.22,0.121,0.221l-0.109-0.124
		c-0.076-0.074-0.184-0.17-0.318-0.272c-0.268-0.208-0.625-0.439-1.025-0.664s-0.842-0.447-1.309-0.661
		c-0.934-0.427-1.953-0.821-3.006-1.185c-1.053-0.364-2.143-0.697-3.248-1.014c-2.215-0.631-4.496-1.177-6.803-1.67
		c-2.307-0.494-4.643-0.927-6.99-1.334c-4.697-0.812-9.447-1.464-14.217-2.042c-2.385-0.287-4.775-0.549-7.17-0.79
		c-2.395-0.242-4.793-0.467-7.195-0.671c-9.607-0.814-19.256-1.358-28.918-1.672c-9.66-0.31-19.338-0.393-29.008-0.213
		c-9.67,0.188-19.336,0.628-28.959,1.463c-2.404,0.21-4.807,0.442-7.205,0.705c-2.396,0.267-4.789,0.562-7.174,0.893
		s-4.762,0.694-7.123,1.115c-2.363,0.42-4.711,0.888-7.029,1.435c-2.316,0.546-4.607,1.166-6.803,1.932
		c-1.094,0.384-2.166,0.804-3.166,1.284c-0.498,0.24-0.98,0.495-1.422,0.767c-0.443,0.271-0.85,0.56-1.176,0.85
		c-0.324,0.287-0.553,0.584-0.629,0.761l-0.039,0.107l-0.01,0.036l-0.002,0.015l-0.002,0.002v0.023v0.072v0.228v0.455
		c0.004,1.215,0.023,2.43,0.047,3.645c0.059,2.429,0.162,4.859,0.314,7.288c0.293,4.859,0.787,9.717,1.158,14.576
		c0.191,2.43,0.346,4.859,0.455,7.289C15.658,71.149,15.719,73.579,15.736,76.008"/>
	<path fill="#E6C0FF" d="M174.062,56.647c-1.791,0-3.242,1.452-3.242,3.243c0,1.792,1.451,3.244,3.242,3.244
		s3.242-1.452,3.242-3.244C177.305,58.099,175.854,56.647,174.062,56.647"/>
	<path fill="#E6C0FF" d="M129.264,67.342c-1.143,0-2.068,0.927-2.068,2.07c0,1.143,0.926,2.069,2.068,2.069
		c1.145,0,2.07-0.926,2.07-2.069C131.334,68.269,130.408,67.342,129.264,67.342"/>
	<path fill="#E6C0FF" d="M88.539,71.481c-1.145,0-2.07,0.928-2.07,2.071c0,1.143,0.926,2.069,2.07,2.069
		c1.143,0,2.068-0.927,2.068-2.069C90.607,72.409,89.682,71.481,88.539,71.481"/>
	<path fill="#E6C0FF" d="M55.193,59.668c-1.145,0-2.07,0.927-2.07,2.069c0,1.144,0.926,2.07,2.07,2.07
		c1.143,0,2.068-0.927,2.068-2.07C57.262,60.596,56.336,59.668,55.193,59.668"/>
	<path fill="#E6C0FF" d="M26.906,69.413c-1.143,0-2.068,0.927-2.068,2.069c0,1.144,0.926,2.071,2.068,2.071
		c1.145,0,2.07-0.927,2.07-2.071C28.977,70.339,28.051,69.413,26.906,69.413"/>
	<path fill="#E6C0FF" d="M31.047,67.342c-1.143,0-2.07,0.927-2.07,2.07c0,1.143,0.928,2.069,2.07,2.069s2.068-0.926,2.068-2.069
		C33.115,68.269,32.189,67.342,31.047,67.342"/>
	<path fill="#E0B0FF" d="M117.744,41.329c-8.104,4.484-14.002,7.642-31.275,7.642s-23.158-2.407-31.275-7.642
		c0-17.273,14.002-31.276,31.275-31.276S117.744,24.055,117.744,41.329"/>
	<path fill="#E0B0FF" d="M134.471,46.73c-1.988,1.1-3.436,1.875-7.674,1.875s-5.684-0.591-7.676-1.875
		c0-4.239,3.438-7.675,7.676-7.675S134.471,42.491,134.471,46.73"/>
	<path d="M73.203,45.108c-5.318,0.21-10.648,0.263-15.982,0.164c-5.332-0.101-10.67-0.351-16.004-0.779
		c-5.334-0.433-10.664-1.03-15.988-1.943c-2.662-0.462-5.322-1-7.99-1.721c-1.334-0.364-2.67-0.772-4.021-1.293
		c-0.676-0.263-1.355-0.552-2.047-0.906c-0.348-0.178-0.697-0.372-1.055-0.596c-0.355-0.224-0.719-0.478-1.092-0.797l3.385-3.74
		c0.121,0.127,0.289,0.274,0.484,0.42c0.195,0.148,0.414,0.296,0.648,0.441c0.471,0.291,0.996,0.569,1.541,0.832
		c1.094,0.525,2.273,0.994,3.475,1.426c2.41,0.862,4.924,1.584,7.461,2.234c5.082,1.292,10.277,2.296,15.502,3.139
		c5.227,0.839,10.49,1.505,15.775,2.023C62.58,44.53,67.887,44.898,73.203,45.108z"/>
	<path fill="#F0D8FF" d="M83.548,13.322c-2.278,0-4.571,0.417-6.772,1.199c-3.143,1.118-6.072,3.033-8.389,5.512
		c-2.328,2.472-4.039,5.47-5.045,8.618c-0.977,3.148-1.385,6.486-0.711,9.697c1.301-2.959,2.645-5.652,4.148-8.175
		c1.5-2.514,3.176-4.813,5.102-6.855c1.928-2.04,4.094-3.832,6.535-5.4c2.436-1.593,5.139-2.908,8.053-4.36
		C85.503,13.399,84.527,13.322,83.548,13.322"/>
	<path fill="#F0D8FF" d="M125.703,40.378c-0.525,0-1.055,0.097-1.562,0.276c-0.725,0.258-1.402,0.702-1.936,1.273
		c-0.539,0.57-0.934,1.263-1.166,1.99c-0.225,0.727-0.318,1.497-0.164,2.238c0.301-0.684,0.611-1.305,0.959-1.886
		c0.346-0.582,0.732-1.113,1.178-1.584c0.445-0.471,0.945-0.885,1.508-1.247c0.562-0.368,1.188-0.671,1.859-1.006
		C126.155,40.396,125.93,40.378,125.703,40.378"/>
</g>
</svg>
