<?xml version="1.0" encoding="utf-8"?>
<!-- Generator: Adobe Illustrator 15.0.0, SVG Export Plug-In . SVG Version: 6.00 Build 0)  -->
<!DOCTYPE svg PUBLIC "-//W3C//DTD SVG 1.1//EN" "http://www.w3.org/Graphics/SVG/1.1/DTD/svg11.dtd">
<svg version="1.1" id="Layer_1" xmlns="http://www.w3.org/2000/svg" xmlns:xlink="http://www.w3.org/1999/xlink" x="0px" y="0px"
	 width="265px" height="110px" viewBox="0 0 265 110" enable-background="new 0 0 265 110" xml:space="preserve">
<g>
	<path fill="#FFFFFF" d="M11.598,55.217l2.244-26.276c0,0-5.373-15.968,117.732-17.943c123.104-1.976,122.697,18.719,122.697,18.719
		l1.174,27.959L11.598,55.217"/>
	<path fill="#B57EDC" d="M11.598,43.791h242.674v36.702c0,0-19.396,20.922-129.594,20.922c-110.195,0-113.08-17.602-113.08-17.602
		V43.791"/>
	<path fill="#A271CC" d="M251.525,43.791c0,6.919-53.096,12.527-118.59,12.527c-65.496,0-118.592-5.608-118.592-12.527
		c0-6.919,53.096-12.527,118.592-12.527C198.43,31.264,251.525,36.872,251.525,43.791"/>
	<path d="M93.229,41.553c-6.924,0.208-13.861,0.134-20.793-0.149c-6.932-0.285-13.861-0.779-20.775-1.471
		c-6.916-0.695-13.818-1.575-20.701-2.743c-3.443-0.588-6.877-1.244-10.316-2.06c-1.721-0.413-3.439-0.86-5.184-1.423
		c-0.873-0.286-1.748-0.595-2.67-1.008c-0.467-0.214-0.938-0.442-1.477-0.796c-0.273-0.184-0.564-0.389-0.912-0.744
		c-0.174-0.184-0.367-0.406-0.566-0.753c-0.098-0.17-0.197-0.385-0.275-0.639c-0.08-0.253-0.137-0.557-0.139-0.887h5.045
		c-0.002-0.223-0.041-0.419-0.088-0.569s-0.105-0.265-0.148-0.341c-0.094-0.157-0.15-0.209-0.178-0.235l0.084,0.084
		c0.176,0.137,0.469,0.315,0.783,0.481c0.637,0.336,1.377,0.655,2.131,0.952c1.52,0.596,3.125,1.123,4.744,1.615
		c3.246,0.982,6.57,1.831,9.912,2.613c6.691,1.558,13.471,2.846,20.281,3.951c6.812,1.101,13.664,2.01,20.539,2.713
		C79.402,40.847,86.305,41.341,93.229,41.553z"/>
	<path fill="#231F20" d="M7.506,82.673C7.539,76.34,7.74,70.007,8.1,63.674c0.346-6.333,0.811-12.665,1.119-18.999
		c0.158-3.166,0.273-6.333,0.354-9.499c0.037-1.584,0.068-3.167,0.084-4.75l0.008-0.593l0.002-0.298l0.002-0.17
		c0.004-0.106,0.008-0.187,0.016-0.269c0.049-0.665,0.236-1.297,0.49-1.842c0.256-0.544,0.572-1.01,0.906-1.417
		c0.332-0.409,0.688-0.762,1.047-1.081c0.721-0.636,1.465-1.145,2.215-1.599c0.752-0.452,1.51-0.847,2.271-1.206
		c1.523-0.72,3.062-1.31,4.607-1.843c3.09-1.057,6.207-1.879,9.334-2.604c3.127-0.722,6.266-1.335,9.408-1.884
		c3.145-0.547,6.295-1.034,9.447-1.472c6.307-0.874,12.629-1.562,18.957-2.13c12.654-1.129,25.334-1.812,38.018-2.191
		c12.682-0.378,25.369-0.447,38.053-0.246c6.342,0.104,12.682,0.276,19.02,0.532c6.338,0.251,12.674,0.59,19.004,1.015
		c3.166,0.213,6.33,0.455,9.492,0.721c3.162,0.264,6.324,0.557,9.482,0.882c6.314,0.656,12.623,1.424,18.908,2.406
		c3.143,0.495,6.281,1.031,9.408,1.65c3.127,0.621,6.246,1.315,9.342,2.148c1.549,0.417,3.092,0.869,4.625,1.376
		c1.533,0.509,3.059,1.069,4.562,1.732c0.752,0.333,1.5,0.691,2.236,1.093c0.736,0.402,1.465,0.845,2.172,1.368
		c0.703,0.526,1.395,1.125,1.996,1.916c0.297,0.396,0.57,0.844,0.775,1.355c0.203,0.51,0.33,1.089,0.33,1.676
		c0.031,6.333,0.234,12.666,0.592,18.999c0.346,6.333,0.811,12.666,1.119,18.998c0.158,3.167,0.275,6.333,0.355,9.5
		c0.035,1.583,0.068,3.166,0.084,4.749l0.006,0.594l0.004,0.297v0.188c-0.002,0.151-0.006,0.255-0.014,0.363
		c-0.057,0.871-0.295,1.697-0.609,2.388c-0.316,0.695-0.701,1.271-1.096,1.765c-0.395,0.493-0.801,0.909-1.209,1.28
		c-0.812,0.738-1.625,1.306-2.43,1.81c-0.803,0.501-1.602,0.931-2.398,1.324c-1.592,0.782-3.174,1.418-4.752,1.993
		c-3.16,1.14-6.314,2.027-9.473,2.818c-3.158,0.785-6.318,1.461-9.482,2.069c-3.164,0.609-6.332,1.145-9.5,1.634
		c-6.338,0.976-12.686,1.764-19.037,2.431c-12.703,1.332-25.428,2.164-38.16,2.672c-6.367,0.248-12.732,0.418-19.102,0.497
		c-6.367,0.084-12.734,0.082-19.104,0.003c-12.738-0.165-25.477-0.646-38.205-1.54c-6.363-0.445-12.727-0.998-19.084-1.685
		c-6.359-0.685-12.713-1.511-19.061-2.543c-3.176-0.516-6.348-1.094-9.52-1.749c-3.172-0.659-6.344-1.394-9.52-2.277
		c-1.588-0.443-3.176-0.923-4.77-1.465c-1.596-0.544-3.191-1.146-4.807-1.873c-0.805-0.364-1.617-0.762-2.436-1.216
		c-0.82-0.456-1.648-0.966-2.492-1.599c-0.42-0.317-0.846-0.667-1.273-1.073c-0.428-0.405-0.857-0.865-1.271-1.422
		c-0.414-0.556-0.818-1.215-1.131-2.013C7.707,84.575,7.502,83.631,7.506,82.673 M15.891,82.673c0.004-0.165-0.037-0.32-0.059-0.376
		l0.043,0.045c0.119,0.159,0.441,0.477,0.867,0.786c0.426,0.314,0.949,0.637,1.514,0.945c0.57,0.309,1.184,0.605,1.822,0.886
		c1.279,0.563,2.652,1.07,4.059,1.536c1.408,0.465,2.855,0.889,4.32,1.283c2.934,0.788,5.941,1.459,8.975,2.06
		c3.035,0.602,6.1,1.126,9.178,1.608c6.16,0.961,12.379,1.72,18.613,2.367c3.121,0.321,6.244,0.61,9.373,0.872
		c3.129,0.263,6.264,0.501,9.398,0.713c6.271,0.421,12.553,0.758,18.842,1.007c6.287,0.253,12.582,0.425,18.877,0.527
		c12.594,0.2,25.195,0.131,37.779-0.244c12.584-0.374,25.156-1.052,37.668-2.167c6.254-0.562,12.49-1.24,18.686-2.099
		c3.098-0.429,6.182-0.905,9.248-1.438c3.064-0.534,6.111-1.13,9.111-1.821c2.996-0.694,5.959-1.479,8.775-2.439
		c1.404-0.481,2.773-1.01,4.035-1.604c0.629-0.296,1.23-0.61,1.775-0.937c0.545-0.324,1.035-0.668,1.4-0.989
		c0.182-0.159,0.33-0.31,0.434-0.431c0.104-0.123,0.158-0.214,0.172-0.238l-0.006,0.105l-0.002,0.065l0.002-0.109l0.004-0.297
		l0.008-0.594c0.016-1.583,0.049-3.166,0.084-4.749c0.08-3.167,0.195-6.333,0.354-9.5c0.309-6.332,0.773-12.665,1.117-18.998
		c0.361-6.333,0.562-12.666,0.596-18.999c0-0.206-0.039-0.415-0.125-0.642c-0.086-0.225-0.223-0.463-0.398-0.701
		c-0.352-0.478-0.855-0.941-1.416-1.365s-1.184-0.815-1.834-1.175c-0.65-0.361-1.328-0.696-2.021-1.009
		c-1.389-0.628-2.834-1.176-4.301-1.677c-1.471-0.5-2.963-0.953-4.467-1.374c-3.014-0.837-6.072-1.549-9.15-2.188
		c-3.08-0.638-6.18-1.203-9.291-1.708c-6.223-1.012-12.486-1.828-18.766-2.504c-6.279-0.68-12.576-1.227-18.881-1.668
		c-12.611-0.887-25.254-1.363-37.898-1.528c-6.324-0.078-12.648-0.08-18.971,0.005c-6.322,0.078-12.645,0.246-18.961,0.492
		c-12.633,0.506-25.252,1.332-37.811,2.649c-6.277,0.661-12.541,1.439-18.768,2.399c-3.111,0.48-6.215,1.005-9.301,1.601
		c-3.084,0.594-6.152,1.251-9.184,2.007c-3.029,0.758-6.029,1.608-8.916,2.653c-1.438,0.523-2.85,1.098-4.18,1.754
		c-0.662,0.328-1.305,0.678-1.904,1.053c-0.598,0.375-1.154,0.779-1.613,1.2c-0.457,0.418-0.807,0.864-0.955,1.215
		c-0.078,0.176-0.107,0.316-0.113,0.443v0.027v0.125l0.004,0.298l0.008,0.593c0.016,1.583,0.049,3.166,0.084,4.75
		c0.08,3.167,0.197,6.333,0.354,9.499c0.309,6.333,0.773,12.666,1.119,18.999C15.656,70.007,15.857,76.34,15.891,82.673"/>
	<path fill="#C498E3" d="M231.535,65.046c-1.143,0-2.068,0.927-2.068,2.07c0,1.144,0.926,2.07,2.068,2.07
		c1.145,0,2.07-0.926,2.07-2.07C233.605,65.974,232.68,65.046,231.535,65.046"/>
	<path fill="#C498E3" d="M178.676,85.988c-1.145,0-2.07,0.927-2.07,2.07c0,1.143,0.926,2.069,2.07,2.069
		c1.143,0,2.068-0.927,2.068-2.069C180.744,86.915,179.818,85.988,178.676,85.988"/>
	<path fill="#C498E3" d="M87.822,69.187c-1.143,0-2.07,0.926-2.07,2.069c0,1.144,0.928,2.071,2.07,2.071
		c1.145,0,2.07-0.927,2.07-2.071C89.893,70.113,88.967,69.187,87.822,69.187"/>
	<path fill="#C498E3" d="M50.516,71.256c-1.143,0-2.07,0.927-2.07,2.071c0,1.142,0.928,2.069,2.07,2.069s2.068-0.927,2.068-2.069
		C52.584,72.183,51.658,71.256,50.516,71.256"/>
	<path fill="#C498E3" d="M31.252,57.675c-1.143,0-2.07,0.927-2.07,2.071c0,1.142,0.928,2.069,2.07,2.069s2.07-0.927,2.07-2.069
		C33.322,58.603,32.395,57.675,31.252,57.675"/>
	<path fill="#C498E3" d="M135.004,67.116c-1.143,0-2.068,0.928-2.068,2.07s0.926,2.069,2.068,2.069s2.07-0.927,2.07-2.069
		S136.146,67.116,135.004,67.116"/>
	<path fill="#B57EDC" d="M157.367,43.892c-2.191,1.211-3.785,2.064-8.451,2.064c-4.668,0-6.256-0.649-8.449-2.064
		c0-4.667,3.781-8.45,8.449-8.45C153.582,35.442,157.367,39.226,157.367,43.892"/>
	<path fill="#B57EDC" d="M110.127,37.33c-2.189,1.212-3.783,2.065-8.449,2.065s-6.256-0.65-8.449-2.065
		c0-4.667,3.783-8.449,8.449-8.449S110.127,32.663,110.127,37.33z"/>
	<path fill="#B57EDC" d="M221.133,38.069c-4.668,2.582-8.064,4.401-18.012,4.401s-13.336-1.386-18.012-4.401
		c0-9.949,8.064-18.012,18.012-18.012S221.133,28.121,221.133,38.069"/>
	<path d="M255.445,31.272l-0.082,0.059l-0.119,0.083l-0.209,0.137c-0.137,0.086-0.268,0.165-0.398,0.239
		c-0.258,0.146-0.51,0.273-0.754,0.39c-0.488,0.234-0.961,0.431-1.43,0.612c-0.936,0.358-1.852,0.656-2.768,0.932
		c-1.828,0.545-3.643,0.99-5.459,1.396c-3.633,0.805-7.266,1.438-10.904,1.995c-7.273,1.104-14.562,1.886-21.855,2.503
		c-7.293,0.612-14.592,1.048-21.891,1.359c-7.299,0.31-14.6,0.493-21.896,0.577c7.279-0.503,14.551-1.106,21.807-1.834
		c7.254-0.729,14.492-1.582,21.697-2.608c7.203-1.03,14.379-2.223,21.463-3.719c3.539-0.752,7.057-1.58,10.502-2.553
		c1.717-0.487,3.42-1.013,5.059-1.606c0.816-0.298,1.619-0.612,2.367-0.952c0.375-0.17,0.734-0.347,1.059-0.526
		c0.162-0.089,0.312-0.179,0.445-0.266l0.182-0.125l0.072-0.056l0.016-0.012l0.006-0.005l0.053-0.043L255.445,31.272z"/>
	<path fill="#DABFEE" d="M201.288,22.932c-1.287,0-2.582,0.235-3.825,0.678c-1.775,0.632-3.43,1.713-4.738,3.113
		c-1.314,1.396-2.281,3.09-2.85,4.868c-0.551,1.778-0.781,3.663-0.4,5.478c0.734-1.673,1.492-3.193,2.342-4.617
		c0.848-1.42,1.795-2.72,2.881-3.873c1.09-1.152,2.312-2.165,3.693-3.05c1.375-0.9,2.902-1.644,4.547-2.464
		C202.393,22.975,201.841,22.932,201.288,22.932"/>
	<path fill="#DABFEE" d="M148.471,38.533c-0.51,0-1.022,0.093-1.514,0.269c-0.705,0.25-1.361,0.679-1.879,1.233
		c-0.521,0.554-0.904,1.226-1.131,1.93c-0.217,0.705-0.309,1.453-0.158,2.171c0.291-0.662,0.592-1.265,0.93-1.829
		c0.336-0.563,0.711-1.079,1.141-1.536c0.434-0.456,0.918-0.857,1.465-1.209c0.545-0.356,1.15-0.651,1.803-0.976
		C148.91,38.551,148.69,38.533,148.471,38.533"/>
</g>
</svg>
