<?xml version="1.0" encoding="utf-8"?>
<!-- Generator: Adobe Illustrator 15.0.0, SVG Export Plug-In . SVG Version: 6.00 Build 0)  -->
<!DOCTYPE svg PUBLIC "-//W3C//DTD SVG 1.1//EN" "http://www.w3.org/Graphics/SVG/1.1/DTD/svg11.dtd">
<svg version="1.1" id="Layer_1" xmlns="http://www.w3.org/2000/svg" xmlns:xlink="http://www.w3.org/1999/xlink" x="0px" y="0px"
	 width="269px" height="110px" viewBox="0 0 269 110" enable-background="new 0 0 269 110" xml:space="preserve">
<g>
	<path fill="#FFFFFF" d="M12.008,55.65l2.24-26.224c0,0-5.361-15.936,117.494-17.907c122.855-1.971,122.449,18.681,122.449,18.681
		l1.174,27.903L12.008,55.65"/>
	<path fill="#804096" d="M12.656,43.792H255.33v36.702c0,0-19.398,20.922-129.594,20.922S12.656,83.813,12.656,83.813V43.792"/>
	<path fill="#642D7A" d="M252.482,43.792c0,6.918-53.094,12.527-118.592,12.527c-65.494,0-118.59-5.608-118.59-12.527
		c0-6.919,53.096-12.528,118.59-12.528C199.389,31.264,252.482,36.872,252.482,43.792"/>
	<path fill="#231F20" d="M8.465,82.673c0.031-6.333,0.232-12.666,0.592-18.998c0.346-6.333,0.811-12.666,1.119-18.999
		c0.158-3.166,0.273-6.333,0.354-9.499c0.035-1.583,0.068-3.167,0.084-4.75l0.008-0.594l0.004-0.297l0.002-0.17
		c0.002-0.107,0.006-0.188,0.014-0.27c0.049-0.665,0.236-1.297,0.49-1.84c0.256-0.546,0.572-1.012,0.904-1.42
		c0.336-0.408,0.689-0.76,1.049-1.08c0.721-0.636,1.467-1.145,2.217-1.599c0.75-0.452,1.508-0.847,2.27-1.207
		c1.523-0.719,3.062-1.31,4.607-1.841c3.092-1.057,6.207-1.879,9.334-2.605c3.127-0.722,6.266-1.335,9.41-1.884
		c3.143-0.547,6.293-1.033,9.445-1.471c6.307-0.874,12.629-1.562,18.957-2.131c12.654-1.129,25.334-1.812,38.016-2.191
		c12.686-0.378,25.371-0.447,38.055-0.246c6.342,0.104,12.682,0.276,19.02,0.532c6.338,0.25,12.674,0.59,19.006,1.015
		c3.164,0.213,6.328,0.455,9.49,0.72c3.164,0.264,6.324,0.557,9.482,0.882c6.314,0.656,12.623,1.424,18.908,2.406
		c3.143,0.493,6.279,1.03,9.408,1.649c3.127,0.62,6.246,1.315,9.344,2.148c1.547,0.417,3.092,0.869,4.625,1.376
		c1.533,0.508,3.057,1.069,4.561,1.732c0.752,0.333,1.498,0.691,2.236,1.093c0.736,0.402,1.465,0.845,2.172,1.367
		c0.703,0.526,1.396,1.126,1.996,1.916c0.299,0.396,0.572,0.844,0.775,1.355c0.203,0.51,0.33,1.089,0.33,1.676
		c0.031,6.333,0.234,12.666,0.594,18.999c0.346,6.333,0.811,12.666,1.119,18.998c0.156,3.167,0.273,6.333,0.354,9.5
		c0.035,1.583,0.068,3.166,0.084,4.749l0.006,0.594l0.004,0.296l0.002,0.188c-0.002,0.151-0.008,0.256-0.014,0.363
		c-0.059,0.872-0.297,1.698-0.611,2.388c-0.318,0.695-0.703,1.271-1.096,1.765c-0.395,0.493-0.801,0.909-1.207,1.279
		c-0.814,0.738-1.627,1.307-2.43,1.81c-0.807,0.501-1.604,0.931-2.4,1.324c-1.592,0.781-3.172,1.418-4.752,1.993
		c-3.16,1.14-6.314,2.027-9.473,2.818c-3.158,0.785-6.318,1.461-9.482,2.069c-3.164,0.609-6.33,1.145-9.5,1.634
		c-6.338,0.976-12.684,1.764-19.037,2.432c-12.703,1.331-25.43,2.163-38.16,2.672c-6.365,0.248-12.732,0.418-19.102,0.497
		c-6.367,0.084-12.734,0.082-19.104,0.003c-12.736-0.165-25.477-0.646-38.205-1.54c-6.363-0.445-12.725-0.998-19.084-1.685
		c-6.357-0.685-12.711-1.511-19.061-2.543c-3.174-0.516-6.348-1.094-9.52-1.75c-3.172-0.659-6.344-1.394-9.52-2.277
		c-1.588-0.443-3.178-0.923-4.771-1.465c-1.594-0.544-3.191-1.146-4.803-1.873c-0.809-0.364-1.619-0.762-2.438-1.216
		c-0.818-0.456-1.648-0.966-2.49-1.599c-0.422-0.318-0.848-0.668-1.275-1.073c-0.426-0.405-0.855-0.865-1.271-1.422
		c-0.414-0.556-0.816-1.215-1.129-2.013C8.664,84.575,8.459,83.631,8.465,82.673z M16.848,82.673
		c0.002-0.165-0.037-0.32-0.059-0.376l0.045,0.044c0.117,0.159,0.439,0.477,0.865,0.785c0.426,0.315,0.949,0.637,1.516,0.946
		c0.568,0.308,1.182,0.604,1.82,0.886c1.279,0.563,2.652,1.07,4.059,1.536c1.408,0.465,2.855,0.889,4.32,1.283
		c2.934,0.788,5.941,1.459,8.975,2.06c3.035,0.602,6.1,1.125,9.18,1.609c6.158,0.961,12.377,1.719,18.613,2.367
		c3.119,0.321,6.244,0.61,9.373,0.872c3.129,0.263,6.26,0.501,9.396,0.713c6.271,0.421,12.555,0.757,18.842,1.007
		c6.289,0.253,12.582,0.425,18.877,0.527c12.592,0.2,25.195,0.13,37.779-0.244s25.158-1.052,37.668-2.167
		c6.254-0.562,12.492-1.241,18.686-2.099c3.098-0.428,6.184-0.905,9.248-1.438c3.066-0.534,6.111-1.13,9.111-1.821
		c2.996-0.693,5.961-1.479,8.775-2.439c1.404-0.482,2.773-1.011,4.035-1.604c0.629-0.296,1.23-0.609,1.775-0.936
		c0.545-0.325,1.035-0.668,1.4-0.989c0.182-0.158,0.332-0.311,0.434-0.433c0.104-0.121,0.158-0.213,0.172-0.237l-0.006,0.104
		l-0.002,0.066l0.002-0.109l0.004-0.296l0.008-0.594c0.016-1.583,0.049-3.166,0.084-4.749c0.078-3.167,0.197-6.333,0.354-9.5
		c0.309-6.332,0.773-12.666,1.119-18.998c0.359-6.333,0.561-12.666,0.594-18.999c0.002-0.206-0.037-0.415-0.123-0.642
		c-0.088-0.226-0.223-0.463-0.398-0.701c-0.354-0.478-0.857-0.941-1.418-1.365c-0.562-0.424-1.186-0.814-1.834-1.176
		c-0.65-0.361-1.328-0.695-2.021-1.009c-1.387-0.628-2.834-1.176-4.301-1.677c-1.469-0.501-2.963-0.953-4.467-1.373
		c-3.012-0.838-6.072-1.55-9.152-2.188c-3.078-0.637-6.178-1.203-9.289-1.708c-6.223-1.011-12.486-1.827-18.764-2.503
		c-6.281-0.68-12.578-1.227-18.883-1.668c-12.611-0.886-25.254-1.364-37.898-1.527c-6.324-0.078-12.648-0.08-18.971,0.005
		c-6.322,0.078-12.643,0.246-18.961,0.492c-12.631,0.506-25.252,1.332-37.811,2.649c-6.277,0.66-12.541,1.439-18.768,2.399
		c-3.111,0.48-6.215,1.005-9.301,1.601c-3.084,0.594-6.152,1.251-9.184,2.007c-3.029,0.758-6.029,1.608-8.914,2.653
		c-1.439,0.523-2.852,1.098-4.18,1.754c-0.664,0.328-1.307,0.678-1.906,1.053c-0.598,0.375-1.154,0.779-1.611,1.2
		c-0.459,0.418-0.809,0.864-0.957,1.215c-0.076,0.175-0.107,0.316-0.111,0.442l-0.002,0.027l0.002,0.126l0.002,0.297l0.008,0.594
		c0.016,1.583,0.049,3.167,0.084,4.75c0.08,3.166,0.195,6.333,0.354,9.499c0.309,6.333,0.773,12.666,1.119,18.999
		C16.613,70.007,16.816,76.34,16.848,82.673z"/>
	<path d="M256.848,29.511l-0.082,0.059l-0.119,0.083l-0.207,0.137c-0.137,0.087-0.27,0.165-0.4,0.238
		c-0.258,0.147-0.508,0.273-0.754,0.391c-0.488,0.234-0.961,0.43-1.43,0.611c-0.936,0.36-1.852,0.658-2.768,0.932
		c-1.826,0.545-3.643,0.99-5.459,1.396c-3.633,0.805-7.266,1.438-10.902,1.995c-7.275,1.104-14.564,1.886-21.857,2.503
		c-7.293,0.613-14.592,1.049-21.891,1.359c-7.301,0.311-14.6,0.493-21.896,0.577c7.279-0.503,14.553-1.106,21.807-1.835
		c7.254-0.729,14.492-1.582,21.697-2.608c7.201-1.03,14.379-2.222,21.463-3.718c3.537-0.752,7.059-1.579,10.5-2.553
		c1.721-0.488,3.422-1.015,5.061-1.608c0.816-0.296,1.619-0.612,2.369-0.952c0.373-0.169,0.734-0.347,1.057-0.525
		c0.162-0.089,0.314-0.18,0.445-0.266l0.182-0.125l0.074-0.057l0.014-0.012l0.006-0.005l0.055-0.044L256.848,29.511z"/>
	<path fill="#9966AB" d="M218.582,55.606c-1.143,0-2.07,0.927-2.07,2.069c0,1.144,0.928,2.069,2.07,2.069s2.07-0.926,2.07-2.069
		C220.652,56.533,219.725,55.606,218.582,55.606"/>
	<path fill="#9966AB" d="M179.92,70.533c-1.145,0-2.07,0.927-2.07,2.069c0,1.144,0.926,2.07,2.07,2.07c1.143,0,2.07-0.927,2.07-2.07
		C181.99,71.46,181.062,70.533,179.92,70.533"/>
	<path fill="#9966AB" d="M121.547,64.046c-1.145,0-2.07,0.927-2.07,2.069c0,1.145,0.926,2.07,2.07,2.07
		c1.143,0,2.07-0.926,2.07-2.07C123.617,64.973,122.689,64.046,121.547,64.046"/>
	<path fill="#9966AB" d="M93.916,77.738c-1.143,0-2.068,0.927-2.068,2.069c0,1.144,0.926,2.07,2.068,2.07
		c1.145,0,2.07-0.927,2.07-2.07C95.986,78.665,95.061,77.738,93.916,77.738"/>
	<path fill="#9966AB" d="M37.59,54.249c-1.141,0-2.068,0.926-2.068,2.069s0.928,2.07,2.068,2.07c1.145,0,2.07-0.927,2.07-2.07
		S38.734,54.249,37.59,54.249"/>
	<path fill="#9966AB" d="M33.451,61.977c-1.143,0-2.07,0.926-2.07,2.069c0,1.143,0.928,2.069,2.07,2.069s2.07-0.926,2.07-2.069
		C35.521,62.902,34.594,61.977,33.451,61.977"/>
	<path fill="#9966AB" d="M23.898,75.667c-1.143,0-2.068,0.927-2.068,2.071c0,1.143,0.926,2.069,2.068,2.069
		c1.145,0,2.07-0.926,2.07-2.069C25.969,76.595,25.043,75.667,23.898,75.667"/>
	<path fill="#804096" d="M111.818,43.68c-5.924,3.279-10.236,5.587-22.863,5.587s-16.928-1.759-22.863-5.587
		c0-12.625,10.236-22.862,22.863-22.862S111.818,31.055,111.818,43.68"/>
	<path fill="#804096" d="M135.238,47.027c-2.375,1.314-4.105,2.24-9.17,2.24s-6.789-0.706-9.17-2.24c0-5.065,4.105-9.171,9.17-9.171
		S135.238,41.962,135.238,47.027"/>
	<path fill="#C0A0CB" d="M85.251,27.043c-1.207,0-2.422,0.221-3.587,0.635c-1.666,0.592-3.219,1.607-4.445,2.92
		c-1.234,1.31-2.141,2.899-2.674,4.566c-0.518,1.668-0.732,3.437-0.375,5.138c0.688-1.568,1.4-2.996,2.197-4.331
		c0.795-1.332,1.682-2.551,2.703-3.633c1.021-1.081,2.168-2.03,3.463-2.861c1.291-0.843,2.723-1.541,4.266-2.31
		C86.287,27.083,85.77,27.043,85.251,27.043"/>
	<path fill="#C0A0CB" d="M125.294,40.303c-0.604,0-1.211,0.111-1.794,0.317c-0.832,0.297-1.607,0.804-2.221,1.46
		c-0.617,0.656-1.07,1.45-1.338,2.284c-0.258,0.834-0.367,1.718-0.188,2.569c0.344-0.784,0.699-1.499,1.098-2.166
		c0.398-0.667,0.842-1.276,1.352-1.817c0.512-0.541,1.086-1.015,1.732-1.431c0.645-0.422,1.361-0.771,2.133-1.155
		C125.812,40.324,125.554,40.303,125.294,40.303"/>
	<path d="M95.986,40.581c-6.922,0.208-13.859,0.134-20.791-0.149c-6.934-0.286-13.861-0.779-20.777-1.471
		c-6.914-0.695-13.816-1.576-20.699-2.743c-3.443-0.589-6.879-1.244-10.318-2.061c-1.721-0.412-3.439-0.859-5.182-1.423
		c-0.875-0.285-1.748-0.594-2.672-1.008c-0.465-0.213-0.936-0.441-1.477-0.795c-0.271-0.184-0.562-0.389-0.912-0.745
		c-0.174-0.184-0.367-0.406-0.564-0.752c-0.098-0.17-0.199-0.385-0.277-0.638c-0.078-0.253-0.135-0.558-0.137-0.888l3.121-1.23
		c-0.002-0.222,1.883,0.812,1.834,0.662c-0.045-0.15-0.104-0.265-0.148-0.341c-0.092-0.158-0.15-0.21-0.178-0.235l0.086,0.083
		c0.174,0.138,0.467,0.316,0.781,0.481c0.637,0.337,1.377,0.655,2.133,0.953c1.52,0.596,3.125,1.122,4.742,1.615
		c3.248,0.982,6.572,1.83,9.914,2.613c6.691,1.557,13.471,2.845,20.281,3.95c6.811,1.102,13.662,2.011,20.537,2.714
		C82.16,39.874,89.064,40.369,95.986,40.581z"/>
</g>
</svg>
