<?xml version="1.0" encoding="utf-8"?>
<!-- Generator: Adobe Illustrator 15.0.0, SVG Export Plug-In . SVG Version: 6.00 Build 0)  -->
<!DOCTYPE svg PUBLIC "-//W3C//DTD SVG 1.1//EN" "http://www.w3.org/Graphics/SVG/1.1/DTD/svg11.dtd">
<svg version="1.1" id="Layer_1" xmlns="http://www.w3.org/2000/svg" xmlns:xlink="http://www.w3.org/1999/xlink" x="0px" y="0px"
	 width="1280px" height="800px" viewBox="0 0 1280 800" enable-background="new 0 0 1280 800" xml:space="preserve">
<g>
	<polyline fill="#FFFFFF" points="1279,802.372 -1,802.372 -1,2.372 1279,2.372 1279,802.372 	"/>
	<g>
		<path fill="#E0B0FF" d="M378.404,517.882h-39.478v-24.389h7.837v-53.102h-8.057v-24.389h61.45l15.015,39.33l15.381-39.33h61.084
			v24.389h-7.983v53.102h8.203v24.389h-53.174v-24.389h8.13v-56.91l-30.762,81.299h-15.234l-30.469-80.566v56.178h8.057V517.882z"/>
		<path fill="#E0B0FF" d="M540.05,517.882h-40.356v-24.389h7.764l19.116-53.102h-8.203v-24.389h73.242v24.389h-8.203l19.482,53.102
			h7.471v24.389h-53.174v-22.338h8.936l-3.882-12.818h-26.074l-4.468,12.818h8.35V517.882z M549.645,441.856l-9.595,28.199h18.237
			L549.645,441.856z"/>
		<path fill="#E0B0FF" d="M623.605,440.392h-7.837v-24.389h52.148v24.389h-4.834v34.352c0,8.203,0.78,13.794,2.344,16.771
			c1.562,2.93,4.369,4.395,8.423,4.395c3.369,0,5.811-1.244,7.324-3.734c1.513-2.441,2.271-7.446,2.271-15.016v-36.768h-5.127
			v-24.389h38.306v24.389h-8.057v36.914c0,9.425-1.367,17.139-4.102,23.145c-2.735,5.958-7.276,10.621-13.623,13.99
			c-6.348,3.369-14.161,5.053-23.438,5.053c-7.471,0-14.088-0.903-19.849-2.709c-5.859-1.758-10.499-4.443-13.916-8.057
			c-3.418-3.564-5.933-7.886-7.544-12.965c-1.66-4.931-2.49-12.499-2.49-22.705V440.392z"/>
		<path fill="#E0B0FF" d="M793.82,518.761h-31.714l-32.52-78.369h-7.544v-24.389h54.785v24.389h-8.643l15.161,43.434l15.894-43.434
			h-8.35v-24.389h41.089v24.389h-7.544L793.82,518.761z"/>
		<path fill="#E0B0FF" d="M937.229,517.882h-97.192v-24.389h7.91v-53.102h-8.057v-24.389h97.339v32.592h-26.733v-8.203h-23.145
			v15.674h20.142v20.729h-20.142v16.699h23.145v-8.203h26.733V517.882z"/>
	</g>
	<path fill="#FFFFFF" d="M567.457,279.836l1.287-15.07c0,0-3.08-9.158,67.523-10.291s70.369,10.736,70.369,10.736l0.674,16.035
		L567.457,279.836"/>
	<path fill="#E0B0FF" d="M568.32,272.701h141.238v23.691c0,0-11.291,10.908-75.426,10.908c-64.136,0-65.812-9.178-65.812-9.178
		V272.701"/>
	<path fill="#C698EA" d="M707.902,272.701c0,4.027-30.902,7.291-69.021,7.291c-38.121,0-69.023-3.264-69.023-7.291
		c0-4.025,30.902-7.291,69.023-7.291C677,265.41,707.902,268.676,707.902,272.701"/>
	<path d="M709.965,267.309l-0.129,0.09l-0.133,0.086l-0.252,0.15c-0.162,0.09-0.316,0.168-0.467,0.238
		c-0.301,0.141-0.586,0.256-0.865,0.363c-0.564,0.213-1.107,0.385-1.65,0.543c-1.082,0.312-2.15,0.566-3.219,0.795
		c-2.135,0.453-4.266,0.807-6.395,1.115c-4.26,0.607-8.52,1.029-12.781,1.352c-4.26,0.322-8.521,0.539-12.783,0.684
		c-4.26,0.145-8.52,0.215-12.777,0.227c4.244-0.33,8.482-0.719,12.709-1.182c4.229-0.461,8.443-0.994,12.637-1.629
		c4.193-0.637,8.367-1.369,12.482-2.275c2.055-0.455,4.098-0.955,6.088-1.537c0.994-0.293,1.979-0.605,2.918-0.957
		c0.467-0.176,0.924-0.359,1.346-0.557c0.209-0.098,0.41-0.199,0.584-0.299l0.232-0.145l0.086-0.062l0.033-0.025l0.004-0.006
		l-0.002,0.002v-0.002l0.01-0.008l0.018-0.016L709.965,267.309z"/>
	<path fill="#231F20" d="M565.139,296.393c0.014-1.844,0.06-3.688,0.143-5.529c0.082-1.842,0.198-3.686,0.344-5.529
		c0.281-3.686,0.656-7.371,0.88-11.057c0.116-1.844,0.192-3.686,0.237-5.529c0.02-0.922,0.032-1.844,0.037-2.764v-0.346v-0.174
		l0.002-0.117l0.006-0.154l0.016-0.17l0.023-0.16c0.018-0.105,0.041-0.209,0.066-0.311c0.055-0.201,0.125-0.393,0.207-0.568
		c0.162-0.352,0.361-0.648,0.568-0.906c0.209-0.258,0.427-0.479,0.646-0.678c0.439-0.395,0.889-0.707,1.338-0.984
		c0.449-0.275,0.898-0.514,1.35-0.732c0.902-0.438,1.807-0.797,2.713-1.119s1.814-0.607,2.727-0.869
		c0.91-0.262,1.82-0.502,2.733-0.725c3.652-0.889,7.321-1.547,10.997-2.119c1.838-0.283,3.678-0.539,5.52-0.773
		c1.842-0.236,3.684-0.453,5.527-0.652c3.688-0.393,7.378-0.73,11.073-1.01s7.392-0.512,11.092-0.695
		c7.397-0.373,14.804-0.568,22.215-0.596c7.413-0.023,14.832,0.127,22.253,0.521c1.854,0.1,3.711,0.211,5.566,0.344
		c1.854,0.133,3.711,0.281,5.568,0.451c3.711,0.336,7.422,0.766,11.141,1.309c1.859,0.271,3.715,0.586,5.58,0.941
		c1.861,0.359,3.727,0.764,5.604,1.258c0.938,0.248,1.877,0.521,2.826,0.832s1.902,0.658,2.877,1.084
		c0.488,0.215,0.982,0.449,1.486,0.723s1.02,0.584,1.553,0.977c0.27,0.199,0.541,0.42,0.82,0.68c0.277,0.26,0.561,0.561,0.842,0.93
		c0.277,0.369,0.555,0.814,0.775,1.365c0.107,0.273,0.201,0.572,0.264,0.889c0.064,0.318,0.1,0.652,0.102,0.988
		c0.023,3.686-0.016,7.371-0.119,11.057c-0.051,1.844-0.115,3.686-0.172,5.529c-0.062,1.842-0.123,3.686-0.17,5.529
		c-0.047,1.842-0.082,3.686-0.102,5.527c-0.01,0.922-0.016,1.844-0.018,2.766v0.344v0.174l-0.002,0.143c0,0-0.002,0.107-0.01,0.207
		c-0.006,0.104-0.014,0.154-0.021,0.234l-0.031,0.217c-0.025,0.143-0.055,0.283-0.092,0.418c-0.072,0.27-0.166,0.521-0.273,0.752
		c-0.213,0.463-0.467,0.838-0.723,1.154c-0.256,0.318-0.518,0.582-0.775,0.812c-0.516,0.461-1.018,0.807-1.51,1.111
		c-0.492,0.301-0.975,0.557-1.455,0.789c-0.955,0.461-1.896,0.83-2.834,1.162c-0.936,0.33-1.865,0.619-2.795,0.885
		s-1.857,0.508-2.783,0.732c-3.705,0.893-7.404,1.539-11.104,2.102c-1.85,0.279-3.701,0.529-5.551,0.756
		c-1.852,0.23-3.701,0.439-5.553,0.631c-7.408,0.758-14.82,1.26-22.238,1.568c-7.416,0.314-14.836,0.445-22.259,0.387
		c-3.71-0.029-7.423-0.1-11.135-0.227c-3.714-0.129-7.427-0.305-11.138-0.551c-1.855-0.123-3.712-0.258-5.568-0.414
		c-1.855-0.156-3.711-0.33-5.568-0.523c-3.711-0.385-7.422-0.861-11.135-1.455c-1.856-0.295-3.713-0.633-5.572-1.016
		c-1.858-0.383-3.719-0.811-5.591-1.328c-0.937-0.26-1.872-0.545-2.816-0.867c-0.945-0.324-1.894-0.682-2.862-1.119
		c-0.484-0.219-0.975-0.459-1.473-0.736c-0.5-0.277-1.008-0.592-1.537-0.988c-0.264-0.199-0.531-0.42-0.805-0.68
		c-0.273-0.258-0.553-0.557-0.825-0.924c-0.271-0.365-0.541-0.803-0.753-1.344c-0.105-0.27-0.193-0.562-0.256-0.873
		C565.172,297.045,565.139,296.719,565.139,296.393 M571.5,296.393c0.002-0.195-0.043-0.383-0.085-0.49
		c-0.044-0.111-0.075-0.15-0.071-0.148c0.006,0.01,0.146,0.156,0.355,0.307c0.211,0.154,0.489,0.326,0.797,0.492
		c0.308,0.168,0.648,0.332,1.006,0.488c0.714,0.312,1.493,0.6,2.295,0.865c0.803,0.264,1.633,0.504,2.475,0.732
		c1.684,0.455,3.421,0.844,5.172,1.193c1.754,0.352,3.528,0.654,5.311,0.939c3.566,0.568,7.174,1.012,10.793,1.404
		c1.809,0.193,3.623,0.367,5.439,0.525c1.816,0.16,3.635,0.309,5.455,0.439c14.57,1.037,29.246,1.34,43.881,0.965
		c3.658-0.1,7.314-0.248,10.965-0.451c3.651-0.203,7.298-0.459,10.93-0.795c1.818-0.166,3.633-0.352,5.441-0.557
		c1.809-0.209,3.613-0.439,5.41-0.695c3.592-0.512,7.164-1.131,10.629-1.949c1.73-0.41,3.436-0.879,5.043-1.443
		c0.799-0.283,1.576-0.592,2.279-0.93c0.35-0.17,0.682-0.348,0.977-0.527c0.291-0.178,0.547-0.363,0.717-0.518l0.182-0.186
		l0.016-0.01l-0.037,0.105l-0.018,0.078l-0.008,0.047l-0.006,0.062v0.035v-0.031v-0.174l-0.002-0.344
		c-0.002-0.922-0.008-1.844-0.016-2.766c-0.02-1.842-0.055-3.686-0.104-5.527c-0.045-1.844-0.105-3.688-0.168-5.529
		c-0.059-1.844-0.121-3.686-0.17-5.529c-0.105-3.686-0.146-7.371-0.123-11.057c0,0.211,0.055,0.412,0.104,0.529
		c0.049,0.121,0.088,0.166,0.092,0.166l-0.084-0.094c-0.057-0.057-0.141-0.129-0.242-0.207c-0.203-0.156-0.475-0.332-0.777-0.502
		c-0.303-0.172-0.639-0.34-0.994-0.502c-0.707-0.324-1.48-0.623-2.279-0.898c-0.799-0.277-1.625-0.529-2.465-0.77
		c-1.678-0.479-3.408-0.893-5.158-1.266c-1.75-0.375-3.523-0.705-5.305-1.014c-3.562-0.615-7.168-1.109-10.785-1.549
		c-1.811-0.217-3.623-0.416-5.439-0.6s-3.637-0.354-5.457-0.508c-7.289-0.619-14.607-1.031-21.938-1.27
		c-7.33-0.234-14.672-0.297-22.008-0.16c-7.334,0.143-14.669,0.475-21.969,1.109c-1.824,0.16-3.646,0.334-5.467,0.535
		c-1.818,0.201-3.633,0.426-5.44,0.676c-1.811,0.252-3.614,0.527-5.405,0.848c-1.791,0.318-3.574,0.672-5.332,1.088
		c-1.756,0.414-3.496,0.885-5.16,1.465c-0.83,0.291-1.645,0.609-2.401,0.975c-0.38,0.182-0.743,0.375-1.08,0.582
		c-0.337,0.205-0.645,0.424-0.892,0.645c-0.246,0.217-0.418,0.441-0.478,0.576l-0.03,0.082l-0.007,0.027l-0.001,0.012l-0.002,0.018
		v0.055v0.174l0.002,0.346c0.001,0.92,0.016,1.842,0.033,2.764c0.045,1.844,0.123,3.686,0.239,5.529
		c0.224,3.686,0.599,7.371,0.88,11.057c0.145,1.844,0.261,3.688,0.344,5.529S571.484,294.549,571.5,296.393"/>
	<path fill="#E6C0FF" d="M691.607,281.705c-1.357,0-2.459,1.102-2.459,2.459c0,1.359,1.102,2.461,2.459,2.461
		c1.359,0,2.461-1.102,2.461-2.461C694.068,282.807,692.967,281.705,691.607,281.705"/>
	<path fill="#E6C0FF" d="M657.624,289.818c-0.868,0-1.57,0.703-1.57,1.57s0.702,1.57,1.57,1.57c0.867,0,1.569-0.703,1.569-1.57
		S658.491,289.818,657.624,289.818"/>
	<path fill="#E6C0FF" d="M626.729,292.959c-0.867,0-1.57,0.703-1.57,1.57s0.703,1.57,1.57,1.57c0.866,0,1.568-0.703,1.568-1.57
		S627.595,292.959,626.729,292.959"/>
	<path fill="#E6C0FF" d="M601.432,283.996c-0.867,0-1.57,0.703-1.57,1.57s0.703,1.57,1.57,1.57c0.866,0,1.568-0.703,1.568-1.57
		S602.298,283.996,601.432,283.996"/>
	<path fill="#E6C0FF" d="M579.974,291.389c-0.868,0-1.571,0.703-1.571,1.57s0.703,1.57,1.571,1.57c0.866,0,1.569-0.703,1.569-1.57
		S580.84,291.389,579.974,291.389"/>
	<path fill="#E6C0FF" d="M583.113,289.818c-0.867,0-1.57,0.703-1.57,1.57s0.703,1.57,1.57,1.57c0.868,0,1.57-0.703,1.57-1.57
		S583.981,289.818,583.113,289.818"/>
	<path fill="#E0B0FF" d="M648.885,270.084c-6.148,3.4-10.623,5.797-23.727,5.797s-17.567-1.826-23.727-5.797
		c0-13.105,10.623-23.727,23.727-23.727S648.885,256.979,648.885,270.084"/>
	<path fill="#E0B0FF" d="M661.572,274.182c-1.508,0.834-2.605,1.422-5.82,1.422c-3.216,0-4.312-0.447-5.824-1.422
		c0-3.217,2.608-5.822,5.824-5.822C658.967,268.359,661.572,270.965,661.572,274.182"/>
	<path d="M615.094,272.951c-4.033,0.158-8.078,0.199-12.123,0.123c-4.047-0.076-8.094-0.266-12.141-0.59
		c-4.047-0.33-8.09-0.781-12.131-1.475c-2.02-0.352-4.037-0.76-6.062-1.305c-1.013-0.277-2.025-0.588-3.05-0.982
		c-0.512-0.199-1.027-0.418-1.554-0.688c-0.263-0.135-0.529-0.281-0.799-0.451c-0.271-0.17-0.547-0.363-0.829-0.605l2.567-2.838
		c0.092,0.098,0.221,0.209,0.367,0.32c0.148,0.111,0.315,0.225,0.493,0.334c0.357,0.221,0.754,0.432,1.168,0.631
		c0.831,0.4,1.725,0.756,2.636,1.082c1.83,0.654,3.735,1.201,5.66,1.695c3.855,0.98,7.796,1.742,11.761,2.381
		c3.965,0.637,7.959,1.143,11.967,1.535C607.035,272.512,611.061,272.791,615.094,272.951z"/>
	<path fill="#F0D8FF" d="M622.942,248.838c-1.729,0-3.469,0.315-5.138,0.908c-2.383,0.85-4.607,2.301-6.363,4.182
		c-1.768,1.875-3.065,4.15-3.828,6.539c-0.741,2.387-1.049,4.92-0.538,7.355c0.985-2.246,2.005-4.289,3.146-6.201
		c1.138-1.906,2.409-3.652,3.87-5.201c1.462-1.547,3.105-2.906,4.958-4.098c1.849-1.207,3.898-2.205,6.109-3.307
		C624.426,248.896,623.685,248.838,622.942,248.838"/>
	<path fill="#F0D8FF" d="M654.921,269.362c-0.397,0-0.799,0.073-1.183,0.21c-0.552,0.197-1.064,0.531-1.471,0.967
		c-0.407,0.432-0.707,0.957-0.883,1.508c-0.172,0.553-0.242,1.137-0.125,1.699c0.227-0.518,0.463-0.99,0.727-1.432
		c0.262-0.439,0.556-0.844,0.894-1.201s0.718-0.67,1.146-0.945c0.426-0.279,0.898-0.51,1.41-0.764
		C655.266,269.376,655.094,269.362,654.921,269.362"/>
</g>
</svg>
