<?xml version="1.0" encoding="utf-8"?>
<!-- Generator: Adobe Illustrator 15.0.0, SVG Export Plug-In . SVG Version: 6.00 Build 0)  -->
<!DOCTYPE svg PUBLIC "-//W3C//DTD SVG 1.1//EN" "http://www.w3.org/Graphics/SVG/1.1/DTD/svg11.dtd">
<svg version="1.1" id="Layer_1" xmlns="http://www.w3.org/2000/svg" xmlns:xlink="http://www.w3.org/1999/xlink" x="0px" y="0px"
	 width="1280px" height="800px" viewBox="0 0 1280 800" enable-background="new 0 0 1280 800" xml:space="preserve">
<g>
	<polyline fill="#FFFFFF" points="1279.329,796.346 -0.671,796.346 -0.671,-3.654 1279.329,-3.654 1279.329,796.346 	"/>
	<g>
		<path fill="#804096" d="M392.063,515.531H360.35l-32.52-78.369h-7.544v-24.391h54.785v24.391h-8.643l15.161,43.432l15.894-43.432
			h-8.35v-24.391h41.089v24.391h-7.544L392.063,515.531z"/>
		<path fill="#804096" d="M494.822,514.652h-58.081v-24.391h9.375v-53.1h-9.375v-24.391h58.081v24.391h-9.302v53.1h9.302V514.652z"
			/>
		<path fill="#804096" d="M507.64,463.455c0-8.496,2.075-16.723,6.226-24.682c4.102-7.91,10.474-14.576,19.116-19.996
			c3.076-1.904,6.237-3.417,9.484-4.541c3.247-1.122,6.775-1.988,10.584-2.6c3.809-0.61,7.812-0.916,12.012-0.916
			c18.262,0,32.397,5.348,42.407,16.041c4.98,5.273,8.74,10.986,11.279,17.139c2.538,6.152,3.809,12.67,3.809,19.555
			c0,14.209-5.176,26.563-15.527,37.061c-10.353,10.499-24.342,15.748-41.968,15.748c-17.041,0-30.86-4.932-41.455-14.795
			C512.961,491.654,507.64,478.982,507.64,463.455z M551.878,463.455c0,11.329,1.099,18.971,3.296,22.926
			c2.099,4.004,5.395,6.006,9.888,6.006c4.442,0,7.764-1.929,9.961-5.787c2.197-3.905,3.296-11.62,3.296-23.145
			c0-11.181-1.074-18.798-3.223-22.852c-2.1-4.003-5.445-6.006-10.034-6.006c-4.395,0-7.69,1.93-9.888,5.787
			S551.878,451.933,551.878,463.455z"/>
		<path fill="#804096" d="M732.273,514.652h-96.973v-24.391h9.155v-53.1h-9.155v-24.391h58.228v24.391h-9.668v53.1h24.097V473.93
			h24.316V514.652z"/>
		<path fill="#804096" d="M838.694,514.652h-97.192v-24.391h7.91v-53.1h-8.057v-24.391h97.339v32.594h-26.733v-8.203h-23.145v15.674
			h20.142v20.727h-20.142v16.699h23.145v-8.203h26.733V514.652z"/>
		<path fill="#804096" d="M932.151,514.652h-57.202v-24.391h8.789v-53.1H872.02v18.529h-19.116v-42.92h101.001v42.92h-19.116
			v-18.529h-11.646v53.1h9.009V514.652z"/>
	</g>
	<path fill="#FFFFFF" d="M547.021,272.57l1.7-19.895c0,0-4.068-12.088,89.134-13.584c93.201-1.496,92.893,14.172,92.893,14.172
		l0.891,21.168L547.021,272.57"/>
	<path fill="#804096" d="M547.512,263.574H731.61v27.842c0,0-14.715,15.873-98.313,15.873c-83.596,0-85.785-13.354-85.785-13.354
		V263.574"/>
	<path fill="#642D7A" d="M729.45,263.574c0,5.248-40.277,9.504-89.966,9.504c-49.687,0-89.967-4.256-89.967-9.504
		c0-5.25,40.28-9.504,89.967-9.504C689.173,254.07,729.45,258.324,729.45,263.574"/>
	<path fill="#231F20" d="M544.332,293.07c0.024-4.805,0.177-9.607,0.449-14.412c0.263-4.805,0.615-9.609,0.85-14.414
		c0.119-2.4,0.207-4.803,0.268-7.205c0.027-1.201,0.053-2.402,0.064-3.604l0.006-0.451l0.002-0.225l0.002-0.129l0.011-0.205
		c0.036-0.504,0.179-0.984,0.372-1.396c0.193-0.414,0.434-0.768,0.686-1.076c0.255-0.311,0.523-0.578,0.796-0.82
		c0.546-0.482,1.112-0.867,1.682-1.213c0.569-0.342,1.144-0.641,1.722-0.916c1.156-0.545,2.323-0.992,3.496-1.396
		c2.345-0.801,4.708-1.426,7.08-1.977c2.373-0.547,4.754-1.012,7.139-1.428s4.773-0.785,7.166-1.117
		c4.784-0.662,9.58-1.184,14.381-1.615c9.6-0.857,19.219-1.375,28.84-1.662c9.623-0.287,19.246-0.34,28.869-0.188
		c4.811,0.078,9.621,0.209,14.428,0.404c4.809,0.189,9.615,0.447,14.419,0.77c2.4,0.162,4.801,0.346,7.201,0.547
		c2.4,0.199,4.797,0.422,7.193,0.67c4.789,0.496,9.576,1.078,14.344,1.824c2.385,0.373,4.764,0.781,7.137,1.252
		c2.373,0.469,4.738,0.998,7.088,1.629c1.174,0.316,2.346,0.658,3.51,1.045c1.162,0.385,2.318,0.811,3.459,1.312
		c0.57,0.254,1.137,0.525,1.697,0.83c0.559,0.305,1.111,0.641,1.648,1.037c0.533,0.398,1.059,0.854,1.514,1.453
		c0.227,0.301,0.434,0.641,0.588,1.029c0.154,0.387,0.25,0.826,0.25,1.271c0.023,4.803,0.178,9.607,0.451,14.412
		c0.262,4.805,0.615,9.609,0.85,14.412c0.117,2.402,0.207,4.805,0.268,7.207c0.025,1.201,0.051,2.402,0.062,3.604l0.006,0.451
		l0.002,0.225l0.002,0.141c-0.002,0.115-0.006,0.195-0.01,0.275c-0.045,0.662-0.227,1.289-0.465,1.812
		c-0.24,0.527-0.533,0.963-0.83,1.338c-0.301,0.375-0.607,0.689-0.916,0.971c-0.619,0.561-1.234,0.992-1.844,1.373
		c-0.611,0.381-1.217,0.707-1.82,1.006c-1.209,0.592-2.406,1.074-3.605,1.51c-2.396,0.865-4.791,1.539-7.186,2.139
		c-2.396,0.596-4.793,1.109-7.193,1.57c-2.4,0.463-4.803,0.869-7.207,1.24c-4.809,0.74-9.623,1.338-14.443,1.844
		c-9.637,1.01-19.292,1.641-28.949,2.027c-4.829,0.188-9.659,0.316-14.491,0.377c-4.83,0.064-9.66,0.062-14.492,0.002
		c-9.662-0.125-19.327-0.49-28.983-1.168c-4.827-0.338-9.653-0.758-14.478-1.277c-4.822-0.521-9.643-1.146-14.459-1.93
		c-2.408-0.393-4.816-0.83-7.223-1.328c-2.406-0.5-4.812-1.057-7.222-1.727c-1.204-0.336-2.411-0.701-3.62-1.111
		c-1.209-0.414-2.42-0.869-3.643-1.422c-0.613-0.275-1.229-0.578-1.85-0.922c-0.621-0.346-1.25-0.732-1.889-1.213
		c-0.32-0.242-0.644-0.506-0.968-0.814c-0.323-0.307-0.649-0.656-0.965-1.078c-0.313-0.422-0.619-0.922-0.856-1.527
		C544.484,294.514,544.328,293.797,544.332,293.07z M550.691,293.07c0.002-0.125-0.027-0.242-0.044-0.285l0.034,0.033
		c0.089,0.121,0.334,0.363,0.656,0.596c0.323,0.24,0.721,0.484,1.15,0.717c0.431,0.234,0.896,0.459,1.381,0.672
		c0.971,0.428,2.012,0.812,3.078,1.166c1.068,0.354,2.166,0.674,3.277,0.975c2.227,0.598,4.508,1.105,6.809,1.562
		c2.303,0.455,4.627,0.854,6.965,1.221c4.672,0.729,9.389,1.303,14.119,1.795c2.367,0.244,4.738,0.463,7.111,0.662
		s4.749,0.379,7.129,0.539c4.758,0.32,9.523,0.574,14.293,0.766c4.771,0.191,9.545,0.322,14.32,0.398
		c9.553,0.152,19.114,0.1,28.66-0.184c9.547-0.285,19.085-0.799,28.577-1.645c4.744-0.426,9.477-0.941,14.176-1.592
		c2.35-0.326,4.691-0.688,7.016-1.092c2.326-0.404,4.637-0.857,6.912-1.381c2.273-0.525,4.521-1.121,6.656-1.852
		c1.066-0.365,2.105-0.766,3.062-1.215c0.477-0.225,0.934-0.463,1.346-0.711c0.414-0.246,0.785-0.508,1.062-0.75
		c0.139-0.121,0.252-0.236,0.33-0.328s0.119-0.162,0.129-0.18l-0.004,0.078l-0.002,0.051l0.002-0.082l0.004-0.225l0.006-0.451
		c0.012-1.201,0.037-2.402,0.062-3.604c0.061-2.402,0.15-4.805,0.27-7.207c0.232-4.803,0.586-9.607,0.848-14.412
		c0.273-4.805,0.426-9.609,0.451-14.412c0.002-0.158-0.027-0.316-0.094-0.488c-0.066-0.17-0.168-0.35-0.303-0.531
		c-0.268-0.363-0.65-0.715-1.074-1.035c-0.428-0.322-0.9-0.619-1.393-0.893s-1.008-0.527-1.533-0.766
		c-1.053-0.477-2.15-0.893-3.262-1.271c-1.115-0.381-2.248-0.723-3.389-1.041c-2.285-0.637-4.607-1.176-6.943-1.66
		s-4.688-0.914-7.047-1.297c-4.721-0.768-9.473-1.387-14.234-1.898c-4.766-0.516-9.543-0.932-14.328-1.266
		c-9.565-0.672-19.157-1.035-28.749-1.16c-4.798-0.059-9.596-0.061-14.392,0.004c-4.796,0.061-9.591,0.188-14.384,0.375
		c-9.582,0.383-19.157,1.01-28.685,2.01c-4.763,0.5-9.514,1.092-14.237,1.82c-2.36,0.363-4.715,0.762-7.057,1.213
		c-2.339,0.451-4.666,0.949-6.967,1.523c-2.297,0.574-4.573,1.219-6.762,2.012c-1.092,0.398-2.164,0.832-3.171,1.332
		c-0.503,0.248-0.991,0.514-1.446,0.797c-0.453,0.285-0.875,0.592-1.223,0.912c-0.348,0.316-0.613,0.654-0.726,0.922
		c-0.058,0.133-0.081,0.238-0.085,0.334l-0.001,0.021l0.001,0.096l0.002,0.225l0.006,0.451c0.012,1.201,0.037,2.402,0.064,3.604
		c0.061,2.402,0.147,4.805,0.268,7.205c0.234,4.805,0.587,9.609,0.85,14.414C550.514,283.463,550.668,288.266,550.691,293.07z"/>
	<path d="M732.763,252.74l-0.062,0.045l-0.09,0.062l-0.158,0.104c-0.104,0.066-0.203,0.125-0.303,0.182
		c-0.195,0.111-0.385,0.207-0.572,0.295c-0.371,0.178-0.729,0.328-1.084,0.465c-0.711,0.271-1.404,0.498-2.1,0.707
		c-1.387,0.412-2.764,0.75-4.143,1.059c-2.756,0.609-5.512,1.09-8.27,1.514c-5.52,0.836-11.049,1.43-16.582,1.898
		c-5.533,0.465-11.07,0.795-16.607,1.031c-5.539,0.234-11.075,0.373-16.611,0.438c5.522-0.381,11.039-0.84,16.543-1.393
		s10.994-1.199,16.461-1.979c5.463-0.781,10.908-1.686,16.281-2.82c2.684-0.57,5.355-1.197,7.967-1.936
		c1.305-0.371,2.596-0.77,3.838-1.221c0.621-0.225,1.229-0.465,1.799-0.723c0.283-0.127,0.557-0.262,0.801-0.398
		c0.123-0.066,0.238-0.135,0.338-0.201l0.139-0.096l0.055-0.041l0.012-0.01l0.004-0.004l0.041-0.033L732.763,252.74z"/>
	<path fill="#9966AB" d="M703.733,272.537c-0.867,0-1.57,0.703-1.57,1.57s0.703,1.57,1.57,1.57s1.57-0.703,1.57-1.57
		S704.601,272.537,703.733,272.537"/>
	<path fill="#9966AB" d="M674.401,283.861c-0.867,0-1.569,0.703-1.569,1.57s0.702,1.57,1.569,1.57c0.868,0,1.57-0.703,1.57-1.57
		S675.27,283.861,674.401,283.861"/>
	<path fill="#9966AB" d="M630.119,278.939c-0.868,0-1.57,0.703-1.57,1.57s0.702,1.57,1.57,1.57s1.569-0.703,1.569-1.57
		S630.987,278.939,630.119,278.939"/>
	<path fill="#9966AB" d="M609.157,289.326c-0.867,0-1.569,0.703-1.569,1.57s0.702,1.57,1.569,1.57c0.868,0,1.571-0.703,1.571-1.57
		S610.025,289.326,609.157,289.326"/>
	<path fill="#9966AB" d="M566.428,271.508c-0.866,0-1.569,0.701-1.569,1.57c0,0.867,0.703,1.57,1.569,1.57
		c0.867,0,1.569-0.703,1.569-1.57C567.997,272.209,567.295,271.508,566.428,271.508"/>
	<path fill="#9966AB" d="M563.287,277.369c-0.865,0-1.57,0.703-1.57,1.57s0.705,1.57,1.57,1.57c0.868,0,1.571-0.703,1.571-1.57
		S564.155,277.369,563.287,277.369"/>
	<path fill="#9966AB" d="M556.042,287.756c-0.867,0-1.57,0.703-1.57,1.57c0,0.869,0.703,1.57,1.57,1.57s1.569-0.701,1.569-1.57
		C557.611,288.459,556.909,287.756,556.042,287.756"/>
	<path fill="#804096" d="M622.738,263.49c-4.493,2.486-7.765,4.238-17.344,4.238c-9.58,0-12.842-1.334-17.346-4.238
		c0-9.578,7.766-17.344,17.346-17.344C614.974,246.146,622.738,253.912,622.738,263.49"/>
	<path fill="#804096" d="M640.506,266.029c-1.802,0.996-3.114,1.699-6.956,1.699c-3.843,0-5.151-0.535-6.957-1.699
		c0-3.844,3.114-6.957,6.957-6.957C637.392,259.072,640.506,262.186,640.506,266.029"/>
	<path fill="#C0A0CB" d="M602.585,250.869c-0.916,0-1.838,0.166-2.722,0.48c-1.264,0.449-2.44,1.219-3.373,2.217
		c-0.936,0.992-1.623,2.197-2.027,3.463c-0.393,1.266-0.557,2.607-0.285,3.898c0.521-1.189,1.062-2.273,1.668-3.285
		c0.603-1.012,1.276-1.936,2.05-2.756c0.774-0.82,1.646-1.541,2.627-2.172c0.979-0.641,2.064-1.168,3.236-1.752
		C603.37,250.899,602.979,250.869,602.585,250.869"/>
	<path fill="#C0A0CB" d="M632.962,260.928c-0.457,0-0.918,0.084-1.36,0.24c-0.632,0.225-1.221,0.609-1.686,1.109
		c-0.468,0.496-0.812,1.098-1.015,1.73c-0.196,0.633-0.278,1.305-0.141,1.949c0.258-0.594,0.528-1.137,0.832-1.643
		c0.302-0.506,0.639-0.967,1.023-1.377c0.389-0.41,0.825-0.771,1.315-1.086c0.487-0.32,1.033-0.584,1.618-0.877
		C633.355,260.943,633.159,260.928,632.962,260.928"/>
	<path d="M610.729,261.139c-5.251,0.158-10.514,0.102-15.772-0.113c-5.261-0.217-10.516-0.592-15.763-1.115
		c-5.244-0.529-10.48-1.197-15.703-2.082c-2.611-0.447-5.218-0.943-7.827-1.562c-1.306-0.312-2.609-0.652-3.931-1.08
		c-0.664-0.217-1.326-0.449-2.027-0.764c-0.353-0.162-0.709-0.336-1.12-0.604c-0.206-0.141-0.427-0.295-0.692-0.564
		c-0.131-0.141-0.277-0.309-0.428-0.572c-0.074-0.129-0.15-0.291-0.211-0.484c-0.059-0.191-0.102-0.422-0.104-0.674l2.368-0.932
		c-0.001-0.17,1.429,0.615,1.392,0.502c-0.035-0.115-0.078-0.201-0.113-0.26c-0.069-0.119-0.113-0.158-0.135-0.178l0.065,0.062
		c0.132,0.105,0.354,0.24,0.593,0.365c0.482,0.256,1.045,0.498,1.617,0.723c1.154,0.453,2.371,0.852,3.598,1.227
		c2.465,0.744,4.986,1.389,7.521,1.982c5.076,1.182,10.219,2.158,15.387,2.996c5.166,0.836,10.363,1.525,15.579,2.059
		C600.24,260.602,605.478,260.979,610.729,261.139z"/>
</g>
</svg>
