<?xml version="1.0" encoding="utf-8"?>
<!-- Generator: Adobe Illustrator 17.0.0, SVG Export Plug-In . SVG Version: 6.00 Build 0)  -->
<!DOCTYPE svg PUBLIC "-//W3C//DTD SVG 1.1//EN" "http://www.w3.org/Graphics/SVG/1.1/DTD/svg11.dtd">
<svg version="1.1" id="Layer_1" xmlns="http://www.w3.org/2000/svg" xmlns:xlink="http://www.w3.org/1999/xlink" x="0px" y="0px"
	 width="75.25px" height="75.75px" viewBox="-1205.5 -37.5 75.25 75.75" enable-background="new -1205.5 -37.5 75.25 75.75"
	 xml:space="preserve">
<circle fill="#BF3B2B" cx="-1167.452" cy="0" r="34.498"/>
<path fill="#FFFFFF" d="M-1150.078,9.455L-1159.533,0l9.455-9.455c0.144-0.144,0.144-0.378,0-0.522l-7.397-7.397
	c-0.144-0.144-0.378-0.144-0.522,0l-9.455,9.455l-9.455-9.455c-0.144-0.144-0.378-0.144-0.522,0l-7.397,7.397
	c-0.144,0.144-0.144,0.378,0,0.522l9.455,9.455l-9.455,9.455c-0.144,0.144-0.144,0.378,0,0.522l7.397,7.397
	c0.144,0.144,0.378,0.144,0.522,0l9.455-9.455l9.455,9.455c0.144,0.144,0.378,0.144,0.522,0l7.397-7.397
	C-1149.934,9.833-1149.934,9.599-1150.078,9.455z"/>
</svg>
