<?xml version="1.0" encoding="utf-8"?>
<!-- Generator: Adobe Illustrator 17.0.0, SVG Export Plug-In . SVG Version: 6.00 Build 0)  -->
<!DOCTYPE svg PUBLIC "-//W3C//DTD SVG 1.1//EN" "http://www.w3.org/Graphics/SVG/1.1/DTD/svg11.dtd">
<svg version="1.1" xmlns="http://www.w3.org/2000/svg" xmlns:xlink="http://www.w3.org/1999/xlink" x="0px" y="0px" width="1280px"
	 height="800px" viewBox="0 0 1280 800" enable-background="new 0 0 1280 800" xml:space="preserve">
<g id="Layer_1">
	<rect x="-4980.318" y="-59.594" fill="#FFFFFF" width="10800" height="984.96"/>
	<polygon opacity="0.2" fill="#231F20" points="1149.834,81.726 1149.834,317.916 1229.995,199.821 	"/>
	<polygon opacity="0.2" fill="#231F20" points="133.698,317.916 133.698,81.726 53.537,199.821 	"/>
	<g>
		<path fill="#FFFFFF" d="M999.474,603.517c0,35.207-28.541,63.748-63.748,63.748H379.699c-35.207,0-63.748-28.541-63.748-63.748
			V191.073c0-35.207,28.541-63.748,63.748-63.748h556.026c35.207,0,63.748,28.541,63.748,63.748V603.517z"/>
		<path fill="#231F20" d="M935.725,671.564H379.699c-37.52,0-68.044-30.526-68.044-68.048V191.075
			c0-37.522,30.524-68.048,68.044-68.048h556.026c37.52,0,68.046,30.526,68.046,68.048v412.441
			C1003.771,641.037,973.245,671.564,935.725,671.564z M379.699,131.621c-32.78,0-59.449,26.67-59.449,59.454v412.441
			c0,32.784,26.67,59.454,59.449,59.454h556.026c32.782,0,59.452-26.67,59.452-59.454V191.075c0-32.784-26.67-59.454-59.452-59.454
			H379.699z"/>
	</g>
	<g>
		<rect x="373.717" y="178.614" fill="#FFFFFF" width="553.666" height="437.362"/>
		<path fill="#231F20" d="M931.679,620.273h-562.26V174.318h562.26V620.273z M378.014,611.678h545.071V182.912H378.014V611.678z"/>
	</g>
	<g>
		<rect x="376.901" y="182.912" fill="#919192" width="545.555" height="331.546"/>
	</g>
	<g>
		<rect x="376.901" y="398.924" fill="#C8C8C8" width="545.555" height="212.754"/>
	</g>
	<g>
		<g>
			<path fill="#FFFFFF" d="M646.332,393.978c0,19.231-15.59,34.822-34.822,34.822H439.419c-19.232,0-34.822-15.59-34.822-34.822l0,0
				c0-19.232,15.59-34.822,34.822-34.822h172.092C630.742,359.156,646.332,374.747,646.332,393.978L646.332,393.978z"/>
		</g>
		<g>
			<path d="M650.724,394.089c0,0-0.015,0.55-0.045,1.614c-0.001,0.123-0.012,0.288-0.026,0.469
				c-0.013,0.177-0.027,0.363-0.041,0.558c-0.031,0.39-0.066,0.818-0.103,1.283c-0.117,0.877-0.221,1.898-0.45,3.037
				c-0.426,2.279-1.129,5.074-2.423,8.188c-0.675,1.542-1.439,3.187-2.427,4.848c-0.987,1.66-2.147,3.36-3.521,5.04
				c-2.751,3.349-6.382,6.621-10.945,9.227c-4.542,2.613-10.074,4.485-16.133,4.926c-0.378,0.027-0.758,0.053-1.139,0.08
				c-0.382,0.009-0.765,0.019-1.149,0.029c-0.808,0.027-1.455,0.012-2.151,0.009c-1.383-0.009-2.786-0.018-4.21-0.026
				c-2.848-0.018-5.777-0.036-8.784-0.055c-3.007-0.019-6.091-0.038-9.248-0.058c-3.157-0.031-6.387-0.063-9.686-0.096
				c-13.195-0.143-27.489-0.299-42.609-0.463c-7.56-0.087-15.325-0.177-23.263-0.268c-7.938-0.13-16.047-0.263-24.294-0.398
				c-8.247-0.154-16.631-0.26-25.118-0.326c-4.244-0.008-8.513-0.017-12.804-0.025c-2.145,0.01-4.296,0.021-6.452,0.031
				c-1.078,0.005-2.157,0.01-3.237,0.016l-0.81,0.004l-0.48-0.002l-0.405-0.005l-0.811-0.01l-0.406-0.005l-0.456-0.027
				c-0.603-0.042-1.229-0.065-1.815-0.13c-0.584-0.067-1.171-0.119-1.755-0.196l-1.748-0.277l-1.738-0.356
				c-2.309-0.527-4.582-1.258-6.785-2.187c-2.208-0.919-4.335-2.058-6.356-3.382c-2.025-1.318-3.938-2.833-5.7-4.526
				c-3.531-3.376-6.441-7.49-8.442-12.058c-1-2.283-1.763-4.68-2.278-7.131c-0.256-1.226-0.454-2.465-0.587-3.711
				c-0.051-0.624-0.114-1.248-0.151-1.873l-0.033-0.938l-0.016-0.469l-0.008-0.235c-0.002-0.134-0.007-0.032-0.006-0.359
				l0.039-1.649c0-0.125,0.014-0.304,0.025-0.468l0.035-0.498l0.074-0.996c0.124-1.286,0.305-2.501,0.55-3.741
				c0.489-2.461,1.227-4.873,2.203-7.177c1.953-4.61,4.825-8.786,8.343-12.235c7.035-6.928,16.531-10.929,26.054-11.412
				c1.175-0.065,2.432-0.067,3.463-0.065c1.08,0.001,2.159,0.002,3.237,0.003c2.156,0.002,4.306,0.005,6.452,0.007
				c4.291-0.015,8.56-0.03,12.804-0.045c8.487-0.069,16.872-0.164,25.118-0.297c16.494-0.269,32.438-0.449,47.557-0.632
				c15.119-0.185,29.414-0.361,42.609-0.523c3.299-0.034,6.529-0.068,9.686-0.1c3.157-0.019,6.241-0.037,9.248-0.055
				c3.007-0.008,5.936-0.016,8.784-0.024c1.424-0.002,2.827-0.005,4.21-0.007c0.346-0.001,0.69-0.001,1.033-0.002l0.257,0
				l0.389,0.008l0.511,0.015c0.34,0.01,0.679,0.02,1.017,0.03c0.408,0.029,0.814,0.058,1.218,0.087
				c0.402,0.035,0.829,0.057,1.206,0.107c0.379,0.049,0.756,0.098,1.132,0.147c0.753,0.084,1.489,0.243,2.223,0.371
				c0.734,0.13,1.449,0.325,2.161,0.493c0.708,0.189,1.402,0.405,2.091,0.608c2.739,0.886,5.276,2.039,7.569,3.38
				c4.602,2.671,8.219,6.038,10.954,9.443c1.365,1.711,2.512,3.437,3.484,5.119c0.974,1.684,1.722,3.347,2.381,4.904
				c1.264,3.143,1.933,5.954,2.336,8.242c0.216,1.144,0.31,2.167,0.418,3.046c0.061,0.883,0.122,1.626,0.143,2.224
				c0.02,1.198,0.031,1.816,0.031,1.816L650.724,394.089z M641.939,393.978c0,0-0.017-0.481-0.051-1.413
				c-0.025-0.465-0.087-1.041-0.142-1.725c-0.102-0.679-0.182-1.471-0.369-2.35c-0.335-1.764-0.945-3.906-1.981-6.287
				c-0.549-1.176-1.183-2.42-1.982-3.673c-0.801-1.25-1.733-2.525-2.825-3.778c-2.185-2.502-5.054-4.881-8.549-6.758
				c-1.752-0.928-3.655-1.734-5.695-2.347c-0.516-0.134-1.032-0.284-1.558-0.412c-0.532-0.103-1.06-0.248-1.604-0.339
				c-0.545-0.086-1.088-0.208-1.647-0.26c-0.278-0.034-0.558-0.069-0.838-0.103c-0.282-0.037-0.524-0.039-0.789-0.063
				c-0.264-0.02-0.529-0.04-0.794-0.06c-0.338-0.007-0.677-0.014-1.017-0.022l-0.511-0.011l-0.381-0.003
				c-0.343-0.001-0.687-0.001-1.033-0.002c-1.383-0.002-2.786-0.005-4.21-0.007c-2.848-0.008-5.777-0.016-8.784-0.024
				c-3.007-0.018-6.091-0.036-9.248-0.055c-3.157-0.033-6.387-0.066-9.686-0.1c-13.195-0.162-27.489-0.337-42.609-0.523
				c-15.119-0.183-31.063-0.363-47.557-0.632c-8.247-0.133-16.631-0.227-25.118-0.297c-4.244-0.015-8.513-0.03-12.804-0.045
				c-2.145,0.002-4.296,0.005-6.452,0.007c-2.133,0.016-4.411-0.039-6.258,0.09c-3.883,0.259-7.705,1.333-11.153,3.114
				c-1.721,0.896-3.357,1.949-4.87,3.151c-1.511,1.206-2.901,2.552-4.154,4.008c-2.501,2.917-4.449,6.262-5.745,9.818
				c-0.65,1.777-1.149,3.604-1.485,5.461c-0.07,0.467-0.177,0.927-0.222,1.398c-0.047,0.462-0.125,0.955-0.16,1.388l-0.051,0.649
				l-0.028,0.324c-0.009,0.11-0.022,0.205-0.023,0.355l-0.044,1.649c0.004-0.19,0.003,0.049,0.005,0.053l0.003,0.178l0.005,0.355
				l0.008,0.71c0.018,0.473,0.059,0.944,0.085,1.417c0.087,0.941,0.181,1.884,0.344,2.816c0.31,1.867,0.783,3.709,1.41,5.507
				c1.247,3.597,3.158,7.005,5.646,9.995c1.246,1.492,2.637,2.875,4.153,4.119c1.52,1.239,3.17,2.326,4.909,3.257
				c1.744,0.922,3.587,1.666,5.488,2.216l1.436,0.376l1.456,0.296c0.488,0.084,0.979,0.151,1.469,0.226
				c0.489,0.068,0.947,0.091,1.422,0.142l0.354,0.034l0.406,0.015l0.811,0.031l0.405,0.015c0.034,0.002,0.209,0.007,0.128,0.006
				l0.203,0.001l0.81,0.004c1.08,0.005,2.159,0.01,3.237,0.016c2.156,0.01,4.306,0.021,6.452,0.031
				c4.291-0.009,8.56-0.017,12.804-0.025c8.487-0.065,16.872-0.172,25.118-0.326c8.247-0.135,16.356-0.268,24.294-0.398
				c7.938-0.091,15.703-0.181,23.263-0.268c15.119-0.164,29.414-0.32,42.609-0.463c3.299-0.033,6.529-0.065,9.686-0.096
				c3.157-0.02,6.241-0.039,9.248-0.058c3.007-0.019,5.936-0.037,8.784-0.055c1.424-0.009,2.827-0.018,4.21-0.026
				c0.686-0.005,1.411-0.004,1.964-0.027c0.296-0.008,0.591-0.015,0.884-0.023c0.292-0.022,0.584-0.045,0.874-0.067
				c2.321-0.184,4.536-0.629,6.612-1.257c2.073-0.644,4-1.484,5.768-2.449c3.535-1.941,6.389-4.415,8.558-6.973
				c1.083-1.283,2.002-2.585,2.789-3.857c0.785-1.275,1.402-2.537,1.936-3.728c1.005-2.41,1.582-4.569,1.894-6.341
				c0.176-0.884,0.245-1.679,0.338-2.359c0.023-0.319,0.045-0.613,0.065-0.881c0.011-0.134,0.021-0.261,0.03-0.382
				c0.011-0.116,0.02-0.233,0.021-0.377c0.024-1.065,0.036-1.615,0.036-1.615L641.939,393.978z"/>
		</g>
	</g>
	<g>
		<g>
			<path fill="#FFFFFF" d="M625.575,479.607c0,11.269-9.135,20.404-20.404,20.404H445.759c-11.269,0-20.404-9.135-20.404-20.404l0,0
				c0-11.269,9.135-20.404,20.404-20.404h159.412C616.44,459.203,625.575,468.338,625.575,479.607L625.575,479.607z"/>
		</g>
		<g>
			<path d="M630.694,479.866c0,0-0.019,0.436-0.056,1.281c-0.009,0.211-0.02,0.448-0.031,0.71l-0.005,0.101l-0.017,0.139
				c-0.013,0.094-0.026,0.19-0.039,0.288c-0.028,0.196-0.057,0.401-0.088,0.614c-0.067,0.425-0.14,0.884-0.217,1.375
				c-0.021,0.122-0.042,0.247-0.064,0.373c-0.03,0.113-0.061,0.228-0.092,0.344c-0.064,0.233-0.13,0.473-0.198,0.72
				c-0.488,1.986-1.493,4.352-3.135,6.785c-0.206,0.304-0.42,0.61-0.64,0.919c-0.221,0.308-0.487,0.592-0.736,0.895
				c-0.255,0.297-0.514,0.599-0.777,0.906c-0.26,0.308-0.574,0.578-0.866,0.873c-0.3,0.286-0.605,0.577-0.915,0.872
				c-0.318,0.284-0.668,0.544-1.009,0.82c-0.347,0.269-0.687,0.553-1.053,0.813c-0.375,0.247-0.755,0.498-1.141,0.752
				c-0.751,0.531-1.612,0.936-2.459,1.388c-0.417,0.238-0.879,0.405-1.329,0.604c-0.456,0.186-0.907,0.394-1.378,0.566
				c-0.478,0.155-0.961,0.311-1.449,0.47c-0.246,0.073-0.486,0.166-0.737,0.231c-0.252,0.059-0.506,0.118-0.761,0.177
				c-0.51,0.115-1.025,0.23-1.545,0.347c-0.528,0.074-1.061,0.148-1.599,0.223c-0.269,0.033-0.539,0.078-0.812,0.103
				c-0.273,0.013-0.548,0.027-0.825,0.04c-0.544,0.023-1.129,0.053-1.655,0.063c-0.958-0.007-1.934-0.015-2.928-0.022
				c-1.988-0.015-4.048-0.031-6.176-0.047c-8.512-0.065-18.116-0.139-28.592-0.219c-10.476-0.035-21.826-0.073-33.83-0.114
				c-12.004-0.008-24.663-0.016-37.759-0.024c-13.096-0.002-26.628-0.004-40.378-0.006c-1.719,0-3.441,0-5.166-0.001
				c-0.863,0-1.726,0-2.59,0l-1.297,0l-0.324,0l-0.162,0c0.091,0.003-0.306-0.004-0.325-0.007l-0.648-0.03l-1.297-0.061
				c-0.492-0.049-1.051-0.136-1.573-0.21c-1.1-0.125-2.021-0.418-3.008-0.659c-1.916-0.603-3.801-1.362-5.521-2.422l-0.65-0.388
				l-0.324-0.195l-0.307-0.221l-1.223-0.896l-0.305-0.226l-0.285-0.25l-0.567-0.503l-0.566-0.506l-0.282-0.254l-0.26-0.276
				l-1.033-1.115l-0.257-0.28l-0.233-0.301l-0.463-0.604l-0.461-0.606l-0.229-0.304l-0.203-0.322l-0.805-1.296l-0.199-0.325
				l-0.172-0.341l-0.34-0.684l-0.336-0.686c-0.115-0.228-0.22-0.46-0.302-0.701c-0.353-0.956-0.739-1.904-0.961-2.902
				c-0.572-1.965-0.747-4.013-0.82-6.045l0.077-1.482l0.036-0.654c0.001-0.098,0.022-0.24,0.041-0.376l0.057-0.406l0.249-1.622
				c0.036-0.28,0.111-0.513,0.172-0.763l0.192-0.741c0.223-0.998,0.61-1.945,0.964-2.901c0.082-0.242,0.19-0.472,0.306-0.699
				l0.337-0.686l0.34-0.684l0.172-0.34l0.199-0.325l0.804-1.295l0.203-0.322l0.229-0.304l0.46-0.606l0.463-0.604l0.233-0.3
				l0.257-0.28l1.033-1.113l0.26-0.276l0.282-0.254l0.566-0.505l0.568-0.502l0.285-0.249l0.305-0.225l1.223-0.893l0.307-0.221
				l0.325-0.195l0.65-0.387l0.651-0.384l0.326-0.191l0.341-0.163l1.368-0.641c0.448-0.23,0.938-0.364,1.407-0.542
				c0.477-0.157,0.941-0.357,1.43-0.473c0.977-0.232,1.941-0.521,2.94-0.624c0.496-0.068,0.99-0.144,1.486-0.2l1.494-0.076
				l0.747-0.033l0.657,0l1.297,0.005c0.864,0.004,1.727,0.007,2.59,0.011c1.725,0.007,3.447,0.014,5.166,0.021
				c13.75,0.045,27.282,0.147,40.378,0.246c13.096,0.097,25.755,0.191,37.759,0.28c6.002,0.037,11.841,0.067,17.488,0.07
				c5.647,0.007,11.104,0.033,16.342,0.006c5.238-0.015,10.258-0.03,15.033-0.043c4.774-0.038,9.303-0.073,13.559-0.107
				c2.128-0.017,4.188-0.033,6.176-0.049c0.994-0.008,1.97-0.016,2.928-0.023c0.525,0.014,1.045,0.029,1.56,0.043
				c0.235,0.007,0.468,0.014,0.701,0.021c0.251,0.019,0.546,0.06,0.816,0.086c0.552,0.065,1.099,0.13,1.639,0.194
				c0.506,0.103,1.007,0.204,1.502,0.305c0.248,0.051,0.495,0.103,0.74,0.154c0.244,0.056,0.477,0.142,0.717,0.208
				c0.477,0.141,0.949,0.28,1.416,0.418c0.461,0.155,0.902,0.348,1.351,0.515c0.441,0.182,0.899,0.328,1.308,0.553
				c0.836,0.418,1.684,0.795,2.434,1.287c3.096,1.84,5.505,4.182,7.199,6.53c1.685,2.359,2.744,4.681,3.284,6.641
				c0.335,0.968,0.469,1.86,0.617,2.625c0.068,0.383,0.146,0.736,0.177,1.061c0.025,0.326,0.047,0.62,0.067,0.883
				c0.07,1.053,0.106,1.597,0.106,1.597L630.694,479.866z M620.45,479.607c0,0-0.008-0.328-0.023-0.964
				c-0.001-0.16-0.003-0.339-0.004-0.537c-0.01-0.197-0.046-0.41-0.064-0.644c-0.021-0.235-0.044-0.488-0.068-0.76
				c-0.006-0.068-0.011-0.138-0.017-0.208c-0.015-0.069-0.029-0.139-0.044-0.21c-0.03-0.142-0.054-0.29-0.081-0.443
				c-0.172-1.233-0.59-2.726-1.325-4.444c-0.742-1.709-1.898-3.641-3.741-5.412c-0.435-0.479-0.981-0.837-1.508-1.273
				c-0.261-0.225-0.568-0.375-0.861-0.567c-0.299-0.18-0.594-0.385-0.914-0.546c-0.326-0.152-0.656-0.307-0.989-0.462
				c-0.168-0.076-0.336-0.161-0.511-0.225c-0.178-0.058-0.356-0.116-0.536-0.174c-0.359-0.114-0.726-0.25-1.093-0.351
				c-0.35-0.067-0.704-0.14-1.063-0.218c-0.186-0.037-0.346-0.086-0.558-0.11c-0.232-0.016-0.465-0.033-0.7-0.049
				c-0.423-0.03-0.851-0.06-1.283-0.09c-0.958-0.008-1.934-0.015-2.928-0.023c-1.988-0.016-4.048-0.032-6.176-0.049
				c-4.256-0.033-8.785-0.069-13.559-0.107c-4.774-0.014-9.794-0.028-15.033-0.043c-5.238-0.027-10.695,0-16.342,0.006
				c-5.647,0.002-11.486,0.032-17.488,0.07c-12.004,0.089-24.663,0.183-37.759,0.28c-13.096,0.099-26.628,0.201-40.378,0.246
				c-1.719,0.007-3.441,0.014-5.166,0.021c-0.863,0.004-1.726,0.007-2.59,0.011l-1.297,0.005l-0.64,0.005l-0.549,0.032l-1.1,0.055
				c-0.364,0.041-0.723,0.12-1.085,0.175c-0.731,0.082-1.424,0.332-2.133,0.508c-0.355,0.087-0.685,0.255-1.03,0.375
				c-0.337,0.141-0.694,0.233-1.012,0.418l-0.98,0.491l-0.246,0.121l-0.231,0.148l-0.463,0.293l-0.465,0.29l-0.233,0.144
				l-0.216,0.169l-0.868,0.67l-0.218,0.166l-0.199,0.188l-0.399,0.376l-0.401,0.373l-0.201,0.186l-0.18,0.206l-0.725,0.821
				l-0.183,0.203l-0.16,0.222l-0.32,0.443l-0.323,0.441l-0.162,0.22l-0.137,0.236l-0.554,0.941l-0.14,0.234l-0.114,0.248
				l-0.228,0.495l-0.231,0.493c-0.082,0.162-0.155,0.328-0.208,0.502c-0.236,0.686-0.522,1.356-0.662,2.071l-0.134,0.527
				c-0.042,0.174-0.103,0.358-0.113,0.513c-0.043,0.324-0.092,0.645-0.146,0.967l-0.041,0.241c-0.014,0.08-0.031,0.153-0.032,0.274
				l-0.03,0.654l-0.03,0.654l-0.015,0.327l-0.008,0.164c-0.001-0.023-0.009,0.283-0.003-0.011c0.026,2.91,0.741,5.8,2.147,8.348
				l0.554,0.94l0.137,0.236l0.162,0.22l0.323,0.441l0.32,0.443l0.16,0.222l0.183,0.203l0.725,0.82l0.18,0.206l0.201,0.185
				l0.401,0.372l0.399,0.375l0.199,0.188l0.218,0.165l0.868,0.668l0.216,0.168l0.233,0.143l0.465,0.289l0.463,0.292l0.231,0.147
				l0.246,0.121l0.98,0.488c0.319,0.181,0.678,0.269,1.015,0.406c0.345,0.116,0.676,0.279,1.031,0.363
				c0.699,0.167,1.435,0.413,2.065,0.473c0.335,0.049,0.63,0.118,0.998,0.165l1.297,0.07l0.648,0.035c0.089,0.005-0.2-0.005,0-0.001
				l0.162,0l0.324,0l1.297,0c0.864,0,1.727,0,2.59,0c1.725,0,3.447,0,5.166-0.001c13.75-0.002,27.282-0.004,40.378-0.006
				c13.096-0.008,25.755-0.017,37.759-0.024c12.004-0.04,23.354-0.079,33.83-0.114c10.476-0.08,20.08-0.154,28.592-0.219
				c2.128-0.016,4.188-0.032,6.176-0.047c0.994-0.008,1.97-0.015,2.928-0.022c0.431-0.018,0.794-0.05,1.188-0.07
				c0.193-0.01,0.385-0.02,0.576-0.031c0.19-0.018,0.376-0.062,0.562-0.093c0.372-0.064,0.739-0.127,1.103-0.189
				c0.358-0.09,0.704-0.21,1.05-0.308c0.173-0.051,0.344-0.101,0.515-0.151c0.169-0.055,0.329-0.134,0.491-0.202
				c0.322-0.138,0.641-0.275,0.956-0.411c0.311-0.143,0.595-0.335,0.887-0.494c0.284-0.175,0.588-0.304,0.84-0.516
				c0.515-0.401,1.049-0.732,1.484-1.172c1.828-1.634,3.019-3.459,3.803-5.094c0.778-1.644,1.25-3.094,1.474-4.3
				c0.034-0.149,0.067-0.294,0.099-0.434c0.017-0.07,0.033-0.139,0.05-0.207c0.006-0.058,0.013-0.115,0.019-0.171
				c0.026-0.223,0.056-0.43,0.087-0.621c0.017-0.095,0.033-0.187,0.048-0.275c0.008-0.044,0.016-0.087,0.024-0.129l0.013-0.062
				l0.006-0.098c0.015-0.262,0.029-0.498,0.041-0.709c0.048-0.844,0.073-1.28,0.073-1.28L620.45,479.607z"/>
		</g>
	</g>
	<g>
		<path stroke="#FFFFFF" stroke-miterlimit="10" d="M470.088,411.513h-21.152v-8.664h3.512v-18.862h-3.512v-8.664h22.192
			c5.099,0,8.828,0.494,11.187,1.483c2.359,1.006,4.093,2.376,5.203,4.111c1.11,1.735,1.665,3.634,1.665,5.698
			c0,2.55-0.659,4.666-1.977,6.348c-1.318,1.7-3.061,2.931-5.23,3.694c-2.133,0.746-5.429,1.119-9.886,1.119h-5.646v5.073h3.642
			V411.513z M466.445,383.259v6.79h2.732c1.908,0,3.295-0.225,4.163-0.676c0.833-0.451,1.249-1.327,1.249-2.628
			c0-0.85-0.226-1.569-0.677-2.159c-0.434-0.572-1.014-0.937-1.743-1.093c-0.694-0.156-1.873-0.234-3.539-0.234H466.445z"/>
		<path stroke="#FFFFFF" stroke-miterlimit="10" d="M526.805,411.513h-34.447v-8.664h3.252v-18.862h-3.252v-8.664h20.684v8.664
			h-3.434v18.862h8.56v-5.802h8.637V411.513z"/>
		<path stroke="#FFFFFF" stroke-miterlimit="10" d="M542.597,411.513h-14.335v-8.664h2.758l6.791-18.862h-2.914v-8.664h26.017v8.664
			h-2.914l6.921,18.862h2.654v8.664h-18.888v-7.935h3.174l-1.379-4.553h-9.262l-1.587,4.553h2.966V411.513z M546.005,384.507
			l-3.408,10.016h6.478L546.005,384.507z"/>
		<path stroke="#FFFFFF" stroke-miterlimit="10" d="M594.891,411.513h-19.773v-8.664h2.914v-5.75l-9.132-13.112h-2.472v-8.664
			h18.914v8.664h-2.16l3.851,7.389l4.657-7.389h-2.211v-8.664h13.919v8.664h-2.263l-9.106,13.112v5.75h2.862V411.513z"/>
	</g>
	<g>
		<path stroke="#FFFFFF" stroke-miterlimit="10" d="M445.015,487.524h-8.197v-3.729h1.176v-8.119h-1.198v-3.729h8.22v3.729h-0.997
			v2.374h3.606v-2.374h-1.008v-3.729h8.208v3.729h-1.176v8.119h1.176v3.729h-8.208v-3.729h1.008v-2.553h-3.606v2.553h0.997V487.524z
			"/>
		<path stroke="#FFFFFF" stroke-miterlimit="10" d="M456.997,479.696c0-1.299,0.317-2.557,0.952-3.774
			c0.627-1.209,1.601-2.228,2.922-3.057c0.47-0.291,0.954-0.523,1.45-0.694c0.497-0.172,1.036-0.304,1.618-0.398
			c0.582-0.093,1.194-0.14,1.836-0.14c2.792,0,4.953,0.818,6.484,2.453c0.761,0.806,1.336,1.68,1.725,2.62
			c0.388,0.941,0.582,1.937,0.582,2.99c0,2.172-0.791,4.061-2.374,5.666c-1.583,1.605-3.721,2.408-6.416,2.408
			c-2.605,0-4.718-0.754-6.338-2.262C457.811,484.008,456.997,482.07,456.997,479.696z M463.76,479.696
			c0,1.732,0.168,2.9,0.504,3.505c0.321,0.612,0.824,0.918,1.512,0.918c0.679,0,1.187-0.295,1.523-0.885
			c0.336-0.597,0.503-1.777,0.503-3.539c0-1.709-0.164-2.874-0.493-3.494c-0.321-0.612-0.832-0.918-1.534-0.918
			c-0.672,0-1.176,0.295-1.512,0.885C463.928,476.759,463.76,477.935,463.76,479.696z"/>
		<path stroke="#FFFFFF" stroke-miterlimit="10" d="M485.45,487.658h-4.905l-4.39-11.982h-1.075v-3.729h8.073v3.729h-1.164
			l1.836,6.708l2.329-6.708h-1.153v-3.729h6.786v3.729h-1.153l2.363,6.708l1.859-6.708h-1.12v-3.729h6.282v3.729h-1.075
			l-4.435,11.982h-4.837l-2.105-6.002L485.45,487.658z"/>
		<path stroke="#FFFFFF" stroke-miterlimit="10" d="M517.208,487.524h-8.746v-3.729h1.344v-8.119h-1.792v2.833h-2.922v-6.562h15.442
			v6.562h-2.922v-2.833h-1.781v8.119h1.377V487.524z"/>
		<path stroke="#FFFFFF" stroke-miterlimit="10" d="M521.754,479.696c0-1.299,0.317-2.557,0.952-3.774
			c0.627-1.209,1.601-2.228,2.922-3.057c0.471-0.291,0.954-0.523,1.45-0.694c0.496-0.172,1.036-0.304,1.618-0.398
			c0.583-0.093,1.195-0.14,1.837-0.14c2.792,0,4.953,0.818,6.483,2.453c0.762,0.806,1.336,1.68,1.725,2.62
			c0.388,0.941,0.582,1.937,0.582,2.99c0,2.172-0.791,4.061-2.374,5.666c-1.583,1.605-3.722,2.408-6.416,2.408
			c-2.606,0-4.719-0.754-6.339-2.262C522.568,484.008,521.754,482.07,521.754,479.696z M528.518,479.696
			c0,1.732,0.168,2.9,0.504,3.505c0.32,0.612,0.824,0.918,1.512,0.918c0.679,0,1.186-0.295,1.523-0.885
			c0.336-0.597,0.504-1.777,0.504-3.539c0-1.709-0.164-2.874-0.493-3.494c-0.321-0.612-0.833-0.918-1.534-0.918
			c-0.672,0-1.176,0.295-1.512,0.885C528.686,476.759,528.518,477.935,528.518,479.696z"/>
		<path stroke="#FFFFFF" stroke-miterlimit="10" d="M556.3,487.524h-9.104v-3.729h1.512v-8.119h-1.512v-3.729h9.552
			c2.195,0,3.8,0.212,4.815,0.638c1.015,0.433,1.762,1.023,2.24,1.769c0.478,0.747,0.717,1.564,0.717,2.453
			c0,1.097-0.284,2.008-0.851,2.732c-0.568,0.732-1.318,1.262-2.251,1.59c-0.918,0.321-2.337,0.482-4.255,0.482h-2.43v2.183h1.568
			V487.524z M554.732,475.363v2.923h1.176c0.821,0,1.418-0.097,1.792-0.291c0.358-0.194,0.537-0.571,0.537-1.131
			c0-0.366-0.097-0.676-0.291-0.929c-0.187-0.246-0.437-0.403-0.75-0.47c-0.299-0.067-0.807-0.101-1.523-0.101H554.732z"/>
		<path stroke="#FFFFFF" stroke-miterlimit="10" d="M580.711,487.524h-14.826v-3.729h1.4v-8.119h-1.4v-3.729h8.902v3.729h-1.478
			v8.119h3.684v-2.497h3.718V487.524z"/>
		<path stroke="#FFFFFF" stroke-miterlimit="10" d="M587.508,487.524h-6.17v-3.729h1.187l2.923-8.119h-1.254v-3.729h11.198v3.729
			h-1.254l2.978,8.119h1.142v3.729h-8.13v-3.415h1.366l-0.594-1.96h-3.986l-0.683,1.96h1.276V487.524z M588.975,475.9l-1.467,4.311
			h2.789L588.975,475.9z"/>
		<path stroke="#FFFFFF" stroke-miterlimit="10" d="M610.016,487.524h-8.51v-3.729h1.254v-2.475l-3.93-5.644h-1.064v-3.729h8.141
			v3.729h-0.93l1.657,3.18l2.004-3.18h-0.952v-3.729h5.99v3.729h-0.974l-3.919,5.644v2.475h1.231V487.524z"/>
	</g>
	<g>
		<path fill="#FFFFFF" d="M434.331,277.073l9.741,3.427c-0.828,4.012-2.726,7.295-5.693,9.849
			c-3.005,2.573-7.142,3.858-12.412,3.858c-7.195,0-12.52-1.88-15.974-5.639c-3.472-3.741-5.208-8.311-5.208-13.707
			c0-5.432,1.7-10.046,5.1-13.842c3.4-3.795,7.816-5.693,13.249-5.693c4.407,0,7.996,1.088,10.766,3.265v-2.509h9.012v13.707h-9.363
			c-0.486-1.709-1.305-3.058-2.455-4.047c-1.151-0.971-2.464-1.457-3.939-1.457c-4.066,0-6.098,3.499-6.098,10.496
			c0,7.015,2.105,10.523,6.314,10.523C431.057,285.303,433.378,282.56,434.331,277.073z"/>
		<path fill="#FFFFFF" d="M448.767,280.392c0-3.849,1.619-7.096,4.857-9.741s7.609-3.967,13.113-3.967
			c5.541,0,10.047,1.278,13.518,3.832c3.472,2.555,5.208,5.882,5.208,9.984c0,3.958-1.656,7.258-4.965,9.903
			c-3.31,2.644-7.681,3.966-13.114,3.966c-5.865,0-10.434-1.322-13.707-3.966C450.404,287.776,448.767,284.439,448.767,280.392z
			 M462.501,280.446c0,4.173,1.493,6.26,4.479,6.26c3.166,0,4.749-2.105,4.749-6.314c0-1.925-0.387-3.417-1.16-4.479
			c-0.792-1.061-1.907-1.592-3.346-1.592c-1.421,0-2.563,0.522-3.427,1.565C462.933,276.929,462.501,278.449,462.501,280.446z"/>
		<path fill="#FFFFFF" d="M508.426,293.614h-18.753v-8.23h2.779V264.31h-2.779v-8.23h16.352v29.303h2.402V293.614z"/>
		<path fill="#FFFFFF" d="M512.635,280.392c0-3.849,1.619-7.096,4.857-9.741c3.238-2.644,7.609-3.967,13.114-3.967
			c5.54,0,10.046,1.278,13.518,3.832c3.472,2.555,5.208,5.882,5.208,9.984c0,3.958-1.655,7.258-4.965,9.903
			c-3.31,2.644-7.681,3.966-13.113,3.966c-5.865,0-10.434-1.322-13.707-3.966C514.271,287.776,512.635,284.439,512.635,280.392z
			 M526.369,280.446c0,4.173,1.493,6.26,4.479,6.26c3.166,0,4.749-2.105,4.749-6.314c0-1.925-0.387-3.417-1.16-4.479
			c-0.792-1.061-1.907-1.592-3.346-1.592c-1.421,0-2.563,0.522-3.427,1.565C526.801,276.929,526.369,278.449,526.369,280.446z"/>
		<path fill="#FFFFFF" d="M574.587,293.614h-21.1v-8.23h3.561v-9.714h-3.561v-8.23h16.243v6.557
			c0.611-1.637,1.556-3.049,2.833-4.236c1.223-1.169,2.464-1.934,3.723-2.293c1.205-0.342,2.977-0.513,5.316-0.513v11.522
			c-0.306-0.018-0.684-0.027-1.133-0.027c-2.77,0-4.83,0.279-6.179,0.837c-1.403,0.576-2.357,1.332-2.86,2.267
			c-0.522,0.971-0.792,2.249-0.81,3.832h3.967V293.614z"/>
		<path fill="#FFFFFF" d="M633.166,293.614h-35.725v-8.985h3.373v-19.563h-3.373v-8.985h21.451v8.985h-3.562v19.563h8.877v-6.017
			h8.958V293.614z"/>
		<path fill="#FFFFFF" d="M646.873,274.753l-10.631-1.079c1.169-2.572,3.058-4.38,5.666-5.423c2.572-1.043,6.368-1.565,11.386-1.565
			c1.852,0,3.512,0.059,4.978,0.175c1.466,0.117,2.775,0.293,3.926,0.526c2.392,0.45,4.164,1.143,5.316,2.078
			c1.151,0.954,1.951,1.979,2.401,3.076c0.468,1.133,0.701,2.896,0.701,5.288v7.555h3.346v8.23h-16.918v-1.781
			c-2.339,1.511-5.469,2.267-9.39,2.267c-3.688,0-6.467-0.81-8.338-2.429c-1.889-1.619-2.833-3.535-2.833-5.747
			c0-2.446,1.16-4.452,3.481-6.017c2.302-1.565,5.306-2.347,9.012-2.347c3.381,0,6.071,0.441,8.068,1.322v-0.783
			c0-1.619-0.117-2.752-0.351-3.4c-0.253-0.684-0.81-1.268-1.673-1.754c-0.9-0.468-1.943-0.702-3.13-0.702
			C649.716,272.243,648.043,273.08,646.873,274.753z M657.046,286.922v-4.776c-1.205-0.648-2.482-0.971-3.832-0.971
			c-1.187,0-2.131,0.324-2.833,0.971c-0.701,0.666-1.052,1.511-1.052,2.536c0,1.062,0.359,1.925,1.079,2.59
			c0.737,0.684,1.583,1.025,2.536,1.025C654.635,288.298,656.002,287.839,657.046,286.922z"/>
		<path fill="#FFFFFF" d="M693.958,293.614h-16.999v-8.23h3.427V264.31h-3.481v-8.23h17.053v13.033
			c2.302-1.439,5.1-2.159,8.391-2.159c4.156,0,7.591,1.187,10.307,3.562c2.716,2.375,4.075,5.604,4.075,9.687
			c0,2.015-0.328,3.841-0.985,5.477c-0.657,1.637-1.642,3.112-2.954,4.425c-2.609,2.662-5.883,3.994-9.822,3.994
			c-3.49,0-6.494-0.746-9.012-2.24V293.614z M693.85,280.419c0,3.939,1.565,5.909,4.695,5.909c2.968,0,4.452-1.961,4.452-5.882
			c0-1.871-0.414-3.301-1.241-4.29c-0.827-0.971-1.934-1.457-3.319-1.457c-1.475,0-2.608,0.531-3.4,1.592
			C694.246,277.388,693.85,278.764,693.85,280.419z"/>
	</g>
	<g>
		<g>
			<path fill="#979799" d="M756.766,468.143c0,2.542-18.889,4.602-42.189,4.602c-23.303,0-42.191-2.059-42.191-4.602
				c0-2.54,18.889-4.601,42.191-4.601C737.878,463.541,756.766,465.603,756.766,468.143"/>
		</g>
		<g>
			<path fill="#FFFFFF" d="M726.405,382.969l8.274-70.571h-40.203l8.274,70.571c-17.541,5.04-30.363,20.995-30.363,39.91
				c0,22.965,18.889,41.58,42.189,41.58c23.303,0,42.191-18.615,42.191-41.58C756.767,403.964,743.946,388.009,726.405,382.969"/>
		</g>
		<g>
			<path fill="#F4EA15" d="M677.058,417.647h75.34c3.508,13.624-5.757,41.984-37.868,42.526
				C681.684,460.173,672.673,427.714,677.058,417.647"/>
		</g>
		<g>
			<path fill="#DABB26" d="M752.397,417.831c0,3.116-16.866,5.643-37.669,5.643c-20.805,0-37.671-2.527-37.671-5.643
				c0-3.116,16.866-5.643,37.671-5.643C735.531,412.187,752.397,414.715,752.397,417.831"/>
		</g>
		<g>
			<path fill="#F7EF80" d="M700.305,428.326c-1.65,0-2.99,1.32-2.99,2.946c0,1.628,1.34,2.946,2.99,2.946
				c1.65,0,2.988-1.318,2.988-2.946C703.293,429.646,701.955,428.326,700.305,428.326"/>
		</g>
		<g>
			<path fill="#F7EF80" d="M705.536,437.901c-1.136,0-2.054,0.907-2.054,2.025s0.919,2.027,2.054,2.027
				c1.136,0,2.057-0.909,2.057-2.027S706.671,437.901,705.536,437.901"/>
		</g>
		<g>
			<path fill="#FFFFFF" d="M693.642,398.071c0,0-0.135,0.118-0.389,0.34c-0.249,0.227-0.623,0.549-1.089,0.978
				c-0.118,0.106-0.241,0.219-0.37,0.338c-0.121,0.126-0.246,0.256-0.379,0.392c-0.266,0.273-0.544,0.576-0.847,0.897
				c-0.15,0.163-0.313,0.323-0.466,0.5c-0.148,0.18-0.303,0.367-0.458,0.557c-0.313,0.384-0.643,0.788-0.975,1.219
				c-0.313,0.446-0.638,0.911-0.973,1.392c-0.086,0.121-0.172,0.241-0.254,0.367c-0.074,0.128-0.15,0.259-0.227,0.389
				c-0.155,0.261-0.31,0.527-0.468,0.798c-0.153,0.271-0.33,0.537-0.468,0.828c-0.143,0.288-0.288,0.579-0.434,0.872
				c-0.145,0.296-0.303,0.589-0.431,0.899c-0.126,0.313-0.251,0.626-0.379,0.943c-0.123,0.318-0.268,0.633-0.374,0.963
				c-0.108,0.33-0.217,0.663-0.328,0.998c-0.239,0.665-0.392,1.362-0.567,2.059c-0.042,0.175-0.091,0.347-0.126,0.525l-0.062,0.333
				c0.532-0.118,1.094-0.232,1.682-0.342c0.012-0.062,0.027-0.123,0.042-0.187c0.158-0.663,0.278-1.33,0.48-1.968
				c0.091-0.323,0.182-0.643,0.271-0.961c0.089-0.32,0.217-0.623,0.32-0.934c0.108-0.305,0.217-0.611,0.325-0.914
				c0.113-0.298,0.249-0.586,0.365-0.879c0.123-0.291,0.241-0.576,0.36-0.862c0.113-0.286,0.268-0.549,0.397-0.82
				c0.133-0.271,0.266-0.534,0.397-0.798c0.067-0.13,0.131-0.261,0.195-0.389c0.071-0.126,0.143-0.249,0.214-0.372
				c0.281-0.493,0.554-0.971,0.815-1.429c0.291-0.443,0.569-0.867,0.833-1.271c0.131-0.204,0.259-0.402,0.382-0.594
				c0.131-0.19,0.268-0.365,0.394-0.539c0.259-0.347,0.503-0.67,0.722-0.978c0.111-0.15,0.217-0.298,0.318-0.436
				c0.108-0.133,0.214-0.261,0.313-0.379c0.399-0.48,0.705-0.867,0.916-1.128C693.531,398.212,693.642,398.071,693.642,398.071"/>
		</g>
		<g>
			<path fill="#F6ED5E" d="M683.036,420.882c0,0.16,0.002,0.323,0.002,0.483c0.02,0.36,0.039,0.719,0.059,1.076
				c0.02,0.717,0.133,1.419,0.207,2.116c0.047,0.345,0.108,0.69,0.163,1.03c0.054,0.34,0.106,0.68,0.18,1.012
				c0.069,0.333,0.138,0.663,0.204,0.988c0.067,0.328,0.158,0.645,0.239,0.963c0.155,0.633,0.35,1.241,0.527,1.838
				c0.377,1.182,0.786,2.283,1.217,3.276c0.414,1,0.857,1.887,1.264,2.663c0.406,0.778,0.798,1.436,1.128,1.971
				c0.665,1.067,1.116,1.631,1.116,1.631s-0.079-0.163-0.227-0.463c-0.15-0.298-0.35-0.746-0.604-1.315
				c-0.251-0.569-0.535-1.268-0.85-2.072c-0.308-0.808-0.635-1.722-0.958-2.729c-0.33-1.005-0.623-2.111-0.924-3.276
				c-0.133-0.589-0.283-1.19-0.392-1.813c-0.057-0.31-0.123-0.621-0.18-0.939c-0.052-0.318-0.103-0.638-0.158-0.961
				c-0.059-0.323-0.094-0.65-0.135-0.98c-0.037-0.328-0.084-0.66-0.116-0.995c-0.025-0.335-0.052-0.67-0.076-1.01l-0.042-0.507
				l-0.022-0.512c-0.015-0.34-0.027-0.685-0.042-1.027c0-0.034,0-0.071,0-0.106C684.063,421.111,683.536,420.998,683.036,420.882"/>
		</g>
		<g>
			<path fill="#E0C553" d="M685.261,414.315c-0.589,0.111-1.148,0.224-1.68,0.34l-0.037,0.202c-0.064,0.355-0.128,0.712-0.192,1.072
				c-0.059,0.357-0.089,0.722-0.135,1.081c-0.034,0.364-0.099,0.724-0.111,1.089c-0.03,0.729-0.094,1.456-0.074,2.183
				c0.002,0.2,0.002,0.401,0.005,0.601c0.5,0.116,1.027,0.229,1.581,0.34c0.002-0.31,0.005-0.618,0.007-0.929
				c-0.012-0.692,0.059-1.384,0.096-2.076c0.012-0.345,0.069-0.687,0.101-1.032c0.042-0.345,0.067-0.69,0.121-1.03
				c0.057-0.34,0.113-0.68,0.17-1.02l0.081-0.507C685.212,414.522,685.237,414.419,685.261,414.315"/>
		</g>
		<g>
			<path fill="#211E1F" d="M729.061,381.185c1.912,0.53,3.789,1.2,5.624,1.981c2.456,1.069,4.816,2.37,7.055,3.865
				c4.478,2.998,8.385,6.86,11.536,11.282c3.116,4.446,5.419,9.484,6.749,14.79c0.677,2.653,1.072,5.358,1.229,8.117
				c0.158,2.705,0.071,5.476-0.264,8.2c-1.274,10.962-6.905,21.401-15.371,28.739c-4.22,3.685-9.139,6.604-14.428,8.59
				c-5.279,1.976-10.996,2.978-16.576,2.99c-5.715-0.007-11.336-1.005-16.649-2.976c-5.294-1.983-10.218-4.897-14.442-8.582
				c-8.476-7.333-14.122-17.775-15.408-28.744c-0.335-2.724-0.426-5.508-0.271-8.225c0.155-2.737,0.547-5.461,1.222-8.114
				c1.328-5.313,3.628-10.361,6.747-14.817c3.151-4.431,7.06-8.304,11.543-11.311c2.242-1.5,4.606-2.806,7.065-3.88
				c2.468-1.054,5.015-1.909,7.619-2.488l0.007-0.002l-1.788,2.653l-6.912-70.721v-0.005l-0.202-1.182l1.33-0.067l40.198-2.032
				h0.003l3.626,0.037l-0.446,3.478L729.061,381.185z M723.814,384.56l7.685-72.524l3.178,3.515h-0.003l-40.198-2.032l1.131-1.251
				v0.005l9.631,70.413l0.271,1.993l-2.059,0.66l-0.007,0.002c-8.892,3.192-16.445,9.343-21.054,17.122
				c-4.702,7.722-6.35,16.97-4.89,25.658c0.744,4.335,2.264,8.508,4.446,12.299c2.197,3.784,5.047,7.193,8.415,9.996
				c6.698,5.643,15.455,8.809,24.187,8.764c4.466,0.017,8.796-0.744,12.927-2.239c4.128-1.473,7.974-3.707,11.341-6.51
				c3.372-2.803,6.227-6.215,8.429-9.999c2.185-3.796,3.712-7.971,4.459-12.312c0.367-2.175,0.544-4.367,0.517-6.612
				c-0.02-2.187-0.249-4.417-0.643-6.597c-0.796-4.375-2.424-8.622-4.757-12.494c-4.611-7.796-12.179-13.967-21.091-17.172
				L723.814,384.56z"/>
		</g>
		<g>
			<path fill="#FFFFFF" d="M866.74,371.273l8.759-47.224h-42.571l8.759,47.224c-18.576,5.338-32.153,22.234-32.153,42.265
				c0,24.32,20.004,44.034,44.679,44.034c24.677,0,44.679-19.714,44.679-44.034C898.894,393.507,885.318,376.611,866.74,371.273"/>
		</g>
		<g>
			<path fill="#979799" d="M884.75,461.244c0,2.85-13.671,5.158-30.535,5.158s-30.535-2.308-30.535-5.158
				c0-2.847,13.671-5.158,30.535-5.158S884.75,458.396,884.75,461.244"/>
		</g>
		<g>
			<path fill="#3A54A3" d="M814.322,407.539h79.784c3.717,14.43-6.094,44.463-40.1,45.034
				C819.222,452.573,809.679,418.2,814.322,407.539"/>
		</g>
		<g>
			<path fill="#243C7A" d="M893.88,407.474c0,3.291-17.81,5.959-39.777,5.959c-21.97,0-39.78-2.668-39.78-5.959
				c0-3.291,17.81-5.959,39.78-5.959C876.07,401.516,893.88,404.184,893.88,407.474"/>
		</g>
		<g>
			<path fill="#767EBC" d="M838.941,418.849c-1.749,0-3.165,1.397-3.165,3.119c0,1.724,1.416,3.121,3.165,3.121
				s3.165-1.397,3.165-3.121C842.106,420.246,840.69,418.849,838.941,418.849"/>
		</g>
		<g>
			<path fill="#3A54A3" d="M852.991,392.03c0,1.724-1.419,3.121-3.168,3.121c-1.747,0-3.165-1.397-3.165-3.121
				c0-1.722,1.419-3.119,3.165-3.119C851.572,388.911,852.991,390.308,852.991,392.03"/>
		</g>
		<g>
			<path fill="#3A54A3" d="M853.712,384.51c0,0.806-0.663,1.458-1.478,1.458c-0.818,0-1.48-0.653-1.48-1.458
				c0-0.805,0.663-1.458,1.48-1.458C853.049,383.052,853.712,383.705,853.712,384.51"/>
		</g>
		<g>
			<path fill="#767EBC" d="M844.481,428.989c-1.202,0-2.178,0.961-2.178,2.146c0,1.185,0.975,2.145,2.178,2.145
				s2.178-0.961,2.178-2.145C846.659,429.95,845.683,428.989,844.481,428.989"/>
		</g>
		<g>
			<path fill="#767EBC" d="M837.402,435.92c0.091,0.852,0.16,1.712,0.209,2.577c0.214-0.333,0.34-0.729,0.34-1.153
				C837.952,436.797,837.745,436.299,837.402,435.92"/>
		</g>
		<g>
			<path fill="#FFFFFF" d="M830.171,387.707c0,0-0.145,0.131-0.419,0.372c-0.271,0.249-0.677,0.604-1.18,1.072
				c-0.126,0.116-0.259,0.239-0.399,0.369c-0.131,0.135-0.266,0.278-0.409,0.429c-0.288,0.298-0.591,0.628-0.919,0.978
				c-0.16,0.177-0.335,0.352-0.5,0.547c-0.163,0.197-0.328,0.399-0.498,0.608c-0.337,0.416-0.695,0.857-1.054,1.328
				c-0.338,0.485-0.69,0.99-1.052,1.515c-0.091,0.133-0.185,0.264-0.273,0.399c-0.081,0.14-0.165,0.283-0.246,0.424
				c-0.167,0.286-0.335,0.576-0.505,0.869c-0.165,0.296-0.36,0.584-0.507,0.899c-0.153,0.313-0.31,0.631-0.468,0.951
				c-0.158,0.32-0.328,0.64-0.466,0.978c-0.135,0.338-0.273,0.68-0.411,1.025c-0.133,0.345-0.291,0.687-0.404,1.047
				c-0.118,0.357-0.236,0.719-0.355,1.084c-0.03,0.084-0.059,0.168-0.086,0.251c0.431,0.377,0.855,0.756,1.276,1.143
				c0.076-0.33,0.16-0.658,0.261-0.978c0.099-0.352,0.2-0.7,0.298-1.047c0.096-0.347,0.236-0.677,0.35-1.015
				c0.121-0.335,0.239-0.668,0.357-0.995c0.123-0.328,0.271-0.641,0.399-0.958c0.133-0.315,0.266-0.631,0.397-0.938
				c0.121-0.313,0.291-0.599,0.431-0.894c0.148-0.293,0.293-0.584,0.436-0.867c0.071-0.143,0.143-0.283,0.214-0.424
				c0.079-0.138,0.158-0.271,0.234-0.406c0.308-0.537,0.608-1.054,0.894-1.554c0.31-0.483,0.626-0.936,0.911-1.379
				c0.145-0.219,0.283-0.436,0.421-0.645c0.14-0.204,0.293-0.394,0.431-0.584c0.281-0.377,0.549-0.727,0.791-1.059
				c0.121-0.165,0.237-0.323,0.347-0.475c0.121-0.143,0.234-0.278,0.342-0.409c0.438-0.52,0.773-0.938,1.007-1.222
				C830.048,387.86,830.171,387.707,830.171,387.707"/>
		</g>
		<g>
			<path fill="#FFFFFF" d="M850.309,390.994c0,0.722-0.594,1.308-1.328,1.308c-0.732,0-1.325-0.586-1.325-1.308
				c0-0.722,0.594-1.308,1.325-1.308C849.715,389.686,850.309,390.273,850.309,390.994"/>
		</g>
		<g>
			<path fill="#FFFFFF" d="M851.502,392.671c0,0.204-0.167,0.37-0.374,0.37s-0.374-0.165-0.374-0.37
				c0-0.204,0.168-0.369,0.374-0.369S851.502,392.467,851.502,392.671"/>
		</g>
		<g>
			<path fill="#FFFFFF" d="M852.233,384.095c0,0.301-0.249,0.544-0.554,0.544c-0.305,0-0.552-0.244-0.552-0.544
				c0-0.3,0.246-0.544,0.552-0.544C851.984,383.55,852.233,383.794,852.233,384.095"/>
		</g>
		<g>
			<path fill="#211E1F" d="M869.816,368.888c1.907,0.539,3.784,1.205,5.619,1.978c2.614,1.131,5.126,2.51,7.511,4.092
				c4.769,3.18,8.934,7.279,12.292,11.979c3.325,4.725,5.784,10.087,7.21,15.733c0.727,2.828,1.15,5.703,1.32,8.644
				c0.17,2.877,0.081,5.831-0.271,8.735c-1.343,11.676-7.333,22.808-16.351,30.631c-4.493,3.934-9.735,7.045-15.371,9.164
				c-5.626,2.106-11.723,3.178-17.664,3.187c-6.094-0.005-12.082-1.069-17.746-3.173c-5.638-2.114-10.888-5.222-15.386-9.151
				c-9.028-7.821-15.036-18.955-16.393-30.643c-0.355-2.902-0.448-5.867-0.276-8.759c0.165-2.914,0.586-5.816,1.31-8.641
				c1.421-5.656,3.88-11.026,7.205-15.763c3.36-4.71,7.528-8.821,12.302-12.011c2.387-1.589,4.904-2.973,7.523-4.109
				c2.626-1.111,5.336-2.015,8.102-2.621h0.007l-1.976,3.153l-8.306-47.3v-0.005l-0.645-2.544l2.953-0.187l42.561-2.685h0.003
				l6.316,0.303l-1.328,5.597L869.816,368.888z M863.633,372.568l6.727-49.877l4.988,5.9h-0.003l-42.561-2.685l2.313-2.732v0.005
				l9.208,47.138l0.47,2.397l-2.446,0.759l-0.005,0.003c-9.368,3.407-17.305,9.91-22.133,18.115c-4.932,8.141-6.639,17.869-5.089,27
				c0.786,4.555,2.392,8.937,4.688,12.92c2.313,3.971,5.308,7.55,8.848,10.491c7.038,5.924,16.231,9.242,25.394,9.196
				c4.695,0.02,9.237-0.781,13.575-2.35c4.333-1.542,8.373-3.887,11.91-6.828c3.545-2.941,6.545-6.52,8.863-10.496
				c2.301-3.983,3.912-8.37,4.705-12.93c0.392-2.288,0.581-4.592,0.557-6.951c-0.017-2.301-0.254-4.648-0.663-6.942
				c-0.828-4.604-2.527-9.075-4.973-13.159c-4.833-8.225-12.782-14.75-22.172-18.169L863.633,372.568z"/>
		</g>
		<g>
			<path fill="#979799" d="M833.735,495.97c0,2.303-20.339,4.171-45.431,4.171c-25.089,0-45.428-1.867-45.428-4.171
				c0-2.303,20.339-4.168,45.428-4.168C813.396,491.802,833.735,493.666,833.735,495.97"/>
		</g>
		<g>
			<path fill="#FFFFFF" d="M800.243,392.124l10.203-114.836h-49.584l10.205,114.836c-21.635,6.217-37.449,25.894-37.449,49.227
				c0,28.321,23.298,51.281,52.037,51.281c28.739,0,52.035-22.96,52.035-51.281C837.69,418.018,821.878,398.341,800.243,392.124"/>
		</g>
		<g>
			<path fill="#EB2626" d="M793.216,408.09c0,2.008-1.65,3.633-3.688,3.633c-2.037,0-3.688-1.626-3.688-3.633
				c0-2.007,1.65-3.633,3.688-3.633C791.565,404.457,793.216,406.083,793.216,408.09"/>
		</g>
		<g>
			<path fill="#EB2626" d="M801.813,290.681c0,2.008-1.65,3.633-3.688,3.633c-2.035,0-3.688-1.626-3.688-3.633
				c0-2.007,1.653-3.633,3.688-3.633C800.162,287.048,801.813,288.674,801.813,290.681"/>
		</g>
		<g>
			<path fill="#EB2626" d="M786.785,335.972c0,2.008-1.65,3.636-3.688,3.636c-2.035,0-3.688-1.628-3.688-3.636
				c0-2.007,1.653-3.633,3.688-3.633C785.135,332.338,786.785,333.964,786.785,335.972"/>
		</g>
		<g>
			<path fill="#EB2626" d="M786.694,390.208c0,2.673-2.197,4.838-4.909,4.838s-4.909-2.165-4.909-4.838
				c0-2.673,2.197-4.835,4.909-4.835S786.694,387.535,786.694,390.208"/>
		</g>
		<g>
			<path fill="#EB2626" d="M798.125,347.588c0,2.673-2.197,4.84-4.909,4.84c-2.712,0-4.909-2.168-4.909-4.84
				c0-2.67,2.197-4.835,4.909-4.835C795.928,342.753,798.125,344.918,798.125,347.588"/>
		</g>
		<g>
			<path fill="#EB2626" d="M785.633,418.967c0,1.38-1.136,2.498-2.535,2.498c-1.402,0-2.535-1.118-2.535-2.498
				c0-1.379,1.133-2.498,2.535-2.498C784.498,416.469,785.633,417.587,785.633,418.967"/>
		</g>
		<g>
			<path fill="#EB2626" d="M737.959,434.183h95.775c4.464,17.322-7.316,53.946-48.138,54.633
				C743.841,488.817,732.382,446.983,737.959,434.183"/>
		</g>
		<g>
			<path fill="#C32528" d="M833.735,434.417c0,3.963-21.441,7.173-47.889,7.173c-26.448,0-47.886-3.21-47.886-7.173
				c0-3.961,21.438-7.173,47.886-7.173C812.295,427.244,833.735,430.456,833.735,434.417"/>
		</g>
		<g>
			<path fill="#D37159" d="M806.505,432.373c-7.338,0-13.289,1.128-13.289,2.52c0,1.394,5.951,2.523,13.289,2.523
				s13.287-1.128,13.287-2.523C819.792,433.501,813.843,432.373,806.505,432.373"/>
		</g>
		<g>
			<path fill="#FFFFFF" d="M755.679,411.724c0,0-0.155,0.14-0.448,0.402c-0.288,0.266-0.719,0.65-1.256,1.155
				c-0.135,0.123-0.276,0.256-0.426,0.394c-0.14,0.148-0.286,0.303-0.438,0.463c-0.305,0.32-0.628,0.675-0.978,1.052
				c-0.172,0.19-0.36,0.379-0.535,0.586c-0.172,0.212-0.35,0.431-0.53,0.653c-0.362,0.451-0.741,0.924-1.128,1.426
				c-0.36,0.522-0.734,1.064-1.121,1.628c-0.096,0.14-0.197,0.281-0.291,0.426c-0.086,0.15-0.175,0.303-0.264,0.456
				c-0.177,0.305-0.357,0.616-0.539,0.931c-0.091,0.155-0.182,0.315-0.276,0.475c-0.094,0.158-0.185,0.32-0.264,0.49
				c-0.165,0.335-0.333,0.673-0.5,1.015c-0.167,0.345-0.35,0.687-0.498,1.049c-0.145,0.362-0.291,0.727-0.438,1.096
				c-0.14,0.372-0.308,0.739-0.431,1.123c-0.126,0.384-0.251,0.771-0.377,1.16c-0.278,0.771-0.453,1.581-0.655,2.392
				c-0.047,0.204-0.106,0.406-0.145,0.611l-0.034,0.19c0.537-0.143,1.106-0.283,1.705-0.419c0.005-0.017,0.01-0.034,0.012-0.052
				c0.185-0.776,0.33-1.557,0.567-2.306c0.108-0.377,0.217-0.751,0.323-1.123c0.106-0.372,0.254-0.729,0.377-1.089
				c0.131-0.36,0.259-0.717,0.384-1.069c0.059-0.18,0.145-0.345,0.214-0.517c0.074-0.17,0.145-0.34,0.217-0.51
				c0.145-0.34,0.286-0.675,0.426-1.007c0.066-0.167,0.145-0.328,0.229-0.485c0.079-0.16,0.16-0.318,0.239-0.475
				c0.158-0.313,0.315-0.623,0.47-0.929c0.076-0.153,0.153-0.303,0.229-0.453c0.084-0.145,0.17-0.291,0.251-0.434
				c0.335-0.576,0.655-1.131,0.966-1.665c0.333-0.52,0.675-1.005,0.983-1.478c0.155-0.236,0.305-0.465,0.453-0.69
				c0.153-0.222,0.315-0.424,0.466-0.626c0.303-0.404,0.591-0.778,0.85-1.133c0.131-0.175,0.256-0.345,0.377-0.507
				c0.128-0.153,0.254-0.298,0.37-0.439c0.473-0.554,0.833-1,1.084-1.303C755.546,411.887,755.679,411.724,755.679,411.724"/>
		</g>
		<g>
			<path fill="#F05D41" d="M743.435,437.752c0.002,0.382,0.002,0.764,0.005,1.143c0.022,0.419,0.047,0.837,0.069,1.251
				c0.022,0.835,0.15,1.65,0.234,2.461c0.054,0.404,0.126,0.803,0.187,1.2c0.062,0.397,0.121,0.791,0.207,1.178
				c0.076,0.389,0.155,0.771,0.232,1.153c0.079,0.379,0.182,0.751,0.276,1.118c0.175,0.739,0.402,1.448,0.604,2.143
				c0.431,1.379,0.899,2.663,1.394,3.823c0.475,1.165,0.983,2.202,1.448,3.111c0.466,0.909,0.914,1.68,1.293,2.306
				c0.379,0.628,0.705,1.104,0.926,1.426c0.222,0.325,0.352,0.488,0.352,0.488s-0.099-0.182-0.271-0.532
				c-0.18-0.347-0.419-0.867-0.722-1.527c-0.301-0.66-0.641-1.473-1.015-2.409c-0.365-0.938-0.759-2.003-1.143-3.178
				c-0.392-1.173-0.746-2.461-1.101-3.823c-0.158-0.687-0.337-1.389-0.468-2.116c-0.069-0.362-0.15-0.727-0.214-1.096
				c-0.062-0.372-0.126-0.746-0.19-1.123c-0.069-0.377-0.111-0.761-0.16-1.146c-0.044-0.387-0.101-0.773-0.14-1.165
				c-0.03-0.392-0.062-0.786-0.094-1.182c-0.015-0.197-0.032-0.394-0.049-0.594l-0.025-0.599c-0.017-0.402-0.034-0.803-0.052-1.205
				c0-0.229,0.002-0.458,0.005-0.687C744.465,438.033,743.935,437.895,743.435,437.752"/>
		</g>
		<g>
			<path fill="#CB563F" d="M745.812,430.48c-0.599,0.136-1.168,0.276-1.705,0.419l-0.079,0.431
				c-0.074,0.414-0.148,0.828-0.222,1.244c-0.069,0.419-0.103,0.84-0.158,1.261c-0.039,0.421-0.111,0.84-0.128,1.264
				c-0.034,0.848-0.111,1.692-0.086,2.535c0,0.039,0,0.079,0,0.118c0.5,0.143,1.03,0.281,1.589,0.419
				c0-0.175,0.003-0.35,0.003-0.522c-0.012-0.81,0.071-1.621,0.111-2.431c0.015-0.404,0.081-0.806,0.118-1.21
				c0.049-0.401,0.079-0.808,0.143-1.204c0.067-0.399,0.133-0.798,0.2-1.195l0.096-0.594
				C745.725,430.834,745.772,430.657,745.812,430.48"/>
		</g>
		<g>
			<path fill="#FFFFFF" d="M798.125,288.751c0,0.576-0.473,1.044-1.059,1.044c-0.584,0-1.059-0.468-1.059-1.044
				c0-0.576,0.475-1.044,1.059-1.044C797.652,287.707,798.125,288.175,798.125,288.751"/>
		</g>
		<g>
			<path fill="#FFFFFF" d="M783.02,334.11c0,0.665-0.547,1.205-1.222,1.205s-1.222-0.539-1.222-1.205
				c0-0.665,0.547-1.204,1.222-1.204S783.02,333.445,783.02,334.11"/>
		</g>
		<g>
			<path fill="#FFFFFF" d="M793.216,345.518c0,0.941-0.773,1.702-1.727,1.702c-0.956,0-1.729-0.761-1.729-1.702
				c0-0.941,0.773-1.702,1.729-1.702C792.442,343.816,793.216,344.577,793.216,345.518"/>
		</g>
		<g>
			<path fill="#FFFFFF" d="M794.842,347.498c0,0.345-0.283,0.626-0.635,0.626c-0.35,0-0.633-0.281-0.633-0.626
				c0-0.345,0.283-0.626,0.633-0.626C794.559,346.873,794.842,347.154,794.842,347.498"/>
		</g>
		<g>
			<path fill="#FFFFFF" d="M782.023,388.368c0,1.017-0.838,1.843-1.87,1.843c-1.03,0-1.867-0.825-1.867-1.843
				c0-1.017,0.838-1.84,1.867-1.84C781.185,386.528,782.023,387.35,782.023,388.368"/>
		</g>
		<g>
			<path fill="#FFFFFF" d="M782.715,390.667c0,0.254-0.209,0.458-0.466,0.458c-0.256,0-0.463-0.204-0.463-0.458
				c0-0.254,0.207-0.458,0.463-0.458C782.505,390.209,782.715,390.413,782.715,390.667"/>
		</g>
		<g>
			<path fill="#FFFFFF" d="M789.905,406.911c0,0.653-0.537,1.18-1.197,1.18c-0.663,0-1.2-0.527-1.2-1.18
				c0-0.653,0.537-1.18,1.2-1.18C789.368,405.731,789.905,406.258,789.905,406.911"/>
		</g>
		<g>
			<path fill="#FFFFFF" d="M790.471,408.555c0,0.256-0.209,0.466-0.471,0.466s-0.473-0.209-0.473-0.466
				c0-0.256,0.212-0.463,0.473-0.463S790.471,408.299,790.471,408.555"/>
		</g>
		<g>
			<path fill="#FFFFFF" d="M783.757,418.576c0,0.697-0.574,1.259-1.278,1.259c-0.707,0-1.278-0.562-1.278-1.259
				c0-0.697,0.571-1.261,1.278-1.261C783.183,417.315,783.757,417.879,783.757,418.576"/>
		</g>
		<g>
			<path fill="#211E1F" d="M802.603,390.55c2.52,0.737,4.991,1.645,7.383,2.737c2.941,1.357,5.759,2.983,8.417,4.843
				c5.316,3.72,9.939,8.427,13.612,13.79c3.658,5.375,6.326,11.427,7.828,17.768c1.51,6.345,1.798,12.954,0.953,19.433
				c-0.85,6.483-2.912,12.831-6.074,18.603c-3.151,5.779-7.36,10.994-12.366,15.334c-5.005,4.343-10.834,7.764-17.085,10.085
				c-6.24,2.323-12.962,3.515-19.586,3.525c-6.722-0.005-13.373-1.192-19.64-3.51c-6.254-2.318-12.087-5.735-17.098-10.075
				c-5.01-4.338-9.225-9.555-12.383-15.334c-3.17-5.772-5.237-12.122-6.092-18.61c-0.852-6.483-0.567-13.097,0.938-19.45
				c1.498-6.348,4.165-12.41,7.823-17.795c3.673-5.37,8.299-10.085,13.62-13.817c2.658-1.862,5.478-3.493,8.422-4.855
				c2.949-1.35,6.015-2.434,9.144-3.242l0.012-0.003l-1.626,2.343l-9.794-114.866v-0.007l-0.256-1.897l2.106-0.094l49.579-2.21
				h0.005l4.54,0.074l-0.456,4.321L802.603,390.55z M797.945,393.646l8.417-116.711l4.084,4.392h-0.005l-49.579-2.21l1.852-1.99
				v0.005l10.612,114.797l0.167,1.81l-1.791,0.532l-0.012,0.002c-2.816,0.907-5.542,2.059-8.136,3.439
				c-2.596,1.37-5.069,2.961-7.37,4.752c-4.609,3.582-8.575,7.929-11.617,12.821c-6.183,9.74-8.533,21.601-6.762,32.826
				c0.882,5.604,2.784,11.028,5.562,15.97c2.786,4.939,6.476,9.375,10.826,13.038c4.348,3.665,9.328,6.597,14.689,8.545
				c5.34,1.961,11.085,2.949,16.753,2.931c5.767,0.02,11.44-0.966,16.805-2.924c5.363-1.946,10.346-4.877,14.696-8.543
				c4.355-3.663,8.05-8.099,10.839-13.041c2.784-4.944,4.688-10.373,5.574-15.982c1.776-11.235-0.569-23.108-6.757-32.865
				c-3.047-4.897-7.016-9.255-11.629-12.844c-2.306-1.793-4.779-3.39-7.383-4.762c-2.596-1.384-5.328-2.54-8.149-3.446
				L797.945,393.646z"/>
		</g>
	</g>
	<g>
		<g>
			<path fill="#231F20" d="M190.532,567.426c6.372,55.563,27.52,105.102,48.332,148.643c10.674,21.716,21.795,41.861,32.758,60.383
				c11.195,18.376,22.041,35.261,32.822,50.049c21.295,29.783,41.233,51.832,56.034,65.933c3.737,3.496,7.057,6.602,9.934,9.293
				c3.046,2.497,5.625,4.61,7.709,6.318c4.15,3.448,6.286,5.337,6.179,5.488c-0.107,0.151-2.452-1.444-6.836-4.63
				c-2.184-1.61-4.885-3.601-8.077-5.955c-3.039-2.539-6.444-5.592-10.325-8.982c-15.343-13.726-35.866-35.558-57.683-65.236
				c-11.044-14.738-22.136-31.596-33.56-49.979c-11.192-18.528-22.523-38.708-33.385-60.502
				c-10.712-21.86-21.134-45.244-30.103-70.231c-2.15-6.282-4.544-12.53-6.37-19.063c-1.944-6.485-4.082-12.979-5.296-19.75
				c-1.437-6.717-2.884-13.483-4.34-20.294c-1.135-6.861-2.057-13.802-3.103-20.765c-0.496-3.485-0.99-6.961-1.482-10.425
				c-0.295-3.486-0.589-6.96-0.883-10.423c-0.549-6.928-1.247-13.803-1.657-20.642c-0.184-6.851-0.366-13.651-0.546-20.397
				c-0.057-3.373-0.251-6.732-0.193-10.077c0.096-3.345,0.192-6.675,0.287-9.991c0.2-6.63,0.398-13.202,0.594-19.711
				c0.544-6.489,1.083-12.916,1.616-19.275c0.268-3.179,0.535-6.342,0.799-9.487c0.298-3.142,0.833-6.24,1.234-9.335
				c0.867-6.182,1.723-12.294,2.569-18.33c7.809-48.089,20.868-90.588,38.059-123.388c8.547-16.397,18.293-30.248,28.541-40.869
				c10.185-10.696,21.026-17.851,30.506-22.07c9.56-4.135,17.592-5.63,23.004-6.071c2.7-0.34,4.792-0.195,6.177-0.248
				c1.392,0.004,2.101,0.051,2.104,0.143c0.009,0.242-2.839,0.416-8.146,1.177c-5.297,0.777-13.085,2.579-22.264,6.893
				c-9.105,4.404-19.458,11.595-29.203,22.236c-9.804,10.566-19.146,24.287-27.351,40.549
				c-16.506,32.522-29.076,74.703-36.549,122.426c-0.807,5.986-1.624,12.046-2.45,18.176c-0.383,3.068-0.9,6.139-1.181,9.253
				c-0.249,3.118-0.499,6.253-0.751,9.405c-0.505,6.303-1.016,12.672-1.531,19.103c-0.174,6.449-0.35,12.961-0.527,19.53
				c-0.087,3.285-0.173,6.584-0.261,9.897c-0.05,3.313,0.151,6.64,0.214,9.98c0.19,6.68,0.381,13.414,0.573,20.198
				c0.415,6.77,1.115,13.572,1.662,20.429c0.291,3.427,0.583,6.866,0.877,10.315C189.551,560.544,190.041,563.98,190.532,567.426z"
				/>
		</g>
	</g>
	<g>
		<rect x="963.911" y="373.142" fill="#FFFFFF" width="7.52" height="48.306"/>
		<rect x="959.612" y="368.844" fill="#231F20" width="16.115" height="56.902"/>
	</g>
	<g>
		<g>
			<path fill="none" stroke="#231F20" stroke-miterlimit="10" d="M304.267,327.662"/>
		</g>
	</g>
	<g>
		<g>
			<path fill="none" stroke="#231F20" stroke-miterlimit="10" d="M262.726,511.015"/>
		</g>
	</g>
	<g>
		<path fill="#FFFFFF" d="M350.38,675.292c-0.994-4.014-1.751-8.062-2.468-12.117c2.018-3.318,2.434-7.695-0.049-12.454
			c-1.107-2.587-2.546-4.971-4.316-7.151c-1.789-2.503-4.067-4.096-6.486-4.98c-3.021-4.44-5.266-9.415-6.97-14.738
			c1.816-2.663,2.732-6.149,2.072-10.266c-3.578-22.309-10.042-40.603-6.752-63.688c3.309-23.213,5.781-46.701,9.661-69.816
			c0.438-2.611,0.155-4.952-0.559-7.028c-1.609-15.035-11.189-25.357-27.304-33.539c-4.094-2.079-7.867-3.653-12.264-4.815
			c-2.363-0.42-4.746-0.627-7.147-0.621c-5.86,0.351-4.758,0.157,3.307-0.582c4.708-5.122,10.661-9.213,16.753-13.145
			c0.118,0.266,0.266,0.523,0.398,0.784c0.887,5.084,4.18,8.087,8.057,9.089c2.468,1.523,5.13,1.159,7.007-0.27
			c4.067-1.401,7.509-4.957,8.108-10.616l0.521-4.973c0.55-3.929-0.521-7.411-2.476-10.056c-0.865-2.243-1.676-4.503-2.298-6.834
			c-1.85-6.924-11.55-12.137-17.911-7.287c-18.248,13.914-46.589,23.965-46.538,50.631c0.054,28.262,46.519,11.773,46.389,36.376
			c-0.524,2.594-0.801,5.094-0.925,8.035c-0.003,0.078,0.015,0.145,0.013,0.222c-2.99,19.937-5.362,39.988-8.107,59.956
			c-3.015,2.11-5.02,5.497-4.682,10.012c1.047,14.019,2.576,27.939,5.425,41.607c2.176,23.372,5.297,46.94,21.08,63.543
			c1.387,7.137,2.534,14.303,4.375,21.361C330.36,697.523,354.251,690.922,350.38,675.292z"/>
	</g>
	<g>
		<g>
			<path fill="#FFFFFF" d="M306.765,386.034c28.649,15.757,47.639-69.832,83.45-51.21c27.217,12.892,27.217,60.163,20.054,83.082
				c-11.46,38.676-58.73,84.515-100.272,51.568"/>
		</g>
		<g>
			<g>
				<path fill="#231F20" d="M416.926,385.023c0.243,11.72-0.957,23.206-4.233,33.918c-3.293,10.652-8.452,20.175-14.377,28.404
					c-11.82,16.483-27.136,28.126-42.042,32.687c-7.421,2.329-14.62,2.773-20.727,1.936c-6.133-0.788-11.128-2.742-14.943-4.667
					c-3.802-1.992-6.497-3.945-8.197-5.395c-1.7-1.46-2.525-2.288-2.41-2.432c0.299-0.416,3.952,2.595,11.491,5.938
					c7.42,3.198,19.757,5.984,33.616,1.015c13.756-4.688,28.095-16.014,39.182-31.937c5.558-7.943,10.361-17.053,13.388-27.092
					c2.996-10,4.131-21.041,3.895-32.214c-0.477-11.118-2.225-22.128-6.792-31.358c-4.147-9.396-12.182-16.239-20.81-18.69
					c-4.263-1.142-8.614-0.323-12.468,1.577c-3.877,1.887-7.289,4.701-10.352,7.667c-6.124,6.002-11.02,12.615-15.627,18.523
					c-4.583,5.946-8.813,11.358-13.041,15.733c-4.242,4.333-8.527,7.716-12.759,9.197c-4.25,1.494-7.924,0.893-10.008,0.012
					c-2.094-0.934-3.024-1.686-2.948-1.811c0.1-0.196,1.213,0.228,3.265,0.779c2.064,0.499,5.28,0.672,8.923-0.919
					c7.429-3.255,14.878-13.105,23.53-25.258c4.431-6.064,9.172-12.885,15.533-19.41c3.198-3.223,6.842-6.412,11.397-8.74
					c4.478-2.347,10.228-3.545,15.664-2.164c10.558,2.763,19.692,10.82,24.415,21.192
					C414.592,361.72,416.416,373.343,416.926,385.023z"/>
			</g>
		</g>
	</g>
	<g>
		<path fill="#FFFFFF" d="M846.836,609.783c-2.371-10.553-5.284-20.938-8.388-31.296c-1.619-5.404-2.852-14.84-7.203-19.103
			c-6.674-6.54-19.725-9.244-27.016-2.471c-0.143,0.132-0.201,0.305-0.293,0.462c-5.161-2.158-12.078-3.922-16.578-3.534
			c-0.292,0.007-0.489,0.02-0.745,0.03c-2.5-1.051-5.043-1.981-7.679-2.648c-22.757-6.609-38.473,9.287-41.666,27.353
			c-5.502,6.06-8.906,13.967-8.618,22.553c0.312,9.284,1.957,17.662,5.217,26.283c2.457,6.495,0.976,13.286,3.304,1.486
			c0.001,0.002,0.002,0.003,0.003,0.005c-1.339,6.825-2.012,12.714-0.13,19.558c0.177,0.644,0.411,1.263,0.616,1.895
			c-1.297,0.471-2.342,1.278-3.265,2.316c-0.353-0.26-0.728-0.479-1.077-0.746c-0.997-0.762-2.098-0.291-2.712,0.566
			c-0.342-0.078-0.68-0.169-1.022-0.245c-0.832-0.185-1.482,0.082-1.943,0.53c-0.798-0.366-1.573-0.772-2.381-1.12
			c-0.995-0.428-1.919-0.172-2.517,0.394c-1.707,0.397-2.675,2.841-0.715,3.835c1.085,0.55,2.146,1.139,3.225,1.699
			c0.198,0.181,0.374,0.397,0.576,0.573c-2.166,0.644-4.325,1.417-6.486,2.362c-1.572,0.688-1.18,2.699-0.006,3.546
			c-3.443-0.218-6.871-0.208-10.227,0.267c-2.72,0.386-1.559,4.505,1.137,4.123c9.472-1.343,20.159,1.026,30.052,4.705
			c3.099,3.022,7.027,6.174,11.374,4.904c1.532,0.748,3.039,1.503,4.466,2.261c1.829,0.971,3.364-0.68,3.115-2.23
			c7.314,5.296,15.533,9.38,23.518,12.152c17.624,6.116,37.379-6.806,42.079-23.892c0.942-3.425,1.319-6.788,1.226-10.042
			c7.115-5.261,12.564-12.911,15.058-21.363c2.196-7.442,3.296-15.124,3.027-22.577
			C845.521,612.662,847.242,611.589,846.836,609.783z"/>
	</g>
	<g>
		<path fill="#FFFFFF" d="M933.238,745.335c-0.684-3.388-1.896-6.829-3.769-10.263c-0.716-1.313-1.432-2.626-2.149-3.939
			c-4.177-7.659-9.792-12.452-15.952-14.969c-10.741-10.521-19.899-21.18-27.642-35.64c-5.686-10.618-7.565-22.86-13.127-33.54
			c-4.963-9.53-11.117-18.961-15.294-28.78c-17.354-40.798-80.735-5.676-60.556,35.396c2.282,4.645,4.846,9.073,7.52,13.416
			c-1.721,0.84-3.414,1.752-5.051,2.8c-2.803-0.685-5.494-0.78-7.98-0.305c-13.952,1.015-24.65,17.618-12.319,31.374
			c1.128,1.259,2.257,2.518,3.385,3.777c2.588,2.887,5.675,4.525,8.894,5.233c4.313,3.905,8.393,8.142,13.519,10.781
			c5.422,2.792,10.77,4.3,16.146,5.685c0.046,0.154,0.093,0.308,0.139,0.463c2.83,9.467,8.641,16.049,15.709,19.969
			c13.173,17.666,28.175,36.01,47.335,45.791C947.618,826.057,1002.109,890.695,933.238,745.335z"/>
	</g>
	<g>
		<g>
			<path fill="#231F20" d="M377.799,702.016c33.798,55.462,73.175,99.737,102.549,130.485c14.702,15.43,27.203,27.333,35.693,35.718
				c8.641,8.226,13.314,12.906,13.068,13.184c-0.122,0.139-1.468-0.831-3.921-2.806c-2.451-1.976-6.014-4.954-10.558-8.841
				c-8.943-7.93-21.878-19.447-36.989-34.601c-30.183-30.193-70.287-74.347-104.426-130.359
				c-8.46-14.015-16.11-28.074-22.826-41.993c-6.619-13.968-12.246-27.804-16.868-41.247c-9.208-26.919-13.746-52.407-14.69-73.919
				c-0.831-21.555,1.806-38.951,4.665-50.592c0.758-2.908,1.337-5.511,2.033-7.714c0.752-2.184,1.388-4.033,1.902-5.529
				c1.061-2.974,1.7-4.5,1.876-4.441c0.175,0.059-0.121,1.698-0.842,4.754c-0.377,1.521-0.844,3.402-1.394,5.624
				c-0.528,2.225-0.942,4.84-1.534,7.746c-2.203,11.641-4.214,28.802-2.92,49.951c1.411,21.115,6.246,46.067,15.574,72.511
				c4.684,13.207,10.33,26.817,16.933,40.585C361.824,674.251,369.422,688.138,377.799,702.016z"/>
		</g>
	</g>
	<g>
		<g>
			<g>
				<path fill="#FFFFFF" d="M751.659,552.807c5.721-5.201,13.003-9.882,21.325-11.963c17.164-4.161,26.006,8.842,34.328,22.365"/>
			</g>
			<g>
				<g>
					<path fill="#231F20" d="M783.249,537.744c5.396,0.84,9.875,3.773,13.019,6.843c3.206,3.086,5.391,6.307,7.056,9.04
						c3.282,5.509,4.572,9.212,3.988,9.584c-0.662,0.424-3.151-2.653-7.074-7.384c-1.973-2.341-4.334-5.098-7.274-7.57
						c-2.922-2.484-6.48-4.591-10.602-5.227c-4.109-0.72-8.261-0.046-11.958,1.28c-0.929,0.288-1.858,0.509-2.732,0.817
						c-0.854,0.376-1.682,0.742-2.483,1.095c-1.618,0.685-3.154,1.297-4.44,2.101c-1.346,0.714-2.564,1.361-3.637,1.93
						c-1.019,0.658-1.923,1.205-2.689,1.629c-1.532,0.846-2.514,1.199-2.763,0.926c-0.249-0.273,0.262-1.152,1.431-2.531
						c0.584-0.69,1.333-1.504,2.232-2.427c0.976-0.824,2.12-1.737,3.406-2.733c1.242-1.064,2.798-1.942,4.486-2.877
						c0.845-0.469,1.719-0.953,2.619-1.453c0.938-0.425,1.956-0.761,2.98-1.153C772.77,537.931,777.904,536.812,783.249,537.744z"/>
				</g>
			</g>
		</g>
		<g>
			<g>
				<path fill="#231F20" d="M930.379,736.132c42.724,49.69,81.739,94.975,112.322,125.036c15.316,15.053,28.606,26.25,38.375,33.157
					c4.989,3.27,8.832,5.91,11.679,7.253c2.762,1.518,4.195,2.42,4.118,2.618c-0.076,0.198-1.661-0.316-4.644-1.495
					c-3.082-1.012-7.177-3.347-12.47-6.375c-10.345-6.403-24.245-17.246-40.066-32.013c-15.826-14.764-33.654-33.355-52.802-54.519
					c-9.486-10.64-19.443-21.809-29.766-33.387c-5.188-5.712-10.414-11.65-15.684-17.736c-5.227-6.109-10.792-12.08-15.826-18.643
					c-21.344-25.261-38.474-51.937-52.327-77.044c-13.716-25.294-22.17-49.935-28.046-70.744
					c-2.824-10.597-3.922-20.354-8.43-27.112c-4.254-6.914-11.595-9.325-17.23-10.223c-5.764-0.932-10.393-0.099-12.945,1.445
					c-2.58,1.552-3.209,3.263-3.483,3.092c-0.102,0.022,0.101-1.973,2.79-4.121c2.676-2.117,7.738-3.417,13.931-2.794
					c3.112,0.249,6.537,1.077,10.099,2.576c3.574,1.544,7.086,4.331,9.685,8.093c5.396,7.579,6.756,17.818,9.763,27.833
					c6.361,20.472,15.099,44.545,28.853,69.256C892.208,684.881,909.219,711.093,930.379,736.132z"/>
			</g>
		</g>
		<g>
			<g>
				<path fill="#FFFFFF" d="M769.343,626.145"/>
			</g>
			<g>
				<g>
					<path fill="none" stroke="#231F20" stroke-miterlimit="10" d="M769.343,626.145"/>
				</g>
			</g>
		</g>
		<g>
			<g>
				<path fill="#FFFFFF" d="M761.541,641.748c-7.802-10.923-32.248-19.245-44.731-15.604c-18.724,5.201-26.786,30.947-10.142,43.95"
					/>
			</g>
			<g>
				<g>
					<path fill="#231F20" d="M714.995,629.635c-6.004,2.488-10.475,7.385-12.839,12.572c-2.469,5.189-2.737,10.59-1.934,14.835
						c0.824,4.305,2.797,7.417,4.199,9.544c1.582,1.982,2.486,3.204,2.247,3.509c-0.211,0.278-1.571-0.386-3.784-2.098
						c-2.02-1.858-4.838-5.06-6.337-10.027c-1.476-4.885-1.594-11.41,1.079-17.731c2.541-6.304,7.851-12.461,15.316-15.555
						c3.641-1.588,7.792-2.17,11.381-2.007c3.652,0.12,7.073,0.672,10.248,1.443c6.338,1.586,11.716,3.972,15.946,6.461
						c8.633,4.962,11.667,10.902,11.023,11.167c-0.664,0.469-4.334-4.037-12.796-7.817c-4.164-1.909-9.352-3.785-15.252-4.992
						C727.632,627.892,720.866,627.028,714.995,629.635z"/>
				</g>
			</g>
		</g>
		<g>
			<g>
				<path fill="#FFFFFF" d="M706.668,670.095c17.684-4.161,35.108,5.461,49.152,15.864c9.882,6.762,17.164,16.124,28.607,19.765
					c15.084,5.201,33.808-5.721,41.09-18.724"/>
			</g>
			<g>
				<g>
					<path fill="#231F20" d="M769.298,693.321c3.576,2.996,7.056,5.756,10.743,7.651c3.701,1.93,7.436,3.331,11.113,3.534
						c7.468,0.531,14.334-2.111,19.424-5.012c10.448-5.953,14.177-13.036,14.938-12.495c0.268,0.137-0.241,2.089-2.192,5.093
						c-1.945,2.981-5.377,6.998-10.741,10.618c-5.289,3.56-12.698,7.027-21.72,6.726c-9.185-0.365-17.85-5.793-24.998-11.998
						c-3.689-3.048-7.014-6.094-10.553-8.594c-3.513-2.6-6.981-5.125-10.344-7.245c-6.743-4.305-13.239-7.325-18.936-9.151
						c-11.533-3.391-19.201-1.319-19.365-2.353c-0.087-0.358,1.733-0.978,5.229-1.795c3.496-0.68,8.763-0.742,15.086,0.479
						c6.247,1.464,13.369,4.34,20.569,8.612c3.633,2.13,7.171,4.578,10.859,7.215C762.192,687.193,765.711,690.36,769.298,693.321z"
						/>
				</g>
			</g>
		</g>
		<g>
			<g>
				<path fill="#FFFFFF" d="M737.419,629.608"/>
			</g>
			<g>
				<g>
					<path fill="none" stroke="#231F20" stroke-miterlimit="10" d="M737.419,629.608"/>
				</g>
			</g>
		</g>
		<g>
			<g>
				<path fill="#FFFFFF" d="M812.513,701.042c24.446,49.412,88.323,150.974,111.729,202.987"/>
			</g>
			<g>
				<g>
					<path fill="#231F20" d="M871.426,800.81c15.918,27.773,30.065,53.096,39.321,71.982c4.856,9.308,8.137,17.202,10.455,22.601
						c2.28,5.423,3.377,8.484,3.039,8.636c-0.337,0.152-2.077-2.619-4.925-7.743c-2.889-5.107-6.65-12.669-11.924-21.73
						c-10.067-18.345-24.706-43.321-40.61-71.069c-15.955-27.734-30.308-52.913-39.964-71.58
						c-4.978-9.238-8.566-16.975-11.015-22.317c-2.436-5.352-3.622-8.383-3.29-8.547s2.149,2.553,5.147,7.594
						c2.949,5.067,7.211,12.39,12.477,21.439C840.706,748.182,855.303,773.188,871.426,800.81z"/>
				</g>
			</g>
		</g>
		<g>
			<g>
				<path fill="#FFFFFF" d="M727.733,594.937c0,10.923-0.52,22.885,6.241,32.248"/>
			</g>
			<g>
				<g>
					<path fill="#231F20" d="M730.975,611.289c0.589,4.345,1.469,8.076,2.244,10.849c0.871,2.692,1.384,4.587,0.756,5.047
						c-0.553,0.422-2.233-0.753-4.17-3.402c-1.829-2.693-3.507-6.983-4.145-11.808c-0.985-9.659,0.72-17.019,2.074-17.038
						C729.325,594.904,730.07,602.563,730.975,611.289z"/>
				</g>
			</g>
		</g>
		<g>
			<g>
				<path fill="#FFFFFF" d="M758.941,638.108c4.161,1.56,8.842,2.601,13.523,1.56"/>
			</g>
			<g>
				<g>
					<path fill="#231F20" d="M765.965,637.214c3.262,0.428,6.055,0.927,6.498,2.454c0.438,1.315-2.879,3.419-7.234,2.855
						c-4.231-0.695-6.827-3.102-6.289-4.416C759.505,636.688,762.657,636.677,765.965,637.214z"/>
				</g>
			</g>
		</g>
		<g>
			<g>
				<path fill="#FFFFFF" d="M761.021,619.383c4.681,2.081,16.644,14.563,9.882,18.724"/>
			</g>
			<g>
				<g>
					<path fill="#231F20" d="M772.046,625.889c2.12,2.872,3.64,6.525,2.662,9.698c-0.496,1.53-1.592,2.471-2.355,2.672
						c-0.798,0.252-1.259,0.162-1.449-0.151c-0.406-0.668,0.409-1.922,0.066-3.141c-0.227-1.237-1.422-3.494-3.246-5.909
						c-3.64-4.989-7.236-8.429-6.701-9.674C761.621,617.856,767.755,619.964,772.046,625.889z"/>
				</g>
			</g>
		</g>
		<g>
			<g>
				<path fill="#FFFFFF" d="M761.541,558.645c0,0-41.306-25.219-54.873-62.011c-15.344-41.61-55.285,4.558-44.471,31.727
					c10.814,27.17,73.198,73.322,98.823,91.021"/>
			</g>
			<g>
				<g>
					<path fill="#231F20" d="M663.908,510.901c-1.114,4.841-1.143,9.797,0.034,14.274c0.576,2.193,1.821,4.335,2.826,6.479
						c1.143,2.112,2.596,4.108,3.854,6.148c5.673,7.914,12.365,14.823,18.814,21.24c13.014,12.796,25.769,23.345,36.508,32.121
						c10.776,8.748,19.686,15.612,25.809,20.409c6.128,4.79,9.489,7.493,9.269,7.812c-0.2,0.291-3.966-1.835-10.485-6.116
						c-6.513-4.289-15.797-10.709-26.931-19.121c-11.103-8.448-24.184-18.746-37.611-31.561c-6.667-6.45-13.568-13.39-19.642-21.726
						c-2.89-4.3-5.826-8.725-7.546-14.25c-1.483-5.529-1.388-11.363-0.133-16.858c2.542-10.984,8.469-20.738,17.063-27.353
						c4.292-3.16,9.788-5.663,15.587-4.798c5.808,0.781,10.293,4.804,12.96,8.895c2.836,4.056,4.362,8.847,5.97,12.574
						c0.779,1.968,1.577,3.896,2.581,5.703c0.977,1.814,1.771,3.69,2.878,5.365c3.966,6.958,8.628,12.89,13.073,18.108
						c8.959,10.433,17.559,17.689,23.475,22.659c5.997,4.9,9.479,7.423,9.281,7.743c-0.187,0.312-4.083-1.635-10.539-6.078
						c-6.376-4.518-15.48-11.421-25.045-21.801c-4.748-5.197-9.737-11.176-14.058-18.349c-1.191-1.72-2.08-3.672-3.144-5.557
						c-1.09-1.876-1.979-3.896-2.846-5.966c-1.885-4.234-3.184-8.082-5.683-11.584c-2.35-3.471-5.705-6.17-9.588-6.638
						c-3.881-0.59-8.144,1.215-11.766,3.937C671.604,492.224,666.086,501.237,663.908,510.901z"/>
				</g>
			</g>
		</g>
	</g>
	<g>
		<path fill="#231F20" d="M1263.006,17v766.409H16.995V17H1263.006 M1280.006,0H-0.005v800.409h1280.011V0L1280.006,0z"/>
	</g>
</g>
<g id="Layer_3">
</g>
<g id="Layer_2">
	<g>
		<g>
			<path d="M434.979,60.894l7.847-0.059c2.911,0,4.366,0.04,4.366,0.118c0-5.152,0.078-8.909,0.236-11.269
				c0.156-2.36,0.235-3.579,0.235-3.658c0-0.078,0.285-0.274,0.855-0.59c0.569-0.314,1.366-0.62,2.39-0.915
				c1.022-0.295,1.897-0.442,2.625-0.442c0.729,0,1.092,0.079,1.092,0.236c-0.434,5.782-0.648,11.948-0.648,18.497
				s0.196,11.417,0.59,14.603c0.393,3.186,1.258,5.448,2.596,6.785c0,0.079-0.188,0.275-0.561,0.59
				c-0.374,0.314-1.26,0.688-2.654,1.121c-1.396,0.432-2.705,0.649-3.924,0.649l-0.708-0.118c-0.747-0.748-1.269-2.292-1.563-4.631
				s-0.463-7.266-0.502-14.78c-0.669-0.039-2.803-0.059-6.401-0.059s-5.575,0.059-5.929,0.177c-0.04,1.102-0.06,3.531-0.06,7.287
				c0,3.756,0.157,6.894,0.472,9.411c0,0.432-0.629,0.796-1.888,1.091s-2.429,0.442-3.511,0.442s-1.73-0.109-1.947-0.324
				c-0.217-0.217-0.324-3.825-0.324-10.827v-6.962c-0.512-0.472-1.102-1.376-1.77-2.714c-0.67-1.336-1.004-2.438-1.004-3.304
				c0-0.118,0.964-0.177,2.892-0.177c0.038-2.792,0.06-5.998,0.06-9.617v-1.239c-1.023-1.888-1.535-3.755-1.535-5.605
				c0-0.157,0.02-0.255,0.06-0.295c0.235-0.039,0.452-0.059,0.649-0.059c0.195,0,0.639,0,1.327,0c0.688,0,1.661,0.128,2.921,0.384
				c1.258,0.256,2.261,0.541,3.009,0.855c0.747,0.315,1.12,0.57,1.12,0.767c-0.275,1.927-0.412,6.412-0.412,13.452V60.894z"/>
			<path d="M481.293,84.022c-1.338,0.904-3.953,1.357-7.848,1.357c-3.894,0-6.883-1.161-8.968-3.481s-3.127-5.418-3.127-9.292
				c0-3.874,1.248-7.237,3.747-10.089c2.496-2.852,6.008-4.278,10.531-4.278c1.848,0,3.549,0.493,5.104,1.475
				c1.553,0.984,2.33,2.705,2.33,5.163c0,2.458-1.072,4.888-3.215,7.287c-2.145,2.399-5.065,4.229-8.762,5.487
				c0,0.472,0.48,0.855,1.445,1.15c0.963,0.295,1.918,0.443,2.861,0.443c2.988,0,5.349-0.531,7.08-1.593
				c0.039-0.039,0.098-0.059,0.177-0.059s0.118,0.375,0.118,1.121C482.768,80.994,482.276,82.764,481.293,84.022z M476.16,65.26
				c0-1.14-0.611-1.711-1.83-1.711c-1.613,0-3.029,0.826-4.248,2.478c-1.219,1.652-1.828,3.639-1.828,5.959
				c0,0.551,0.078,0.826,0.236,0.826c1.416-0.039,3.047-0.855,4.896-2.449C475.235,68.771,476.16,67.07,476.16,65.26z"/>
			<path d="M487.606,76.057l-0.118-13.393c0-2.32,0.078-3.56,0.235-3.717c0.433-0.432,1.181-0.815,2.242-1.15
				c1.063-0.333,2.055-0.501,2.98-0.501c0.923,0,1.386,0.099,1.386,0.295c-0.118,1.062-0.177,2.271-0.177,3.628
				c0,1.357,0.039,2.036,0.117,2.036c0.079,0,0.157-0.049,0.236-0.147c0.078-0.098,0.207-0.255,0.384-0.472
				c0.177-0.215,0.55-0.599,1.121-1.15c0.569-0.55,1.188-1.022,1.858-1.416c1.691-1.101,3.5-1.652,5.428-1.652
				c0.314,0.512,0.473,1.298,0.473,2.36c0,2.242-0.275,3.835-0.826,4.779l-0.236,0.472l-0.768-0.118
				c-2.831,0-5.054,1.161-6.666,3.481c-0.63,0.944-0.944,1.652-0.944,2.124v5.192c0,4.72-0.06,7.139-0.177,7.257
				c-1.102,1.062-3.266,1.593-6.49,1.593c-0.315,0-0.473-0.059-0.473-0.177C487.467,83.845,487.606,80.738,487.606,76.057z"/>
			<path d="M525.483,84.022c-1.338,0.904-3.953,1.357-7.847,1.357s-6.884-1.161-8.968-3.481c-2.086-2.32-3.127-5.418-3.127-9.292
				c0-3.874,1.248-7.237,3.746-10.089c2.497-2.852,6.008-4.278,10.531-4.278c1.849,0,3.549,0.493,5.104,1.475
				c1.554,0.984,2.33,2.705,2.33,5.163c0,2.458-1.072,4.888-3.215,7.287c-2.145,2.399-5.064,4.229-8.762,5.487
				c0,0.472,0.481,0.855,1.445,1.15c0.964,0.295,1.918,0.443,2.861,0.443c2.989,0,5.35-0.531,7.08-1.593
				c0.039-0.039,0.098-0.059,0.178-0.059c0.078,0,0.117,0.375,0.117,1.121C526.957,80.994,526.465,82.764,525.483,84.022z
				 M520.35,65.26c0-1.14-0.61-1.711-1.829-1.711c-1.613,0-3.029,0.826-4.248,2.478c-1.22,1.652-1.829,3.639-1.829,5.959
				c0,0.551,0.078,0.826,0.236,0.826c1.416-0.039,3.047-0.855,4.896-2.449C519.425,68.771,520.35,67.07,520.35,65.26z"/>
			<path d="M543.713,44.079c1.063,0,1.878,0.433,2.449,1.298c0.569,0.866,0.855,2.006,0.855,3.422s-0.316,2.793-0.944,4.13
				c-0.63,1.337-1.259,2.301-1.888,2.891c-0.631,0.59-1.172,0.885-1.623,0.885c-0.453,0-0.905-0.138-1.357-0.413
				c-0.452-0.275-0.758-0.57-0.914-0.885c1.77-1.258,2.753-2.693,2.95-4.307c-2.163,0-3.245-1.2-3.245-3.599
				c0.078-1.022,0.451-1.848,1.121-2.478C541.785,44.394,542.651,44.079,543.713,44.079z"/>
			<path d="M568.316,77.237c0,2.124-0.993,4.022-2.979,5.694s-4.13,2.871-6.431,3.599c-2.302,0.728-4.317,1.092-6.048,1.092
				c-0.197,0-0.472-0.236-0.826-0.708c-0.983-1.298-1.475-2.813-1.475-4.543v-0.413c3.068,0,5.408-0.531,7.021-1.593
				c1.611-1.062,2.418-2.163,2.418-3.304c0-0.747-0.492-1.534-1.475-2.36c-0.983-0.826-2.064-1.554-3.244-2.183
				c-1.181-0.629-2.264-1.465-3.246-2.508c-0.983-1.042-1.475-2.133-1.475-3.274c0-2.398,1.494-4.602,4.484-6.608
				c2.988-2.006,6.174-3.009,9.558-3.009c0.393,0,0.904,0.541,1.534,1.622c0.629,1.083,0.963,2.193,1.003,3.333
				c-0.788,0-1.968,0.236-3.54,0.708c-3.107,0.984-4.661,2.204-4.661,3.658c0,1.023,1.534,2.419,4.603,4.189
				c1.18,0.669,2.261,1.593,3.244,2.773C567.764,74.582,568.276,75.861,568.316,77.237z"/>
			<path d="M594.039,60.894l7.847-0.059c2.911,0,4.366,0.04,4.366,0.118c0-5.152,0.078-8.909,0.236-11.269
				c0.156-2.36,0.235-3.579,0.235-3.658c0-0.078,0.285-0.274,0.855-0.59c0.569-0.314,1.366-0.62,2.39-0.915
				c1.022-0.295,1.897-0.442,2.625-0.442c0.729,0,1.092,0.079,1.092,0.236c-0.434,5.782-0.648,11.948-0.648,18.497
				s0.196,11.417,0.59,14.603c0.393,3.186,1.258,5.448,2.596,6.785c0,0.079-0.188,0.275-0.561,0.59
				c-0.374,0.314-1.26,0.688-2.654,1.121c-1.396,0.432-2.705,0.649-3.924,0.649l-0.708-0.118c-0.747-0.748-1.269-2.292-1.563-4.631
				s-0.463-7.266-0.502-14.78c-0.669-0.039-2.803-0.059-6.401-0.059s-5.575,0.059-5.929,0.177c-0.04,1.102-0.06,3.531-0.06,7.287
				c0,3.756,0.157,6.894,0.472,9.411c0,0.432-0.629,0.796-1.888,1.091s-2.429,0.442-3.511,0.442s-1.73-0.109-1.947-0.324
				c-0.217-0.217-0.324-3.825-0.324-10.827v-6.962c-0.512-0.472-1.102-1.376-1.77-2.714c-0.67-1.336-1.004-2.438-1.004-3.304
				c0-0.118,0.964-0.177,2.892-0.177c0.038-2.792,0.06-5.998,0.06-9.617v-1.239c-1.023-1.888-1.535-3.755-1.535-5.605
				c0-0.157,0.02-0.255,0.06-0.295c0.235-0.039,0.452-0.059,0.649-0.059c0.195,0,0.639,0,1.327,0c0.688,0,1.661,0.128,2.921,0.384
				c1.258,0.256,2.261,0.541,3.009,0.855c0.747,0.315,1.12,0.57,1.12,0.767c-0.275,1.927-0.412,6.412-0.412,13.452V60.894z"/>
			<path d="M642.035,81.456c-2.263,2.733-5.331,4.101-9.205,4.101s-6.912-1.201-9.115-3.599c-2.203-2.399-3.304-5.517-3.304-9.352
				s1.366-7.237,4.101-10.207c2.733-2.969,6.421-4.455,11.063-4.455c1.888,0.08,2.91,0.197,3.068,0.354
				c0.156,0.158,0.235,0.531,0.235,1.121s-0.059,1.239-0.177,1.947c0.59,0,1.347,0.345,2.271,1.032
				c0.924,0.688,1.682,1.387,2.271,2.095c0.59,0.708,1.101,1.702,1.534,2.979c0.433,1.278,0.649,2.705,0.649,4.277
				C645.428,75.487,644.296,78.722,642.035,81.456z M636.813,67.62c-0.904-0.59-1.789-0.885-2.654-0.885h-0.473
				c-0.078-0.157-0.117-0.491-0.117-1.003c0-0.511,0.059-1.003,0.177-1.475c-1.613,0-3.118,0.729-4.514,2.183
				c-1.396,1.456-2.095,3.481-2.095,6.077c0,3.068,0.982,5.192,2.95,6.372c0.747,0.472,1.779,0.708,3.098,0.708
				c1.317,0,2.557-0.609,3.718-1.829c1.159-1.219,1.74-3.028,1.74-5.428C638.643,69.941,638.032,68.368,636.813,67.62z"/>
			<path d="M666.254,61.13c2.635,0,3.992,0.256,4.07,0.767c1.299,7.355,2.34,11.84,3.127,13.452h0.236
				c0.865-1.849,1.829-5.074,2.891-9.676c1.063-4.602,1.672-7.866,1.83-9.794c2.359,0,4.286,0.413,5.781,1.239
				c0.473,0.236,0.709,0.394,0.709,0.472c0,1.731-0.601,4.779-1.801,9.145c-1.199,4.366-2.398,8.329-3.598,11.889
				c-1.201,3.56-1.879,5.418-2.036,5.575c-0.157,0.157-0.847,0.325-2.065,0.502c-1.219,0.177-2.34,0.265-3.363,0.265
				c-1.022,0-1.691-0.079-2.006-0.236c-0.354-0.354-1.002-2.261-1.946-5.723c-0.944-3.46-1.593-6.391-1.947-8.791h-0.177
				c-0.59,2.4-1.387,5.232-2.39,8.496c-1.003,3.265-1.622,5.025-1.858,5.281s-1.023,0.511-2.36,0.767
				c-1.337,0.255-2.399,0.384-3.187,0.384s-1.238-0.059-1.356-0.177c-0.315-0.275-1.495-4.168-3.54-11.682
				c-2.045-7.513-3.068-12.213-3.068-14.101c0-0.079,0.207-0.245,0.62-0.501c0.413-0.255,1.14-0.511,2.183-0.767
				c1.042-0.255,2.213-0.384,3.511-0.384c1.454,8.576,2.792,14.219,4.013,16.933c0.078,0.197,0.176,0.197,0.295,0
				c0.668-1.298,1.356-3.304,2.064-6.018c0.708-2.714,1.141-4.897,1.298-6.549c0.039-0.196,0.511-0.374,1.416-0.531
				C664.503,61.21,665.389,61.13,666.254,61.13z"/>
			<path d="M708.143,45.377c-0.078,0.905-0.176,3.383-0.295,7.434c2.951,0,4.426,0.059,4.426,0.177c0,1.338-0.197,2.528-0.59,3.57
				c-0.395,1.042-0.768,1.563-1.121,1.563h-2.773c-0.079,5.821-0.117,10.552-0.117,14.189c0,3.639,0.059,6.068,0.176,7.287
				c0.236,2.045,1.043,3.717,2.42,5.015c0,0.433-0.758,1.062-2.271,1.888c-1.516,0.826-2.941,1.239-4.277,1.239
				c-0.119,0-0.346-0.197-0.68-0.59c-0.334-0.394-0.688-1.042-1.062-1.947c-0.374-0.905-0.61-1.79-0.708-2.655
				c-0.099-0.865-0.147-3.953-0.147-9.263c0-5.31,0.06-10.325,0.177-15.045l-3.304,0.059c-0.197-0.196-0.295-1.052-0.295-2.566
				c0-1.514,0.177-2.428,0.53-2.744c0.865-0.039,1.908-0.078,3.128-0.118c0-2.281-0.06-3.756-0.177-4.425
				c-0.119-0.668-0.178-1.062-0.178-1.18c0-0.393,0.679-0.846,2.035-1.357c1.357-0.511,2.547-0.767,3.57-0.767
				C707.631,45.141,708.143,45.22,708.143,45.377z"/>
			<path d="M734.782,81.456c-2.262,2.733-5.33,4.101-9.204,4.101s-6.913-1.201-9.115-3.599c-2.204-2.399-3.304-5.517-3.304-9.352
				s1.365-7.237,4.1-10.207c2.734-2.969,6.422-4.455,11.063-4.455c1.889,0.08,2.91,0.197,3.068,0.354
				c0.156,0.158,0.236,0.531,0.236,1.121s-0.059,1.239-0.178,1.947c0.59,0,1.348,0.345,2.271,1.032
				c0.924,0.688,1.682,1.387,2.271,2.095c0.59,0.708,1.102,1.702,1.535,2.979c0.432,1.278,0.648,2.705,0.648,4.277
				C738.174,75.487,737.043,78.722,734.782,81.456z M729.56,67.62c-0.905-0.59-1.79-0.885-2.655-0.885h-0.472
				c-0.079-0.157-0.118-0.491-0.118-1.003c0-0.511,0.059-1.003,0.178-1.475c-1.613,0-3.118,0.729-4.514,2.183
				c-1.396,1.456-2.095,3.481-2.095,6.077c0,3.068,0.982,5.192,2.95,6.372c0.746,0.472,1.779,0.708,3.098,0.708
				c1.316,0,2.557-0.609,3.717-1.829c1.16-1.219,1.74-3.028,1.74-5.428C731.389,69.941,730.779,68.368,729.56,67.62z"/>
			<path d="M761.361,55.407l-0.06,2.773c10.463,0,15.694,4.051,15.694,12.154c0,2.203-0.442,4.199-1.327,5.988
				c-0.885,1.791-1.977,3.207-3.275,4.248c-1.297,1.043-2.713,1.917-4.248,2.625c-2.635,1.219-4.995,1.829-7.08,1.829v0.885
				c0,5.9,0.157,9.833,0.473,11.8c-0.512,0.511-1.396,0.915-2.654,1.209c-1.26,0.295-2.282,0.442-3.068,0.442
				c-0.787,0-1.18-0.059-1.18-0.177c-0.158-1.259-0.236-3.855-0.236-7.788l0.295-27.435c0-3.225-0.059-5.467-0.178-6.726
				c0.473-0.472,1.27-0.924,2.391-1.357c1.121-0.432,2.094-0.649,2.92-0.649S761.163,55.289,761.361,55.407z M761.065,75.526
				l0.06,2.95c2.399,0,4.503-0.688,6.313-2.065c1.809-1.376,2.714-3.363,2.714-5.959c0-4.248-2.971-6.372-8.909-6.372l-0.059,0.767
				c0,0.511,0,1.18,0,2.006L761.065,75.526z"/>
			<path d="M781.715,75.644l0.236-21.358c0-3.107-0.04-5.211-0.119-6.313c-0.078-1.101-0.117-1.691-0.117-1.77
				c0-0.393,0.658-0.846,1.977-1.357c1.316-0.511,2.486-0.767,3.51-0.767s1.535,0.079,1.535,0.236
				c-0.197,1.456-0.296,6.569-0.296,15.34l-0.118,14.455c0,2.714,0.039,4.386,0.118,5.015c0.196,1.731,0.767,3.304,1.712,4.72
				c0,0.393-0.807,1.022-2.42,1.888c-1.613,0.865-2.989,1.298-4.13,1.298c-0.315,0-0.669-0.59-1.062-1.77
				c-0.395-1.18-0.63-2.202-0.709-3.068C781.754,81.328,781.715,79.145,781.715,75.644z"/>
			<path d="M814.756,70.865c0,4.917,0.059,7.788,0.176,8.614c0.314,2.164,0.983,3.717,2.006,4.661c0,0.432-0.776,1.081-2.33,1.947
				c-1.555,0.865-2.96,1.298-4.219,1.298c-0.354,0-0.728-0.521-1.121-1.563c-0.393-1.042-0.619-1.819-0.678-2.33
				c-0.059-0.511-0.109-0.767-0.147-0.767l-0.177,0.118c-2.086,1.652-4.523,2.478-7.316,2.478s-4.947-0.678-6.461-2.035
				c-1.514-1.357-2.271-3.136-2.271-5.34c0-2.202,0.481-4.061,1.445-5.575c0.964-1.514,2.096-2.665,3.393-3.452
				c1.299-0.786,2.734-1.416,4.308-1.888c2.398-0.786,4.286-1.18,5.664-1.18l0.118-0.059c0-1.927-2.439-2.891-7.316-2.891
				c-1.928,0-3.363,0.08-4.307,0.236h-0.059c0-0.786,0.244-1.77,0.736-2.95s0.904-1.947,1.239-2.301
				c0.334-0.354,1.741-0.531,4.219-0.531c4.483,0,7.788,0.855,9.912,2.566s3.187,4.357,3.187,7.936V70.865z M808.206,74.641v-2.242
				c0-0.865-0.021-1.298-0.06-1.298c-2.635,0-4.916,0.688-6.844,2.065c-1.219,0.866-1.828,1.947-1.828,3.245
				c0,0.826,0.295,1.515,0.885,2.065c0.59,0.551,1.484,0.826,2.684,0.826c1.2,0,2.361-0.354,3.482-1.062
				C807.646,77.532,808.206,76.333,808.206,74.641z"/>
			<path d="M841.954,67.561l0.06,15.694c0,3.068-0.404,5.801-1.21,8.201c-0.807,2.398-1.79,4.248-2.95,5.546
				s-2.488,2.36-3.982,3.186c-2.439,1.376-4.917,2.065-7.434,2.065c-0.118,0-0.354-0.295-0.709-0.885
				c-0.354-0.59-0.688-1.387-1.002-2.39c-0.315-1.003-0.473-1.938-0.473-2.803c1.494,0,2.989-0.286,4.484-0.855
				c1.494-0.57,2.537-1.18,3.127-1.829c0.59-0.649,1.18-1.466,1.77-2.449c1.219-1.928,1.83-5.055,1.83-9.381l-0.06-1.711
				c0-0.236-0.04-0.354-0.118-0.354c-0.079,0-0.158,0.059-0.236,0.177s-0.177,0.266-0.295,0.442
				c-0.117,0.177-0.403,0.493-0.855,0.944c-0.452,0.453-0.935,0.855-1.445,1.209c-1.377,0.944-2.764,1.416-4.159,1.416
				c-1.397,0-2.499-0.177-3.304-0.531c-0.807-0.354-1.476-0.806-2.006-1.357c-0.531-0.55-0.975-1.328-1.328-2.331
				s-0.629-1.937-0.826-2.802c-0.197-0.865-0.334-2.045-0.412-3.54c-0.158-2.084-0.236-4.248-0.236-6.49
				c0-3.106,0.156-5.644,0.472-7.611l0.177-0.826c0-0.274,0.6-0.55,1.8-0.826c1.199-0.275,2.192-0.413,2.979-0.413l1.888,0.295
				c-0.433,3.894-0.649,7.179-0.649,9.853c0,2.675,0.275,4.897,0.826,6.667s1.476,2.655,2.773,2.655s2.33-0.383,3.098-1.15
				s1.248-1.524,1.445-2.271l0.295-1.121c-0.079-2.478-0.117-5.142-0.117-7.994c0-2.852,0.098-4.375,0.295-4.573
				c0.51-0.511,1.405-0.904,2.684-1.18c1.277-0.274,2.311-0.413,3.098-0.413s1.18,0.059,1.18,0.177
				C842.112,59.852,841.954,63.038,841.954,67.561z"/>
			<path d="M850.981,72.222l-2.42-0.295c0-3.736-0.167-7.807-0.501-12.213c-0.335-4.405-0.679-7.866-1.032-10.384l-0.473-3.835
				c0.354-0.354,1.535-0.59,3.541-0.708l0.943-0.059c2.124,0,3.6,0.275,4.426,0.826c0.117,0.079,0.176,0.147,0.176,0.206
				c0,0.059-0.049,0.315-0.146,0.767c-0.1,0.453-0.207,0.984-0.325,1.593c-0.118,0.61-0.235,1.269-0.354,1.977
				c-0.275,1.652-0.412,2.832-0.412,3.54s-0.059,2.36-0.178,4.956c-0.433,7.434-0.707,11.84-0.826,13.216
				C852.612,72.085,851.807,72.222,850.981,72.222z M853.901,77.503c0.768,0.767,1.15,1.702,1.15,2.803
				c0,1.102-0.383,2.035-1.15,2.802c-0.767,0.767-1.701,1.15-2.803,1.15s-2.035-0.383-2.802-1.15s-1.151-1.701-1.151-2.802
				c0-1.101,0.385-2.036,1.151-2.803s1.7-1.15,2.802-1.15S853.134,76.735,853.901,77.503z"/>
		</g>
	</g>
</g>
</svg>
