<?xml version="1.0" encoding="utf-8"?>
<!-- Generator: Adobe Illustrator 17.0.0, SVG Export Plug-In . SVG Version: 6.00 Build 0)  -->
<!DOCTYPE svg PUBLIC "-//W3C//DTD SVG 1.1//EN" "http://www.w3.org/Graphics/SVG/1.1/DTD/svg11.dtd">
<svg version="1.1" xmlns="http://www.w3.org/2000/svg" xmlns:xlink="http://www.w3.org/1999/xlink" x="0px" y="0px" width="1280px"
	 height="800px" viewBox="0 0 1280 800" enable-background="new 0 0 1280 800" xml:space="preserve">
<g id="Layer_1">
	<rect x="-1893.283" y="-59.594" fill="#FFFFFF" width="10800" height="984.96"/>
	<g>
		<path fill="#231F20" d="M1263.812,17v766.409H17.801V17H1263.812 M1280.812,0H0.801v800.409h1280.011V0L1280.812,0z"/>
	</g>
	<polygon opacity="0.2" fill="#231F20" points="1150.64,81.726 1150.64,317.916 1230.801,199.821 	"/>
	<polygon opacity="0.2" fill="#231F20" points="134.504,317.916 134.504,81.726 54.343,199.821 	"/>
	<g>
		<path fill="#FFFFFF" d="M767.022,219.647c0,95.07-50.869,172.14-113.62,172.14s-113.62-77.07-113.62-172.14
			s25.868-172.14,113.62-172.14C746.723,47.507,767.022,124.576,767.022,219.647z"/>
		<path fill="#231F20" d="M653.402,394.453c-64.12,0-116.285-78.417-116.285-174.805c0-115.993,39.124-174.807,116.285-174.807
			c103.069,0,116.286,93.42,116.286,174.807C769.689,316.036,717.522,394.453,653.402,394.453z M653.402,50.172
			c-74.659,0-110.953,55.436-110.953,169.475c0,93.448,49.773,169.473,110.953,169.473s110.954-76.025,110.954-169.473
			C764.357,140.743,751.745,50.172,653.402,50.172z"/>
	</g>
	<g>
		<g>
			<path fill="#231F20" d="M585.548,148.163c4.261-3.666,9.773-4.975,13.401-4.604c3.693,0.408,5.596,1.7,5.455,2.193
				c-0.162,0.677-2.293,0.537-5.38,0.941c-3.075,0.484-7.05,1.828-10.688,4.916c-3.679,2.992-6.486,6.572-8.616,9.114
				c-2.12,2.567-3.601,4.141-4.143,3.828c-0.517-0.298-0.012-2.406,1.51-5.529C578.625,155.94,581.213,151.71,585.548,148.163z"/>
		</g>
	</g>
	<g>
		<g>
			<path fill="#231F20" d="M713.178,151.662c-3.047-3.673-6.728-5.687-9.672-6.698c-2.969-0.935-5.093-1.167-5.134-1.861
				c-0.054-0.51,2.045-1.452,5.753-1.212c3.638,0.264,8.839,2.511,12.398,6.861c3.653,4.246,5.467,8.861,6.447,12.164
				c0.956,3.34,1.088,5.504,0.527,5.707c-0.589,0.215-1.773-1.593-3.415-4.489C718.424,159.26,716.281,155.248,713.178,151.662z"/>
		</g>
	</g>
	<g>
		<path fill="#231F20" d="M605.919,269.627c-15.201,0-27.108-23.859-27.108-54.315s11.907-54.313,27.108-54.313
			c15.2,0,27.106,23.857,27.106,54.313S621.118,269.627,605.919,269.627z M605.919,168.108c-9.46,0-19.999,19.386-19.999,47.204
			c0,27.82,10.539,47.206,19.999,47.206c9.458,0,19.997-19.386,19.997-47.206C625.916,187.494,615.377,168.108,605.919,168.108z"/>
	</g>
	<g>
		<path fill="#231F20" d="M698.372,269.627c-15.201,0-27.108-23.859-27.108-54.315s11.907-54.313,27.108-54.313
			c15.199,0,27.106,23.857,27.106,54.313S713.572,269.627,698.372,269.627z M698.372,168.108c-9.46,0-19.999,19.386-19.999,47.204
			c0,27.82,10.539,47.206,19.999,47.206c9.458,0,19.997-19.386,19.997-47.206C718.369,187.494,707.83,168.108,698.372,168.108z"/>
	</g>
	<g>
		<path fill="#FFFFFF" d="M851.898,517.354c0,21.437-17.378,38.816-38.816,38.816H490.89c-21.437,0-38.816-17.378-38.816-38.816
			l-8.185-251.135c0-21.437,17.378-38.816,38.816-38.816h338.561c21.437,0,38.816,17.378,38.816,38.816L851.898,517.354z"/>
		<path fill="#231F20" d="M813.081,557.947h-322.19c-22.384,0-40.593-18.209-40.593-40.593l-8.184-251.077
			c-0.002-22.441,18.207-40.65,40.591-40.65h338.562c22.384,0,40.593,18.209,40.593,40.593l-8.186,251.192
			C853.676,539.738,835.465,557.947,813.081,557.947z M482.705,229.181c-20.422,0-37.038,16.616-37.038,37.038l8.184,251.077
			c0.002,20.479,16.618,37.095,37.04,37.095h322.19c20.424,0,37.04-16.616,37.04-37.038l8.186-251.192
			c-0.002-20.365-16.618-36.981-37.04-36.981H482.705z"/>
	</g>
	<g>
		<path fill="#FFFFFF" d="M851.151,515.721c0,20.517-16.633,37.15-37.15,37.15H489.971c-20.517,0-37.15-16.633-37.15-37.15V275.365
			c0-20.517,16.633-37.15,37.15-37.15h324.029c20.517,0,37.15,16.633,37.15,37.15V515.721z"/>
		<path fill="#231F20" d="M814.001,554.647h-324.03c-21.464,0-38.926-17.463-38.926-38.927V275.365
			c0-21.464,17.463-38.926,38.926-38.926h324.03c21.464,0,38.927,17.463,38.927,38.926v240.356
			C852.927,537.184,835.465,554.647,814.001,554.647z M489.971,239.993c-19.504,0-35.372,15.868-35.372,35.372v240.356
			c0,19.504,15.868,35.372,35.372,35.372h324.03c19.504,0,35.372-15.868,35.372-35.372V275.365
			c0-19.504-15.868-35.372-35.372-35.372H489.971z"/>
	</g>
	<g>
		<path fill="#231F20" d="M651.986,459.892c-35.483,0-64.349-28.866-64.349-64.349s28.866-64.349,64.349-64.349
			s64.351,28.866,64.351,64.349S687.469,459.892,651.986,459.892z M651.986,334.748c-33.521,0-60.794,27.273-60.794,60.795
			s27.273,60.795,60.794,60.795c33.523,0,60.796-27.273,60.796-60.795S685.509,334.748,651.986,334.748z"/>
	</g>
	<g>
		<path fill="#231F20" d="M651.986,436.674c-22.68,0-41.131-18.45-41.131-41.131s18.45-41.131,41.131-41.131
			s41.131,18.45,41.131,41.131S674.666,436.674,651.986,436.674z M651.986,357.967c-20.719,0-37.576,16.857-37.576,37.576
			s16.857,37.576,37.576,37.576s37.576-16.857,37.576-37.576S672.705,357.967,651.986,357.967z"/>
	</g>
	<g>
		<g>
			<path fill="#FFFFFF" d="M427.188,335.653c-14.909,17.62-21.832,43.493-20.597,67.064c2.02,25.208,13.595,61.943,38.576,73.725
				c29.013,13.472,55.247-1.524,69.505-28.9c17.652-36.253,9.606-89.984-31.504-108.528c-19.351-8.44-34.924,0.236-47.343,14.648"/>
		</g>
		<g>
			<g>
				<path fill="#231F20" d="M492.683,469.121c5.488-4.093,10.153-9.206,14.012-14.771c1.937-2.797,3.636-5.689,5.185-8.628
					c1.263-3.082,2.785-6.01,3.69-9.208c2.285-6.208,3.345-12.674,4.249-18.973c0.5-6.349,0.768-12.624,0.047-18.68
					c-1.184-12.11-4.685-23.407-10.208-32.669c-5.504-9.284-12.851-16.453-20.586-21.396c-2.01-1.108-3.972-2.19-5.885-3.245
					c-0.941-0.589-1.944-0.905-2.907-1.32c-0.958-0.429-1.932-0.763-2.91-1.035c-3.876-1.219-7.7-1.708-11.265-1.557
					c-7.16,0.391-13.034,3.157-17.389,5.913c-8.684,5.78-12.432,10.572-12.893,10.109c-0.163-0.14,0.617-1.416,2.402-3.625
					c1.799-2.191,4.654-5.308,9.024-8.617c4.352-3.227,10.545-6.666,18.59-7.489c3.994-0.362,8.341,0.01,12.704,1.201
					c1.103,0.266,2.201,0.598,3.28,1.03c1.081,0.416,2.234,0.753,3.249,1.334c2.096,1.067,4.246,2.163,6.448,3.285
					c8.493,5.045,16.695,12.636,22.855,22.553c6.185,9.893,10.149,21.966,11.587,34.897c0.847,6.47,0.655,13.17,0.175,19.967
					c-0.887,6.75-1.983,13.678-4.391,20.393c-0.956,3.423-2.592,6.692-3.979,10.058c-1.68,3.24-3.537,6.424-5.627,9.46
					c-4.186,6.076-9.311,11.743-15.496,16.355c-6.15,4.631-13.315,7.962-20.807,9.372c-7.482,1.459-15.159,0.989-22.184-0.906
					c-3.542-0.909-6.861-2.271-10.122-3.717c-1.583-0.887-3.159-1.769-4.727-2.647c-1.444-1.045-2.881-2.084-4.311-3.118
					c-5.461-4.455-9.768-9.794-13.297-15.296c-7.068-11.062-11.096-22.811-13.815-33.895c-1.287-5.573-2.231-11.016-2.835-16.293
					c-0.651-5.319-0.455-10.481-0.306-15.35c0.54-9.747,2.551-18.364,4.703-25.755c1.31-3.628,2.487-7.022,3.826-10.033
					c1.494-2.948,2.7-5.711,4.091-8.033c1.465-2.274,2.766-4.293,3.894-6.044c1.187-1.703,2.43-2.98,3.333-4.07
					c1.87-2.138,2.925-3.174,3.1-3.026c0.175,0.148-0.536,1.473-2.029,3.831c-0.715,1.2-1.76,2.567-2.745,4.341
					c-0.947,1.792-2.039,3.858-3.269,6.185c-1.177,2.344-2.169,5.11-3.445,8.024c-1.123,2.982-2.087,6.325-3.187,9.866
					c-1.736,7.229-3.353,15.575-3.574,24.919c0.012,4.645-0.048,9.513,0.701,14.522c0.713,5.05,1.745,10.264,3.093,15.587
					c2.827,10.578,6.914,21.745,13.598,31.881c3.327,5.045,7.308,9.826,12.135,13.683c1.252,0.888,2.511,1.781,3.776,2.678
					c1.346,0.739,2.7,1.482,4.06,2.228c2.907,1.249,5.892,2.459,9.014,3.232c6.209,1.627,12.81,1.984,19.246,0.714
					C481.005,476.112,487.218,473.237,492.683,469.121z"/>
			</g>
		</g>
	</g>
	<g>
		<g>
			<path fill="#231F20" d="M401.713,286.585c-0.692-1.961-1.239-4.013-1.388-6.193c-0.17-2.166,0.266-4.534,1.336-6.517
				c2.2-4.101,6.304-5.914,9.737-6.815c7.14-1.689,13.482-0.602,18.518,0.732c5.056,1.401,8.879,3.434,11.17,5.324
				c2.298,1.922,3.008,3.497,2.804,3.623c-0.292,0.227-1.393-0.866-3.768-2.191c-2.384-1.313-6.123-2.776-10.933-3.706
				c-4.744-0.893-10.798-1.485-16.715,0.159c-2.875,0.844-5.734,2.386-6.961,4.881c-1.351,2.43-0.844,5.828,0.363,9.176
				c2.64,6.751,6.935,12.837,10.473,18.485c3.625,5.636,6.795,10.9,8.91,15.656c2.143,4.74,3.088,9.024,3.015,12.009
				c-0.063,2.998-0.854,4.514-1.085,4.445c-0.358-0.072-0.182-1.642-0.635-4.314c-0.444-2.677-1.725-6.423-4.108-10.757
				c-2.361-4.346-5.694-9.277-9.502-14.782C409.222,300.236,404.748,294.275,401.713,286.585z"/>
		</g>
	</g>
	<g>
		<g>
			<path fill="#FFFFFF" d="M864.03,378.202c11.199,19.215,13.441,44.926,8.324,67.087c-6.135,23.584-23.266,56.507-48.943,63.508
				c-29.786,7.93-52.173-10.691-61.122-39.055c-10.685-37.356,5.941-86.999,48.056-97.718c19.776-4.772,38.319,12.804,47.693,28.559
				"/>
		</g>
		<g>
			<g>
				<path fill="#231F20" d="M772.132,495.38c-4.826-5.827-8.409-12.405-11.051-19.144c-0.605-1.719-1.208-3.432-1.808-5.139
					c-0.501-1.735-0.853-3.506-1.279-5.247l-0.607-2.615l-0.372-2.625c-0.237-1.747-0.474-3.487-0.709-5.219
					c-1.093-13.916,0.634-27.527,5.027-39.573c4.379-12.038,11.167-22.575,19.537-30.432c8.342-7.912,18.199-12.905,27.628-15.233
					c4.786-1.34,9.806-1.36,14.183-0.489c4.433,0.832,8.321,2.539,11.658,4.478c6.755,3.833,11.394,8.615,14.905,12.587
					c3.467,4.05,5.717,7.515,7.09,9.939c1.352,2.44,1.89,3.807,1.704,3.916c-0.492,0.319-3.448-4.75-10.691-12.093
					c-3.665-3.565-8.389-7.86-14.78-11.079c-6.248-3.338-14.492-5.322-22.839-2.719c-8.642,2.431-17.556,7.254-25.05,14.683
					c-7.525,7.384-13.633,17.215-17.564,28.475c-3.945,11.263-5.413,24.015-4.322,36.917c0.229,1.602,0.459,3.21,0.691,4.826
					l0.352,2.427l0.57,2.374c0.398,1.58,0.715,3.191,1.174,4.765l1.66,4.657c2.447,6.189,5.728,12.153,10.025,17.334
					c4.282,5.18,9.479,9.422,15.27,12.202c5.781,2.801,12.12,4.089,18.384,3.952c6.26-0.175,12.529-1.45,17.892-3.966
					c5.45-2.538,10.274-6.237,14.487-10.38c8.375-8.411,14.465-18.373,19.063-28.074c4.608-9.762,7.828-19.333,9.225-28.312
					c2.657-18.154,0.599-33.248-2.267-43.111c-0.789-2.458-1.491-4.641-2.099-6.534c-0.616-1.897-1.414-3.386-1.891-4.672
					c-1.037-2.534-1.495-3.938-1.297-4.054c0.198-0.116,1.045,1.064,2.492,3.449c0.681,1.21,1.691,2.647,2.518,4.51
					c0.794,1.885,1.71,4.061,2.741,6.509c3.72,9.936,6.632,25.491,4.458,44.568c-1.184,9.588-4.305,19.717-8.87,29.95
					c-2.264,5.143-4.989,10.306-8.23,15.385c-3.25,5.064-6.935,10.128-11.499,14.708c-4.532,4.579-9.848,8.799-16.12,11.802
					c-6.345,3.025-13.3,4.483-20.463,4.736c-7.18,0.209-14.641-1.253-21.386-4.501C782.908,506.099,776.937,501.2,772.132,495.38z"
					/>
			</g>
		</g>
	</g>
	<g>
		<g>
			<path fill="#231F20" d="M892.651,333.715c1.701-2.968,2.738-6.084,1.874-8.583c-0.735-2.541-3.168-4.474-5.746-5.753
				c-5.318-2.546-11.155-3.005-15.8-2.958c-4.715,0.07-8.504,0.823-10.986,1.659c-2.474,0.85-3.707,1.693-3.955,1.42
				c-0.18-0.162,0.751-1.548,3.254-2.998c2.491-1.421,6.462-2.72,11.5-3.212c5.009-0.43,11.217-0.408,17.731,2.394
				c3.117,1.433,6.729,3.849,8.143,8.14c0.688,2.076,0.706,4.413,0.18,6.45c-0.509,2.054-1.375,3.916-2.362,5.666
				c-4.177,6.805-9.423,11.71-13.888,16.366c-4.537,4.583-8.528,8.699-11.498,12.42c-2.99,3.706-4.837,7.035-5.714,9.495
				c-0.886,2.453-0.993,3.971-1.355,3.98c-0.242,0.028-0.75-1.545-0.317-4.407c0.422-2.852,2.031-6.77,4.855-10.917
				c2.8-4.167,6.687-8.638,11.067-13.383C883.935,344.724,889.027,339.664,892.651,333.715z"/>
		</g>
	</g>
</g>
<g id="Layer_3">
</g>
<g id="Layer_2">
	<g>
		<g>
			<path d="M92.538,638.843c0.157,0,0.236,0.974,0.236,2.92c0,1.947-0.118,2.92-0.354,2.92c-5.704,0-9.794,0.275-12.272,0.826
				c-0.118,0-0.177-0.866-0.177-2.596c0-1.73,0.138-2.773,0.413-3.127c0.472-0.236,1.239-0.354,2.301-0.354
				c-0.08-1.336-0.118-6.106-0.118-14.307c0-8.201,0.098-12.892,0.295-14.072h-0.118c-1.062,0-1.947,0.118-2.655,0.354
				c-0.079,0-0.118-0.894-0.118-2.685c0-1.789,0.118-2.802,0.354-3.039c0.236-0.236,1.809-0.452,4.72-0.649
				c2.91-0.196,5.349-0.295,7.316-0.295c0.118,0,0.177,0.315,0.177,0.944l-0.177,4.366c0,0.158-0.059,0.236-0.177,0.236
				c-1.338,0-2.046,0.03-2.124,0.089c-0.08,0.059-0.138,0.875-0.177,2.448c-0.158,6.215-0.236,11.594-0.236,16.137
				s0.157,7.857,0.472,9.941C90.629,638.863,91.436,638.843,92.538,638.843z"/>
			<path d="M105.517,621.32l0.295,23.6c0,1.534-0.04,2.497-0.118,2.891c-1.495,1.101-3.481,1.652-5.959,1.652l-1.652-0.295
				c0.59-4.366,0.885-12.429,0.885-24.19c0-2.95-0.02-5.112-0.059-6.49l-2.596,0.118c-0.197-0.197-0.295-1.062-0.295-2.596
				s0.177-2.478,0.531-2.832c0.708-0.039,1.475-0.078,2.301-0.118l-0.118-7.139c-0.079-0.629,1.376-1.671,4.366-3.127
				c2.989-1.455,5.428-2.183,7.316-2.183c0.236,0,0.54,0.442,0.915,1.328c0.373,0.885,0.56,1.573,0.56,2.065
				c0,0.492-0.02,0.796-0.059,0.915c-0.118,0-0.63,0.206-1.534,0.619c-0.905,0.413-1.849,0.944-2.832,1.593
				c-0.983,0.649-1.495,1.209-1.534,1.681c-0.157,1.023-0.275,2.419-0.354,4.189h0.236c3.186,0,4.779,0.059,4.779,0.177
				c0,1.849-0.374,3.383-1.121,4.602c-0.275,0.472-0.512,0.708-0.708,0.708c-1.259-0.079-2.34-0.118-3.245-0.118V621.32z"/>
			<path d="M148.468,627.633l0.059,15.694c0,3.068-0.404,5.801-1.209,8.201c-0.807,2.398-1.79,4.248-2.95,5.546
				c-1.161,1.298-2.488,2.36-3.982,3.186c-2.439,1.376-4.917,2.065-7.434,2.065c-0.118,0-0.354-0.295-0.708-0.885
				c-0.354-0.59-0.688-1.387-1.003-2.39c-0.315-1.003-0.472-1.938-0.472-2.803c1.494,0,2.989-0.286,4.484-0.855
				c1.494-0.57,2.537-1.18,3.127-1.829c0.59-0.649,1.18-1.466,1.77-2.449c1.219-1.928,1.829-5.055,1.829-9.381l-0.059-1.711
				c0-0.236-0.04-0.354-0.118-0.354c-0.079,0-0.158,0.059-0.236,0.177c-0.079,0.118-0.177,0.266-0.295,0.442
				c-0.118,0.177-0.404,0.493-0.855,0.944c-0.453,0.453-0.935,0.855-1.446,1.209c-1.377,0.944-2.764,1.416-4.159,1.416
				c-1.397,0-2.499-0.177-3.304-0.531c-0.807-0.354-1.475-0.806-2.006-1.357c-0.531-0.55-0.974-1.328-1.328-2.331
				c-0.354-1.003-0.629-1.937-0.826-2.802c-0.197-0.865-0.334-2.045-0.413-3.54c-0.158-2.084-0.236-4.248-0.236-6.49
				c0-3.106,0.157-5.644,0.472-7.611l0.177-0.826c0-0.274,0.6-0.55,1.8-0.826c1.199-0.275,2.192-0.413,2.979-0.413l1.888,0.295
				c-0.433,3.894-0.649,7.179-0.649,9.853c0,2.675,0.275,4.897,0.826,6.667c0.55,1.77,1.475,2.655,2.773,2.655
				s2.331-0.383,3.098-1.15s1.248-1.524,1.445-2.271l0.295-1.121c-0.079-2.478-0.118-5.142-0.118-7.994
				c0-2.852,0.098-4.375,0.295-4.573c0.511-0.511,1.406-0.904,2.685-1.18c1.277-0.274,2.31-0.413,3.097-0.413
				c0.787,0,1.18,0.059,1.18,0.177C148.625,619.924,148.468,623.11,148.468,627.633z"/>
			<path d="M174.692,641.527c-2.262,2.733-5.331,4.101-9.204,4.101c-3.875,0-6.913-1.201-9.115-3.599
				c-2.204-2.399-3.304-5.517-3.304-9.352s1.366-7.237,4.101-10.207c2.733-2.969,6.421-4.455,11.063-4.455
				c1.888,0.08,2.91,0.197,3.068,0.354c0.157,0.158,0.236,0.531,0.236,1.121s-0.059,1.239-0.177,1.947
				c0.59,0,1.347,0.345,2.271,1.032c0.924,0.688,1.682,1.387,2.271,2.095s1.101,1.702,1.534,2.979
				c0.432,1.278,0.649,2.705,0.649,4.277C178.085,635.559,176.954,638.794,174.692,641.527z M169.471,627.692
				c-0.905-0.59-1.79-0.885-2.655-0.885h-0.472c-0.079-0.157-0.118-0.491-0.118-1.003c0-0.511,0.059-1.003,0.177-1.475
				c-1.613,0-3.118,0.729-4.514,2.183c-1.396,1.456-2.094,3.481-2.094,6.077c0,3.068,0.982,5.192,2.95,6.372
				c0.747,0.472,1.779,0.708,3.098,0.708c1.317,0,2.557-0.609,3.717-1.829c1.16-1.219,1.74-3.028,1.74-5.428
				C171.3,630.013,170.689,628.44,169.471,627.692z"/>
			<path d="M197.318,641.852l-0.059-1.239l-0.059-0.118c-0.944,1.456-2.134,2.616-3.57,3.481c-1.436,0.865-2.842,1.298-4.218,1.298
				c-4.13,0-6.49-3.206-7.08-9.617c-0.079-1.022-0.118-3.658-0.118-7.906c0-4.248,0.177-6.765,0.531-7.552
				c1.022-0.826,2.674-1.239,4.956-1.239c0.904,0,1.455,0.099,1.652,0.295c0,0.04-0.021,0.57-0.059,1.593
				c-0.197,2.99-0.295,5.291-0.295,6.903c0,1.613,0.02,2.802,0.059,3.569c0.039,0.767,0.068,1.259,0.088,1.475
				c0.02,0.216,0.079,0.6,0.177,1.15c0.098,0.551,0.245,1.023,0.442,1.416c0.59,1.141,1.504,1.711,2.743,1.711
				c1.239,0,2.34-0.62,3.304-1.858c0.963-1.239,1.425-2.114,1.387-2.625v-2.006c0-7.198,0.118-11.071,0.354-11.623
				c0.196-0.354,0.815-0.728,1.858-1.121c1.042-0.393,2.074-0.59,3.097-0.59c1.022,0,1.613,0.08,1.77,0.236l-0.118,2.773
				c-0.236,5.625-0.354,9.971-0.354,13.039c0,3.068,0.078,5.015,0.236,5.841c0.275,1.967,0.806,3.54,1.593,4.72
				c0,0.393-0.807,1.022-2.419,1.888c-1.613,0.865-2.989,1.298-4.13,1.298c-0.315,0-0.669-0.59-1.062-1.77
				C197.633,644.094,197.397,642.954,197.318,641.852z"/>
			<path d="M209.884,636.129l-0.118-13.393c0-2.32,0.078-3.56,0.236-3.717c0.432-0.432,1.18-0.815,2.242-1.15
				c1.062-0.333,2.055-0.501,2.979-0.501c0.923,0,1.386,0.099,1.386,0.295c-0.118,1.062-0.177,2.271-0.177,3.628
				c0,1.357,0.039,2.036,0.118,2.036c0.079,0,0.157-0.049,0.236-0.147c0.078-0.098,0.207-0.255,0.383-0.472
				c0.177-0.215,0.55-0.599,1.121-1.15c0.57-0.55,1.189-1.022,1.858-1.416c1.691-1.101,3.5-1.652,5.428-1.652
				c0.314,0.512,0.472,1.298,0.472,2.36c0,2.242-0.275,3.835-0.826,4.779l-0.236,0.472l-0.767-0.118
				c-2.832,0-5.054,1.161-6.667,3.481c-0.629,0.944-0.944,1.652-0.944,2.124v5.192c0,4.72-0.059,7.139-0.177,7.257
				c-1.102,1.062-3.266,1.593-6.49,1.593c-0.315,0-0.472-0.059-0.472-0.177C209.746,643.917,209.884,640.81,209.884,636.129z"/>
			<path d="M252.835,645.805c-4.484,0-7.808-1.141-9.971-3.422c-2.164-2.281-3.245-5.152-3.245-8.614
				c0-4.838,1.623-8.692,4.868-11.564c3.245-2.871,7.207-4.307,11.888-4.307c0.904,0,1.436,0.02,1.593,0.059
				c0.236,0.197,0.354,1.142,0.354,2.832c0,1.692-0.236,2.714-0.708,3.068h-0.413c-3.029,0-5.487,0.708-7.375,2.124
				c-0.787,0.59-1.475,1.515-2.065,2.773c-0.59,1.259-0.885,2.773-0.885,4.543s0.531,3.236,1.593,4.396
				c1.062,1.161,2.773,1.74,5.133,1.74c1.849,0,3.481-0.354,4.897-1.062c0.157-0.078,0.255-0.118,0.295-0.118
				c0.314,0.315,0.472,1.377,0.472,3.186c0,1.81-0.217,2.891-0.649,3.245C257.32,645.431,255.392,645.805,252.835,645.805z"/>
			<path d="M263.455,632.648l-0.177-20.473c0-3.815,0.098-5.821,0.295-6.018c0.472-0.472,1.239-0.924,2.301-1.357
				c1.062-0.433,2.084-0.649,3.068-0.649c0.983,0,1.475,0.079,1.475,0.236c-0.04,0.354-0.118,2.931-0.236,7.729
				c-0.118,4.799-0.177,7.946-0.177,9.44v0.531c0,0.197,0.059,0.295,0.177,0.295l1.18-1.18c0.433-0.393,1.308-0.934,2.625-1.623
				c1.317-0.688,2.557-1.032,3.717-1.032c1.16,0,2.124,0.197,2.891,0.59c0.767,0.394,1.406,0.866,1.917,1.416
				c0.511,0.551,0.944,1.348,1.298,2.39c0.354,1.042,0.62,2.006,0.796,2.891c0.177,0.885,0.325,2.095,0.442,3.629
				c0.118,2.085,0.177,4.72,0.177,7.906l-0.236,7.847c-0.118,0.314-0.788,0.59-2.006,0.826c-1.219,0.236-2.223,0.354-3.009,0.354
				l-1.947-0.295c0.393-3.54,0.59-6.941,0.59-10.207c0-3.264-0.236-5.742-0.708-7.434c-0.472-1.691-1.437-2.537-2.891-2.537
				c-0.944,0-1.829,0.374-2.655,1.121c-0.826,0.748-1.397,1.495-1.711,2.242l-0.531,1.121c0.078,2.714,0.118,5.625,0.118,8.732
				c0,3.108-0.099,4.74-0.295,4.897c-1.18,1.062-3.343,1.593-6.49,1.593c-0.315,0-0.472-0.059-0.472-0.177
				C263.297,643.72,263.455,639.453,263.455,632.648z"/>
			<path d="M293.751,608.871c1.082,0,1.956,0.354,2.625,1.062c0.668,0.708,1.003,1.633,1.003,2.773c0,1.142-0.442,2.115-1.327,2.921
				c-0.885,0.807-1.869,1.209-2.95,1.209c-1.083,0-1.947-0.344-2.596-1.033c-0.649-0.688-0.973-1.602-0.973-2.744
				c0-1.14,0.432-2.124,1.298-2.95C291.695,609.284,292.669,608.871,293.751,608.871z M296.73,623.562l-0.118,9.558
				c0,3.068,0.089,5.32,0.266,6.756c0.177,1.436,0.679,2.783,1.504,4.042c0,0.393-0.807,1.022-2.419,1.888
				c-1.613,0.865-2.989,1.298-4.13,1.298c-0.354,0-0.708-0.59-1.062-1.77c-0.354-1.18-0.581-2.301-0.678-3.363
				c-0.099-1.062-0.148-4.641-0.148-10.738c0-6.097,0.138-9.42,0.413-9.971c0.904-0.708,2.498-1.062,4.779-1.062
				c0.904,0,1.455,0.118,1.652,0.354L296.73,623.562z"/>
			<path d="M302.511,635.716l0.236-21.358c0-3.107-0.04-5.211-0.118-6.313c-0.079-1.101-0.118-1.691-0.118-1.77
				c0-0.393,0.658-0.846,1.976-1.357c1.317-0.511,2.487-0.767,3.511-0.767c1.022,0,1.534,0.079,1.534,0.236
				c-0.197,1.456-0.295,6.569-0.295,15.34l-0.118,14.455c0,2.714,0.039,4.386,0.118,5.015c0.197,1.731,0.767,3.304,1.711,4.72
				c0,0.393-0.807,1.022-2.419,1.888c-1.613,0.865-2.989,1.298-4.13,1.298c-0.315,0-0.669-0.59-1.062-1.77
				c-0.394-1.18-0.629-2.202-0.708-3.068C302.55,641.4,302.511,639.217,302.511,635.716z"/>
			<path d="M330.418,618.783l-0.118-8.732c0-2.438,0.059-3.717,0.177-3.835c0.472-0.472,1.249-0.934,2.331-1.387
				c1.082-0.452,2.114-0.678,3.098-0.678c0.983,0,1.475,0.079,1.475,0.236c-0.315,6.53-0.472,13.472-0.472,20.827
				c0,7.355,0.118,11.741,0.354,13.157c0.275,2.124,0.924,3.698,1.947,4.72c0,0.394-0.817,1.012-2.449,1.858
				c-1.633,0.845-3.019,1.269-4.16,1.269c-0.118,0-0.295-0.158-0.531-0.472c-0.748-0.983-1.2-2.32-1.357-4.012
				c0-0.118-0.04-0.177-0.118-0.177l-0.177,0.118c-1.652,2.36-4.111,3.54-7.375,3.54c-2.636,0-4.72-1.043-6.254-3.127
				c-1.534-2.084-2.301-4.425-2.301-7.021c0-4.444,1.376-8.23,4.13-11.357C321.371,620.582,325.304,618.94,330.418,618.783z
				 M330.536,624.978c0-0.078-0.216-0.118-0.649-0.118h-0.236c-2.518,0-4.494,0.807-5.93,2.419
				c-1.436,1.613-2.153,3.658-2.153,6.136c0,1.456,0.344,2.646,1.032,3.57c0.688,0.924,1.73,1.386,3.127,1.386
				c1.396,0,2.517-0.609,3.363-1.829c0.845-1.219,1.269-2.183,1.269-2.891C330.359,629.285,330.418,626.394,330.536,624.978z"/>
			<path d="M370.773,618.783l-0.118-8.732c0-2.438,0.059-3.717,0.177-3.835c0.472-0.472,1.249-0.934,2.331-1.387
				c1.082-0.452,2.114-0.678,3.098-0.678c0.983,0,1.475,0.079,1.475,0.236c-0.315,6.53-0.472,13.472-0.472,20.827
				c0,7.355,0.118,11.741,0.354,13.157c0.275,2.124,0.924,3.698,1.947,4.72c0,0.394-0.817,1.012-2.449,1.858
				c-1.633,0.845-3.019,1.269-4.16,1.269c-0.118,0-0.295-0.158-0.531-0.472c-0.748-0.983-1.2-2.32-1.357-4.012
				c0-0.118-0.04-0.177-0.118-0.177l-0.177,0.118c-1.652,2.36-4.111,3.54-7.375,3.54c-2.636,0-4.72-1.043-6.254-3.127
				c-1.534-2.084-2.301-4.425-2.301-7.021c0-4.444,1.376-8.23,4.13-11.357C361.726,620.582,365.66,618.94,370.773,618.783z
				 M370.891,624.978c0-0.078-0.216-0.118-0.649-0.118h-0.236c-2.518,0-4.494,0.807-5.93,2.419
				c-1.436,1.613-2.153,3.658-2.153,6.136c0,1.456,0.344,2.646,1.032,3.57c0.688,0.924,1.73,1.386,3.127,1.386
				c1.396,0,2.517-0.609,3.363-1.829c0.845-1.219,1.269-2.183,1.269-2.891C370.714,629.285,370.773,626.394,370.891,624.978z"/>
			<path d="M405.023,641.527c-2.262,2.733-5.331,4.101-9.204,4.101c-3.875,0-6.913-1.201-9.115-3.599
				c-2.204-2.399-3.304-5.517-3.304-9.352s1.366-7.237,4.101-10.207c2.733-2.969,6.421-4.455,11.063-4.455
				c1.888,0.08,2.91,0.197,3.068,0.354c0.157,0.158,0.236,0.531,0.236,1.121s-0.059,1.239-0.177,1.947
				c0.59,0,1.347,0.345,2.271,1.032c0.924,0.688,1.682,1.387,2.271,2.095s1.101,1.702,1.534,2.979
				c0.432,1.278,0.649,2.705,0.649,4.277C408.415,635.559,407.284,638.794,405.023,641.527z M399.801,627.692
				c-0.905-0.59-1.79-0.885-2.655-0.885h-0.472c-0.079-0.157-0.118-0.491-0.118-1.003c0-0.511,0.059-1.003,0.177-1.475
				c-1.613,0-3.118,0.729-4.514,2.183c-1.396,1.456-2.094,3.481-2.094,6.077c0,3.068,0.982,5.192,2.95,6.372
				c0.747,0.472,1.779,0.708,3.098,0.708c1.317,0,2.557-0.609,3.717-1.829c1.16-1.219,1.74-3.028,1.74-5.428
				C401.63,630.013,401.02,628.44,399.801,627.692z"/>
			<path d="M431.897,644.094c-1.337,0.904-3.953,1.357-7.847,1.357c-3.894,0-6.884-1.161-8.968-3.481
				c-2.085-2.32-3.127-5.418-3.127-9.292c0-3.874,1.248-7.237,3.747-10.089c2.497-2.852,6.008-4.278,10.531-4.278
				c1.849,0,3.549,0.493,5.104,1.475c1.554,0.984,2.331,2.705,2.331,5.163c0,2.458-1.072,4.888-3.215,7.287
				c-2.145,2.399-5.065,4.229-8.762,5.487c0,0.472,0.481,0.855,1.446,1.15c0.963,0.295,1.917,0.443,2.861,0.443
				c2.989,0,5.349-0.531,7.08-1.593c0.039-0.039,0.098-0.059,0.177-0.059c0.079,0,0.118,0.375,0.118,1.121
				C433.372,641.065,432.879,642.836,431.897,644.094z M426.764,625.332c0-1.14-0.61-1.711-1.829-1.711
				c-1.613,0-3.029,0.826-4.248,2.478c-1.22,1.652-1.829,3.639-1.829,5.959c0,0.551,0.079,0.826,0.236,0.826
				c1.416-0.039,3.047-0.855,4.897-2.449C425.839,628.842,426.764,627.142,426.764,625.332z"/>
			<path d="M454.67,637.309c0,2.124-0.994,4.022-2.979,5.694c-1.986,1.671-4.13,2.871-6.431,3.599
				c-2.301,0.728-4.317,1.092-6.048,1.092c-0.197,0-0.472-0.236-0.826-0.708c-0.984-1.298-1.475-2.813-1.475-4.543v-0.413
				c3.068,0,5.408-0.531,7.021-1.593c1.612-1.062,2.419-2.163,2.419-3.304c0-0.747-0.492-1.534-1.475-2.36
				c-0.983-0.826-2.065-1.554-3.245-2.183c-1.18-0.629-2.263-1.465-3.245-2.508c-0.984-1.042-1.475-2.133-1.475-3.274
				c0-2.398,1.494-4.602,4.484-6.608c2.989-2.006,6.175-3.009,9.558-3.009c0.393,0,0.904,0.541,1.534,1.622
				c0.628,1.083,0.963,2.193,1.003,3.333c-0.788,0-1.967,0.236-3.54,0.708c-3.108,0.984-4.661,2.204-4.661,3.658
				c0,1.023,1.534,2.419,4.602,4.189c1.18,0.669,2.261,1.593,3.245,2.773C454.119,634.654,454.63,635.933,454.67,637.309z"/>
			<path d="M477.562,615.479l-0.059,2.773c10.462,0,15.694,4.051,15.694,12.154c0,2.203-0.442,4.199-1.328,5.988
				c-0.885,1.791-1.976,3.207-3.274,4.248c-1.298,1.043-2.714,1.917-4.248,2.625c-2.635,1.219-4.996,1.829-7.08,1.829v0.885
				c0,5.9,0.157,9.833,0.472,11.8c-0.512,0.511-1.396,0.915-2.655,1.209c-1.259,0.295-2.282,0.442-3.068,0.442
				c-0.787,0-1.18-0.059-1.18-0.177c-0.158-1.259-0.236-3.855-0.236-7.788l0.295-27.435c0-3.225-0.059-5.467-0.177-6.726
				c0.472-0.472,1.269-0.924,2.39-1.357c1.121-0.432,2.094-0.649,2.92-0.649S477.364,615.361,477.562,615.479z M477.266,635.598
				l0.059,2.95c2.399,0,4.503-0.688,6.313-2.065c1.809-1.376,2.714-3.363,2.714-5.959c0-4.248-2.971-6.372-8.909-6.372l-0.059,0.767
				c0,0.511,0,1.18,0,2.006L477.266,635.598z"/>
			<path d="M497.916,635.716l0.236-21.358c0-3.107-0.04-5.211-0.118-6.313c-0.079-1.101-0.118-1.691-0.118-1.77
				c0-0.393,0.658-0.846,1.976-1.357c1.317-0.511,2.487-0.767,3.511-0.767c1.022,0,1.534,0.079,1.534,0.236
				c-0.197,1.456-0.295,6.569-0.295,15.34l-0.118,14.455c0,2.714,0.039,4.386,0.118,5.015c0.197,1.731,0.767,3.304,1.711,4.72
				c0,0.393-0.807,1.022-2.419,1.888c-1.613,0.865-2.989,1.298-4.13,1.298c-0.315,0-0.669-0.59-1.062-1.77
				c-0.394-1.18-0.629-2.202-0.708-3.068C497.955,641.4,497.916,639.217,497.916,635.716z"/>
			<path d="M530.957,630.937c0,4.917,0.059,7.788,0.177,8.614c0.314,2.164,0.983,3.717,2.006,4.661c0,0.432-0.777,1.081-2.33,1.947
				c-1.555,0.865-2.96,1.298-4.219,1.298c-0.354,0-0.728-0.521-1.121-1.563c-0.394-1.042-0.619-1.819-0.678-2.33
				c-0.059-0.511-0.109-0.767-0.147-0.767l-0.177,0.118c-2.085,1.652-4.523,2.478-7.316,2.478c-2.793,0-4.947-0.678-6.46-2.035
				c-1.515-1.357-2.271-3.136-2.271-5.34c0-2.202,0.481-4.061,1.445-5.575c0.963-1.514,2.095-2.665,3.393-3.452
				c1.298-0.786,2.733-1.416,4.307-1.888c2.398-0.786,4.287-1.18,5.664-1.18l0.118-0.059c0-1.927-2.439-2.891-7.316-2.891
				c-1.928,0-3.363,0.08-4.307,0.236h-0.059c0-0.786,0.245-1.77,0.737-2.95c0.491-1.18,0.904-1.947,1.239-2.301
				c0.334-0.354,1.741-0.531,4.219-0.531c4.484,0,7.788,0.855,9.912,2.566s3.186,4.357,3.186,7.936V630.937z M524.407,634.713
				v-2.242c0-0.865-0.02-1.298-0.059-1.298c-2.635,0-4.917,0.688-6.844,2.065c-1.22,0.866-1.829,1.947-1.829,3.245
				c0,0.826,0.295,1.515,0.885,2.065c0.59,0.551,1.484,0.826,2.684,0.826c1.2,0,2.36-0.354,3.481-1.062
				C523.847,637.604,524.407,636.404,524.407,634.713z"/>
			<path d="M558.155,627.633l0.059,15.694c0,3.068-0.404,5.801-1.209,8.201c-0.807,2.398-1.79,4.248-2.95,5.546
				c-1.161,1.298-2.488,2.36-3.982,3.186c-2.439,1.376-4.917,2.065-7.434,2.065c-0.118,0-0.354-0.295-0.708-0.885
				c-0.354-0.59-0.688-1.387-1.003-2.39c-0.315-1.003-0.472-1.938-0.472-2.803c1.494,0,2.989-0.286,4.484-0.855
				c1.494-0.57,2.537-1.18,3.127-1.829c0.59-0.649,1.18-1.466,1.77-2.449c1.219-1.928,1.829-5.055,1.829-9.381l-0.059-1.711
				c0-0.236-0.04-0.354-0.118-0.354c-0.079,0-0.158,0.059-0.236,0.177c-0.079,0.118-0.177,0.266-0.295,0.442
				c-0.118,0.177-0.404,0.493-0.855,0.944c-0.453,0.453-0.935,0.855-1.446,1.209c-1.377,0.944-2.764,1.416-4.159,1.416
				c-1.397,0-2.499-0.177-3.304-0.531c-0.807-0.354-1.475-0.806-2.006-1.357c-0.531-0.55-0.974-1.328-1.328-2.331
				s-0.629-1.937-0.826-2.802c-0.197-0.865-0.334-2.045-0.413-3.54c-0.158-2.084-0.236-4.248-0.236-6.49
				c0-3.106,0.157-5.644,0.472-7.611l0.177-0.826c0-0.274,0.6-0.55,1.8-0.826c1.199-0.275,2.192-0.413,2.979-0.413l1.888,0.295
				c-0.433,3.894-0.649,7.179-0.649,9.853c0,2.675,0.275,4.897,0.826,6.667c0.55,1.77,1.475,2.655,2.773,2.655
				s2.331-0.383,3.098-1.15s1.248-1.524,1.445-2.271l0.295-1.121c-0.079-2.478-0.118-5.142-0.118-7.994
				c0-2.852,0.098-4.375,0.295-4.573c0.511-0.511,1.406-0.904,2.685-1.18c1.277-0.274,2.31-0.413,3.097-0.413
				c0.787,0,1.18,0.059,1.18,0.177C558.312,619.924,558.155,623.11,558.155,627.633z"/>
			<path d="M592.315,645.923c-5.743,0-10.089-1.652-13.039-4.956c-2.95-3.304-4.425-7.571-4.425-12.803
				c0-4.444,0.983-8.574,2.95-12.39c1.14-2.242,2.576-4.208,4.307-5.9c1.73-1.69,4.071-3.087,7.021-4.189
				c2.95-1.101,6.293-1.652,10.03-1.652c1.258,0,2.379,0.118,3.363,0.354c0.983,0.236,1.475,0.394,1.475,0.472
				c0,1.888-0.128,4.042-0.383,6.46c-0.256,2.419-0.404,3.649-0.443,3.688c-0.197,0.197-1.013,0.512-2.448,0.944
				c-1.437,0.433-2.507,0.649-3.215,0.649v-0.354c0-1.77-0.256-3.009-0.767-3.717c-0.512-0.708-1.397-1.062-2.655-1.062
				c-2.793,0-5.389,1.466-7.788,4.396c-2.4,2.931-3.599,6.953-3.599,12.065c0,2.714,0.668,5.153,2.006,7.316
				c0.708,1.142,1.741,2.065,3.098,2.773s2.959,1.062,4.809,1.062c3.696,0,7.295-1.711,10.797-5.133
				c0.157,0,0.481,0.246,0.974,0.737c0.491,0.492,0.973,1.151,1.445,1.977c0.983,1.574,1.475,2.537,1.475,2.891
				s-0.61,1.013-1.829,1.977c-1.22,0.964-3.068,1.938-5.546,2.92S594.911,645.923,592.315,645.923z"/>
			<path d="M631.579,641.527c-2.262,2.733-5.331,4.101-9.204,4.101c-3.875,0-6.913-1.201-9.115-3.599
				c-2.204-2.399-3.304-5.517-3.304-9.352s1.366-7.237,4.101-10.207c2.733-2.969,6.421-4.455,11.063-4.455
				c1.888,0.08,2.91,0.197,3.068,0.354c0.157,0.158,0.236,0.531,0.236,1.121s-0.059,1.239-0.177,1.947
				c0.59,0,1.347,0.345,2.271,1.032c0.924,0.688,1.682,1.387,2.271,2.095s1.101,1.702,1.534,2.979
				c0.432,1.278,0.649,2.705,0.649,4.277C634.972,635.559,633.84,638.794,631.579,641.527z M626.357,627.692
				c-0.905-0.59-1.79-0.885-2.655-0.885h-0.472c-0.079-0.157-0.118-0.491-0.118-1.003c0-0.511,0.059-1.003,0.177-1.475
				c-1.613,0-3.118,0.729-4.514,2.183c-1.396,1.456-2.094,3.481-2.094,6.077c0,3.068,0.982,5.192,2.95,6.372
				c0.747,0.472,1.779,0.708,3.098,0.708c1.317,0,2.557-0.609,3.717-1.829c1.16-1.219,1.74-3.028,1.74-5.428
				C628.187,630.013,627.576,628.44,626.357,627.692z"/>
			<path d="M639.691,635.716l0.236-21.358c0-3.107-0.04-5.211-0.118-6.313c-0.079-1.101-0.118-1.691-0.118-1.77
				c0-0.393,0.658-0.846,1.976-1.357c1.317-0.511,2.487-0.767,3.511-0.767c1.022,0,1.534,0.079,1.534,0.236
				c-0.197,1.456-0.295,6.569-0.295,15.34l-0.118,14.455c0,2.714,0.039,4.386,0.118,5.015c0.197,1.731,0.767,3.304,1.711,4.72
				c0,0.393-0.807,1.022-2.419,1.888c-1.613,0.865-2.989,1.298-4.13,1.298c-0.315,0-0.669-0.59-1.062-1.77
				c-0.394-1.18-0.629-2.202-0.708-3.068C639.73,641.4,639.691,639.217,639.691,635.716z"/>
			<path d="M673.292,641.527c-2.262,2.733-5.331,4.101-9.204,4.101c-3.875,0-6.913-1.201-9.115-3.599
				c-2.204-2.399-3.304-5.517-3.304-9.352s1.366-7.237,4.101-10.207c2.733-2.969,6.421-4.455,11.063-4.455
				c1.888,0.08,2.91,0.197,3.068,0.354c0.157,0.158,0.236,0.531,0.236,1.121s-0.059,1.239-0.177,1.947
				c0.59,0,1.347,0.345,2.271,1.032c0.924,0.688,1.682,1.387,2.271,2.095s1.101,1.702,1.534,2.979
				c0.432,1.278,0.649,2.705,0.649,4.277C676.684,635.559,675.553,638.794,673.292,641.527z M668.07,627.692
				c-0.905-0.59-1.79-0.885-2.655-0.885h-0.472c-0.079-0.157-0.118-0.491-0.118-1.003c0-0.511,0.059-1.003,0.177-1.475
				c-1.613,0-3.118,0.729-4.514,2.183c-1.396,1.456-2.094,3.481-2.094,6.077c0,3.068,0.982,5.192,2.95,6.372
				c0.747,0.472,1.779,0.708,3.098,0.708c1.317,0,2.557-0.609,3.717-1.829c1.16-1.219,1.74-3.028,1.74-5.428
				C669.899,630.013,669.289,628.44,668.07,627.692z"/>
			<path d="M681.522,636.129l-0.118-13.393c0-2.32,0.078-3.56,0.236-3.717c0.432-0.432,1.18-0.815,2.242-1.15
				c1.062-0.333,2.055-0.501,2.979-0.501c0.923,0,1.386,0.099,1.386,0.295c-0.118,1.062-0.177,2.271-0.177,3.628
				c0,1.357,0.039,2.036,0.118,2.036c0.079,0,0.157-0.049,0.236-0.147c0.078-0.098,0.207-0.255,0.383-0.472
				c0.177-0.215,0.55-0.599,1.121-1.15c0.57-0.55,1.189-1.022,1.858-1.416c1.691-1.101,3.5-1.652,5.428-1.652
				c0.314,0.512,0.472,1.298,0.472,2.36c0,2.242-0.275,3.835-0.826,4.779l-0.236,0.472l-0.767-0.118
				c-2.832,0-5.054,1.161-6.667,3.481c-0.629,0.944-0.944,1.652-0.944,2.124v5.192c0,4.72-0.059,7.139-0.177,7.257
				c-1.102,1.062-3.266,1.593-6.49,1.593c-0.315,0-0.472-0.059-0.472-0.177C681.383,643.917,681.522,640.81,681.522,636.129z"/>
			<path d="M721.641,607.219l-0.354,24.308c0,3.029,0.059,5.271,0.177,6.726c0.629,0.157,1.642,0.236,3.039,0.236
				c1.396,0,2.596-0.118,3.599-0.354c1.003-0.236,1.849-0.658,2.537-1.269c0.688-0.609,1.249-1.18,1.682-1.711
				c0.432-0.531,0.806-1.328,1.121-2.39c0.472-1.416,0.944-3.284,1.416-5.605c0-0.039,0.285-0.059,0.855-0.059
				c0.57,0,1.475,0.266,2.714,0.797c1.239,0.531,1.858,0.935,1.858,1.209c0,3.029-0.158,6.451-0.472,10.266
				c-0.315,4.248-0.699,6.372-1.151,6.372c-0.453,0-1.327-0.167-2.625-0.501c-1.298-0.334-2.281-0.64-2.95-0.915
				c-3.54,0.59-8.123,0.904-13.747,0.944l-2.95,0.059l-2.36-0.295c-0.158-0.158-0.236-1.888-0.236-5.192l0.236-22.597
				c0-4.602-0.109-7.05-0.325-7.345c-0.216-0.295-0.581-1.042-1.091-2.242c-0.512-1.199-0.767-1.977-0.767-2.331
				c0-0.157,0.433-0.373,1.298-0.649c2.163-0.786,4.071-1.18,5.723-1.18c1.652,0,2.527,0.059,2.625,0.177
				C721.591,603.797,721.641,604.977,721.641,607.219z"/>
			<path d="M765.773,630.937c0,4.917,0.059,7.788,0.177,8.614c0.314,2.164,0.983,3.717,2.006,4.661c0,0.432-0.777,1.081-2.33,1.947
				c-1.555,0.865-2.96,1.298-4.219,1.298c-0.354,0-0.728-0.521-1.121-1.563c-0.394-1.042-0.619-1.819-0.678-2.33
				c-0.059-0.511-0.109-0.767-0.147-0.767l-0.177,0.118c-2.085,1.652-4.523,2.478-7.316,2.478c-2.793,0-4.947-0.678-6.46-2.035
				c-1.515-1.357-2.271-3.136-2.271-5.34c0-2.202,0.481-4.061,1.445-5.575c0.963-1.514,2.095-2.665,3.393-3.452
				c1.298-0.786,2.733-1.416,4.307-1.888c2.398-0.786,4.287-1.18,5.664-1.18l0.118-0.059c0-1.927-2.439-2.891-7.316-2.891
				c-1.928,0-3.363,0.08-4.307,0.236h-0.059c0-0.786,0.245-1.77,0.737-2.95c0.491-1.18,0.904-1.947,1.239-2.301
				c0.334-0.354,1.741-0.531,4.219-0.531c4.484,0,7.788,0.855,9.912,2.566s3.186,4.357,3.186,7.936V630.937z M759.224,634.713
				v-2.242c0-0.865-0.02-1.298-0.059-1.298c-2.635,0-4.917,0.688-6.844,2.065c-1.22,0.866-1.829,1.947-1.829,3.245
				c0,0.826,0.295,1.515,0.885,2.065c0.59,0.551,1.484,0.826,2.684,0.826c1.2,0,2.36-0.354,3.481-1.062
				C758.663,637.604,759.224,636.404,759.224,634.713z"/>
			<path d="M771.614,635.598l-0.118-21.771c0-4.917,0.098-7.473,0.295-7.67c0.472-0.472,1.248-0.924,2.331-1.357
				c1.081-0.433,2.114-0.649,3.097-0.649c0.983,0,1.475,0.079,1.475,0.236c-0.079,0.394-0.187,2.625-0.324,6.696
				c-0.139,4.071-0.188,6.599-0.147,7.582h0.944c4.366,0,7.925,1.003,10.679,3.009c1.101,0.826,2.065,2.056,2.891,3.688
				c0.826,1.632,1.239,3.531,1.239,5.693c0,3.737-1.515,6.854-4.543,9.352c-3.029,2.498-6.747,4.101-11.151,4.809
				c0,0.904-0.02,1.396-0.059,1.475c-0.512,0.511-1.407,0.904-2.685,1.18c-1.279,0.275-2.321,0.413-3.127,0.413
				c-0.807,0-1.209-0.059-1.209-0.177C771.476,647.004,771.614,642.836,771.614,635.598z M778.399,638.725
				c1.022,0,2.084-0.167,3.186-0.501c1.101-0.333,1.996-0.757,2.685-1.269c0.688-0.511,1.317-1.317,1.888-2.419
				c0.569-1.101,0.855-2.537,0.855-4.307c0-1.77-0.62-3.127-1.859-4.071c-1.239-0.944-2.665-1.416-4.277-1.416l-2.714,0.177v4.248
				C778.163,634.477,778.241,637.663,778.399,638.725z"/>
			<path d="M831.557,630.937c0,4.917,0.059,7.788,0.177,8.614c0.314,2.164,0.983,3.717,2.006,4.661c0,0.432-0.777,1.081-2.33,1.947
				c-1.555,0.865-2.96,1.298-4.219,1.298c-0.354,0-0.728-0.521-1.121-1.563c-0.394-1.042-0.619-1.819-0.678-2.33
				c-0.059-0.511-0.109-0.767-0.147-0.767l-0.177,0.118c-2.085,1.652-4.523,2.478-7.316,2.478c-2.793,0-4.947-0.678-6.46-2.035
				c-1.515-1.357-2.271-3.136-2.271-5.34c0-2.202,0.481-4.061,1.445-5.575c0.963-1.514,2.095-2.665,3.393-3.452
				c1.298-0.786,2.733-1.416,4.307-1.888c2.398-0.786,4.287-1.18,5.664-1.18l0.118-0.059c0-1.927-2.439-2.891-7.316-2.891
				c-1.928,0-3.363,0.08-4.307,0.236h-0.059c0-0.786,0.245-1.77,0.737-2.95c0.491-1.18,0.904-1.947,1.239-2.301
				c0.334-0.354,1.741-0.531,4.219-0.531c4.484,0,7.788,0.855,9.912,2.566s3.186,4.357,3.186,7.936V630.937z M825.008,634.713
				v-2.242c0-0.865-0.02-1.298-0.059-1.298c-2.635,0-4.917,0.688-6.844,2.065c-1.22,0.866-1.829,1.947-1.829,3.245
				c0,0.826,0.295,1.515,0.885,2.065c0.59,0.551,1.484,0.826,2.684,0.826c1.2,0,2.36-0.354,3.481-1.062
				C824.447,637.604,825.008,636.404,825.008,634.713z"/>
			<path d="M837.575,635.716l0.236-21.358c0-3.107-0.04-5.211-0.118-6.313c-0.079-1.101-0.118-1.691-0.118-1.77
				c0-0.393,0.658-0.846,1.976-1.357c1.317-0.511,2.487-0.767,3.511-0.767c1.022,0,1.534,0.079,1.534,0.236
				c-0.197,1.456-0.295,6.569-0.295,15.34l-0.118,14.455c0,2.714,0.039,4.386,0.118,5.015c0.197,1.731,0.767,3.304,1.711,4.72
				c0,0.393-0.807,1.022-2.419,1.888c-1.613,0.865-2.989,1.298-4.13,1.298c-0.315,0-0.669-0.59-1.062-1.77
				c-0.394-1.18-0.629-2.202-0.708-3.068C837.614,641.4,837.575,639.217,837.575,635.716z"/>
			<path d="M871.175,641.527c-2.262,2.733-5.331,4.101-9.204,4.101c-3.875,0-6.913-1.201-9.115-3.599
				c-2.204-2.399-3.304-5.517-3.304-9.352s1.366-7.237,4.101-10.207c2.733-2.969,6.421-4.455,11.063-4.455
				c1.888,0.08,2.91,0.197,3.068,0.354c0.157,0.158,0.236,0.531,0.236,1.121s-0.059,1.239-0.177,1.947
				c0.59,0,1.347,0.345,2.271,1.032c0.924,0.688,1.682,1.387,2.271,2.095s1.101,1.702,1.534,2.979
				c0.432,1.278,0.649,2.705,0.649,4.277C874.568,635.559,873.437,638.794,871.175,641.527z M865.954,627.692
				c-0.905-0.59-1.79-0.885-2.655-0.885h-0.472c-0.079-0.157-0.118-0.491-0.118-1.003c0-0.511,0.059-1.003,0.177-1.475
				c-1.613,0-3.118,0.729-4.514,2.183c-1.396,1.456-2.094,3.481-2.094,6.077c0,3.068,0.982,5.192,2.95,6.372
				c0.747,0.472,1.779,0.708,3.098,0.708c1.317,0,2.557-0.609,3.717-1.829c1.16-1.219,1.74-3.028,1.74-5.428
				C867.783,630.013,867.172,628.44,865.954,627.692z"/>
			<path d="M886.426,630.819l0.059,2.183v4.484c0,4.209-0.079,6.392-0.236,6.549c-0.512,0.511-1.397,0.904-2.655,1.18
				c-1.259,0.274-2.292,0.413-3.097,0.413c-0.807,0-1.209-0.059-1.209-0.177c0.274-1.77,0.413-4.68,0.413-8.732l-0.177-13.275
				c0-2.438,0.098-3.756,0.295-3.953c0.433-0.432,1.18-0.816,2.242-1.15c1.062-0.334,2.055-0.501,2.979-0.501
				c0.923,0,1.386,0.099,1.386,0.295c-0.118,0.944-0.177,1.888-0.177,2.832s0.059,1.416,0.177,1.416l0.177-0.118
				c0.196-0.274,0.491-0.62,0.885-1.032c0.393-0.413,1.229-0.963,2.508-1.652c1.277-0.688,2.497-1.032,3.658-1.032
				c1.16,0,2.144,0.207,2.95,0.619c0.806,0.413,1.465,0.915,1.977,1.505c0.511,0.59,0.953,1.436,1.327,2.537
				c0.374,1.102,0.658,2.124,0.855,3.068c0.197,0.944,0.354,2.203,0.472,3.776c0.118,2.164,0.177,4.917,0.177,8.26l-0.177,6.903
				c0,0.274-0.649,0.54-1.947,0.796c-1.298,0.255-2.341,0.383-3.127,0.383l-1.947-0.295c0.393-3.54,0.59-6.971,0.59-10.295
				c0-3.323-0.216-5.821-0.649-7.493c-0.433-1.671-1.298-2.507-2.596-2.507c-1.298,0-2.351,0.354-3.157,1.062
				c-0.807,0.708-1.328,1.416-1.563,2.124l-0.413,1.003V630.819z"/>
			<path d="M925.484,644.094c-1.337,0.904-3.953,1.357-7.847,1.357c-3.894,0-6.884-1.161-8.968-3.481
				c-2.085-2.32-3.127-5.418-3.127-9.292c0-3.874,1.248-7.237,3.747-10.089c2.497-2.852,6.008-4.278,10.531-4.278
				c1.849,0,3.549,0.493,5.104,1.475c1.554,0.984,2.331,2.705,2.331,5.163c0,2.458-1.072,4.888-3.215,7.287
				c-2.145,2.399-5.065,4.229-8.762,5.487c0,0.472,0.481,0.855,1.446,1.15c0.963,0.295,1.917,0.443,2.861,0.443
				c2.989,0,5.349-0.531,7.08-1.593c0.039-0.039,0.098-0.059,0.177-0.059c0.079,0,0.118,0.375,0.118,1.121
				C926.959,641.065,926.467,642.836,925.484,644.094z M920.351,625.332c0-1.14-0.61-1.711-1.829-1.711
				c-1.613,0-3.029,0.826-4.248,2.478c-1.22,1.652-1.829,3.639-1.829,5.959c0,0.551,0.079,0.826,0.236,0.826
				c1.416-0.039,3.047-0.855,4.897-2.449C919.426,628.842,920.351,627.142,920.351,625.332z"/>
			<path d="M937.342,641.557c0,2.518-0.492,4.474-1.475,5.871c-0.984,1.396-1.908,2.192-2.773,2.39c-1.18,0-2.006-0.453-2.478-1.357
				c1.77-1.259,2.752-2.695,2.95-4.307c-2.164,0-3.245-1.022-3.245-3.068c0-1.101,0.325-2.036,0.974-2.803s1.534-1.15,2.655-1.15
				c1.121,0,1.966,0.442,2.537,1.328C937.057,639.344,937.342,640.377,937.342,641.557z"/>
			<path d="M961.296,630.819l0.059,2.183v4.484c0,4.209-0.079,6.392-0.236,6.549c-0.512,0.511-1.397,0.904-2.655,1.18
				c-1.259,0.274-2.292,0.413-3.097,0.413c-0.807,0-1.209-0.059-1.209-0.177c0.274-1.77,0.413-4.68,0.413-8.732l-0.177-13.275
				c0-2.438,0.098-3.756,0.295-3.953c0.433-0.432,1.18-0.816,2.242-1.15c1.062-0.334,2.055-0.501,2.979-0.501
				c0.923,0,1.386,0.099,1.386,0.295c-0.118,0.944-0.177,1.888-0.177,2.832s0.059,1.416,0.177,1.416l0.177-0.118
				c0.196-0.274,0.491-0.62,0.885-1.032c0.393-0.413,1.229-0.963,2.508-1.652c1.277-0.688,2.497-1.032,3.658-1.032
				c1.16,0,2.144,0.207,2.95,0.619c0.806,0.413,1.465,0.915,1.977,1.505c0.511,0.59,0.953,1.436,1.327,2.537
				c0.374,1.102,0.658,2.124,0.855,3.068c0.197,0.944,0.354,2.203,0.472,3.776c0.118,2.164,0.177,4.917,0.177,8.26l-0.177,6.903
				c0,0.274-0.649,0.54-1.947,0.796c-1.298,0.255-2.341,0.383-3.127,0.383l-1.947-0.295c0.393-3.54,0.59-6.971,0.59-10.295
				c0-3.323-0.216-5.821-0.649-7.493c-0.433-1.671-1.298-2.507-2.596-2.507c-1.298,0-2.351,0.354-3.157,1.062
				c-0.807,0.708-1.328,1.416-1.563,2.124l-0.413,1.003V630.819z"/>
			<path d="M1002.036,641.527c-2.262,2.733-5.331,4.101-9.204,4.101c-3.875,0-6.913-1.201-9.115-3.599
				c-2.204-2.399-3.304-5.517-3.304-9.352s1.366-7.237,4.101-10.207c2.733-2.969,6.421-4.455,11.063-4.455
				c1.888,0.08,2.91,0.197,3.068,0.354c0.157,0.158,0.236,0.531,0.236,1.121s-0.059,1.239-0.177,1.947
				c0.59,0,1.347,0.345,2.271,1.032c0.924,0.688,1.682,1.387,2.271,2.095s1.101,1.702,1.534,2.979
				c0.432,1.278,0.649,2.705,0.649,4.277C1005.428,635.559,1004.297,638.794,1002.036,641.527z M996.814,627.692
				c-0.905-0.59-1.79-0.885-2.655-0.885h-0.472c-0.079-0.157-0.118-0.491-0.118-1.003c0-0.511,0.059-1.003,0.177-1.475
				c-1.613,0-3.118,0.729-4.514,2.183c-1.396,1.456-2.094,3.481-2.094,6.077c0,3.068,0.982,5.192,2.95,6.372
				c0.747,0.472,1.779,0.708,3.098,0.708c1.317,0,2.557-0.609,3.717-1.829c1.16-1.219,1.74-3.028,1.74-5.428
				C998.643,630.013,998.033,628.44,996.814,627.692z"/>
			<path d="M1038.055,621.202c2.635,0,3.992,0.256,4.071,0.767c1.298,7.355,2.34,11.84,3.127,13.452h0.236
				c0.865-1.849,1.829-5.074,2.891-9.676s1.671-7.866,1.829-9.794c2.36,0,4.287,0.413,5.782,1.239
				c0.472,0.236,0.708,0.394,0.708,0.472c0,1.731-0.6,4.779-1.8,9.145c-1.2,4.366-2.399,8.329-3.599,11.889
				c-1.201,3.56-1.879,5.418-2.036,5.575c-0.158,0.157-0.846,0.325-2.065,0.502c-1.22,0.177-2.341,0.265-3.363,0.265
				c-1.023,0-1.691-0.079-2.006-0.236c-0.354-0.354-1.003-2.261-1.947-5.723c-0.944-3.46-1.593-6.391-1.947-8.791h-0.177
				c-0.59,2.4-1.387,5.232-2.39,8.496c-1.003,3.265-1.623,5.025-1.858,5.281c-0.236,0.255-1.023,0.511-2.36,0.767
				c-1.337,0.255-2.399,0.384-3.186,0.384c-0.787,0-1.239-0.059-1.357-0.177c-0.315-0.275-1.495-4.168-3.54-11.682
				c-2.045-7.513-3.068-12.213-3.068-14.101c0-0.079,0.207-0.245,0.62-0.501c0.413-0.255,1.14-0.511,2.183-0.767
				c1.042-0.255,2.212-0.384,3.51-0.384c1.455,8.576,2.792,14.219,4.012,16.933c0.078,0.197,0.177,0.197,0.295,0
				c0.668-1.298,1.357-3.304,2.065-6.018c0.708-2.714,1.14-4.897,1.298-6.549c0.039-0.196,0.511-0.374,1.416-0.531
				C1036.304,621.281,1037.189,621.202,1038.055,621.202z"/>
			<path d="M1081.095,641.527c-2.262,2.733-5.331,4.101-9.204,4.101c-3.875,0-6.913-1.201-9.115-3.599
				c-2.204-2.399-3.304-5.517-3.304-9.352s1.366-7.237,4.101-10.207c2.733-2.969,6.421-4.455,11.063-4.455
				c1.888,0.08,2.91,0.197,3.068,0.354c0.157,0.158,0.236,0.531,0.236,1.121s-0.059,1.239-0.177,1.947
				c0.59,0,1.347,0.345,2.271,1.032c0.924,0.688,1.682,1.387,2.271,2.095s1.101,1.702,1.534,2.979
				c0.432,1.278,0.649,2.705,0.649,4.277C1084.487,635.559,1083.356,638.794,1081.095,641.527z M1075.873,627.692
				c-0.905-0.59-1.79-0.885-2.655-0.885h-0.472c-0.079-0.157-0.118-0.491-0.118-1.003c0-0.511,0.059-1.003,0.177-1.475
				c-1.613,0-3.118,0.729-4.514,2.183c-1.396,1.456-2.094,3.481-2.094,6.077c0,3.068,0.982,5.192,2.95,6.372
				c0.747,0.472,1.779,0.708,3.098,0.708c1.317,0,2.557-0.609,3.717-1.829c1.16-1.219,1.74-3.028,1.74-5.428
				C1077.702,630.013,1077.092,628.44,1075.873,627.692z"/>
			<path d="M1089.325,636.129l-0.118-13.393c0-2.32,0.078-3.56,0.236-3.717c0.432-0.432,1.18-0.815,2.242-1.15
				c1.062-0.333,2.055-0.501,2.979-0.501c0.923,0,1.386,0.099,1.386,0.295c-0.118,1.062-0.177,2.271-0.177,3.628
				c0,1.357,0.039,2.036,0.118,2.036c0.079,0,0.157-0.049,0.236-0.147c0.078-0.098,0.207-0.255,0.383-0.472
				c0.177-0.215,0.55-0.599,1.121-1.15c0.57-0.55,1.189-1.022,1.858-1.416c1.691-1.101,3.5-1.652,5.428-1.652
				c0.314,0.512,0.472,1.298,0.472,2.36c0,2.242-0.275,3.835-0.826,4.779l-0.236,0.472l-0.767-0.118
				c-2.832,0-5.054,1.161-6.667,3.481c-0.629,0.944-0.944,1.652-0.944,2.124v5.192c0,4.72-0.059,7.139-0.177,7.257
				c-1.102,1.062-3.266,1.593-6.49,1.593c-0.315,0-0.472-0.059-0.472-0.177C1089.187,643.917,1089.325,640.81,1089.325,636.129z"/>
			<path d="M1108.558,636.129l-0.118-13.393c0-2.32,0.078-3.56,0.236-3.717c0.432-0.432,1.18-0.815,2.242-1.15
				c1.062-0.333,2.055-0.501,2.979-0.501c0.923,0,1.386,0.099,1.386,0.295c-0.118,1.062-0.177,2.271-0.177,3.628
				c0,1.357,0.039,2.036,0.118,2.036c0.079,0,0.157-0.049,0.236-0.147c0.078-0.098,0.207-0.255,0.383-0.472
				c0.177-0.215,0.55-0.599,1.121-1.15c0.57-0.55,1.189-1.022,1.858-1.416c1.691-1.101,3.5-1.652,5.428-1.652
				c0.314,0.512,0.472,1.298,0.472,2.36c0,2.242-0.275,3.835-0.826,4.779l-0.236,0.472l-0.767-0.118
				c-2.832,0-5.054,1.161-6.667,3.481c-0.629,0.944-0.944,1.652-0.944,2.124v5.192c0,4.72-0.059,7.139-0.177,7.257
				c-1.102,1.062-3.266,1.593-6.49,1.593c-0.315,0-0.472-0.059-0.472-0.177C1108.42,643.917,1108.558,640.81,1108.558,636.129z"/>
			<path d="M1131.892,608.871c1.082,0,1.956,0.354,2.625,1.062c0.668,0.708,1.003,1.633,1.003,2.773
				c0,1.142-0.442,2.115-1.327,2.921c-0.885,0.807-1.869,1.209-2.95,1.209c-1.083,0-1.947-0.344-2.596-1.033
				c-0.649-0.688-0.973-1.602-0.973-2.744c0-1.14,0.432-2.124,1.298-2.95C1129.836,609.284,1130.81,608.871,1131.892,608.871z
				 M1134.872,623.562l-0.118,9.558c0,3.068,0.089,5.32,0.266,6.756c0.177,1.436,0.679,2.783,1.504,4.042
				c0,0.393-0.807,1.022-2.419,1.888c-1.613,0.865-2.989,1.298-4.13,1.298c-0.354,0-0.708-0.59-1.062-1.77
				c-0.354-1.18-0.581-2.301-0.678-3.363c-0.099-1.062-0.148-4.641-0.148-10.738c0-6.097,0.138-9.42,0.413-9.971
				c0.904-0.708,2.498-1.062,4.779-1.062c0.904,0,1.455,0.118,1.652,0.354L1134.872,623.562z"/>
			<path d="M1159.415,644.094c-1.337,0.904-3.953,1.357-7.847,1.357c-3.894,0-6.884-1.161-8.968-3.481
				c-2.085-2.32-3.127-5.418-3.127-9.292c0-3.874,1.248-7.237,3.747-10.089c2.497-2.852,6.008-4.278,10.531-4.278
				c1.849,0,3.549,0.493,5.104,1.475c1.554,0.984,2.331,2.705,2.331,5.163c0,2.458-1.072,4.888-3.215,7.287
				c-2.145,2.399-5.065,4.229-8.762,5.487c0,0.472,0.481,0.855,1.446,1.15c0.963,0.295,1.917,0.443,2.861,0.443
				c2.989,0,5.349-0.531,7.08-1.593c0.039-0.039,0.098-0.059,0.177-0.059c0.079,0,0.118,0.375,0.118,1.121
				C1160.89,641.065,1160.397,642.836,1159.415,644.094z M1154.282,625.332c0-1.14-0.61-1.711-1.829-1.711
				c-1.613,0-3.029,0.826-4.248,2.478c-1.22,1.652-1.829,3.639-1.829,5.959c0,0.551,0.079,0.826,0.236,0.826
				c1.416-0.039,3.047-0.855,4.897-2.449C1153.357,628.842,1154.282,627.142,1154.282,625.332z"/>
			<path d="M1182.188,637.309c0,2.124-0.994,4.022-2.979,5.694c-1.986,1.671-4.13,2.871-6.431,3.599
				c-2.301,0.728-4.317,1.092-6.048,1.092c-0.197,0-0.472-0.236-0.826-0.708c-0.984-1.298-1.475-2.813-1.475-4.543v-0.413
				c3.068,0,5.408-0.531,7.021-1.593c1.612-1.062,2.419-2.163,2.419-3.304c0-0.747-0.492-1.534-1.475-2.36
				c-0.983-0.826-2.065-1.554-3.245-2.183c-1.18-0.629-2.263-1.465-3.245-2.508c-0.984-1.042-1.475-2.133-1.475-3.274
				c0-2.398,1.494-4.602,4.484-6.608c2.989-2.006,6.175-3.009,9.558-3.009c0.393,0,0.904,0.541,1.534,1.622
				c0.628,1.083,0.963,2.193,1.003,3.333c-0.788,0-1.967,0.236-3.54,0.708c-3.108,0.984-4.661,2.204-4.661,3.658
				c0,1.023,1.534,2.419,4.602,4.189c1.18,0.669,2.261,1.593,3.245,2.773C1181.637,634.654,1182.148,635.933,1182.188,637.309z"/>
			<path d="M1189.857,632.294l-2.419-0.295c0-3.736-0.167-7.807-0.501-12.213c-0.334-4.405-0.678-7.866-1.032-10.384l-0.472-3.835
				c0.354-0.354,1.534-0.59,3.54-0.708l0.944-0.059c2.124,0,3.599,0.275,4.425,0.826c0.118,0.079,0.177,0.147,0.177,0.206
				c0,0.059-0.05,0.315-0.147,0.767c-0.099,0.453-0.207,0.984-0.325,1.593c-0.118,0.61-0.236,1.269-0.354,1.977
				c-0.275,1.652-0.413,2.832-0.413,3.54s-0.059,2.36-0.177,4.956c-0.433,7.434-0.708,11.84-0.826,13.216
				C1191.489,632.156,1190.684,632.294,1189.857,632.294z M1192.778,637.574c0.767,0.767,1.15,1.702,1.15,2.803
				c0,1.102-0.384,2.035-1.15,2.802c-0.767,0.767-1.702,1.15-2.803,1.15c-1.102,0-2.036-0.383-2.802-1.15
				c-0.767-0.767-1.151-1.701-1.151-2.802c0-1.101,0.384-2.036,1.151-2.803c0.767-0.767,1.701-1.15,2.802-1.15
				C1191.076,636.424,1192.011,636.807,1192.778,637.574z"/>
			<path d="M68.23,710.173l0.413-24.544c0-2.006-0.05-3.058-0.147-3.156c-0.099-0.098-0.423-0.147-0.974-0.147
				c-1.22,0-3.383,0.197-6.49,0.59l-1.593,0.236l-0.177-1.534c0-1.888,0.314-3.54,0.944-4.956l0.354-0.708
				c3.068-0.039,6.539-0.167,10.413-0.384c3.874-0.215,7.375-0.324,10.502-0.324c3.127,0,4.69,0.079,4.69,0.236
				c0,1.142-0.099,2.508-0.295,4.101c-0.197,1.593-0.434,2.528-0.708,2.803c-0.905-0.197-2.577-0.295-5.015-0.295
				c-2.439,0-3.717,0.059-3.835,0.177c-0.276,0.275-0.413,5.409-0.413,15.399c0,9.991,0.59,16.068,1.77,18.231v0.059
				c0,0.354-0.767,0.688-2.301,1.003c-1.534,0.314-2.753,0.472-3.658,0.472c-1.259,0-2.282-0.177-3.068-0.531
				C68.367,716.585,68.23,714.343,68.23,710.173z"/>
			<path d="M89.293,703.448l-0.177-20.473c0-3.815,0.098-5.821,0.295-6.018c0.472-0.472,1.239-0.924,2.301-1.357
				c1.062-0.433,2.084-0.649,3.068-0.649c0.983,0,1.475,0.079,1.475,0.236c-0.04,0.354-0.118,2.931-0.236,7.729
				c-0.118,4.799-0.177,7.946-0.177,9.44v0.531c0,0.197,0.059,0.295,0.177,0.295l1.18-1.18c0.433-0.393,1.308-0.934,2.625-1.623
				c1.317-0.688,2.557-1.032,3.717-1.032c1.16,0,2.124,0.197,2.891,0.59c0.767,0.394,1.406,0.866,1.917,1.416
				c0.511,0.551,0.944,1.348,1.298,2.39c0.354,1.042,0.62,2.006,0.796,2.891c0.177,0.885,0.325,2.095,0.442,3.629
				c0.118,2.085,0.177,4.72,0.177,7.906l-0.236,7.847c-0.118,0.314-0.788,0.59-2.006,0.826c-1.219,0.236-2.223,0.354-3.009,0.354
				l-1.947-0.295c0.393-3.54,0.59-6.941,0.59-10.207c0-3.264-0.236-5.742-0.708-7.434c-0.472-1.691-1.437-2.537-2.891-2.537
				c-0.944,0-1.829,0.374-2.655,1.121c-0.826,0.748-1.397,1.495-1.711,2.242l-0.531,1.121c0.078,2.714,0.118,5.625,0.118,8.732
				c0,3.108-0.099,4.74-0.295,4.897c-1.18,1.062-3.343,1.593-6.49,1.593c-0.315,0-0.472-0.059-0.472-0.177
				C89.135,714.52,89.293,710.253,89.293,703.448z"/>
			<path d="M135.134,714.894c-1.337,0.904-3.953,1.357-7.847,1.357c-3.894,0-6.884-1.161-8.968-3.481
				c-2.085-2.32-3.127-5.418-3.127-9.292c0-3.874,1.248-7.237,3.747-10.089c2.497-2.852,6.008-4.278,10.531-4.278
				c1.849,0,3.549,0.493,5.104,1.475c1.554,0.984,2.331,2.705,2.331,5.163c0,2.458-1.072,4.888-3.215,7.287
				c-2.145,2.399-5.065,4.229-8.762,5.487c0,0.472,0.481,0.855,1.446,1.15c0.963,0.295,1.917,0.443,2.861,0.443
				c2.989,0,5.349-0.531,7.08-1.593c0.039-0.039,0.098-0.059,0.177-0.059c0.079,0,0.118,0.375,0.118,1.121
				C136.609,711.865,136.117,713.635,135.134,714.894z M130.002,696.131c0-1.14-0.61-1.711-1.829-1.711
				c-1.613,0-3.029,0.826-4.248,2.478c-1.22,1.652-1.829,3.639-1.829,5.959c0,0.551,0.079,0.826,0.236,0.826
				c1.416-0.039,3.047-0.855,4.897-2.449C129.077,699.642,130.002,697.941,130.002,696.131z"/>
			<path d="M141.447,706.929l-0.118-13.393c0-2.32,0.078-3.56,0.236-3.717c0.432-0.432,1.18-0.815,2.242-1.15
				c1.062-0.333,2.055-0.501,2.979-0.501c0.923,0,1.386,0.099,1.386,0.295c-0.118,1.062-0.177,2.271-0.177,3.628
				c0,1.357,0.039,2.036,0.118,2.036c0.079,0,0.157-0.049,0.236-0.147c0.078-0.098,0.207-0.255,0.383-0.472
				c0.177-0.215,0.55-0.599,1.121-1.15c0.57-0.55,1.189-1.022,1.858-1.416c1.691-1.101,3.5-1.652,5.428-1.652
				c0.314,0.512,0.472,1.298,0.472,2.36c0,2.242-0.275,3.835-0.826,4.779l-0.236,0.472l-0.767-0.118
				c-2.832,0-5.054,1.161-6.667,3.481c-0.629,0.944-0.944,1.652-0.944,2.124v5.192c0,4.72-0.059,7.139-0.177,7.257
				c-1.102,1.062-3.266,1.593-6.49,1.593c-0.315,0-0.472-0.059-0.472-0.177C141.309,714.717,141.447,711.61,141.447,706.929z"/>
			<path d="M179.324,714.894c-1.337,0.904-3.953,1.357-7.847,1.357c-3.894,0-6.884-1.161-8.968-3.481
				c-2.085-2.32-3.127-5.418-3.127-9.292c0-3.874,1.248-7.237,3.747-10.089c2.497-2.852,6.008-4.278,10.531-4.278
				c1.849,0,3.549,0.493,5.104,1.475c1.554,0.984,2.331,2.705,2.331,5.163c0,2.458-1.072,4.888-3.215,7.287
				c-2.145,2.399-5.065,4.229-8.762,5.487c0,0.472,0.481,0.855,1.446,1.15c0.963,0.295,1.917,0.443,2.861,0.443
				c2.989,0,5.349-0.531,7.08-1.593c0.039-0.039,0.098-0.059,0.177-0.059c0.079,0,0.118,0.375,0.118,1.121
				C180.799,711.865,180.307,713.635,179.324,714.894z M174.191,696.131c0-1.14-0.61-1.711-1.829-1.711
				c-1.613,0-3.029,0.826-4.248,2.478c-1.22,1.652-1.829,3.639-1.829,5.959c0,0.551,0.079,0.826,0.236,0.826
				c1.416-0.039,3.047-0.855,4.897-2.449C173.267,699.642,174.191,697.941,174.191,696.131z"/>
			<path d="M213.426,692.002c2.635,0,3.992,0.256,4.071,0.767c1.298,7.355,2.34,11.84,3.127,13.452h0.236
				c0.865-1.849,1.829-5.074,2.891-9.676s1.671-7.866,1.829-9.794c2.36,0,4.287,0.413,5.782,1.239
				c0.472,0.236,0.708,0.394,0.708,0.472c0,1.731-0.6,4.779-1.8,9.145c-1.2,4.366-2.399,8.329-3.599,11.889
				c-1.201,3.56-1.879,5.418-2.036,5.575c-0.158,0.157-0.846,0.325-2.065,0.502c-1.22,0.177-2.341,0.265-3.363,0.265
				c-1.023,0-1.691-0.079-2.006-0.236c-0.354-0.354-1.003-2.261-1.947-5.723c-0.944-3.46-1.593-6.391-1.947-8.791h-0.177
				c-0.59,2.4-1.387,5.232-2.39,8.496c-1.003,3.265-1.623,5.025-1.858,5.281c-0.236,0.255-1.023,0.511-2.36,0.767
				c-1.337,0.255-2.399,0.384-3.186,0.384c-0.787,0-1.239-0.059-1.357-0.177c-0.315-0.275-1.495-4.168-3.54-11.682
				c-2.045-7.513-3.068-12.213-3.068-14.101c0-0.079,0.207-0.245,0.62-0.501c0.413-0.255,1.14-0.511,2.183-0.767
				c1.042-0.255,2.212-0.384,3.51-0.384c1.455,8.576,2.792,14.219,4.012,16.933c0.078,0.197,0.177,0.197,0.295,0
				c0.668-1.298,1.357-3.304,2.065-6.018c0.708-2.714,1.14-4.897,1.298-6.549c0.039-0.196,0.511-0.374,1.416-0.531
				C211.675,692.081,212.56,692.002,213.426,692.002z"/>
			<path d="M240.241,679.67c1.082,0,1.956,0.354,2.625,1.062c0.668,0.708,1.003,1.633,1.003,2.773c0,1.142-0.442,2.115-1.327,2.921
				c-0.885,0.807-1.869,1.209-2.95,1.209c-1.083,0-1.947-0.344-2.596-1.033c-0.649-0.688-0.973-1.602-0.973-2.744
				c0-1.14,0.432-2.124,1.298-2.95C238.185,680.084,239.159,679.67,240.241,679.67z M243.22,694.361l-0.118,9.558
				c0,3.068,0.089,5.32,0.266,6.756c0.177,1.436,0.679,2.783,1.504,4.042c0,0.393-0.807,1.022-2.419,1.888
				c-1.613,0.865-2.989,1.298-4.13,1.298c-0.354,0-0.708-0.59-1.062-1.77c-0.354-1.18-0.581-2.301-0.678-3.363
				c-0.099-1.062-0.148-4.641-0.148-10.738c0-6.097,0.138-9.42,0.413-9.971c0.904-0.708,2.498-1.062,4.779-1.062
				c0.904,0,1.455,0.118,1.652,0.354L243.22,694.361z"/>
			<path d="M249.002,706.516l0.236-21.358c0-3.107-0.04-5.211-0.118-6.313c-0.079-1.101-0.118-1.691-0.118-1.77
				c0-0.393,0.658-0.846,1.976-1.357c1.317-0.511,2.487-0.767,3.511-0.767c1.022,0,1.534,0.079,1.534,0.236
				c-0.197,1.456-0.295,6.569-0.295,15.34l-0.118,14.455c0,2.714,0.039,4.386,0.118,5.015c0.197,1.731,0.767,3.304,1.711,4.72
				c0,0.393-0.807,1.022-2.419,1.888c-1.613,0.865-2.989,1.298-4.13,1.298c-0.315,0-0.669-0.59-1.062-1.77
				c-0.394-1.18-0.629-2.202-0.708-3.068C249.04,712.2,249.002,710.017,249.002,706.516z"/>
			<path d="M262.158,706.516l0.236-21.358c0-3.107-0.04-5.211-0.118-6.313c-0.079-1.101-0.118-1.691-0.118-1.77
				c0-0.393,0.658-0.846,1.976-1.357c1.317-0.511,2.487-0.767,3.511-0.767c1.022,0,1.534,0.079,1.534,0.236
				c-0.197,1.456-0.295,6.569-0.295,15.34l-0.118,14.455c0,2.714,0.039,4.386,0.118,5.015c0.197,1.731,0.767,3.304,1.711,4.72
				c0,0.393-0.807,1.022-2.419,1.888c-1.613,0.865-2.989,1.298-4.13,1.298c-0.315,0-0.669-0.59-1.062-1.77
				c-0.394-1.18-0.629-2.202-0.708-3.068C262.197,712.2,262.158,710.017,262.158,706.516z"/>
			<path d="M303.693,708.108c0,2.124-0.994,4.022-2.979,5.694c-1.986,1.671-4.13,2.871-6.431,3.599
				c-2.301,0.728-4.317,1.092-6.048,1.092c-0.197,0-0.472-0.236-0.826-0.708c-0.984-1.298-1.475-2.813-1.475-4.543v-0.413
				c3.068,0,5.408-0.531,7.021-1.593c1.612-1.062,2.419-2.163,2.419-3.304c0-0.747-0.492-1.534-1.475-2.36
				c-0.983-0.826-2.065-1.554-3.245-2.183c-1.18-0.629-2.263-1.465-3.245-2.508c-0.984-1.042-1.475-2.133-1.475-3.274
				c0-2.398,1.494-4.602,4.484-6.608c2.989-2.006,6.175-3.009,9.558-3.009c0.393,0,0.904,0.541,1.534,1.622
				c0.628,1.083,0.963,2.193,1.003,3.333c-0.788,0-1.967,0.236-3.54,0.708c-3.108,0.984-4.661,2.204-4.661,3.658
				c0,1.023,1.534,2.419,4.602,4.189c1.18,0.669,2.261,1.593,3.245,2.773C303.142,705.454,303.654,706.732,303.693,708.108z"/>
			<path d="M315.021,676.249c-0.079,0.905-0.177,3.383-0.295,7.434c2.95,0,4.425,0.059,4.425,0.177c0,1.338-0.198,2.528-0.59,3.57
				c-0.394,1.042-0.767,1.563-1.121,1.563h-2.773c-0.079,5.821-0.118,10.552-0.118,14.189c0,3.639,0.059,6.068,0.177,7.287
				c0.236,2.045,1.042,3.717,2.419,5.015c0,0.433-0.758,1.062-2.271,1.888c-1.515,0.826-2.941,1.239-4.277,1.239
				c-0.118,0-0.345-0.197-0.679-0.59c-0.334-0.394-0.688-1.042-1.062-1.947c-0.374-0.905-0.61-1.79-0.708-2.655
				c-0.099-0.865-0.147-3.953-0.147-9.263c0-5.31,0.059-10.325,0.177-15.045l-3.304,0.059c-0.197-0.196-0.295-1.052-0.295-2.566
				c0-1.514,0.177-2.428,0.531-2.744c0.865-0.039,1.908-0.078,3.127-0.118c0-2.281-0.059-3.756-0.177-4.425
				c-0.118-0.668-0.177-1.062-0.177-1.18c0-0.393,0.678-0.846,2.035-1.357c1.357-0.511,2.546-0.767,3.57-0.767
				C314.509,676.013,315.021,676.092,315.021,676.249z"/>
			<path d="M324.845,679.67c1.082,0,1.956,0.354,2.625,1.062c0.668,0.708,1.003,1.633,1.003,2.773c0,1.142-0.442,2.115-1.327,2.921
				c-0.885,0.807-1.869,1.209-2.95,1.209c-1.083,0-1.947-0.344-2.596-1.033c-0.649-0.688-0.973-1.602-0.973-2.744
				c0-1.14,0.432-2.124,1.298-2.95C322.789,680.084,323.763,679.67,324.845,679.67z M327.824,694.361l-0.118,9.558
				c0,3.068,0.089,5.32,0.266,6.756c0.177,1.436,0.679,2.783,1.504,4.042c0,0.393-0.807,1.022-2.419,1.888
				c-1.613,0.865-2.989,1.298-4.13,1.298c-0.354,0-0.708-0.59-1.062-1.77c-0.354-1.18-0.581-2.301-0.678-3.363
				c-0.099-1.062-0.148-4.641-0.148-10.738c0-6.097,0.138-9.42,0.413-9.971c0.904-0.708,2.498-1.062,4.779-1.062
				c0.904,0,1.455,0.118,1.652,0.354L327.824,694.361z"/>
			<path d="M333.606,706.516l0.236-21.358c0-3.107-0.04-5.211-0.118-6.313c-0.079-1.101-0.118-1.691-0.118-1.77
				c0-0.393,0.658-0.846,1.976-1.357c1.317-0.511,2.487-0.767,3.511-0.767c1.022,0,1.534,0.079,1.534,0.236
				c-0.197,1.456-0.295,6.569-0.295,15.34l-0.118,14.455c0,2.714,0.039,4.386,0.118,5.015c0.197,1.731,0.767,3.304,1.711,4.72
				c0,0.393-0.807,1.022-2.419,1.888c-1.613,0.865-2.989,1.298-4.13,1.298c-0.315,0-0.669-0.59-1.062-1.77
				c-0.394-1.18-0.629-2.202-0.708-3.068C333.644,712.2,333.606,710.017,333.606,706.516z"/>
			<path d="M346.762,706.516l0.236-21.358c0-3.107-0.04-5.211-0.118-6.313c-0.079-1.101-0.118-1.691-0.118-1.77
				c0-0.393,0.658-0.846,1.976-1.357c1.317-0.511,2.487-0.767,3.511-0.767c1.022,0,1.534,0.079,1.534,0.236
				c-0.197,1.456-0.295,6.569-0.295,15.34l-0.118,14.455c0,2.714,0.039,4.386,0.118,5.015c0.197,1.731,0.767,3.304,1.711,4.72
				c0,0.393-0.807,1.022-2.419,1.888c-1.613,0.865-2.989,1.298-4.13,1.298c-0.315,0-0.669-0.59-1.062-1.77
				c-0.394-1.18-0.629-2.202-0.708-3.068C346.801,712.2,346.762,710.017,346.762,706.516z"/>
			<path d="M372.131,706.398l-0.118-21.771c0-4.917,0.098-7.473,0.295-7.67c0.472-0.472,1.248-0.924,2.331-1.357
				c1.081-0.433,2.114-0.649,3.097-0.649c0.983,0,1.475,0.079,1.475,0.236c-0.079,0.394-0.187,2.625-0.324,6.696
				c-0.139,4.071-0.188,6.599-0.147,7.582h0.944c4.366,0,7.925,1.003,10.679,3.009c1.101,0.826,2.065,2.056,2.891,3.688
				c0.826,1.632,1.239,3.531,1.239,5.693c0,3.737-1.515,6.854-4.543,9.352c-3.029,2.498-6.747,4.101-11.151,4.809
				c0,0.904-0.02,1.396-0.059,1.475c-0.512,0.511-1.407,0.904-2.685,1.18c-1.279,0.275-2.321,0.413-3.127,0.413
				c-0.807,0-1.209-0.059-1.209-0.177C371.993,717.804,372.131,713.635,372.131,706.398z M378.917,709.524
				c1.022,0,2.084-0.167,3.186-0.501c1.101-0.333,1.996-0.757,2.685-1.269c0.688-0.511,1.317-1.317,1.888-2.419
				c0.569-1.101,0.855-2.537,0.855-4.307c0-1.77-0.62-3.127-1.859-4.071c-1.239-0.944-2.665-1.416-4.277-1.416l-2.714,0.177v4.248
				C378.681,705.276,378.759,708.462,378.917,709.524z"/>
			<path d="M417.974,714.894c-1.337,0.904-3.953,1.357-7.847,1.357c-3.894,0-6.884-1.161-8.968-3.481
				c-2.085-2.32-3.127-5.418-3.127-9.292c0-3.874,1.248-7.237,3.747-10.089c2.497-2.852,6.008-4.278,10.531-4.278
				c1.849,0,3.549,0.493,5.104,1.475c1.554,0.984,2.331,2.705,2.331,5.163c0,2.458-1.072,4.888-3.215,7.287
				c-2.145,2.399-5.065,4.229-8.762,5.487c0,0.472,0.481,0.855,1.446,1.15c0.963,0.295,1.917,0.443,2.861,0.443
				c2.989,0,5.349-0.531,7.08-1.593c0.039-0.039,0.098-0.059,0.177-0.059c0.079,0,0.118,0.375,0.118,1.121
				C419.449,711.865,418.957,713.635,417.974,714.894z M412.841,696.131c0-1.14-0.61-1.711-1.829-1.711
				c-1.613,0-3.029,0.826-4.248,2.478c-1.22,1.652-1.829,3.639-1.829,5.959c0,0.551,0.079,0.826,0.236,0.826
				c1.416-0.039,3.047-0.855,4.897-2.449C411.916,699.642,412.841,697.941,412.841,696.131z"/>
			<path d="M435.968,706.516l0.236-21.358c0-3.107-0.04-5.211-0.118-6.313c-0.079-1.101-0.118-1.691-0.118-1.77
				c0-0.393,0.658-0.846,1.976-1.357c1.317-0.511,2.487-0.767,3.511-0.767c1.022,0,1.534,0.079,1.534,0.236
				c-0.197,1.456-0.295,6.569-0.295,15.34l-0.118,14.455c0,2.714,0.039,4.386,0.118,5.015c0.197,1.731,0.767,3.304,1.711,4.72
				c0,0.393-0.807,1.022-2.419,1.888c-1.613,0.865-2.989,1.298-4.13,1.298c-0.315,0-0.669-0.59-1.062-1.77
				c-0.394-1.18-0.629-2.202-0.708-3.068C436.007,712.2,435.968,710.017,435.968,706.516z"/>
			<path d="M469.568,712.327c-2.262,2.733-5.331,4.101-9.204,4.101c-3.875,0-6.913-1.201-9.115-3.599
				c-2.204-2.399-3.304-5.517-3.304-9.352s1.366-7.237,4.101-10.207c2.733-2.969,6.421-4.455,11.063-4.455
				c1.888,0.08,2.91,0.197,3.068,0.354c0.157,0.158,0.236,0.531,0.236,1.121s-0.059,1.239-0.177,1.947
				c0.59,0,1.347,0.345,2.271,1.032c0.924,0.688,1.682,1.387,2.271,2.095s1.101,1.702,1.534,2.979
				c0.432,1.278,0.649,2.705,0.649,4.277C472.961,706.359,471.83,709.594,469.568,712.327z M464.347,698.492
				c-0.905-0.59-1.79-0.885-2.655-0.885h-0.472c-0.079-0.157-0.118-0.491-0.118-1.003c0-0.511,0.059-1.003,0.177-1.475
				c-1.613,0-3.118,0.729-4.514,2.183c-1.396,1.456-2.094,3.481-2.094,6.077c0,3.068,0.982,5.192,2.95,6.372
				c0.747,0.472,1.779,0.708,3.098,0.708c1.317,0,2.557-0.609,3.717-1.829c1.16-1.219,1.74-3.028,1.74-5.428
				C466.176,700.813,465.565,699.239,464.347,698.492z"/>
			<path d="M485.173,676.249c-0.079,0.905-0.177,3.383-0.295,7.434c2.95,0,4.425,0.059,4.425,0.177c0,1.338-0.198,2.528-0.59,3.57
				c-0.394,1.042-0.767,1.563-1.121,1.563h-2.773c-0.079,5.821-0.118,10.552-0.118,14.189c0,3.639,0.059,6.068,0.177,7.287
				c0.236,2.045,1.042,3.717,2.419,5.015c0,0.433-0.758,1.062-2.271,1.888c-1.515,0.826-2.941,1.239-4.277,1.239
				c-0.118,0-0.345-0.197-0.679-0.59c-0.334-0.394-0.688-1.042-1.062-1.947c-0.374-0.905-0.61-1.79-0.708-2.655
				c-0.099-0.865-0.147-3.953-0.147-9.263c0-5.31,0.059-10.325,0.177-15.045l-3.304,0.059c-0.197-0.196-0.295-1.052-0.295-2.566
				c0-1.514,0.177-2.428,0.531-2.744c0.865-0.039,1.908-0.078,3.127-0.118c0-2.281-0.059-3.756-0.177-4.425
				c-0.118-0.668-0.177-1.062-0.177-1.18c0-0.393,0.678-0.846,2.035-1.357c1.357-0.511,2.546-0.767,3.57-0.767
				C484.662,676.013,485.173,676.092,485.173,676.249z"/>
			<path d="M507.829,708.108c0,2.124-0.994,4.022-2.979,5.694c-1.986,1.671-4.13,2.871-6.431,3.599
				c-2.301,0.728-4.317,1.092-6.048,1.092c-0.197,0-0.472-0.236-0.826-0.708c-0.984-1.298-1.475-2.813-1.475-4.543v-0.413
				c3.068,0,5.408-0.531,7.021-1.593c1.612-1.062,2.419-2.163,2.419-3.304c0-0.747-0.492-1.534-1.475-2.36
				c-0.983-0.826-2.065-1.554-3.245-2.183c-1.18-0.629-2.263-1.465-3.245-2.508c-0.984-1.042-1.475-2.133-1.475-3.274
				c0-2.398,1.494-4.602,4.484-6.608c2.989-2.006,6.175-3.009,9.558-3.009c0.393,0,0.904,0.541,1.534,1.622
				c0.628,1.083,0.963,2.193,1.003,3.333c-0.788,0-1.967,0.236-3.54,0.708c-3.108,0.984-4.661,2.204-4.661,3.658
				c0,1.023,1.534,2.419,4.602,4.189c1.18,0.669,2.261,1.593,3.245,2.773C507.277,705.454,507.789,706.732,507.829,708.108z"/>
			<path d="M544.497,712.327c-2.262,2.733-5.331,4.101-9.204,4.101c-3.875,0-6.913-1.201-9.115-3.599
				c-2.204-2.399-3.304-5.517-3.304-9.352s1.366-7.237,4.101-10.207c2.733-2.969,6.421-4.455,11.063-4.455
				c1.888,0.08,2.91,0.197,3.068,0.354c0.157,0.158,0.236,0.531,0.236,1.121s-0.059,1.239-0.177,1.947
				c0.59,0,1.347,0.345,2.271,1.032c0.924,0.688,1.682,1.387,2.271,2.095s1.101,1.702,1.534,2.979
				c0.432,1.278,0.649,2.705,0.649,4.277C547.889,706.359,546.758,709.594,544.497,712.327z M539.275,698.492
				c-0.905-0.59-1.79-0.885-2.655-0.885h-0.472c-0.079-0.157-0.118-0.491-0.118-1.003c0-0.511,0.059-1.003,0.177-1.475
				c-1.613,0-3.118,0.729-4.514,2.183c-1.396,1.456-2.094,3.481-2.094,6.077c0,3.068,0.982,5.192,2.95,6.372
				c0.747,0.472,1.779,0.708,3.098,0.708c1.317,0,2.557-0.609,3.717-1.829c1.16-1.219,1.74-3.028,1.74-5.428
				C541.104,700.813,540.494,699.239,539.275,698.492z"/>
			<path d="M560.338,692.12l0.295,23.6c0,1.534-0.04,2.497-0.118,2.891c-1.495,1.101-3.481,1.652-5.959,1.652l-1.652-0.295
				c0.59-4.366,0.885-12.429,0.885-24.19c0-2.95-0.02-5.112-0.059-6.49l-2.596,0.118c-0.197-0.197-0.295-1.062-0.295-2.596
				s0.177-2.478,0.531-2.832c0.708-0.039,1.475-0.078,2.301-0.118l-0.118-7.139c-0.079-0.629,1.376-1.671,4.366-3.127
				c2.989-1.455,5.428-2.183,7.316-2.183c0.236,0,0.54,0.442,0.915,1.328c0.373,0.885,0.56,1.573,0.56,2.065
				c0,0.492-0.02,0.796-0.059,0.915c-0.118,0-0.63,0.206-1.534,0.619c-0.905,0.413-1.849,0.944-2.832,1.593
				c-0.983,0.649-1.495,1.209-1.534,1.681c-0.157,1.023-0.275,2.419-0.354,4.189h0.236c3.186,0,4.779,0.059,4.779,0.177
				c0,1.849-0.374,3.383-1.121,4.602c-0.275,0.472-0.512,0.708-0.708,0.708c-1.259-0.079-2.34-0.118-3.245-0.118V692.12z"/>
			<path d="M589.837,692.12l0.295,23.6c0,1.534-0.04,2.497-0.118,2.891c-1.495,1.101-3.481,1.652-5.959,1.652l-1.652-0.295
				c0.59-4.366,0.885-12.429,0.885-24.19c0-2.95-0.02-5.112-0.059-6.49l-2.596,0.118c-0.197-0.197-0.295-1.062-0.295-2.596
				s0.177-2.478,0.531-2.832c0.708-0.039,1.475-0.078,2.301-0.118l-0.118-7.139c-0.079-0.629,1.376-1.671,4.366-3.127
				c2.989-1.455,5.428-2.183,7.316-2.183c0.236,0,0.54,0.442,0.915,1.328c0.373,0.885,0.56,1.573,0.56,2.065
				c0,0.492-0.02,0.796-0.059,0.915c-0.118,0-0.63,0.206-1.534,0.619c-0.905,0.413-1.849,0.944-2.832,1.593
				c-0.983,0.649-1.495,1.209-1.534,1.681c-0.157,1.023-0.275,2.419-0.354,4.189h0.236c3.186,0,4.779,0.059,4.779,0.177
				c0,1.849-0.374,3.383-1.121,4.602c-0.275,0.472-0.512,0.708-0.708,0.708c-1.259-0.079-2.34-0.118-3.245-0.118V692.12z"/>
			<path d="M611.548,712.651l-0.059-1.239l-0.059-0.118c-0.944,1.456-2.134,2.616-3.57,3.481c-1.436,0.865-2.842,1.298-4.218,1.298
				c-4.13,0-6.49-3.206-7.08-9.617c-0.079-1.022-0.118-3.658-0.118-7.906c0-4.248,0.177-6.765,0.531-7.552
				c1.022-0.826,2.674-1.239,4.956-1.239c0.904,0,1.455,0.099,1.652,0.295c0,0.04-0.021,0.57-0.059,1.593
				c-0.197,2.99-0.295,5.291-0.295,6.903c0,1.613,0.02,2.802,0.059,3.569c0.039,0.767,0.068,1.259,0.088,1.475
				c0.02,0.216,0.079,0.6,0.177,1.15c0.098,0.551,0.245,1.023,0.442,1.416c0.59,1.141,1.504,1.711,2.743,1.711
				c1.239,0,2.34-0.62,3.304-1.858c0.963-1.239,1.425-2.114,1.387-2.625v-2.006c0-7.198,0.118-11.071,0.354-11.623
				c0.196-0.354,0.815-0.728,1.858-1.121c1.042-0.393,2.074-0.59,3.097-0.59c1.022,0,1.613,0.08,1.77,0.236l-0.118,2.773
				c-0.236,5.625-0.354,9.971-0.354,13.039c0,3.068,0.078,5.015,0.236,5.841c0.275,1.967,0.806,3.54,1.593,4.72
				c0,0.393-0.807,1.022-2.419,1.888c-1.613,0.865-2.989,1.298-4.13,1.298c-0.315,0-0.669-0.59-1.062-1.77
				C611.862,714.894,611.627,713.753,611.548,712.651z"/>
			<path d="M631.135,701.619l0.059,2.183v4.484c0,4.209-0.079,6.392-0.236,6.549c-0.512,0.511-1.397,0.904-2.655,1.18
				c-1.259,0.274-2.292,0.413-3.097,0.413c-0.807,0-1.209-0.059-1.209-0.177c0.274-1.77,0.413-4.68,0.413-8.732l-0.177-13.275
				c0-2.438,0.098-3.756,0.295-3.953c0.433-0.432,1.18-0.816,2.242-1.15c1.062-0.334,2.055-0.501,2.979-0.501
				c0.923,0,1.386,0.099,1.386,0.295c-0.118,0.944-0.177,1.888-0.177,2.832s0.059,1.416,0.177,1.416l0.177-0.118
				c0.196-0.274,0.491-0.62,0.885-1.032c0.393-0.413,1.229-0.963,2.508-1.652c1.277-0.688,2.497-1.032,3.658-1.032
				c1.16,0,2.144,0.207,2.95,0.619c0.806,0.413,1.465,0.915,1.977,1.505c0.511,0.59,0.953,1.436,1.327,2.537
				c0.374,1.102,0.658,2.124,0.855,3.068c0.197,0.944,0.354,2.203,0.472,3.776c0.118,2.164,0.177,4.917,0.177,8.26l-0.177,6.903
				c0,0.274-0.649,0.54-1.947,0.796c-1.298,0.255-2.341,0.383-3.127,0.383l-1.947-0.295c0.393-3.54,0.59-6.971,0.59-10.295
				c0-3.323-0.216-5.821-0.649-7.493c-0.433-1.671-1.298-2.507-2.596-2.507c-1.298,0-2.351,0.354-3.157,1.062
				c-0.807,0.708-1.328,1.416-1.563,2.124l-0.413,1.003V701.619z"/>
			<path d="M684.294,701.736c0,4.917,0.059,7.788,0.177,8.614c0.314,2.164,0.983,3.717,2.006,4.661c0,0.432-0.777,1.081-2.33,1.947
				c-1.555,0.865-2.96,1.298-4.219,1.298c-0.354,0-0.728-0.521-1.121-1.563c-0.394-1.042-0.619-1.819-0.678-2.33
				c-0.059-0.511-0.109-0.767-0.147-0.767l-0.177,0.118c-2.085,1.652-4.523,2.478-7.316,2.478c-2.793,0-4.947-0.678-6.46-2.035
				c-1.515-1.357-2.271-3.136-2.271-5.34c0-2.202,0.481-4.061,1.445-5.575c0.963-1.514,2.095-2.665,3.393-3.452
				c1.298-0.786,2.733-1.416,4.307-1.888c2.398-0.786,4.287-1.18,5.664-1.18l0.118-0.059c0-1.927-2.439-2.891-7.316-2.891
				c-1.928,0-3.363,0.08-4.307,0.236h-0.059c0-0.786,0.245-1.77,0.737-2.95c0.491-1.18,0.904-1.947,1.239-2.301
				c0.334-0.354,1.741-0.531,4.219-0.531c4.484,0,7.788,0.855,9.912,2.566s3.186,4.357,3.186,7.936V701.736z M677.744,705.513
				v-2.242c0-0.865-0.02-1.298-0.059-1.298c-2.635,0-4.917,0.688-6.844,2.065c-1.22,0.866-1.829,1.947-1.829,3.245
				c0,0.826,0.295,1.515,0.885,2.065c0.59,0.551,1.484,0.826,2.684,0.826c1.2,0,2.36-0.354,3.481-1.062
				C677.184,708.403,677.744,707.204,677.744,705.513z"/>
			<path d="M697.45,701.619l0.059,2.183v4.484c0,4.209-0.079,6.392-0.236,6.549c-0.512,0.511-1.397,0.904-2.655,1.18
				c-1.259,0.274-2.292,0.413-3.097,0.413c-0.807,0-1.209-0.059-1.209-0.177c0.274-1.77,0.413-4.68,0.413-8.732l-0.177-13.275
				c0-2.438,0.098-3.756,0.295-3.953c0.433-0.432,1.18-0.816,2.242-1.15c1.062-0.334,2.055-0.501,2.979-0.501
				c0.923,0,1.386,0.099,1.386,0.295c-0.118,0.944-0.177,1.888-0.177,2.832s0.059,1.416,0.177,1.416l0.177-0.118
				c0.196-0.274,0.491-0.62,0.885-1.032c0.393-0.413,1.229-0.963,2.508-1.652c1.277-0.688,2.497-1.032,3.658-1.032
				c1.16,0,2.144,0.207,2.95,0.619c0.806,0.413,1.465,0.915,1.977,1.505c0.511,0.59,0.953,1.436,1.327,2.537
				c0.374,1.102,0.658,2.124,0.855,3.068c0.197,0.944,0.354,2.203,0.472,3.776c0.118,2.164,0.177,4.917,0.177,8.26l-0.177,6.903
				c0,0.274-0.649,0.54-1.947,0.796c-1.298,0.255-2.341,0.383-3.127,0.383l-1.947-0.295c0.393-3.54,0.59-6.971,0.59-10.295
				c0-3.323-0.216-5.821-0.649-7.493c-0.433-1.671-1.298-2.507-2.596-2.507c-1.298,0-2.351,0.354-3.157,1.062
				c-0.807,0.708-1.328,1.416-1.563,2.124l-0.413,1.003V701.619z"/>
			<path d="M732.496,689.583l-0.118-8.732c0-2.438,0.059-3.717,0.177-3.835c0.472-0.472,1.249-0.934,2.331-1.387
				c1.082-0.452,2.114-0.678,3.098-0.678c0.983,0,1.475,0.079,1.475,0.236c-0.315,6.53-0.472,13.472-0.472,20.827
				c0,7.355,0.118,11.741,0.354,13.157c0.275,2.124,0.924,3.698,1.947,4.72c0,0.394-0.817,1.012-2.449,1.858
				c-1.633,0.845-3.019,1.269-4.16,1.269c-0.118,0-0.295-0.158-0.531-0.472c-0.748-0.983-1.2-2.32-1.357-4.012
				c0-0.118-0.04-0.177-0.118-0.177l-0.177,0.118c-1.652,2.36-4.111,3.54-7.375,3.54c-2.636,0-4.72-1.043-6.254-3.127
				c-1.534-2.084-2.301-4.425-2.301-7.021c0-4.444,1.376-8.23,4.13-11.357C723.449,691.382,727.382,689.74,732.496,689.583z
				 M732.614,695.777c0-0.078-0.216-0.118-0.649-0.118h-0.236c-2.518,0-4.494,0.807-5.93,2.419
				c-1.436,1.613-2.153,3.658-2.153,6.136c0,1.456,0.344,2.646,1.032,3.57c0.688,0.924,1.73,1.386,3.127,1.386
				c1.396,0,2.517-0.609,3.363-1.829c0.845-1.219,1.269-2.183,1.269-2.891C732.437,700.085,732.496,697.193,732.614,695.777z"/>
			<path d="M758.102,706.516l0.236-21.358c0-3.107-0.04-5.211-0.118-6.313c-0.079-1.101-0.118-1.691-0.118-1.77
				c0-0.393,0.658-0.846,1.976-1.357c1.317-0.511,2.487-0.767,3.511-0.767c1.022,0,1.534,0.079,1.534,0.236
				c-0.197,1.456-0.295,6.569-0.295,15.34l-0.118,14.455c0,2.714,0.039,4.386,0.118,5.015c0.197,1.731,0.767,3.304,1.711,4.72
				c0,0.393-0.807,1.022-2.419,1.888c-1.613,0.865-2.989,1.298-4.13,1.298c-0.315,0-0.669-0.59-1.062-1.77
				c-0.394-1.18-0.629-2.202-0.708-3.068C758.14,712.2,758.102,710.017,758.102,706.516z"/>
			<path d="M790.02,714.894c-1.337,0.904-3.953,1.357-7.847,1.357c-3.894,0-6.884-1.161-8.968-3.481
				c-2.085-2.32-3.127-5.418-3.127-9.292c0-3.874,1.248-7.237,3.747-10.089c2.497-2.852,6.008-4.278,10.531-4.278
				c1.849,0,3.549,0.493,5.104,1.475c1.554,0.984,2.331,2.705,2.331,5.163c0,2.458-1.072,4.888-3.215,7.287
				c-2.145,2.399-5.065,4.229-8.762,5.487c0,0.472,0.481,0.855,1.446,1.15c0.963,0.295,1.917,0.443,2.861,0.443
				c2.989,0,5.349-0.531,7.08-1.593c0.039-0.039,0.098-0.059,0.177-0.059c0.079,0,0.118,0.375,0.118,1.121
				C791.495,711.865,791.003,713.635,790.02,714.894z M784.887,696.131c0-1.14-0.61-1.711-1.829-1.711
				c-1.613,0-3.029,0.826-4.248,2.478c-1.22,1.652-1.829,3.639-1.829,5.959c0,0.551,0.079,0.826,0.236,0.826
				c1.416-0.039,3.047-0.855,4.897-2.449C783.962,699.642,784.887,697.941,784.887,696.131z"/>
			<path d="M817.278,701.736c0,4.917,0.059,7.788,0.177,8.614c0.314,2.164,0.983,3.717,2.006,4.661c0,0.432-0.777,1.081-2.33,1.947
				c-1.555,0.865-2.96,1.298-4.219,1.298c-0.354,0-0.728-0.521-1.121-1.563c-0.394-1.042-0.619-1.819-0.678-2.33
				c-0.059-0.511-0.109-0.767-0.147-0.767l-0.177,0.118c-2.085,1.652-4.523,2.478-7.316,2.478c-2.793,0-4.947-0.678-6.46-2.035
				c-1.515-1.357-2.271-3.136-2.271-5.34c0-2.202,0.481-4.061,1.445-5.575c0.963-1.514,2.095-2.665,3.393-3.452
				c1.298-0.786,2.733-1.416,4.307-1.888c2.398-0.786,4.287-1.18,5.664-1.18l0.118-0.059c0-1.927-2.439-2.891-7.316-2.891
				c-1.928,0-3.363,0.08-4.307,0.236h-0.059c0-0.786,0.245-1.77,0.737-2.95c0.491-1.18,0.904-1.947,1.239-2.301
				c0.334-0.354,1.741-0.531,4.219-0.531c4.484,0,7.788,0.855,9.912,2.566s3.186,4.357,3.186,7.936V701.736z M810.729,705.513
				v-2.242c0-0.865-0.02-1.298-0.059-1.298c-2.635,0-4.917,0.688-6.844,2.065c-1.22,0.866-1.829,1.947-1.829,3.245
				c0,0.826,0.295,1.515,0.885,2.065c0.59,0.551,1.484,0.826,2.684,0.826c1.2,0,2.36-0.354,3.481-1.062
				C810.168,708.403,810.729,707.204,810.729,705.513z"/>
			<path d="M823.414,706.929l-0.118-13.393c0-2.32,0.078-3.56,0.236-3.717c0.432-0.432,1.18-0.815,2.242-1.15
				c1.062-0.333,2.055-0.501,2.979-0.501c0.923,0,1.386,0.099,1.386,0.295c-0.118,1.062-0.177,2.271-0.177,3.628
				c0,1.357,0.039,2.036,0.118,2.036c0.079,0,0.157-0.049,0.236-0.147c0.078-0.098,0.207-0.255,0.383-0.472
				c0.177-0.215,0.55-0.599,1.121-1.15c0.57-0.55,1.189-1.022,1.858-1.416c1.691-1.101,3.5-1.652,5.428-1.652
				c0.314,0.512,0.472,1.298,0.472,2.36c0,2.242-0.275,3.835-0.826,4.779l-0.236,0.472l-0.767-0.118
				c-2.832,0-5.054,1.161-6.667,3.481c-0.629,0.944-0.944,1.652-0.944,2.124v5.192c0,4.72-0.059,7.139-0.177,7.257
				c-1.102,1.062-3.266,1.593-6.49,1.593c-0.315,0-0.472-0.059-0.472-0.177C823.275,714.717,823.414,711.61,823.414,706.929z"/>
			<path d="M849.668,701.619l0.059,2.183v4.484c0,4.209-0.079,6.392-0.236,6.549c-0.512,0.511-1.397,0.904-2.655,1.18
				c-1.259,0.274-2.292,0.413-3.097,0.413c-0.807,0-1.209-0.059-1.209-0.177c0.274-1.77,0.413-4.68,0.413-8.732l-0.177-13.275
				c0-2.438,0.098-3.756,0.295-3.953c0.433-0.432,1.18-0.816,2.242-1.15c1.062-0.334,2.055-0.501,2.979-0.501
				c0.923,0,1.386,0.099,1.386,0.295c-0.118,0.944-0.177,1.888-0.177,2.832s0.059,1.416,0.177,1.416l0.177-0.118
				c0.196-0.274,0.491-0.62,0.885-1.032c0.393-0.413,1.229-0.963,2.508-1.652c1.277-0.688,2.497-1.032,3.658-1.032
				c1.16,0,2.144,0.207,2.95,0.619c0.806,0.413,1.465,0.915,1.977,1.505c0.511,0.59,0.953,1.436,1.327,2.537
				c0.374,1.102,0.658,2.124,0.855,3.068c0.197,0.944,0.354,2.203,0.472,3.776c0.118,2.164,0.177,4.917,0.177,8.26l-0.177,6.903
				c0,0.274-0.649,0.54-1.947,0.796c-1.298,0.255-2.341,0.383-3.127,0.383l-1.947-0.295c0.393-3.54,0.59-6.971,0.59-10.295
				c0-3.323-0.216-5.821-0.649-7.493c-0.433-1.671-1.298-2.507-2.596-2.507c-1.298,0-2.351,0.354-3.157,1.062
				c-0.807,0.708-1.328,1.416-1.563,2.124l-0.413,1.003V701.619z"/>
			<path d="M874.182,679.67c1.082,0,1.956,0.354,2.625,1.062c0.668,0.708,1.003,1.633,1.003,2.773c0,1.142-0.442,2.115-1.327,2.921
				c-0.885,0.807-1.869,1.209-2.95,1.209c-1.083,0-1.947-0.344-2.596-1.033c-0.649-0.688-0.973-1.602-0.973-2.744
				c0-1.14,0.432-2.124,1.298-2.95C872.127,680.084,873.1,679.67,874.182,679.67z M877.162,694.361l-0.118,9.558
				c0,3.068,0.089,5.32,0.266,6.756c0.177,1.436,0.679,2.783,1.504,4.042c0,0.393-0.807,1.022-2.419,1.888
				c-1.613,0.865-2.989,1.298-4.13,1.298c-0.354,0-0.708-0.59-1.062-1.77c-0.354-1.18-0.581-2.301-0.678-3.363
				c-0.099-1.062-0.148-4.641-0.148-10.738c0-6.097,0.138-9.42,0.413-9.971c0.904-0.708,2.498-1.062,4.779-1.062
				c0.904,0,1.455,0.118,1.652,0.354L877.162,694.361z"/>
			<path d="M890.082,701.619l0.059,2.183v4.484c0,4.209-0.079,6.392-0.236,6.549c-0.512,0.511-1.397,0.904-2.655,1.18
				c-1.259,0.274-2.292,0.413-3.097,0.413c-0.807,0-1.209-0.059-1.209-0.177c0.274-1.77,0.413-4.68,0.413-8.732l-0.177-13.275
				c0-2.438,0.098-3.756,0.295-3.953c0.433-0.432,1.18-0.816,2.242-1.15c1.062-0.334,2.055-0.501,2.979-0.501
				c0.923,0,1.386,0.099,1.386,0.295c-0.118,0.944-0.177,1.888-0.177,2.832s0.059,1.416,0.177,1.416l0.177-0.118
				c0.196-0.274,0.491-0.62,0.885-1.032c0.393-0.413,1.229-0.963,2.508-1.652c1.277-0.688,2.497-1.032,3.658-1.032
				c1.16,0,2.144,0.207,2.95,0.619c0.806,0.413,1.465,0.915,1.977,1.505c0.511,0.59,0.953,1.436,1.327,2.537
				c0.374,1.102,0.658,2.124,0.855,3.068c0.197,0.944,0.354,2.203,0.472,3.776c0.118,2.164,0.177,4.917,0.177,8.26l-0.177,6.903
				c0,0.274-0.649,0.54-1.947,0.796c-1.298,0.255-2.341,0.383-3.127,0.383l-1.947-0.295c0.393-3.54,0.59-6.971,0.59-10.295
				c0-3.323-0.216-5.821-0.649-7.493c-0.433-1.671-1.298-2.507-2.596-2.507c-1.298,0-2.351,0.354-3.157,1.062
				c-0.807,0.708-1.328,1.416-1.563,2.124l-0.413,1.003V701.619z"/>
			<path d="M931.971,700.262l0.118,13.983c0,3.068-0.413,5.791-1.239,8.171c-0.826,2.379-1.829,4.228-3.009,5.546
				c-1.18,1.317-2.537,2.39-4.071,3.216c-2.478,1.376-4.976,2.065-7.493,2.065c-0.118,0-0.354-0.295-0.708-0.885
				c-0.354-0.59-0.689-1.396-1.003-2.419c-0.315-1.023-0.472-1.967-0.472-2.832h1.121c0.786,0,1.543-0.069,2.271-0.207
				c0.727-0.138,1.623-0.521,2.685-1.15c1.062-0.629,1.966-1.456,2.714-2.478c0.747-1.023,1.396-2.537,1.947-4.543
				c0.551-2.006,0.826-4.346,0.826-7.021c0-0.157-0.02-0.236-0.059-0.236l-0.177,0.177c-1.652,2.558-4.229,3.835-7.729,3.835
				c-2.636,0-4.74-1.042-6.313-3.127c-1.574-2.084-2.36-4.425-2.36-7.021c0-4.72,1.514-8.614,4.543-11.682
				c3.028-3.068,7.375-4.602,13.039-4.602c1.376,0,2.065,0.099,2.065,0.295c0.118,0.669,0.177,1.396,0.177,2.183l-0.059,0.885h0.649
				c1.258,0,2.104,0.118,2.537,0.354V700.262z M925.54,695.306l-1.239-0.177c-2.518,0-4.514,0.817-5.988,2.449
				c-1.475,1.632-2.213,3.668-2.213,6.106c0,1.22,0.363,2.282,1.092,3.186c0.727,0.905,1.789,1.357,3.186,1.357
				c1.396,0,2.566-0.55,3.51-1.652c0.944-1.101,1.416-1.986,1.416-2.655C925.304,699.436,925.383,696.565,925.54,695.306z"/>
			<path d="M956.691,676.249c-0.079,0.905-0.177,3.383-0.295,7.434c2.95,0,4.425,0.059,4.425,0.177c0,1.338-0.198,2.528-0.59,3.57
				c-0.394,1.042-0.767,1.563-1.121,1.563h-2.773c-0.079,5.821-0.118,10.552-0.118,14.189c0,3.639,0.059,6.068,0.177,7.287
				c0.236,2.045,1.042,3.717,2.419,5.015c0,0.433-0.758,1.062-2.271,1.888c-1.515,0.826-2.941,1.239-4.277,1.239
				c-0.118,0-0.345-0.197-0.679-0.59c-0.334-0.394-0.688-1.042-1.062-1.947c-0.374-0.905-0.61-1.79-0.708-2.655
				c-0.099-0.865-0.147-3.953-0.147-9.263c0-5.31,0.059-10.325,0.177-15.045l-3.304,0.059c-0.197-0.196-0.295-1.052-0.295-2.566
				c0-1.514,0.177-2.428,0.531-2.744c0.865-0.039,1.908-0.078,3.127-0.118c0-2.281-0.059-3.756-0.177-4.425
				c-0.118-0.668-0.177-1.062-0.177-1.18c0-0.393,0.678-0.846,2.035-1.357c1.357-0.511,2.546-0.767,3.57-0.767
				C956.18,676.013,956.691,676.092,956.691,676.249z"/>
			<path d="M983.713,701.736c0,4.917,0.059,7.788,0.177,8.614c0.314,2.164,0.983,3.717,2.006,4.661c0,0.432-0.777,1.081-2.33,1.947
				c-1.555,0.865-2.96,1.298-4.219,1.298c-0.354,0-0.728-0.521-1.121-1.563c-0.394-1.042-0.619-1.819-0.678-2.33
				c-0.059-0.511-0.109-0.767-0.147-0.767l-0.177,0.118c-2.085,1.652-4.523,2.478-7.316,2.478c-2.793,0-4.947-0.678-6.46-2.035
				c-1.515-1.357-2.271-3.136-2.271-5.34c0-2.202,0.481-4.061,1.445-5.575c0.963-1.514,2.095-2.665,3.393-3.452
				c1.298-0.786,2.733-1.416,4.307-1.888c2.398-0.786,4.287-1.18,5.664-1.18l0.118-0.059c0-1.927-2.439-2.891-7.316-2.891
				c-1.928,0-3.363,0.08-4.307,0.236h-0.059c0-0.786,0.245-1.77,0.737-2.95c0.491-1.18,0.904-1.947,1.239-2.301
				c0.334-0.354,1.741-0.531,4.219-0.531c4.484,0,7.788,0.855,9.912,2.566s3.186,4.357,3.186,7.936V701.736z M977.164,705.513
				v-2.242c0-0.865-0.02-1.298-0.059-1.298c-2.635,0-4.917,0.688-6.844,2.065c-1.22,0.866-1.829,1.947-1.829,3.245
				c0,0.826,0.295,1.515,0.885,2.065c0.59,0.551,1.484,0.826,2.684,0.826c1.2,0,2.36-0.354,3.481-1.062
				C976.604,708.403,977.164,707.204,977.164,705.513z"/>
			<path d="M990.203,703.448l-0.177-20.473c0-3.815,0.098-5.821,0.295-6.018c0.472-0.472,1.239-0.924,2.301-1.357
				c1.062-0.433,2.084-0.649,3.068-0.649c0.982,0,1.475,0.079,1.475,0.236c-0.04,0.197-0.128,2.95-0.265,8.26
				c-0.139,5.31-0.207,8.742-0.207,10.295c0,1.554,0.019,2.439,0.059,2.655c0.039,0.217,0.118,0.325,0.236,0.325l0.118-0.059
				c1.258-1.337,3.127-3.009,5.605-5.015s4.071-3.009,4.779-3.009c2.32,1.456,3.481,2.636,3.481,3.54
				c-1.18,0.748-2.577,1.77-4.189,3.068c-1.613,1.298-2.498,2.124-2.655,2.478c0,0.315,0.344,1.445,1.032,3.393
				c0.688,1.947,1.701,4.239,3.039,6.874c1.337,2.635,2.674,4.622,4.012,5.959c0,0.472-0.866,1.062-2.596,1.77
				c-1.731,0.708-3.226,1.062-4.484,1.062c-0.472,0-1.387-1.85-2.744-5.546c-1.357-3.696-2.292-6.568-2.802-8.614l-0.118-0.177
				c-0.158,0-0.649,0.571-1.475,1.711c-0.826,1.141-1.239,1.908-1.239,2.301l0.177,6.018c0,1.416-0.079,2.203-0.236,2.36
				c-0.512,0.511-1.397,0.904-2.655,1.18c-1.259,0.274-2.292,0.413-3.097,0.413c-0.807,0-1.209-0.059-1.209-0.177
				C990.045,714.52,990.203,710.253,990.203,703.448z"/>
			<path d="M1018.79,679.67c1.082,0,1.956,0.354,2.625,1.062c0.668,0.708,1.003,1.633,1.003,2.773c0,1.142-0.442,2.115-1.327,2.921
				c-0.885,0.807-1.869,1.209-2.95,1.209c-1.083,0-1.947-0.344-2.596-1.033c-0.649-0.688-0.973-1.602-0.973-2.744
				c0-1.14,0.432-2.124,1.298-2.95C1016.734,680.084,1017.708,679.67,1018.79,679.67z M1021.769,694.361l-0.118,9.558
				c0,3.068,0.089,5.32,0.266,6.756c0.177,1.436,0.679,2.783,1.504,4.042c0,0.393-0.807,1.022-2.419,1.888
				c-1.613,0.865-2.989,1.298-4.13,1.298c-0.354,0-0.708-0.59-1.062-1.77c-0.354-1.18-0.581-2.301-0.678-3.363
				c-0.099-1.062-0.148-4.641-0.148-10.738c0-6.097,0.138-9.42,0.413-9.971c0.904-0.708,2.498-1.062,4.779-1.062
				c0.904,0,1.455,0.118,1.652,0.354L1021.769,694.361z"/>
			<path d="M1034.689,701.619l0.059,2.183v4.484c0,4.209-0.079,6.392-0.236,6.549c-0.512,0.511-1.397,0.904-2.655,1.18
				c-1.259,0.274-2.292,0.413-3.097,0.413c-0.807,0-1.209-0.059-1.209-0.177c0.274-1.77,0.413-4.68,0.413-8.732l-0.177-13.275
				c0-2.438,0.098-3.756,0.295-3.953c0.433-0.432,1.18-0.816,2.242-1.15c1.062-0.334,2.055-0.501,2.979-0.501
				c0.923,0,1.386,0.099,1.386,0.295c-0.118,0.944-0.177,1.888-0.177,2.832s0.059,1.416,0.177,1.416l0.177-0.118
				c0.196-0.274,0.491-0.62,0.885-1.032c0.393-0.413,1.229-0.963,2.508-1.652c1.277-0.688,2.497-1.032,3.658-1.032
				c1.16,0,2.144,0.207,2.95,0.619c0.806,0.413,1.465,0.915,1.977,1.505c0.511,0.59,0.953,1.436,1.327,2.537
				c0.374,1.102,0.658,2.124,0.855,3.068c0.197,0.944,0.354,2.203,0.472,3.776c0.118,2.164,0.177,4.917,0.177,8.26l-0.177,6.903
				c0,0.274-0.649,0.54-1.947,0.796c-1.298,0.255-2.341,0.383-3.127,0.383l-1.947-0.295c0.393-3.54,0.59-6.971,0.59-10.295
				c0-3.323-0.216-5.821-0.649-7.493c-0.433-1.671-1.298-2.507-2.596-2.507c-1.298,0-2.351,0.354-3.157,1.062
				c-0.807,0.708-1.328,1.416-1.563,2.124l-0.413,1.003V701.619z"/>
			<path d="M1076.579,700.262l0.118,13.983c0,3.068-0.413,5.791-1.239,8.171c-0.826,2.379-1.829,4.228-3.009,5.546
				c-1.18,1.317-2.537,2.39-4.071,3.216c-2.478,1.376-4.976,2.065-7.493,2.065c-0.118,0-0.354-0.295-0.708-0.885
				c-0.354-0.59-0.689-1.396-1.003-2.419c-0.315-1.023-0.472-1.967-0.472-2.832h1.121c0.786,0,1.543-0.069,2.271-0.207
				c0.727-0.138,1.623-0.521,2.685-1.15c1.062-0.629,1.966-1.456,2.714-2.478c0.747-1.023,1.396-2.537,1.947-4.543
				c0.551-2.006,0.826-4.346,0.826-7.021c0-0.157-0.02-0.236-0.059-0.236l-0.177,0.177c-1.652,2.558-4.229,3.835-7.729,3.835
				c-2.636,0-4.74-1.042-6.313-3.127c-1.574-2.084-2.36-4.425-2.36-7.021c0-4.72,1.514-8.614,4.543-11.682
				c3.028-3.068,7.375-4.602,13.039-4.602c1.376,0,2.065,0.099,2.065,0.295c0.118,0.669,0.177,1.396,0.177,2.183l-0.059,0.885h0.649
				c1.258,0,2.104,0.118,2.537,0.354V700.262z M1070.147,695.306l-1.239-0.177c-2.518,0-4.514,0.817-5.988,2.449
				c-1.475,1.632-2.213,3.668-2.213,6.106c0,1.22,0.363,2.282,1.092,3.186c0.727,0.905,1.789,1.357,3.186,1.357
				c1.396,0,2.566-0.55,3.51-1.652c0.944-1.101,1.416-1.986,1.416-2.655C1069.912,699.436,1069.99,696.565,1070.147,695.306z"/>
			<path d="M1100.473,686.278l-0.059,2.773c10.462,0,15.694,4.051,15.694,12.154c0,2.203-0.442,4.199-1.328,5.988
				c-0.885,1.791-1.976,3.207-3.274,4.248c-1.298,1.043-2.714,1.917-4.248,2.625c-2.635,1.219-4.996,1.829-7.08,1.829v0.885
				c0,5.9,0.157,9.833,0.472,11.8c-0.512,0.511-1.396,0.915-2.655,1.209c-1.259,0.295-2.282,0.442-3.068,0.442
				c-0.787,0-1.18-0.059-1.18-0.177c-0.158-1.259-0.236-3.855-0.236-7.788l0.295-27.435c0-3.225-0.059-5.467-0.177-6.726
				c0.472-0.472,1.269-0.924,2.39-1.357c1.121-0.432,2.094-0.649,2.92-0.649S1100.276,686.161,1100.473,686.278z M1100.178,706.398
				l0.059,2.95c2.399,0,4.503-0.688,6.313-2.065c1.809-1.376,2.714-3.363,2.714-5.959c0-4.248-2.971-6.372-8.909-6.372l-0.059,0.767
				c0,0.511,0,1.18,0,2.006L1100.178,706.398z"/>
			<path d="M1120.828,706.516l0.236-21.358c0-3.107-0.04-5.211-0.118-6.313c-0.079-1.101-0.118-1.691-0.118-1.77
				c0-0.393,0.658-0.846,1.976-1.357c1.317-0.511,2.487-0.767,3.511-0.767c1.022,0,1.534,0.079,1.534,0.236
				c-0.197,1.456-0.295,6.569-0.295,15.34l-0.118,14.455c0,2.714,0.039,4.386,0.118,5.015c0.197,1.731,0.767,3.304,1.711,4.72
				c0,0.393-0.807,1.022-2.419,1.888c-1.613,0.865-2.989,1.298-4.13,1.298c-0.315,0-0.669-0.59-1.062-1.77
				c-0.394-1.18-0.629-2.202-0.708-3.068C1120.866,712.2,1120.828,710.017,1120.828,706.516z"/>
			<path d="M1153.868,701.736c0,4.917,0.059,7.788,0.177,8.614c0.314,2.164,0.983,3.717,2.006,4.661c0,0.432-0.777,1.081-2.33,1.947
				c-1.555,0.865-2.96,1.298-4.219,1.298c-0.354,0-0.728-0.521-1.121-1.563c-0.394-1.042-0.619-1.819-0.678-2.33
				c-0.059-0.511-0.109-0.767-0.147-0.767l-0.177,0.118c-2.085,1.652-4.523,2.478-7.316,2.478c-2.793,0-4.947-0.678-6.46-2.035
				c-1.515-1.357-2.271-3.136-2.271-5.34c0-2.202,0.481-4.061,1.445-5.575c0.963-1.514,2.095-2.665,3.393-3.452
				c1.298-0.786,2.733-1.416,4.307-1.888c2.398-0.786,4.287-1.18,5.664-1.18l0.118-0.059c0-1.927-2.439-2.891-7.316-2.891
				c-1.928,0-3.363,0.08-4.307,0.236h-0.059c0-0.786,0.245-1.77,0.737-2.95c0.491-1.18,0.904-1.947,1.239-2.301
				c0.334-0.354,1.741-0.531,4.219-0.531c4.484,0,7.788,0.855,9.912,2.566s3.186,4.357,3.186,7.936V701.736z M1147.318,705.513
				v-2.242c0-0.865-0.02-1.298-0.059-1.298c-2.635,0-4.917,0.688-6.844,2.065c-1.22,0.866-1.829,1.947-1.829,3.245
				c0,0.826,0.295,1.515,0.885,2.065c0.59,0.551,1.484,0.826,2.684,0.826c1.2,0,2.36-0.354,3.481-1.062
				C1146.758,708.403,1147.318,707.204,1147.318,705.513z"/>
			<path d="M1171.214,716.605c-4.484,0-7.808-1.141-9.971-3.422c-2.164-2.281-3.245-5.152-3.245-8.614
				c0-4.838,1.623-8.692,4.868-11.564c3.245-2.871,7.207-4.307,11.888-4.307c0.904,0,1.436,0.02,1.593,0.059
				c0.236,0.197,0.354,1.142,0.354,2.832c0,1.692-0.236,2.714-0.708,3.068h-0.413c-3.029,0-5.487,0.708-7.375,2.124
				c-0.787,0.59-1.475,1.515-2.065,2.773c-0.59,1.259-0.885,2.773-0.885,4.543s0.531,3.236,1.593,4.396
				c1.062,1.161,2.773,1.74,5.133,1.74c1.849,0,3.481-0.354,4.897-1.062c0.157-0.078,0.255-0.118,0.295-0.118
				c0.314,0.315,0.472,1.377,0.472,3.186c0,1.81-0.217,2.891-0.649,3.245C1175.698,716.231,1173.771,716.605,1171.214,716.605z"/>
			<path d="M1200.713,714.894c-1.337,0.904-3.953,1.357-7.847,1.357c-3.894,0-6.884-1.161-8.968-3.481
				c-2.085-2.32-3.127-5.418-3.127-9.292c0-3.874,1.248-7.237,3.747-10.089c2.497-2.852,6.008-4.278,10.531-4.278
				c1.849,0,3.549,0.493,5.104,1.475c1.554,0.984,2.331,2.705,2.331,5.163c0,2.458-1.072,4.888-3.215,7.287
				c-2.145,2.399-5.065,4.229-8.762,5.487c0,0.472,0.481,0.855,1.446,1.15c0.963,0.295,1.917,0.443,2.861,0.443
				c2.989,0,5.349-0.531,7.08-1.593c0.039-0.039,0.098-0.059,0.177-0.059c0.079,0,0.118,0.375,0.118,1.121
				C1202.188,711.865,1201.696,713.635,1200.713,714.894z M1195.581,696.131c0-1.14-0.61-1.711-1.829-1.711
				c-1.613,0-3.029,0.826-4.248,2.478c-1.22,1.652-1.829,3.639-1.829,5.959c0,0.551,0.079,0.826,0.236,0.826
				c1.416-0.039,3.047-0.855,4.897-2.449C1194.656,699.642,1195.581,697.941,1195.581,696.131z"/>
			<path d="M1211.923,709.23c0.668,0.669,1.003,1.475,1.003,2.419c0,0.944-0.364,1.78-1.091,2.508
				c-0.728,0.728-1.563,1.091-2.507,1.091c-0.944,0-1.731-0.325-2.36-0.974c-0.629-0.649-0.944-1.475-0.944-2.478
				s0.344-1.848,1.033-2.537c0.688-0.688,1.504-1.033,2.448-1.033C1210.448,708.227,1211.254,708.561,1211.923,709.23z"/>
		</g>
	</g>
</g>
</svg>
