<?xml version="1.0" encoding="utf-8"?>
<!-- Generator: Adobe Illustrator 15.0.0, SVG Export Plug-In . SVG Version: 6.00 Build 0)  -->
<!DOCTYPE svg PUBLIC "-//W3C//DTD SVG 1.1//EN" "http://www.w3.org/Graphics/SVG/1.1/DTD/svg11.dtd">
<svg version="1.1" id="Layer_1" xmlns="http://www.w3.org/2000/svg" xmlns:xlink="http://www.w3.org/1999/xlink" x="0px" y="0px"
	 width="150.282px" height="266.487px" viewBox="0 0 150.282 266.487" enable-background="new 0 0 150.282 266.487"
	 xml:space="preserve">
<g>
	<ellipse fill="#99999A" cx="75.183" cy="258.987" rx="67.77" ry="7.5"/>
	<path fill="#FFFFFF" d="M94.18,120.164L107.47,5.14H42.896l13.288,115.024c-28.176,8.215-48.771,34.218-48.771,65.049
		c0,37.427,30.343,67.77,67.77,67.77c37.428,0,67.771-30.342,67.771-67.77C142.953,154.383,122.358,128.379,94.18,120.164"/>
	<path fill="#FA8072" d="M14.916,176.684c21.135,0,99.652,0,121.018,0c5.637,22.207-9.248,68.428-60.827,69.309
		C22.348,245.993,7.872,193.093,14.916,176.684"/>
	<path fill="#EA756C" d="M135.934,176.984c0,5.078-27.091,9.197-60.508,9.197c-33.419,0-60.51-4.119-60.51-9.197
		c0-5.079,27.091-9.197,60.51-9.197C108.843,167.786,135.934,171.905,135.934,176.984"/>
	<path fill="#FCABA2" d="M52.257,194.091c-2.652,0-4.802,2.15-4.802,4.8c0,2.654,2.15,4.804,4.802,4.804s4.802-2.15,4.802-4.804
		C57.06,196.24,54.91,194.091,52.257,194.091"/>
	<path fill="#FCABA2" d="M60.661,209.697c-1.823,0-3.301,1.479-3.301,3.302c0,1.823,1.478,3.303,3.301,3.303
		c1.823,0,3.302-1.479,3.302-3.303C63.963,211.176,62.483,209.697,60.661,209.697"/>
	<path fill="#FFFFFF" d="M41.557,144.779c-5.256,3.483-9.711,8.283-12.959,13.907c-2.407,4.162-4.102,8.782-5.009,13.551
		c1.831-0.461,3.922-0.896,6.24-1.299c0.68-3.458,1.681-6.861,3.009-10.183C35.006,155.251,38.075,150.029,41.557,144.779"/>
	<path fill="#FB998E" d="M22.806,181.528c0.083,5.111,0.991,10.173,2.562,14.948c2.042,6.068,5.026,11.829,9.281,16.522
		c-2.09-5.923-3.678-11.791-4.724-17.681c-0.736-4.167-1.159-8.341-1.188-12.483C26.524,182.427,24.537,181.99,22.806,181.528"/>
	<path fill="#EE9189" d="M29.829,170.937c-2.317,0.404-4.409,0.838-6.24,1.299c-0.318,1.671-0.539,3.361-0.66,5.055
		c-0.106,1.413-0.146,2.826-0.123,4.236c1.731,0.462,3.718,0.899,5.932,1.307c-0.011-1.704,0.044-3.403,0.172-5.095
		C29.081,175.454,29.387,173.184,29.829,170.937"/>
	<path fill="#231F20" d="M90.021,122.756L102.364,4.55l5.106,5.73h-0.005l-64.57-3.313L44.71,4.93l0,0.008l15.471,114.763
		l0.438,3.248l-3.309,1.077l-0.011,0.004c-14.283,5.201-26.418,15.227-33.819,27.907c-7.556,12.585-10.2,27.659-7.853,41.819
		c1.191,7.064,3.636,13.864,7.139,20.045c3.529,6.167,8.108,11.724,13.517,16.293c10.759,9.199,24.826,14.355,38.852,14.285
		c7.174,0.027,14.131-1.215,20.768-3.652c6.628-2.399,12.806-6.042,18.214-10.611c5.417-4.568,10.002-10.126,13.54-16.296
		c3.512-6.186,5.964-12.991,7.161-20.064c0.593-3.546,0.877-7.12,0.834-10.774c-0.033-3.567-0.4-7.201-1.034-10.756
		c-1.279-7.129-3.892-14.05-7.64-20.36c-7.408-12.709-19.563-22.766-33.879-27.987L90.021,122.756z M98.45,117.256
		c3.069,0.862,6.084,1.954,9.03,3.227c3.945,1.742,7.738,3.864,11.335,6.301c7.19,4.888,13.469,11.18,18.526,18.388
		c5.008,7.245,8.707,15.458,10.845,24.103c1.089,4.328,1.722,8.733,1.973,13.23c0.254,4.409,0.115,8.924-0.422,13.368
		c-2.047,17.863-11.089,34.879-24.689,46.839c-6.778,6.009-14.68,10.765-23.177,14.002c-8.481,3.219-17.663,4.855-26.627,4.872
		c-9.178-0.009-18.209-1.636-26.743-4.849c-8.501-3.23-16.411-7.981-23.198-13.987C11.687,230.796,2.62,213.777,0.555,195.897
		c-0.542-4.438-0.687-8.977-0.435-13.403c0.246-4.459,0.876-8.901,1.962-13.227c2.132-8.659,5.828-16.886,10.837-24.147
		c5.058-7.225,11.341-13.533,18.54-18.437c3.601-2.445,7.399-4.575,11.35-6.325c3.965-1.718,8.056-3.111,12.236-4.055l0.012-0.004
		l-2.871,4.325L41.082,5.357L41.081,5.35l-0.324-1.927l2.138-0.11L107.465,0h0.005l5.824,0.064l-0.718,5.666L98.45,117.256z"/>
</g>
</svg>
