<?xml version="1.0" encoding="utf-8"?>
<!-- Generator: Adobe Illustrator 15.0.0, SVG Export Plug-In . SVG Version: 6.00 Build 0)  -->
<!DOCTYPE svg PUBLIC "-//W3C//DTD SVG 1.1//EN" "http://www.w3.org/Graphics/SVG/1.1/DTD/svg11.dtd">
<svg version="1.1" id="Layer_1" xmlns="http://www.w3.org/2000/svg" xmlns:xlink="http://www.w3.org/1999/xlink" x="0px" y="0px"
	 width="1280px" height="800px" viewBox="0 0 1280 800" enable-background="new 0 0 1280 800" xml:space="preserve">
<g>
	<polyline fill="#FFFFFF" points="1281.001,799 1,799 1,-1 1281.001,-1 1281.001,799 	"/>
	<g>
		<path fill="#FA8072" d="M302.768,582.852h-22.925v-32.666h22.925c2.734,8.888,7.885,13.33,15.454,13.33
			c5.468,0,8.203-2.197,8.203-6.592c0-2.294-0.952-4.199-2.856-5.713c-2.051-1.659-6.372-3.955-12.964-6.885
			c-8.302-3.759-14.404-7.006-18.311-9.741c-3.662-2.49-6.787-5.933-9.375-10.327c-2.589-4.345-3.882-9.155-3.882-14.429
			c0-9.472,3.076-16.87,9.229-22.192c6.104-5.321,13.623-7.983,22.559-7.983s16.504,2.54,22.705,7.617v-6.299h23.071v29.004h-22.778
			c-2.783-8.007-7.716-12.012-14.795-12.012c-4.98,0-7.471,2.124-7.471,6.372c0,2.051,0.707,3.589,2.124,4.614
			c1.366,1.075,5.786,3.442,13.257,7.104c10.009,4.98,16.699,8.619,20.068,10.913c1.709,1.124,3.454,2.698,5.236,4.724
			c1.782,2.027,3.26,4.114,4.432,6.262c2.685,4.786,4.028,9.961,4.028,15.527c0,8.545-3.175,15.772-9.521,21.68
			c-6.348,6.006-14.355,9.009-24.023,9.009c-8.984,0-17.114-2.661-24.39-7.983V582.852z"/>
		<path fill="#FA8072" d="M408.822,582.852h-40.356v-24.39h7.764l19.116-53.101h-8.203v-24.39h73.242v24.39h-8.203l19.482,53.101
			h7.471v24.39h-53.174v-22.339h8.936l-3.882-12.817H404.94l-4.468,12.817h8.35V582.852z M418.417,506.826l-9.595,28.198h18.237
			L418.417,506.826z"/>
		<path fill="#FA8072" d="M583.065,582.852h-96.973v-24.39h9.155v-53.101h-9.155v-24.39h58.228v24.39h-9.668v53.101h24.097v-16.333
			h24.316V582.852z"/>
		<path fill="#FA8072" d="M631.479,582.852h-39.478v-24.39h7.837v-53.101h-8.057v-24.39h61.45l15.015,39.331l15.381-39.331h61.084
			v24.39h-7.983v53.101h8.203v24.39h-53.174v-24.39h8.13v-56.909l-30.762,81.299h-15.234l-30.469-80.566v56.177h8.057V582.852z"/>
		<path fill="#FA8072" d="M758.554,531.655c0-8.496,2.075-16.723,6.226-24.683c4.102-7.91,10.474-14.575,19.116-19.995
			c3.076-1.904,6.237-3.417,9.484-4.541c3.247-1.123,6.775-1.989,10.584-2.6c3.809-0.61,7.812-0.916,12.012-0.916
			c18.262,0,32.397,5.347,42.407,16.04c4.98,5.273,8.74,10.986,11.279,17.139c2.538,6.152,3.809,12.671,3.809,19.556
			c0,14.209-5.176,26.563-15.527,37.061c-10.353,10.499-24.342,15.747-41.968,15.747c-17.041,0-30.86-4.931-41.455-14.795
			C763.875,559.854,758.554,547.183,758.554,531.655z M802.792,531.655c0,11.329,1.099,18.97,3.296,22.925
			c2.099,4.004,5.395,6.006,9.888,6.006c4.442,0,7.764-1.928,9.961-5.786c2.197-3.906,3.296-11.62,3.296-23.145
			c0-11.181-1.074-18.798-3.223-22.852c-2.1-4.003-5.445-6.006-10.034-6.006c-4.395,0-7.69,1.93-9.888,5.786
			C803.891,512.442,802.792,520.132,802.792,531.655z"/>
		<path fill="#FA8072" d="M927.597,582.852h-41.821v-24.39h8.936v-53.101h-8.936v-24.39h48.267l37.061,53.247v-28.857h-8.276v-24.39
			h41.089v24.39h-8.862v78.809h-33.545l-42.92-61.597v35.889h9.009V582.852z"/>
	</g>
	<ellipse fill="#99999A" cx="641.032" cy="371.12" rx="51.412" ry="5.689"/>
	<path fill="#FFFFFF" d="M655.445,265.806l10.081-87.26h-48.987l10.08,87.26c-21.375,6.231-36.998,25.96-36.998,49.346
		c0,28.394,23.019,51.413,51.411,51.413c28.394,0,51.411-23.019,51.411-51.413C692.442,291.766,676.819,272.038,655.445,265.806"/>
	<path fill="#FA8072" d="M595.312,308.682c16.033,0,75.598,0,91.807,0c4.276,16.849-7.014,51.912-46.145,52.582
		C600.951,361.264,589.969,321.132,595.312,308.682"/>
	<path fill="#EA756C" d="M687.119,308.911c0,3.854-20.551,6.977-45.902,6.977c-25.353,0-45.904-3.124-45.904-6.977
		s20.551-6.977,45.904-6.977C666.567,301.934,687.119,305.057,687.119,308.911"/>
	<path fill="#FCABA2" d="M623.641,321.887c-2.012,0-3.644,1.632-3.644,3.645c0,2.012,1.632,3.643,3.644,3.643
		s3.643-1.631,3.643-3.643C627.283,323.519,625.653,321.887,623.641,321.887"/>
	<path fill="#FCABA2" d="M630.015,333.727c-1.383,0-2.505,1.122-2.505,2.504c0,1.384,1.122,2.506,2.505,2.506
		c1.384,0,2.504-1.122,2.504-2.506C632.519,334.849,631.398,333.727,630.015,333.727"/>
	<path fill="#FFFFFF" d="M615.522,284.479c-4.202,2.427-7.748,6.02-10.341,10.299c-1.977,3.262-3.352,6.937-4.054,10.73
		c1.744-0.474,3.839-0.913,6.234-1.31c0.478-2.48,1.161-4.931,2.058-7.352C610.934,292.688,613.095,288.674,615.522,284.479"/>
	<path fill="#FB998E" d="M600.578,312.158c0.059,4.011,0.809,7.975,2.112,11.679c1.669,4.625,4.104,8.982,7.591,12.394
		c-1.322-4.64-2.358-9.105-3.034-13.551c-0.467-3.094-0.732-6.165-0.738-9.203C604.217,313.075,602.223,312.633,600.578,312.158"/>
	<path fill="#EE9189" d="M607.361,304.199c-2.395,0.397-4.491,0.836-6.234,1.31c-0.219,1.186-0.373,2.382-0.458,3.581
		c-0.077,1.023-0.106,2.048-0.091,3.068c1.645,0.475,3.64,0.917,5.931,1.319c-0.003-1.319,0.043-2.632,0.142-3.938
		C606.785,307.744,607.021,305.964,607.361,304.199"/>
	<path fill="#231F20" d="M652.288,267.771l9.364-89.673l3.874,4.347h-0.004l-48.984-2.514l1.376-1.545v0.006l11.737,87.062
		l0.333,2.464l-2.511,0.817l-0.008,0.003c-10.835,3.945-20.041,11.552-25.657,21.171c-5.731,9.547-7.737,20.982-5.957,31.725
		c0.904,5.359,2.758,10.519,5.416,15.207c2.677,4.678,6.151,8.894,10.254,12.359c8.163,6.979,18.833,10.892,29.474,10.838
		c5.443,0.021,10.721-0.922,15.755-2.771c5.028-1.819,9.715-4.583,13.818-8.049c4.109-3.466,7.588-7.683,10.271-12.363
		c2.664-4.692,4.524-9.855,5.433-15.221c0.45-2.69,0.665-5.401,0.633-8.174c-0.025-2.706-0.304-5.463-0.785-8.16
		c-0.97-5.408-2.952-10.658-5.795-15.445c-5.621-9.642-14.841-17.271-25.702-21.232L652.288,267.771z M658.683,263.6
		c2.328,0.654,4.615,1.482,6.85,2.447c2.993,1.322,5.87,2.933,8.599,4.78c5.455,3.708,10.218,8.481,14.054,13.95
		c3.799,5.496,6.605,11.727,8.227,18.285c0.827,3.283,1.307,6.625,1.497,10.036c0.193,3.345,0.088,6.771-0.32,10.142
		c-1.553,13.551-8.413,26.46-18.73,35.532c-5.142,4.559-11.137,8.167-17.582,10.623c-6.434,2.441-13.4,3.684-20.2,3.695
		c-6.963-0.006-13.814-1.241-20.288-3.678c-6.449-2.451-12.45-6.055-17.598-10.611c-10.33-9.067-17.208-21.979-18.775-35.543
		c-0.411-3.367-0.521-6.811-0.33-10.168c0.187-3.383,0.665-6.753,1.489-10.034c1.618-6.568,4.421-12.81,8.221-18.318
		c3.837-5.48,8.604-10.267,14.064-13.986c2.732-1.855,5.612-3.471,8.61-4.799c3.008-1.303,6.111-2.36,9.283-3.076l0.009-0.003
		l-2.178,3.281l-8.424-87.444l-0.001-0.006l-0.245-1.462l1.622-0.083l48.984-2.514h0.004l4.418,0.049l-0.544,4.298L658.683,263.6z"
		/>
</g>
</svg>
