<?xml version="1.0" encoding="utf-8"?>
<!-- Generator: Adobe Illustrator 15.0.0, SVG Export Plug-In . SVG Version: 6.00 Build 0)  -->
<!DOCTYPE svg PUBLIC "-//W3C//DTD SVG 1.1//EN" "http://www.w3.org/Graphics/SVG/1.1/DTD/svg11.dtd">
<svg version="1.1" id="Layer_1" xmlns="http://www.w3.org/2000/svg" xmlns:xlink="http://www.w3.org/1999/xlink" x="0px" y="0px"
	 width="143.225px" height="214.901px" viewBox="0 0 143.225 214.901" enable-background="new 0 0 143.225 214.901"
	 xml:space="preserve">
<g>
	<path fill="#FFFFFF" d="M90.05,76.596l12.553-68.659H41.604l12.553,68.659c-26.618,7.76-46.072,32.325-46.072,61.449
		c0,35.358,28.662,64.02,64.018,64.02c35.358,0,64.02-28.661,64.02-64.02C136.122,108.921,116.668,84.355,90.05,76.596"/>
	<ellipse fill="#99999A" cx="72.103" cy="207.401" rx="43.752" ry="7.5"/>
	<path fill="#DC143C" d="M14.943,129.32c19.964,0,94.136,0,114.32,0c5.325,20.979-8.735,64.641-57.46,65.476
		C21.965,194.796,8.289,144.821,14.943,129.32"/>
	<path fill="#EF2555" d="M128.937,129.227c0,4.785-25.518,8.664-56.997,8.664c-31.478,0-56.997-3.879-56.997-8.664
		c0-4.783,25.519-8.662,56.997-8.662C103.419,120.565,128.937,124.444,128.937,129.227"/>
	<path fill="#E8647F" d="M50.218,145.764c-2.506,0-4.538,2.03-4.538,4.536s2.032,4.538,4.538,4.538c2.504,0,4.534-2.032,4.534-4.538
		S52.723,145.764,50.218,145.764"/>
	<circle fill="#DC143C" cx="65.812" cy="106.772" r="4.537"/>
	<circle fill="#DC143C" cx="69.262" cy="95.84" r="2.12"/>
	<path fill="#E8647F" d="M58.156,160.506c-1.722,0-3.119,1.397-3.119,3.119c0,1.724,1.397,3.119,3.119,3.119
		c1.722,0,3.119-1.396,3.119-3.119C61.274,161.903,59.878,160.506,58.156,160.506"/>
	<path fill="#E8647F" d="M45.681,169.536c-1.722,0-3.119,1.395-3.119,3.119c0,1.722,1.397,3.117,3.119,3.117
		c1.724,0,3.119-1.395,3.119-3.117C48.799,170.931,47.404,169.536,45.681,169.536"/>
	<path fill="#FFFFFF" d="M37.652,100.487c-5.127,3.354-9.47,8.009-12.64,13.469c-2.072,3.568-3.603,7.486-4.542,11.545
		c1.741-0.555,3.857-1.076,6.3-1.558c0.625-2.68,1.452-5.324,2.483-7.92C31.341,110.684,34.299,105.609,37.652,100.487"/>
	<path fill="#E34363" d="M19.445,132.607c-0.382,6.165,0.527,12.336,2.428,18.077c1.997,5.892,4.914,11.483,9.076,16.019
		c-1.997-5.765-3.517-11.464-4.519-17.177c-0.891-5.121-1.301-10.245-1.068-15.305C23.031,133.721,21.042,133.18,19.445,132.607"/>
	<path fill="#F25177" d="M26.771,123.944c-2.443,0.482-4.56,1.003-6.3,1.558c-0.498,2.149-0.829,4.34-0.986,6.538
		c-0.014,0.189-0.027,0.379-0.039,0.568c1.596,0.572,3.586,1.113,5.916,1.614c0.026-0.579,0.061-1.157,0.105-1.733
		C25.681,129.609,26.115,126.757,26.771,123.944"/>
	<circle fill="#FFFFFF" cx="64.604" cy="105.267" r="1.901"/>
	<circle fill="#FFFFFF" cx="67.679" cy="107.705" r="0.537"/>
	<circle fill="#FFFFFF" cx="68.47" cy="95.235" r="0.792"/>
	<path fill="#231F20" d="M85.584,78.477l9.64-72.515l7.15,8.576h-0.003l-60.997-3.902l3.312-3.972l0.001,0.006l13.199,68.534
		l0.671,3.485l-3.503,1.102l-0.009,0.003c-13.424,4.952-24.8,14.409-31.719,26.337c-7.068,11.835-9.514,25.981-7.295,39.257
		c1.128,6.623,3.43,12.992,6.719,18.782c3.314,5.775,7.608,10.979,12.68,15.255c10.086,8.612,23.264,13.436,36.396,13.37
		c6.728,0.027,13.239-1.136,19.457-3.417c6.209-2.244,11.998-5.652,17.069-9.93c5.079-4.275,9.381-9.481,12.704-15.259
		c3.297-5.792,5.607-12.168,6.741-18.799c0.562-3.325,0.834-6.676,0.799-10.106c-0.024-3.345-0.364-6.757-0.95-10.093
		c-1.185-6.693-3.623-13.194-7.128-19.131c-6.925-11.957-18.32-21.444-31.778-26.418L85.584,78.477z M94.445,73.126
		c2.732,0.784,5.422,1.75,8.052,2.876c3.746,1.644,7.348,3.647,10.766,5.95c6.833,4.621,12.802,10.581,17.617,17.415
		c4.766,6.87,8.29,14.664,10.333,22.873c1.042,4.11,1.646,8.293,1.89,12.566c0.246,4.186,0.118,8.478-0.388,12.7
		c-1.924,16.978-10.51,33.161-23.434,44.537c-6.44,5.716-13.954,10.24-22.031,13.321c-8.063,3.062-16.799,4.619-25.316,4.636
		c-8.732-0.01-17.316-1.558-25.432-4.614c-8.082-3.074-15.603-7.592-22.052-13.306c-12.94-11.37-21.549-27.558-23.492-44.552
		c-0.51-4.218-0.644-8.531-0.399-12.735c0.238-4.236,0.841-8.456,1.879-12.562c2.039-8.223,5.56-16.031,10.327-22.917
		c4.816-6.85,10.79-12.827,17.63-17.463c3.422-2.312,7.03-4.323,10.781-5.974c3.766-1.617,7.648-2.929,11.614-3.81l0.01-0.003
		l-2.832,4.587L38.064,7.881l-0.001-0.006l-0.924-3.701l4.236-0.271L102.371,0h0.003l9.051,0.441l-1.901,8.135L94.445,73.126z"/>
</g>
</svg>
