<?xml version="1.0" encoding="utf-8"?>
<!-- Generator: Adobe Illustrator 15.0.0, SVG Export Plug-In . SVG Version: 6.00 Build 0)  -->
<!DOCTYPE svg PUBLIC "-//W3C//DTD SVG 1.1//EN" "http://www.w3.org/Graphics/SVG/1.1/DTD/svg11.dtd">
<svg version="1.1" id="Layer_1" xmlns="http://www.w3.org/2000/svg" xmlns:xlink="http://www.w3.org/1999/xlink" x="0px" y="0px"
	 width="1280px" height="800px" viewBox="0 0 1280 800" enable-background="new 0 0 1280 800" xml:space="preserve">
<g>
	<polyline fill="#FFFFFF" points="1279,798 -0.999,798 -0.999,-2 1279,-2 1279,798 	"/>
	<g>
		<path fill="#DC143C" d="M307.254,535.32l26.44,9.302c-2.247,10.889-7.397,19.801-15.454,26.733
			c-8.155,6.983-19.385,10.474-33.691,10.474c-19.532,0-33.984-5.102-43.359-15.308c-9.424-10.155-14.136-22.559-14.136-37.207
			c0-14.746,4.614-27.271,13.843-37.573c9.229-10.302,21.215-15.454,35.962-15.454c11.962,0,21.704,2.955,29.224,8.862v-6.812
			h24.463v37.207H305.13c-1.318-4.639-3.541-8.301-6.665-10.986c-3.125-2.637-6.69-3.955-10.693-3.955
			c-11.036,0-16.553,9.497-16.553,28.491c0,19.043,5.713,28.564,17.139,28.564C298.367,557.659,304.666,550.214,307.254,535.32z"/>
		<path fill="#DC143C" d="M401.957,580.218h-55.372v-24.39h8.276v-53.101h-8.276v-24.39h55.372c4.98,0,9.594,0.086,13.842,0.256
			c4.248,0.172,7.885,0.416,10.914,0.732c3.027,0.318,5.811,0.745,8.35,1.282c7.129,1.514,12.914,4.81,17.357,9.888
			c4.492,5.176,6.738,11.279,6.738,18.311c0,5.273-1.367,10.06-4.102,14.355c-2.734,4.248-6.324,7.373-10.766,9.375l14.062,23.291
			h7.324v24.39h-36.695l-22.191-41.602h-12.525v17.212h7.691V580.218z M394.266,500.677v19.409h4.395
			c5.762,0,9.668-0.171,11.719-0.513c2.197-0.341,4.053-1.318,5.566-2.93c1.514-1.513,2.271-3.589,2.271-6.226
			s-0.758-4.735-2.271-6.299c-1.514-1.611-3.441-2.588-5.785-2.93c-2.246-0.341-6.348-0.513-12.305-0.513H394.266z"/>
		<path fill="#DC143C" d="M531.448,580.218h-58.081v-24.39h9.375v-53.101h-9.375v-24.39h58.081v24.39h-9.302v53.101h9.302V580.218z"
			/>
		<path fill="#DC143C" d="M582.791,580.218h-39.478v-24.39h7.837v-53.101h-8.057v-24.39h61.45l15.015,39.331l15.381-39.331h61.084
			v24.39h-7.983v53.101h8.203v24.39h-53.174v-24.39h8.13v-56.909l-30.762,81.299h-15.234l-30.469-80.566v56.177h8.057V580.218z"/>
		<path fill="#DC143C" d="M732.133,580.218h-22.925v-32.666h22.925c2.734,8.888,7.885,13.33,15.454,13.33
			c5.468,0,8.203-2.197,8.203-6.592c0-2.295-0.952-4.199-2.856-5.713c-2.051-1.659-6.372-3.955-12.964-6.885
			c-8.302-3.76-14.404-7.006-18.311-9.741c-3.662-2.49-6.787-5.933-9.375-10.327c-2.589-4.346-3.882-9.155-3.882-14.429
			c0-9.473,3.076-16.87,9.229-22.192c6.104-5.321,13.623-7.983,22.559-7.983s16.504,2.539,22.705,7.617v-6.299h23.071v29.004
			h-22.778c-2.783-8.008-7.716-12.012-14.795-12.012c-4.98,0-7.471,2.124-7.471,6.372c0,2.051,0.707,3.589,2.124,4.614
			c1.366,1.074,5.786,3.442,13.257,7.104c10.009,4.98,16.699,8.618,20.068,10.913c1.709,1.124,3.454,2.698,5.236,4.725
			s3.26,4.113,4.432,6.262c2.685,4.786,4.028,9.961,4.028,15.527c0,8.545-3.175,15.772-9.521,21.68
			c-6.348,6.006-14.355,9.009-24.023,9.009c-8.984,0-17.114-2.661-24.39-7.983V580.218z"/>
		<path fill="#DC143C" d="M803.617,529.021c0-8.496,2.075-16.724,6.226-24.683c4.102-7.91,10.474-14.575,19.116-19.995
			c3.076-1.904,6.237-3.417,9.484-4.541c3.247-1.123,6.775-1.989,10.584-2.6s7.812-0.916,12.012-0.916
			c18.262,0,32.397,5.347,42.407,16.04c4.98,5.273,8.74,10.986,11.279,17.139c2.538,6.152,3.809,12.671,3.809,19.556
			c0,14.209-5.176,26.562-15.527,37.061c-10.353,10.499-24.342,15.747-41.968,15.747c-17.041,0-30.86-4.932-41.455-14.795
			C808.938,557.22,803.617,544.549,803.617,529.021z M847.855,529.021c0,11.328,1.099,18.97,3.296,22.925
			c2.099,4.004,5.395,6.006,9.888,6.006c4.442,0,7.764-1.929,9.961-5.786c2.197-3.906,3.296-11.62,3.296-23.145
			c0-11.181-1.074-18.798-3.223-22.852c-2.1-4.003-5.445-6.006-10.034-6.006c-4.395,0-7.69,1.93-9.888,5.786
			C848.954,509.808,847.855,517.498,847.855,529.021z"/>
		<path fill="#DC143C" d="M972.66,580.218h-41.821v-24.39h8.936v-53.101h-8.936v-24.39h48.267l37.061,53.247v-28.857h-8.276v-24.39
			h41.089v24.39h-8.862v78.809h-33.545l-42.92-61.597v35.889h9.009V580.218z"/>
	</g>
	<path fill="#FFFFFF" d="M650.7,265.744l9.523-52.088h-46.276l9.523,52.088c-20.191,5.887-34.952,24.522-34.952,46.615
		c0,26.824,21.745,48.567,48.567,48.567c26.824,0,48.567-21.743,48.567-48.567C685.652,290.267,670.893,271.631,650.7,265.744"/>
	<ellipse fill="#99999A" cx="637.085" cy="364.976" rx="33.191" ry="5.689"/>
	<path fill="#DC143C" d="M593.722,305.741c15.146,0,71.415,0,86.726,0c4.042,15.916-6.625,49.038-43.59,49.672
		C599.049,355.413,588.675,317.5,593.722,305.741"/>
	<path fill="#EF2555" d="M680.202,305.671c0,3.631-19.359,6.572-43.24,6.572s-43.24-2.941-43.24-6.572
		c0-3.63,19.359-6.571,43.24-6.571S680.202,302.041,680.202,305.671"/>
	<path fill="#E8647F" d="M620.483,318.217c-1.9,0-3.441,1.541-3.441,3.44c0,1.9,1.541,3.441,3.441,3.441
		c1.9,0,3.441-1.541,3.441-3.441C623.924,319.758,622.383,318.217,620.483,318.217"/>
	<circle fill="#DC143C" cx="632.312" cy="288.636" r="3.442"/>
	<circle fill="#DC143C" cx="634.93" cy="280.343" r="1.608"/>
	<path fill="#E8647F" d="M626.505,329.402c-1.307,0-2.366,1.057-2.366,2.364c0,1.307,1.059,2.366,2.366,2.366
		s2.366-1.06,2.366-2.366C628.871,330.459,627.812,329.402,626.505,329.402"/>
	<path fill="#E8647F" d="M617.042,336.249c-1.307,0-2.366,1.061-2.366,2.368c0,1.305,1.059,2.364,2.366,2.364
		s2.366-1.06,2.366-2.364C619.408,337.31,618.349,336.249,617.042,336.249"/>
	<path fill="#FFFFFF" d="M610.951,283.868c-4.104,2.333-7.566,5.811-10.1,9.968c-1.728,2.836-2.985,5.996-3.721,9.273
		c1.605-0.576,3.734-1.109,6.298-1.588c0.429-1.889,0.981-3.762,1.663-5.616C606.544,291.867,608.622,287.967,610.951,283.868"/>
	<path fill="#E34363" d="M596.43,307.966c-0.33,4.837,0.42,9.675,2,14.122c1.634,4.494,4.016,8.722,7.435,12.015
		c-1.252-4.522-2.238-8.858-2.878-13.172c-0.565-3.819-0.817-7.599-0.646-11.321C599.886,309.111,597.884,308.559,596.43,307.966"/>
	<path fill="#F25177" d="M603.428,301.521c-2.564,0.479-4.692,1.012-6.298,1.588c-0.343,1.528-0.573,3.082-0.685,4.641
		c-0.005,0.072-0.01,0.144-0.015,0.216c1.454,0.593,3.456,1.146,5.911,1.644c0.022-0.471,0.05-0.941,0.086-1.41
		C602.597,305.951,602.928,303.725,603.428,301.521"/>
	<circle fill="#FFFFFF" cx="631.396" cy="287.494" r="1.443"/>
	<circle fill="#FFFFFF" cx="633.729" cy="289.344" r="0.407"/>
	<circle fill="#FFFFFF" cx="634.329" cy="279.884" r="0.601"/>
	<path fill="#231F20" d="M647.312,267.171l7.313-55.012l5.425,6.506h-0.003l-46.273-2.96l2.512-3.014l0.001,0.005l10.013,51.992
		l0.509,2.644l-2.658,0.835l-0.006,0.003c-10.184,3.757-18.814,10.931-24.063,19.979c-5.362,8.979-7.218,19.711-5.534,29.781
		c0.855,5.025,2.602,9.856,5.097,14.248c2.514,4.381,5.771,8.33,9.619,11.574c7.651,6.533,17.648,10.192,27.61,10.143
		c5.104,0.021,10.043-0.861,14.76-2.592c4.711-1.702,9.102-4.289,12.949-7.533c3.854-3.243,7.117-7.192,9.637-11.576
		c2.501-4.395,4.254-9.23,5.114-14.262c0.426-2.521,0.633-5.064,0.606-7.667c-0.019-2.536-0.276-5.126-0.721-7.655
		c-0.899-5.078-2.749-10.011-5.408-14.514c-5.253-9.071-13.898-16.269-24.108-20.041L647.312,267.171z M654.035,263.111
		c2.073,0.595,4.114,1.327,6.109,2.183c2.841,1.246,5.574,2.766,8.167,4.514c5.184,3.505,9.712,8.027,13.365,13.211
		c3.615,5.212,6.289,11.125,7.839,17.352c0.79,3.119,1.25,6.292,1.434,9.533c0.187,3.176,0.089,6.432-0.294,9.635
		c-1.46,12.879-7.974,25.156-17.777,33.787c-4.886,4.336-10.585,7.768-16.713,10.105c-6.117,2.323-12.745,3.504-19.206,3.517
		c-6.625-0.007-13.136-1.182-19.293-3.5c-6.132-2.333-11.837-5.761-16.729-10.095c-9.817-8.625-16.348-20.906-17.821-33.798
		c-0.388-3.2-0.488-6.472-0.303-9.661c0.181-3.213,0.638-6.414,1.426-9.531c1.546-6.236,4.218-12.16,7.834-17.385
		c3.653-5.195,8.185-9.73,13.375-13.248c2.596-1.753,5.333-3.279,8.179-4.531c2.856-1.227,5.802-2.222,8.811-2.89l0.007-0.003
		l-2.148,3.48l-9.031-52.172l-0.001-0.004l-0.701-2.809l3.213-0.205l46.273-2.961h0.003l6.866,0.335l-1.442,6.172L654.035,263.111z"
		/>
</g>
</svg>
