<?xml version="1.0" encoding="utf-8"?>
<!-- Generator: Adobe Illustrator 15.0.0, SVG Export Plug-In . SVG Version: 6.00 Build 0)  -->
<!DOCTYPE svg PUBLIC "-//W3C//DTD SVG 1.1//EN" "http://www.w3.org/Graphics/SVG/1.1/DTD/svg11.dtd">
<svg version="1.1" id="Layer_1" xmlns="http://www.w3.org/2000/svg" xmlns:xlink="http://www.w3.org/1999/xlink" x="0px" y="0px"
	 width="197.256px" height="408.146px" viewBox="0 0 197.256 408.146" enable-background="new 0 0 197.256 408.146"
	 xml:space="preserve">
<g>
	<ellipse fill="#99999A" cx="103.37" cy="400.646" rx="80.538" ry="7.5"/>
	<path fill="#FFFFFF" d="M124.533,213.844L142.618,7.27H54.719l18.089,206.574c-38.355,11.183-66.39,46.581-66.39,88.548
		c0,50.948,41.302,92.25,92.25,92.25c50.949,0,92.251-41.302,92.251-92.25C190.92,260.425,162.888,225.027,124.533,213.844"/>
	<circle fill="#800000" cx="105.537" cy="242.564" r="6.537"/>
	<circle fill="#800000" cx="120.777" cy="31.364" r="6.537"/>
	<circle fill="#800000" cx="94.137" cy="112.835" r="6.537"/>
	<circle fill="#800000" cx="91.809" cy="210.397" r="8.704"/>
	<circle fill="#800000" cx="112.074" cy="133.731" r="8.704"/>
	<circle fill="#800000" cx="94.137" cy="262.131" r="4.495"/>
	<path fill="#800000" d="M14.112,289.502c29.653,0,139.818,0,169.796,0c7.911,31.16-12.974,97.04-85.344,98.278
		C24.541,387.78,4.229,312.526,14.112,289.502"/>
	<path fill="#8D191C" d="M183.908,289.923c0,7.128-38.009,12.905-84.897,12.905c-46.888,0-84.899-5.777-84.899-12.905
		c0-7.127,38.011-12.904,84.899-12.904C145.899,277.018,183.908,282.796,183.908,289.923"/>
	<path fill="#B46769" d="M135.633,286.245c-13.011,0-23.56,2.03-23.56,4.535s10.548,4.537,23.56,4.537
		c13.009,0,23.556-2.032,23.556-4.537S148.642,286.245,135.633,286.245"/>
	<path fill="#FFFFFF" d="M45.527,249.102c-6.51,4.739-12.046,10.981-16.074,18.202c-2.897,5.188-4.962,10.885-6.116,16.762
		c1.854-0.552,3.963-1.082,6.301-1.584c0.917-4.468,2.269-8.855,4.056-13.108C36.639,262.271,40.79,255.607,45.527,249.102"/>
	<path fill="#993333" d="M22.235,295.438c-0.017,6.835,1.097,13.629,3.104,20.059c1.231,3.908,2.777,7.697,4.648,11.303
		c1.911,3.583,4.001,7.075,6.647,10.137c-3.002-7.448-5.246-14.989-6.738-22.598c-1.115-5.747-1.735-11.542-1.723-17.301
		C25.955,296.529,23.968,295.995,22.235,295.438"/>
	<path fill="#A44749" d="M29.638,282.482c-2.338,0.502-4.448,1.032-6.301,1.584c-0.452,2.299-0.764,4.627-0.932,6.961
		c-0.11,1.47-0.167,2.941-0.17,4.41c1.733,0.557,3.72,1.091,5.938,1.601c0.004-1.859,0.073-3.713,0.213-5.562
		C28.612,288.453,29.029,285.45,29.638,282.482"/>
	<circle fill="#FFFFFF" cx="118.901" cy="27.893" r="1.877"/>
	<circle fill="#FFFFFF" cx="91.833" cy="109.486" r="2.167"/>
	<circle fill="#FFFFFF" cx="109.011" cy="130.007" r="3.062"/>
	<circle fill="#FFFFFF" cx="113.833" cy="133.569" r="1.125"/>
	<circle fill="#FFFFFF" cx="88.918" cy="207.087" r="3.312"/>
	<circle fill="#FFFFFF" cx="92.633" cy="211.224" r="0.824"/>
	<circle fill="#FFFFFF" cx="104.081" cy="240.443" r="2.123"/>
	<circle fill="#FFFFFF" cx="106.372" cy="243.402" r="0.835"/>
	<circle fill="#FFFFFF" cx="93.038" cy="261.427" r="2.267"/>
	<path fill="#231F20" d="M120.458,216.582l14.92-209.947l7.241,7.903h-0.007l-87.893-3.976l3.282-3.581l0,0.01l18.815,206.5
		l0.297,3.256l-3.179,0.958l-0.018,0.006c-4.994,1.63-9.827,3.704-14.424,6.187c-4.607,2.462-8.988,5.323-13.07,8.548
		c-8.167,6.439-15.199,14.264-20.595,23.062c-10.96,17.521-15.125,38.854-11.987,59.048c1.565,10.082,4.935,19.841,9.863,28.729
		c4.938,8.885,11.48,16.865,19.192,23.455c7.708,6.591,16.537,11.868,26.038,15.371c9.47,3.525,19.652,5.305,29.699,5.274
		c10.228,0.035,20.281-1.741,29.795-5.263c9.504-3.499,18.34-8.774,26.053-15.365c7.719-6.589,14.268-14.57,19.213-23.46
		c4.936-8.891,8.312-18.657,9.883-28.747c3.149-20.21-1.011-41.571-11.979-59.119c-5.4-8.812-12.438-16.649-20.615-23.103
		c-4.087-3.23-8.474-6.098-13.088-8.566c-4.604-2.489-9.444-4.568-14.447-6.202L120.458,216.582z M128.718,211.01
		c4.463,1.324,8.846,2.959,13.087,4.926c5.212,2.441,10.209,5.365,14.92,8.71c9.423,6.693,17.62,15.158,24.133,24.804
		c6.485,9.668,11.216,20.557,13.879,31.963c2.675,11.414,3.189,23.301,1.687,34.957c-1.504,11.662-5.158,23.082-10.768,33.463
		c-5.583,10.394-13.046,19.777-21.921,27.584c-8.874,7.811-19.207,13.967-30.289,18.14c-11.063,4.18-22.981,6.322-34.721,6.343
		c-11.92-0.012-23.71-2.146-34.819-6.317c-11.088-4.166-21.428-10.315-30.312-18.122c-8.884-7.804-16.357-17.186-21.952-27.582
		c-5.622-10.382-9.286-21.807-10.8-33.477c-1.513-11.664-1.008-23.562,1.661-34.988c2.658-11.419,7.384-22.324,13.87-32.008
		c6.513-9.664,14.713-18.145,24.144-24.855c4.714-3.353,9.716-6.285,14.934-8.734c5.227-2.43,10.661-4.381,16.21-5.831l0.019-0.005
		l-2.882,4.213L51.439,7.568l-0.001-0.011l-0.455-3.412l3.737-0.169L142.612,0h0.007l8.051,0.132l-0.809,7.772L128.718,211.01z"/>
</g>
</svg>
