<?xml version="1.0" encoding="utf-8"?>
<!-- Generator: Adobe Illustrator 15.0.0, SVG Export Plug-In . SVG Version: 6.00 Build 0)  -->
<!DOCTYPE svg PUBLIC "-//W3C//DTD SVG 1.1//EN" "http://www.w3.org/Graphics/SVG/1.1/DTD/svg11.dtd">
<svg version="1.1" id="Layer_1" xmlns="http://www.w3.org/2000/svg" xmlns:xlink="http://www.w3.org/1999/xlink" x="0px" y="0px"
	 width="167.808px" height="298.418px" viewBox="0 0 167.808 298.418" enable-background="new 0 0 167.808 298.418"
	 xml:space="preserve">
<g>
	<ellipse fill="#99999A" cx="83.782" cy="290.918" rx="80.201" ry="7.5"/>
	<path fill="#FFFFFF" d="M104.446,137.047l12.64-127.979l-71.711,1.189L62.25,137.747c-31.139,9.646-53.526,38.902-52.96,73.137
		c0.69,41.565,34.945,74.701,76.506,74.011c41.564-0.69,74.701-34.943,74.011-76.508
		C159.237,174.15,135.889,145.653,104.446,137.047"/>
	<path fill="#FF0000" d="M16.578,200.172c23.472,0,110.679,0,134.408,0c6.261,24.666-10.268,76-67.557,76.979
		C24.834,277.152,8.754,218.397,16.578,200.172"/>
	<path fill="#DB0909" d="M150.986,200.506c0,5.641-30.087,10.214-67.204,10.214c-37.116,0-67.204-4.573-67.204-10.214
		c0-5.642,30.088-10.217,67.204-10.217C120.899,190.289,150.986,194.864,150.986,200.506"/>
	<path fill="#FF5757" d="M112.716,219.504c-2.946,0-5.333,2.388-5.333,5.334s2.387,5.334,5.333,5.334
		c2.946,0,5.333-2.388,5.333-5.334S115.663,219.504,112.716,219.504"/>
	<path fill="#FF5757" d="M107.384,234.995c-2.026,0-3.668,1.641-3.668,3.667s1.643,3.667,3.668,3.667s3.666-1.641,3.666-3.667
		S109.41,234.995,107.384,234.995"/>
	<path fill="#FFFFFF" d="M41.691,172.003c-5.127,3.355-9.47,8.008-12.64,13.47c-1.828,3.146-3.234,6.565-4.185,10.113
		c1.826-0.504,3.925-0.983,6.265-1.431c0.578-2.234,1.297-4.442,2.16-6.615C35.381,182.2,38.339,177.125,41.691,172.003"/>
	<path fill="#FF3333" d="M23.439,205.007c-0.247,5.869,0.664,11.727,2.473,17.192c1.997,5.895,4.914,11.484,9.074,16.022
		c-1.994-5.765-3.515-11.465-4.517-17.179c-0.846-4.862-1.258-9.729-1.098-14.541C27.126,206.032,25.139,205.533,23.439,205.007"/>
	<path fill="#E23A3A" d="M31.131,194.156c-2.34,0.448-4.439,0.926-6.265,1.431c-0.698,2.606-1.15,5.281-1.342,7.97
		c-0.036,0.483-0.064,0.967-0.085,1.451c1.7,0.525,3.688,1.025,5.932,1.495c0.028-0.834,0.073-1.667,0.136-2.498
		C29.755,200.68,30.295,197.39,31.131,194.156"/>
	<path fill="#231F20" d="M100.416,139.764l7.643-131.586l9.177,9.96l-0.006,0l-71.742-1.011l6.695-7.769l0.001,0.009L66.24,137.22
		l0.378,3.433l-3.177,0.94l-0.013,0.004c-15.903,5.961-29.37,17.352-37.501,31.673c-8.297,14.223-11.059,31.202-8.191,47.084
		c0.723,3.963,1.793,7.852,3.206,11.604c1.397,3.757,3.098,7.397,5.126,10.848c4.043,6.905,9.331,13.065,15.508,18.106
		c12.286,10.161,28.219,15.728,44.031,15.384c8.066-0.106,15.893-1.639,23.317-4.513c7.422-2.832,14.302-7.062,20.309-12.305
		c6.013-5.243,11.101-11.576,14.921-18.616c1.915-3.518,3.498-7.215,4.774-11.02c1.291-3.8,2.235-7.725,2.828-11.714
		c0.589-3.998,0.829-8.024,0.702-12.124c-0.115-4.012-0.605-8.083-1.4-12.062c-1.601-7.977-4.691-15.684-9.04-22.674
		c-8.608-14.071-22.467-25.037-38.593-30.487L100.416,139.764z M108.763,134.107c3.479,0.923,6.898,2.107,10.239,3.506
		c4.377,1.87,8.589,4.158,12.588,6.796c7.995,5.29,15.008,12.129,20.681,19.994c5.624,7.903,9.821,16.885,12.307,26.363
		c1.264,4.745,2.032,9.583,2.381,14.52c0.351,4.85,0.271,9.814-0.248,14.709c-1.946,19.688-11.681,38.465-26.349,51.88
		c-7.33,6.73-15.933,12.085-25.202,15.791c-9.258,3.687-19.302,5.649-29.157,5.829c-10.07,0.159-20.022-1.463-29.449-4.832
		c-9.394-3.39-18.176-8.451-25.734-14.931c-15.122-12.915-25.498-31.36-28.116-50.989c-0.686-4.869-0.938-9.852-0.749-14.729
		c0.18-4.908,0.783-9.806,1.887-14.587c2.163-9.568,6.057-18.699,11.416-26.801c5.409-8.065,12.194-15.15,20.017-20.72
		c3.913-2.777,8.053-5.212,12.37-7.233c4.332-1.989,8.813-3.621,13.403-4.767l0.014-0.005l-2.799,4.373L38.566,11.168l-0.001-0.008
		l-1.211-7.395l7.905-0.374L116.929,0h0.005l10.534,0.251L126.11,9.96L108.763,134.107z"/>
</g>
</svg>
