<?xml version="1.0" encoding="utf-8"?>
<!-- Generator: Adobe Illustrator 15.0.0, SVG Export Plug-In . SVG Version: 6.00 Build 0)  -->
<!DOCTYPE svg PUBLIC "-//W3C//DTD SVG 1.1//EN" "http://www.w3.org/Graphics/SVG/1.1/DTD/svg11.dtd">
<svg version="1.1" id="Layer_1" xmlns="http://www.w3.org/2000/svg" xmlns:xlink="http://www.w3.org/1999/xlink" x="0px" y="0px"
	 width="1280px" height="800px" viewBox="0 0 1280 800" enable-background="new 0 0 1280 800" xml:space="preserve">
<g>
	<polyline fill="#FFFFFF" points="1280,799 0,799 0,-1 1280,-1 1280,799 	"/>
	<g enable-background="new    ">
		<path fill="#FF0000" d="M516.037,593.931h-55.371v-24.39h8.276V516.44h-8.276v-24.39h55.371c4.98,0,9.595,0.086,13.843,0.257
			s7.885,0.415,10.913,0.732c3.027,0.317,5.81,0.744,8.35,1.281c7.128,1.514,12.915,4.81,17.358,9.888
			c4.492,5.176,6.738,11.279,6.738,18.311c0,5.273-1.368,10.06-4.102,14.355c-2.735,4.248-6.324,7.373-10.767,9.375l14.062,23.291
			h7.324v24.39h-36.694l-22.192-41.602h-12.524v17.212h7.69V593.931z M508.347,514.39v19.409h4.395
			c5.761,0,9.668-0.171,11.719-0.513c2.197-0.341,4.052-1.318,5.566-2.93c1.513-1.513,2.271-3.589,2.271-6.226
			s-0.758-4.735-2.271-6.299c-1.514-1.611-3.442-2.588-5.786-2.93c-2.247-0.341-6.348-0.513-12.305-0.513H508.347z"/>
		<path fill="#FF0000" d="M686.179,593.931h-97.192v-24.39h7.91V516.44h-8.057v-24.39h97.339v32.593h-26.733v-8.203h-23.145v15.674
			h20.142v20.728h-20.142v16.699h23.145v-8.203h26.733V593.931z"/>
		<path fill="#FF0000" d="M749.753,593.931h-47.388v-24.39h7.983V516.44h-7.983v-24.39h48.779c11.133,0,20.215,0.685,27.246,2.051
			c7.079,1.367,13.744,4.175,19.995,8.423c6.2,4.297,11.083,10.107,14.648,17.432c1.758,3.516,3.101,7.276,4.028,11.279
			c0.927,4.004,1.392,8.203,1.392,12.598c0,8.838-1.88,16.895-5.64,24.17c-3.711,7.227-8.423,12.77-14.136,16.626
			c-5.566,3.857-11.671,6.372-18.311,7.544C773.776,593.345,763.57,593.931,749.753,593.931z M749.753,516.44v53.101h3.735
			c9.276,0,15.308-2.465,18.091-7.397c2.733-4.932,4.102-11.133,4.102-18.604c0-4.492-0.586-8.936-1.758-13.33
			c-1.222-4.395-3.369-7.788-6.445-10.181c-3.028-2.392-8.448-3.589-16.26-3.589H749.753z"/>
	</g>
	<ellipse fill="#99999A" cx="639.431" cy="384.266" rx="60.844" ry="5.689"/>
	<path fill="#FFFFFF" d="M655.108,267.535l9.587-97.088l-54.402,0.902l12.804,96.717c-23.624,7.316-40.606,29.512-40.178,55.482
		c0.524,31.534,26.51,56.67,58.039,56.146c31.533-0.524,56.671-26.512,56.147-58.041
		C696.674,295.682,678.961,274.063,655.108,267.535"/>
	<path fill="#FF0000" d="M588.448,315.422c17.807,0,83.964,0,101.966,0c4.75,18.713-7.791,57.656-51.251,58.4
		C594.71,373.822,582.513,329.248,588.448,315.422"/>
	<path fill="#DB0909" d="M690.414,315.676c0,4.279-22.825,7.748-50.982,7.748c-28.158,0-50.983-3.469-50.983-7.748
		s22.825-7.749,50.983-7.749C667.589,307.927,690.414,311.396,690.414,315.676"/>
	<path fill="#FF5757" d="M661.381,330.09c-2.234,0-4.045,1.812-4.045,4.045s1.812,4.047,4.045,4.047
		c2.236,0,4.046-1.812,4.046-4.047S663.617,330.09,661.381,330.09"/>
	<path fill="#FF5757" d="M657.335,341.839c-1.536,0-2.783,1.247-2.783,2.784c0,1.534,1.247,2.781,2.783,2.781
		c1.537,0,2.781-1.247,2.781-2.781C660.116,343.086,658.873,341.839,657.335,341.839"/>
	<path fill="#FFFFFF" d="M607.5,294.055c-4.104,2.332-7.565,5.811-10.1,9.967c-1.529,2.51-2.689,5.273-3.445,8.146
		c1.732-0.518,3.837-1.002,6.258-1.444c0.391-1.556,0.865-3.1,1.428-4.632C603.094,302.055,605.171,298.153,607.5,294.055"/>
	<path fill="#FF3333" d="M592.94,318.86c-0.216,4.599,0.536,9.183,2.038,13.413c1.635,4.491,4.019,8.721,7.437,12.014
		c-1.254-4.521-2.237-8.857-2.877-13.172c-0.536-3.621-0.791-7.209-0.668-10.745C596.536,319.905,594.541,319.399,592.94,318.86"/>
	<path fill="#E23A3A" d="M600.213,310.724c-2.421,0.442-4.525,0.928-6.258,1.444c-0.497,1.889-0.82,3.824-0.958,5.768
		c-0.023,0.31-0.042,0.617-0.056,0.926c1.601,0.539,3.595,1.045,5.928,1.51c0.022-0.664,0.059-1.326,0.108-1.986
		C599.172,315.8,599.581,313.246,600.213,310.724"/>
	<path fill="#231F20" d="M652.05,269.596l5.798-99.824l6.961,7.555h-0.004l-54.425-0.766l5.079-5.895v0.008l10.664,96.992
		l0.287,2.604l-2.41,0.713l-0.01,0.004c-12.064,4.521-22.281,13.164-28.449,24.027c-6.294,10.789-8.389,23.671-6.214,35.719
		c0.548,3.008,1.359,5.957,2.432,8.803c1.061,2.85,2.351,5.613,3.89,8.229c3.067,5.238,7.078,9.91,11.764,13.734
		c9.32,7.709,21.408,11.932,33.404,11.672c6.118-0.08,12.056-1.244,17.688-3.424c5.63-2.148,10.849-5.357,15.406-9.336
		c4.562-3.978,8.422-8.781,11.319-14.121c1.453-2.668,2.654-5.475,3.622-8.359c0.979-2.883,1.696-5.86,2.146-8.887
		c0.447-3.033,0.629-6.088,0.533-9.197c-0.087-3.045-0.459-6.133-1.062-9.149c-1.214-6.051-3.559-11.898-6.857-17.201
		c-6.53-10.676-17.043-18.994-29.277-23.129L652.05,269.596z M658.382,265.305c2.64,0.699,5.234,1.6,7.769,2.66
		c3.319,1.418,6.516,3.154,9.549,5.154c6.064,4.014,11.385,9.201,15.688,15.17c4.268,5.994,7.451,12.809,9.336,19.998
		c0.958,3.6,1.541,7.27,1.807,11.016c0.266,3.681,0.206,7.445-0.188,11.158c-1.476,14.936-8.859,29.182-19.987,39.357
		c-5.562,5.106-12.088,9.168-19.119,11.979c-7.023,2.797-14.644,4.285-22.12,4.422c-7.641,0.121-15.189-1.108-22.341-3.666
		c-7.125-2.571-13.789-6.41-19.522-11.326c-11.473-9.797-19.344-23.79-21.33-38.682c-0.52-3.693-0.711-7.475-0.567-11.174
		c0.137-3.723,0.595-7.439,1.431-11.066c1.641-7.258,4.595-14.186,8.661-20.332c4.104-6.117,9.251-11.492,15.185-15.717
		c2.97-2.107,6.109-3.955,9.384-5.488c3.287-1.51,6.688-2.746,10.17-3.615l0.01-0.004l-2.123,3.316l-14.94-96.426l-0.001-0.008
		l-0.918-5.609l5.998-0.283l54.37-2.572h0.004l7.991,0.189l-1.029,7.365L658.382,265.305z"/>
</g>
</svg>
