<?xml version="1.0" encoding="utf-8"?>
<!-- Generator: Adobe Illustrator 15.0.0, SVG Export Plug-In . SVG Version: 6.00 Build 0)  -->
<!DOCTYPE svg PUBLIC "-//W3C//DTD SVG 1.1//EN" "http://www.w3.org/Graphics/SVG/1.1/DTD/svg11.dtd">
<svg version="1.1" id="Layer_1" xmlns="http://www.w3.org/2000/svg" xmlns:xlink="http://www.w3.org/1999/xlink" x="0px" y="0px"
	 width="1280px" height="800px" viewBox="0 0 1280 800" enable-background="new 0 0 1280 800" xml:space="preserve">
<g>
	<polyline fill="#FFFFFF" points="1279,798 -0.999,798 -0.999,-2 1279,-2 1279,798 	"/>
	<g>
		<path fill="#800000" d="M288.463,636.295h-39.478v-24.39h7.837v-53.101h-8.057v-24.39h61.45l15.015,39.331l15.381-39.331h61.084
			v24.39h-7.983v53.101h8.203v24.39h-53.174v-24.39h8.13v-56.909l-30.762,81.299h-15.234l-30.469-80.566v56.177h8.057V636.295z"/>
		<path fill="#800000" d="M450.108,636.295h-40.356v-24.39h7.764l19.116-53.101h-8.203v-24.39h73.242v24.39h-8.203l19.482,53.101
			h7.471v24.39h-53.174v-22.339h8.936l-3.882-12.817h-26.074l-4.468,12.817h8.35V636.295z M459.703,560.27l-9.595,28.198h18.237
			L459.703,560.27z"/>
		<path fill="#800000" d="M583.995,636.295h-55.371v-24.39h8.276v-53.101h-8.276v-24.39h55.371c4.98,0,9.595,0.086,13.843,0.256
			c4.248,0.172,7.885,0.416,10.913,0.732c3.027,0.318,5.811,0.745,8.35,1.282c7.129,1.514,12.915,4.81,17.358,9.888
			c4.492,5.176,6.738,11.279,6.738,18.311c0,5.273-1.367,10.06-4.102,14.355c-2.735,4.248-6.324,7.373-10.767,9.375l14.062,23.291
			h7.324v24.39h-36.694l-22.192-41.602h-12.524v17.212h7.69V636.295z M576.305,556.754v19.409h4.395
			c5.761,0,9.668-0.171,11.719-0.513c2.197-0.341,4.053-1.318,5.566-2.93c1.513-1.513,2.271-3.589,2.271-6.226
			s-0.758-4.735-2.271-6.299c-1.514-1.611-3.442-2.588-5.786-2.93c-2.246-0.341-6.348-0.513-12.305-0.513H576.305z"/>
		<path fill="#800000" d="M655.354,585.099c0-8.496,2.075-16.724,6.226-24.683c4.102-7.91,10.474-14.575,19.116-19.995
			c3.076-1.904,6.237-3.417,9.484-4.541c3.247-1.123,6.775-1.989,10.584-2.6s7.812-0.916,12.012-0.916
			c18.262,0,32.397,5.347,42.407,16.04c4.98,5.273,8.74,10.986,11.279,17.139c2.538,6.152,3.809,12.671,3.809,19.556
			c0,14.209-5.176,26.562-15.527,37.061c-10.353,10.499-24.342,15.747-41.968,15.747c-17.041,0-30.86-4.932-41.455-14.795
			C660.675,613.297,655.354,600.626,655.354,585.099z M699.592,585.099c0,11.328,1.099,18.97,3.296,22.925
			c2.099,4.004,5.395,6.006,9.888,6.006c4.442,0,7.764-1.929,9.961-5.786c2.197-3.906,3.296-11.62,3.296-23.145
			c0-11.181-1.074-18.798-3.223-22.852c-2.1-4.003-5.445-6.006-10.034-6.006c-4.395,0-7.69,1.93-9.888,5.786
			C700.69,565.885,699.592,573.575,699.592,585.099z"/>
		<path fill="#800000" d="M785.139,585.099c0-8.496,2.075-16.724,6.226-24.683c4.102-7.91,10.474-14.575,19.116-19.995
			c3.076-1.904,6.237-3.417,9.484-4.541c3.247-1.123,6.775-1.989,10.584-2.6s7.812-0.916,12.012-0.916
			c18.262,0,32.397,5.347,42.407,16.04c4.98,5.273,8.74,10.986,11.279,17.139c2.538,6.152,3.809,12.671,3.809,19.556
			c0,14.209-5.176,26.562-15.527,37.061c-10.353,10.499-24.342,15.747-41.968,15.747c-17.041,0-30.86-4.932-41.455-14.795
			C790.46,613.297,785.139,600.626,785.139,585.099z M829.377,585.099c0,11.328,1.099,18.97,3.296,22.925
			c2.099,4.004,5.395,6.006,9.888,6.006c4.442,0,7.764-1.929,9.961-5.786c2.197-3.906,3.296-11.62,3.296-23.145
			c0-11.181-1.074-18.798-3.223-22.852c-2.1-4.003-5.445-6.006-10.034-6.006c-4.395,0-7.69,1.93-9.888,5.786
			C830.476,565.885,829.377,573.575,829.377,585.099z"/>
		<path fill="#800000" d="M954.182,636.295H912.36v-24.39h8.936v-53.101h-8.936v-24.39h48.267l37.061,53.247v-28.857h-8.276v-24.39
			h41.089v24.39h-8.862v78.809h-33.545l-42.92-61.597v35.889h9.009V636.295z"/>
	</g>
	<ellipse fill="#99999A" cx="642.598" cy="423.14" rx="61.098" ry="5.689"/>
	<path fill="#FFFFFF" d="M658.652,281.426l13.721-156.712H605.69l13.721,156.712c-29.095,8.485-50.363,35.339-50.363,67.175
		c0,38.651,31.333,69.984,69.984,69.984c38.649,0,69.982-31.333,69.982-69.984C709.015,316.765,687.749,289.911,658.652,281.426"/>
	<circle fill="#800000" cx="644.241" cy="303.215" r="4.959"/>
	<circle fill="#800000" cx="655.803" cy="142.993" r="4.959"/>
	<circle fill="#800000" cx="635.594" cy="204.799" r="4.959"/>
	<path fill="#800000" d="M640.43,278.812c0,3.648-2.956,6.604-6.603,6.604c-3.646,0-6.603-2.956-6.603-6.604
		c0-3.645,2.957-6.6,6.603-6.6C637.474,272.212,640.43,275.167,640.43,278.812z"/>
	<circle fill="#800000" cx="649.2" cy="220.651" r="6.603"/>
	<circle fill="#800000" cx="635.593" cy="318.059" r="3.41"/>
	<path fill="#800000" d="M574.886,338.822c22.494,0,106.067,0,128.81,0c6.001,23.64-9.842,73.618-64.744,74.558
		C582.797,413.38,567.387,356.289,574.886,338.822"/>
	<path fill="#8D191C" d="M703.695,339.142c0,5.407-28.835,9.79-64.404,9.79c-35.571,0-64.405-4.383-64.405-9.79
		c0-5.405,28.834-9.787,64.405-9.787C674.86,329.354,703.695,333.736,703.695,339.142"/>
	<path fill="#B46769" d="M667.072,336.353c-9.87,0-17.873,1.539-17.873,3.439c0,1.902,8.003,3.443,17.873,3.443
		c9.871,0,17.871-1.541,17.871-3.443C684.943,337.892,676.943,336.353,667.072,336.353"/>
	<path fill="#FFFFFF" d="M598.717,308.174c-5.153,3.384-9.521,8.066-12.706,13.561c-2.352,4.055-4.01,8.557-4.902,13.204
		c1.768-0.563,3.883-1.099,6.299-1.597c0.658-3.235,1.604-6.422,2.843-9.54C592.357,318.429,595.337,313.323,598.717,308.174"/>
	<path fill="#993333" d="M580.328,343.087c-0.026,5.332,0.881,10.624,2.523,15.597c2.007,5.931,4.938,11.557,9.118,16.125
		c-2.014-5.798-3.548-11.532-4.56-17.283c-0.748-4.284-1.16-8.573-1.144-12.825C583.968,344.194,581.976,343.655,580.328,343.087"/>
	<path fill="#A44749" d="M587.408,333.342c-2.416,0.498-4.531,1.033-6.299,1.597c-0.316,1.649-0.536,3.317-0.656,4.989
		c-0.079,1.053-0.121,2.106-0.125,3.159c1.648,0.568,3.64,1.107,5.938,1.613c0.005-1.446,0.061-2.889,0.169-4.326
		C586.612,338.011,586.936,335.663,587.408,333.342"/>
	<circle fill="#FFFFFF" cx="654.379" cy="140.36" r="1.424"/>
	<circle fill="#FFFFFF" cx="633.845" cy="202.259" r="1.644"/>
	<circle fill="#FFFFFF" cx="646.877" cy="217.826" r="2.323"/>
	<circle fill="#FFFFFF" cx="650.535" cy="220.528" r="0.854"/>
	<circle fill="#FFFFFF" cx="631.634" cy="276.301" r="2.513"/>
	<circle fill="#FFFFFF" cx="634.452" cy="279.439" r="0.625"/>
	<circle fill="#FFFFFF" cx="643.137" cy="301.605" r="1.611"/>
	<circle fill="#FFFFFF" cx="644.875" cy="303.851" r="0.634"/>
	<circle fill="#FFFFFF" cx="634.759" cy="317.524" r="1.72"/>
	<path fill="#231F20" d="M655.561,283.504l11.318-159.271l5.494,5.996h-0.006l-66.677-3.016l2.49-2.717v0.008l14.273,156.655
		l0.226,2.471l-2.412,0.727l-0.013,0.004c-3.789,1.237-7.455,2.81-10.943,4.694c-3.495,1.867-6.818,4.037-9.915,6.484
		c-6.196,4.885-11.53,10.82-15.624,17.494c-8.314,13.292-11.474,29.477-9.094,44.795c1.187,7.649,3.743,15.053,7.482,21.795
		c3.747,6.74,8.709,12.794,14.56,17.793c5.847,5,12.545,9.003,19.753,11.66c7.184,2.675,14.909,4.024,22.53,4.002
		c7.759,0.026,15.386-1.321,22.604-3.992c7.21-2.654,13.913-6.656,19.765-11.656c5.856-4.999,10.824-11.055,14.575-17.798
		c3.745-6.745,6.306-14.153,7.498-21.808c2.389-15.332-0.767-31.537-9.087-44.85c-4.097-6.685-9.436-12.631-15.639-17.526
		c-3.101-2.45-6.429-4.626-9.929-6.499c-3.493-1.888-7.165-3.465-10.96-4.705L655.561,283.504z M661.827,279.277
		c3.386,1.005,6.711,2.245,9.928,3.737c3.954,1.852,7.745,4.069,11.319,6.607c7.148,5.078,13.367,11.499,18.308,18.817
		c4.92,7.334,8.508,15.595,10.529,24.247c2.029,8.659,2.419,17.677,1.279,26.52c-1.141,8.848-3.913,17.511-8.168,25.386
		c-4.236,7.885-9.897,15.004-16.63,20.926c-6.732,5.926-14.57,10.596-22.978,13.762c-8.393,3.171-17.434,4.796-26.34,4.812
		c-9.043-0.009-17.987-1.628-26.415-4.793c-8.412-3.16-16.255-7.825-22.995-13.748c-6.739-5.92-12.409-13.037-16.653-20.924
		c-4.266-7.876-7.044-16.543-8.193-25.396c-1.147-8.848-0.765-17.874,1.26-26.543c2.017-8.662,5.602-16.936,10.522-24.281
		c4.941-7.332,11.162-13.766,18.317-18.855c3.576-2.545,7.371-4.769,11.329-6.627c3.965-1.843,8.087-3.323,12.297-4.423l0.015-0.004
		l-2.187,3.196l-13.169-156.751l-0.001-0.009l-0.345-2.589l2.835-0.128l66.677-3.016h0.006l6.108,0.1l-0.614,5.896L661.827,279.277z
		"/>
</g>
</svg>
