<?xml version="1.0" encoding="utf-8"?>
<!-- Generator: Adobe Illustrator 15.0.0, SVG Export Plug-In . SVG Version: 6.00 Build 0)  -->
<!DOCTYPE svg PUBLIC "-//W3C//DTD SVG 1.1//EN" "http://www.w3.org/Graphics/SVG/1.1/DTD/svg11.dtd">
<svg version="1.1" id="Layer_1" xmlns="http://www.w3.org/2000/svg" xmlns:xlink="http://www.w3.org/1999/xlink" x="0px" y="0px"
	 width="1280px" height="800px" viewBox="0 0 1280 800" enable-background="new 0 0 1280 800" xml:space="preserve">
<g>
	<polyline fill="#FFFFFF" points="1278.788,799 -1.213,799 -1.213,-1 1278.788,-1 1278.788,799 	"/>
	<g>
		<path fill="#FFE5B4" d="M405.694,565.412h-59.545v-24.39h9.887v-53.101h-9.887v-24.39h62.475c14.355,0,24.854,1.392,31.494,4.175
			c6.641,2.833,11.523,6.69,14.648,11.572c3.125,4.883,4.688,10.23,4.688,16.04c0,7.178-1.855,13.136-5.566,17.871
			c-3.711,4.786-8.617,8.252-14.721,10.4c-6.006,2.1-15.283,3.149-27.832,3.149H395.44v14.282h10.254V565.412z M395.44,485.871
			v19.116h7.691c5.371,0,9.275-0.634,11.719-1.904c2.344-1.269,3.516-3.735,3.516-7.397c0-2.392-0.635-4.418-1.904-6.079
			c-1.221-1.611-2.857-2.637-4.908-3.076c-1.953-0.439-5.273-0.659-9.961-0.659H395.44z"/>
		<path fill="#FFE5B4" d="M567.047,565.412h-97.192v-24.39h7.91v-53.101h-8.057v-24.39h97.339v32.593h-26.733v-8.203h-23.145v15.674
			h20.142v20.728h-20.142v16.699h23.145v-8.203h26.733V565.412z"/>
		<path fill="#FFE5B4" d="M617.584,565.412h-40.356v-24.39h7.764l19.116-53.101h-8.203v-24.39h73.242v24.39h-8.203l19.482,53.101
			h7.471v24.39h-53.174v-22.339h8.936l-3.882-12.817h-26.074l-4.468,12.817h8.35V565.412z M627.179,489.387l-9.595,28.198h18.237
			L627.179,489.387z"/>
		<path fill="#FFE5B4" d="M774.033,520.515l26.44,9.302c-2.246,10.889-7.397,19.801-15.454,26.733
			c-8.155,6.983-19.385,10.474-33.691,10.474c-19.531,0-33.984-5.102-43.359-15.308c-9.424-10.155-14.136-22.559-14.136-37.207
			c0-14.746,4.614-27.27,13.843-37.573c9.229-10.302,21.215-15.454,35.962-15.454c11.963,0,21.704,2.955,29.224,8.862v-6.812h24.463
			v37.207h-25.415c-1.318-4.638-3.541-8.3-6.665-10.986c-3.125-2.637-6.69-3.955-10.693-3.955c-11.035,0-16.553,9.498-16.553,28.491
			c0,19.043,5.713,28.564,17.139,28.564C765.145,542.854,771.444,535.408,774.033,520.515z"/>
		<path fill="#FFE5B4" d="M867.124,565.412H813.51v-24.39h7.69v-53.101h-7.837v-24.39h53.76v24.39h-6.519v15.527h23.584v-15.527
			h-6.592v-24.39h53.687v24.39h-7.69v53.101h7.69v24.39h-53.687v-24.39h6.592v-16.699h-23.584v16.699h6.519V565.412z"/>
	</g>
	<path fill="#FFFFFF" d="M704.791,349.808l-45.031-84.8c0-0.653,0.01-32.636,0.011-58.241h2.485c2.732,0,4.947-2.215,4.947-4.947
		v-1.522c0-2.732-2.215-4.947-4.567-4.947h-21.55c-1.539-0.035-3.096-0.035-4.644,0h-22.424c-3.112,0-5.329,2.215-5.329,4.947v1.522
		c0,2.732,2.217,4.947,4.949,4.947h2.619c-0.022,19.372-0.124,57.71-0.124,58.241l-45.177,85.08c-0.8,1.116-1.253,2.468-1.253,3.925
		v2.132c0,3.827,3.104,6.93,6.931,6.93h122.62c3.827,0,6.93-3.103,6.93-6.93v-2.132
		C706.184,352.429,705.647,350.975,704.791,349.808"/>
	<path fill="#FFE5B4" d="M614.906,297.872h-16.224l-24.57,45.38c0,0-6.482,11.82-4.194,14.869c2.287,3.049,5.336,4.956,9.149,4.956
		s120.186-0.001,120.186-0.001s12.112-3.048,6.012-14.105c-6.1-11.055-28.055-51.099-28.055-51.099H614.906"/>
	<path fill="#231F20" d="M701.711,351.806l-46.105-84.591l-0.538-0.986l-0.013-1.22v-0.004l1.467-58.238l0.083-3.329l3.166,0.079
		h0.007l1.373-0.01l0.685-0.004l0.343-0.002l0.249-0.009l0.153-0.031l0.218-0.064c0.143-0.051,0.281-0.122,0.406-0.21
		c0.252-0.179,0.459-0.431,0.576-0.71c0.056-0.141,0.1-0.285,0.116-0.438l0.011-0.115l0.004-0.147l0.001-0.685l0.001-0.687v-0.087
		c0,0.011-0.001,0.001-0.001-0.007c0-0.017,0-0.034,0.001,0.069v-0.021l-0.001-0.043l-0.003-0.171l-0.007-0.045
		c-0.017-0.157-0.056-0.312-0.117-0.463c-0.119-0.302-0.341-0.591-0.581-0.771c-0.245-0.183-0.455-0.243-0.576-0.247l-2.746-0.017
		c-3.66-0.018-7.32-0.05-10.981-0.095l-5.49-0.061l-1.373-0.018l-0.687-0.011l-0.396-0.006l-0.344-0.011
		c-0.937-0.034-1.759-0.049-2.666-0.056l-1.333-0.001l-1.437-0.018l-2.745-0.042l-5.492-0.094l-10.98-0.219l-1.373-0.027
		l-0.629-0.013l-0.171,0.001l-0.066,0.004l-0.178,0.01c-0.528,0.042-1.001,0.206-1.396,0.453s-0.702,0.59-0.907,1
		c-0.103,0.205-0.172,0.428-0.219,0.667c-0.024,0.125-0.035,0.207-0.046,0.48l-0.035,0.687l-0.038,0.63l-0.007,0.165l-0.003,0.058
		l0.001,0.178c0.017,0.257,0.059,0.517,0.145,0.768c0.168,0.502,0.476,0.993,0.916,1.365c0.435,0.372,0.979,0.651,1.598,0.75
		c0.062,0.014,0.188,0.027,0.303,0.039l0.343,0.037l0.685,0.074c0.459,0.055,0.915,0.108,1.373,0.171h0.001l1.216-0.082l0.09,1.387
		l3.781,58.239l0.06,0.949l-0.669,1.494v0.001c-1.089,1.694-2.143,3.407-3.214,5.11l-3.154,5.141
		c-2.104,3.428-4.163,6.879-6.221,10.33c-4.105,6.909-8.134,13.858-12.124,20.829c-3.989,6.972-7.914,13.976-11.81,20.996
		l-5.807,10.551l-5.742,10.584l-0.067,0.124l-0.069,0.094c-0.341,0.476-0.598,1.006-0.747,1.572
		c-0.074,0.282-0.125,0.573-0.147,0.868l-0.013,0.222l-0.004,0.254l-0.003,0.615l-0.006,1.23c-0.001,0.226,0,0.362,0.009,0.496
		c0.008,0.148,0.022,0.296,0.045,0.443c0.085,0.588,0.276,1.16,0.564,1.682c0.567,1.05,1.538,1.881,2.656,2.294
		c0.558,0.208,1.151,0.314,1.756,0.314l2.458,0.004c6.556,0,13.113-0.016,19.669-0.056l19.669-0.184l19.669-0.282l39.338-0.702
		l19.669-0.312l1.23-0.016l0.615-0.008l0.263-0.004l0.154-0.004l0.055-0.004c0.396-0.028,0.809-0.132,1.175-0.297
		c0.741-0.334,1.363-0.952,1.697-1.681c0.168-0.362,0.27-0.75,0.302-1.147c0.007-0.101,0.011-0.201,0.01-0.3l-0.007-0.552
		l-0.016-1.231l-0.004-0.306l-0.001-0.077v0.037l-0.001-0.037l-0.006-0.153l-0.001-0.079l-0.004-0.028l-0.006-0.034l-0.017-0.127
		c-0.028-0.195-0.072-0.389-0.136-0.577c-0.125-0.378-0.32-0.743-0.57-1.07L701.711,351.806 M707.975,347.996
		c0.601,0.907,1.076,1.898,1.384,2.954c0.176,0.594,0.296,1.206,0.364,1.825c0.016,0.164,0.032,0.291,0.042,0.484l0.014,0.273
		l0.004,0.202l0.001,0.383l-0.004,0.306l-0.016,1.231l-0.011,0.677c-0.007,0.309-0.028,0.616-0.064,0.925
		c-0.139,1.231-0.504,2.444-1.065,3.548c-1.121,2.214-3.036,3.981-5.318,4.921c-1.143,0.47-2.354,0.733-3.595,0.776l-0.253,0.007
		h-0.154l-0.35-0.004l-0.615-0.007l-1.23-0.015l-19.669-0.313l-39.338-0.7l-19.669-0.284l-19.669-0.184
		c-6.556-0.041-13.113-0.058-19.669-0.055l-2.458,0.003c-1.036,0-2.081-0.183-3.059-0.543c-1.964-0.72-3.633-2.158-4.652-3.977
		c-0.513-0.91-0.859-1.914-1.02-2.947c-0.041-0.257-0.069-0.517-0.085-0.776c-0.02-0.276-0.021-0.551-0.021-0.734l-0.006-1.23
		l-0.003-0.615l0.003-0.359c0-0.131,0.011-0.261,0.019-0.392c0.034-0.522,0.119-1.044,0.25-1.555
		c0.258-1.023,0.715-1.997,1.323-2.857l-0.135,0.218l5.551-10.685l5.488-10.719c3.635-7.159,7.239-14.334,10.779-21.543
		c3.539-7.209,7.039-14.439,10.465-21.71c1.706-3.638,3.412-7.277,5.074-10.939l2.494-5.492c0.809-1.842,1.64-3.674,2.433-5.524
		v-0.001l-0.608,2.443l4.027-58.242l1.306,1.307h-0.001c-0.458,0.063-0.914,0.117-1.373,0.171l-0.685,0.073l-0.343,0.038
		c-0.115,0.013-0.218,0.027-0.385,0.034c-1.211,0.058-2.483-0.227-3.574-0.868c-1.091-0.633-2.027-1.578-2.629-2.736
		c-0.302-0.577-0.528-1.202-0.657-1.847c-0.029-0.17-0.059-0.311-0.08-0.503l-0.043-0.464l-0.045-0.741l-0.034-0.687
		c-0.011-0.184-0.027-0.561-0.006-0.892c0.035-0.671,0.173-1.349,0.406-1.997c0.459-1.298,1.327-2.453,2.417-3.275
		c1.085-0.835,2.382-1.328,3.667-1.518c0.708-0.1,1.273-0.087,1.697-0.1l1.373-0.027l21.937-0.417l11.005-0.121
		c3.661-0.043,7.321-0.077,10.981-0.094l2.746-0.018c0.844-0.003,1.689,0.15,2.448,0.421c0.764,0.27,1.455,0.655,2.067,1.115
		c1.224,0.918,2.152,2.138,2.725,3.531c0.284,0.695,0.478,1.434,0.564,2.186c0.024,0.169,0.041,0.453,0.051,0.639l0.008,0.427
		l0.001,0.687l0.001,0.685l-0.004,0.255c-0.003,0.094-0.003,0.188-0.011,0.284c-0.013,0.189-0.028,0.379-0.055,0.567
		c-0.096,0.755-0.305,1.5-0.605,2.201c-0.606,1.405-1.607,2.62-2.854,3.487c-0.625,0.434-1.31,0.788-2.034,1.029
		c-0.359,0.126-0.731,0.219-1.105,0.291c-0.379,0.072-0.723,0.115-1.208,0.139l-0.439,0.005l-0.343-0.001l-0.685-0.005l-1.373-0.009
		h-0.007l3.251-3.25l1.443,58.235v0.003l-0.549-2.206L707.975,347.996"/>
	<path fill="#EACD9D" d="M672.286,297.872c0,2.193-14.868,4.193-34.885,4.193c-19.268,0-34.886-1.877-34.886-4.193
		c0-2.315,15.619-4.194,34.886-4.194C656.667,293.678,672.286,295.556,672.286,297.872"/>
	<path fill="#FFE5B4" d="M626.854,297.144c0-4.527-3.67-8.197-8.198-8.197c-4.527,0-8.197,3.67-8.197,8.197
		C616.189,299.209,623.789,298.405,626.854,297.144"/>
	<path fill="#FFF2DA" d="M617.923,290.252c-0.543,0-1.09,0.1-1.614,0.287c-0.749,0.266-1.447,0.722-1.999,1.313
		c-0.556,0.589-0.963,1.304-1.203,2.055c-0.233,0.751-0.33,1.546-0.168,2.311c0.309-0.705,0.629-1.348,0.988-1.949
		c0.358-0.6,0.756-1.147,1.216-1.634c0.459-0.486,0.976-0.913,1.558-1.288c0.582-0.379,1.224-0.693,1.919-1.039
		C618.389,290.271,618.156,290.252,617.923,290.252"/>
	<path fill="#FFE5B4" d="M639.521,298.694c0-2.488-2.019-4.505-4.506-4.505c-2.489,0-4.505,2.018-4.505,4.505
		C633.658,299.83,637.836,299.388,639.521,298.694"/>
	<path fill="#FFF2DA" d="M634.877,294.935c-0.375,0-0.753,0.073-1.11,0.217c-0.395,0.157-0.755,0.407-1.05,0.719
		c-0.293,0.315-0.52,0.687-0.663,1.084s-0.219,0.818-0.183,1.231c0.242-0.782,0.595-1.496,1.122-2.054
		c0.26-0.281,0.567-0.515,0.904-0.712c0.338-0.195,0.708-0.344,1.098-0.483C634.956,294.936,634.916,294.935,634.877,294.935"/>
	<path fill="#FFE5B4" d="M662.143,295.583c0-2.488-2.018-4.505-4.507-4.505c-2.487,0-4.505,2.018-4.505,4.505
		C656.28,296.719,660.457,296.276,662.143,295.583"/>
	<path fill="#FFF2DA" d="M657.498,291.822c-0.375,0-0.753,0.072-1.109,0.217c-0.396,0.157-0.756,0.407-1.053,0.719
		c-0.292,0.316-0.518,0.687-0.661,1.085c-0.144,0.396-0.221,0.817-0.183,1.231c0.241-0.783,0.594-1.495,1.122-2.055
		c0.26-0.281,0.567-0.515,0.904-0.71s0.708-0.344,1.098-0.484C657.577,291.823,657.538,291.822,657.498,291.822"/>
	<path fill="#FFFFFF" d="M621.764,267.229c-3.67,5.948-7.13,11.995-10.514,18.07c-2.023,3.633-4.022,7.279-5.994,10.94
		c1.368-0.389,3.211-0.748,5.441-1.066c0.494-2.002,1.724-3.714,3.386-4.834c0.468-0.937,0.935-1.875,1.4-2.813
		c3.087-6.23,6.107-12.509,8.929-18.904L621.764,267.229"/>
	<path fill="#FFEAC3" d="M606.025,306.054l-0.004,0.008c-0.007,0.014-0.015,0.028-0.022,0.042L606.025,306.054 M603.779,298.994
		c-0.826,1.547-1.646,3.096-2.46,4.649l-4.793,9.25l-0.008,0.015c-1.554,3.09-3.152,6.177-4.684,9.319l0.004-0.008
		c-3.087,6.23-6.107,12.509-8.932,18.901l2.649,1.394c3.667-5.951,7.126-11.998,10.51-18.071l-0.025,0.046l0.021-0.038
		c1.721-3.044,3.358-6.11,5.023-9.141l4.936-9.249c1.008-1.914,2.008-3.83,3-5.751C606.676,299.917,604.883,299.473,603.779,298.994
		"/>
	<path fill="#EED7B1" d="M610.697,295.173c-2.23,0.318-4.073,0.677-5.441,1.066c-0.494,0.917-0.986,1.835-1.477,2.754
		c1.104,0.479,2.896,0.923,5.241,1.316c0.535-1.035,1.067-2.072,1.597-3.11c-0.053-0.019-0.106-0.037-0.159-0.056
		C610.458,296.465,610.541,295.805,610.697,295.173"/>
	<path fill="#FFEAC3" d="M614.083,290.339c-1.662,1.12-2.892,2.832-3.386,4.834c-0.156,0.631-0.238,1.292-0.238,1.971
		c0.053,0.019,0.105,0.038,0.159,0.056C611.783,294.918,612.938,292.632,614.083,290.339"/>
</g>
</svg>
