<?xml version="1.0" encoding="utf-8"?>
<!-- Generator: Adobe Illustrator 15.0.0, SVG Export Plug-In . SVG Version: 6.00 Build 0)  -->
<!DOCTYPE svg PUBLIC "-//W3C//DTD SVG 1.1//EN" "http://www.w3.org/Graphics/SVG/1.1/DTD/svg11.dtd">
<svg version="1.1" id="Layer_1" xmlns="http://www.w3.org/2000/svg" xmlns:xlink="http://www.w3.org/1999/xlink" x="0px" y="0px"
	 width="187.174px" height="229.921px" viewBox="0 0 187.174 229.921" enable-background="new 0 0 187.174 229.921"
	 xml:space="preserve">
<g>
	<path fill="#FFFFFF" d="M180.59,207.906L121.233,96.126c-0.001-0.861,0.013-43.022,0.015-76.772h3.274
		c3.601,0,6.521-2.92,6.521-6.521v-2.006c0-3.601-2.92-6.522-6.02-6.522H96.617c-2.028-0.047-4.082-0.046-6.121,0H60.938
		c-4.104,0-7.024,2.921-7.024,6.522v2.006c0,3.601,2.92,6.521,6.523,6.521h3.45c-0.029,25.535-0.161,76.071-0.161,76.772
		L4.172,208.274c-1.054,1.472-1.652,3.254-1.652,5.176v2.81c0,5.043,4.091,9.136,9.136,9.136h161.635
		c5.045,0,9.135-4.092,9.135-9.136v-2.81C182.426,211.362,181.72,209.444,180.59,207.906"/>
	<path fill="#FF681F" d="M61.761,139.317H40.374L7.987,199.136c0,0-8.544,15.58-5.529,19.601c3.016,4.021,7.035,6.533,12.062,6.533
		c5.025,0,158.425-0.002,158.425-0.002s15.965-4.018,7.924-18.592c-8.042-14.574-36.98-67.358-36.98-67.358H61.761"/>
	<path fill="#E55015" d="M137.397,139.317c0,3.053-20.587,5.528-45.985,5.528c-25.396,0-45.985-2.475-45.985-5.528
		c0-3.054,20.589-5.529,45.985-5.529C116.81,133.788,137.397,136.263,137.397,139.317"/>
	<path fill="#FF681F" d="M92.338,137.213c0-10.062-8.158-18.217-18.219-18.217c-10.063,0-18.221,8.155-18.221,18.217
		C68.638,141.804,85.524,140.015,92.338,137.213"/>
	<path fill="#EE7755" d="M61.407,135.156c-0.357-1.701-0.142-3.47,0.376-5.138c0.533-1.668,1.439-3.257,2.674-4.566
		c1.227-1.313,2.779-2.328,4.444-2.921c1.667-0.592,3.434-0.789,5.136-0.511c-1.544,0.77-2.976,1.467-4.267,2.311
		c-1.294,0.831-2.441,1.78-3.463,2.861c-1.021,1.082-1.909,2.301-2.703,3.633C62.808,132.16,62.096,133.587,61.407,135.156z"/>
	<path fill="#FF681F" d="M96.517,141.556c0-3.918-3.177-7.093-7.095-7.093s-7.095,3.175-7.095,7.093
		C87.287,143.345,93.864,142.649,96.517,141.556z"/>
	<path fill="#EE7755" d="M84.473,140.757c-0.059-0.653,0.062-1.315,0.287-1.939c0.225-0.625,0.582-1.211,1.043-1.707
		c0.465-0.49,1.033-0.885,1.655-1.133c0.619-0.25,1.283-0.365,1.933-0.336c-0.613,0.218-1.196,0.452-1.729,0.759
		c-0.53,0.31-1.014,0.678-1.424,1.121C85.409,138.401,84.854,139.523,84.473,140.757z"/>
	<path fill="#FF681F" d="M124.025,136.3c0-3.28-2.659-5.939-5.939-5.939s-5.939,2.659-5.939,5.939
		C116.299,137.797,121.804,137.214,124.025,136.3z"/>
	<path fill="#EE7755" d="M113.942,135.629c-0.05-0.546,0.052-1.101,0.24-1.622c0.188-0.524,0.487-1.014,0.872-1.43
		c0.391-0.41,0.866-0.741,1.387-0.947c0.519-0.211,1.073-0.307,1.618-0.283c-0.514,0.184-1.002,0.379-1.447,0.637
		c-0.443,0.259-0.849,0.566-1.191,0.938C114.726,133.658,114.261,134.597,113.942,135.629z"/>
	<path fill="#FF7F40" d="M75.22,158.728c-2.139,0-3.871,1.733-3.871,3.871c0,2.137,1.732,3.87,3.871,3.87
		c2.138,0,3.871-1.732,3.871-3.87C79.091,160.461,77.357,158.728,75.22,158.728"/>
	<path fill="#FF7F40" d="M100.388,182.293c-2.139,0-3.872,1.733-3.872,3.871s1.733,3.87,3.872,3.87c2.137,0,3.871-1.732,3.871-3.87
		S102.525,182.293,100.388,182.293"/>
	<path fill="#FF7F40" d="M50.806,202.796c-2.138,0-3.871,1.733-3.871,3.871c0,2.139,1.732,3.87,3.871,3.87
		c2.138,0,3.871-1.731,3.871-3.87C54.677,204.53,52.944,202.796,50.806,202.796"/>
	<path fill="#FFFFFF" d="M72.482,99.963c-4.813,7.805-9.361,15.75-13.813,23.743c-2.375,4.266-4.726,8.544-7.047,12.838
		c1.064-0.221,2.251-0.431,3.549-0.631c0.344-0.677,0.688-1.353,1.031-2.03c0.635-3.44,2.238-6.542,4.514-9.012
		c0.012-0.023,0.023-0.046,0.035-0.07C64.812,116.602,68.781,108.351,72.482,99.963"/>
	<path fill="#FF864C" d="M48.984,141.452c-1.135,2.126-2.263,4.257-3.383,6.391l-6.313,12.185
		c-2.056,4.085-4.158,8.148-6.164,12.262c-4.062,8.2-8.03,16.448-11.736,24.836c4.811-7.808,9.357-15.752,13.81-23.746
		c2.252-3.984,4.408-8.018,6.61-12.028l6.46-12.106c1.242-2.357,2.475-4.719,3.698-7.086
		C50.837,141.934,49.84,141.698,48.984,141.452"/>
	<path fill="#EA7344" d="M55.17,135.913c-1.298,0.2-2.485,0.41-3.549,0.631c-0.883,1.634-1.763,3.27-2.637,4.908
		c0.856,0.246,1.854,0.482,2.983,0.708C53.042,140.082,54.109,137.999,55.17,135.913"/>
	<path fill="#FF864C" d="M60.715,124.871c-2.276,2.47-3.879,5.572-4.514,9.012C57.718,130.886,59.223,127.881,60.715,124.871"/>
	<path fill="#231F20" d="M176.531,210.54L115.756,99.034l-0.708-1.298l-0.017-1.608v-0.005l1.933-76.769l0.11-4.389l4.175,0.104
		l0.007,0.001l1.809-0.013l0.905-0.006l0.452-0.004l0.327-0.011c-0.039-0.008,0.108-0.017,0.2-0.041
		c0.098-0.024,0.195-0.046,0.289-0.084c0.188-0.068,0.368-0.161,0.534-0.279c0.333-0.235,0.606-0.569,0.758-0.936
		c0.076-0.185,0.132-0.376,0.153-0.576l0.015-0.152l0.006-0.195l0.002-0.905l0.002-0.904v-0.113
		c0.001,0.039-0.001-0.128,0.002,0.081l-0.001-0.029l-0.001-0.056l-0.006-0.226l-0.009-0.06c-0.021-0.207-0.074-0.411-0.153-0.612
		c-0.157-0.398-0.448-0.778-0.766-1.014c-0.323-0.242-0.599-0.322-0.759-0.326l-3.619-0.024c-4.825-0.024-9.649-0.068-14.475-0.125
		l-7.237-0.078l-1.81-0.024l-0.905-0.015l-0.521-0.009l-0.453-0.014c-1.235-0.044-2.319-0.064-3.516-0.074l-1.758-0.002
		l-1.894-0.025l-3.618-0.055l-7.238-0.124L63.496,7.753l-1.81-0.036l-0.829-0.016l-0.225,0l-0.088,0.005l-0.234,0.014
		c-0.697,0.056-1.319,0.271-1.839,0.597c-0.521,0.326-0.928,0.778-1.196,1.317c-0.136,0.27-0.229,0.565-0.29,0.88
		c-0.031,0.164-0.045,0.272-0.061,0.633l-0.046,0.905l-0.051,0.831L56.82,13.1l-0.004,0.077l0.002,0.235
		c0.021,0.338,0.076,0.68,0.189,1.012c0.223,0.662,0.627,1.308,1.207,1.798c0.574,0.49,1.291,0.859,2.106,0.988
		c0.081,0.021,0.248,0.036,0.398,0.052l0.452,0.049l0.904,0.098c0.604,0.072,1.206,0.142,1.811,0.226l1.603-0.108l0.118,1.83
		l4.984,76.77l0.08,1.249l-0.883,1.971l-0.001,0.001c-1.436,2.233-2.823,4.491-4.236,6.736l-4.158,6.777
		c-2.772,4.519-5.486,9.068-8.198,13.617c-5.411,9.108-10.725,18.268-15.982,27.456c-5.259,9.188-10.434,18.421-15.568,27.677
		l-7.653,13.906l-7.57,13.951l-0.088,0.162l-0.091,0.126c-0.449,0.626-0.789,1.327-0.983,2.072
		c-0.099,0.372-0.167,0.754-0.195,1.144c-0.004,0.098-0.017,0.194-0.017,0.293L5.041,213.6l-0.003,0.811l-0.007,1.62
		c-0.004,0.299,0,0.477,0.01,0.653c0.012,0.196,0.03,0.392,0.059,0.585c0.113,0.775,0.364,1.528,0.744,2.217
		c0.749,1.384,2.027,2.481,3.501,3.024c0.736,0.274,1.519,0.414,2.315,0.416l3.24,0.004c8.643,0.002,17.285-0.021,25.928-0.075
		l25.928-0.241l25.927-0.374l51.854-0.922l25.928-0.413l1.621-0.021l0.81-0.011l0.348-0.005l0.203-0.005l0.071-0.006
		c0.521-0.037,1.066-0.173,1.549-0.394c0.978-0.44,1.798-1.255,2.237-2.215c0.224-0.478,0.356-0.988,0.398-1.512
		c0.01-0.131,0.015-0.264,0.013-0.397l-0.009-0.727l-0.021-1.621l-0.006-0.405l-0.001-0.102c-0.001-0.105,0.001,0.089,0,0.051
		l-0.002-0.051l-0.007-0.203l-0.003-0.101l-0.005-0.038l-0.008-0.046l-0.021-0.166c-0.037-0.258-0.096-0.512-0.18-0.761
		c-0.165-0.499-0.423-0.98-0.753-1.411L176.531,210.54z M184.788,205.519c0.792,1.194,1.419,2.501,1.826,3.891
		c0.23,0.784,0.39,1.594,0.479,2.408c0.02,0.216,0.042,0.383,0.055,0.64l0.019,0.359l0.006,0.265l0.002,0.506l-0.006,0.405
		l-0.02,1.621l-0.015,0.892c-0.011,0.407-0.038,0.814-0.085,1.222c-0.185,1.623-0.664,3.222-1.406,4.676
		c-1.477,2.918-4,5.247-7.009,6.485c-1.508,0.621-3.104,0.969-4.74,1.025l-0.333,0.008h-0.203l-0.462-0.005l-0.81-0.011
		l-1.621-0.021l-25.928-0.411l-51.854-0.924l-25.927-0.374l-25.928-0.241c-8.643-0.054-17.285-0.075-25.928-0.073l-3.24,0.004
		c-1.365,0.002-2.743-0.239-4.033-0.716c-2.586-0.948-4.788-2.843-6.132-5.244c-0.675-1.198-1.132-2.522-1.344-3.883
		c-0.053-0.341-0.091-0.683-0.113-1.025c-0.025-0.363-0.027-0.726-0.027-0.967l-0.007-1.62L0,213.6l0.004-0.475
		c0-0.172,0.015-0.344,0.023-0.517c0.045-0.688,0.158-1.376,0.329-2.05c0.34-1.349,0.942-2.634,1.744-3.768l-0.178,0.288
		l7.317-14.086l7.234-14.129c4.791-9.437,9.541-18.896,14.209-28.397c4.666-9.503,9.278-19.034,13.794-28.618
		c2.25-4.795,4.499-9.592,6.688-14.419l3.286-7.241c1.068-2.428,2.162-4.842,3.207-7.282l0.001-0.001l-0.802,3.221l5.31-76.773
		l1.719,1.722c-0.604,0.083-1.207,0.153-1.811,0.225l-0.904,0.097l-0.452,0.05c-0.151,0.016-0.287,0.034-0.507,0.044
		c-1.597,0.076-3.273-0.299-4.711-1.143c-1.438-0.835-2.672-2.081-3.467-3.607c-0.398-0.761-0.695-1.584-0.865-2.437
		c-0.039-0.222-0.078-0.408-0.106-0.663l-0.058-0.61l-0.058-0.978l-0.046-0.905c-0.014-0.243-0.035-0.739-0.006-1.175
		c0.046-0.887,0.227-1.78,0.534-2.631c0.605-1.712,1.749-3.234,3.185-4.32c1.432-1.1,3.141-1.75,4.835-1.999
		c0.933-0.133,1.678-0.115,2.236-0.132l1.81-0.036l28.917-0.55l14.508-0.157c4.825-0.058,9.649-0.102,14.475-0.126L125.015,0
		c1.112-0.004,2.228,0.198,3.228,0.555c1.006,0.357,1.917,0.864,2.725,1.469c1.613,1.212,2.836,2.82,3.592,4.655
		c0.374,0.918,0.629,1.891,0.744,2.882c0.031,0.223,0.055,0.599,0.066,0.842l0.011,0.562l0.002,0.904l0.002,0.905l-0.005,0.336
		c-0.004,0.125-0.004,0.249-0.014,0.374c-0.019,0.25-0.038,0.5-0.073,0.749c-0.126,0.996-0.401,1.979-0.799,2.902
		c-0.798,1.851-2.117,3.452-3.763,4.596c-0.822,0.572-1.726,1.037-2.68,1.356c-0.475,0.166-0.964,0.288-1.457,0.384
		c-0.5,0.094-0.953,0.151-1.594,0.182l-0.578,0.008l-0.452-0.003l-0.905-0.007l-1.809-0.012l-0.007,0l4.284-4.285l1.902,76.765
		v0.004l-0.725-2.907L184.788,205.519z"/>
</g>
</svg>
