<?xml version="1.0" encoding="utf-8"?>
<!-- Generator: Adobe Illustrator 15.0.0, SVG Export Plug-In . SVG Version: 6.00 Build 0)  -->
<!DOCTYPE svg PUBLIC "-//W3C//DTD SVG 1.1//EN" "http://www.w3.org/Graphics/SVG/1.1/DTD/svg11.dtd">
<svg version="1.1" id="Layer_1" xmlns="http://www.w3.org/2000/svg" xmlns:xlink="http://www.w3.org/1999/xlink" x="0px" y="0px"
	 width="1280px" height="800px" viewBox="0 0 1280 800" enable-background="new 0 0 1280 800" xml:space="preserve">
<g>
	<polyline fill="#FFFFFF" points="1279,800 -1,800 -1,0 1279,0 1279,800 	"/>
	<g>
		<path fill="#FF7F00" d="M276.928,517.253c0-8.496,2.075-16.724,6.226-24.683c4.102-7.91,10.474-14.575,19.116-19.995
			c3.076-1.904,6.237-3.417,9.484-4.541c3.247-1.123,6.775-1.989,10.584-2.601c3.809-0.609,7.812-0.915,12.012-0.915
			c18.262,0,32.397,5.347,42.407,16.04c4.98,5.273,8.74,10.986,11.279,17.139c2.538,6.152,3.809,12.671,3.809,19.556
			c0,14.209-5.176,26.562-15.527,37.061c-10.353,10.499-24.342,15.747-41.968,15.747c-17.041,0-30.86-4.932-41.455-14.795
			C282.25,545.451,276.928,532.78,276.928,517.253z M321.167,517.253c0,11.328,1.099,18.97,3.296,22.925
			c2.099,4.004,5.395,6.006,9.888,6.006c4.442,0,7.764-1.929,9.961-5.786c2.197-3.906,3.296-11.62,3.296-23.145
			c0-11.181-1.074-18.798-3.223-22.852c-2.1-4.003-5.445-6.006-10.034-6.006c-4.395,0-7.69,1.93-9.888,5.786
			C322.265,498.039,321.167,505.729,321.167,517.253z"/>
		<path fill="#FF7F00" d="M461.206,568.449h-55.371v-24.39h8.276v-53.101h-8.276v-24.39h55.371c4.98,0,9.595,0.086,13.843,0.257
			s7.885,0.415,10.913,0.732c3.027,0.317,5.811,0.744,8.35,1.281c7.129,1.514,12.915,4.81,17.358,9.888
			c4.492,5.176,6.738,11.279,6.738,18.311c0,5.273-1.367,10.06-4.102,14.355c-2.735,4.248-6.324,7.373-10.767,9.375l14.062,23.291
			h7.324v24.39h-36.694l-22.192-41.602h-12.524v17.212h7.69V568.449z M453.515,488.908v19.409h4.395
			c5.761,0,9.668-0.171,11.719-0.513c2.197-0.341,4.053-1.318,5.566-2.93c1.513-1.513,2.271-3.589,2.271-6.226
			s-0.758-4.735-2.271-6.299c-1.514-1.611-3.442-2.588-5.786-2.93c-2.246-0.341-6.348-0.513-12.305-0.513H453.515z"/>
		<path fill="#FF7F00" d="M569.384,568.449h-40.356v-24.39h7.764l19.116-53.101h-8.203v-24.39h73.242v24.39h-8.203l19.482,53.101
			h7.471v24.39h-53.174V546.11h8.936l-3.882-12.817h-26.074l-4.468,12.817h8.35V568.449z M578.979,492.424l-9.595,28.198h18.237
			L578.979,492.424z"/>
		<path fill="#FF7F00" d="M688.037,568.449h-41.821v-24.39h8.936v-53.101h-8.936v-24.39h48.267l37.061,53.247v-28.857h-8.276v-24.39
			h41.089v24.39h-8.862v78.809h-33.545l-42.92-61.597v35.889h9.009V568.449z"/>
		<path fill="#FF7F00" d="M853.198,533.366h-10.4V514.03h45.557c0,11.133-0.781,19.409-2.344,24.829
			c-1.514,5.226-4.688,10.522-9.521,15.894c-4.736,5.322-10.474,9.204-17.212,11.646s-13.965,3.662-21.68,3.662
			c-11.475,0-21.899-1.904-31.274-5.713c-9.424-3.71-16.699-9.862-21.826-18.457c-5.176-8.447-7.764-17.919-7.764-28.418
			c0-15.868,5.225-28.662,15.674-38.379c10.352-9.716,23.046-14.575,38.086-14.575c12.549,0,22.387,3.052,29.517,9.155v-7.104
			h24.536v35.596h-24.536c-2.149-4.395-4.944-7.715-8.386-9.961c-3.443-2.245-7.46-3.369-12.049-3.369
			c-6.445,0-11.182,2.1-14.209,6.299c-2.979,4.2-4.468,11.914-4.468,23.145c0,11.182,1.562,18.775,4.688,22.778
			c3.174,4.054,7.788,6.079,13.843,6.079C848.608,547.136,853.198,542.547,853.198,533.366z"/>
		<path fill="#FF7F00" d="M1000.048,568.449h-97.192v-24.39h7.91v-53.101h-8.057v-24.39h97.339v32.593h-26.733v-8.203H950.17v15.674
			h20.142v20.728H950.17v16.699h23.145v-8.203h26.733V568.449z"/>
	</g>
	<path fill="#FFFFFF" d="M705.003,348.771l-45.029-84.799c-0.001-0.652,0.009-32.637,0.011-58.24h2.484
		c2.732,0,4.948-2.215,4.948-4.947v-1.521c0-2.732-2.215-4.949-4.567-4.949h-21.551c-1.538-0.035-3.096-0.033-4.644,0h-22.423
		c-3.114,0-5.329,2.217-5.329,4.949v1.521c0,2.732,2.215,4.947,4.948,4.947h2.618c-0.022,19.371-0.123,57.709-0.123,58.24
		l-45.178,85.078c-0.8,1.117-1.252,2.469-1.252,3.928v2.131c0,3.826,3.103,6.93,6.931,6.93h122.62c3.828,0,6.93-3.104,6.93-6.93
		v-2.131C706.396,351.395,705.86,349.938,705.003,348.771"/>
	<path fill="#FF681F" d="M614.857,296.738h-16.224l-24.57,45.381c0,0-6.483,11.818-4.194,14.869c2.287,3.049,5.336,4.955,9.15,4.955
		c3.812,0,120.185-0.002,120.185-0.002s12.111-3.047,6.011-14.104c-6.1-11.057-28.053-51.1-28.053-51.1H614.857"/>
	<path fill="#E55015" d="M672.237,296.738c0,2.316-15.619,4.193-34.887,4.193c-19.266,0-34.885-1.877-34.885-4.193
		s15.619-4.193,34.885-4.193C656.618,292.545,672.237,294.422,672.237,296.738"/>
	<path fill="#FF681F" d="M638.053,295.143c0-7.635-6.188-13.82-13.821-13.82c-7.635,0-13.824,6.186-13.824,13.82
		C620.073,298.625,632.885,297.268,638.053,295.143"/>
	<path fill="#EE7755" d="M614.589,293.582c-0.271-1.291-0.107-2.633,0.285-3.898c0.404-1.266,1.092-2.471,2.028-3.465
		c0.931-0.996,2.108-1.766,3.371-2.215c1.265-0.449,2.606-0.6,3.897-0.387c-1.171,0.582-2.257,1.111-3.237,1.752
		c-0.982,0.631-1.852,1.35-2.627,2.17c-0.774,0.822-1.448,1.746-2.051,2.756C615.651,291.309,615.111,292.391,614.589,293.582z"/>
	<path fill="#FF681F" d="M641.224,298.438c0-2.973-2.41-5.381-5.383-5.381s-5.382,2.408-5.382,5.381
		C634.222,299.795,639.21,299.266,641.224,298.438z"/>
	<path fill="#EE7755" d="M632.086,297.83c-0.044-0.494,0.047-0.998,0.218-1.471c0.171-0.475,0.441-0.918,0.791-1.295
		c0.354-0.371,0.784-0.672,1.256-0.859c0.47-0.189,0.974-0.277,1.465-0.256c-0.464,0.166-0.906,0.344-1.311,0.576
		c-0.402,0.234-0.769,0.516-1.08,0.852C632.797,296.043,632.375,296.895,632.086,297.83z"/>
	<path fill="#FF681F" d="M662.092,294.449c0-2.488-2.017-4.506-4.506-4.506c-2.488,0-4.505,2.018-4.505,4.506
		C656.23,295.586,660.407,295.143,662.092,294.449z"/>
	<path fill="#EE7755" d="M654.443,293.941c-0.038-0.414,0.039-0.836,0.182-1.23c0.143-0.398,0.37-0.77,0.662-1.086
		c0.296-0.311,0.657-0.562,1.052-0.719c0.393-0.16,0.814-0.232,1.227-0.215c-0.389,0.141-0.76,0.289-1.097,0.484
		c-0.337,0.195-0.644,0.43-0.904,0.711C655.037,292.445,654.685,293.158,654.443,293.941z"/>
	<path fill="#FF7F40" d="M625.067,311.463c-1.623,0-2.938,1.316-2.938,2.938s1.314,2.936,2.938,2.936
		c1.622,0,2.936-1.314,2.936-2.936S626.689,311.463,625.067,311.463"/>
	<path fill="#FF7F40" d="M644.16,329.342c-1.622,0-2.936,1.314-2.936,2.936c0,1.623,1.314,2.936,2.936,2.936
		s2.938-1.312,2.938-2.936C647.097,330.656,645.781,329.342,644.16,329.342"/>
	<path fill="#FF7F40" d="M606.546,344.895c-1.623,0-2.938,1.314-2.938,2.938c0,1.621,1.314,2.936,2.938,2.936
		c1.621,0,2.936-1.314,2.936-2.936C609.482,346.209,608.167,344.895,606.546,344.895"/>
	<path fill="#FFFFFF" d="M622.991,266.883c-3.651,5.922-7.102,11.949-10.48,18.014c-1.802,3.236-3.584,6.48-5.345,9.738
		c0.807-0.168,1.707-0.327,2.692-0.479c0.261-0.513,0.521-1.026,0.782-1.539c0.482-2.611,1.697-4.963,3.424-6.838
		c0.009-0.018,0.018-0.035,0.026-0.053C617.172,279.506,620.182,273.248,622.991,266.883"/>
	<path fill="#FF864C" d="M605.165,298.358c-0.861,1.613-1.717,3.229-2.566,4.849l-4.79,9.242c-1.561,3.1-3.155,6.182-4.676,9.303
		c-3.082,6.221-6.093,12.479-8.904,18.842c3.65-5.922,7.099-11.949,10.478-18.014c1.709-3.021,3.345-6.082,5.016-9.125l4.9-9.184
		c0.942-1.788,1.877-3.581,2.806-5.377C606.57,298.724,605.813,298.545,605.165,298.358"/>
	<path fill="#EA7344" d="M609.857,294.156c-0.985,0.151-1.885,0.311-2.692,0.479c-0.67,1.239-1.337,2.48-2,3.724
		c0.649,0.187,1.406,0.365,2.262,0.536C608.242,297.318,609.052,295.738,609.857,294.156"/>
	<path fill="#FF864C" d="M614.063,285.779c-1.728,1.875-2.942,4.227-3.424,6.838C611.79,290.343,612.931,288.064,614.063,285.779"/>
	<path fill="#231F20" d="M701.924,350.77l-46.106-84.59l-0.537-0.984l-0.012-1.221v-0.004l1.466-58.238l0.084-3.33l3.167,0.078
		l0.005,0.002l1.373-0.01l0.686-0.006l0.343-0.002l0.249-0.008l0.151-0.031l0.22-0.064c0.142-0.051,0.279-0.121,0.405-0.211
		c0.252-0.178,0.46-0.432,0.575-0.711c0.058-0.141,0.1-0.285,0.116-0.438l0.011-0.115l0.004-0.146l0.001-0.688l0.001-0.686v-0.086
		c0,0.029,0-0.098,0.001,0.062l-0.001-0.023l0-0.041l-0.004-0.172l-0.007-0.045c-0.016-0.158-0.056-0.312-0.116-0.465
		c-0.119-0.303-0.34-0.59-0.581-0.77c-0.245-0.184-0.455-0.244-0.576-0.248l-2.746-0.018c-3.661-0.018-7.32-0.051-10.981-0.094
		l-5.49-0.061l-1.373-0.018l-0.687-0.012l-0.395-0.006l-0.344-0.012c-0.937-0.033-1.76-0.049-2.667-0.057l-1.333-0.002l-1.437-0.018
		l-2.745-0.041l-5.491-0.096l-10.981-0.217l-1.373-0.027l-0.629-0.012H614l-0.066,0.004l-0.178,0.01
		c-0.529,0.043-1.001,0.205-1.395,0.453c-0.395,0.248-0.704,0.592-0.908,1c-0.103,0.205-0.173,0.428-0.22,0.668
		c-0.024,0.123-0.034,0.205-0.046,0.48l-0.035,0.686l-0.038,0.631l-0.006,0.164l-0.003,0.057l0.001,0.18
		c0.017,0.256,0.058,0.516,0.144,0.768c0.169,0.502,0.476,0.992,0.916,1.363c0.436,0.371,0.979,0.652,1.598,0.75
		c0.062,0.016,0.188,0.027,0.302,0.039l0.343,0.037l0.686,0.074c0.458,0.055,0.915,0.107,1.374,0.172l1.216-0.082l0.089,1.389
		l3.782,58.238l0.061,0.947l-0.67,1.496h0c-1.089,1.695-2.142,3.408-3.214,5.111l-3.155,5.141c-2.103,3.428-4.162,6.879-6.219,10.33
		c-4.105,6.91-8.136,13.857-12.125,20.828c-3.989,6.971-7.915,13.975-11.811,20.998l-5.806,10.549l-5.743,10.584l-0.067,0.123
		l-0.069,0.096c-0.341,0.475-0.599,1.006-0.746,1.572c-0.075,0.281-0.127,0.57-0.148,0.867l-0.012,0.223l-0.004,0.254l-0.002,0.613
		l-0.005,1.23c-0.003,0.227,0,0.361,0.008,0.494c0.009,0.15,0.023,0.299,0.044,0.445c0.086,0.588,0.276,1.158,0.564,1.682
		c0.568,1.049,1.538,1.883,2.656,2.293c0.559,0.209,1.152,0.314,1.757,0.316l2.458,0.004c6.557,0,13.113-0.016,19.669-0.059
		l19.669-0.182l19.668-0.285l39.338-0.699l19.669-0.312l1.23-0.016l0.614-0.008l0.264-0.004l0.154-0.004l0.055-0.004
		c0.396-0.029,0.809-0.131,1.175-0.299c0.741-0.334,1.364-0.953,1.697-1.68c0.169-0.363,0.271-0.75,0.302-1.148
		c0.008-0.098,0.012-0.199,0.01-0.301l-0.007-0.551l-0.015-1.23l-0.004-0.307l-0.001-0.078v0.039l-0.001-0.039l-0.005-0.154
		l-0.002-0.076l-0.004-0.029l-0.006-0.033l-0.016-0.127c-0.028-0.195-0.073-0.389-0.136-0.576c-0.125-0.379-0.321-0.744-0.571-1.07
		L701.924,350.77z M708.188,346.961c0.601,0.906,1.076,1.896,1.385,2.951c0.175,0.596,0.295,1.209,0.363,1.826
		c0.015,0.164,0.032,0.291,0.042,0.486l0.014,0.271l0.005,0.201l0.001,0.385l-0.004,0.307l-0.015,1.23l-0.011,0.676
		c-0.008,0.309-0.029,0.617-0.064,0.928c-0.14,1.23-0.504,2.443-1.066,3.547c-1.12,2.213-3.035,3.98-5.317,4.92
		c-1.144,0.471-2.354,0.734-3.596,0.777l-0.253,0.006h-0.154l-0.35-0.004l-0.614-0.008l-1.23-0.016l-19.669-0.312l-39.338-0.699
		l-19.668-0.285l-19.669-0.182c-6.557-0.041-13.113-0.059-19.669-0.057l-2.458,0.004c-1.036,0-2.081-0.182-3.06-0.543
		c-1.962-0.721-3.633-2.158-4.652-3.979c-0.512-0.91-0.858-1.914-1.019-2.945c-0.04-0.26-0.069-0.52-0.086-0.779
		c-0.019-0.275-0.021-0.551-0.021-0.732l-0.005-1.23l-0.003-0.613l0.003-0.361c0-0.129,0.011-0.26,0.017-0.391
		c0.035-0.523,0.121-1.045,0.25-1.557c0.258-1.021,0.715-1.998,1.324-2.857l-0.136,0.219l5.552-10.686l5.488-10.719
		c3.635-7.158,7.238-14.334,10.779-21.543c3.54-7.209,7.039-14.439,10.464-21.711c1.707-3.637,3.413-7.275,5.074-10.938l2.493-5.494
		c0.811-1.842,1.64-3.674,2.433-5.525h0.001l-0.608,2.443l4.028-58.242l1.304,1.307c-0.458,0.062-0.916,0.117-1.374,0.17
		l-0.686,0.074l-0.343,0.039c-0.115,0.012-0.217,0.025-0.384,0.033c-1.211,0.057-2.483-0.227-3.574-0.867
		c-1.09-0.635-2.027-1.58-2.63-2.736c-0.302-0.578-0.528-1.201-0.657-1.85c-0.029-0.168-0.059-0.309-0.081-0.502l-0.043-0.463
		l-0.044-0.742l-0.035-0.686c-0.01-0.186-0.026-0.561-0.004-0.893c0.035-0.672,0.172-1.35,0.405-1.996
		c0.459-1.299,1.327-2.453,2.416-3.277c1.086-0.834,2.382-1.326,3.667-1.516c0.708-0.1,1.273-0.086,1.697-0.1l1.373-0.027
		l21.937-0.418l11.006-0.119c3.661-0.045,7.32-0.078,10.981-0.096l2.746-0.018c0.844-0.002,1.69,0.15,2.448,0.422
		c0.764,0.27,1.455,0.654,2.067,1.113c1.224,0.92,2.152,2.141,2.725,3.531c0.284,0.697,0.478,1.436,0.564,2.188
		c0.023,0.168,0.042,0.453,0.051,0.639l0.008,0.426l0.001,0.686l0.001,0.688l-0.004,0.254c-0.003,0.096-0.003,0.189-0.01,0.283
		c-0.015,0.189-0.029,0.379-0.056,0.568c-0.096,0.756-0.305,1.5-0.606,2.201c-0.605,1.404-1.606,2.619-2.854,3.488
		c-0.624,0.434-1.309,0.787-2.032,1.029c-0.36,0.125-0.731,0.217-1.105,0.291c-0.38,0.07-0.724,0.113-1.209,0.139L662.392,209
		l-0.343-0.004l-0.686-0.004l-1.373-0.01h-0.005l3.25-3.25l1.443,58.236v0.002l-0.55-2.205L708.188,346.961z"/>
</g>
</svg>
