<?xml version="1.0" encoding="utf-8"?>
<!-- Generator: Adobe Illustrator 15.0.0, SVG Export Plug-In . SVG Version: 6.00 Build 0)  -->
<!DOCTYPE svg PUBLIC "-//W3C//DTD SVG 1.1//EN" "http://www.w3.org/Graphics/SVG/1.1/DTD/svg11.dtd">
<svg version="1.1" id="Layer_1" xmlns="http://www.w3.org/2000/svg" xmlns:xlink="http://www.w3.org/1999/xlink" x="0px" y="0px"
	 width="1280px" height="800px" viewBox="0 0 1280 800" enable-background="new 0 0 1280 800" xml:space="preserve">
<g>
	<polyline fill="#FFFFFF" points="1278.788,799 -1.213,799 -1.213,-1 1278.788,-1 1278.788,799 	"/>
	<g>
		<path fill="#F94D00" d="M211.932,575.893H154.73v-24.39h8.789v-53.101H151.8v18.53h-19.116v-42.92h101.001v42.92h-19.116v-18.53
			h-11.646v53.101h9.009V575.893z"/>
		<path fill="#F94D00" d="M274.163,575.893h-40.356v-24.39h7.764l19.116-53.101h-8.203v-24.39h73.242v24.39h-8.203l19.482,53.101
			h7.471v24.39h-53.174v-22.339h8.936l-3.882-12.817h-26.074l-4.468,12.817h8.35V575.893z M283.757,499.867l-9.595,28.198H292.4
			L283.757,499.867z"/>
		<path fill="#F94D00" d="M392.815,575.893h-41.821v-24.39h8.936v-53.101h-8.936v-24.39h48.267l37.061,53.247v-28.857h-8.276v-24.39
			h41.089v24.39h-8.862v78.809h-33.545l-42.92-61.597v35.889h9.009V575.893z"/>
		<path fill="#F94D00" d="M557.976,540.81h-10.4v-19.336h45.557c0,11.133-0.781,19.409-2.344,24.829
			c-1.514,5.226-4.688,10.522-9.521,15.894c-4.736,5.322-10.474,9.204-17.212,11.646s-13.965,3.662-21.68,3.662
			c-11.475,0-21.899-1.904-31.274-5.713c-9.424-3.71-16.699-9.862-21.826-18.457c-5.176-8.447-7.764-17.919-7.764-28.418
			c0-15.868,5.225-28.662,15.674-38.379c10.352-9.716,23.046-14.575,38.086-14.575c12.549,0,22.387,3.052,29.517,9.155v-7.104
			h24.536v35.596h-24.536c-2.149-4.395-4.944-7.715-8.386-9.961c-3.443-2.245-7.46-3.369-12.049-3.369
			c-6.445,0-11.182,2.1-14.209,6.299c-2.979,4.2-4.468,11.914-4.468,23.145c0,11.182,1.562,18.775,4.688,22.778
			c3.174,4.054,7.788,6.079,13.843,6.079C553.386,554.579,557.976,549.99,557.976,540.81z"/>
		<path fill="#F94D00" d="M704.827,575.893h-97.192v-24.39h7.91v-53.101h-8.057v-24.39h97.339v32.593h-26.733v-8.203h-23.145v15.674
			h20.142v20.728h-20.142v16.699h23.145V543.3h26.733V575.893z"/>
		<path fill="#F94D00" d="M775.286,575.893h-55.371v-24.39h8.276v-53.101h-8.276v-24.39h55.371c4.98,0,9.595,0.086,13.843,0.257
			s7.885,0.415,10.913,0.732c3.027,0.317,5.811,0.744,8.35,1.281c7.129,1.514,12.915,4.81,17.358,9.888
			c4.492,5.176,6.738,11.279,6.738,18.311c0,5.273-1.367,10.06-4.102,14.355c-2.735,4.248-6.324,7.373-10.767,9.375l14.062,23.291
			h7.324v24.39h-36.694l-22.192-41.602h-12.524v17.212h7.69V575.893z M767.595,496.352v19.409h4.395
			c5.761,0,9.668-0.171,11.719-0.513c2.197-0.341,4.053-1.318,5.566-2.93c1.513-1.513,2.271-3.589,2.271-6.226
			s-0.758-4.735-2.271-6.299c-1.514-1.611-3.442-2.588-5.786-2.93c-2.246-0.341-6.348-0.513-12.305-0.513H767.595z"/>
		<path fill="#F94D00" d="M904.778,575.893h-58.081v-24.39h9.375v-53.101h-9.375v-24.39h58.081v24.39h-9.302v53.101h9.302V575.893z"
			/>
		<path fill="#F94D00" d="M956.853,575.893h-41.821v-24.39h8.936v-53.101h-8.936v-24.39h48.267l37.061,53.247v-28.857h-8.276v-24.39
			h41.089v24.39h-8.862v78.809h-33.545l-42.92-61.597v35.889h9.009V575.893z"/>
		<path fill="#F94D00" d="M1142.229,575.893h-97.192v-24.39h7.91v-53.101h-8.057v-24.39h97.339v32.593h-26.733v-8.203h-23.145
			v15.674h20.142v20.728h-20.142v16.699h23.145V543.3h26.733V575.893z"/>
	</g>
	<path fill="#FFFFFF" d="M695.716,354.279c0.175,0.281,0.282,0.577,0.328,0.871c0.014,0.146,0.021,0.288,0.007,0.426l-0.016,0.083
		l-0.008,0.015v0.017l-0.007,0.067l-0.007,0.137l-0.008-0.017v0.069l-0.031,0.273l-0.105,1.092l-0.024,0.273l-0.014,0.137
		l-0.017,0.061l-0.067,0.182c-0.105,0.229-0.242,0.418-0.401,0.569c-0.327,0.304-0.713,0.464-1.047,0.517
		c-0.16,0.029-0.333,0.045-0.469,0.037l-1.981-0.029l-17.472-0.213c-11.651-0.168-23.297-0.222-34.949-0.326
		c-11.645-0.045-23.297-0.076-34.95-0.016l-17.472,0.061l-2.185,0.008c-0.114,0.007-0.197,0-0.295-0.029
		c-0.183-0.047-0.396-0.16-0.539-0.334c-0.069-0.092-0.121-0.189-0.175-0.297l-0.03-0.091c-0.007,0.009-0.022,0.014-0.031-0.228
		l-0.045-1.092l-0.022-0.547l-0.008-0.068v-0.031v-0.006l-0.008-0.031l-0.006-0.053l-0.031-0.197v-0.085l0.395-0.863
		c1.487-3.247,2.966-6.493,4.484-9.727c1.518-3.231,3.079-6.44,4.619-9.657l9.278-19.299l18.556-38.592h0.009l0.119-0.22
		l0.016-0.341l1.874-51.739l-0.189-3.123l-2.769,0.165l-1.221,0.067l-1.146,0.062c-0.296,0.031-0.599-0.021-0.873-0.174
		c-0.264-0.145-0.515-0.379-0.66-0.66c-0.075-0.145-0.129-0.289-0.166-0.447l-0.024-0.106l-0.007-0.015l-0.007-0.145v-0.008v-0.022
		v-0.015v-0.03v-0.009l-0.009-0.15v-0.312l-0.007-0.607l-0.008-0.249l0.008-0.13c0.007-0.167,0.037-0.318,0.09-0.469
		c0.107-0.297,0.305-0.562,0.592-0.768c0.272-0.205,0.638-0.355,1.062-0.408c0.152-0.023,0.449-0.023,0.889-0.016l1.22,0.007
		l9.757,0.062l4.877,0.029l2.443,0.016l1.275,0.007l1.184-0.007l19.489,0.228l2.436,0.031c0.097,0.007,0.272,0.06,0.478,0.228
		c0.196,0.167,0.372,0.416,0.455,0.674c0.046,0.129,0.076,0.258,0.083,0.387v0.016v0.016v0.129v0.016v0.007v0.038v0.016v0.022
		l-0.015,0.606l-0.007,0.607l-0.007,0.076v0.045l-0.016,0.092c-0.022,0.122-0.06,0.234-0.114,0.341
		c-0.105,0.212-0.281,0.394-0.477,0.515c-0.099,0.062-0.205,0.107-0.312,0.13l-0.16,0.03l-0.09,0.008h-0.016l-2.336-0.045
		l-3.354,0.098l0.098,3.147l1.617,51.739l-0.008,0.386l0.196,0.38c3.27,6.312,6.457,12.662,9.696,18.996l9.566,19.064
		c3.201,6.342,6.343,12.723,9.506,19.087l9.415,19.079L695.716,354.279"/>
	<path fill="#F94D00" d="M695.717,354.279l-0.303-0.502l-9.415-19.078c-2.026-4.078-4.049-8.158-6.079-12.233
		c-0.322,0.007-0.646,0.021-0.968,0.02c-12.139-0.069-24.312-1.11-36.444-1.554c-8.129-0.299-16.246-1.451-24.374-1.211
		c-1.41,0.379-2.799,0.838-4.176,1.406c-4.855,1.305-9.709,1.654-14.564,1.079l-6.265,13.03c-1.54,3.217-3.103,6.426-4.62,9.658
		c-1.517,3.232-2.997,6.479-4.483,9.726l-0.395,0.864v0.084l0.031,0.197l0.007,0.053l0.008,0.031v0.037l0.007,0.068l0.023,0.547
		l0.045,1.092c0.007,0.242,0.023,0.235,0.03,0.228l0.03,0.091c0.054,0.107,0.106,0.205,0.175,0.297
		c0.144,0.174,0.356,0.287,0.539,0.334c0.098,0.029,0.181,0.037,0.295,0.029l2.185-0.008l17.471-0.061
		c11.652-0.061,23.305-0.03,34.949,0.016c11.653,0.105,23.298,0.158,34.95,0.326l17.472,0.213l1.98,0.029
		c0.136,0.008,0.31-0.008,0.47-0.037c0.334-0.054,0.721-0.213,1.047-0.516c0.159-0.152,0.296-0.342,0.401-0.57l0.068-0.182
		l0.016-0.061l0.015-0.137l0.023-0.273l0.105-1.092l0.03-0.273v-0.068l0.009,0.016l0.007-0.137l0.008-0.068v-0.016l0.007-0.015
		l0.016-0.083c0.015-0.137,0.007-0.281-0.007-0.426C695.998,354.855,695.892,354.56,695.717,354.279z"/>
	<path fill="#231F20" d="M661.928,225.047l-0.099,3.133c-0.182,0.023-0.379,0.039-0.614,0.053l-2.534,0.062L661.928,225.047z"/>
	<path fill="#231F20" d="M660.107,276.02c0.069,0.121,0.137,0.25,0.205,0.371l-0.015,0.387L660.107,276.02z"/>
	<path fill="#231F20" d="M620.022,228.006l-1.222-0.068l-1.29-0.068c-0.122-0.008-0.243-0.016-0.356-0.03l-0.091-2.792
		L620.022,228.006z"/>
	<polygon fill="#231F20" points="618.854,276.224 618.717,276.785 618.709,276.475 	"/>
	<path fill="#231F20" d="M583.509,355.758l0.182-0.592c-0.03,0.113-0.052,0.221-0.061,0.318L583.509,355.758z"/>
	<path fill="#231F20" d="M704.001,358.838c-0.045,1.222-0.318,2.458-0.811,3.604c-0.971,2.307-2.83,4.271-5.189,5.348
		c-1.184,0.531-2.451,0.851-3.771,0.918l-0.41,0.016l-0.333,0.008l-0.547,0.008l-1.091,0.016l-17.472,0.211
		c-11.652,0.168-23.297,0.221-34.95,0.327c-11.645,0.046-23.297,0.075-34.949,0.015l-17.471-0.061l-2.185-0.016
		c-1.343,0-2.708-0.25-3.983-0.728c-1.267-0.485-2.451-1.19-3.459-2.087c-1.009-0.887-1.858-1.957-2.496-3.147
		c-0.638-1.184-1.062-2.489-1.229-3.816c-0.039-0.325-0.068-0.659-0.077-0.993c-0.022-0.372-0.015-0.744,0-0.865l0.046-1.092
		l0.022-0.547l0.016-0.41c0.008-0.166,0.03-0.334,0.045-0.492c0.061-0.66,0.19-1.312,0.379-1.957
		c0.357-1.268,0.964-2.459,1.745-3.49c-0.099,0.167-0.205,0.334-0.304,0.5l0.334-0.537c1.745-2.869,3.497-5.736,5.211-8.627
		c1.829-3.064,3.612-6.152,5.417-9.232l10.788-18.494l21.431-36.74l0.008,0.311l0.137-0.562l-0.145,0.251l-1.555-48.636
		c0.113,0.015,0.235,0.022,0.356,0.03l1.29,0.068l1.222,0.068l-2.959-2.959l0.091,2.792c-1.206-0.114-2.383-0.554-3.369-1.229
		c-1.092-0.742-1.95-1.79-2.488-2.98c-0.266-0.592-0.448-1.229-0.547-1.874c-0.022-0.167-0.038-0.304-0.053-0.501l-0.015-0.288
		v-0.159l0.007-0.371v-0.312l0.008-0.606l0.008-0.356c0-0.16,0.015-0.318,0.03-0.479c0.061-0.645,0.213-1.289,0.462-1.896
		c0.486-1.221,1.328-2.283,2.36-3.034c1.039-0.759,2.245-1.19,3.437-1.343c0.652-0.084,1.168-0.068,1.54-0.076l1.221-0.008
		l9.756-0.061l4.878-0.029l2.442-0.016l1.161-0.008l1.252-0.03c0.819-0.015,1.714-0.015,2.511,0h0.562h0.607l1.222-0.015
		l4.877-0.061l9.756-0.114l2.435-0.03c1.54-0.016,2.958,0.547,4.051,1.35c1.108,0.82,1.95,1.904,2.48,3.156
		c0.258,0.623,0.44,1.29,0.524,1.965c0.022,0.152,0.044,0.41,0.053,0.576l0.008,0.388l0.015,0.606l0.008,0.607v0.234
		c0,0.084,0,0.168-0.008,0.259c-0.007,0.167-0.022,0.341-0.045,0.516c-0.076,0.683-0.258,1.365-0.524,2.003
		c-0.539,1.289-1.441,2.404-2.579,3.217c-0.562,0.402-1.191,0.728-1.852,0.971c-0.326,0.113-0.667,0.205-1.009,0.281
		c-0.167,0.037-0.334,0.068-0.509,0.09l0.099-3.133l-3.246,3.247l2.534-0.062c0.235-0.014,0.432-0.029,0.614-0.053l-1.517,48.211
		c-0.068-0.121-0.136-0.25-0.205-0.371l0.19,0.758l0.015-0.387c3.331,6.122,6.737,12.199,10.105,18.299l10.432,18.608
		c3.466,6.206,6.994,12.38,10.491,18.571l10.416,18.275c0.629,0.857,1.138,1.805,1.495,2.829c0.189,0.554,0.333,1.122,0.424,1.707
		c0.023,0.151,0.054,0.272,0.068,0.463l0.046,0.448l0.015,0.136v0.038l0.008,0.113v0.016v0.053l0.03,0.273l0.106,1.092l0.022,0.273
		l0.016,0.137l0.015,0.205C704.009,358.23,704.017,358.535,704.001,358.838z M696.005,355.947v-0.068l0.009,0.016l0.007-0.137
		l0.008-0.068v-0.016l0.007-0.015l0.016-0.083c0.015-0.137,0.007-0.281-0.007-0.426c-0.046-0.295-0.152-0.591-0.327-0.871
		l-0.303-0.502l-9.415-19.078c-3.163-6.365-6.304-12.746-9.505-19.088l-9.567-19.064c-3.238-6.334-6.425-12.684-9.695-18.996
		l-0.197-0.379l0.008-0.387l-1.616-51.738l-0.099-3.148l3.354-0.098l2.336,0.045h0.015l0.091-0.008l0.159-0.03
		c0.106-0.022,0.213-0.067,0.312-0.129c0.197-0.122,0.372-0.304,0.478-0.516c0.054-0.106,0.091-0.22,0.113-0.341l0.016-0.092v-0.045
		l0.008-0.076l0.007-0.607l0.016-0.606v-0.022v-0.016v-0.038v-0.007v-0.016v-0.129v-0.016v-0.008
		c-0.007-0.137-0.038-0.266-0.083-0.395c-0.083-0.258-0.258-0.508-0.455-0.675c-0.206-0.167-0.38-0.22-0.478-0.228l-2.435-0.03
		l-19.489-0.228l-1.184,0.008l-1.274-0.008l-2.442-0.016l-4.878-0.029l-9.756-0.062l-1.221-0.007
		c-0.44-0.008-0.736-0.008-0.888,0.015c-0.424,0.054-0.789,0.204-1.062,0.409c-0.289,0.205-0.486,0.471-0.592,0.768
		c-0.053,0.15-0.083,0.303-0.091,0.469l-0.008,0.13l0.008,0.25l0.007,0.606v0.312l0.008,0.15v0.008v0.031v0.014v0.023v0.008
		l0.007,0.145l0.007,0.015l0.023,0.106c0.038,0.159,0.091,0.303,0.167,0.447c0.145,0.281,0.395,0.516,0.66,0.66
		c0.273,0.151,0.577,0.205,0.873,0.174l1.146-0.061l1.222-0.068l2.768-0.166l0.19,3.125l-1.874,51.738l-0.016,0.342l-0.12,0.219
		h-0.009l-18.556,38.592l-9.277,19.299c-1.54,3.217-3.103,6.426-4.62,9.658c-1.517,3.232-2.997,6.479-4.483,9.726l-0.395,0.864
		c0.008-0.098,0.031-0.205,0.061-0.318l-0.182,0.592l0.122-0.273v0.084l0.031,0.197l0.007,0.053l0.008,0.031v0.007v0.03l0.007,0.068
		l0.023,0.547l0.045,1.092c0.007,0.242,0.023,0.235,0.03,0.228l0.03,0.091c0.054,0.107,0.106,0.205,0.175,0.297
		c0.144,0.174,0.356,0.287,0.539,0.334c0.098,0.029,0.181,0.037,0.295,0.029l2.185-0.008l17.471-0.061
		c11.652-0.061,23.305-0.03,34.949,0.016c11.653,0.105,23.298,0.158,34.95,0.326l17.472,0.213l1.98,0.029
		c0.136,0.008,0.31-0.008,0.47-0.037c0.334-0.054,0.721-0.213,1.047-0.516c0.159-0.152,0.296-0.342,0.401-0.57l0.068-0.182
		l0.016-0.061l0.015-0.137l0.023-0.273l0.105-1.092L696.005,355.947z"/>
	<path fill="#231F20" d="M575.862,349.568l-0.334,0.537c0.099-0.166,0.205-0.333,0.304-0.5L575.862,349.568z"/>
	<ellipse fill="#DD4407" cx="639.605" cy="323.396" rx="40.784" ry="4.193"/>
	<path fill="#F94D00" d="M654.466,320.898c0-11.963-9.698-21.659-21.661-21.659s-21.663,9.696-21.663,21.659
		C626.289,326.357,646.365,324.23,654.466,320.898"/>
	<path fill="#F94D00" d="M668.419,323.484c0-2.713-2.198-4.91-4.911-4.91s-4.911,2.197-4.911,4.91
		C662.03,324.721,666.583,324.239,668.419,323.484z"/>
	<path fill="#FCA680" d="M630.869,302.689c-1.436,0-2.88,0.262-4.267,0.754c-1.979,0.706-3.824,1.912-5.283,3.473
		c-1.467,1.557-2.545,3.447-3.179,5.43c-0.616,1.982-0.872,4.084-0.448,6.108c0.818-1.864,1.665-3.562,2.613-5.149
		c0.945-1.584,2-3.033,3.213-4.32c1.214-1.285,2.579-2.414,4.118-3.4c1.535-1.004,3.236-1.832,5.073-2.748
		C632.101,302.737,631.486,302.689,630.869,302.689"/>
</g>
</svg>
