<?xml version="1.0" encoding="utf-8"?>
<!-- Generator: Adobe Illustrator 15.0.0, SVG Export Plug-In . SVG Version: 6.00 Build 0)  -->
<!DOCTYPE svg PUBLIC "-//W3C//DTD SVG 1.1//EN" "http://www.w3.org/Graphics/SVG/1.1/DTD/svg11.dtd">
<svg version="1.1" id="Layer_1" xmlns="http://www.w3.org/2000/svg" xmlns:xlink="http://www.w3.org/1999/xlink" x="0px" y="0px"
	 width="189.246px" height="234.948px" viewBox="0 0 189.246 234.948" enable-background="new 0 0 189.246 234.948"
	 xml:space="preserve">
<g>
	<path fill="#FFFFFF" d="M182.663,212.932l-59.358-111.781c0-0.86,0.013-43.02,0.015-76.771h3.274c3.603,0,6.522-2.921,6.522-6.522
		v-2.006c0-3.603-2.919-6.522-6.02-6.522H98.689c-2.026-0.047-4.08-0.046-6.121,0H63.01c-4.104,0-7.025,2.919-7.025,6.522v2.006
		c0,3.601,2.921,6.522,6.523,6.522h3.45c-0.029,25.534-0.161,76.072-0.161,76.771L6.244,213.3c-1.054,1.471-1.651,3.253-1.651,5.177
		v2.809c0,5.045,4.09,9.135,9.135,9.135h161.636c5.045,0,9.135-4.09,9.135-9.135v-2.809
		C184.5,216.389,183.792,214.47,182.663,212.932"/>
	<path fill="#FFE5B4" d="M64.179,144.471H42.793L10.405,204.29c0,0-8.544,15.581-5.528,19.6c3.016,4.021,7.035,6.534,12.062,6.534
		s158.426-0.002,158.426-0.002s15.965-4.019,7.924-18.591c-8.042-14.576-36.98-67.359-36.98-67.359H64.179"/>
	<path fill="#231F20" d="M178.603,215.566l-60.775-111.506l-0.708-1.299l-0.016-1.608v-0.006l1.932-76.768l0.111-4.389l4.173,0.104
		h0.009l1.809-0.011l0.904-0.007l0.452-0.003l0.328-0.011c-0.039-0.007,0.108-0.016,0.2-0.04c0.098-0.023,0.196-0.046,0.288-0.085
		c0.188-0.068,0.37-0.16,0.535-0.278c0.333-0.234,0.605-0.569,0.758-0.938c0.076-0.184,0.132-0.375,0.154-0.575l0.015-0.152
		l0.005-0.194l0.003-0.905l0.001-0.905v-0.114c0,0.014,0,0.003,0-0.01c0-0.022-0.001-0.043,0.001,0.092V15.93l-0.003-0.058
		l-0.004-0.226l-0.01-0.06c-0.02-0.206-0.073-0.41-0.152-0.61c-0.157-0.398-0.449-0.778-0.765-1.015
		c-0.324-0.242-0.6-0.321-0.761-0.325l-3.619-0.024c-4.825-0.023-9.65-0.066-14.476-0.125l-7.235-0.078l-1.811-0.024l-0.905-0.014
		l-0.522-0.009l-0.453-0.014c-1.235-0.044-2.319-0.065-3.515-0.075l-1.759-0.003L90.9,13.245l-3.618-0.055l-7.238-0.124
		l-14.475-0.288l-1.809-0.036l-0.83-0.016l-0.226,0.001l-0.087,0.004l-0.233,0.014c-0.698,0.055-1.32,0.27-1.839,0.597
		c-0.521,0.326-0.928,0.778-1.197,1.317c-0.135,0.271-0.229,0.565-0.291,0.88c-0.03,0.164-0.044,0.272-0.059,0.633l-0.046,0.905
		L58.9,17.91l-0.007,0.216l-0.004,0.078l0.001,0.233c0.022,0.339,0.077,0.682,0.19,1.014c0.223,0.662,0.627,1.307,1.208,1.798
		c0.574,0.489,1.29,0.859,2.105,0.988c0.081,0.02,0.248,0.035,0.398,0.052l0.453,0.049l0.904,0.098
		c0.603,0.072,1.206,0.142,1.81,0.226l1.604-0.108l0.118,1.829l4.985,76.769l0.079,1.25l-0.882,1.971l-0.001,0.001
		c-1.435,2.233-2.823,4.491-4.237,6.738l-4.158,6.776c-2.772,4.519-5.486,9.067-8.2,13.617c-5.41,9.106-10.723,18.268-15.98,27.456
		c-5.259,9.188-10.434,18.422-15.568,27.675l-7.654,13.907l-7.57,13.953l-0.087,0.161l-0.091,0.126
		c-0.45,0.627-0.79,1.326-0.985,2.072c-0.098,0.371-0.166,0.754-0.196,1.144c-0.003,0.098-0.016,0.194-0.016,0.293l-0.006,0.334
		l-0.003,0.811l-0.007,1.621c-0.003,0.299,0,0.478,0.01,0.651c0.013,0.199,0.03,0.393,0.059,0.589
		c0.113,0.773,0.364,1.525,0.745,2.214c0.748,1.385,2.026,2.479,3.5,3.024c0.736,0.273,1.519,0.415,2.315,0.416l3.24,0.004
		c8.643,0.001,17.285-0.02,25.928-0.073l25.927-0.242l25.928-0.375l51.854-0.924l25.928-0.411l1.621-0.02l0.81-0.011l0.348-0.006
		l0.203-0.005l0.072-0.007c0.521-0.034,1.065-0.173,1.549-0.391c0.977-0.442,1.796-1.255,2.236-2.215
		c0.224-0.477,0.356-0.988,0.398-1.513c0.01-0.131,0.016-0.265,0.013-0.396l-0.008-0.727l-0.021-1.622l-0.005-0.404l-0.001-0.101
		c-0.001-0.061-0.001-0.024,0,0.012c0,0.027,0,0.055,0,0.037l-0.001-0.05l-0.007-0.203l-0.003-0.102l-0.004-0.038l-0.008-0.044
		l-0.022-0.167c-0.037-0.259-0.095-0.512-0.18-0.761c-0.164-0.499-0.423-0.981-0.752-1.411L178.603,215.566 M186.861,210.543
		c0.791,1.196,1.418,2.503,1.825,3.895c0.231,0.783,0.39,1.59,0.479,2.406c0.02,0.215,0.042,0.382,0.054,0.638l0.019,0.361
		l0.006,0.265l0.002,0.506l-0.007,0.404l-0.021,1.622l-0.013,0.894c-0.012,0.405-0.039,0.812-0.085,1.218
		c-0.186,1.625-0.665,3.225-1.406,4.678c-1.477,2.918-4.001,5.247-7.01,6.485c-1.507,0.621-3.104,0.968-4.74,1.025l-0.333,0.008
		h-0.204l-0.461-0.004l-0.81-0.011l-1.621-0.02l-25.928-0.413l-51.854-0.922l-25.928-0.375l-25.927-0.242
		c-8.644-0.053-17.285-0.077-25.928-0.074l-3.24,0.005c-1.365,0.001-2.743-0.239-4.033-0.718c-2.587-0.948-4.789-2.842-6.132-5.241
		c-0.675-1.2-1.132-2.522-1.345-3.884c-0.053-0.341-0.091-0.684-0.112-1.025c-0.026-0.364-0.027-0.725-0.027-0.967l-0.007-1.621
		l-0.004-0.811l0.004-0.475c0-0.171,0.015-0.344,0.023-0.517c0.044-0.687,0.158-1.376,0.329-2.051
		c0.339-1.349,0.942-2.631,1.745-3.765l-0.179,0.288l7.317-14.085l7.235-14.129c4.791-9.438,9.541-18.896,14.208-28.399
		c4.666-9.502,9.278-19.034,13.793-28.619c2.249-4.794,4.499-9.591,6.688-14.417l3.286-7.242c1.067-2.426,2.163-4.843,3.207-7.281
		l0.001-0.002l-0.802,3.22l5.31-76.773l1.719,1.723c-0.604,0.083-1.207,0.154-1.81,0.226l-0.904,0.098l-0.453,0.049
		c-0.151,0.016-0.286,0.034-0.506,0.044c-1.596,0.075-3.273-0.299-4.711-1.143c-1.437-0.835-2.672-2.082-3.466-3.607
		c-0.399-0.761-0.696-1.585-0.866-2.438c-0.039-0.221-0.078-0.408-0.106-0.663l-0.057-0.61l-0.058-0.978l-0.047-0.905
		c-0.013-0.243-0.035-0.739-0.006-1.175c0.046-0.887,0.227-1.779,0.535-2.63c0.605-1.713,1.749-3.234,3.186-4.32
		c1.43-1.1,3.14-1.751,4.835-1.999c0.932-0.132,1.677-0.115,2.236-0.132l1.809-0.036l28.916-0.549l14.508-0.158
		c4.826-0.058,9.651-0.102,14.476-0.125l3.619-0.023c1.113-0.004,2.228,0.197,3.229,0.555c1.005,0.357,1.917,0.863,2.724,1.468
		c1.614,1.212,2.836,2.82,3.593,4.655c0.374,0.918,0.628,1.89,0.743,2.882c0.032,0.223,0.055,0.598,0.066,0.841l0.011,0.562
		l0.001,0.905l0.003,0.905l-0.006,0.335c-0.004,0.125-0.004,0.249-0.014,0.374c-0.017,0.25-0.038,0.5-0.072,0.749
		c-0.126,0.997-0.401,1.979-0.8,2.901c-0.797,1.852-2.117,3.453-3.762,4.598c-0.822,0.571-1.726,1.037-2.679,1.356
		c-0.475,0.166-0.965,0.289-1.458,0.384c-0.499,0.094-0.952,0.151-1.594,0.183l-0.578,0.009l-0.452-0.004l-0.904-0.006l-1.809-0.013
		h-0.009l4.286-4.284l1.903,76.765v0.004l-0.725-2.906L186.861,210.543"/>
	<path fill="#EACD9D" d="M139.816,144.471c0,2.891-19.599,5.528-45.985,5.528c-25.396,0-45.986-2.475-45.986-5.528
		c0-3.054,20.589-5.528,45.986-5.528C119.229,138.942,139.816,141.417,139.816,144.471"/>
	<path fill="#FFE5B4" d="M79.928,143.511c0-5.968-4.838-10.805-10.806-10.805s-10.806,4.836-10.806,10.805
		C65.872,146.233,75.887,145.172,79.928,143.511"/>
	<path fill="#FFF2DA" d="M68.162,134.427c-0.718,0-1.44,0.132-2.133,0.376c-0.988,0.351-1.908,0.954-2.636,1.733
		c-0.732,0.775-1.27,1.719-1.586,2.708c-0.307,0.989-0.435,2.038-0.223,3.048c0.409-0.931,0.831-1.778,1.303-2.569
		c0.472-0.791,0.999-1.514,1.604-2.156c0.605-0.642,1.286-1.204,2.054-1.697c0.767-0.499,1.615-0.913,2.531-1.37
		C68.772,134.451,68.467,134.427,68.162,134.427"/>
	<path fill="#FFE5B4" d="M96.625,145.555c0-3.28-2.659-5.938-5.939-5.938s-5.939,2.658-5.939,5.938
		C88.898,147.052,94.405,146.47,96.625,145.555"/>
	<path fill="#FFF2DA" d="M90.5,140.6c-0.493,0-0.991,0.096-1.459,0.286c-0.521,0.207-0.995,0.54-1.385,0.948
		c-0.385,0.416-0.685,0.906-0.873,1.43c-0.188,0.521-0.289,1.077-0.24,1.622c0.319-1.031,0.784-1.972,1.479-2.708
		c0.342-0.37,0.748-0.679,1.19-0.938c0.447-0.258,0.934-0.453,1.448-0.636C90.606,140.601,90.553,140.6,90.5,140.6"/>
	<path fill="#FFE5B4" d="M126.445,141.453c0-3.279-2.659-5.938-5.939-5.938c-3.282,0-5.939,2.659-5.939,5.938
		C118.718,142.95,124.222,142.368,126.445,141.453"/>
	<path fill="#FFF2DA" d="M120.318,136.497c-0.493,0-0.99,0.096-1.458,0.287c-0.521,0.207-0.996,0.538-1.387,0.948
		c-0.385,0.416-0.683,0.906-0.872,1.43c-0.189,0.521-0.291,1.075-0.241,1.622c0.319-1.033,0.784-1.972,1.479-2.708
		c0.342-0.371,0.748-0.679,1.191-0.938c0.446-0.258,0.934-0.453,1.447-0.638C120.425,136.498,120.372,136.497,120.318,136.497"/>
	<path fill="#FFFFFF" d="M73.625,104.329c-4.831,7.834-9.39,15.797-13.849,23.801c-2.592,4.655-5.155,9.327-7.683,14.016
		c1.724-0.446,3.93-0.861,6.537-1.233c0.564-2.284,1.854-4.282,3.611-5.734c0.76-1.517,1.518-3.037,2.271-4.558
		c4.067-8.21,8.045-16.479,11.761-24.898L73.625,104.329"/>
	<path fill="#FFEAC3" d="M49.349,153.693c0.724-1.38,1.452-2.759,2.183-4.136c-0.721,1.383-1.444,2.764-2.171,4.143l0.003-0.007
		l-0.5,0.938l0.489-0.944L49.349,153.693 M49.956,146.131c-1.095,2.053-2.184,4.109-3.265,6.169l-0.002,0.007l-6.313,12.184
		l-0.009,0.016c-2.051,4.075-4.156,8.144-6.172,12.28l0.004-0.009c-4.067,8.21-8.045,16.478-11.764,24.896l2.649,1.394
		c4.828-7.835,9.385-15.8,13.844-23.803l-0.004,0.009c2.265-4.004,4.422-8.045,6.62-12.044l0.024-0.047l6.444-12.076l0.003-0.006
		c1.314-2.494,2.618-4.994,3.912-7.498C53.366,147.154,51.339,146.66,49.956,146.131"/>
	<path fill="#EED7B1" d="M58.63,140.913c-2.607,0.372-4.813,0.787-6.537,1.233c-0.715,1.327-1.428,2.654-2.137,3.984
		c1.383,0.529,3.41,1.023,5.97,1.471c0.806-1.562,1.608-3.124,2.407-4.688C58.37,142.227,58.471,141.559,58.63,140.913"/>
	<path fill="#FFEAC3" d="M62.242,135.179c-1.757,1.453-3.047,3.45-3.611,5.734c-0.159,0.646-0.261,1.314-0.298,2
		C59.646,140.34,60.948,137.762,62.242,135.179"/>
</g>
</svg>
