<?xml version="1.0" encoding="utf-8"?>
<!-- Generator: Adobe Illustrator 15.0.0, SVG Export Plug-In . SVG Version: 6.00 Build 0)  -->
<!DOCTYPE svg PUBLIC "-//W3C//DTD SVG 1.1//EN" "http://www.w3.org/Graphics/SVG/1.1/DTD/svg11.dtd">
<svg version="1.1" id="Layer_1" xmlns="http://www.w3.org/2000/svg" xmlns:xlink="http://www.w3.org/1999/xlink" x="0px" y="0px"
	 width="1280px" height="800px" viewBox="0 0 1280 800" enable-background="new 0 0 1280 800" xml:space="preserve">
<g>
	<polyline fill="#FFFFFF" points="1280,799 0,799 0,-0.999 1280,-0.999 1280,799 	"/>
	<g>
		<path fill="#DAA520" d="M163.853,547.621h-10.4v-19.336h45.557c0,11.133-0.781,19.409-2.344,24.829
			c-1.514,5.226-4.688,10.522-9.521,15.894c-4.736,5.322-10.474,9.204-17.212,11.646s-13.965,3.662-21.68,3.662
			c-11.475,0-21.899-1.904-31.274-5.713c-9.424-3.71-16.699-9.862-21.826-18.457c-5.176-8.447-7.764-17.919-7.764-28.418
			c0-15.868,5.225-28.662,15.674-38.379c10.352-9.716,23.046-14.575,38.086-14.575c12.549,0,22.387,3.052,29.517,9.155v-7.104
			h24.536v35.596h-24.536c-2.149-4.395-4.944-7.715-8.386-9.961c-3.443-2.245-7.46-3.369-12.049-3.369
			c-6.445,0-11.182,2.1-14.209,6.299c-2.979,4.2-4.468,11.914-4.468,23.145c0,11.182,1.562,18.775,4.688,22.778
			c3.174,4.054,7.788,6.079,13.843,6.079C159.263,561.391,163.853,556.802,163.853,547.621z"/>
		<path fill="#DAA520" d="M214.17,531.508c0-8.496,2.075-16.724,6.226-24.683c4.102-7.91,10.474-14.575,19.116-19.995
			c3.076-1.904,6.237-3.417,9.484-4.541c3.247-1.123,6.775-1.989,10.584-2.601c3.809-0.609,7.812-0.915,12.012-0.915
			c18.262,0,32.397,5.347,42.407,16.04c4.98,5.273,8.74,10.986,11.279,17.139c2.538,6.152,3.809,12.671,3.809,19.556
			c0,14.209-5.176,26.562-15.527,37.061c-10.353,10.499-24.342,15.747-41.968,15.747c-17.041,0-30.86-4.932-41.455-14.795
			C219.492,559.706,214.17,547.035,214.17,531.508z M258.409,531.508c0,11.328,1.099,18.97,3.296,22.925
			c2.099,4.004,5.395,6.006,9.888,6.006c4.442,0,7.764-1.929,9.961-5.786c2.197-3.906,3.296-11.62,3.296-23.145
			c0-11.181-1.074-18.798-3.223-22.852c-2.1-4.003-5.445-6.006-10.034-6.006c-4.395,0-7.69,1.93-9.888,5.786
			C259.507,512.294,258.409,519.984,258.409,531.508z"/>
		<path fill="#DAA520" d="M438.804,582.704h-96.973v-24.39h9.155v-53.101h-9.155v-24.39h58.228v24.39h-9.668v53.101h24.097v-16.333
			h24.316V582.704z"/>
		<path fill="#DAA520" d="M496.299,582.704h-47.388v-24.39h7.983v-53.101h-7.983v-24.39h48.779c11.133,0,20.215,0.685,27.246,2.051
			c7.079,1.367,13.744,4.175,19.995,8.423c6.2,4.297,11.084,10.107,14.648,17.432c1.758,3.516,3.101,7.276,4.028,11.279
			c0.927,4.004,1.392,8.203,1.392,12.598c0,8.838-1.88,16.895-5.64,24.17c-3.711,7.227-8.423,12.77-14.136,16.626
			c-5.566,3.857-11.671,6.372-18.311,7.544C520.323,582.118,510.117,582.704,496.299,582.704z M496.299,505.214v53.101h3.735
			c9.276,0,15.308-2.465,18.091-7.397c2.734-4.932,4.102-11.133,4.102-18.604c0-4.492-0.586-8.936-1.758-13.33
			c-1.221-4.395-3.369-7.788-6.445-10.181c-3.028-2.392-8.448-3.589-16.26-3.589H496.299z"/>
		<path fill="#DAA520" d="M676.475,582.704h-97.192v-24.39h7.91v-53.101h-8.057v-24.39h97.339v32.593h-26.733v-8.203h-23.145v15.674
			h20.142v20.728h-20.142v16.699h23.145v-8.203h26.733V582.704z"/>
		<path fill="#DAA520" d="M731.7,582.704h-41.821v-24.39h8.936v-53.101h-8.936v-24.39h48.267l37.061,53.247v-28.857h-8.276v-24.39
			h41.089v24.39h-8.862v78.809h-33.545l-42.92-61.597v35.889h9.009V582.704z"/>
		<path fill="#DAA520" d="M875.035,582.704h-55.371v-24.39h8.276v-53.101h-8.276v-24.39h55.371c4.98,0,9.595,0.086,13.843,0.257
			s7.885,0.415,10.913,0.732c3.027,0.317,5.811,0.744,8.35,1.281c7.129,1.514,12.915,4.81,17.358,9.888
			c4.492,5.176,6.738,11.279,6.738,18.311c0,5.273-1.367,10.06-4.102,14.355c-2.735,4.248-6.324,7.373-10.767,9.375l14.062,23.291
			h7.324v24.39h-36.694l-22.192-41.602h-12.524v17.212h7.69V582.704z M867.344,503.163v19.409h4.395
			c5.761,0,9.668-0.171,11.719-0.513c2.197-0.341,4.053-1.318,5.566-2.93c1.513-1.513,2.271-3.589,2.271-6.226
			s-0.758-4.735-2.271-6.299c-1.514-1.611-3.442-2.588-5.786-2.93c-2.246-0.341-6.348-0.513-12.305-0.513H867.344z"/>
		<path fill="#DAA520" d="M946.393,531.508c0-8.496,2.075-16.724,6.226-24.683c4.102-7.91,10.474-14.575,19.116-19.995
			c3.076-1.904,6.237-3.417,9.484-4.541c3.247-1.123,6.775-1.989,10.584-2.601c3.809-0.609,7.812-0.915,12.012-0.915
			c18.262,0,32.397,5.347,42.407,16.04c4.98,5.273,8.74,10.986,11.279,17.139c2.538,6.152,3.809,12.671,3.809,19.556
			c0,14.209-5.176,26.562-15.527,37.061c-10.353,10.499-24.342,15.747-41.968,15.747c-17.041,0-30.86-4.932-41.455-14.795
			C951.714,559.706,946.393,547.035,946.393,531.508z M990.631,531.508c0,11.328,1.099,18.97,3.296,22.925
			c2.099,4.004,5.395,6.006,9.888,6.006c4.442,0,7.764-1.929,9.961-5.786c2.197-3.906,3.296-11.62,3.296-23.145
			c0-11.181-1.074-18.798-3.223-22.852c-2.1-4.003-5.445-6.006-10.034-6.006c-4.395,0-7.69,1.93-9.888,5.786
			C991.73,512.294,990.631,519.984,990.631,531.508z"/>
		<path fill="#DAA520" d="M1123.786,582.704h-47.388v-24.39h7.983v-53.101h-7.983v-24.39h48.779c11.133,0,20.215,0.685,27.246,2.051
			c7.079,1.367,13.744,4.175,19.995,8.423c6.2,4.297,11.084,10.107,14.648,17.432c1.758,3.516,3.101,7.276,4.028,11.279
			c0.927,4.004,1.392,8.203,1.392,12.598c0,8.838-1.88,16.895-5.64,24.17c-3.711,7.227-8.423,12.77-14.136,16.626
			c-5.566,3.857-11.671,6.372-18.311,7.544C1147.809,582.118,1137.603,582.704,1123.786,582.704z M1123.786,505.214v53.101h3.735
			c9.276,0,15.308-2.465,18.091-7.397c2.734-4.932,4.102-11.133,4.102-18.604c0-4.492-0.586-8.936-1.758-13.33
			c-1.221-4.395-3.369-7.788-6.445-10.181c-3.028-2.392-8.448-3.589-16.26-3.589H1123.786z"/>
	</g>
	<path fill="#FFFFFF" d="M671.535,183.624v0.111v0.783v0.781l-0.007,0.196l-0.022,0.168c-0.024,0.22-0.091,0.432-0.175,0.636
		c-0.174,0.403-0.478,0.76-0.842,1.01c-0.181,0.129-0.386,0.228-0.591,0.296c-0.1,0.038-0.207,0.069-0.312,0.092
		c-0.105,0.022-0.25,0.029-0.258,0.037h-0.181H669.1l-0.016,0.008h-0.053h-0.386h-0.782h-1.57l-3.178-0.076l-0.076,3.322
		l-1.464,66.38v0.008l0.038,1.312l0.508,0.889c4.545,7.912,8.966,15.894,13.398,23.866l6.584,11.986l6.533,12.023l3.253,6.01
		l3.233,6.029l6.455,12.063c4.293,8.041,8.549,16.113,12.791,24.184l0.12,0.221l0.161,0.229c0.309,0.424,0.515,0.918,0.621,1.402
		c0.046,0.251,0.069,0.501,0.069,0.744l-0.091,0.949c-0.045,0.469-0.09,0.932-0.145,1.401l-0.037,0.35l-0.024,0.175l-0.022,0.106
		c-0.031,0.106-0.067,0.221-0.106,0.318c-0.167,0.417-0.395,0.782-0.682,1.069c-0.562,0.584-1.268,0.903-1.888,1.032
		c-0.312,0.068-0.639,0.091-0.918,0.083l-2.58-0.053l-22.417-0.432c-14.946-0.281-29.89-0.591-44.836-0.82
		c-14.944-0.258-29.889-0.387-44.833-0.454l-22.426-0.009l-2.799,0.016c-0.122,0-0.205-0.007-0.289-0.038
		c-0.174-0.054-0.372-0.198-0.47-0.372c-0.061-0.083-0.091-0.174-0.114-0.272l-0.016-0.062v-0.014v-0.007v-0.252l-0.007-1.403
		l-0.008-0.896l0.015-0.137l0.083-0.22l0.782-1.351l0.038-0.067l5.978-11.555l6.236-12.229c4.135-8.163,8.23-16.349,12.259-24.564
		c4.035-8.224,8.019-16.463,11.926-24.746c3.898-8.292,7.752-16.606,11.416-25.02l0.387-0.767l-0.014-0.729l-1.321-66.38
		l-0.038-1.759l-1.685,0.038l-3.08-0.205c-0.699-0.076-1.328-0.343-1.851-0.744c-0.531-0.402-0.917-0.947-1.154-1.531
		c-0.114-0.289-0.189-0.6-0.219-0.903l-0.008-0.22v-0.265l0.024-0.722l0.022-0.782c0.007-0.31,0.015-0.417,0.038-0.568
		c0.045-0.305,0.121-0.584,0.242-0.844c0.244-0.521,0.616-0.978,1.109-1.304c0.485-0.334,1.085-0.537,1.736-0.606l0.227-0.016
		l0.093-0.007h0.197l0.72,0.007l1.564,0.022l12.517,0.176l6.259,0.083l3.126,0.038l1.63,0.015l1.525-0.007
		c1.017,0,2.033,0.022,3.042,0.052l0.394,0.009l0.448,0.007l0.781,0.016l1.572,0.014l6.259,0.047l12.509,0.106l3.133,0.022
		c0.272,0.007,0.622,0.122,0.979,0.395c0.348,0.266,0.66,0.675,0.834,1.109c0.084,0.212,0.136,0.438,0.159,0.666l0.015,0.099
		V183.624"/>
	<path fill="#DAA520" d="M715.269,357.59c-0.105-0.484-0.312-0.979-0.621-1.402l-0.161-0.229l-0.12-0.221
		c-4.242-8.07-8.498-16.143-12.791-24.184l-6.455-12.063l-3.233-6.029l-3.253-6.01l-6.533-12.023l-6.584-11.986
		c-4.432-7.973-8.853-15.954-13.398-23.866l-0.508-0.889l-0.038-1.312v-0.008l0.592-26.848c-4.994,0.839-10.228,0.769-15.438-0.319
		c-3.496-0.171-7-0.146-10.503-0.122c-4.045,0.028-8.09,0.057-12.127-0.218c-1.675-0.113-3.314-0.292-4.92-0.536l0.559,28.043
		l0.014,0.729l-0.387,0.767c-3.664,8.413-7.518,16.728-11.416,25.02c-3.908,8.283-7.891,16.522-11.926,24.746
		c-4.029,8.216-8.125,16.401-12.259,24.564l-6.236,12.229l-5.978,11.555l-0.038,0.067l-0.782,1.351l-0.083,0.22l-0.015,0.137
		l0.008,0.896l0.007,1.403v0.272l0.016,0.062c0.022,0.099,0.053,0.189,0.114,0.272c0.098,0.174,0.296,0.318,0.47,0.372
		c0.084,0.031,0.167,0.038,0.289,0.038l2.799-0.016l22.426,0.009c14.944,0.067,29.889,0.196,44.833,0.454
		c14.946,0.229,29.89,0.539,44.836,0.82l22.417,0.432l2.58,0.053c0.279,0.008,0.606-0.015,0.918-0.083
		c0.621-0.129,1.327-0.448,1.888-1.032c0.288-0.287,0.515-0.652,0.682-1.069c0.039-0.098,0.076-0.212,0.106-0.318l0.022-0.106
		l0.024-0.175l0.037-0.35c0.055-0.47,0.1-0.933,0.145-1.401l0.091-0.949C715.338,358.091,715.315,357.841,715.269,357.59"/>
	<path fill="#231F20" d="M670.958,256.216l0.023,1.146l-0.546-2.2C670.609,255.51,670.776,255.867,670.958,256.216z"/>
	<path fill="#231F20" d="M670.982,257.361l-0.024-1.146c3.839,7.844,7.792,15.628,11.744,23.411l6.243,12.168l6.305,12.146
		l3.147,6.069l3.186,6.054l6.381,12.101c4.233,8.011,8.503,15.997,12.782,23.979c0.706,1.008,1.283,2.108,1.677,3.292
		c0.229,0.645,0.395,1.321,0.508,2.003c0.022,0.183,0.054,0.32,0.076,0.537l0.053,0.525l0.022,0.176v0.045l0.008,0.127l0.007,0.085
		l0.031,0.35c0.045,0.469,0.091,0.932,0.143,1.401l0.046,0.35l0.015,0.175l0.016,0.249c0.022,0.358,0.037,0.715,0.029,1.071
		c-0.038,1.441-0.334,2.905-0.887,4.287c-1.086,2.768-3.278,5.165-6.099,6.493c-1.412,0.659-2.936,1.054-4.522,1.145l-0.508,0.023
		l-0.417,0.007l-0.699,0.015l-1.402,0.024l-22.417,0.433c-14.946,0.28-29.89,0.591-44.836,0.819
		c-14.944,0.25-29.889,0.379-44.833,0.455l-22.426,0.007l-2.799-0.014c-1.753,0-3.536-0.319-5.196-0.942
		c-3.338-1.243-6.153-3.679-7.86-6.781c-0.857-1.541-1.433-3.255-1.691-5.001c-0.068-0.439-0.113-0.871-0.137-1.312l-0.022-0.361
		l-0.007-0.343v-0.433l0.007-1.403l0.008-0.706l0.007-0.538c0-0.222,0.024-0.438,0.031-0.661c0.068-0.878,0.22-1.767,0.44-2.631
		c0.409-1.564,1.083-3.066,1.979-4.4l-0.189,0.356l0.486-0.78c-0.1,0.136-0.198,0.28-0.296,0.424l6.373-11.689l6.638-12.019
		c4.454-7.995,8.929-15.976,13.48-23.919s9.149-15.862,13.83-23.738c4.567-7.676,9.18-15.346,13.974-22.917l-0.023,0.94l0.372-1.494
		c-0.113,0.182-0.234,0.371-0.348,0.554l1.54-63.588l0.198-0.015l1.569-0.114l-1.722-1.723l-0.045,1.852l-0.585,0.03l-0.386,0.023
		c-0.129,0.007-0.25,0.015-0.439,0.021c-1.396,0.023-2.83-0.356-4.052-1.107c-1.213-0.742-2.237-1.836-2.882-3.14
		c-0.327-0.652-0.562-1.351-0.699-2.071c-0.03-0.189-0.061-0.349-0.083-0.562l-0.022-0.319l-0.015-0.196l-0.031-0.842l-0.022-0.782
		c-0.007-0.22-0.022-0.629,0.007-0.993c0.053-0.744,0.206-1.486,0.47-2.192c0.517-1.427,1.48-2.679,2.687-3.572
		c1.199-0.902,2.618-1.441,4.028-1.64c0.773-0.114,1.403-0.091,1.888-0.106l1.564-0.022l25.011-0.35l25.051-0.196l3.133-0.03
		c0.896,0,1.798,0.157,2.609,0.446c0.812,0.289,1.555,0.698,2.215,1.192c1.312,0.986,2.314,2.298,2.937,3.801
		c0.303,0.749,0.517,1.54,0.606,2.351c0.031,0.183,0.046,0.479,0.062,0.684l0.007,0.469v0.783l0.009,0.781l-0.009,0.28
		c0,0.099,0,0.196-0.015,0.304c-0.007,0.204-0.022,0.409-0.053,0.605c-0.099,0.82-0.319,1.624-0.645,2.375
		c-0.644,1.518-1.722,2.832-3.065,3.771c-0.674,0.47-1.411,0.857-2.191,1.123c-0.388,0.136-0.789,0.235-1.192,0.318
		c-0.387,0.069-0.743,0.122-1.213,0.145l-0.07-3.232l-3.247,3.255h1.57h0.782h0.386l0.281-0.007l0.205-0.009l0.092-0.007
		l1.349,61.995c-0.181-0.35-0.348-0.706-0.523-1.055L670.982,257.361 M669.146,187.734h0.181c0.008-0.008,0.153-0.015,0.258-0.037
		c0.105-0.022,0.212-0.054,0.312-0.092c0.205-0.068,0.41-0.167,0.591-0.296c0.365-0.25,0.668-0.606,0.842-1.01
		c0.084-0.204,0.151-0.416,0.175-0.636l0.022-0.168l0.007-0.196v-0.781v-0.783v-0.111v-0.198l-0.015-0.099
		c-0.022-0.228-0.075-0.454-0.159-0.666c-0.174-0.435-0.486-0.844-0.834-1.109c-0.358-0.272-0.707-0.388-0.979-0.395l-3.133-0.022
		l-12.509-0.106l-6.259-0.047l-1.572-0.014l-0.781-0.016l-0.448-0.007l-0.394-0.009c-1.009-0.029-2.025-0.052-3.042-0.052
		l-1.525,0.007l-1.63-0.015l-3.126-0.038l-6.259-0.083l-12.517-0.176l-1.564-0.022l-0.72-0.007h-0.197l-0.093,0.007l-0.227,0.016
		c-0.651,0.069-1.251,0.272-1.736,0.606c-0.493,0.326-0.865,0.782-1.109,1.304c-0.121,0.26-0.197,0.539-0.242,0.844
		c-0.022,0.151-0.031,0.259-0.038,0.568l-0.022,0.782l-0.024,0.722v0.265l0.008,0.22c0.03,0.304,0.105,0.614,0.219,0.903
		c0.237,0.584,0.623,1.129,1.154,1.531c0.523,0.401,1.152,0.668,1.851,0.744l3.08,0.205l1.685-0.038l0.038,1.759l1.321,66.38
		l0.014,0.729l-0.387,0.767c-3.664,8.413-7.518,16.728-11.416,25.02c-3.908,8.283-7.891,16.522-11.926,24.746
		c-4.029,8.216-8.125,16.401-12.259,24.564l-6.236,12.229l-5.978,11.555l-0.038,0.067l-0.782,1.351l-0.083,0.22l-0.015,0.137
		l0.008,0.896l0.007,1.403v0.252v0.007v0.014l0.016,0.062c0.022,0.099,0.053,0.189,0.114,0.272c0.098,0.174,0.296,0.318,0.47,0.372
		c0.084,0.031,0.167,0.038,0.289,0.038l2.799-0.016l22.426,0.009c14.944,0.067,29.889,0.196,44.833,0.454
		c14.946,0.229,29.89,0.539,44.836,0.82l22.417,0.432l2.58,0.053c0.279,0.008,0.606-0.015,0.918-0.083
		c0.621-0.129,1.327-0.448,1.888-1.032c0.288-0.287,0.515-0.652,0.682-1.069c0.039-0.098,0.076-0.212,0.106-0.318l0.022-0.106
		l0.024-0.175l0.037-0.35c0.055-0.47,0.1-0.933,0.145-1.401l0.091-0.949c0-0.243-0.022-0.493-0.069-0.744
		c-0.105-0.484-0.312-0.979-0.621-1.402l-0.161-0.229l-0.12-0.221c-4.242-8.07-8.498-16.143-12.791-24.184l-6.455-12.063
		l-3.233-6.029l-3.253-6.01l-6.533-12.023l-6.584-11.986c-4.432-7.973-8.853-15.954-13.398-23.866l-0.508-0.889l-0.038-1.312v-0.008
		l1.464-66.38l0.076-3.322l3.178,0.076h1.57h0.782h0.386h0.053l0.016-0.008H669.146"/>
	<path fill="#231F20" d="M669.1,187.734l-0.016,0.008L669.1,187.734z"/>
	<polygon fill="#231F20" points="669.031,194.243 668.645,194.243 667.863,194.243 666.293,194.243 669.539,190.988 
		669.608,194.221 669.517,194.229 669.312,194.236 	"/>
	<polygon fill="#231F20" points="616.694,192.711 615.124,192.825 614.927,192.84 614.972,190.988 	"/>
	<path fill="#231F20" d="M613.735,255.874l-0.372,1.494l0.023-0.94C613.5,256.246,613.621,256.057,613.735,255.874z"/>
	<path fill="#231F20" d="M559.388,350.285l-0.486,0.781l0.19-0.356C559.19,350.566,559.289,350.422,559.388,350.285z"/>
	<ellipse fill="#C18E1E" cx="640.678" cy="229.497" rx="21.367" ry="4.194"/>
	<path fill="#E0B241" d="M622.449,284.933c-2.789,0-5.047,2.26-5.047,5.046c0,2.788,2.258,5.047,5.047,5.047
		c2.786,0,5.046-2.259,5.046-5.047C627.495,287.192,625.235,284.933,622.449,284.933"/>
	<path fill="#E0B241" d="M607.185,342.651c-2.789,0-5.048,2.26-5.048,5.047s2.259,5.047,5.048,5.047c2.786,0,5.046-2.26,5.046-5.047
		S609.971,342.651,607.185,342.651"/>
	<path fill="#E0B241" d="M615.589,335.024c-1.787,0-3.235,1.446-3.235,3.233s1.448,3.234,3.235,3.234
		c1.785,0,3.234-1.447,3.234-3.234S617.375,335.024,615.589,335.024"/>
	<path fill="#E0B241" d="M663.52,311.067c-2.788,0-5.046,2.26-5.046,5.046c0,2.787,2.258,5.044,5.046,5.044s5.047-2.257,5.047-5.044
		C668.567,313.327,666.308,311.067,663.52,311.067"/>
	<path fill="#E0B241" d="M642.759,274.428c-2.051,0-3.713,1.664-3.713,3.713c0,2.05,1.662,3.711,3.713,3.711
		s3.712-1.661,3.712-3.711C646.472,276.092,644.81,274.428,642.759,274.428"/>
	<path fill="#E1B74D" d="M626.565,265.905c-3.651,5.921-7.102,11.947-10.479,18.013c-3.378,6.065-6.689,12.165-9.914,18.311
		l-4.789,9.243c-1.56,3.1-3.154,6.181-4.676,9.303c-3.082,6.223-6.093,12.479-8.904,18.841c3.649-5.922,7.1-11.949,10.478-18.014
		c1.708-3.021,3.343-6.082,5.014-9.125l4.901-9.185c3.235-6.139,6.385-12.323,9.469-18.544
		C620.748,278.528,623.757,272.27,626.565,265.905"/>
</g>
</svg>
