<?xml version="1.0" encoding="utf-8"?>
<!-- Generator: Adobe Illustrator 15.0.0, SVG Export Plug-In . SVG Version: 6.00 Build 0)  -->
<!DOCTYPE svg PUBLIC "-//W3C//DTD SVG 1.1//EN" "http://www.w3.org/Graphics/SVG/1.1/DTD/svg11.dtd">
<svg version="1.1" id="Layer_1" xmlns="http://www.w3.org/2000/svg" xmlns:xlink="http://www.w3.org/1999/xlink" x="0px" y="0px"
	 width="219.823px" height="265.54px" viewBox="0 0 219.823 265.54" enable-background="new 0 0 219.823 265.54"
	 xml:space="preserve">
<g>
	<path fill="#FFFFFF" d="M151.48,11.64v0.149v1.03v1.03l-0.01,0.26l-0.03,0.221c-0.031,0.29-0.121,0.569-0.23,0.839
		c-0.23,0.53-0.63,1-1.11,1.331c-0.24,0.169-0.511,0.3-0.781,0.39c-0.13,0.049-0.27,0.089-0.409,0.119s-0.331,0.041-0.34,0.05h-0.24
		h-0.06l-0.021,0.009h-0.07h-0.51h-1.03h-2.07l-4.19-0.1l-0.101,4.38l-1.93,87.5v0.011l0.05,1.729l0.669,1.169
		c5.99,10.43,11.821,20.951,17.661,31.46l8.68,15.801l8.61,15.85l4.291,7.919l4.26,7.95l8.509,15.9
		c5.66,10.6,11.271,21.241,16.861,31.879l0.16,0.29l0.21,0.301c0.409,0.56,0.679,1.21,0.818,1.851
		c0.061,0.329,0.091,0.66,0.091,0.979l-0.119,1.25c-0.061,0.62-0.121,1.229-0.191,1.85l-0.05,0.459l-0.03,0.23
		c-0.01,0.091-0.019,0.091-0.03,0.139c-0.04,0.14-0.091,0.29-0.14,0.42c-0.22,0.55-0.521,1.03-0.9,1.411
		c-0.74,0.77-1.671,1.19-2.49,1.359c-0.411,0.091-0.84,0.12-1.21,0.11l-3.4-0.069l-29.55-0.57c-19.701-0.37-39.4-0.779-59.099-1.081
		c-19.701-0.339-39.4-0.509-59.101-0.599l-29.559-0.011l-3.69,0.021c-0.16,0-0.27-0.01-0.381-0.05
		c-0.229-0.071-0.489-0.26-0.62-0.489c-0.08-0.111-0.121-0.23-0.149-0.361l-0.021-0.08v-0.02v-0.01v-0.331l-0.01-1.85l-0.009-1.181
		l0.019-0.179c0.021-0.101,0.05-0.181,0.111-0.29l1.029-1.781l0.052-0.089l7.879-15.229l8.219-16.122
		C41.23,198.04,46.63,187.25,51.94,176.42c5.321-10.84,10.571-21.7,15.72-32.62c5.141-10.93,10.22-21.889,15.049-32.979l0.511-1.01
		l-0.02-0.961l-1.74-87.5l-0.05-2.32l-2.219,0.05l-4.061-0.27c-0.92-0.1-1.751-0.45-2.439-0.98c-0.701-0.53-1.21-1.25-1.521-2.02
		c-0.15-0.381-0.251-0.79-0.29-1.19c0-0.1-0.021-0.23-0.01-0.29v-0.351l0.03-0.95L70.93,12c0.01-0.409,0.021-0.549,0.05-0.75
		c0.06-0.4,0.16-0.77,0.32-1.11c0.32-0.69,0.811-1.29,1.46-1.72c0.64-0.44,1.43-0.71,2.291-0.8c0.109,0,0.229-0.021,0.299-0.021
		l0.121-0.01h0.26l0.95,0.01l2.059,0.03l16.5,0.23l8.251,0.11l4.12,0.05l2.151,0.02l2.01-0.011c1.339,0,2.68,0.03,4.009,0.071
		l0.521,0.01l0.589,0.011l1.03,0.019l2.069,0.02l8.25,0.06l16.492,0.141l4.129,0.03c0.36,0.01,0.82,0.16,1.291,0.52
		c0.459,0.35,0.87,0.889,1.099,1.46c0.111,0.279,0.18,0.58,0.21,0.88l0.021,0.13V11.64"/>
	<path fill="#DAA520" d="M209.129,240.961c-0.14-0.64-0.409-1.291-0.818-1.851l-0.21-0.301l-0.16-0.29
		c-5.591-10.639-11.202-21.279-16.861-31.879l-8.509-15.9l-4.26-7.95l-4.291-7.919l-8.61-15.85l-8.68-15.801
		c-5.84-10.51-11.67-21.03-17.661-31.46l-0.669-1.169l-0.05-1.729v-0.011l0.781-35.391c-6.582,1.106-13.48,1.015-20.352-0.419
		c-4.609-0.225-9.228-0.194-13.846-0.161c-5.332,0.037-10.664,0.073-15.983-0.287c-2.208-0.149-4.368-0.386-6.485-0.708L83.2,108.85
		l0.02,0.961l-0.511,1.01c-4.829,11.09-9.909,22.049-15.049,32.979c-5.149,10.92-10.399,21.78-15.72,32.62
		c-5.31,10.83-10.709,21.62-16.161,32.379l-8.219,16.122l-7.879,15.229l-0.052,0.089l-1.029,1.781
		c-0.061,0.109-0.089,0.189-0.111,0.29l-0.019,0.179l0.009,1.181l0.01,1.85v0.361l0.021,0.08c0.028,0.13,0.069,0.25,0.149,0.361
		c0.13,0.229,0.391,0.418,0.62,0.489c0.111,0.041,0.221,0.05,0.381,0.05l3.69-0.021l29.559,0.011
		c19.701,0.09,39.4,0.26,59.101,0.599c19.699,0.301,39.398,0.71,59.099,1.081l29.55,0.57l3.4,0.069c0.37,0.009,0.8-0.02,1.21-0.11
		c0.818-0.169,1.75-0.589,2.49-1.359c0.379-0.381,0.68-0.86,0.9-1.411c0.049-0.13,0.1-0.281,0.14-0.42
		c0.011-0.048,0.02-0.048,0.03-0.139l0.03-0.23l0.05-0.459c0.071-0.621,0.13-1.23,0.191-1.85l0.119-1.25
		C209.22,241.621,209.19,241.29,209.129,240.961"/>
	<path fill="#231F20" d="M150.721,107.33l0.029,1.51l-0.72-2.9C150.261,106.4,150.48,106.87,150.721,107.33z"/>
	<path fill="#231F20" d="M150.75,108.84l-0.028-1.51c5.058,10.34,10.269,20.6,15.479,30.86l8.231,16.04l8.309,16.01l4.15,7.999
		l4.2,7.98l8.41,15.951c5.58,10.559,11.21,21.09,16.851,31.61c0.93,1.329,1.69,2.779,2.21,4.34c0.299,0.85,0.519,1.74,0.669,2.64
		c0.03,0.24,0.071,0.42,0.099,0.71l0.07,0.69l0.031,0.23v0.06l0.009,0.169l0.01,0.111l0.039,0.459
		c0.061,0.62,0.121,1.229,0.191,1.85l0.06,0.459l0.02,0.23c0.01,0.07,0.019,0.221,0.019,0.331c0.031,0.469,0.05,0.939,0.041,1.41
		c-0.05,1.9-0.44,3.83-1.17,5.65c-1.43,3.65-4.321,6.811-8.04,8.559c-1.861,0.87-3.871,1.39-5.96,1.511l-0.67,0.03l-0.55,0.009
		l-0.92,0.021l-1.85,0.03l-29.55,0.571c-19.701,0.37-39.4,0.779-59.099,1.08c-19.701,0.329-39.4,0.5-59.101,0.599l-29.559,0.011
		l-3.69-0.02c-2.31,0-4.661-0.42-6.85-1.24c-4.401-1.64-8.11-4.85-10.361-8.94c-1.129-2.03-1.89-4.291-2.229-6.591
		c-0.091-0.58-0.15-1.149-0.18-1.729l-0.029-0.48L0,246.09v-0.571l0.011-1.85l0.01-0.93l0.009-0.71c0-0.29,0.03-0.58,0.04-0.87
		c0.091-1.16,0.29-2.33,0.58-3.47c0.541-2.061,1.43-4.04,2.611-5.8l-0.25,0.469l0.64-1.03c-0.13,0.18-0.26,0.37-0.389,0.561
		l8.399-15.411l8.75-15.839c5.87-10.541,11.771-21.061,17.771-31.53s12.06-20.909,18.229-31.29
		c6.021-10.12,12.102-20.23,18.42-30.211l-0.028,1.24l0.489-1.969c-0.15,0.24-0.311,0.489-0.461,0.729l2.03-83.819l0.26-0.02
		l2.071-0.15l-2.271-2.27l-0.06,2.441l-0.77,0.039l-0.509,0.03c-0.171,0.011-0.331,0.02-0.58,0.03
		c-1.841,0.031-3.73-0.469-5.34-1.46c-1.601-0.98-2.951-2.421-3.8-4.14c-0.43-0.859-0.74-1.78-0.92-2.73
		c-0.039-0.249-0.08-0.459-0.11-0.74L64.8,14.4l-0.02-0.26l-0.041-1.11L64.709,12c-0.009-0.29-0.028-0.83,0.011-1.309
		c0.069-0.98,0.27-1.96,0.62-2.891c0.68-1.88,1.95-3.529,3.54-4.71c1.58-1.19,3.451-1.9,5.31-2.16
		c1.021-0.149,1.85-0.119,2.491-0.14l2.059-0.03l32.97-0.459l33.021-0.26L148.86,0c1.179,0,2.371,0.21,3.44,0.591
		c1.069,0.379,2.05,0.919,2.92,1.569c1.729,1.3,3.05,3.031,3.87,5.011c0.4,0.989,0.68,2.029,0.801,3.099
		c0.04,0.24,0.059,0.63,0.08,0.9l0.009,0.619v1.03l0.01,1.03l-0.01,0.37c0,0.13,0,0.26-0.02,0.401c-0.011,0.27-0.03,0.54-0.069,0.8
		c-0.13,1.08-0.42,2.14-0.851,3.129c-0.85,2-2.27,3.73-4.04,4.97c-0.889,0.621-1.859,1.13-2.89,1.48
		c-0.509,0.18-1.04,0.31-1.571,0.42c-0.509,0.091-0.979,0.16-1.599,0.19l-0.089-4.26l-4.28,4.291h2.07h1.03h0.51l0.371-0.011
		l0.269-0.01l0.121-0.011l1.781,81.721c-0.241-0.461-0.461-0.93-0.691-1.391L150.75,108.84 M148.331,17.06h0.24
		c0.01-0.01,0.201-0.021,0.34-0.05s0.279-0.071,0.409-0.119c0.27-0.091,0.541-0.221,0.781-0.39c0.479-0.331,0.879-0.801,1.11-1.331
		c0.11-0.27,0.199-0.549,0.23-0.839l0.03-0.221l0.01-0.26v-1.03v-1.03V11.64v-0.26l-0.021-0.13c-0.03-0.3-0.099-0.6-0.21-0.88
		c-0.229-0.571-0.64-1.11-1.099-1.46c-0.471-0.36-0.93-0.511-1.291-0.52l-4.129-0.03l-16.492-0.141l-8.25-0.06l-2.069-0.02
		l-1.03-0.019l-0.589-0.011L115.78,8.1c-1.33-0.041-2.67-0.071-4.009-0.071l-2.01,0.011l-2.151-0.02l-4.12-0.05l-8.251-0.11
		l-16.5-0.23L76.681,7.6l-0.95-0.01h-0.26L75.35,7.6c-0.07,0-0.19,0.021-0.299,0.021C74.19,7.71,73.4,7.98,72.76,8.42
		c-0.649,0.43-1.14,1.03-1.46,1.72c-0.16,0.34-0.26,0.71-0.32,1.11c-0.03,0.201-0.041,0.34-0.05,0.75l-0.03,1.03l-0.03,0.95v0.351
		c-0.011,0.06,0.01,0.19,0.01,0.29c0.039,0.4,0.14,0.809,0.29,1.19c0.31,0.77,0.82,1.49,1.521,2.02c0.688,0.53,1.52,0.88,2.439,0.98
		l4.061,0.27l2.219-0.05l0.05,2.32l1.74,87.5l0.02,0.961l-0.511,1.01c-4.829,11.09-9.909,22.049-15.049,32.979
		c-5.149,10.92-10.399,21.78-15.72,32.62c-5.31,10.83-10.709,21.62-16.161,32.379l-8.219,16.122l-7.879,15.229l-0.052,0.089
		l-1.029,1.781c-0.061,0.109-0.089,0.189-0.111,0.29l-0.019,0.179l0.009,1.181l0.01,1.85v0.331v0.01v0.02l0.021,0.08
		c0.028,0.13,0.069,0.25,0.149,0.361c0.13,0.229,0.391,0.418,0.62,0.489c0.111,0.041,0.221,0.05,0.381,0.05l3.69-0.021l29.559,0.011
		c19.701,0.09,39.4,0.26,59.101,0.599c19.699,0.301,39.398,0.71,59.099,1.081l29.55,0.57l3.4,0.069c0.37,0.009,0.8-0.02,1.21-0.11
		c0.818-0.169,1.75-0.589,2.49-1.359c0.379-0.381,0.68-0.86,0.9-1.411c0.049-0.13,0.1-0.281,0.14-0.42
		c0.011-0.048,0.02-0.048,0.03-0.139l0.03-0.23l0.05-0.459c0.071-0.621,0.13-1.23,0.191-1.85l0.119-1.25
		c0-0.32-0.03-0.65-0.091-0.979c-0.14-0.64-0.409-1.291-0.818-1.851l-0.21-0.301l-0.16-0.29
		c-5.591-10.639-11.202-21.279-16.861-31.879l-8.509-15.9l-4.26-7.95l-4.291-7.919l-8.61-15.85l-8.68-15.801
		c-5.84-10.51-11.67-21.03-17.661-31.46l-0.669-1.169l-0.05-1.729v-0.011l1.93-87.5l0.101-4.38l4.19,0.1h2.07h1.03h0.51h0.07
		l0.021-0.009H148.331"/>
	<path fill="#231F20" d="M148.271,17.06l-0.021,0.01L148.271,17.06z"/>
	<polygon fill="#231F20" points="148.181,25.64 147.67,25.64 146.641,25.64 144.57,25.64 148.851,21.35 148.94,25.61 148.82,25.62 
		148.551,25.63 	"/>
	<polygon fill="#231F20" points="79.19,23.62 77.12,23.77 76.86,23.79 76.92,21.35 	"/>
	<path fill="#231F20" d="M75.29,106.88l-0.489,1.97l0.029-1.24C74.98,107.37,75.141,107.12,75.29,106.88z"/>
	<path fill="#231F20" d="M3.65,231.33l-0.64,1.03l0.25-0.47C3.391,231.7,3.521,231.51,3.65,231.33z"/>
	<ellipse fill="#C18E1E" cx="110.807" cy="72.11" rx="28.165" ry="5.529"/>
	<path fill="#E0B241" d="M86.777,145.184c-3.676,0-6.653,2.979-6.653,6.653c0,3.674,2.978,6.652,6.653,6.652
		c3.674,0,6.652-2.978,6.652-6.652C93.429,148.163,90.451,145.184,86.777,145.184"/>
	<path fill="#E0B241" d="M66.656,221.268c-3.677,0-6.653,2.978-6.653,6.652c0,3.674,2.977,6.652,6.653,6.652
		c3.673,0,6.652-2.978,6.652-6.652C73.308,224.246,70.329,221.268,66.656,221.268"/>
	<path fill="#E0B241" d="M77.734,211.213c-2.355,0-4.264,1.91-4.264,4.264c0,2.354,1.908,4.263,4.264,4.263
		c2.354,0,4.263-1.908,4.263-4.263C81.997,213.123,80.088,211.213,77.734,211.213"/>
	<path fill="#E0B241" d="M140.916,179.633c-3.675,0-6.653,2.978-6.653,6.652c0,3.674,2.978,6.651,6.653,6.651
		c3.674,0,6.653-2.978,6.653-6.651C147.569,182.61,144.59,179.633,140.916,179.633"/>
	<path fill="#E0B241" d="M113.549,131.338c-2.704,0-4.894,2.19-4.894,4.893c0,2.703,2.19,4.893,4.894,4.893
		c2.703,0,4.894-2.19,4.894-4.893C118.443,133.528,116.252,131.338,113.549,131.338"/>
	<path fill="#E1B74D" d="M92.202,120.104c-4.813,7.804-9.361,15.749-13.815,23.742c-4.452,7.995-8.816,16.036-13.066,24.137
		l-6.313,12.186c-2.056,4.084-4.158,8.147-6.164,12.263c-4.062,8.2-8.03,16.447-11.737,24.836
		c4.812-7.806,9.358-15.752,13.811-23.747c2.254-3.983,4.409-8.017,6.611-12.028l6.459-12.105
		c4.266-8.094,8.417-16.247,12.482-24.447C84.532,136.742,88.5,128.492,92.202,120.104"/>
</g>
</svg>
