<?xml version="1.0" encoding="utf-8"?>
<!-- Generator: Adobe Illustrator 15.0.0, SVG Export Plug-In . SVG Version: 6.00 Build 0)  -->
<!DOCTYPE svg PUBLIC "-//W3C//DTD SVG 1.1//EN" "http://www.w3.org/Graphics/SVG/1.1/DTD/svg11.dtd">
<svg version="1.1" id="Layer_1" xmlns="http://www.w3.org/2000/svg" xmlns:xlink="http://www.w3.org/1999/xlink" x="0px" y="0px"
	 width="171.95px" height="207.455px" viewBox="0 0 171.95 207.455" enable-background="new 0 0 171.95 207.455"
	 xml:space="preserve">
<g>
	<path fill="#FFFFFF" d="M161.019,187.601c0.23,0.37,0.37,0.759,0.431,1.15c0.019,0.189,0.03,0.379,0.009,0.56l-0.019,0.11
		l-0.011,0.02v0.021l-0.009,0.089l-0.01,0.181l-0.01-0.02v0.089l-0.041,0.36l-0.14,1.44l-0.029,0.36l-0.02,0.18l-0.02,0.08
		l-0.091,0.24c-0.139,0.3-0.319,0.55-0.529,0.751c-0.431,0.399-0.94,0.609-1.38,0.679c-0.209,0.041-0.44,0.061-0.62,0.049
		l-2.611-0.039l-23.03-0.28c-15.36-0.22-30.71-0.291-46.069-0.431c-15.351-0.061-30.71-0.1-46.07-0.019l-23.031,0.08l-2.879,0.01
		c-0.149,0.01-0.26,0-0.39-0.04c-0.24-0.06-0.52-0.21-0.709-0.441c-0.09-0.119-0.161-0.249-0.23-0.389l-0.04-0.12
		c-0.01,0.009-0.029,0.019-0.041-0.3l-0.06-1.439l-0.03-0.721l-0.01-0.09v-0.04v-0.01l-0.01-0.041l-0.01-0.069l-0.039-0.26v-0.11
		l0.52-1.14c1.959-4.28,3.91-8.56,5.91-12.82c2-4.26,4.06-8.49,6.09-12.729l12.231-25.44l24.46-50.87h0.009l0.16-0.291l0.021-0.449
		l2.469-68.2l-0.25-4.121l-3.65,0.219l-1.611,0.091l-1.509,0.079c-0.39,0.041-0.79-0.03-1.15-0.23c-0.35-0.191-0.681-0.5-0.871-0.87
		c-0.1-0.19-0.169-0.38-0.22-0.591l-0.03-0.139l-0.009-0.02l-0.01-0.191v-0.01v-0.03v-0.019v-0.04v-0.01l-0.01-0.199v-0.41
		l-0.01-0.801l-0.01-0.329l0.01-0.171c0.01-0.219,0.05-0.42,0.12-0.62c0.14-0.39,0.4-0.74,0.78-1.01c0.36-0.27,0.84-0.47,1.4-0.541
		c0.199-0.03,0.589-0.03,1.17-0.02l1.609,0.01l12.859,0.081l6.43,0.039L83.4,7.42l1.679,0.01l1.559-0.01l25.691,0.301l3.21,0.039
		c0.13,0.01,0.36,0.081,0.63,0.301c0.259,0.22,0.49,0.55,0.6,0.89c0.061,0.17,0.1,0.34,0.108,0.51v0.02v0.02V9.67v0.02V9.7v0.051
		v0.02V9.8L116.86,10.6l-0.011,0.8c0,0.09-0.01,0.07-0.01,0.1v0.059l-0.019,0.121c-0.03,0.159-0.081,0.309-0.15,0.449
		c-0.14,0.28-0.37,0.52-0.63,0.68c-0.13,0.08-0.271,0.14-0.412,0.169l-0.208,0.041l-0.121,0.01h-0.019l-3.081-0.061l-4.419,0.13
		l0.13,4.151l2.13,68.2l-0.01,0.51l0.26,0.5c4.31,8.32,8.51,16.69,12.781,25.04l12.609,25.129c4.22,8.361,8.36,16.771,12.53,25.16
		l12.41,25.151L161.019,187.601"/>
	<path fill="#F94D00" d="M161.02,187.6l-0.4-0.66l-12.41-25.15c-2.671-5.375-5.337-10.752-8.013-16.125
		c-0.426,0.009-0.851,0.029-1.277,0.026c-16.002-0.09-32.047-1.463-48.04-2.049c-10.715-0.393-21.414-1.912-32.128-1.595
		c-1.859,0.499-3.69,1.105-5.505,1.853c-6.399,1.72-12.8,2.181-19.199,1.423l-8.258,17.178c-2.03,4.24-4.09,8.47-6.09,12.729
		c-2,4.261-3.95,8.54-5.91,12.82l-0.52,1.14v0.11l0.039,0.26l0.011,0.069l0.01,0.041v0.05l0.01,0.09l0.03,0.721l0.06,1.439
		c0.011,0.32,0.03,0.31,0.04,0.3l0.04,0.12c0.07,0.141,0.141,0.27,0.23,0.39c0.189,0.23,0.47,0.38,0.71,0.44
		c0.13,0.04,0.24,0.05,0.39,0.04l2.88-0.01l23.03-0.08c15.36-0.081,30.72-0.041,46.07,0.02c15.359,0.14,30.71,0.21,46.069,0.43
		l23.03,0.28l2.61,0.04c0.18,0.01,0.41-0.01,0.62-0.05c0.439-0.07,0.949-0.28,1.38-0.68c0.21-0.2,0.39-0.45,0.529-0.75l0.091-0.24
		l0.02-0.08l0.021-0.18l0.029-0.36l0.141-1.44l0.04-0.36v-0.09l0.01,0.02l0.01-0.18l0.01-0.09v-0.021l0.011-0.02l0.02-0.11
		c0.021-0.181,0.01-0.37-0.01-0.56C161.389,188.36,161.249,187.97,161.02,187.6z"/>
	<path fill="#231F20" d="M116.479,17.25l-0.131,4.13c-0.239,0.03-0.5,0.05-0.81,0.07l-3.34,0.08L116.479,17.25z"/>
	<path fill="#231F20" d="M114.079,84.44c0.09,0.16,0.18,0.33,0.27,0.49l-0.02,0.51L114.079,84.44z"/>
	<path fill="#231F20" d="M61.239,21.15l-1.611-0.09l-1.699-0.09c-0.159-0.01-0.319-0.02-0.47-0.04l-0.12-3.68L61.239,21.15z"/>
	<polygon fill="#231F20" points="59.699,84.711 59.52,85.45 59.509,85.04 	"/>
	<path fill="#231F20" d="M13.109,189.551l0.239-0.78c-0.04,0.15-0.069,0.29-0.079,0.42L13.109,189.551z"/>
	<path fill="#231F20" d="M171.939,193.61c-0.062,1.61-0.42,3.24-1.07,4.75c-1.28,3.04-3.73,5.631-6.84,7.05
		c-1.561,0.7-3.23,1.121-4.971,1.21l-0.539,0.02l-0.44,0.01l-0.72,0.01l-1.44,0.02l-23.03,0.28c-15.359,0.22-30.71,0.29-46.069,0.43
		c-15.351,0.06-30.71,0.101-46.07,0.02l-23.03-0.08l-2.88-0.02c-1.77,0-3.569-0.33-5.25-0.96c-1.67-0.64-3.229-1.57-4.56-2.75
		c-1.33-1.17-2.45-2.58-3.29-4.15c-0.84-1.56-1.4-3.28-1.62-5.03c-0.05-0.43-0.09-0.87-0.1-1.311c-0.03-0.49-0.021-0.98,0-1.14
		l0.06-1.439l0.03-0.721l0.019-0.54c0.011-0.22,0.041-0.44,0.062-0.65c0.08-0.87,0.25-1.73,0.5-2.58c0.47-1.67,1.27-3.24,2.3-4.6
		c-0.13,0.22-0.271,0.44-0.4,0.66l0.44-0.71c2.3-3.78,4.609-7.56,6.87-11.37c2.409-4.04,4.76-8.11,7.14-12.17l14.22-24.38
		l28.25-48.43l0.011,0.41l0.18-0.74l-0.19,0.33l-2.05-64.11c0.15,0.02,0.311,0.03,0.47,0.04l1.699,0.09l1.611,0.09l-3.9-3.9
		l0.12,3.68c-1.59-0.15-3.14-0.73-4.439-1.62c-1.44-0.98-2.57-2.36-3.28-3.93c-0.351-0.78-0.59-1.62-0.72-2.47
		c-0.03-0.22-0.051-0.4-0.07-0.66l-0.021-0.38v-0.21l0.011-0.49v-0.41l0.01-0.8l0.01-0.47c0-0.21,0.021-0.42,0.04-0.63
		c0.08-0.85,0.28-1.7,0.61-2.5c0.64-1.61,1.75-3.01,3.109-4c1.37-1,2.96-1.57,4.53-1.77c0.86-0.11,1.54-0.09,2.03-0.1l1.609-0.01
		l12.86-0.08l6.43-0.04l3.221-0.02l1.529-0.01l1.65-0.04c1.08-0.02,2.26-0.02,3.31,0h0.739h0.801l1.61-0.02l6.43-0.08l12.86-0.15
		l3.21-0.04c2.03-0.02,3.9,0.72,5.339,1.78c1.461,1.08,2.571,2.51,3.271,4.16c0.34,0.82,0.58,1.7,0.689,2.59
		c0.03,0.2,0.061,0.54,0.07,0.76l0.01,0.51l0.021,0.8l0.01,0.8v0.31c0,0.11,0,0.22-0.01,0.34c-0.011,0.22-0.03,0.45-0.062,0.68
		c-0.099,0.9-0.339,1.8-0.688,2.64c-0.71,1.7-1.9,3.17-3.4,4.24c-0.74,0.53-1.57,0.96-2.44,1.28c-0.43,0.15-0.88,0.27-1.329,0.37
		c-0.221,0.05-0.44,0.09-0.671,0.12l0.131-4.13l-4.28,4.28l3.34-0.08c0.31-0.02,0.57-0.04,0.81-0.07l-2,63.55
		c-0.09-0.16-0.18-0.33-0.27-0.49l0.25,1l0.02-0.51c4.391,8.07,8.881,16.08,13.32,24.12l13.75,24.53
		c4.57,8.18,9.22,16.32,13.83,24.48l13.73,24.09c0.829,1.13,1.5,2.381,1.97,3.73c0.25,0.729,0.439,1.479,0.56,2.249
		c0.03,0.201,0.07,0.361,0.09,0.611l0.061,0.59l0.02,0.18v0.05l0.011,0.15v0.02v0.07l0.04,0.36l0.14,1.44l0.03,0.36l0.02,0.18
		c0.01,0.05,0.01,0.18,0.021,0.27C171.949,192.81,171.959,193.211,171.939,193.61z M161.399,189.801v-0.09l0.01,0.02l0.01-0.18
		l0.01-0.09v-0.021l0.011-0.02l0.02-0.11c0.021-0.181,0.01-0.37-0.01-0.56c-0.061-0.391-0.2-0.78-0.43-1.15l-0.4-0.66l-12.41-25.15
		c-4.17-8.39-8.31-16.799-12.53-25.161l-12.609-25.129c-4.271-8.351-8.471-16.721-12.78-25.04l-0.26-0.5l0.01-0.51l-2.13-68.2
		l-0.13-4.15l4.42-0.13l3.08,0.06h0.02l0.12-0.01l0.209-0.04c0.142-0.03,0.281-0.09,0.411-0.17c0.26-0.16,0.49-0.4,0.63-0.68
		c0.07-0.14,0.12-0.29,0.15-0.45l0.02-0.12V11.5c0-0.03,0.01-0.01,0.01-0.1l0.011-0.8l0.019-0.8v-0.03V9.75V9.7V9.69V9.67V9.5V9.48
		V9.46c-0.009-0.17-0.049-0.34-0.108-0.51c-0.11-0.34-0.341-0.67-0.601-0.89c-0.27-0.22-0.5-0.29-0.63-0.3l-3.21-0.04l-25.69-0.3
		l-1.56,0.01l-1.68-0.01L80.179,7.4l-6.43-0.04l-12.86-0.08l-1.609-0.01c-0.58-0.01-0.971-0.01-1.17,0.02
		c-0.561,0.07-1.04,0.27-1.4,0.54c-0.38,0.27-0.64,0.62-0.78,1.01c-0.069,0.2-0.109,0.4-0.12,0.62l-0.01,0.17l0.01,0.33l0.011,0.8
		v0.41l0.01,0.2v0.01v0.04v0.02v0.03v0.01l0.01,0.19l0.01,0.02l0.029,0.14c0.051,0.21,0.121,0.4,0.221,0.59
		c0.19,0.37,0.521,0.68,0.87,0.87c0.36,0.2,0.761,0.27,1.15,0.23l1.509-0.08l1.611-0.09l3.649-0.22l0.25,4.12l-2.47,68.2l-0.02,0.45
		l-0.16,0.29h-0.01l-24.46,50.87l-12.23,25.44c-2.03,4.24-4.09,8.47-6.09,12.729c-2,4.261-3.95,8.54-5.91,12.82l-0.52,1.14
		c0.01-0.13,0.039-0.27,0.079-0.42l-0.239,0.78l0.16-0.36v0.11l0.039,0.26l0.011,0.069l0.01,0.041v0.01v0.04l0.01,0.09l0.03,0.721
		l0.06,1.439c0.011,0.32,0.03,0.31,0.04,0.3l0.04,0.12c0.07,0.141,0.141,0.27,0.23,0.39c0.189,0.23,0.47,0.38,0.71,0.44
		c0.13,0.04,0.24,0.05,0.39,0.04l2.88-0.01l23.03-0.08c15.36-0.081,30.72-0.041,46.07,0.02c15.359,0.14,30.71,0.21,46.069,0.43
		l23.03,0.28l2.61,0.04c0.18,0.01,0.41-0.01,0.62-0.05c0.439-0.07,0.949-0.28,1.38-0.68c0.21-0.2,0.39-0.45,0.529-0.75l0.091-0.24
		l0.02-0.08l0.021-0.18l0.029-0.36l0.141-1.44L161.399,189.801z"/>
	<path fill="#231F20" d="M3.029,181.39l-0.44,0.71c0.13-0.22,0.271-0.44,0.4-0.66L3.029,181.39z"/>
	<ellipse fill="#DD4407" cx="87.053" cy="146.891" rx="53.76" ry="5.528"/>
	<path fill="#F94D00" d="M106.643,143.601c0-15.771-12.785-28.55-28.553-28.55c-15.769,0-28.555,12.78-28.555,28.55
		C69.5,150.794,95.965,147.991,106.643,143.601"/>
	<path fill="#F94D00" d="M125.035,147.008c0-3.575-2.898-6.473-6.474-6.473s-6.475,2.897-6.475,6.473
		C116.614,148.638,122.614,148.003,125.035,147.008z"/>
	<path fill="#FCA680" d="M75.537,119.595c-1.892,0-3.796,0.347-5.623,0.995c-2.609,0.93-5.043,2.52-6.965,4.579
		c-1.936,2.052-3.354,4.542-4.191,7.156c-0.811,2.613-1.149,5.386-0.588,8.051c1.079-2.457,2.194-4.693,3.444-6.787
		c1.245-2.088,2.636-3.997,4.235-5.692c1.601-1.695,3.399-3.183,5.428-4.484c2.022-1.322,4.266-2.415,6.686-3.621
		C77.161,119.66,76.35,119.595,75.537,119.595"/>
</g>
</svg>
