<?xml version="1.0" encoding="utf-8"?>
<!-- Generator: Adobe Illustrator 15.0.0, SVG Export Plug-In . SVG Version: 6.00 Build 0)  -->
<!DOCTYPE svg PUBLIC "-//W3C//DTD SVG 1.1//EN" "http://www.w3.org/Graphics/SVG/1.1/DTD/svg11.dtd">
<svg version="1.1" id="Layer_1" xmlns="http://www.w3.org/2000/svg" xmlns:xlink="http://www.w3.org/1999/xlink" x="0px" y="0px"
	 width="1280px" height="800px" viewBox="0 0 1280 800" enable-background="new 0 0 1280 800" xml:space="preserve">
<g>
	<rect x="-2.746" y="-3.654" fill="#FFFFFF" width="1280.002" height="800"/>
	<g>
		<path fill="#FFFFFF" d="M411.047,609.365h-32.08l-28.711-78.369h-7.031v-24.389h52.808v24.389h-7.617l12.012,43.873l15.234-43.873
			h-7.544v-24.389h44.385v24.389h-7.544l15.454,43.873l12.158-43.873h-7.324v-24.389h41.089v24.389h-7.031L470.3,609.365h-31.641
			l-13.77-39.258L411.047,609.365z"/>
		<path fill="#FFFFFF" d="M567.932,608.486h-53.613v-24.389h7.69v-53.102h-7.837v-24.389h53.76v24.389h-6.519v15.527h23.584v-15.527
			h-6.592v-24.389h53.687v24.389h-7.69v53.102h7.69v24.389h-53.687v-24.389h6.592v-16.699h-23.584v16.699h6.519V608.486z"/>
		<path fill="#FFFFFF" d="M702.185,608.486h-58.081v-24.389h9.375v-53.102h-9.375v-24.389h58.081v24.389h-9.302v53.102h9.302
			V608.486z"/>
		<path fill="#FFFFFF" d="M792.492,608.486H735.29v-24.389h8.789v-53.102H732.36v18.531h-19.116v-42.92h101.001v42.92h-19.116
			v-18.531h-11.646v53.102h9.009V608.486z"/>
		<path fill="#FFFFFF" d="M924.035,608.486h-97.192v-24.389h7.91v-53.102h-8.057v-24.389h97.339v32.592h-26.733v-8.203h-23.145
			v15.674h20.142v20.729h-20.142v16.699h23.145v-8.203h26.733V608.486z"/>
	</g>
	<g>
		<path fill="none" stroke="#231F20" stroke-width="3" stroke-miterlimit="10" d="M411.047,609.365h-32.08l-28.711-78.369h-7.031
			v-24.389h52.808v24.389h-7.617l12.012,43.873l15.234-43.873h-7.544v-24.389h44.385v24.389h-7.544l15.454,43.873l12.158-43.873
			h-7.324v-24.389h41.089v24.389h-7.031L470.3,609.365h-31.641l-13.77-39.258L411.047,609.365z"/>
		<path fill="none" stroke="#231F20" stroke-width="3" stroke-miterlimit="10" d="M567.932,608.486h-53.613v-24.389h7.69v-53.102
			h-7.837v-24.389h53.76v24.389h-6.519v15.527h23.584v-15.527h-6.592v-24.389h53.687v24.389h-7.69v53.102h7.69v24.389h-53.687
			v-24.389h6.592v-16.699h-23.584v16.699h6.519V608.486z"/>
		<path fill="none" stroke="#231F20" stroke-width="3" stroke-miterlimit="10" d="M702.185,608.486h-58.081v-24.389h9.375v-53.102
			h-9.375v-24.389h58.081v24.389h-9.302v53.102h9.302V608.486z"/>
		<path fill="none" stroke="#231F20" stroke-width="3" stroke-miterlimit="10" d="M792.492,608.486H735.29v-24.389h8.789v-53.102
			H732.36v18.531h-19.116v-42.92h101.001v42.92h-19.116v-18.531h-11.646v53.102h9.009V608.486z"/>
		<path fill="none" stroke="#231F20" stroke-width="3" stroke-miterlimit="10" d="M924.035,608.486h-97.192v-24.389h7.91v-53.102
			h-8.057v-24.389h97.339v32.592h-26.733v-8.203h-23.145v15.674h20.142v20.729h-20.142v16.699h23.145v-8.203h26.733V608.486z"/>
	</g>
	<polygon fill="#231F20" points="697.36,326.521 715.221,392.049 702.803,392.049 693.407,327.35 	"/>
	<polygon fill="#231F20" points="579.387,327.35 568.274,392.049 559.289,392.049 575.434,326.521 	"/>
	<path fill="#F5F5F5" d="M698.349,285.49c0.266,6.865-0.615,13.838-2.716,20.477c-0.516,1.652-1.124,3.291-1.782,4.9
		c-0.669,1.615-1.396,3.201-2.208,4.748c-0.812,1.547-1.678,3.057-2.617,4.553c-0.933,1.471-1.95,2.904-3.005,4.293
		c-4.248,5.584-9.49,10.385-15.377,14.18c-2.943,1.91-6.054,3.549-9.278,4.922c-3.217,1.373-6.548,2.48-9.952,3.285
		c-6.798,1.631-13.861,2.094-20.779,1.381c-6.92-0.705-13.693-2.594-19.929-5.545c-3.119-1.473-6.114-3.201-8.938-5.16
		c-2.837-1.957-5.492-4.133-7.949-6.516c-4.924-4.748-8.998-10.316-12.086-16.348c-1.54-3.02-2.829-6.152-3.869-9.369
		c-1.023-3.217-1.797-6.51-2.306-9.84c-0.5-3.33-0.736-6.691-0.714-10.053c0.031-3.352,0.35-6.697,0.904-9.998
		c0.568-3.307,1.41-6.555,2.495-9.711c1.084-3.162,2.436-6.234,4.028-9.178c0.395-0.736,0.796-1.465,1.221-2.186
		c0.433-0.729,0.858-1.441,1.298-2.131l0.684-1.078l0.697-1.047c0.471-0.697,0.956-1.381,1.44-2.064
		c1.965-2.715,4.128-5.301,6.441-7.768c2.321-2.457,4.825-4.771,7.472-6.965c1.328-1.1,2.701-2.154,4.098-3.193
		c1.411-1.031,2.852-2.033,4.317-3.049h0.007l1.676-0.797l-0.576-1.67c-0.219-0.645-0.439-1.289-0.659-1.934
		c-1.646-4.848-3.233-9.719-4.81-14.588l-2.648-8.293l-2.61-8.307c-0.871-2.768-1.707-5.545-2.563-8.322
		c-0.85-2.775-1.714-5.545-2.55-8.322l-2.503-8.336l-1.252-4.172l-1.009-3.453c0.075-0.053,0.16-0.113,0.251-0.166
		c0.629-0.402,1.464-0.789,2.314-1.131c1.722-0.697,3.596-1.268,5.483-1.76c3.793-0.963,7.708-1.654,11.639-2.139
		c1.956-0.244,3.93-0.447,5.887-0.592c1.957-0.152,3.905-0.229,5.826-0.266c1.911-0.016,3.822,0.008,5.546,0.189
		c0.234,0.021,0.477,0.053,0.705,0.082c0.076,4.947,0.25,9.9,0.44,14.84c0.25,5.75,0.522,11.492,0.909,17.236
		c0.372,5.742,0.819,11.484,1.366,17.229c0.501,5.15,1.039,10.301,1.775,15.453c0.075,0.584,0.158,1.16,0.25,1.744v0.008
		l-0.25,1.531l2.306,0.426c1.602,0.295,3.178,0.584,4.733,0.902c1.563,0.326,3.103,0.676,4.628,1.062
		c3.041,0.773,6.008,1.684,8.898,2.762c2.891,1.076,5.705,2.299,8.428,3.678c1.366,0.691,2.709,1.42,4.021,2.193
		c0.659,0.379,1.312,0.773,1.957,1.176l0.971,0.607l0.965,0.629c5.59,3.688,10.582,8.254,14.784,13.473
		c2.086,2.625,4.007,5.402,5.667,8.338c1.686,2.922,3.118,5.986,4.324,9.156C696.68,271.842,698.099,278.617,698.349,285.49z"/>
	<path fill="#231F20" d="M702.021,262.891c2.207,7.359,3.141,15.045,2.83,22.623c-0.305,7.586-1.883,15.059-4.537,22.076
		c-1.336,3.504-2.943,6.902-4.803,10.143c-0.917,1.615-1.918,3.209-2.959,4.74c-1.061,1.549-2.154,3.051-3.314,4.508
		c-4.658,5.811-10.195,10.924-16.432,14.996c-3.117,2.027-6.395,3.824-9.801,5.342c-3.407,1.51-6.935,2.738-10.546,3.701
		c-7.214,1.896-14.747,2.648-22.235,2.17c-7.487-0.469-14.922-2.176-21.916-5.053c-3.498-1.434-6.873-3.162-10.105-5.158
		c-3.216-1.986-6.297-4.248-9.164-6.752c-5.742-5.006-10.688-10.992-14.489-17.668c-0.956-1.662-1.835-3.375-2.647-5.113
		c-0.812-1.744-1.549-3.527-2.208-5.332c-1.327-3.619-2.358-7.344-3.057-11.145c-0.706-3.793-1.108-7.654-1.161-11.523
		c-0.054-3.877,0.197-7.754,0.797-11.592c0.599-3.832,1.502-7.617,2.738-11.305c1.237-3.678,2.791-7.252,4.619-10.68
		c0.455-0.857,0.934-1.701,1.428-2.535c0.493-0.826,1.016-1.646,1.562-2.48l0.379-0.561l0.426-0.623
		c0.281-0.395,0.562-0.789,0.843-1.184c0.576-0.773,1.168-1.547,1.775-2.299c2.441-3.012,5.165-5.795,8.131-8.254
		c5.471-4.543,11.744-8.102,18.428-10.104c0.205,0.652,0.402,1.312,0.599,1.973l1.101-2.459l2.087-0.713
		c0.22,0.645,0.44,1.289,0.659,1.934l0.576,1.67l-1.676,0.797h-0.007c-1.466,1.016-2.906,2.018-4.317,3.049
		c-1.396,1.039-2.77,2.094-4.098,3.193c-2.646,2.193-5.15,4.508-7.472,6.965c-2.313,2.467-4.477,5.053-6.441,7.768
		c-0.484,0.684-0.97,1.367-1.44,2.064l-0.697,1.047l-0.684,1.078c-0.439,0.689-0.865,1.402-1.298,2.131
		c-0.425,0.721-0.826,1.449-1.221,2.186c-1.593,2.943-2.944,6.016-4.028,9.178c-1.085,3.156-1.927,6.404-2.495,9.711
		c-0.555,3.301-0.873,6.646-0.904,9.998c-0.022,3.361,0.214,6.723,0.714,10.053c0.509,3.33,1.282,6.623,2.306,9.84
		c1.04,3.217,2.329,6.35,3.869,9.369c3.088,6.031,7.162,11.6,12.086,16.348c2.457,2.383,5.112,4.559,7.949,6.516
		c2.823,1.959,5.818,3.688,8.938,5.16c6.235,2.951,13.009,4.84,19.929,5.545c6.918,0.713,13.981,0.25,20.779-1.381
		c3.404-0.805,6.735-1.912,9.952-3.285c3.225-1.373,6.335-3.012,9.278-4.922c5.887-3.795,11.129-8.596,15.377-14.18
		c1.055-1.389,2.072-2.822,3.005-4.293c0.939-1.496,1.805-3.006,2.617-4.553c0.812-1.547,1.539-3.133,2.208-4.748
		c0.658-1.609,1.267-3.248,1.782-4.9c2.101-6.639,2.981-13.611,2.716-20.477c-0.25-6.873-1.669-13.648-4.082-19.99
		c-1.206-3.17-2.639-6.234-4.324-9.156c-1.66-2.936-3.581-5.713-5.667-8.338c-4.202-5.219-9.194-9.785-14.784-13.473l-0.965-0.629
		l-0.971-0.607c-0.645-0.402-1.298-0.797-1.957-1.176c-1.312-0.773-2.655-1.502-4.021-2.193c-2.723-1.379-5.537-2.602-8.428-3.678
		c-2.891-1.078-5.857-1.988-8.898-2.762c-1.525-0.387-3.064-0.736-4.628-1.062c-1.556-0.318-3.132-0.607-4.733-0.902l-2.306-0.426
		l0.25-1.531v-0.008c-0.092-0.584-0.175-1.16-0.25-1.744l2.237-0.326l2.057,1.957c0.068-0.781,0.136-1.564,0.204-2.344
		c0.948-0.137,1.911-0.244,2.874-0.312c1.731-0.137,3.468-0.158,5.213-0.113c3.482,0.105,6.964,0.568,10.393,1.342
		c3.429,0.775,6.799,1.883,10.037,3.285c1.624,0.699,3.217,1.48,4.764,2.322c0.782,0.416,1.549,0.865,2.307,1.312
		c0.38,0.234,0.752,0.463,1.131,0.697l1.092,0.713l0.016,0.008c6.447,4.303,12.205,9.695,16.803,15.939
		c2.322,3.102,4.333,6.426,6.069,9.869C699.494,255.623,700.928,259.211,702.021,262.891z"/>
	<path fill="#231F20" d="M637.629,150.994c-0.017,0.152-0.038,0.289-0.069,0.439l0.092-1.062l0.007,0.244
		C637.658,150.744,637.644,150.865,637.629,150.994z"/>
	<path fill="#231F20" d="M637.082,217.102c-0.068,0.779-0.136,1.562-0.204,2.344l-2.057-1.957
		C635.572,217.336,636.323,217.207,637.082,217.102z"/>
	<polygon fill="#231F20" points="628.183,151.139 628.19,151.168 628.183,151.16 	"/>
	<polygon fill="#231F20" points="628.19,151.168 628.19,151.184 628.183,151.16 	"/>
	<polygon fill="#231F20" points="628.183,151.139 628.183,151.16 628.176,151.123 	"/>
	<path fill="#231F20" d="M628.062,150.652v-0.6l0.068-0.34l-0.015,0.129c-0.015,0.113-0.022,0.211-0.022,0.348
		c-0.008,0.16,0,0.289,0.015,0.471c0.008,0.092,0.022,0.182,0.039,0.273l0.029,0.189l0.007,0.037l0.008,0.023
		c0.023,0.092,0.068,0.273,0.107,0.363c0.038,0.123,0.09,0.252,0.143,0.365c0.107,0.227,0.229,0.432,0.343,0.6
		c0.484,0.66,0.811,0.805,0.948,0.887l-0.152-0.045c-0.372-0.113-0.902-0.221-1.486-0.297
		C628.076,152.262,628.069,151.457,628.062,150.652z"/>
	<path fill="#231F20" d="M608.3,223.344l-1.101,2.459c-0.196-0.66-0.394-1.32-0.599-1.973
		C607.162,223.646,607.731,223.488,608.3,223.344z"/>
	<polygon fill="#231F20" points="590.154,157.965 590.169,158.02 590.161,158.012 	"/>
	<polygon fill="#231F20" points="590.169,158.027 590.161,158.012 590.169,158.02 	"/>
	<polygon fill="#231F20" points="590.146,157.951 590.154,157.965 590.146,157.957 	"/>
	<path fill="#231F20" d="M590.077,157.754l-0.037-0.084l-0.031-0.061l0.114,0.152l0.106,0.348l0.212,0.729
		c-0.196,0.137-0.341,0.258-0.379,0.289c-0.022,0.008,0.038-0.031,0.114-0.35c0.038-0.16,0.053-0.387,0.015-0.629l-0.008-0.047
		l-0.015-0.074v-0.008l-0.015-0.055l-0.009-0.014v-0.016l-0.008-0.016L590.077,157.754z"/>
	<polygon fill="#231F20" points="585.359,159.68 585.617,160.242 585.481,160.014 585.465,159.984 	"/>
	<path fill="#231F20" d="M629.829,153.445l0.023,0.008l-0.008-0.008H629.829z M637.651,150.371l-0.092,1.062
		c0.031-0.15,0.053-0.287,0.069-0.439c0.015-0.129,0.029-0.25,0.029-0.379c0.28,5.658,0.409,11.334,0.523,17
		c0.085,5.758,0.146,11.508,0.092,17.266c-0.046,5.752-0.152,11.51-0.364,17.275c-0.189,4.977-0.426,9.953-0.827,14.945
		c-0.759,0.105-1.51,0.234-2.261,0.387l-2.237,0.326c-0.736-5.152-1.274-10.303-1.775-15.453
		c-0.547-5.744-0.994-11.486-1.366-17.229c-0.387-5.744-0.659-11.486-0.909-17.236c-0.19-4.939-0.364-9.893-0.44-14.84
		c0.584,0.076,1.114,0.184,1.486,0.297l0.152,0.045c-0.138-0.082-0.464-0.227-0.948-0.887c-0.114-0.168-0.235-0.373-0.343-0.6
		c-0.053-0.113-0.104-0.242-0.143-0.365c-0.039-0.09-0.084-0.271-0.107-0.363v-0.016l-0.008-0.029l-0.007-0.016l-0.029-0.189
		c-0.017-0.092-0.031-0.182-0.039-0.273c-0.015-0.182-0.022-0.311-0.015-0.471c0-0.137,0.008-0.234,0.022-0.348l0.015-0.129
		l-0.068,0.34v0.6c0.008,0.805,0.015,1.609,0.031,2.404c-0.229-0.029-0.471-0.061-0.705-0.082c-1.724-0.182-3.635-0.205-5.546-0.189
		c-1.921,0.037-3.869,0.113-5.826,0.266c-1.957,0.145-3.931,0.348-5.887,0.592c-3.931,0.484-7.846,1.176-11.639,2.139
		c-1.888,0.492-3.762,1.062-5.483,1.76c-0.851,0.342-1.686,0.729-2.314,1.131c-0.091,0.053-0.176,0.113-0.251,0.166l-0.212-0.729
		l-0.106-0.348l-0.114-0.152l0.031,0.061l0.037,0.084l0.061,0.166l0.008,0.016v0.016v0.006l0.009,0.008l0.007,0.047l0.008,0.008
		l0.015,0.082l0.008,0.047c0.038,0.242,0.023,0.469-0.015,0.629c-0.076,0.318-0.137,0.357-0.114,0.35
		c0.038-0.031,0.183-0.152,0.379-0.289l1.009,3.453l1.252,4.172l2.503,8.336c0.836,2.777,1.7,5.547,2.55,8.322
		c0.856,2.777,1.692,5.555,2.563,8.322l2.61,8.307l2.648,8.293c1.576,4.869,3.163,9.74,4.81,14.588l-2.087,0.713
		c-0.568,0.145-1.138,0.303-1.699,0.486c-1.487-4.895-3.041-9.764-4.598-14.643l-2.677-8.283l-2.732-8.262
		c-0.902-2.762-1.843-5.508-2.761-8.254c-0.934-2.754-1.843-5.508-2.791-8.246l-2.83-8.238l-1.411-4.119l-1.319-3.771l0.136,0.229
		l-0.258-0.562l0.105,0.305l-0.052-0.115l-0.039-0.074l-0.046-0.092l-0.09-0.258l-0.062-0.182l-0.007-0.047v-0.006l-0.008-0.023
		l-0.038-0.16l-0.015-0.09c-0.085-0.494-0.046-0.98,0.053-1.389c0.197-0.812,0.538-1.297,0.827-1.684
		c0.599-0.752,1.138-1.17,1.661-1.562c1.048-0.76,2.04-1.299,3.034-1.814c1.987-0.994,3.968-1.797,5.963-2.533
		c3.982-1.48,8.025-2.648,12.107-3.656c2.056-0.51,4.112-0.957,6.198-1.336c2.086-0.387,4.188-0.721,6.342-0.941
		c1.069-0.113,2.161-0.203,3.263-0.258c1.106-0.053,2.237-0.082,3.414-0.045c1.191,0.053,2.39,0.129,3.854,0.447
		c0.372,0.084,0.766,0.189,1.199,0.334c0.439,0.152,0.924,0.342,1.51,0.676c0.295,0.166,0.613,0.371,0.97,0.668
		c0.349,0.287,0.744,0.674,1.131,1.213c0.189,0.273,0.372,0.584,0.53,0.934c0.076,0.174,0.152,0.355,0.213,0.545
		c0.068,0.184,0.159,0.578,0.159,0.586l0.007,0.006l0.039,0.205l0.015,0.092c0.022,0.121,0.038,0.242,0.046,0.371
		c0.022,0.244,0.029,0.434,0.022,0.652l-0.008,0.168L637.651,150.371z"/>
	<path fill="#231F20" d="M635.881,332.979c-17.484,0-33.933-0.713-46.315-2.006c-6.08-0.637-10.873-1.381-14.247-2.215
		c-3.458-0.855-6.659-2.006-6.659-4.613c0-2.623,2.979-4.113,10.991-5.504l0.69,3.98c-3.323,0.576-5.276,1.117-6.405,1.523
		c2.099,0.75,7.036,1.969,18.388,3.043c11.942,1.131,27.413,1.752,43.558,1.752c16.147,0,31.616-0.621,43.559-1.752
		c11.372-1.076,16.308-2.297,18.397-3.047c-1.195-0.43-3.326-1.01-7.084-1.633l0.661-3.984c8.521,1.412,11.689,2.936,11.689,5.621
		c0,2.607-3.2,3.758-6.659,4.613c-3.374,0.834-8.168,1.578-14.248,2.215C669.814,332.266,653.366,332.979,635.881,332.979z"/>
	<polygon fill="#231F20" points="637.901,330.959 642.37,405.512 629.394,405.512 633.862,330.959 	"/>
	<path fill="#231F20" d="M642.37,235.801c3.557,0.133,7.068,0.969,10.482,2.066c3.4,1.153,6.707,2.663,9.796,4.571
		c6.196,3.778,11.562,9.076,15.387,15.325c3.864,6.236,6.17,13.315,7.177,20.438c1.014,7.138,0.786,14.356-0.504,21.323
		c-0.371-7.072-1.033-14.037-2.566-20.758c-1.524-6.712-3.969-13.146-7.511-18.906c-3.539-5.757-8.197-10.803-13.714-14.84
		c-2.76-2.009-5.701-3.818-8.809-5.349C649.01,238.116,645.765,236.803,642.37,235.801z"/>
</g>
</svg>
