<?xml version="1.0" encoding="utf-8"?>
<!-- Generator: Adobe Illustrator 15.0.0, SVG Export Plug-In . SVG Version: 6.00 Build 0)  -->
<!DOCTYPE svg PUBLIC "-//W3C//DTD SVG 1.1//EN" "http://www.w3.org/Graphics/SVG/1.1/DTD/svg11.dtd">
<svg version="1.1" id="Layer_1" xmlns="http://www.w3.org/2000/svg" xmlns:xlink="http://www.w3.org/1999/xlink" x="0px" y="0px"
	 width="1280px" height="800px" viewBox="0 0 1280 800" enable-background="new 0 0 1280 800" xml:space="preserve">
<g>
	<polyline fill="#FFFFFF" points="1284.124,797.883 4.124,797.883 4.124,-2.117 1284.124,-2.117 1284.124,797.883 	"/>
	<g>
		<path fill="#B7B6A5" d="M167.312,608.74h-32.08l-28.711-78.369H99.49V505.98h52.808v24.391h-7.617l12.012,43.871l15.234-43.871
			h-7.544V505.98h44.385v24.391h-7.544l15.454,43.871l12.158-43.871h-7.324V505.98h41.089v24.391h-7.031l-29.004,78.369h-31.641
			l-13.77-39.258L167.312,608.74z"/>
		<path fill="#B7B6A5" d="M301.537,607.861h-40.356v-24.391h7.764l19.116-53.1h-8.203V505.98H353.1v24.391h-8.203l19.482,53.1h7.471
			v24.391h-53.174v-22.34h8.936l-3.882-12.816h-26.074l-4.468,12.816h8.35V607.861z M311.132,531.836l-9.595,28.197h18.237
			L311.132,531.836z"/>
		<path fill="#B7B6A5" d="M435.424,607.861h-55.371v-24.391h8.276v-53.1h-8.276V505.98h55.371c4.98,0,9.595,0.086,13.843,0.257
			c4.248,0.172,7.885,0.415,10.913,0.732c3.027,0.318,5.811,0.745,8.35,1.282c7.129,1.514,12.915,4.81,17.358,9.887
			c4.492,5.177,6.738,11.279,6.738,18.311c0,5.273-1.367,10.06-4.102,14.355c-2.735,4.248-6.324,7.374-10.767,9.375l14.062,23.291
			h7.324v24.391H462.45l-22.192-41.602h-12.524v17.211h7.69V607.861z M427.733,528.32v19.408h4.395c5.761,0,9.668-0.17,11.719-0.512
			c2.197-0.342,4.053-1.318,5.566-2.93c1.513-1.514,2.271-3.59,2.271-6.227s-0.758-4.735-2.271-6.299
			c-1.514-1.611-3.442-2.587-5.786-2.93c-2.246-0.341-6.348-0.512-12.305-0.512H427.733z"/>
		<path fill="#B7B6A5" d="M547.558,607.861H508.08v-24.391h7.837v-53.1h-8.057V505.98h61.45l15.015,39.332l15.381-39.332h61.084
			v24.391h-7.983v53.1h8.203v24.391h-53.174v-24.391h8.13v-56.908l-30.762,81.299H569.97l-30.469-80.566v56.176h8.057V607.861z"/>
		<path fill="#B7B6A5" d="M788.451,572.777h-10.4v-19.336h45.557c0,11.133-0.781,19.41-2.344,24.83
			c-1.514,5.225-4.688,10.522-9.521,15.893c-4.736,5.323-10.474,9.205-17.212,11.646c-6.738,2.44-13.965,3.662-21.68,3.662
			c-11.475,0-21.899-1.904-31.274-5.713c-9.424-3.711-16.699-9.863-21.826-18.457c-5.176-8.447-7.764-17.92-7.764-28.418
			c0-15.869,5.225-28.662,15.674-38.379c10.352-9.717,23.046-14.576,38.086-14.576c12.549,0,22.387,3.053,29.517,9.156v-7.105
			h24.536v35.596h-24.536c-2.149-4.395-4.944-7.714-8.386-9.961c-3.443-2.245-7.46-3.369-12.049-3.369
			c-6.445,0-11.182,2.101-14.209,6.299c-2.979,4.2-4.468,11.915-4.468,23.145c0,11.183,1.562,18.775,4.688,22.779
			c3.174,4.053,7.788,6.078,13.843,6.078C783.861,586.547,788.451,581.958,788.451,572.777z"/>
		<path fill="#B7B6A5" d="M893.261,607.861H837.89v-24.391h8.276v-53.1h-8.276V505.98h55.371c4.98,0,9.595,0.086,13.843,0.257
			c4.248,0.172,7.885,0.415,10.913,0.732c3.027,0.318,5.811,0.745,8.35,1.282c7.129,1.514,12.915,4.81,17.358,9.887
			c4.492,5.177,6.738,11.279,6.738,18.311c0,5.273-1.367,10.06-4.102,14.355c-2.735,4.248-6.324,7.374-10.767,9.375l14.062,23.291
			h7.324v24.391h-36.694l-22.192-41.602H885.57v17.211h7.69V607.861z M885.57,528.32v19.408h4.395c5.761,0,9.668-0.17,11.719-0.512
			c2.197-0.342,4.053-1.318,5.566-2.93c1.513-1.514,2.271-3.59,2.271-6.227s-0.758-4.735-2.271-6.299
			c-1.514-1.611-3.442-2.587-5.786-2.93c-2.246-0.341-6.348-0.512-12.305-0.512H885.57z"/>
		<path fill="#B7B6A5" d="M1063.402,607.861H966.21v-24.391h7.91v-53.1h-8.057V505.98h97.339v32.594h-26.733v-8.203h-23.145v15.674
			h20.142v20.727h-20.142v16.699h23.145v-8.203h26.733V607.861z"/>
		<path fill="#B7B6A5" d="M1154.662,607.861h-55.664v-24.391h8.203v-16.186l-25.708-36.914h-6.958V505.98h53.247v24.391h-6.079
			l10.84,20.801l13.11-20.801h-6.226V505.98h39.185v24.391h-6.372l-25.635,36.914v16.186h8.057V607.861z"/>
	</g>
	<path fill="#D6D6D7" d="M635.769,380.156c-30.512,0-55.244,2.547-55.244,5.689s24.732,5.689,55.244,5.689
		c30.513,0,55.247-2.547,55.247-5.689S666.281,380.156,635.769,380.156"/>
	<polygon fill="#231F20" points="697.248,320.318 715.109,385.846 702.69,385.846 693.295,321.146 	"/>
	<path fill="#F5F5F5" d="M692.896,273.029v0.167c0.022,3.209-0.364,6.403-0.971,9.505c-0.63,3.104-1.381,6.123-2.154,9.119
		c-0.388,1.502-0.805,2.997-1.29,4.477c-0.478,1.471-1.024,2.928-1.632,4.361c-1.206,2.86-2.655,5.629-4.323,8.262
		c-3.331,5.272-7.541,9.999-12.411,13.921c-4.862,3.922-10.394,7.032-16.288,9.164c-2.951,1.062-5.986,1.889-9.081,2.45
		c-0.773,0.145-1.547,0.273-2.328,0.387c-0.388,0.053-0.782,0.106-1.169,0.152l-0.562,0.068l-0.63,0.067
		c-1.539,0.159-3.132,0.259-4.703,0.289c-6.297,0.136-12.623-0.774-18.646-2.709c-6.016-1.935-11.736-4.878-16.826-8.671
		c-5.099-3.801-9.582-8.443-13.215-13.693c-3.627-5.257-6.381-11.121-8.104-17.304c-0.863-3.08-1.472-6.259-1.819-9.452
		c-0.343-3.209-0.433-6.434-0.251-9.65c0.341-6.44,1.761-12.836,4.195-18.844c2.436-6.016,5.887-11.638,10.158-16.568
		c4.271-4.932,9.354-9.188,15.027-12.502c5.66-3.315,11.904-5.683,18.382-6.987c12.487-2.557,25.847-1.062,37.575,4.385
		c0.447,0.205,0.896,0.417,1.335,0.638v0.008l1.114,0.735l0.956-1.366c0.539-0.758,1.048-1.524,1.563-2.291l1.524-2.306
		c1.017-1.54,2.003-3.095,2.997-4.65c1.965-3.11,3.876-6.251,5.773-9.407c1.889-3.156,3.739-6.334,5.567-9.52
		c1.563-2.732,3.103-5.471,4.628-8.225c0.493,0.182,1.047,0.425,1.594,0.69c1.539,0.751,3.133,1.692,4.695,2.671
		c1.57,0.986,3.133,2.033,4.674,3.117c1.539,1.086,3.063,2.2,4.566,3.376c2.988,2.313,5.901,4.795,8.573,7.458
		c1.318,1.343,2.594,2.738,3.687,4.188c0.537,0.729,1.055,1.472,1.402,2.185c0.145,0.28,0.258,0.576,0.318,0.774l-8.329,6.433
		c-2.875,2.185-5.728,4.385-8.618,6.539c-2.874,2.177-5.772,4.324-8.67,6.464c-2.48,1.82-4.971,3.641-7.48,5.424
		c-0.425,0.311-0.857,0.607-1.283,0.91v0.008l-1.267,0.797l0.994,1.418c3.513,5.03,6.221,10.522,8.019,16.234
		c0.902,2.854,1.586,5.758,2.041,8.68c0.229,1.464,0.395,2.928,0.508,4.392c0.061,0.736,0.107,1.465,0.137,2.2l0.031,1.1
		L692.896,273.029z"/>
	<path fill="#B7B6A5" d="M685.973,277.647c-0.564-0.175-1.135-0.325-1.713-0.447c-0.21-0.04-0.375-0.074-0.508-0.103
		c-0.117-0.005-0.246-0.011-0.401-0.02c-0.667-0.043-1.334-0.068-2.002-0.076c-1.751-0.002-3.501,0.052-5.247,0.213
		c-0.377,0.035-4.447,0.529-2.57,0.253c-9.736,1.434-19.351,3.485-29.238,3.581c-11.902,0.115-23.639-1.711-35.402-3.301
		c-1.752-0.236-3.674-0.48-5.646-0.689c-8.764,1.392-17.853,2.698-26.793,2.367c0.053,1.389,0.144,2.778,0.292,4.164
		c0.348,3.193,0.956,6.372,1.819,9.452c1.723,6.183,4.477,12.047,8.104,17.304c3.633,5.25,8.116,9.893,13.215,13.693
		c5.09,3.793,10.811,6.736,16.826,8.671c6.023,1.935,12.35,2.845,18.646,2.709c1.571-0.03,3.164-0.13,4.703-0.289l0.63-0.067
		l0.562-0.068c0.387-0.046,0.781-0.1,1.169-0.152c0.781-0.113,1.555-0.242,2.328-0.387c3.095-0.562,6.13-1.389,9.081-2.45
		c5.895-2.132,11.426-5.242,16.288-9.164c4.87-3.922,9.08-8.648,12.411-13.921c1.668-2.633,3.117-5.401,4.323-8.262
		c0.607-1.434,1.154-2.891,1.632-4.361c0.485-1.479,0.902-2.975,1.29-4.477c0.773-2.996,1.524-6.016,2.154-9.119
		c0.215-1.104,0.392-2.224,0.542-3.348C690.097,279.461,687.943,278.848,685.973,277.647z"/>
	<polygon fill="#231F20" points="719.007,213.971 718.893,214.054 718.779,214.114 	"/>
	<polygon fill="#231F20" points="717.254,211.179 717.232,211.194 717.225,211.194 	"/>
	<path fill="#231F20" d="M716.83,211.627l-0.031-0.129l0.229-0.175l0.151-0.114l0.046-0.015l-0.046,0.038l-0.083,0.061l-0.046,0.053
		l-0.029,0.03l-0.017,0.022l-0.022,0.023h-0.007v0.007l-0.047,0.069l-0.061,0.129C716.838,211.756,716.853,211.71,716.83,211.627z"
		/>
	<path fill="#231F20" d="M687.935,185.803l-0.009,0.008L687.935,185.803z"/>
	<path fill="#231F20" d="M687.918,185.825l-0.015,0.016L687.918,185.825z"/>
	<polygon fill="#231F20" points="687.903,185.841 687.903,185.849 687.896,185.849 	"/>
	<path fill="#231F20" d="M687.918,185.825l0.008-0.015l0.009-0.008l0.008-0.008v-0.008l0.052-0.067l0.13-0.213l0.068-0.122
		l0.037-0.098l0.054-0.129l-0.076,0.227l-0.144,0.259c-0.259,0.463-0.517,0.933-0.774,1.396c-0.197-0.068-0.38-0.129-0.546-0.182
		c-0.146-0.045-0.281-0.076-0.379-0.099l-0.092-0.016c0.067-0.007,0.235,0.03,0.722-0.174c0.227-0.106,0.522-0.296,0.773-0.569
		l0.046-0.046l0.083-0.105h0.007v-0.008L687.918,185.825z"/>
	<path fill="#231F20" d="M685.62,238.694c-0.455,0.349-0.902,0.698-1.35,1.054l0.265-2.215
		C684.9,237.912,685.256,238.3,685.62,238.694z"/>
	<path fill="#231F20" d="M682.146,239.49l-0.994-1.418l1.267-0.797v-0.008c0.426-0.303,0.858-0.6,1.283-0.91l0.834,1.176
		l-0.265,2.215c0.447-0.355,0.895-0.705,1.35-1.054c3.976,4.385,7.382,9.368,10.06,14.793c1.456,2.95,2.693,6.03,3.693,9.202
		c0.501,1.586,0.941,3.193,1.328,4.824c0.189,0.812,0.364,1.631,0.524,2.451l0.233,1.236l0.183,1.115l0.024,0.129
		c0.568,3.634,0.984,7.344,1.062,11.099c0.076,3.755-0.274,7.548-1.161,11.22c-0.902,3.672-2.185,7.237-3.711,10.682
		c-1.531,3.444-3.353,6.76-5.422,9.893c-4.15,6.281-9.324,11.857-15.265,16.447c-5.933,4.597-12.632,8.193-19.717,10.598
		c-3.55,1.198-7.19,2.109-10.879,2.709c-0.917,0.15-1.843,0.279-2.769,0.387c-0.463,0.061-0.925,0.105-1.396,0.151l-0.72,0.067
		l-0.652,0.054c-1.889,0.151-3.725,0.22-5.599,0.212c-7.458-0.022-14.9-1.281-21.925-3.731
		c-14.057-4.871-26.331-14.482-34.328-26.886c-4.02-6.19-6.985-13.033-8.754-20.164c-0.888-3.566-1.471-7.191-1.76-10.841
		c-0.289-3.642-0.289-7.313,0.022-10.954c0.614-7.283,2.473-14.445,5.424-21.091s7.01-12.774,11.926-18.078
		c4.908-5.31,10.704-9.771,17.046-13.169c6.343-3.392,13.231-5.728,20.293-6.851c1.768-0.28,3.528-0.485,5.327-0.63
		c1.76-0.129,3.557-0.197,5.332-0.189c3.565,0.016,7.117,0.326,10.621,0.934c6.448,1.107,12.692,3.23,18.465,6.228
		c-0.205,0.471-0.409,0.933-0.599,1.411l-0.698,1.472c-11.729-5.446-25.088-6.941-37.575-4.385
		c-6.478,1.305-12.722,3.672-18.382,6.987c-5.674,3.314-10.757,7.57-15.027,12.502c-4.271,4.931-7.723,10.553-10.158,16.568
		c-2.435,6.008-3.854,12.403-4.195,18.844c-0.182,3.217-0.092,6.441,0.251,9.65c0.348,3.193,0.956,6.372,1.819,9.452
		c1.723,6.183,4.477,12.047,8.104,17.304c3.633,5.25,8.116,9.893,13.215,13.693c5.09,3.793,10.811,6.736,16.826,8.671
		c6.023,1.935,12.35,2.845,18.646,2.709c1.571-0.03,3.164-0.13,4.703-0.289l0.63-0.067l0.562-0.068
		c0.387-0.046,0.781-0.1,1.169-0.152c0.781-0.113,1.555-0.242,2.328-0.387c3.095-0.562,6.13-1.389,9.081-2.45
		c5.895-2.132,11.426-5.242,16.288-9.164c4.87-3.922,9.08-8.648,12.411-13.921c1.668-2.633,3.117-5.401,4.323-8.262
		c0.607-1.434,1.154-2.891,1.632-4.361c0.485-1.479,0.902-2.975,1.29-4.477c0.773-2.996,1.524-6.016,2.154-9.119
		c0.606-3.102,0.993-6.296,0.971-9.505v-0.167l-0.015-0.934l-0.031-1.1c-0.029-0.735-0.076-1.464-0.137-2.2
		c-0.113-1.464-0.279-2.928-0.508-4.392c-0.455-2.922-1.139-5.826-2.041-8.68C688.366,250.013,685.658,244.521,682.146,239.49z"/>
	<path fill="#231F20" d="M682.139,182.396l-0.221,0.485c0.038-0.105,0.076-0.196,0.121-0.304L682.139,182.396z"/>
	<path fill="#231F20" d="M687.289,187.039c0.258-0.463,0.516-0.933,0.774-1.396l0.144-0.259l0.076-0.227l-0.054,0.129l-0.037,0.098
		l-0.068,0.122l-0.13,0.213l-0.052,0.067v0.008l-0.008,0.008l-0.009,0.008l-0.008,0.015l-0.015,0.016l-0.007,0.008l-0.083,0.105
		L687.768,186c-0.251,0.273-0.547,0.463-0.773,0.569c-0.486,0.204-0.654,0.167-0.722,0.174l0.092,0.016
		c0.098,0.022,0.233,0.054,0.379,0.099C686.909,186.91,687.092,186.971,687.289,187.039c-1.525,2.754-3.064,5.492-4.628,8.225
		c-1.828,3.186-3.679,6.363-5.567,9.52c-1.897,3.156-3.809,6.297-5.773,9.407c-0.994,1.556-1.98,3.11-2.997,4.65l-1.524,2.306
		c-0.516,0.767-1.024,1.533-1.563,2.291l-0.956,1.366l-1.114-0.735v-0.008c-0.439-0.221-0.888-0.433-1.335-0.638l0.698-1.472
		l2.069-0.63c-0.484-0.265-0.978-0.53-1.471-0.781c0.16-0.379,0.326-0.759,0.486-1.138l1.13-2.526
		c0.751-1.685,1.532-3.353,2.313-5.022c1.57-3.33,3.194-6.63,4.833-9.922c1.646-3.293,3.329-6.562,5.036-9.817
		c1.678-3.193,3.384-6.372,5.113-9.536c-0.045,0.107-0.083,0.198-0.121,0.304l0.221-0.485l-0.1,0.182l0.075-0.174l0.046-0.092
		l0.061-0.113c0.062-0.099,0.122-0.197,0.183-0.296l0.1-0.136l0.037-0.047l0.031-0.037l0.151-0.189l0.075-0.084
		c0.41-0.455,0.911-0.781,1.358-0.986c0.234-0.105,0.44-0.174,0.652-0.242c0.182-0.046,0.394-0.099,0.562-0.121l0.258-0.039
		l0.235-0.021c0.158-0.008,0.287-0.008,0.433-0.008c0.546,0,0.963,0.068,1.35,0.137c0.38,0.075,0.721,0.166,1.039,0.265
		c1.259,0.388,2.246,0.872,3.217,1.366c0.964,0.5,1.859,1.047,2.739,1.6c0.871,0.547,1.715,1.131,2.534,1.723
		c3.284,2.375,6.288,5.021,9.14,7.776c2.853,2.784,5.568,5.674,8.111,8.762c1.267,1.548,2.495,3.133,3.626,4.855
		c0.562,0.872,1.092,1.768,1.562,2.814c0.22,0.538,0.448,1.085,0.553,1.858c0.039,0.387,0.077,0.842-0.104,1.441
		c-0.047,0.151-0.1,0.288-0.19,0.463c-0.061,0.098-0.121,0.205-0.189,0.296l-0.061,0.083l-0.015,0.023l-0.077,0.09l-0.008,0.008
		l-0.029,0.031l-0.114,0.113l-0.212,0.182l-0.206,0.137l-0.068,0.038l0.114-0.083l-0.228,0.144l0.113-0.061l-8.663,6.244
		c-2.913,2.131-5.833,4.24-8.724,6.395c-2.906,2.132-5.788,4.294-8.664,6.464c-2.412,1.836-4.832,3.672-7.222,5.538
		c-0.364-0.395-0.72-0.782-1.085-1.161l-0.834-1.176c2.51-1.783,5-3.604,7.48-5.424c2.897-2.14,5.796-4.287,8.67-6.464
		c2.891-2.154,5.743-4.354,8.618-6.539l8.329-6.433l0.031,0.129c0.022,0.083,0.008,0.129,0.037,0l0.061-0.129l0.047-0.069
		l0.007-0.007l0.022-0.023l0.017-0.022l0.029-0.03l0.046-0.053l0.083-0.061l0.046-0.038h0.008l0.021-0.016l-0.029,0.016
		l-0.046,0.015l-0.151,0.114l-0.229,0.175c-0.061-0.198-0.174-0.494-0.318-0.774c-0.348-0.713-0.865-1.456-1.402-2.185
		c-1.093-1.449-2.368-2.845-3.687-4.188c-2.672-2.663-5.585-5.145-8.573-7.458c-1.503-1.176-3.027-2.29-4.566-3.376
		c-1.541-1.084-3.104-2.131-4.674-3.117c-1.562-0.979-3.156-1.92-4.695-2.671C688.336,187.464,687.782,187.221,687.289,187.039z"/>
	<path fill="#231F20" d="M664.598,221.321l-2.069,0.63c0.189-0.479,0.394-0.94,0.599-1.411
		C663.62,220.791,664.113,221.057,664.598,221.321z"/>
	<polygon fill="#231F20" points="579.275,321.146 568.162,385.846 559.178,385.846 575.322,320.318 	"/>
	<polygon fill="#231F20" points="637.789,324.758 642.258,399.31 629.28,399.31 633.75,324.758 	"/>
	<path fill="#231F20" d="M635.77,326.777c-17.484,0-33.933-0.713-46.315-2.008c-6.081-0.635-10.874-1.381-14.247-2.215
		c-3.459-0.854-6.659-2.005-6.659-4.613c0-2.621,2.978-4.113,10.991-5.503l0.69,3.979c-3.325,0.576-5.274,1.118-6.404,1.523
		c2.097,0.75,7.035,1.969,18.387,3.043c11.942,1.131,27.413,1.754,43.558,1.754c16.146,0,31.615-0.623,43.559-1.754
		c11.371-1.076,16.307-2.297,18.397-3.047c-1.195-0.43-3.328-1.01-7.084-1.633l0.661-3.984c8.521,1.414,11.688,2.938,11.688,5.621
		c0,2.608-3.2,3.76-6.658,4.613c-3.374,0.834-8.169,1.58-14.248,2.215C669.701,326.064,653.254,326.777,635.77,326.777z"/>
	<ellipse fill="#A3A291" cx="634.417" cy="279.672" rx="58.017" ry="5.051"/>
	<circle fill="#B7B6A5" cx="599.979" cy="258.072" r="2.845"/>
	<circle fill="#B7B6A5" cx="620.403" cy="231.246" r="3.166"/>
	<circle fill="#B7B6A5" cx="647.309" cy="260.277" r="5.051"/>
	<circle fill="#B7B6A5" cx="667.037" cy="237.885" r="3.472"/>
	<circle fill="#B7B6A5" cx="672.248" cy="246.203" r="1.739"/>
	<circle fill="#F5F5F5" cx="666.296" cy="236.014" r="0.886"/>
	<circle fill="#F5F5F5" cx="671.897" cy="245.379" r="0.435"/>
	<circle fill="#F5F5F5" cx="645.362" cy="257.768" r="1.238"/>
	<circle fill="#F5F5F5" cx="645.981" cy="260.277" r="0.618"/>
	<circle fill="#F5F5F5" cx="619.213" cy="229.93" r="0.584"/>
	<circle fill="#F5F5F5" cx="620.035" cy="230.91" r="0.237"/>
	<circle fill="#F5F5F5" cx="599.062" cy="257.035" r="0.569"/>
	<circle fill="#F5F5F5" cx="599.805" cy="257.968" r="0.174"/>
	<circle fill="#F5F5F5" cx="672.538" cy="246.02" r="0.206"/>
</g>
</svg>
