<?xml version="1.0" encoding="utf-8"?>
<!-- Generator: Adobe Illustrator 15.0.0, SVG Export Plug-In . SVG Version: 6.00 Build 0)  -->
<!DOCTYPE svg PUBLIC "-//W3C//DTD SVG 1.1//EN" "http://www.w3.org/Graphics/SVG/1.1/DTD/svg11.dtd">
<svg version="1.1" id="Layer_1" xmlns="http://www.w3.org/2000/svg" xmlns:xlink="http://www.w3.org/1999/xlink" x="0px" y="0px"
	 width="1280px" height="800px" viewBox="0 0 1280 800" enable-background="new 0 0 1280 800" xml:space="preserve">
<g>
	<polyline fill="#FFFFFF" points="1279.69,798 -0.312,798 -0.312,-2 1279.69,-2 1279.69,798 	"/>
	<g>
		<path fill="#939598" d="M485.185,568.116h-10.4V548.78h45.557c0,11.133-0.781,19.41-2.344,24.83
			c-1.514,5.225-4.688,10.522-9.521,15.893c-4.736,5.323-10.474,9.205-17.212,11.646c-6.738,2.44-13.965,3.662-21.68,3.662
			c-11.475,0-21.899-1.904-31.274-5.713c-9.424-3.711-16.699-9.863-21.826-18.457c-5.176-8.447-7.764-17.92-7.764-28.418
			c0-15.869,5.225-28.662,15.674-38.379c10.352-9.717,23.046-14.576,38.086-14.576c12.549,0,22.387,3.053,29.517,9.156v-7.105
			h24.536v35.596h-24.536c-2.149-4.395-4.944-7.714-8.386-9.961c-3.443-2.245-7.46-3.369-12.049-3.369
			c-6.445,0-11.182,2.101-14.209,6.299c-2.979,4.2-4.468,11.915-4.468,23.145c0,11.183,1.562,18.775,4.688,22.779
			c3.174,4.053,7.788,6.078,13.843,6.078C480.595,581.886,485.185,577.297,485.185,568.116z"/>
		<path fill="#939598" d="M589.994,603.2h-55.371V578.81h8.276v-53.1h-8.276v-24.391h55.371c4.98,0,9.595,0.086,13.843,0.257
			c4.248,0.172,7.885,0.415,10.913,0.732c3.027,0.318,5.811,0.745,8.35,1.282c7.129,1.514,12.915,4.81,17.358,9.887
			c4.492,5.177,6.738,11.279,6.738,18.311c0,5.273-1.367,10.06-4.102,14.355c-2.735,4.248-6.324,7.374-10.767,9.375l14.062,23.291
			h7.324V603.2h-36.694l-22.192-41.602h-12.524v17.211h7.69V603.2z M582.304,523.659v19.408h4.395c5.761,0,9.668-0.17,11.719-0.512
			c2.197-0.342,4.053-1.318,5.566-2.93c1.513-1.514,2.271-3.59,2.271-6.227s-0.758-4.735-2.271-6.299
			c-1.514-1.611-3.442-2.587-5.786-2.93c-2.246-0.341-6.348-0.512-12.305-0.512H582.304z"/>
		<path fill="#939598" d="M760.136,603.2h-97.192V578.81h7.91v-53.1h-8.057v-24.391h97.339v32.594h-26.733v-8.203h-23.145v15.674
			h20.142v20.727h-20.142v16.699h23.145v-8.203h26.733V603.2z"/>
		<path fill="#939598" d="M851.396,603.2h-55.664V578.81h8.203v-16.186l-25.708-36.914h-6.958v-24.391h53.247v24.391h-6.079
			l10.84,20.801l13.11-20.801h-6.226v-24.391h39.185v24.391h-6.372l-25.635,36.914v16.186h8.057V603.2z"/>
	</g>
	<path fill="#D6D6D7" d="M638.124,377.579c-25.283,0-45.777,2.548-45.777,5.69s20.494,5.689,45.777,5.689s45.777-2.547,45.777-5.689
		S663.407,377.579,638.124,377.579"/>
	<polygon fill="#231F20" points="699.792,317.742 717.654,383.27 705.234,383.27 695.839,318.57 	"/>
	<polygon fill="#231F20" points="581.82,318.57 570.708,383.27 561.723,383.27 577.867,317.742 	"/>
	<path fill="#F5F5F5" d="M693.563,283.189c0.69,6.107,0.372,12.297-0.941,18.238c-1.304,5.939-3.588,11.621-6.698,16.773
		c-1.554,2.578-3.329,5.014-5.272,7.297c-0.485,0.576-0.986,1.131-1.494,1.684c-0.25,0.273-0.516,0.547-0.766,0.82l-0.798,0.812
		c-1.046,1.039-2.154,2.078-3.285,3.041c-4.552,3.885-9.694,7.025-15.209,9.256c-11.008,4.475-23.487,5.332-34.989,2.244
		c-5.741-1.531-11.25-3.99-16.203-7.312c-2.473-1.654-4.832-3.512-7.01-5.545c-2.201-2.041-4.217-4.248-6.045-6.623
		c-7.36-9.438-11.465-21.4-11.525-33.508c-0.021-3.027,0.214-6.062,0.684-9.059c0.462-3.004,1.184-5.971,2.132-8.861
		c0.963-2.891,2.147-5.713,3.565-8.42c1.426-2.717,3.065-5.318,4.908-7.783c0.918-1.223,1.912-2.436,2.913-3.566
		c1.048-1.184,2.101-2.283,3.224-3.354c2.238-2.139,4.635-4.119,7.193-5.887c2.562-1.768,5.271-3.33,8.102-4.672
		c2.123-1.01,4.309-1.889,6.555-2.641c0.742-0.258,1.494-0.494,2.252-0.713l1.699-0.189l-0.197-2.201
		c-0.318-3.504-0.758-6.979-1.213-10.453c-0.455-3.467-0.972-6.926-1.502-10.387c-0.547-3.451-1.116-6.895-1.715-10.34l-0.918-5.15
		l-0.402-2.154l0.258-0.053c1.479-0.326,3.156-0.584,4.841-0.766c3.397-0.35,6.911-0.523,10.431-0.518
		c3.497-0.021,7.025,0.145,10.415,0.486c1.692,0.174,3.37,0.424,4.849,0.744c0.092,0.021,0.174,0.037,0.265,0.061l-0.379,2.055
		l-0.88,5.061l-0.834,5.068l-0.797,5.074c-0.508,3.391-1.001,6.783-1.434,10.188c-0.365,2.822-0.705,5.645-0.979,8.482
		c-0.061,0.592-0.112,1.184-0.166,1.775l-0.472,2.033l2.11,0.387c2.829,0.516,5.612,1.236,8.321,2.17
		c2.709,0.939,5.342,2.078,7.875,3.414c2.526,1.334,4.946,2.859,7.244,4.551c2.292,1.699,4.439,3.551,6.465,5.576
		c4.398,4.438,8.041,9.582,10.742,15.158C691.151,271.074,692.873,277.084,693.563,283.189z"/>
	<path fill="#939598" d="M693.563,283.189c-0.69-6.105-2.412-12.115-5.082-17.705c-1.338-2.762-2.907-5.416-4.686-7.932
		c-1.838,0.52-3.793,0.568-5.529-0.07c-0.819-0.33-1.654-0.611-2.507-0.844c-0.383-0.082-0.664-0.143-0.866-0.188
		c-0.654-0.027-1.309-0.023-1.964,0.021c0.969-0.184,0.765-0.148-0.615,0.107c-3.67,0.783-7.278,1.646-11.003,2.156
		c-7.617,1.045-15.205,1.303-22.887,1.084c-7.705-0.221-15.432-0.367-23.096-1.242c-7.01-0.799-13.994-1.779-21.061-1.85
		c-1.699,2.322-3.228,4.758-4.561,7.299c-1.418,2.707-2.603,5.529-3.565,8.42c-0.948,2.891-1.67,5.857-2.132,8.861
		c-0.47,2.996-0.705,6.031-0.684,9.059c0.061,12.107,4.165,24.07,11.525,33.508c1.828,2.375,3.844,4.582,6.045,6.623
		c2.178,2.033,4.537,3.891,7.01,5.545c4.953,3.322,10.462,5.781,16.203,7.312c11.502,3.088,23.981,2.23,34.989-2.244
		c5.515-2.23,10.657-5.371,15.209-9.256c1.131-0.963,2.239-2.002,3.285-3.041l0.798-0.812c0.25-0.273,0.516-0.547,0.766-0.82
		c0.508-0.553,1.009-1.107,1.494-1.684c1.943-2.283,3.719-4.719,5.272-7.297c3.11-5.152,5.395-10.834,6.698-16.773
		C693.936,295.486,694.254,289.297,693.563,283.189z"/>
	<path fill="#231F20" d="M661.45,193.49l-0.075,0.295l-0.007,0.031c-0.047,0.137-0.085,0.266-0.137,0.395L661.45,193.49z"/>
	<path fill="#231F20" d="M652.491,193.777c0.357,0.76,0.66,0.986,0.789,1.123c0.091,0.076,0.137,0.107,0.151,0.129l-0.189-0.074
		c-0.355-0.137-0.948-0.32-1.578-0.463l0.547-2.998l0.068-0.355l0.106-0.25l-0.039,0.113c-0.038,0.113-0.061,0.205-0.09,0.342
		c-0.039,0.15-0.053,0.273-0.077,0.455l-0.015,0.271v0.07v0.143v0.008c0,0.047,0.008,0.305,0.031,0.426
		c0.015,0.137,0.045,0.266,0.075,0.395C652.325,193.361,652.408,193.588,652.491,193.777z"/>
	<path fill="#231F20" d="M661.603,192.686c-0.023,0.236-0.053,0.418-0.099,0.623c-0.038,0.174-0.075,0.318-0.129,0.477l0.075-0.295
		l-0.219,0.721c0.052-0.129,0.09-0.258,0.137-0.395l-1.162,4.65l-1.281,4.977l-1.328,4.961l-1.364,4.955
		c-0.94,3.299-1.89,6.592-2.898,9.877c-0.805,2.602-1.616,5.203-2.497,7.799c-0.773-0.152-1.554-0.289-2.336-0.41l-2.14-0.205
		c0.274-2.838,0.614-5.66,0.979-8.482c0.433-3.404,0.926-6.797,1.434-10.188l0.797-5.074l0.834-5.068l0.88-5.061l0.379-2.055
		c0.63,0.143,1.223,0.326,1.578,0.463l0.189,0.074c-0.015-0.021-0.061-0.053-0.151-0.129c-0.129-0.137-0.432-0.363-0.789-1.123
		c-0.083-0.189-0.166-0.416-0.22-0.666c-0.03-0.129-0.061-0.258-0.075-0.395c-0.023-0.121-0.031-0.379-0.031-0.426v-0.008v-0.143
		v-0.07l0.015-0.271c0.024-0.182,0.038-0.305,0.077-0.455c0.029-0.137,0.052-0.229,0.09-0.342l0.039-0.113l-0.106,0.25l-0.068,0.355
		l-0.547,2.998c-0.091-0.023-0.173-0.039-0.265-0.061c-1.479-0.32-3.156-0.57-4.849-0.744c-3.39-0.342-6.918-0.508-10.415-0.486
		c-3.52-0.006-7.033,0.168-10.431,0.518c-1.685,0.182-3.362,0.439-4.841,0.766l-0.258,0.053l-0.554-2.996l-0.068-0.357l-0.151-0.363
		l0.083,0.219l0.046,0.168l0.022,0.084l0.031,0.121c0.022,0.129,0.044,0.25,0.061,0.379l0.015,0.166c0,0.047,0,0.129,0.008,0.289
		v0.105c-0.008,0.57-0.151,1.102-0.326,1.48c-0.35,0.758-0.653,0.986-0.782,1.123l-0.151,0.137l0.189-0.076
		c0.357-0.145,0.949-0.32,1.578-0.479l0.402,2.154l0.918,5.15c0.599,3.445,1.168,6.889,1.715,10.34
		c0.53,3.461,1.047,6.92,1.502,10.387c0.455,3.475,0.895,6.949,1.213,10.453l0.197,2.201l-1.699,0.189
		c-0.758,0.219-1.51,0.455-2.252,0.713l-0.189-2.246l1.501-2.389h-0.008c-0.72,0.137-1.441,0.287-2.161,0.455
		c-0.919-2.67-1.768-5.371-2.603-8.064c-1.031-3.338-2.011-6.699-2.974-10.059c-0.948-3.369-1.867-6.738-2.762-10.113l-1.328-5.068
		l-1.167-4.658c0.037,0.107,0.067,0.205,0.112,0.305l-0.219-0.721l0.106,0.416l-0.031-0.082l-0.068-0.244l-0.038-0.121l-0.037-0.174
		c-0.031-0.152-0.054-0.303-0.076-0.463l-0.023-0.229l-0.008-0.074l-0.007-0.047v-0.008l-0.007-0.311v-0.145
		c0.014-0.803,0.219-1.562,0.485-2.146c0.258-0.592,0.569-1.031,0.849-1.381c0.289-0.348,0.547-0.6,0.798-0.818
		c0.484-0.426,0.902-0.699,1.274-0.926c0.379-0.221,0.72-0.395,1.046-0.547c1.275-0.592,2.344-0.91,3.398-1.213
		c2.087-0.57,4.059-0.896,6.023-1.17c3.915-0.537,7.776-0.719,11.614-0.75c3.869,0.023,7.716,0.189,11.631,0.721
		c1.972,0.266,3.937,0.584,6.031,1.154c1.054,0.295,2.123,0.613,3.405,1.197c0.318,0.152,0.661,0.326,1.04,0.547
		c0.379,0.227,0.788,0.492,1.281,0.926c0.479,0.432,1.102,1.008,1.646,2.184c0.129,0.297,0.25,0.631,0.334,0.994
		c0.045,0.182,0.084,0.373,0.105,0.562c0.031,0.174,0.047,0.5,0.047,0.576v0.008v0.008v0.008c0.007,0.287,0,0.129,0.007,0.219
		l-0.007,0.092C661.626,192.443,661.618,192.564,661.603,192.686z"/>
	<path fill="#231F20" d="M650.837,231.035c-0.219,0.666-0.454,1.342-0.689,2.01l-1.646-2.42
		C649.283,230.746,650.063,230.883,650.837,231.035z"/>
	<path fill="#231F20" d="M656.155,236.785c-2.709-0.934-5.492-1.654-8.321-2.17l-2.11-0.387l0.472-2.033
		c0.054-0.592,0.105-1.184,0.166-1.775l2.14,0.205l1.646,2.42c0.235-0.668,0.471-1.344,0.689-2.01
		c2.247,0.432,4.469,0.992,6.653,1.676c2.944,0.91,5.827,2.049,8.604,3.391c2.783,1.352,5.461,2.906,8.018,4.666
		c2.542,1.744,4.969,3.701,7.214,5.803l0.023,0.016c4.992,4.629,9.255,10.098,12.503,16.145c3.285,6.031,5.552,12.639,6.706,19.459
		c1.167,6.818,1.206,13.852,0.098,20.748c-0.554,3.443-1.396,6.85-2.519,10.172c-1.114,3.322-2.534,6.555-4.202,9.65
		c-1.678,3.096-3.597,6.068-5.782,8.846c-0.537,0.697-1.1,1.381-1.668,2.049c-0.287,0.34-0.576,0.666-0.873,1l-0.872,0.971
		c-1.222,1.312-2.466,2.551-3.77,3.748c-5.22,4.779-11.289,8.68-17.835,11.447c-6.548,2.777-13.564,4.424-20.665,4.871
		c-7.093,0.455-14.256-0.295-21.112-2.178c-6.859-1.881-13.383-4.938-19.224-8.959c-2.93-2.01-5.668-4.271-8.216-6.736
		c-2.527-2.457-4.878-5.129-6.98-7.973c-4.202-5.689-7.434-12.086-9.527-18.814c-2.079-6.729-3.042-13.785-2.808-20.793
		c0.114-3.498,0.508-6.988,1.198-10.41c0.69-3.428,1.67-6.789,2.906-10.043c1.244-3.254,2.769-6.389,4.536-9.377
		c1.761-2.988,3.778-5.818,6.017-8.451c1.123-1.32,2.275-2.572,3.513-3.809c1.198-1.197,2.479-2.381,3.785-3.488
		c2.609-2.23,5.423-4.219,8.367-5.957c2.952-1.736,6.03-3.238,9.21-4.438c2.496-0.939,5.037-1.723,7.609-2.32
		c0.211,0.645,0.439,1.289,0.668,1.934l0.189,2.246c-2.246,0.752-4.432,1.631-6.555,2.641c-2.83,1.342-5.539,2.904-8.102,4.672
		c-2.559,1.768-4.955,3.748-7.193,5.887c-1.123,1.07-2.176,2.17-3.224,3.354c-1.001,1.131-1.995,2.344-2.913,3.566
		c-1.843,2.465-3.482,5.066-4.908,7.783c-1.418,2.707-2.603,5.529-3.565,8.42c-0.948,2.891-1.67,5.857-2.132,8.861
		c-0.47,2.996-0.705,6.031-0.684,9.059c0.061,12.107,4.165,24.07,11.525,33.508c1.828,2.375,3.844,4.582,6.045,6.623
		c2.178,2.033,4.537,3.891,7.01,5.545c4.953,3.322,10.462,5.781,16.203,7.312c11.502,3.088,23.981,2.23,34.989-2.244
		c5.515-2.23,10.657-5.371,15.209-9.256c1.131-0.963,2.239-2.002,3.285-3.041l0.798-0.812c0.25-0.273,0.516-0.547,0.766-0.82
		c0.508-0.553,1.009-1.107,1.494-1.684c1.943-2.283,3.719-4.719,5.272-7.297c3.11-5.152,5.395-10.834,6.698-16.773
		c1.313-5.941,1.632-12.131,0.941-18.238c-0.69-6.105-2.412-12.115-5.082-17.705c-2.701-5.576-6.344-10.721-10.742-15.158
		c-2.025-2.025-4.173-3.877-6.465-5.576c-2.298-1.691-4.718-3.217-7.244-4.551C661.497,238.863,658.864,237.725,656.155,236.785z"/>
	<path fill="#231F20" d="M623.914,231.49l-1.501,2.389c-0.229-0.645-0.457-1.289-0.668-1.934c0.72-0.168,1.441-0.318,2.161-0.455
		H623.914z"/>
	<path fill="#231F20" d="M620.053,191.541l0.554,2.996c-0.629,0.158-1.221,0.334-1.578,0.479l-0.189,0.076l0.151-0.137
		c0.129-0.137,0.433-0.365,0.782-1.123c0.175-0.379,0.318-0.91,0.326-1.48v-0.105c-0.008-0.16-0.008-0.242-0.008-0.289l-0.015-0.166
		c-0.017-0.129-0.038-0.25-0.061-0.379l-0.031-0.121l-0.022-0.084l-0.046-0.168l-0.083-0.219l0.151,0.363L620.053,191.541z"/>
	<path fill="#231F20" d="M610.806,193.566l0.219,0.721c-0.045-0.1-0.075-0.197-0.112-0.305L610.806,193.566z"/>
	<path fill="#231F20" d="M638.314,324.199c-17.485,0-33.933-0.713-46.316-2.006c-6.079-0.637-10.874-1.381-14.247-2.215
		c-3.459-0.855-6.659-2.006-6.659-4.613c0-2.623,2.979-4.113,10.991-5.504l0.69,3.98c-3.323,0.576-5.274,1.117-6.404,1.523
		c2.097,0.75,7.035,1.969,18.387,3.043c11.944,1.131,27.413,1.752,43.559,1.752s31.614-0.621,43.559-1.752
		c11.37-1.076,16.306-2.297,18.396-3.047c-1.196-0.43-3.326-1.01-7.084-1.633l0.661-3.984c8.521,1.412,11.688,2.936,11.688,5.621
		c0,2.607-3.198,3.758-6.657,4.613c-3.375,0.834-8.168,1.578-14.249,2.215C672.246,323.486,655.798,324.199,638.314,324.199z"/>
	<polygon fill="#231F20" points="640.334,322.18 644.803,396.732 631.826,396.732 636.295,322.18 	"/>
	<ellipse fill="#7D7F82" cx="638.587" cy="257.701" rx="45.314" ry="5.051"/>
	<circle fill="#939598" cx="631.432" cy="245.365" r="2.655"/>
	<circle fill="#939598" cx="641.349" cy="217.918" r="3.035"/>
	<circle fill="#939598" cx="631.621" cy="200.658" r="2.845"/>
	<circle fill="#939598" cx="638.654" cy="161.4" r="6.828"/>
	<circle fill="#939598" cx="633.518" cy="172.211" r="2.086"/>
	<circle fill="#939598" cx="630.301" cy="153.82" r="1.525"/>
	<circle fill="#F5F5F5" cx="630.536" cy="244.307" r="0.896"/>
	<ellipse fill="#F5F5F5" cx="631.716" cy="245.365" rx="0.285" ry="0"/>
	<circle fill="#F5F5F5" cx="640.61" cy="217.045" r="0.738"/>
	<circle fill="#F5F5F5" cx="641.89" cy="218.459" r="0.542"/>
	<circle fill="#F5F5F5" cx="631.195" cy="200.137" r="0.901"/>
	<circle fill="#F5F5F5" cx="632.475" cy="201.418" r="0.379"/>
	<circle fill="#F5F5F5" cx="632.997" cy="172.068" r="0.521"/>
	<circle fill="#F5F5F5" cx="636.031" cy="158.887" r="1.565"/>
	<circle fill="#F5F5F5" cx="638.125" cy="160.98" r="0.529"/>
	<circle fill="#F5F5F5" cx="629.868" cy="153.25" r="0.57"/>
</g>
</svg>
