<?xml version="1.0" encoding="utf-8"?>
<!-- Generator: Adobe Illustrator 15.0.0, SVG Export Plug-In . SVG Version: 6.00 Build 0)  -->
<!DOCTYPE svg PUBLIC "-//W3C//DTD SVG 1.1//EN" "http://www.w3.org/Graphics/SVG/1.1/DTD/svg11.dtd">
<svg version="1.1" id="Layer_1" xmlns="http://www.w3.org/2000/svg" xmlns:xlink="http://www.w3.org/1999/xlink" x="0px" y="0px"
	 width="225px" height="361px" viewBox="0 0 225 361" enable-background="new 0 0 225 361" xml:space="preserve">
<g>
	<polygon fill="#231F20" points="190.852,247.586 214.395,333.962 198.025,333.962 185.641,248.677 	"/>
	<polygon fill="#231F20" points="35.342,248.677 20.693,333.962 8.85,333.962 30.131,247.586 	"/>
	<path fill="#F5F5F5" d="M192.154,193.5c0.35,9.05-0.811,18.24-3.58,26.99c-0.68,2.18-1.48,4.34-2.35,6.46
		c-0.881,2.13-1.84,4.22-2.91,6.26s-2.211,4.03-3.449,6c-1.23,1.94-2.57,3.83-3.961,5.66c-5.6,7.36-12.51,13.69-20.27,18.69
		c-3.881,2.52-7.98,4.68-12.23,6.49c-4.24,1.811-8.631,3.271-13.119,4.33c-8.961,2.15-18.271,2.76-27.391,1.82
		c-9.121-0.93-18.051-3.42-26.27-7.31c-4.111-1.94-8.061-4.22-11.781-6.8c-3.74-2.58-7.24-5.45-10.479-8.59
		c-6.49-6.26-11.861-13.6-15.932-21.55c-2.029-3.979-3.729-8.11-5.1-12.35c-1.35-4.24-2.369-8.58-3.039-12.97
		c-0.66-4.39-0.971-8.82-0.941-13.25c0.041-4.42,0.461-8.83,1.191-13.18c0.75-4.36,1.859-8.64,3.289-12.8
		c1.43-4.17,3.211-8.22,5.311-12.101c0.52-0.97,1.049-1.93,1.609-2.88c0.57-0.96,1.131-1.9,1.711-2.81l0.9-1.42l0.92-1.38
		c0.619-0.92,1.26-1.82,1.898-2.72c2.59-3.58,5.441-6.99,8.49-10.24c3.061-3.24,6.361-6.29,9.85-9.18c1.75-1.45,3.561-2.84,5.4-4.21
		c1.861-1.36,3.76-2.68,5.691-4.02h0.01l2.209-1.05l-0.76-2.2c-0.289-0.851-0.58-1.7-0.869-2.55c-2.17-6.39-4.262-12.81-6.34-19.23
		l-3.49-10.93l-3.441-10.95c-1.148-3.65-2.25-7.31-3.379-10.97c-1.121-3.66-2.26-7.31-3.361-10.97L52.895,36.6l-1.65-5.5l-1.33-4.55
		c0.1-0.07,0.211-0.15,0.33-0.22c0.83-0.53,1.93-1.04,3.051-1.49c2.27-0.92,4.74-1.67,7.229-2.32c5-1.27,10.16-2.18,15.342-2.82
		c2.578-0.32,5.18-0.59,7.76-0.78c2.58-0.2,5.148-0.3,7.68-0.35c2.52-0.02,5.039,0.01,7.311,0.25c0.309,0.03,0.629,0.07,0.93,0.11
		c0.1,6.52,0.33,13.05,0.58,19.56c0.33,7.58,0.689,15.15,1.199,22.72c0.49,7.57,1.08,15.14,1.801,22.71
		c0.66,6.79,1.369,13.58,2.34,20.37c0.1,0.77,0.209,1.53,0.33,2.3v0.01l-0.33,2.02l3.039,0.56c2.111,0.389,4.189,0.77,6.24,1.19
		c2.061,0.43,4.09,0.89,6.1,1.4c4.01,1.02,7.92,2.22,11.73,3.64s7.52,3.03,11.109,4.85c1.801,0.91,3.57,1.87,5.301,2.891
		c0.869,0.5,1.73,1.02,2.58,1.55l1.279,0.8l1.271,0.83c7.369,4.86,13.949,10.88,19.488,17.76c2.75,3.46,5.281,7.12,7.471,10.99
		c2.221,3.851,4.109,7.891,5.699,12.07C189.955,175.51,191.824,184.44,192.154,193.5z"/>
	<path fill="#231F20" d="M196.994,163.71c2.91,9.7,4.141,19.83,3.73,29.82c-0.4,10-2.48,19.85-5.98,29.1
		c-1.76,4.62-3.879,9.1-6.33,13.37c-1.209,2.13-2.529,4.23-3.9,6.25c-1.398,2.04-2.84,4.02-4.369,5.94
		c-6.141,7.66-13.439,14.399-21.66,19.77c-4.109,2.67-8.43,5.04-12.92,7.04c-4.49,1.99-9.141,3.61-13.9,4.88
		c-9.51,2.5-19.439,3.49-29.311,2.86c-9.869-0.62-19.67-2.87-28.889-6.66c-4.611-1.89-9.061-4.17-13.32-6.8
		c-4.24-2.62-8.301-5.6-12.08-8.9c-7.57-6.6-14.09-14.49-19.1-23.29c-1.26-2.189-2.42-4.45-3.49-6.74
		c-1.07-2.3-2.041-4.65-2.91-7.03c-1.75-4.771-3.109-9.68-4.029-14.69c-0.932-5-1.461-10.09-1.531-15.189
		c-0.07-5.11,0.26-10.221,1.051-15.28c0.789-5.05,1.98-10.04,3.609-14.9c1.631-4.85,3.68-9.56,6.09-14.08
		c0.6-1.13,1.23-2.24,1.881-3.34c0.65-1.09,1.34-2.17,2.059-3.271l0.5-0.739l0.561-0.82c0.371-0.52,0.74-1.039,1.111-1.56
		c0.76-1.02,1.539-2.04,2.34-3.03c3.219-3.97,6.809-7.64,10.719-10.88c7.211-5.99,15.48-10.68,24.291-13.32
		c0.27,0.86,0.529,1.73,0.789,2.6l1.451-3.24l2.75-0.94c0.289,0.85,0.58,1.7,0.869,2.55l0.76,2.2l-2.209,1.05h-0.01
		c-1.932,1.34-3.83,2.66-5.691,4.02c-1.84,1.37-3.65,2.76-5.4,4.21c-3.488,2.89-6.789,5.94-9.85,9.18
		c-3.049,3.25-5.9,6.66-8.49,10.24c-0.639,0.9-1.279,1.8-1.898,2.72l-0.92,1.38l-0.9,1.42c-0.58,0.91-1.141,1.85-1.711,2.81
		c-0.561,0.95-1.09,1.91-1.609,2.88c-2.1,3.88-3.881,7.93-5.311,12.101c-1.43,4.16-2.539,8.439-3.289,12.8
		c-0.73,4.35-1.15,8.76-1.191,13.18c-0.029,4.43,0.281,8.86,0.941,13.25c0.67,4.39,1.689,8.73,3.039,12.97
		c1.371,4.24,3.07,8.371,5.1,12.35c4.07,7.95,9.441,15.29,15.932,21.55c3.238,3.14,6.738,6.01,10.479,8.59
		c3.721,2.58,7.67,4.86,11.781,6.8c8.219,3.89,17.148,6.38,26.27,7.31c9.119,0.94,18.43,0.33,27.391-1.82
		c4.488-1.06,8.879-2.52,13.119-4.33c4.25-1.81,8.35-3.97,12.23-6.49c7.76-5,14.67-11.33,20.27-18.69
		c1.391-1.83,2.73-3.72,3.961-5.66c1.238-1.97,2.379-3.96,3.449-6s2.029-4.13,2.91-6.26c0.869-2.12,1.67-4.28,2.35-6.46
		c2.77-8.75,3.93-17.94,3.58-26.99c-0.33-9.06-2.199-17.99-5.381-26.35c-1.59-4.18-3.479-8.22-5.699-12.07
		c-2.189-3.87-4.721-7.53-7.471-10.99c-5.539-6.88-12.119-12.899-19.488-17.76l-1.271-0.83l-1.279-0.8
		c-0.85-0.53-1.711-1.05-2.58-1.55c-1.73-1.021-3.5-1.98-5.301-2.891c-3.59-1.819-7.299-3.43-11.109-4.85s-7.721-2.62-11.73-3.64
		c-2.01-0.51-4.039-0.97-6.1-1.4c-2.051-0.42-4.129-0.801-6.24-1.19l-3.039-0.56l0.33-2.02v-0.01c-0.121-0.77-0.23-1.53-0.33-2.3
		l2.949-0.43l2.711,2.58c0.09-1.03,0.18-2.061,0.27-3.09c1.25-0.18,2.52-0.32,3.789-0.41c2.281-0.181,4.57-0.21,6.871-0.15
		c4.59,0.141,9.18,0.75,13.699,1.77s8.961,2.48,13.23,4.33c2.141,0.92,4.24,1.95,6.279,3.06c1.031,0.55,2.041,1.14,3.041,1.73
		c0.5,0.31,0.99,0.61,1.49,0.92l1.439,0.94l0.02,0.01c8.5,5.67,16.09,12.78,22.15,21.01c3.061,4.09,5.711,8.47,8,13.009
		C193.664,154.13,195.555,158.86,196.994,163.71z"/>
	<path fill="#231F20" d="M112.115,16.21c-0.021,0.2-0.051,0.38-0.092,0.58l0.121-1.4c0.01,0.11,0.01,0.21,0.01,0.32
		C112.154,15.88,112.135,16.04,112.115,16.21z"/>
	<path fill="#231F20" d="M111.395,103.35c-0.09,1.03-0.18,2.06-0.27,3.09l-2.711-2.58C109.404,103.66,110.395,103.49,111.395,103.35
		z"/>
	<polygon fill="#231F20" points="99.664,16.4 99.674,16.44 99.664,16.43 	"/>
	<polygon fill="#231F20" points="99.674,16.44 99.674,16.46 99.664,16.43 	"/>
	<polygon fill="#231F20" points="99.664,16.4 99.664,16.43 99.654,16.38 	"/>
	<path fill="#231F20" d="M99.504,15.76v-0.79l0.09-0.45l-0.02,0.17c-0.02,0.15-0.029,0.28-0.029,0.46c-0.01,0.21,0,0.38,0.02,0.62
		c0.01,0.12,0.029,0.24,0.051,0.36l0.039,0.25l0.01,0.05l0.01,0.03c0.031,0.12,0.09,0.36,0.141,0.48
		c0.051,0.16,0.119,0.33,0.189,0.48c0.141,0.3,0.301,0.57,0.451,0.79c0.639,0.87,1.068,1.06,1.25,1.17l-0.201-0.06
		c-0.49-0.15-1.189-0.29-1.959-0.39C99.523,17.88,99.514,16.82,99.504,15.76z"/>
	<path fill="#231F20" d="M73.455,111.58l-1.451,3.24c-0.26-0.87-0.52-1.74-0.789-2.6C71.955,111.98,72.705,111.77,73.455,111.58z"/>
	<polygon fill="#231F20" points="49.535,25.4 49.555,25.47 49.545,25.46 	"/>
	<polygon fill="#231F20" points="49.555,25.48 49.545,25.46 49.555,25.47 	"/>
	<polygon fill="#231F20" points="49.523,25.38 49.535,25.4 49.523,25.39 	"/>
	<path fill="#231F20" d="M49.434,25.12l-0.049-0.11l-0.041-0.08l0.15,0.2l0.141,0.46l0.279,0.96c-0.26,0.18-0.449,0.34-0.5,0.38
		c-0.029,0.01,0.051-0.04,0.15-0.46c0.051-0.21,0.07-0.51,0.02-0.83l-0.01-0.06l-0.02-0.1v-0.01l-0.02-0.07l-0.012-0.02v-0.02
		l-0.01-0.02L49.434,25.12z"/>
	<path fill="#231F20" d="M43.215,27.66l0.34,0.74c-0.061-0.1-0.121-0.19-0.18-0.3l-0.021-0.04L43.215,27.66z"/>
	<path fill="#231F20" d="M101.834,19.44l0.031,0.01l-0.012-0.01H101.834z M112.145,15.39l-0.121,1.4c0.041-0.2,0.07-0.38,0.092-0.58
		c0.02-0.17,0.039-0.33,0.039-0.5c0.369,7.46,0.539,14.94,0.689,22.41c0.111,7.59,0.191,15.17,0.121,22.76
		c-0.061,7.58-0.201,15.17-0.48,22.77c-0.25,6.56-0.561,13.12-1.09,19.7c-1,0.14-1.99,0.31-2.98,0.51l-2.949,0.43
		c-0.971-6.79-1.68-13.58-2.34-20.37c-0.721-7.57-1.311-15.14-1.801-22.71c-0.51-7.57-0.869-15.14-1.199-22.72
		c-0.25-6.51-0.48-13.04-0.58-19.56c0.77,0.1,1.469,0.24,1.959,0.39l0.201,0.06c-0.182-0.11-0.611-0.3-1.25-1.17
		c-0.15-0.22-0.311-0.49-0.451-0.79c-0.07-0.15-0.139-0.32-0.189-0.48c-0.051-0.12-0.109-0.36-0.141-0.48v-0.02l-0.01-0.04
		l-0.01-0.02l-0.039-0.25c-0.021-0.12-0.041-0.24-0.051-0.36c-0.02-0.24-0.029-0.41-0.02-0.62c0-0.18,0.01-0.31,0.029-0.46
		l0.02-0.17l-0.09,0.45v0.79c0.01,1.06,0.02,2.12,0.041,3.17c-0.301-0.04-0.621-0.08-0.93-0.11c-2.271-0.24-4.791-0.27-7.311-0.25
		c-2.531,0.05-5.1,0.15-7.68,0.35c-2.58,0.19-5.182,0.46-7.76,0.78c-5.182,0.64-10.342,1.55-15.342,2.82
		c-2.488,0.65-4.959,1.4-7.229,2.32c-1.121,0.45-2.221,0.96-3.051,1.49c-0.119,0.07-0.23,0.15-0.33,0.22l-0.279-0.96l-0.141-0.46
		l-0.15-0.2l0.041,0.08l0.049,0.11l0.08,0.22l0.01,0.02v0.02v0.01l0.012,0.01l0.01,0.06l0.01,0.02l0.02,0.1l0.01,0.06
		c0.051,0.32,0.031,0.62-0.02,0.83c-0.1,0.42-0.18,0.47-0.15,0.46c0.051-0.04,0.24-0.2,0.5-0.38l1.33,4.55l1.65,5.5l3.299,10.99
		c1.102,3.66,2.24,7.31,3.361,10.97c1.129,3.66,2.23,7.32,3.379,10.97l3.441,10.95l3.49,10.93c2.078,6.42,4.17,12.84,6.34,19.23
		l-2.75,0.94c-0.75,0.19-1.5,0.4-2.24,0.64c-1.961-6.45-4.01-12.87-6.061-19.3L61.625,82l-3.602-10.89
		c-1.189-3.64-2.43-7.26-3.639-10.88c-1.23-3.63-2.43-7.26-3.68-10.87l-3.73-10.86l-1.859-5.43l-1.74-4.97
		c0.059,0.11,0.119,0.2,0.18,0.3l-0.34-0.74l0.139,0.4l-0.068-0.15l-0.051-0.1l-0.061-0.12c-0.039-0.11-0.08-0.23-0.119-0.34
		l-0.08-0.24l-0.01-0.06v-0.01l-0.01-0.03c-0.012-0.04-0.031-0.1-0.051-0.21l-0.02-0.12c-0.111-0.65-0.061-1.29,0.07-1.83
		c0.26-1.07,0.709-1.71,1.09-2.22c0.789-0.99,1.5-1.54,2.189-2.06c1.381-1,2.689-1.71,4-2.39c2.619-1.31,5.23-2.37,7.859-3.34
		c5.25-1.95,10.58-3.49,15.961-4.82c2.709-0.67,5.42-1.26,8.17-1.76c2.75-0.51,5.52-0.95,8.359-1.24c1.41-0.15,2.85-0.27,4.301-0.34
		c1.459-0.07,2.949-0.11,4.5-0.06c1.57,0.07,3.15,0.17,5.08,0.59c0.49,0.11,1.01,0.25,1.58,0.44c0.58,0.2,1.219,0.45,1.99,0.89
		c0.389,0.22,0.809,0.49,1.279,0.88c0.459,0.38,0.98,0.89,1.49,1.6c0.25,0.36,0.49,0.77,0.699,1.23c0.1,0.23,0.201,0.47,0.281,0.72
		c0.09,0.24,0.209,0.76,0.209,0.77l0.01,0.01l0.051,0.27l0.02,0.12c0.029,0.16,0.051,0.32,0.061,0.49
		c0.029,0.32,0.039,0.57,0.029,0.86l-0.01,0.22C112.154,15.6,112.154,15.5,112.145,15.39z"/>
	<path fill="#231F20" d="M109.811,256.099c-23.047,0-44.729-0.939-61.051-2.646c-8.016-0.838-14.334-1.82-18.781-2.919
		c-4.559-1.126-8.777-2.643-8.777-6.082c0-3.456,3.926-5.422,14.488-7.254l0.91,5.246c-4.381,0.76-6.955,1.474-8.443,2.008
		c2.766,0.989,9.275,2.596,24.238,4.012c15.742,1.49,36.135,2.311,57.416,2.311c21.285,0,41.676-0.82,57.418-2.311
		c14.99-1.419,21.496-3.028,24.252-4.017c-1.576-0.565-4.385-1.33-9.338-2.152l0.871-5.252c11.232,1.863,15.408,3.871,15.408,7.409
		c0,3.438-4.219,4.955-8.777,6.082c-4.447,1.099-10.768,2.082-18.781,2.919C154.541,255.159,132.859,256.099,109.811,256.099z"/>
	<polygon fill="#231F20" points="112.475,253.437 118.365,351.71 101.26,351.71 107.15,253.437 	"/>
	<path fill="#231F20" d="M118.365,128c4.662,0.314,9.249,1.49,13.699,3.011c4.436,1.581,8.736,3.619,12.756,6.15
		c4.049,2.488,7.766,5.522,11.158,8.883c3.367,3.39,6.32,7.191,8.857,11.241c2.48,4.086,4.536,8.421,6.123,12.907
		c1.535,4.501,2.721,9.112,3.391,13.79c1.42,9.342,1.261,18.817-0.176,28.018c-0.225-9.307-0.955-18.527-2.895-27.452
		c-1.006-4.449-2.211-8.839-3.877-13.049c-1.611-4.224-3.581-8.302-5.971-12.116c-2.324-3.854-5.088-7.432-8.17-10.715
		c-3.051-3.318-6.51-6.25-10.172-8.924c-3.691-2.633-7.627-4.97-11.77-6.927C127.186,130.838,122.866,129.182,118.365,128z"/>
</g>
</svg>
