<?xml version="1.0" encoding="utf-8"?>
<!-- Generator: Adobe Illustrator 15.0.0, SVG Export Plug-In . SVG Version: 6.00 Build 0)  -->
<!DOCTYPE svg PUBLIC "-//W3C//DTD SVG 1.1//EN" "http://www.w3.org/Graphics/SVG/1.1/DTD/svg11.dtd">
<svg version="1.1" id="Layer_1" xmlns="http://www.w3.org/2000/svg" xmlns:xlink="http://www.w3.org/1999/xlink" x="0px" y="0px"
	 width="1280px" height="800px" viewBox="0 0 1280 800" enable-background="new 0 0 1280 800" xml:space="preserve">
<g>
	<polyline fill="#FFFFFF" points="1279.69,796 -0.312,796 -0.312,-4 1279.69,-4 1279.69,796 	"/>
	<g>
		<path fill="#BDBDC6" d="M401.798,490.378h-49.512v-19.512h8.555v-42.48h-8.848v-19.512h80.273v26.836h-21.68v-7.324h-18.223
			v12.539h14.062v16.582h-14.062v13.359h9.434V490.378z"/>
		<path fill="#BDBDC6" d="M483.653,490.378h-44.297v-19.512h6.621v-42.48h-6.621v-19.512h44.297c3.984,0,7.676,0.069,11.074,0.205
			c3.398,0.137,6.308,0.333,8.73,0.586c2.422,0.254,4.648,0.596,6.68,1.025c5.703,1.211,10.332,3.848,13.887,7.91
			c3.594,4.141,5.391,9.023,5.391,14.648c0,4.219-1.094,8.047-3.281,11.484c-2.188,3.398-5.06,5.899-8.613,7.5l11.25,18.633h5.859
			v19.512h-29.355l-17.754-33.281h-10.02v13.77h6.152V490.378z M477.501,426.746v15.527h3.516c4.608,0,7.734-0.136,9.375-0.41
			c1.758-0.273,3.242-1.055,4.453-2.344c1.21-1.21,1.816-2.871,1.816-4.98s-0.606-3.789-1.816-5.039
			c-1.211-1.289-2.754-2.07-4.629-2.344c-1.797-0.273-5.078-0.41-9.844-0.41H477.501z"/>
		<path fill="#BDBDC6" d="M619.767,490.378h-77.754v-19.512h6.328v-42.48h-6.445v-19.512h77.871v26.074H598.38v-6.562h-18.516
			v12.539h16.113v16.582h-16.113v13.359h18.516v-6.562h21.387V490.378z"/>
		<path fill="#BDBDC6" d="M663.946,490.378h-33.457v-19.512h7.148v-42.48h-7.148v-19.512h38.613l29.648,42.598v-23.086h-6.621
			v-19.512h32.871v19.512h-7.09v63.047h-26.836l-34.336-49.277v28.711h7.207V490.378z"/>
		<path fill="#BDBDC6" d="M799.063,454.46l21.152,7.441c-1.797,8.711-5.918,15.84-12.363,21.387
			c-6.524,5.586-15.508,8.379-26.953,8.379c-15.625,0-27.188-4.082-34.688-12.246c-7.539-8.125-11.309-18.047-11.309-29.766
			c0-11.796,3.691-21.816,11.074-30.059c7.383-8.242,16.972-12.363,28.77-12.363c9.57,0,17.363,2.364,23.379,7.09v-5.449h19.57
			v29.766h-20.332c-1.055-3.71-2.833-6.64-5.332-8.789c-2.5-2.109-5.353-3.164-8.555-3.164c-8.828,0-13.242,7.598-13.242,22.793
			c0,15.234,4.57,22.852,13.711,22.852C791.953,472.332,796.992,466.375,799.063,454.46z"/>
		<path fill="#BDBDC6" d="M873.536,490.378h-42.891v-19.512h6.152v-42.48h-6.27v-19.512h43.008v19.512h-5.215v12.422h18.867v-12.422
			h-5.273v-19.512h42.949v19.512h-6.152v42.48h6.152v19.512h-42.949v-19.512h5.273v-13.359h-18.867v13.359h5.215V490.378z"/>
	</g>
	<g>
		<path fill="#BDBDC6" d="M516.085,606.312h-8.32v-15.469h36.445c0,8.906-0.625,15.527-1.875,19.863
			c-1.211,4.18-3.75,8.418-7.617,12.715c-3.789,4.258-8.379,7.364-13.77,9.316s-11.172,2.93-17.344,2.93
			c-9.18,0-17.52-1.523-25.02-4.57c-7.539-2.968-13.359-7.89-17.461-14.766c-4.141-6.757-6.211-14.335-6.211-22.734
			c0-12.695,4.18-22.929,12.539-30.703c8.281-7.773,18.437-11.66,30.469-11.66c10.039,0,17.909,2.442,23.613,7.324v-5.684h19.629
			v28.477h-19.629c-1.72-3.516-3.955-6.171-6.709-7.969c-2.754-1.796-5.968-2.695-9.639-2.695c-5.156,0-8.945,1.68-11.367,5.039
			c-2.383,3.36-3.574,9.532-3.574,18.516c0,8.946,1.25,15.02,3.75,18.223c2.539,3.243,6.23,4.863,11.074,4.863
			C512.413,617.328,516.085,613.656,516.085,606.312z"/>
		<path fill="#BDBDC6" d="M599.933,634.378h-44.297v-19.512h6.621v-42.48h-6.621v-19.512h44.297c3.984,0,7.676,0.069,11.074,0.205
			c3.398,0.137,6.308,0.333,8.73,0.586c2.422,0.254,4.648,0.596,6.68,1.025c5.703,1.211,10.332,3.848,13.887,7.91
			c3.594,4.141,5.391,9.023,5.391,14.648c0,4.219-1.094,8.047-3.281,11.484c-2.188,3.398-5.06,5.899-8.613,7.5l11.25,18.633h5.859
			v19.512h-29.355L603.8,601.097h-10.02v13.77h6.152V634.378z M593.78,570.746v15.527h3.516c4.608,0,7.734-0.136,9.375-0.41
			c1.758-0.273,3.242-1.055,4.453-2.344c1.21-1.21,1.816-2.871,1.816-4.98s-0.606-3.789-1.816-5.039
			c-1.211-1.289-2.754-2.07-4.629-2.344c-1.797-0.273-5.078-0.41-9.844-0.41H593.78z"/>
		<path fill="#BDBDC6" d="M736.046,634.378h-77.754v-19.512h6.328v-42.48h-6.445v-19.512h77.871v26.074h-21.387v-6.562h-18.516
			v12.539h16.113v16.582h-16.113v13.359h18.516v-6.562h21.387V634.378z"/>
		<path fill="#BDBDC6" d="M809.054,634.378h-44.531v-19.512h6.562v-12.949l-20.566-29.531h-5.566v-19.512h42.598v19.512h-4.863
			l8.672,16.641l10.488-16.641h-4.98v-19.512h31.348v19.512h-5.098l-20.508,29.531v12.949h6.445V634.378z"/>
	</g>
	<path fill="#D6D6D7" d="M642.719,287.917c-20.219,0-36.606,2.546-36.606,5.688s16.388,5.69,36.606,5.69
		c20.215,0,36.604-2.547,36.604-5.69S662.934,287.917,642.719,287.917"/>
	<polygon fill="#231F20" points="695.08,241.175 709.979,295.838 699.617,295.838 691.781,241.865 	"/>
	<polygon fill="#231F20" points="596.666,241.865 587.395,295.838 579.9,295.838 593.367,241.175 	"/>
	<path fill="#F5F5F5" d="M689.305,221.405c0.016,1.237-0.014,2.512-0.105,3.763c-0.334,5.03-1.51,9.999-3.475,14.649
		s-4.711,8.982-8.086,12.76c-3.377,3.786-7.383,7.018-11.812,9.506c-4.43,2.496-9.277,4.256-14.293,5.174
		c-2.51,0.455-5.059,0.713-7.609,0.751c-2.562,0.046-5.121-0.114-7.654-0.493c-5.061-0.743-9.998-2.336-14.557-4.703
		c-4.561-2.359-8.725-5.485-12.289-9.21c-3.566-3.717-6.525-8.026-8.703-12.714c-2.178-4.682-3.574-9.741-4.104-14.9
		c-0.137-1.281-0.219-2.594-0.244-3.868c-0.029-1.328-0.006-2.61,0.068-3.907c0.152-2.595,0.525-5.182,1.102-7.715
		c0.576-2.542,1.365-5.03,2.365-7.442c0.988-2.405,2.186-4.734,3.566-6.957l1.068-1.608l-1.652-1.16l-27.416-19.171
		c0.174-0.334,0.402-0.705,0.645-1.077c0.744-1.115,1.639-2.261,2.57-3.36c1.889-2.215,3.977-4.332,6.154-6.343
		c2.168-2.002,4.445-3.914,6.789-5.598c1.162-0.843,2.359-1.632,3.506-2.246c0.098-0.053,0.197-0.106,0.295-0.159l16.326,27.72
		l2.381,3.953l3.953-2.625c1.881-1.252,3.838-2.382,5.871-3.346c2.033-0.979,4.135-1.812,6.281-2.473
		c2.154-0.66,4.348-1.184,6.578-1.533c1.115-0.174,2.23-0.303,3.359-0.394c0.562-0.046,1.123-0.084,1.686-0.106l0.85-0.03
		l0.865-0.008c4.953-0.054,9.914,0.713,14.625,2.275c4.711,1.556,9.172,3.915,13.141,6.934c3.967,3.02,7.449,6.707,10.24,10.856
		s4.895,8.77,6.184,13.617c0.645,2.428,1.092,4.9,1.328,7.404c0.061,0.63,0.105,1.259,0.135,1.881l0.047,0.941l0.014,0.455
		L689.305,221.405z"/>
	<path fill="#BDBDC6" d="M689.283,220.442l-0.047-0.941c-0.029-0.622-0.074-1.251-0.135-1.881c-0.172-1.83-0.461-3.643-0.854-5.435
		c-1.205,0.093-2.445-0.009-3.703-0.322c-5.49-0.398-10.945-0.684-16.465-0.841c-3.309-0.094-6.631-0.337-9.941-0.29
		c-3.219,0.045-6.109,0.74-9.447,1.091c-1.674,0.176-3.266-0.203-4.695-0.942c-8.34,0.148-16.672-0.229-25.012-0.283
		c-3.859-0.024-7.723,0.013-11.58,0.148c-3.092,0.109-5.449,1.361-9.256,1.361c-0.312,0-0.621-0.021-0.928-0.048
		c-0.393,2.031-0.658,4.089-0.779,6.152c-0.074,1.297-0.098,2.579-0.068,3.907c0.025,1.274,0.107,2.587,0.244,3.868
		c0.529,5.159,1.926,10.219,4.104,14.9c2.178,4.688,5.137,8.997,8.703,12.714c3.564,3.725,7.729,6.851,12.289,9.21
		c4.559,2.367,9.496,3.96,14.557,4.703c2.533,0.379,5.092,0.539,7.654,0.493c2.551-0.038,5.1-0.296,7.609-0.751
		c5.016-0.918,9.863-2.678,14.293-5.174c4.43-2.488,8.436-5.72,11.812-9.506c3.375-3.777,6.121-8.109,8.086-12.76
		s3.141-9.619,3.475-14.649c0.092-1.251,0.121-2.525,0.105-3.763l-0.008-0.508L689.283,220.442z"/>
	<path fill="#231F20" d="M616.889,174.576l2.479,3.793l-6.34-1.328C614.27,176.161,615.561,175.342,616.889,174.576z"/>
	<path fill="#231F20" d="M600.768,149.913c0.051,0.106,0.098,0.204,0.137,0.311l-0.275-0.531l0.092,0.137L600.768,149.913z"/>
	<path fill="#231F20" d="M600.068,193.928l0.584,2.77l-1.66-1.055c0.348-0.576,0.705-1.153,1.068-1.715H600.068z"/>
	<path fill="#231F20" d="M594.85,154.093l0.031,0.03L594.85,154.093z"/>
	<path fill="#231F20" d="M594.371,153.577l-0.182-0.311l-0.092-0.221l0.084,0.175c0.037,0.083,0.076,0.145,0.137,0.235
		c0.061,0.099,0.113,0.174,0.205,0.288l0.129,0.151l0.039,0.038l0.135,0.137l0.008,0.008l0.016,0.015l0.031,0.03
		c0.111,0.092,0.234,0.19,0.363,0.273l0.152,0.083l0.121,0.068l0.227,0.099c0.576,0.205,0.834,0.183,0.979,0.175l-0.066,0.022
		c-0.32,0.099-0.768,0.296-1.223,0.531L594.371,153.577z"/>
	<path fill="#231F20" d="M571.074,177.997l-0.09-0.061l-0.236-0.167l-0.152-0.129l-0.029-0.022l-0.008-0.008l-0.129-0.129
		l-0.061-0.068c-0.35-0.372-0.584-0.804-0.729-1.191c-0.281-0.796-0.252-1.343-0.229-1.79c0.084-0.872,0.281-1.403,0.463-1.919
		c0.387-0.994,0.812-1.769,1.252-2.519c0.889-1.487,1.844-2.814,2.83-4.097c1.986-2.564,4.119-4.932,6.35-7.2
		c2.236-2.26,4.582-4.423,7.131-6.455c1.289-1.009,2.609-1.988,4.127-2.913c0.773-0.455,1.562-0.903,2.625-1.312
		c0.273-0.106,0.561-0.205,0.902-0.296c0.342-0.084,0.721-0.167,1.236-0.205c0.137-0.008,0.26-0.015,0.418-0.015l0.229,0.007
		l0.258,0.023c0.082,0.007,0.172,0.022,0.271,0.037c0.1,0.016,0.189,0.031,0.297,0.054c0.219,0.053,0.424,0.113,0.666,0.204
		c0.115,0.046,0.229,0.1,0.357,0.167l0.189,0.092c0.061,0.037,0.107,0.061,0.213,0.129c0.174,0.113,0.35,0.242,0.508,0.387
		l0.084,0.068l0.016,0.008c0.168,0.167,0.197,0.197,0.197,0.197l0.014,0.015l0.047,0.054l0.182,0.204
		c0.115,0.152,0.197,0.266,0.287,0.41c0.061,0.099,0.107,0.182,0.16,0.272l-0.092-0.137l0.275,0.531
		c-0.039-0.106-0.086-0.204-0.137-0.311l-0.047-0.084l16.168,24.747c-1.328,0.766-2.619,1.585-3.861,2.465l6.34,1.328l-2.479-3.793
		c1.016-0.592,2.062-1.146,3.117-1.67c2.434-1.183,4.961-2.185,7.555-2.988c2.58-0.812,5.242-1.389,7.922-1.783
		c1.334-0.189,2.684-0.334,4.035-0.432c0.674-0.046,1.35-0.076,2.025-0.099l1.01-0.023l0.992-0.007h0.023
		c5.924,0.045,11.857,1.069,17.441,3.041c5.59,1.966,10.84,4.863,15.467,8.527c4.637,3.656,8.656,8.079,11.852,13.025
		c3.191,4.946,5.561,10.416,6.971,16.121c0.697,2.853,1.168,5.766,1.396,8.687c0.053,0.729,0.098,1.464,0.121,2.192l0.029,1.1
		l0.008,0.569l-0.008,0.516c0,1.487-0.068,2.936-0.197,4.393c-0.5,5.834-1.973,11.584-4.346,16.925
		c-2.367,5.341-5.621,10.271-9.582,14.543c-3.953,4.271-8.609,7.882-13.723,10.636c-5.107,2.762-10.676,4.666-16.395,5.599
		c-2.861,0.47-5.75,0.698-8.641,0.698c-2.883-0.008-5.773-0.243-8.627-0.714c-5.697-0.948-11.227-2.853-16.287-5.591
		c-5.066-2.746-9.664-6.326-13.547-10.553c-3.893-4.218-7.078-9.08-9.387-14.322c-2.305-5.234-3.725-10.856-4.193-16.538
		c-0.121-1.427-0.176-2.837-0.184-4.286c0-1.396,0.055-2.837,0.166-4.248c0.229-2.838,0.691-5.659,1.381-8.421
		c1.215-4.863,3.156-9.536,5.707-13.83l1.66,1.055l-0.584-2.77h-0.008c-0.363,0.562-0.721,1.139-1.068,1.715l-27.707-17.524
		l0.244,0.122l-0.402-0.22l0.137,0.091l-0.121-0.068L571.074,177.997z M611.76,183.095l-16.326-27.72
		c0.455-0.235,0.902-0.433,1.223-0.531l0.066-0.022h0.023c0.137-0.016,0.137-0.03,0.105-0.022l-0.129,0.022
		c-0.145,0.008-0.402,0.03-0.979-0.175l-0.227-0.099l-0.121-0.068l-0.152-0.083c-0.129-0.083-0.252-0.182-0.363-0.273l-0.031-0.03
		l-0.016-0.015v-0.008h-0.008l-0.135-0.137l-0.039-0.038l-0.129-0.151c-0.092-0.114-0.145-0.189-0.205-0.288
		c-0.061-0.091-0.1-0.152-0.137-0.235l-0.084-0.175l0.092,0.221l0.182,0.311l1.062,1.798c-0.098,0.053-0.197,0.106-0.295,0.159
		c-1.146,0.614-2.344,1.403-3.506,2.246c-2.344,1.684-4.621,3.596-6.789,5.598c-2.178,2.011-4.266,4.128-6.154,6.343
		c-0.932,1.1-1.826,2.245-2.57,3.36c-0.242,0.372-0.471,0.743-0.645,1.077l-1.215-0.85l-0.197-0.137l-0.197-0.083l0.107,0.053
		l0.082,0.038l0.1,0.068l0.182,0.129l0.061,0.061l0.016,0.016l0.021,0.016l0.076,0.075l0.047,0.046
		c0.211,0.228,0.355,0.493,0.432,0.698c0.145,0.432,0.115,0.584,0.115,0.652c-0.008,0.105,0.037-0.106,0.135-0.304
		c0.061-0.145,0.145-0.304,0.236-0.479l27.416,19.171l1.652,1.16l-1.068,1.608c-1.381,2.223-2.578,4.552-3.566,6.957
		c-1,2.412-1.789,4.9-2.365,7.442c-0.576,2.533-0.949,5.12-1.102,7.715c-0.074,1.297-0.098,2.579-0.068,3.907
		c0.025,1.274,0.107,2.587,0.244,3.868c0.529,5.159,1.926,10.219,4.104,14.9c2.178,4.688,5.137,8.997,8.703,12.714
		c3.564,3.725,7.729,6.851,12.289,9.21c4.559,2.367,9.496,3.96,14.557,4.703c2.533,0.379,5.092,0.539,7.654,0.493
		c2.551-0.038,5.1-0.296,7.609-0.751c5.016-0.918,9.863-2.678,14.293-5.174c4.43-2.488,8.436-5.72,11.812-9.506
		c3.375-3.777,6.121-8.109,8.086-12.76s3.141-9.619,3.475-14.649c0.092-1.251,0.121-2.525,0.105-3.763l-0.008-0.508l-0.014-0.455
		l-0.047-0.941c-0.029-0.622-0.074-1.251-0.135-1.881c-0.236-2.504-0.684-4.977-1.328-7.404c-1.289-4.848-3.393-9.468-6.184-13.617
		s-6.273-7.837-10.24-10.856c-3.969-3.019-8.43-5.378-13.141-6.934c-4.711-1.562-9.672-2.329-14.625-2.275l-0.865,0.008l-0.85,0.03
		c-0.562,0.022-1.123,0.061-1.686,0.106c-1.129,0.091-2.244,0.22-3.359,0.394c-2.23,0.35-4.424,0.873-6.578,1.533
		c-2.146,0.66-4.248,1.494-6.281,2.473c-2.033,0.964-3.99,2.094-5.871,3.346l-3.953,2.625L611.76,183.095z"/>
	<polygon fill="#231F20" points="574.412,173.453 574.396,173.438 574.404,173.438 	"/>
	<path fill="#231F20" d="M574.26,173.309l1.215,0.85c-0.092,0.175-0.176,0.334-0.236,0.479c-0.098,0.197-0.143,0.409-0.135,0.304
		c0-0.068,0.029-0.221-0.115-0.652c-0.076-0.205-0.221-0.471-0.432-0.698l-0.047-0.046l-0.076-0.075l-0.021-0.016l-0.008-0.016
		h-0.008l-0.061-0.061l-0.182-0.129l-0.1-0.068l-0.082-0.038l-0.107-0.053l0.197,0.083L574.26,173.309z"/>
	<polygon fill="#231F20" points="571.529,178.24 571.285,178.118 571.264,178.111 571.127,178.021 	"/>
	<path fill="#231F20" d="M643.793,246.896c-14.598,0-28.33-0.595-38.672-1.676c-5.088-0.532-9.102-1.156-11.932-1.855
		c-3.016-0.745-5.809-1.768-5.809-4.174c0-2.393,2.561-3.726,9.447-4.92l0.689,3.979c-1.963,0.341-3.34,0.664-4.299,0.94
		c2.135,0.612,6.346,1.465,14.516,2.229c9.914,0.927,22.721,1.438,36.059,1.438c13.336,0,26.143-0.511,36.059-1.438
		c8.168-0.764,12.381-1.616,14.516-2.229c-1.049-0.301-2.592-0.659-4.855-1.034l0.66-3.985c7.314,1.214,10.033,2.573,10.033,5.02
		c0,2.406-2.793,3.429-5.811,4.174c-2.828,0.699-6.844,1.323-11.93,1.855C672.123,246.302,658.389,246.896,643.793,246.896z"/>
	<polygon fill="#231F20" points="645.812,244.877 650.281,307.069 637.305,307.069 641.773,244.877 	"/>
	<path fill="#A3A3AF" d="M688.328,212.569c0,2.789-20.422,5.051-45.609,5.051c-25.191,0-45.613-2.262-45.613-5.051
		c0-2.79,20.422-5.052,45.613-5.052C667.906,207.518,688.328,209.779,688.328,212.569z"/>
	<circle fill="#BDBDC6" cx="647.037" cy="193.705" r="3.244"/>
	<circle fill="#BDBDC6" cx="614.773" cy="197.06" r="1.746"/>
	<circle fill="#BDBDC6" cx="590.684" cy="169.095" r="2.4"/>
	<circle fill="#BDBDC6" cx="575.868" cy="141.72" r="4.741"/>
	<circle fill="#BDBDC6" cx="580.135" cy="127.306" r="2.086"/>
	<circle fill="#F5F5F5" cx="579.66" cy="126.706" r="0.475"/>
	<circle fill="#F5F5F5" cx="580.372" cy="127.544" r="0.237"/>
	<circle fill="#F5F5F5" cx="574.397" cy="140.536" r="1.472"/>
	<circle fill="#F5F5F5" cx="576.136" cy="142.274" r="0.267"/>
	<circle fill="#F5F5F5" cx="589.83" cy="168.43" r="0.98"/>
	<circle fill="#F5F5F5" cx="614.332" cy="196.655" r="0.439"/>
	<circle fill="#F5F5F5" cx="646.079" cy="192.81" r="0.958"/>
	<circle fill="#F5F5F5" cx="647.564" cy="194.232" r="0.527"/>
</g>
</svg>
