<?xml version="1.0" encoding="utf-8"?>
<!-- Generator: Adobe Illustrator 15.0.0, SVG Export Plug-In . SVG Version: 6.00 Build 0)  -->
<!DOCTYPE svg PUBLIC "-//W3C//DTD SVG 1.1//EN" "http://www.w3.org/Graphics/SVG/1.1/DTD/svg11.dtd">
<svg version="1.1" id="Layer_1" xmlns="http://www.w3.org/2000/svg" xmlns:xlink="http://www.w3.org/1999/xlink" x="0px" y="0px"
	 width="223px" height="339px" viewBox="0 0 223 339" enable-background="new 0 0 223 339" xml:space="preserve">
<g>
	<path fill="#D6D6D7" d="M109.586,304.463c-33.326,0-60.342,3.357-60.342,7.499c0,4.143,27.016,7.5,60.342,7.5
		c33.328,0,60.344-3.357,60.344-7.5C169.93,307.82,142.914,304.463,109.586,304.463"/>
	<polygon fill="#231F20" points="190.877,225.586 214.421,311.962 198.051,311.962 185.666,226.677 	"/>
	<polygon fill="#231F20" points="35.367,226.677 20.719,311.962 8.877,311.962 30.157,225.586 	"/>
	<path fill="#F5F5F5" d="M182.666,180.04c0.909,8.05,0.489,16.21-1.24,24.04c-1.72,7.83-4.73,15.32-8.83,22.11
		c-2.05,3.399-4.39,6.609-6.95,9.62c-0.64,0.759-1.3,1.49-1.97,2.22c-0.33,0.36-0.68,0.72-1.01,1.081l-1.051,1.07
		c-1.381,1.37-2.84,2.74-4.33,4.01c-6,5.12-12.779,9.26-20.051,12.2c-14.509,5.9-30.959,7.03-46.119,2.96
		c-7.569-2.02-14.83-5.26-21.359-9.64c-3.26-2.18-6.371-4.63-9.24-7.31c-2.9-2.69-5.56-5.601-7.97-8.73
		c-9.7-12.44-15.11-28.21-15.19-44.17c-0.03-3.99,0.279-7.99,0.9-11.94c0.609-3.96,1.559-7.87,2.81-11.68
		c1.271-3.811,2.83-7.53,4.7-11.1c1.88-3.58,4.04-7.01,6.469-10.26c1.211-1.61,2.521-3.21,3.841-4.7
		c1.381-1.561,2.771-3.01,4.25-4.42c2.95-2.82,6.11-5.43,9.48-7.76c3.38-2.33,6.95-4.39,10.68-6.16c2.8-1.33,5.681-2.49,8.642-3.48
		c0.979-0.34,1.969-0.65,2.969-0.94l2.24-0.25l-0.261-2.9c-0.42-4.62-1-9.2-1.6-13.78c-0.599-4.57-1.28-9.13-1.979-13.689
		c-0.721-4.55-1.471-9.09-2.262-13.63l-1.209-6.79l-0.529-2.84c0.109-0.02,0.229-0.05,0.34-0.07c1.949-0.43,4.16-0.77,6.38-1.01
		c4.479-0.46,9.109-0.69,13.749-0.68c4.61-0.03,9.261,0.19,13.73,0.64c2.23,0.23,4.439,0.56,6.391,0.98
		c0.12,0.03,0.229,0.05,0.35,0.08l-0.5,2.71l-1.16,6.67l-1.1,6.68l-1.049,6.69c-0.671,4.47-1.321,8.94-1.893,13.43
		c-0.479,3.72-0.929,7.44-1.289,11.18c-0.08,0.78-0.149,1.56-0.22,2.34l-0.62,2.68l2.779,0.51c3.73,0.681,7.4,1.63,10.971,2.86
		c3.57,1.24,7.04,2.74,10.379,4.5c3.331,1.76,6.521,3.77,9.551,6c3.021,2.24,5.85,4.68,8.521,7.35c5.8,5.85,10.6,12.63,14.159,19.98
		C179.485,164.069,181.756,171.99,182.666,180.04z"/>
	<path fill="#939598" d="M182.666,180.04c-0.91-8.05-3.181-15.971-6.701-23.34c-1.762-3.64-3.832-7.139-6.174-10.455
		c-2.424,0.685-5,0.751-7.289-0.093c-1.08-0.436-2.181-0.806-3.305-1.111c-0.504-0.107-0.876-0.188-1.141-0.248
		c-0.863-0.035-1.728-0.03-2.592,0.03c1.279-0.243,1.009-0.196-0.809,0.142c-4.839,1.031-9.595,2.168-14.506,2.842
		c-10.039,1.376-20.041,1.718-30.166,1.428c-10.159-0.29-20.342-0.482-30.446-1.636c-9.239-1.053-18.446-2.348-27.761-2.44
		c-2.24,3.062-4.254,6.273-6.012,9.622c-1.87,3.57-3.43,7.289-4.7,11.1c-1.251,3.811-2.2,7.72-2.81,11.68
		c-0.621,3.95-0.931,7.95-0.9,11.94c0.08,15.96,5.49,31.73,15.19,44.17c2.41,3.13,5.069,6.04,7.97,8.73
		c2.869,2.68,5.98,5.129,9.24,7.31c6.529,4.38,13.79,7.62,21.359,9.64c15.16,4.07,31.61,2.94,46.119-2.96
		c7.271-2.94,14.051-7.08,20.051-12.2c1.49-1.271,2.949-2.641,4.33-4.01l1.051-1.07c0.33-0.36,0.68-0.72,1.01-1.081
		c0.67-0.73,1.33-1.46,1.97-2.22c2.561-3.01,4.9-6.22,6.95-9.62c4.1-6.79,7.11-14.28,8.83-22.11
		C183.155,196.25,183.575,188.09,182.666,180.04z"/>
	<path fill="#231F20" d="M140.336,61.8l-0.102,0.39l-0.009,0.04c-0.06,0.18-0.11,0.35-0.18,0.52L140.336,61.8z"/>
	<path fill="#231F20" d="M128.525,62.18c0.471,1,0.87,1.3,1.04,1.48c0.12,0.1,0.181,0.14,0.2,0.17l-0.25-0.1
		c-0.47-0.18-1.25-0.42-2.08-0.61l0.72-3.95l0.091-0.47l0.139-0.33l-0.049,0.15c-0.051,0.15-0.08,0.27-0.12,0.45
		c-0.05,0.2-0.07,0.36-0.101,0.6c-0.01,0.12-0.02,0.24-0.02,0.36v0.09v0.19v0.01c0,0.06,0.01,0.4,0.039,0.56
		c0.021,0.18,0.061,0.35,0.1,0.52C128.306,61.63,128.416,61.93,128.525,62.18z"/>
	<path fill="#231F20" d="M140.535,60.74c-0.029,0.31-0.07,0.55-0.13,0.82c-0.05,0.23-0.1,0.42-0.171,0.63l0.102-0.39l-0.29,0.95
		c0.069-0.17,0.12-0.34,0.18-0.52l-1.53,6.13l-1.689,6.56l-1.75,6.54l-1.8,6.53c-1.24,4.35-2.491,8.69-3.821,13.02
		c-1.06,3.431-2.129,6.86-3.289,10.28c-1.021-0.2-2.05-0.38-3.08-0.54l-2.82-0.27c0.36-3.74,0.811-7.46,1.289-11.18
		c0.571-4.49,1.222-8.96,1.893-13.43l1.049-6.69l1.1-6.68l1.16-6.67l0.5-2.71c0.83,0.19,1.61,0.43,2.08,0.61l0.25,0.1
		c-0.02-0.03-0.08-0.07-0.2-0.17c-0.17-0.18-0.569-0.48-1.04-1.48c-0.109-0.25-0.22-0.55-0.291-0.88
		c-0.039-0.17-0.079-0.34-0.1-0.52c-0.029-0.16-0.039-0.5-0.039-0.56v-0.01v-0.19v-0.09c0-0.12,0.01-0.24,0.02-0.36
		c0.03-0.24,0.051-0.4,0.101-0.6c0.04-0.18,0.069-0.3,0.12-0.45l0.049-0.15l-0.139,0.33l-0.091,0.47l-0.72,3.95
		c-0.121-0.03-0.229-0.05-0.35-0.08c-1.951-0.42-4.16-0.75-6.391-0.98c-4.47-0.45-9.12-0.67-13.73-0.64
		c-4.64-0.01-9.27,0.22-13.749,0.68c-2.22,0.24-4.431,0.58-6.38,1.01c-0.11,0.02-0.23,0.05-0.34,0.07l-0.73-3.95l-0.09-0.47
		l-0.2-0.48c0.04,0.1,0.07,0.18,0.11,0.29l0.06,0.22l0.03,0.11l0.04,0.16c0.03,0.17,0.06,0.33,0.08,0.5l0.019,0.22
		c0,0.06,0,0.17,0.011,0.38v0.14c-0.011,0.75-0.198,1.45-0.43,1.95c-0.46,1-0.86,1.3-1.03,1.48c-0.109,0.11-0.17,0.15-0.199,0.18
		l0.25-0.1c0.469-0.19,1.25-0.42,2.08-0.63l0.529,2.84l1.209,6.79c0.791,4.54,1.541,9.08,2.262,13.63
		c0.699,4.56,1.381,9.12,1.979,13.689c0.6,4.58,1.18,9.16,1.6,13.78l0.261,2.9l-2.24,0.25c-1,0.29-1.99,0.6-2.969,0.94l-0.25-2.96
		l1.979-3.15h-0.01c-0.95,0.179-1.9,0.38-2.85,0.6c-1.211-3.52-2.33-7.08-3.431-10.63c-1.359-4.4-2.649-8.831-3.92-13.26
		c-1.25-4.44-2.46-8.88-3.64-13.33l-1.75-6.68l-1.54-6.14c0.05,0.14,0.09,0.27,0.149,0.4l-0.29-0.95l0.141,0.55l-0.04-0.11
		l-0.09-0.32l-0.051-0.16l-0.05-0.23c-0.04-0.2-0.069-0.4-0.101-0.61l-0.029-0.3l-0.01-0.1l-0.01-0.06v-0.01l-0.011-0.41v-0.19
		c0.021-1.06,0.29-2.06,0.64-2.83c0.341-0.78,0.751-1.36,1.121-1.82c0.379-0.46,0.72-0.79,1.049-1.08
		c0.641-0.56,1.19-0.92,1.68-1.22c0.5-0.29,0.951-0.52,1.381-0.72c1.682-0.78,3.09-1.2,4.48-1.6c2.75-0.75,5.35-1.18,7.939-1.54
		c5.16-0.71,10.25-0.95,15.311-0.99c5.1,0.03,10.17,0.25,15.33,0.95c2.6,0.35,5.189,0.77,7.95,1.52c1.39,0.39,2.8,0.81,4.489,1.58
		c0.42,0.2,0.87,0.43,1.37,0.72c0.5,0.3,1.04,0.65,1.69,1.22c0.629,0.57,1.45,1.33,2.17,2.88c0.17,0.39,0.33,0.83,0.439,1.31
		c0.061,0.24,0.11,0.49,0.141,0.74c0.04,0.23,0.06,0.66,0.06,0.76v0.01v0.01v0.01c0.01,0.38,0,0.17,0.01,0.29l-0.01,0.12
		C140.565,60.42,140.556,60.58,140.535,60.74z"/>
	<path fill="#231F20" d="M126.346,111.29c-0.29,0.88-0.6,1.77-0.91,2.65l-2.17-3.19C124.296,110.91,125.325,111.09,126.346,111.29z"
		/>
	<path fill="#231F20" d="M133.355,118.87c-3.57-1.23-7.24-2.18-10.971-2.86l-2.779-0.51l0.62-2.68c0.07-0.78,0.14-1.561,0.22-2.34
		l2.82,0.27l2.17,3.19c0.311-0.88,0.62-1.771,0.91-2.65c2.96,0.57,5.889,1.31,8.77,2.21c3.881,1.2,7.681,2.7,11.341,4.471
		c3.671,1.779,7.199,3.829,10.569,6.149c3.352,2.3,6.55,4.88,9.51,7.65l0.03,0.02c6.58,6.1,12.2,13.31,16.48,21.279
		c4.331,7.951,7.319,16.661,8.839,25.65c1.541,8.99,1.591,18.26,0.131,27.35c-0.73,4.541-1.84,9.031-3.32,13.411
		c-1.47,4.38-3.34,8.64-5.54,12.72c-2.21,4.08-4.739,8-7.62,11.66c-0.71,0.92-1.449,1.82-2.199,2.7c-0.38,0.45-0.761,0.88-1.15,1.32
		l-1.15,1.28c-1.609,1.73-3.25,3.36-4.97,4.94c-6.88,6.3-14.88,11.44-23.51,15.09c-8.63,3.66-17.88,5.83-27.241,6.42
		c-9.35,0.6-18.789-0.391-27.829-2.87c-9.04-2.48-17.64-6.51-25.34-11.81c-3.86-2.65-7.47-5.631-10.831-8.881
		c-3.329-3.24-6.43-6.76-9.199-10.51c-5.54-7.5-9.801-15.93-12.56-24.8c-2.741-8.87-4.01-18.171-3.7-27.41
		c0.15-4.61,0.67-9.21,1.58-13.72c0.91-4.521,2.199-8.95,3.83-13.24c1.64-4.29,3.65-8.42,5.98-12.36
		c2.319-3.94,4.979-7.67,7.93-11.14c1.479-1.74,3-3.39,4.63-5.02c1.579-1.58,3.27-3.14,4.99-4.6c3.438-2.94,7.149-5.56,11.029-7.85
		c3.891-2.29,7.95-4.271,12.14-5.851c3.291-1.24,6.641-2.27,10.031-3.06c0.279,0.85,0.579,1.7,0.881,2.55l0.25,2.96
		c-2.961,0.99-5.842,2.15-8.642,3.48c-3.729,1.77-7.3,3.83-10.68,6.16c-3.37,2.331-6.53,4.94-9.48,7.76
		c-1.479,1.41-2.869,2.859-4.25,4.42c-1.319,1.49-2.63,3.09-3.841,4.7c-2.429,3.25-4.589,6.68-6.469,10.26
		c-1.87,3.57-3.43,7.289-4.7,11.1c-1.251,3.811-2.2,7.72-2.81,11.68c-0.621,3.95-0.931,7.95-0.9,11.94
		c0.08,15.96,5.49,31.73,15.19,44.17c2.41,3.13,5.069,6.04,7.97,8.73c2.869,2.68,5.98,5.129,9.24,7.31
		c6.529,4.38,13.79,7.62,21.359,9.64c15.16,4.07,31.61,2.94,46.119-2.96c7.271-2.94,14.051-7.08,20.051-12.2
		c1.49-1.271,2.949-2.641,4.33-4.01l1.051-1.07c0.33-0.36,0.68-0.72,1.01-1.081c0.67-0.73,1.33-1.46,1.97-2.22
		c2.561-3.01,4.9-6.22,6.95-9.62c4.1-6.79,7.11-14.28,8.83-22.11c1.729-7.83,2.149-15.99,1.24-24.04
		c-0.91-8.05-3.181-15.971-6.701-23.34c-3.56-7.35-8.359-14.131-14.159-19.98c-2.671-2.67-5.5-5.109-8.521-7.35
		c-3.029-2.23-6.22-4.24-9.551-6C140.396,121.61,136.926,120.11,133.355,118.87z"/>
	<path fill="#231F20" d="M90.855,111.89l-1.979,3.15c-0.302-0.85-0.602-1.7-0.881-2.55c0.949-0.22,1.899-0.421,2.85-0.6H90.855z"/>
	<path fill="#231F20" d="M85.766,59.23l0.73,3.95c-0.83,0.21-1.611,0.44-2.08,0.63l-0.25,0.1c0.029-0.03,0.09-0.07,0.199-0.18
		c0.17-0.18,0.57-0.48,1.03-1.48c0.231-0.5,0.419-1.2,0.43-1.95v-0.14c-0.011-0.21-0.011-0.32-0.011-0.38l-0.019-0.22
		c-0.021-0.17-0.05-0.33-0.08-0.5l-0.04-0.16l-0.03-0.11l-0.06-0.22c-0.04-0.11-0.07-0.19-0.11-0.29l0.2,0.48L85.766,59.23z"/>
	<path fill="#231F20" d="M73.575,61.9l0.29,0.95c-0.06-0.13-0.1-0.26-0.149-0.4L73.575,61.9z"/>
	<path fill="#231F20" d="M109.837,234.099c-23.048,0-44.729-0.939-61.052-2.646c-8.015-0.838-14.334-1.82-18.781-2.919
		c-4.559-1.126-8.777-2.643-8.777-6.082c0-3.456,3.927-5.422,14.488-7.254l0.91,5.246c-4.381,0.76-6.954,1.474-8.441,2.008
		c2.764,0.989,9.272,2.596,24.236,4.012c15.743,1.49,36.134,2.311,57.417,2.311s41.675-0.82,57.418-2.311
		c14.989-1.419,21.495-3.028,24.251-4.017c-1.576-0.565-4.385-1.33-9.338-2.152l0.871-5.252c11.232,1.863,15.408,3.871,15.408,7.409
		c0,3.438-4.218,4.955-8.776,6.082c-4.448,1.099-10.769,2.082-18.782,2.919C154.566,233.159,132.884,234.099,109.837,234.099z"/>
	<polygon fill="#231F20" points="112.499,231.437 118.39,329.71 101.283,329.71 107.175,231.437 	"/>
	<ellipse fill="#7D7F82" cx="110.197" cy="146.442" rx="59.733" ry="6.658"/>
	<circle fill="#939598" cx="100.766" cy="130.18" r="3.5"/>
	<circle fill="#939598" cx="113.837" cy="94" r="4"/>
	<circle fill="#939598" cx="101.016" cy="71.25" r="3.75"/>
	<circle fill="#939598" cx="110.283" cy="19.5" r="9"/>
	<circle fill="#939598" cx="103.516" cy="33.75" r="2.75"/>
	<circle fill="#939598" cx="99.274" cy="9.509" r="2.009"/>
	<circle fill="#F5F5F5" cx="99.584" cy="128.785" r="1.182"/>
	<ellipse fill="#F5F5F5" cx="101.141" cy="130.18" rx="0.375" ry="0"/>
	<circle fill="#F5F5F5" cx="112.864" cy="92.848" r="0.973"/>
	<circle fill="#F5F5F5" cx="114.551" cy="94.715" r="0.714"/>
	<circle fill="#F5F5F5" cx="100.453" cy="70.562" r="1.188"/>
	<circle fill="#F5F5F5" cx="102.141" cy="72.25" r="0.5"/>
	<circle fill="#F5F5F5" cx="102.828" cy="33.562" r="0.688"/>
	<circle fill="#F5F5F5" cx="106.828" cy="16.188" r="2.062"/>
	<circle fill="#F5F5F5" cx="109.587" cy="18.947" r="0.696"/>
	<circle fill="#F5F5F5" cx="98.704" cy="8.757" r="0.752"/>
</g>
</svg>
