<?xml version="1.0" encoding="utf-8"?>
<!-- Generator: Adobe Illustrator 15.0.0, SVG Export Plug-In . SVG Version: 6.00 Build 0)  -->
<!DOCTYPE svg PUBLIC "-//W3C//DTD SVG 1.1//EN" "http://www.w3.org/Graphics/SVG/1.1/DTD/svg11.dtd">
<svg version="1.1" id="Layer_1" xmlns="http://www.w3.org/2000/svg" xmlns:xlink="http://www.w3.org/1999/xlink" x="0px" y="0px"
	 width="214px" height="255.925px" viewBox="0 0 214 255.925" enable-background="new 0 0 214 255.925" xml:space="preserve">
<g>
	<path fill="#D6D6D7" d="M107.655,221.388c-26.651,0-48.251,3.358-48.251,7.499c0,4.143,21.6,7.5,48.251,7.5
		c26.648,0,48.251-3.357,48.251-7.5C155.906,224.746,134.304,221.388,107.655,221.388"/>
	<polygon fill="#231F20" points="176.677,159.773 196.314,231.83 182.659,231.83 172.329,160.684 	"/>
	<polygon fill="#231F20" points="46.95,160.684 34.729,231.83 24.85,231.83 42.602,159.773 	"/>
	<path fill="#F5F5F5" d="M169.065,133.715c0.021,1.63-0.02,3.31-0.141,4.96c-0.439,6.63-1.988,13.181-4.578,19.31
		c-2.592,6.13-6.212,11.84-10.66,16.82c-4.452,4.99-9.73,9.25-15.571,12.53c-5.839,3.29-12.23,5.61-18.839,6.82
		c-3.312,0.6-6.67,0.94-10.031,0.99c-3.379,0.061-6.75-0.15-10.09-0.65c-6.67-0.979-13.18-3.079-19.19-6.199
		c-6.009-3.11-11.5-7.23-16.199-12.14c-4.7-4.9-8.601-10.58-11.47-16.759c-2.871-6.171-4.71-12.841-5.411-19.641
		c-0.179-1.69-0.288-3.42-0.319-5.1c-0.039-1.75-0.01-3.44,0.09-5.15c0.201-3.42,0.691-6.83,1.451-10.17
		c0.76-3.35,1.799-6.63,3.119-9.81c1.301-3.169,2.881-6.24,4.699-9.169l1.411-2.121l-2.181-1.53L19.017,71.435
		c0.229-0.44,0.529-0.93,0.85-1.42c0.98-1.47,2.16-2.979,3.389-4.43c2.49-2.92,5.24-5.71,8.111-8.36
		c2.859-2.64,5.859-5.16,8.948-7.38c1.532-1.11,3.11-2.15,4.622-2.96c0.129-0.07,0.26-0.14,0.389-0.21l21.521,36.54l3.139,5.21
		l5.211-3.46c2.479-1.65,5.059-3.14,7.74-4.41c2.679-1.29,5.448-2.39,8.279-3.26c2.84-0.87,5.73-1.56,8.669-2.02
		c1.472-0.23,2.94-0.4,4.43-0.52c0.741-0.06,1.481-0.11,2.221-0.14l1.12-0.04l1.141-0.01c6.529-0.071,13.07,0.94,19.279,3
		c6.21,2.05,12.09,5.16,17.32,9.14c5.231,3.979,9.82,8.84,13.5,14.31c3.68,5.47,6.451,11.561,8.15,17.95
		c0.85,3.2,1.439,6.46,1.75,9.76c0.081,0.83,0.141,1.66,0.18,2.48l0.06,1.24l0.021,0.6L169.065,133.715z"/>
	<path fill="#BDBDC6" d="M169.035,132.445l-0.06-1.24c-0.039-0.82-0.099-1.65-0.18-2.48c-0.228-2.412-0.607-4.802-1.125-7.164
		c-1.588,0.123-3.224-0.011-4.881-0.425c-7.236-0.524-14.428-0.9-21.703-1.107c-4.361-0.125-8.74-0.444-13.104-0.383
		c-4.243,0.06-8.054,0.976-12.452,1.438c-2.207,0.232-4.307-0.268-6.189-1.241c-10.994,0.195-21.979-0.302-32.971-0.374
		c-5.088-0.032-10.18,0.017-15.266,0.196c-4.074,0.144-7.182,1.794-12.199,1.794c-0.412,0-0.819-0.027-1.225-0.063
		c-0.516,2.678-0.866,5.391-1.025,8.11c-0.1,1.71-0.129,3.4-0.09,5.15c0.031,1.68,0.141,3.41,0.319,5.1
		c0.701,6.8,2.54,13.47,5.411,19.641c2.869,6.18,6.77,11.859,11.47,16.759c4.699,4.91,10.19,9.03,16.199,12.14
		c6.011,3.12,12.521,5.22,19.19,6.199c3.34,0.5,6.711,0.711,10.09,0.65c3.361-0.05,6.72-0.39,10.031-0.99
		c6.608-1.21,13-3.53,18.839-6.82c5.841-3.28,11.119-7.54,15.571-12.53c4.448-4.979,8.068-10.689,10.66-16.82
		c2.59-6.129,4.139-12.68,4.578-19.31c0.121-1.65,0.161-3.33,0.141-4.96l-0.01-0.67L169.035,132.445z"/>
	<path fill="#231F20" d="M73.606,71.985l3.27,5l-8.359-1.75C70.155,74.075,71.856,72.994,73.606,71.985z"/>
	<path fill="#231F20" d="M52.356,39.475c0.068,0.141,0.129,0.271,0.179,0.41l-0.36-0.7l0.121,0.181L52.356,39.475z"/>
	<path fill="#231F20" d="M51.437,97.494l0.77,3.65l-2.189-1.39c0.459-0.761,0.93-1.52,1.408-2.261H51.437z"/>
	<path fill="#231F20" d="M44.556,44.985l0.041,0.04L44.556,44.985z"/>
	<path fill="#231F20" d="M43.925,44.305l-0.238-0.409l-0.121-0.291l0.109,0.23c0.051,0.11,0.102,0.19,0.182,0.31
		c0.08,0.13,0.148,0.23,0.27,0.38l0.17,0.2l0.051,0.05l0.18,0.18l0.009,0.01l0.021,0.02l0.041,0.04
		c0.148,0.12,0.309,0.25,0.479,0.36l0.201,0.109l0.16,0.091c0.109,0.05,0.209,0.09,0.298,0.13c0.761,0.27,1.102,0.24,1.292,0.23
		l-0.09,0.03c-0.42,0.13-1.012,0.391-1.611,0.7L43.925,44.305z"/>
	<path fill="#231F20" d="M13.216,76.494l-0.119-0.079c-0.111-0.07-0.212-0.14-0.312-0.22l-0.199-0.17l-0.04-0.031l-0.011-0.009
		l-0.169-0.17l-0.081-0.09c-0.46-0.49-0.769-1.06-0.96-1.57c-0.369-1.05-0.33-1.77-0.299-2.36c0.108-1.15,0.369-1.85,0.608-2.53
		c0.511-1.31,1.071-2.33,1.65-3.32c1.171-1.96,2.431-3.71,3.731-5.4c2.618-3.38,5.43-6.5,8.368-9.49c2.951-2.979,6.04-5.83,9.4-8.51
		c1.7-1.33,3.44-2.62,5.44-3.84c1.02-0.6,2.06-1.19,3.461-1.73c0.359-0.14,0.738-0.27,1.189-0.39c0.449-0.11,0.949-0.22,1.629-0.27
		c0.182-0.01,0.342-0.02,0.551-0.02l0.301,0.01l0.34,0.03c0.109,0.01,0.229,0.03,0.359,0.05c0.131,0.02,0.25,0.04,0.391,0.07
		c0.288,0.07,0.559,0.15,0.879,0.27c0.15,0.061,0.301,0.131,0.471,0.22l0.25,0.12c0.08,0.05,0.141,0.08,0.279,0.17
		c0.23,0.15,0.46,0.32,0.67,0.51l0.111,0.09l0.02,0.01c0.221,0.22,0.259,0.26,0.259,0.26l0.021,0.02l0.06,0.07
		c0.081,0.09,0.161,0.18,0.241,0.27c0.15,0.2,0.259,0.35,0.38,0.54c0.079,0.13,0.14,0.24,0.21,0.36l-0.121-0.181l0.36,0.7
		c-0.05-0.14-0.11-0.27-0.179-0.41l-0.061-0.109l21.311,32.62c-1.75,1.009-3.451,2.09-5.09,3.25l8.359,1.75l-3.27-5
		c1.34-0.78,2.719-1.51,4.109-2.2c3.209-1.561,6.539-2.88,9.959-3.94c3.4-1.07,6.911-1.83,10.44-2.351
		c1.761-0.249,3.54-0.439,5.321-0.569c0.889-0.06,1.779-0.1,2.67-0.13l1.33-0.03l1.309-0.01h0.031
		c7.81,0.06,15.629,1.41,22.989,4.01c7.369,2.591,14.29,6.41,20.39,11.24c6.11,4.82,11.41,10.65,15.621,17.17
		c4.209,6.52,7.33,13.73,9.188,21.25c0.92,3.76,1.54,7.6,1.841,11.45c0.071,0.96,0.131,1.93,0.159,2.89l0.04,1.45l0.012,0.75
		l-0.012,0.68c0,1.96-0.09,3.87-0.26,5.79c-0.659,7.69-2.6,15.271-5.729,22.311c-3.121,7.04-7.41,13.54-12.632,19.17
		c-5.21,5.63-11.35,10.39-18.089,14.02c-6.73,3.641-14.07,6.15-21.609,7.38c-3.771,0.62-7.58,0.92-11.391,0.92
		c-3.801-0.01-7.609-0.32-11.371-0.94c-7.51-1.25-14.799-3.76-21.469-7.37c-6.68-3.62-12.74-8.34-17.859-13.91
		c-5.132-5.56-9.331-11.97-12.371-18.88c-3.039-6.9-4.911-14.31-5.529-21.8c-0.161-1.88-0.231-3.74-0.24-5.65
		c0-1.84,0.07-3.74,0.219-5.6c0.301-3.74,0.911-7.46,1.82-11.1c1.602-6.41,4.16-12.57,7.521-18.23l2.189,1.39l-0.77-3.65h-0.012
		c-0.479,0.741-0.949,1.5-1.408,2.261l-36.521-23.1c0.111,0.06,0.211,0.11,0.319,0.16l-0.529-0.29l0.18,0.12l-0.159-0.09
		L13.216,76.494z M66.847,83.215l-21.521-36.54c0.6-0.31,1.191-0.57,1.611-0.7l0.09-0.03h0.029c0.179-0.02,0.179-0.04,0.141-0.03
		l-0.17,0.03c-0.19,0.01-0.531,0.04-1.292-0.23c-0.089-0.04-0.188-0.08-0.298-0.13l-0.16-0.091l-0.201-0.109
		c-0.17-0.11-0.33-0.24-0.479-0.36l-0.041-0.04l-0.021-0.02v-0.01h-0.009l-0.18-0.18l-0.051-0.05l-0.17-0.2
		c-0.121-0.15-0.189-0.25-0.27-0.38c-0.08-0.12-0.131-0.2-0.182-0.31l-0.109-0.23l0.121,0.291l0.238,0.409l1.4,2.37
		c-0.129,0.07-0.26,0.14-0.389,0.21c-1.512,0.81-3.09,1.85-4.622,2.96c-3.089,2.22-6.089,4.74-8.948,7.38
		c-2.871,2.65-5.621,5.44-8.111,8.36c-1.229,1.45-2.408,2.96-3.389,4.43c-0.32,0.49-0.621,0.979-0.85,1.42l-1.602-1.12l-0.26-0.18
		l-0.26-0.11l0.14,0.07l0.11,0.05l0.131,0.09l0.24,0.17l0.08,0.08l0.019,0.02l0.03,0.02l0.1,0.1l0.061,0.06
		c0.28,0.3,0.471,0.65,0.57,0.92c0.189,0.57,0.15,0.77,0.15,0.86c-0.01,0.14,0.049-0.14,0.18-0.4c0.079-0.19,0.189-0.4,0.311-0.63
		l36.139,25.271l2.181,1.53l-1.411,2.121c-1.818,2.93-3.398,6-4.699,9.169c-1.32,3.18-2.359,6.46-3.119,9.81
		c-0.76,3.34-1.25,6.75-1.451,10.17c-0.1,1.71-0.129,3.4-0.09,5.15c0.031,1.68,0.141,3.41,0.319,5.1
		c0.701,6.8,2.54,13.47,5.411,19.641c2.869,6.18,6.77,11.859,11.47,16.759c4.699,4.91,10.19,9.03,16.199,12.14
		c6.011,3.12,12.521,5.22,19.19,6.199c3.34,0.5,6.711,0.711,10.09,0.65c3.361-0.05,6.72-0.39,10.031-0.99
		c6.608-1.21,13-3.53,18.839-6.82c5.841-3.28,11.119-7.54,15.571-12.53c4.448-4.979,8.068-10.689,10.66-16.82
		c2.59-6.129,4.139-12.68,4.578-19.31c0.121-1.65,0.161-3.33,0.141-4.96l-0.01-0.67l-0.021-0.6l-0.06-1.24
		c-0.039-0.82-0.099-1.65-0.18-2.48c-0.311-3.3-0.9-6.56-1.75-9.76c-1.699-6.39-4.471-12.48-8.15-17.95
		c-3.68-5.47-8.269-10.33-13.5-14.31c-5.23-3.98-11.11-7.09-17.32-9.14c-6.209-2.06-12.75-3.071-19.279-3l-1.141,0.01l-1.12,0.04
		c-0.739,0.029-1.479,0.08-2.221,0.14c-1.489,0.12-2.958,0.29-4.43,0.52c-2.938,0.46-5.829,1.15-8.669,2.02
		c-2.831,0.87-5.601,1.97-8.279,3.26c-2.682,1.271-5.262,2.76-7.74,4.41l-5.211,3.46L66.847,83.215z"/>
	<polygon fill="#231F20" points="17.615,70.505 17.597,70.485 17.606,70.485 	"/>
	<path fill="#231F20" d="M17.415,70.315l1.602,1.12c-0.121,0.23-0.231,0.44-0.311,0.63c-0.131,0.26-0.189,0.54-0.18,0.4
		c0-0.09,0.039-0.29-0.15-0.86c-0.1-0.27-0.29-0.62-0.57-0.92l-0.061-0.06l-0.1-0.1l-0.03-0.02l-0.009-0.02h-0.01l-0.08-0.08
		l-0.24-0.17l-0.131-0.09l-0.11-0.05l-0.14-0.07l0.26,0.11L17.415,70.315z"/>
	<path fill="#231F20" d="M13.814,76.815c-0.108-0.05-0.208-0.1-0.319-0.16l-0.03-0.01l-0.18-0.12L13.814,76.815z"/>
	<path fill="#231F20" d="M109.071,167.317c-19.24,0-37.344-0.785-50.975-2.209c-6.707-0.701-11.999-1.523-15.729-2.446
		c-3.976-0.983-7.655-2.33-7.655-5.501c0-3.153,3.375-4.912,12.451-6.486l0.91,5.246c-2.588,0.449-4.402,0.876-5.668,1.24
		c2.814,0.807,8.365,1.931,19.135,2.938c13.07,1.222,29.951,1.895,47.531,1.895c17.579,0,34.46-0.673,47.533-1.895
		c10.766-1.007,16.318-2.131,19.133-2.938c-1.381-0.397-3.416-0.869-6.398-1.364l0.869-5.252c9.641,1.599,13.225,3.392,13.225,6.616
		c0,3.172-3.681,4.519-7.658,5.501c-3.729,0.922-9.022,1.745-15.727,2.446C146.417,166.532,128.312,167.317,109.071,167.317z"/>
	<polygon fill="#231F20" points="111.733,164.654 117.624,246.635 100.518,246.635 106.409,164.654 	"/>
	<ellipse fill="#A3A3AF" cx="107.654" cy="122.066" rx="60.124" ry="6.658"/>
	<circle fill="#BDBDC6" cx="113.348" cy="97.201" r="4.276"/>
	<circle fill="#BDBDC6" cx="70.818" cy="101.622" r="2.302"/>
	<circle fill="#BDBDC6" cx="39.064" cy="64.76" r="3.166"/>
	<circle fill="#BDBDC6" cx="19.535" cy="28.675" r="6.25"/>
	<circle fill="#BDBDC6" cx="25.159" cy="9.675" r="2.75"/>
	<circle fill="#F5F5F5" cx="24.533" cy="8.885" r="0.626"/>
	<circle fill="#F5F5F5" cx="25.472" cy="9.988" r="0.313"/>
	<circle fill="#F5F5F5" cx="17.596" cy="27.114" r="1.939"/>
	<circle fill="#F5F5F5" cx="19.887" cy="29.406" r="0.352"/>
	<circle fill="#F5F5F5" cx="37.939" cy="63.883" r="1.292"/>
	<circle fill="#F5F5F5" cx="70.237" cy="101.089" r="0.58"/>
	<circle fill="#F5F5F5" cx="112.086" cy="96.021" r="1.263"/>
	<circle fill="#F5F5F5" cx="114.044" cy="97.896" r="0.695"/>
</g>
</svg>
