<?xml version="1.0" encoding="utf-8"?>
<!-- Generator: Adobe Illustrator 15.0.0, SVG Export Plug-In . SVG Version: 6.00 Build 0)  -->
<!DOCTYPE svg PUBLIC "-//W3C//DTD SVG 1.1//EN" "http://www.w3.org/Graphics/SVG/1.1/DTD/svg11.dtd">
<svg version="1.1" id="Layer_1" xmlns="http://www.w3.org/2000/svg" xmlns:xlink="http://www.w3.org/1999/xlink" x="0px" y="0px"
	 width="224px" height="308px" viewBox="0 0 224 308" enable-background="new 0 0 224 308" xml:space="preserve">
<g>
	<path fill="#D6D6D7" d="M106.469,273.463c-40.221,0-72.824,3.357-72.824,7.499c0,4.144,32.604,7.5,72.824,7.5
		c40.219,0,72.824-3.356,72.824-7.5C179.293,276.82,146.688,273.463,106.469,273.463"/>
	<polygon fill="#231F20" points="187.51,194.586 211.053,280.962 194.684,280.962 182.298,195.677 	"/>
	<path fill="#F5F5F5" d="M181.771,132.25v0.221c0.029,4.229-0.48,8.439-1.28,12.529c-0.83,4.09-1.82,8.069-2.841,12.02
		c-0.51,1.98-1.06,3.951-1.699,5.9c-0.63,1.94-1.351,3.86-2.15,5.75c-1.59,3.771-3.5,7.42-5.7,10.89
		c-4.39,6.95-9.939,13.18-16.359,18.35c-6.41,5.17-13.7,9.27-21.47,12.08c-3.891,1.4-7.891,2.49-11.971,3.229
		c-1.02,0.19-2.04,0.36-3.07,0.51c-0.51,0.07-1.029,0.14-1.539,0.201l-0.74,0.089l-0.83,0.09c-2.03,0.21-4.13,0.34-6.2,0.38
		c-8.3,0.18-16.64-1.02-24.58-3.57c-7.93-2.55-15.47-6.43-22.18-11.43c-6.72-5.01-12.63-11.13-17.42-18.05
		c-4.78-6.931-8.41-14.66-10.681-22.811c-1.14-4.061-1.939-8.25-2.399-12.46c-0.45-4.229-0.57-8.479-0.33-12.72
		c0.45-8.49,2.319-16.92,5.53-24.84c3.21-7.93,7.76-15.34,13.391-21.84c5.629-6.5,12.329-12.11,19.809-16.48
		c7.461-4.37,15.691-7.49,24.23-9.21c16.461-3.37,34.07-1.4,49.53,5.78c0.59,0.27,1.181,0.55,1.76,0.84v0.01l1.47,0.97l1.26-1.8
		c0.711-1,1.381-2.01,2.061-3.02l2.01-3.04c1.34-2.03,2.641-4.08,3.95-6.13c2.59-4.101,5.11-8.24,7.61-12.4
		c2.489-4.16,4.93-8.35,7.34-12.55c2.06-3.6,4.09-7.21,6.1-10.84c0.65,0.24,1.38,0.56,2.101,0.91c2.029,0.99,4.13,2.23,6.189,3.52
		c2.07,1.3,4.13,2.68,6.16,4.11c2.03,1.43,4.04,2.9,6.019,4.45c3.941,3.05,7.781,6.32,11.301,9.83c1.74,1.77,3.421,3.61,4.86,5.52
		c0.71,0.96,1.391,1.94,1.851,2.88c0.189,0.37,0.34,0.76,0.42,1.02l-10.98,8.48c-3.79,2.88-7.549,5.78-11.359,8.62
		c-3.791,2.87-7.61,5.7-11.431,8.52c-3.27,2.4-6.55,4.8-9.86,7.15c-0.56,0.41-1.129,0.8-1.689,1.2v0.01l-1.67,1.05l1.31,1.87
		c4.63,6.63,8.2,13.87,10.57,21.4c1.19,3.76,2.09,7.589,2.69,11.439c0.3,1.93,0.52,3.86,0.67,5.79c0.08,0.97,0.14,1.93,0.18,2.899
		l0.041,1.451L181.771,132.25z"/>
	<path fill="#B7B6A5" d="M172.646,138.338c-0.744-0.231-1.496-0.429-2.259-0.59c-0.276-0.053-0.493-0.098-0.671-0.136
		c-0.152-0.006-0.323-0.014-0.527-0.024c-0.879-0.058-1.758-0.092-2.639-0.103c-2.31-0.001-4.617,0.069-6.918,0.282
		c-0.498,0.046-5.861,0.697-3.387,0.333c-12.834,1.891-25.508,4.594-38.541,4.721c-15.689,0.152-31.16-2.255-46.666-4.351
		c-2.311-0.312-4.845-0.634-7.444-0.91c-11.552,1.835-23.532,3.558-35.317,3.121c0.069,1.831,0.189,3.662,0.384,5.488
		c0.46,4.21,1.26,8.399,2.399,12.46c2.271,8.15,5.9,15.88,10.681,22.811c4.79,6.92,10.7,13.04,17.42,18.05
		c6.71,5,14.25,8.88,22.18,11.43c7.94,2.551,16.28,3.75,24.58,3.57c2.07-0.04,4.17-0.17,6.2-0.38l0.83-0.09l0.74-0.089
		c0.51-0.061,1.029-0.131,1.539-0.201c1.03-0.15,2.051-0.32,3.07-0.51c4.08-0.74,8.08-1.83,11.971-3.229
		c7.77-2.81,15.06-6.91,21.47-12.08c6.42-5.17,11.97-11.4,16.359-18.35c2.2-3.47,4.11-7.12,5.7-10.89c0.8-1.89,1.521-3.81,2.15-5.75
		c0.64-1.949,1.189-3.92,1.699-5.9c1.021-3.951,2.011-7.93,2.841-12.02c0.284-1.456,0.516-2.932,0.716-4.414
		C178.081,140.728,175.243,139.92,172.646,138.338z"/>
	<polygon fill="#231F20" points="216.191,54.4 216.041,54.51 215.891,54.59 	"/>
	<polygon fill="#231F20" points="213.881,50.72 213.85,50.74 213.841,50.74 	"/>
	<path fill="#231F20" d="M213.321,51.31l-0.04-0.17l0.3-0.23l0.2-0.15l0.06-0.02l-0.06,0.05l-0.11,0.08l-0.06,0.07l-0.04,0.04
		l-0.021,0.03l-0.029,0.03h-0.011v0.01l-0.06,0.09l-0.08,0.17C213.331,51.48,213.35,51.42,213.321,51.31z"/>
	<path fill="#231F20" d="M175.23,17.27l-0.01,0.01L175.23,17.27z"/>
	<path fill="#231F20" d="M175.211,17.3l-0.02,0.02L175.211,17.3z"/>
	<polygon fill="#231F20" points="175.191,17.32 175.191,17.33 175.181,17.33 	"/>
	<path fill="#231F20" d="M175.211,17.3l0.01-0.02l0.01-0.01l0.011-0.01v-0.01l0.069-0.09c0.061-0.09,0.12-0.18,0.171-0.28l0.09-0.16
		l0.05-0.13l0.07-0.17l-0.101,0.3l-0.189,0.34c-0.341,0.61-0.681,1.23-1.021,1.84c-0.26-0.09-0.5-0.17-0.72-0.24
		c-0.19-0.06-0.37-0.1-0.5-0.13l-0.12-0.02c0.09-0.01,0.309,0.04,0.95-0.23c0.3-0.14,0.689-0.39,1.02-0.75l0.061-0.06l0.109-0.14
		h0.011v-0.01L175.211,17.3z"/>
	<path fill="#231F20" d="M172.181,86.99c-0.6,0.46-1.189,0.92-1.779,1.39l0.351-2.92C171.23,85.96,171.701,86.471,172.181,86.99z"/>
	<path fill="#231F20" d="M167.601,88.04l-1.31-1.87l1.67-1.05v-0.01c0.561-0.4,1.13-0.79,1.689-1.2l1.102,1.55l-0.351,2.92
		c0.59-0.47,1.18-0.93,1.779-1.39c5.24,5.78,9.73,12.35,13.261,19.5c1.92,3.89,3.55,7.95,4.869,12.13c0.66,2.09,1.24,4.21,1.75,6.36
		c0.25,1.07,0.48,2.15,0.691,3.23l0.309,1.63l0.24,1.47l0.03,0.17c0.75,4.79,1.3,9.68,1.399,14.63
		c0.101,4.95-0.359,9.95-1.529,14.79c-1.19,4.84-2.88,9.54-4.891,14.08c-2.02,4.54-4.42,8.91-7.149,13.04
		c-5.47,8.28-12.29,15.63-20.12,21.68c-7.82,6.06-16.65,10.8-25.99,13.97c-4.68,1.58-9.479,2.78-14.34,3.57
		c-1.209,0.2-2.43,0.37-3.65,0.51c-0.609,0.08-1.22,0.14-1.84,0.2l-0.949,0.09l-0.86,0.07c-2.49,0.2-4.909,0.29-7.38,0.28
		c-9.83-0.03-19.641-1.69-28.9-4.919c-18.53-6.421-34.71-19.091-45.25-35.441c-5.3-8.16-9.21-17.18-11.54-26.58
		c-1.17-4.7-1.939-9.479-2.319-14.29c-0.381-4.8-0.381-9.64,0.029-14.44c0.811-9.6,3.26-19.04,7.15-27.8
		c3.89-8.76,9.24-16.84,15.72-23.83c6.47-7,14.11-12.88,22.47-17.36c8.361-4.47,17.44-7.55,26.75-9.03
		c2.33-0.37,4.65-0.64,7.021-0.83c2.32-0.17,4.688-0.26,7.03-0.25c4.699,0.02,9.38,0.43,14,1.23c8.5,1.46,16.729,4.26,24.34,8.21
		c-0.271,0.62-0.54,1.23-0.79,1.86l-0.92,1.94c-15.46-7.18-33.069-9.15-49.53-5.78c-8.539,1.72-16.77,4.84-24.23,9.21
		c-7.479,4.37-14.18,9.98-19.809,16.48c-5.631,6.5-10.181,13.91-13.391,21.84c-3.211,7.919-5.08,16.35-5.53,24.84
		c-0.24,4.24-0.12,8.49,0.33,12.72c0.46,4.21,1.26,8.399,2.399,12.46c2.271,8.15,5.9,15.88,10.681,22.811
		c4.79,6.92,10.7,13.04,17.42,18.05c6.71,5,14.25,8.88,22.18,11.43c7.94,2.551,16.28,3.75,24.58,3.57c2.07-0.04,4.17-0.17,6.2-0.38
		l0.83-0.09l0.74-0.089c0.51-0.061,1.029-0.131,1.539-0.201c1.03-0.15,2.051-0.32,3.07-0.51c4.08-0.74,8.08-1.83,11.971-3.229
		c7.77-2.81,15.06-6.91,21.47-12.08c6.42-5.17,11.97-11.4,16.359-18.35c2.2-3.47,4.11-7.12,5.7-10.89c0.8-1.89,1.521-3.81,2.15-5.75
		c0.64-1.949,1.189-3.92,1.699-5.9c1.021-3.951,2.011-7.93,2.841-12.02c0.8-4.09,1.31-8.3,1.28-12.529v-0.221l-0.02-1.23
		l-0.041-1.451c-0.04-0.969-0.1-1.929-0.18-2.899c-0.15-1.93-0.37-3.86-0.67-5.79c-0.601-3.85-1.5-7.68-2.69-11.439
		C175.801,101.91,172.23,94.67,167.601,88.04z"/>
	<path fill="#231F20" d="M167.591,12.78l-0.29,0.64c0.049-0.14,0.101-0.26,0.16-0.4L167.591,12.78z"/>
	<path fill="#231F20" d="M174.381,18.9c0.34-0.61,0.68-1.23,1.021-1.84l0.189-0.34l0.101-0.3l-0.07,0.17l-0.05,0.13l-0.09,0.16
		c-0.051,0.1-0.11,0.19-0.171,0.28l-0.069,0.09v0.01l-0.011,0.01l-0.01,0.01l-0.01,0.02l-0.02,0.02l-0.011,0.01l-0.109,0.14
		l-0.061,0.06c-0.33,0.36-0.72,0.61-1.02,0.75c-0.642,0.27-0.86,0.22-0.95,0.23l0.12,0.02c0.13,0.03,0.31,0.07,0.5,0.13
		C173.881,18.73,174.121,18.81,174.381,18.9c-2.01,3.63-4.04,7.24-6.1,10.84c-2.41,4.2-4.851,8.39-7.34,12.55
		c-2.5,4.16-5.021,8.3-7.61,12.4c-1.31,2.05-2.61,4.1-3.95,6.13l-2.01,3.04c-0.68,1.01-1.35,2.02-2.061,3.02l-1.26,1.8l-1.47-0.97
		V67.7c-0.579-0.29-1.17-0.57-1.76-0.84l0.92-1.94l2.729-0.83c-0.64-0.35-1.29-0.7-1.939-1.03c0.21-0.5,0.43-1,0.64-1.5l1.49-3.33
		c0.989-2.22,2.02-4.42,3.05-6.62c2.07-4.39,4.21-8.74,6.37-13.08c2.171-4.34,4.39-8.65,6.64-12.94c2.21-4.21,4.46-8.4,6.74-12.57
		c-0.06,0.14-0.111,0.26-0.16,0.4l0.29-0.64l-0.13,0.24l0.1-0.23l0.061-0.12l0.08-0.15c0.08-0.13,0.16-0.26,0.24-0.39l0.13-0.18
		l0.05-0.06l0.04-0.05l0.2-0.25l0.1-0.11c0.541-0.6,1.2-1.03,1.791-1.3c0.309-0.14,0.579-0.23,0.859-0.32
		c0.238-0.06,0.52-0.13,0.738-0.16l0.342-0.05l0.311-0.03c0.209-0.01,0.379-0.01,0.569-0.01c0.72,0,1.27,0.09,1.778,0.18
		c0.5,0.1,0.951,0.22,1.371,0.35c1.66,0.51,2.96,1.15,4.24,1.8c1.27,0.66,2.45,1.38,3.61,2.11c1.149,0.72,2.26,1.49,3.34,2.27
		c4.33,3.13,8.29,6.62,12.05,10.25c3.76,3.67,7.34,7.48,10.689,11.55c1.671,2.04,3.291,4.13,4.78,6.4
		c0.74,1.15,1.44,2.33,2.061,3.71c0.29,0.71,0.59,1.43,0.729,2.45c0.051,0.51,0.101,1.11-0.14,1.9c-0.06,0.2-0.13,0.38-0.25,0.61
		c-0.079,0.13-0.16,0.27-0.25,0.39l-0.079,0.11l-0.021,0.03c-0.08,0.1-0.101,0.12-0.101,0.12l-0.01,0.01l-0.04,0.04l-0.15,0.15
		c-0.1,0.09-0.179,0.16-0.279,0.24c-0.101,0.07-0.181,0.12-0.271,0.18l-0.09,0.05l0.15-0.109l-0.301,0.189l0.15-0.08l-11.42,8.23
		c-3.84,2.81-7.69,5.59-11.5,8.43c-3.83,2.81-7.63,5.66-11.42,8.521c-3.18,2.42-6.37,4.839-9.521,7.3
		c-0.479-0.52-0.95-1.03-1.429-1.53l-1.102-1.55c3.311-2.35,6.591-4.75,9.86-7.15c3.82-2.819,7.64-5.649,11.431-8.52
		c3.811-2.84,7.569-5.74,11.359-8.62l10.98-8.48l0.04,0.17c0.028,0.11,0.01,0.17,0.05,0l0.08-0.17l0.06-0.09l0.011-0.01l0.029-0.03
		l0.021-0.03l0.04-0.04l0.06-0.07l0.11-0.08l0.06-0.05h0.009l0.031-0.02l-0.04,0.02l-0.06,0.02l-0.2,0.15l-0.3,0.23
		c-0.08-0.26-0.23-0.65-0.42-1.02c-0.46-0.94-1.141-1.92-1.851-2.88c-1.439-1.91-3.12-3.75-4.86-5.52
		c-3.52-3.51-7.359-6.78-11.301-9.83c-1.979-1.55-3.988-3.02-6.019-4.45c-2.03-1.43-4.09-2.81-6.16-4.11
		c-2.06-1.29-4.16-2.53-6.189-3.52C175.761,19.46,175.031,19.14,174.381,18.9z"/>
	<path fill="#231F20" d="M144.471,64.09l-2.729,0.83c0.25-0.63,0.52-1.24,0.79-1.86C143.181,63.39,143.831,63.74,144.471,64.09z"/>
	<polygon fill="#231F20" points="32,195.677 17.352,280.962 5.508,280.962 26.789,194.586 	"/>
	<polygon fill="#231F20" points="109.131,200.437 115.021,298.71 97.916,298.71 103.807,200.437 	"/>
	<path fill="#231F20" d="M106.469,203.099c-23.047,0-44.729-0.939-61.051-2.646c-8.016-0.838-14.334-1.82-18.781-2.919
		c-4.56-1.126-8.778-2.643-8.778-6.082c0-3.456,3.927-5.422,14.489-7.254l0.909,5.246c-4.382,0.76-6.953,1.474-8.442,2.008
		c2.765,0.989,9.274,2.596,24.238,4.012c15.742,1.49,36.133,2.311,57.416,2.311s41.675-0.82,57.418-2.311
		c14.99-1.419,21.496-3.028,24.251-4.017c-1.575-0.565-4.386-1.33-9.338-2.152l0.871-5.252c11.233,1.863,15.409,3.871,15.409,7.409
		c0,3.438-4.219,4.955-8.777,6.082c-4.447,1.099-10.768,2.082-18.781,2.919C151.197,202.159,129.517,203.099,106.469,203.099z"/>
	<path fill="#A3A291" d="M181.162,141.006c0,3.676-34.24,6.658-76.475,6.658c-42.24,0-76.478-2.981-76.478-6.658
		c0-3.678,34.237-6.659,76.478-6.659C146.922,134.347,181.162,137.328,181.162,141.006z"/>
	<circle fill="#B7B6A5" cx="59.291" cy="112.533" r="3.75"/>
	<circle fill="#B7B6A5" cx="86.213" cy="77.173" r="4.172"/>
	<circle fill="#B7B6A5" cx="121.68" cy="115.441" r="6.658"/>
	<circle fill="#B7B6A5" cx="147.684" cy="85.923" r="4.577"/>
	<circle fill="#B7B6A5" cx="154.553" cy="96.888" r="2.292"/>
	<circle fill="#F5F5F5" cx="146.709" cy="83.458" r="1.168"/>
	<circle fill="#F5F5F5" cx="154.091" cy="95.802" r="0.574"/>
	<circle fill="#F5F5F5" cx="119.114" cy="112.132" r="1.632"/>
	<circle fill="#F5F5F5" cx="119.93" cy="115.44" r="0.816"/>
	<circle fill="#F5F5F5" cx="84.645" cy="75.438" r="0.771"/>
	<circle fill="#F5F5F5" cx="85.729" cy="76.729" r="0.312"/>
	<circle fill="#F5F5F5" cx="58.082" cy="111.167" r="0.75"/>
	<circle fill="#F5F5F5" cx="59.062" cy="112.396" r="0.229"/>
	<circle fill="#F5F5F5" cx="154.936" cy="96.646" r="0.271"/>
</g>
</svg>
