<?xml version="1.0" encoding="utf-8"?>
<!-- Generator: Adobe Illustrator 15.0.0, SVG Export Plug-In . SVG Version: 6.00 Build 0)  -->
<!DOCTYPE svg PUBLIC "-//W3C//DTD SVG 1.1//EN" "http://www.w3.org/Graphics/SVG/1.1/DTD/svg11.dtd">
<svg version="1.1" id="Layer_1" xmlns="http://www.w3.org/2000/svg" xmlns:xlink="http://www.w3.org/1999/xlink" x="0px" y="0px"
	 width="148.604px" height="350.465px" viewBox="0 0 148.604 350.465" enable-background="new 0 0 148.604 350.465"
	 xml:space="preserve">
<g>
	<ellipse fill="#99999A" cx="76.191" cy="342.965" rx="72.413" ry="7.5"/>
	<path fill="#808000" d="M95.707,208.84V38.093l7.048-14.274H45.308l7.047,14.274V208.84
		c-26.147,15.406-44.937,55.755-44.937,84.957c0,36.789,29.824,41.943,66.613,41.943c36.791,0,66.614-5.155,66.614-41.943
		C140.645,264.595,121.854,224.247,95.707,208.84"/>
	<polygon fill="#A28A66" points="87.297,43.378 62.582,43.378 55.683,6.5 94.195,6.5 	"/>
	<path fill="#231F20" d="M87.297,45.064c-2.06,0.548-4.12,0.829-6.179,1.024c-2.06,0.192-4.12,0.272-6.18,0.261
		c-2.059-0.008-4.119-0.098-6.179-0.287c-2.06-0.201-4.12-0.474-6.179-0.998l-1.416-0.36l-0.242-1.015L52.241,7.145L51.27,3.061
		l4.413-0.063l38.512-0.551l5.217-0.074l-1.234,4.872L88.7,44.691L87.297,45.064z M85.852,41.353l4.36-35.598l3.983,4.797
		l-38.512-0.549l3.442-4.147l5.112,37.212l-1.656-1.376c2.059-0.522,4.119-0.796,6.179-0.998c2.06-0.188,4.12-0.279,6.179-0.287
		c2.06-0.01,4.12,0.07,6.18,0.261C82.696,40.819,84.273,41.021,85.852,41.353z"/>
	<path fill="#231F20" d="M90.653,211.485l1.883-173.392l0.008-0.775l0.319-0.63l0.003-0.007l5.593-14.983l4.295,6.911l-0.009,0.001
		c-4.786,0.049-9.573-0.013-14.358-0.108c-4.787-0.095-9.574-0.25-14.361-0.392l-7.18-0.237l-7.18-0.27
		c-4.787-0.173-9.573-0.38-14.359-0.613l2.844-4.577l0.004,0.011l9.9,12.853l0.126,0.163l0.531,2.652l0.002,0.012l-2.484,170.736
		l-0.033,2.256l-1.876,1.083l-0.017,0.01c-3.045,2.08-5.913,4.442-8.563,7.056c-2.665,2.596-5.135,5.412-7.438,8.37
		c-4.594,5.927-8.521,12.415-11.822,19.192c-1.651,3.39-3.157,6.851-4.487,10.372c-1.333,3.52-2.523,7.086-3.521,10.691
		c-0.992,3.605-1.828,7.238-2.447,10.877c-0.619,3.637-1.013,7.281-1.164,10.87c-0.036,0.897-0.056,1.791-0.056,2.68
		c-0.001,0.444,0.004,0.888,0.013,1.329l0.018,0.674l0.01,0.361l0.015,0.307c0.017,0.396,0.042,0.858,0.071,1.284
		c0.028,0.434,0.064,0.864,0.102,1.293c0.079,0.857,0.18,1.704,0.306,2.538c0.488,3.337,1.343,6.467,2.642,9.22
		c1.295,2.757,3.021,5.122,5.17,7.141c2.15,2.018,4.761,3.682,7.718,5.024c2.958,1.336,6.228,2.38,9.667,3.165
		c3.441,0.789,7.047,1.335,10.728,1.72c7.366,0.784,15.04,0.967,22.765,0.929c7.763-0.011,15.407-0.242,22.766-1.074
		c3.675-0.408,7.269-0.977,10.692-1.788c3.424-0.807,6.671-1.87,9.593-3.219c2.924-1.354,5.488-3.022,7.587-5.025
		c2.097-2.006,3.769-4.341,5.021-7.062c2.511-5.433,3.268-12.364,2.933-19.477c-0.175-3.56-0.589-7.175-1.228-10.783
		c-0.639-3.61-1.493-7.214-2.501-10.789c-1.014-3.575-2.218-7.111-3.564-10.599c-1.344-3.488-2.861-6.916-4.521-10.271
		c-3.32-6.705-7.253-13.113-11.831-18.941c-4.582-5.814-9.84-11.057-15.823-15.084L90.653,211.485z M100.7,205.88
		c2.916,1.713,5.673,3.655,8.274,5.755c3.314,2.688,6.387,5.624,9.233,8.738c5.702,6.228,10.539,13.12,14.683,20.377
		c4.123,7.272,7.555,14.927,10.212,22.906c1.337,3.989,2.458,8.065,3.356,12.225c0.893,4.16,1.571,8.406,1.901,12.751
		c0.332,4.344,0.363,8.786-0.138,13.35c-0.508,4.551-1.589,9.237-3.545,13.769c-0.979,2.26-2.174,4.473-3.591,6.556
		c-1.41,2.087-3.049,4.03-4.837,5.787c-3.583,3.525-7.745,6.24-11.973,8.27c-4.237,2.045-8.568,3.431-12.84,4.474
		c-4.278,1.038-8.519,1.725-12.71,2.217c-8.384,0.949-16.602,1.143-24.673,1.145c-8.107-0.05-16.296-0.29-24.674-1.285
		c-4.186-0.515-8.415-1.222-12.676-2.281c-4.256-1.062-8.563-2.465-12.768-4.519c-4.196-2.039-8.313-4.751-11.85-8.26
		c-1.764-1.748-3.379-3.679-4.766-5.752c-1.395-2.065-2.566-4.262-3.526-6.502c-3.834-9.04-4.19-18.404-3.517-26.909
		c0.351-4.316,1.049-8.532,1.959-12.663c0.916-4.131,2.054-8.179,3.405-12.138c2.688-7.921,6.145-15.514,10.284-22.715
		c4.159-7.187,9.001-14,14.683-20.133c5.669-6.117,12.219-11.596,19.764-15.531l0.018-0.012l-1.908,3.34L45.995,38.105l0.002-0.012
		l0.658,2.815l-4.187-15.674l-0.006-0.011l-2.406-4.321l5.251-0.256c4.787-0.232,9.572-0.439,14.359-0.613l7.18-0.269l7.18-0.237
		c4.787-0.142,9.574-0.296,14.361-0.392c4.786-0.095,9.572-0.156,14.358-0.108l0.009,0.001l8.111,0.825l-3.816,6.086l-8.496,13.55
		l-0.003,0.007l0.327-1.404L100.7,205.88z"/>
	<path fill="#CEAF85" d="M62.322,12.71c-0.871,0-0.871,1.351,0,1.351C63.194,14.061,63.194,12.71,62.322,12.71z"/>
	<path fill="#CEAF85" d="M69.076,13.048c-0.871,0-0.871,1.351,0,1.351C69.948,14.399,69.948,13.048,69.076,13.048z"/>
	<path fill="#CEAF85" d="M79.546,12.373c-0.872,0-0.872,1.351,0,1.351C80.417,13.723,80.417,12.373,79.546,12.373z"/>
	<path fill="#CEAF85" d="M82.923,16.425c-0.872,0-0.872,1.351,0,1.351C83.794,17.776,83.794,16.425,82.923,16.425z"/>
	<path fill="#CEAF85" d="M73.467,17.1c-0.871,0-0.871,1.352,0,1.352S74.338,17.1,73.467,17.1z"/>
	<path fill="#CEAF85" d="M68.739,28.92c-0.872,0-0.872,1.351,0,1.351C69.61,30.272,69.61,28.92,68.739,28.92z"/>
	<path fill="#CEAF85" d="M68.401,33.986c-0.871,0-0.871,1.351,0,1.351S69.272,33.986,68.401,33.986z"/>
	<path fill="#CEAF85" d="M64.686,31.96c-0.872,0-0.872,1.351,0,1.351C65.557,33.311,65.557,31.96,64.686,31.96z"/>
	<path fill="#CEAF85" d="M65.023,38.714c-0.871,0-0.871,1.351,0,1.351C65.895,40.065,65.895,38.714,65.023,38.714z"/>
	<path fill="#CEAF85" d="M80.221,35c-0.872,0-0.872,1.35,0,1.35C81.092,36.35,81.092,35,80.221,35z"/>
	<path fill="#CEAF85" d="M77.182,30.947c-0.872,0-0.872,1.351,0,1.351S78.053,30.947,77.182,30.947z"/>
	<path fill="#CEAF85" d="M73.129,37.026c-0.871,0-0.871,1.351,0,1.351C74,38.377,74,37.026,73.129,37.026z"/>
	<path fill="#CEAF85" d="M84.612,31.623c-0.872,0-0.872,1.35,0,1.35C85.482,32.973,85.482,31.623,84.612,31.623z"/>
	<path fill="#CEAF85" d="M86.638,12.373c-0.872,0-0.872,1.351,0,1.351C87.509,13.723,87.509,12.373,86.638,12.373z"/>
	<path fill="#CEAF85" d="M83.936,13.723c-0.871,0-0.871,1.351,0,1.351C84.808,15.074,84.808,13.723,83.936,13.723z"/>
	<path fill="#CEAF85" d="M72.792,14.399c-0.872,0-0.872,1.35,0,1.35C73.663,15.749,73.663,14.399,72.792,14.399z"/>
	<path fill="#CEAF85" d="M62.322,15.749c-0.871,0-0.871,1.351,0,1.351C63.194,17.1,63.194,15.749,62.322,15.749z"/>
	<path fill="#CEAF85" d="M63.335,13.723c-0.871,0-0.871,1.351,0,1.351C64.207,15.074,64.207,13.723,63.335,13.723z"/>
	<path fill="#CEAF85" d="M70.765,30.609c-0.871,0-0.871,1.351,0,1.351C71.636,31.96,71.636,30.609,70.765,30.609z"/>
	<path fill="#CEAF85" d="M76.844,35.675c-0.871,0-0.871,1.351,0,1.351C77.715,37.026,77.715,35.675,76.844,35.675z"/>
	<circle fill="#FFFFFF" cx="48.116" cy="289.702" r="6.476"/>
	<circle fill="#FFFFFF" cx="62.682" cy="232.413" r="4.236"/>
	<circle fill="#FFFFFF" cx="69.73" cy="77.469" r="4.236"/>
	<circle fill="#FFFFFF" cx="76.191" cy="137.344" r="4.236"/>
	<circle fill="#FFFFFF" cx="68.423" cy="175.45" r="4.236"/>
	<path fill="#999933" d="M54.227,228.177c-6.27,3.917-11.491,9.532-15.534,15.853c-4.046,6.34-6.925,13.407-8.737,20.666
		c-1.82,7.268-2.604,14.738-2.481,22.145c0.176,7.396,1.111,14.803,3.543,21.793c0.449-7.34,1.05-14.462,1.935-21.507
		c0.886-7.035,2.089-13.96,3.791-20.727c1.705-6.765,3.897-13.371,6.782-19.736C46.392,240.281,49.986,234.207,54.227,228.177"/>
</g>
</svg>
