<?xml version="1.0" encoding="utf-8"?>
<!-- Generator: Adobe Illustrator 15.0.0, SVG Export Plug-In . SVG Version: 6.00 Build 0)  -->
<!DOCTYPE svg PUBLIC "-//W3C//DTD SVG 1.1//EN" "http://www.w3.org/Graphics/SVG/1.1/DTD/svg11.dtd">
<svg version="1.1" id="Layer_1" xmlns="http://www.w3.org/2000/svg" xmlns:xlink="http://www.w3.org/1999/xlink" x="0px" y="0px"
	 width="1280px" height="800px" viewBox="0 0 1280 800" enable-background="new 0 0 1280 800" xml:space="preserve">
<g>
	<polyline fill="#FFFFFF" points="1280.139,800 0.14,800 0.14,0 1280.139,0 1280.139,800 	"/>
	<g>
		<path fill="#00FF00" d="M420.011,604.781h-10.4v-19.336h45.557c0,11.133-0.781,19.409-2.344,24.829
			c-1.514,5.226-4.688,10.522-9.521,15.894c-4.736,5.322-10.475,9.204-17.213,11.646s-13.965,3.662-21.68,3.662
			c-11.475,0-21.898-1.904-31.273-5.713c-9.424-3.71-16.699-9.862-21.827-18.457c-5.176-8.447-7.764-17.919-7.764-28.418
			c0-15.868,5.224-28.662,15.674-38.379c10.352-9.716,23.045-14.575,38.086-14.575c12.549,0,22.387,3.052,29.516,9.155v-7.104
			h24.537v35.596h-24.537c-2.148-4.395-4.943-7.715-8.385-9.961c-3.443-2.245-7.461-3.369-12.049-3.369
			c-6.445,0-11.182,2.1-14.209,6.299c-2.979,4.2-4.469,11.914-4.469,23.145c0,11.182,1.562,18.775,4.688,22.778
			c3.174,4.054,7.789,6.079,13.844,6.079C415.421,618.551,420.011,613.962,420.011,604.781z"/>
		<path fill="#00FF00" d="M524.819,639.864h-55.371v-24.39h8.276v-53.101h-8.276v-24.39h55.371c4.98,0,9.595,0.086,13.843,0.256
			c4.248,0.172,7.885,0.416,10.913,0.732c3.027,0.318,5.811,0.745,8.35,1.282c7.129,1.514,12.915,4.81,17.358,9.888
			c4.492,5.176,6.738,11.279,6.738,18.311c0,5.273-1.367,10.06-4.102,14.355c-2.735,4.248-6.324,7.373-10.767,9.375l14.062,23.291
			h7.324v24.39h-36.694l-22.192-41.602h-12.524v17.212h7.69V639.864z M517.129,560.323v19.409h4.395
			c5.761,0,9.668-0.171,11.719-0.513c2.197-0.341,4.053-1.318,5.566-2.93c1.513-1.513,2.271-3.589,2.271-6.226
			s-0.758-4.735-2.271-6.299c-1.514-1.611-3.442-2.588-5.786-2.93c-2.246-0.341-6.348-0.513-12.305-0.513H517.129z"/>
		<path fill="#00FF00" d="M694.962,639.864H597.77v-24.39h7.91v-53.101h-8.057v-24.39h97.339v32.593h-26.733v-8.203h-23.145v15.674
			h20.142v20.728h-20.142v16.699h23.145v-8.203h26.733V639.864z"/>
		<path fill="#00FF00" d="M807.462,639.864H710.27v-24.39h7.91v-53.101h-8.057v-24.39h97.339v32.593h-26.733v-8.203h-23.145v15.674
			h20.142v20.728h-20.142v16.699h23.145v-8.203h26.733V639.864z"/>
		<path fill="#00FF00" d="M862.687,639.864h-41.821v-24.39h8.936v-53.101h-8.936v-24.39h48.267l37.061,53.247v-28.857h-8.276v-24.39
			h41.089v24.39h-8.862v78.809h-33.545l-42.92-61.597v35.889h9.009V639.864z"/>
	</g>
	<path fill="#00FF00" d="M653.702,330.201V155.219l4.371-10.828h-35.626l4.371,10.828v174.982
		c-16.215,11.688-27.868,42.297-27.868,64.449c0,27.91,18.496,31.82,41.31,31.82s41.31-3.91,41.31-31.82
		C681.57,372.498,669.917,341.889,653.702,330.201"/>
	<polygon fill="#A28A66" points="646.379,160.113 634.141,160.113 630.725,122.785 649.795,122.785 	"/>
	<path fill="#231F20" d="M646.379,161.391c-1.02,0.416-2.039,0.629-3.06,0.777c-1.02,0.146-2.039,0.207-3.06,0.199
		c-1.02-0.008-2.04-0.076-3.06-0.219c-1.02-0.152-2.04-0.361-3.06-0.758l-1.183-0.461l-0.09-0.701l-4.789-37.201l-0.365-2.832
		l3.011-0.066l19.07-0.418l3.541-0.078l-0.48,3.434l-5.299,37.844L646.379,161.391z M645.174,158.436l1.559-35.93l3.062,3.354
		l-19.07-0.416l2.646-2.9l2.042,37.453l-1.272-1.162c1.02-0.396,2.04-0.605,3.06-0.758c1.02-0.143,2.04-0.211,3.06-0.217
		c1.021-0.008,2.04,0.053,3.06,0.197C643.938,158.146,644.555,158.268,645.174,158.436z"/>
	<path fill="#231F20" d="M652.419,330.777l-3.178-175.559l-0.014-0.785l0.338-0.885l0.001-0.002l4.616-10.727l3.891,5.766h-0.003
		l-35.623-1.789l2.231-3.307v0.002l6.63,9.914l-0.038-0.057l0.391,1.869v0.002l-3.01,174.98l-0.017,0.963l-0.745,0.525l-0.003,0.002
		c-3.926,3.506-7.088,7.799-9.787,12.352c-1.339,2.285-2.576,4.637-3.694,7.049c-1.12,2.408-2.153,4.861-3.073,7.355
		c-1.868,4.98-3.349,10.104-4.484,15.266c-1.124,5.162-1.889,10.383-2.151,15.529c-0.246,5.131-0.016,10.244,1.156,14.691
		c0.579,2.223,1.408,4.252,2.479,5.996c1.077,1.746,2.399,3.209,3.999,4.428c3.184,2.445,7.601,3.906,12.461,4.693
		c2.431,0.396,4.967,0.648,7.557,0.793c2.587,0.152,5.246,0.211,7.906,0.211c2.695,0.012,5.328-0.035,7.925-0.178
		c2.591-0.133,5.13-0.373,7.565-0.762c4.87-0.766,9.309-2.207,12.532-4.654c1.619-1.221,2.965-2.691,4.06-4.449
		c1.091-1.758,1.936-3.799,2.529-6.035c1.2-4.475,1.453-9.609,1.228-14.762c-0.242-5.166-0.989-10.408-2.095-15.594
		c-1.119-5.184-2.584-10.33-4.44-15.338c-0.915-2.512-1.943-4.979-3.061-7.406c-1.114-2.428-2.35-4.799-3.69-7.107
		c-1.353-2.299-2.817-4.533-4.451-6.639c-1.625-2.113-3.421-4.092-5.411-5.879L652.419,330.777z M655.009,329.498
		c2.282,1.393,4.395,3.055,6.355,4.867c2.112,1.971,4.057,4.111,5.849,6.365c3.592,4.508,6.604,9.434,9.198,14.557
		c2.573,5.137,4.736,10.48,6.448,15.996c1.711,5.516,2.996,11.197,3.682,17.062c0.345,2.934,0.524,5.912,0.488,8.955
		c-0.044,3.041-0.314,6.156-0.981,9.312c-0.672,3.146-1.752,6.359-3.455,9.387c-0.848,1.51-1.845,2.969-2.979,4.322
		c-1.137,1.352-2.407,2.596-3.768,3.703c-2.721,2.225-5.774,3.854-8.822,5.045c-3.058,1.195-6.134,1.955-9.152,2.506
		c-6.042,1.068-11.906,1.285-17.6,1.312c-5.729-0.006-11.568-0.199-17.63-1.244c-3.022-0.541-6.105-1.289-9.176-2.479
		c-3.06-1.182-6.13-2.807-8.871-5.031c-1.37-1.107-2.651-2.354-3.8-3.709c-1.146-1.357-2.152-2.82-3.011-4.336
		c-1.725-3.037-2.822-6.266-3.508-9.426c-0.684-3.17-0.966-6.297-1.022-9.35c-0.048-3.059,0.121-6.037,0.454-8.986
		c0.665-5.885,1.932-11.588,3.626-17.127c1.692-5.539,3.841-10.906,6.401-16.072c2.583-5.152,5.586-10.111,9.18-14.662
		c1.792-2.275,3.742-4.441,5.864-6.441c2.13-1.986,4.434-3.818,6.963-5.309l0.003-0.002l-0.762,1.486l-3.01-174.98l0.001-0.002
		l0.353,1.812l-2.111-11.738v-0.002l-1.447-3.123l3.679-0.184l35.623-1.791h0.003l6.118-0.139l-2.228,5.906l-4.125,10.926v0.002
		l0.324-1.67L655.009,329.498z"/>
	<path fill="#CEAF85" d="M635.308,126.525c-0.756,0-0.756,1.172,0,1.172S636.063,126.525,635.308,126.525z"/>
	<path fill="#CEAF85" d="M641.165,126.818c-0.756,0-0.756,1.172,0,1.172S641.921,126.818,641.165,126.818z"/>
	<path fill="#CEAF85" d="M636.441,133.262c-0.756,0-0.756,1.172,0,1.172C637.196,134.434,637.196,133.262,636.441,133.262z"/>
	<path fill="#CEAF85" d="M639.369,136.775c-0.756,0-0.756,1.172,0,1.172S640.125,136.775,639.369,136.775z"/>
	<path fill="#CEAF85" d="M644.973,130.332c-0.756,0-0.756,1.174,0,1.174C645.728,131.506,645.728,130.332,644.973,130.332z"/>
	<path fill="#CEAF85" d="M639.79,148.109c-0.756,0-0.756,1.172,0,1.172C640.545,149.281,640.545,148.109,639.79,148.109z"/>
	<path fill="#CEAF85" d="M639.497,152.502c-0.756,0-0.756,1.172,0,1.172C640.252,153.674,640.252,152.502,639.497,152.502z"/>
	<path fill="#CEAF85" d="M636.275,150.746c-0.756,0-0.756,1.172,0,1.172C637.03,151.918,637.03,150.746,636.275,150.746z"/>
	<path fill="#CEAF85" d="M636.568,156.602c-0.756,0-0.756,1.172,0,1.172C637.323,157.773,637.323,156.602,636.568,156.602z"/>
	<path fill="#CEAF85" d="M641.4,154.846c-0.756,0-0.756,1.17,0,1.17S642.156,154.846,641.4,154.846z"/>
	<path fill="#CEAF85" d="M638.765,151.332c-0.756,0-0.756,1.17,0,1.17S639.521,151.332,638.765,151.332z"/>
	<path fill="#CEAF85" d="M643.597,155.139c-0.755,0-0.755,1.172,0,1.172C644.353,156.311,644.353,155.139,643.597,155.139z"/>
	<path fill="#CEAF85" d="M643.158,138.533c-0.756,0-0.756,1.17,0,1.17C643.913,139.703,643.913,138.533,643.158,138.533z"/>
	<path fill="#CEAF85" d="M642.592,133.262c-0.757,0-0.757,1.172,0,1.172C643.347,134.434,643.347,133.262,642.592,133.262z"/>
	<path fill="#CEAF85" d="M640.248,134.434c-0.755,0-0.755,1.17,0,1.17C641.004,135.604,641.004,134.434,640.248,134.434z"/>
	<path fill="#CEAF85" d="M644.387,127.99c-0.756,0-0.756,1.172,0,1.172C645.142,129.162,645.142,127.99,644.387,127.99z"/>
	<path fill="#CEAF85" d="M635.308,129.162c-0.756,0-0.756,1.17,0,1.17S636.063,129.162,635.308,129.162z"/>
	<path fill="#CEAF85" d="M638.239,129.748c-0.755,0-0.755,1.17,0,1.17C638.995,130.918,638.995,129.748,638.239,129.748z"/>
	<path fill="#CEAF85" d="M641.547,149.574c-0.756,0-0.756,1.172,0,1.172C642.302,150.746,642.302,149.574,641.547,149.574z"/>
	<path fill="#CEAF85" d="M638.472,155.432c-0.756,0-0.756,1.17,0,1.17S639.228,155.432,638.472,155.432z"/>
	<path fill="#FFFFFF" d="M637.93,353.879c0,3.68-2.984,6.664-6.666,6.664c-3.679,0-6.663-2.984-6.663-6.664
		c0-3.682,2.984-6.664,6.663-6.664C634.946,347.215,637.93,350.197,637.93,353.879"/>
	<circle fill="#FFFFFF" cx="662.183" cy="400.637" r="4.292"/>
	<circle fill="#FFFFFF" cx="640.598" cy="184.451" r="2.998"/>
	<circle fill="#FFFFFF" cx="644.972" cy="277.258" r="2.998"/>
	<path fill="#33FF33" d="M633.775,338.455c-5.003,2.717-9.159,6.92-12.367,11.709c-3.211,4.807-5.477,10.223-6.865,15.791
		c-1.395,5.572-1.941,11.307-1.725,16.969c0.261,5.652,1.156,11.307,3.349,16.568c0.688-5.611,1.329-10.98,2.129-16.281
		c0.794-5.293,1.757-10.48,3.034-15.555c0.998-3.953,2.178-7.836,3.62-11.645c-0.227-0.67-0.349-1.387-0.349-2.133
		c0-2.709,1.615-5.039,3.933-6.081C630.083,344.689,631.835,341.607,633.775,338.455"/>
	<path fill="#FFFFFF" d="M628.535,347.798c-2.318,1.042-3.933,3.372-3.933,6.081c0,0.746,0.122,1.463,0.349,2.133
		c0.408-1.076,0.837-2.148,1.289-3.213C626.945,351.113,627.711,349.452,628.535,347.798"/>
</g>
</svg>
