<?xml version="1.0" encoding="utf-8"?>
<!-- Generator: Adobe Illustrator 15.0.0, SVG Export Plug-In . SVG Version: 6.00 Build 0)  -->
<!DOCTYPE svg PUBLIC "-//W3C//DTD SVG 1.1//EN" "http://www.w3.org/Graphics/SVG/1.1/DTD/svg11.dtd">
<svg version="1.1" id="Layer_1" xmlns="http://www.w3.org/2000/svg" xmlns:xlink="http://www.w3.org/1999/xlink" x="0px" y="0px"
	 width="201.436px" height="402.538px" viewBox="0 0 201.436 402.538" enable-background="new 0 0 201.436 402.538"
	 xml:space="preserve">
<g>
	<ellipse fill="#99999A" cx="100.718" cy="395.038" rx="100.718" ry="7.5"/>
	<path fill="#3DB489" d="M131.904,205.477V50.147l9.875-16.362H61.292l9.875,16.362v155.33
		c-36.635,17.661-62.96,104.312-62.96,137.785c0,42.171,41.784,48.08,93.328,48.08c51.545,0,93.328-5.909,93.328-48.08
		C194.863,309.788,168.538,223.137,131.904,205.477"/>
	<polygon fill="#A28A66" points="121.209,61.588 81.511,61.588 70.433,6.935 132.288,6.935 	"/>
	<path fill="#231F20" d="M121.209,64.416c-3.308,0.926-6.616,1.387-9.925,1.72c-3.308,0.322-6.616,0.456-9.924,0.438
		c-3.308-0.013-6.616-0.165-9.925-0.482c-3.308-0.344-6.616-0.789-9.924-1.676l-2.345-0.628L78.74,62.15L64.673,8.103l-1.805-6.931
		l7.565-0.113l61.855-0.924L141.257,0l-2.304,8.286l-15.422,55.48L121.209,64.416z M118.808,58.167l6.814-52.584l6.666,8.153
		l-61.855-0.924l5.76-7.045l8.091,55.259l-2.772-2.266c3.308-0.886,6.617-1.332,9.924-1.676c3.309-0.316,6.617-0.468,9.925-0.481
		c3.308-0.018,6.616,0.115,9.924,0.438C113.792,57.292,116.301,57.621,118.808,58.167z"/>
	<path fill="#231F20" d="M129.664,206.781l-1.396-156.634l-0.008-0.98l0.532-0.899v-0.002l8.497-17.192l4.491,7.955h-0.003
		c-3.353,0.353-6.707,0.538-10.06,0.672c-3.354,0.127-6.708,0.188-10.061,0.191c-6.708,0.009-13.415-0.095-20.122-0.268
		c-6.707-0.168-13.413-0.378-20.121-0.479c-6.707-0.113-13.414-0.164-20.121,0.011l4.6-8.149l0.002,0.003l8.386,17.257l0.585,1.203
		l-0.062,0.677v0.004l-0.754,155.326l-0.009,1.812l-1.621,0.785l-0.006,0.002c-4.545,2.756-8.524,6.43-12.088,10.503
		c-3.567,4.081-6.724,8.576-9.626,13.25c-2.887,4.688-5.525,9.562-7.948,14.559c-2.443,4.987-4.661,10.102-6.744,15.275
		c-4.16,10.353-7.718,20.983-10.755,31.735c-3.02,10.747-5.561,21.655-7.257,32.504c-0.421,2.709-0.783,5.411-1.054,8.086
		c-0.273,2.674-0.47,5.326-0.516,7.877c-0.098,5.05,0.402,9.871,1.732,14.227c1.322,4.359,3.493,8.218,6.594,11.592
		c1.55,1.686,3.333,3.239,5.296,4.678c0.985,0.716,2.015,1.398,3.089,2.044c1.068,0.653,2.179,1.271,3.321,1.859
		c4.575,2.348,9.648,4.193,14.912,5.665c5.268,1.476,10.738,2.587,16.286,3.414c11.105,1.669,22.495,2.265,33.878,2.349
		c11.397,0.076,22.78-0.335,33.939-1.793c5.572-0.725,11.081-1.729,16.413-3.114c5.325-1.383,10.49-3.13,15.197-5.442
		c4.698-2.316,8.932-5.169,12.224-8.654c3.313-3.468,5.659-7.551,7.09-12.111c1.438-4.562,1.97-9.573,1.885-14.757
		c-0.093-5.242-0.728-10.735-1.573-16.192c-0.833-5.474-1.914-10.957-3.164-16.411c-1.227-5.462-2.634-10.898-4.181-16.298
		c-3.076-10.805-6.724-21.465-10.968-31.856c-2.139-5.187-4.416-10.312-6.92-15.312c-2.489-5.006-5.196-9.891-8.169-14.583
		c-2.985-4.679-6.238-9.176-9.915-13.247c-3.674-4.063-7.784-7.724-12.47-10.414L129.664,206.781z M134.167,204.02
		c5.122,2.31,9.69,5.635,13.783,9.33c2.217,2.012,4.31,4.143,6.287,6.365c1.98,2.217,3.859,4.514,5.641,6.875
		c7.13,9.449,12.941,19.712,17.992,30.264c5.049,10.563,9.299,21.462,12.928,32.572c1.8,5.56,3.432,11.179,4.897,16.854
		c1.439,5.685,2.707,11.426,3.731,17.262c0.988,5.851,1.774,11.757,1.978,17.975c0.185,6.253-0.452,12.816-2.619,19.155
		c-1.075,3.162-2.542,6.243-4.381,9.091c-1.846,2.842-4.045,5.451-6.489,7.721c-2.455,2.261-5.119,4.216-7.898,5.847
		c-2.776,1.64-5.651,2.986-8.559,4.105c-5.818,2.239-11.731,3.646-17.608,4.639c-5.885,0.979-11.744,1.551-17.573,1.955
		c-5.831,0.396-11.634,0.596-17.421,0.731c-5.786,0.132-11.56,0.188-17.314,0.229c-11.53,0.064-23.085,0.155-34.797-0.402
		c-5.855-0.302-11.753-0.768-17.699-1.654c-5.939-0.905-11.946-2.212-17.896-4.414c-2.973-1.101-5.925-2.438-8.789-4.087
		c-2.868-1.641-5.64-3.612-8.189-5.934c-2.548-2.318-4.852-5-6.776-7.939c-1.926-2.938-3.466-6.124-4.595-9.389
		c-2.275-6.544-2.947-13.297-2.775-19.685c0.185-6.341,0.978-12.304,1.978-18.204c1.02-5.888,2.298-11.668,3.761-17.381
		c1.469-5.712,3.125-11.358,4.954-16.942c3.667-11.162,8.005-22.094,13.14-32.693c5.162-10.577,11.086-20.869,18.386-30.326
		c1.821-2.365,3.746-4.663,5.775-6.881c2.021-2.222,4.169-4.351,6.44-6.36c2.274-2.006,4.685-3.886,7.256-5.559
		c2.567-1.673,5.303-3.138,8.193-4.254l0.006-0.003l-1.631,2.596L67.53,50.151v-0.004l0.523,1.878L56.692,36.564l-0.002-0.002
		l-4.753-8.397l9.354,0.245c6.707,0.177,13.415,0.125,20.121,0.013c6.708-0.102,13.414-0.312,20.121-0.48
		c6.707-0.172,13.414-0.276,20.122-0.267c3.353,0.004,6.708,0.064,10.061,0.192c3.353,0.134,6.707,0.318,10.06,0.672h0.003
		l9.664,0.814l-5.174,7.141l-11.25,15.529l-0.001,0.002l0.523-1.878L134.167,204.02z"/>
	<path fill="#CEAF85" d="M83.886,17.833c-1.248,0-1.248,1.936,0,1.936C85.136,19.769,85.136,17.833,83.886,17.833z"/>
	<path fill="#CEAF85" d="M93.567,18.316c-1.249,0-1.249,1.937,0,1.937C94.816,20.253,94.816,18.316,93.567,18.316z"/>
	<path fill="#CEAF85" d="M108.573,17.349c-1.25,0-1.25,1.936,0,1.936C109.822,19.285,109.822,17.349,108.573,17.349z"/>
	<path fill="#CEAF85" d="M113.413,23.157c-1.249,0-1.249,1.937,0,1.937S114.662,23.157,113.413,23.157z"/>
	<path fill="#CEAF85" d="M99.86,24.125c-1.249,0-1.249,1.937,0,1.937S101.108,24.125,99.86,24.125z"/>
	<path fill="#CEAF85" d="M93.083,41.067c-1.249,0-1.249,1.936,0,1.936S94.332,41.067,93.083,41.067z"/>
	<path fill="#CEAF85" d="M92.599,48.328c-1.249,0-1.249,1.937,0,1.937S93.848,48.328,92.599,48.328z"/>
	<path fill="#CEAF85" d="M87.274,45.424c-1.249,0-1.249,1.936,0,1.936S88.523,45.424,87.274,45.424z"/>
	<path fill="#CEAF85" d="M87.758,55.104c-1.249,0-1.249,1.937,0,1.937C89.008,57.041,89.008,55.104,87.758,55.104z"/>
	<path fill="#CEAF85" d="M109.541,49.78c-1.249,0-1.249,1.936,0,1.936C110.79,51.716,110.79,49.78,109.541,49.78z"/>
	<path fill="#CEAF85" d="M105.185,43.971c-1.25,0-1.25,1.937,0,1.937C106.434,45.908,106.434,43.971,105.185,43.971z"/>
	<path fill="#CEAF85" d="M99.376,52.684c-1.249,0-1.249,1.937,0,1.937S100.625,52.684,99.376,52.684z"/>
	<path fill="#CEAF85" d="M115.834,44.94c-1.25,0-1.25,1.935,0,1.935C117.082,46.875,117.082,44.94,115.834,44.94z"/>
	<path fill="#CEAF85" d="M118.738,17.349c-1.249,0-1.249,1.936,0,1.936C119.987,19.285,119.987,17.349,118.738,17.349z"/>
	<path fill="#CEAF85" d="M114.865,19.285c-1.249,0-1.249,1.937,0,1.937C116.115,21.221,116.115,19.285,114.865,19.285z"/>
	<path fill="#CEAF85" d="M98.892,20.253c-1.25,0-1.25,1.936,0,1.936C100.141,22.189,100.141,20.253,98.892,20.253z"/>
	<path fill="#CEAF85" d="M83.886,22.189c-1.248,0-1.248,1.936,0,1.936C85.136,24.125,85.136,22.189,83.886,22.189z"/>
	<path fill="#CEAF85" d="M85.338,19.285c-1.248,0-1.248,1.937,0,1.937C86.587,21.221,86.587,19.285,85.338,19.285z"/>
	<path fill="#CEAF85" d="M95.987,43.487c-1.249,0-1.249,1.937,0,1.937S97.236,43.487,95.987,43.487z"/>
	<path fill="#CEAF85" d="M104.7,50.748c-1.249,0-1.249,1.936,0,1.936C105.949,52.684,105.949,50.748,104.7,50.748z"/>
	<path fill="#FFFFFF" d="M91.334,240.306c0,4.852-3.934,8.785-8.785,8.785c-4.852,0-8.784-3.934-8.784-8.785
		s3.932-8.784,8.784-8.784C87.4,231.522,91.334,235.455,91.334,240.306"/>
	<circle fill="#FFFFFF" cx="123.304" cy="301.942" r="5.658"/>
	<circle fill="#FFFFFF" cx="86.785" cy="338.071" r="4.236"/>
	<circle fill="#FFFFFF" cx="113.41" cy="145.001" r="4.236"/>
	<circle fill="#FFFFFF" cx="89.118" cy="87.335" r="6.089"/>
	<path fill="#64C3A1" d="M82.549,225.719c-8.869,6.377-16.272,14.883-22.023,24.345c-5.759,9.484-9.892,19.931-12.574,30.659
		c-2.691,10.737-3.968,21.768-4.033,32.746c-0.019,5.491,0.261,10.973,0.88,16.41c0.319,2.718,0.699,5.427,1.208,8.113
		c0.503,2.686,1.068,5.361,1.854,7.979c-0.041-10.885,0.477-21.6,1.536-32.216c1.075-10.606,2.77-21.091,5.343-31.329
		c2.575-10.232,6.021-20.22,10.62-29.725c2.692-5.606,5.801-11.019,9.297-16.253c0.368-0.752,0.841-1.443,1.399-2.055
		C78.097,231.445,80.264,228.555,82.549,225.719"/>
	<path fill="#FFFFFF" d="M76.054,234.392c-0.558,0.612-1.031,1.303-1.399,2.055C75.115,235.758,75.581,235.074,76.054,234.392"/>
</g>
</svg>
