<?xml version="1.0" encoding="utf-8"?>
<!-- Generator: Adobe Illustrator 15.0.0, SVG Export Plug-In . SVG Version: 6.00 Build 0)  -->
<!DOCTYPE svg PUBLIC "-//W3C//DTD SVG 1.1//EN" "http://www.w3.org/Graphics/SVG/1.1/DTD/svg11.dtd">
<svg version="1.1" id="Layer_1" xmlns="http://www.w3.org/2000/svg" xmlns:xlink="http://www.w3.org/1999/xlink" x="0px" y="0px"
	 width="1280px" height="800px" viewBox="0 0 1280 800" enable-background="new 0 0 1280 800" xml:space="preserve">
<g>
	<polyline fill="#FFFFFF" points="1280,800 0,800 0,0 1280,0 1280,800 	"/>
	<g>
		<path fill="#3DB489" d="M448.545,632.111h-39.478v-24.39h7.837v-53.101h-8.057v-24.39h61.45l15.015,39.331l15.381-39.331h61.084
			v24.39h-7.983v53.101h8.203v24.39h-53.174v-24.39h8.13v-56.909l-30.762,81.299h-15.234l-30.469-80.566v56.177h8.057V632.111z"/>
		<path fill="#3DB489" d="M631.504,632.111h-58.081v-24.39h9.375v-53.101h-9.375v-24.39h58.081v24.39h-9.302v53.101h9.302V632.111z"
			/>
		<path fill="#3DB489" d="M683.579,632.111h-41.821v-24.39h8.936v-53.101h-8.936v-24.39h48.267l37.061,53.247v-28.857h-8.276v-24.39
			h41.089v24.39h-8.862v78.809H717.49l-42.92-61.597v35.889h9.009V632.111z"/>
		<path fill="#3DB489" d="M849.912,632.111H792.71v-24.39h8.789v-53.101H789.78v18.53h-19.116v-42.92h101.001v42.92h-19.116v-18.53
			h-11.646v53.101h9.009V632.111z"/>
	</g>
	<path fill="#3DB489" d="M663.658,283.265V165.427l7.491-12.412h-61.06l7.492,12.412v117.838
		c-27.792,13.397-47.763,79.132-47.763,104.526c0,31.991,31.698,36.475,70.801,36.475s70.801-4.483,70.801-36.475
		C711.421,362.396,691.45,296.661,663.658,283.265"/>
	<polygon fill="#A28A66" points="655.545,174.107 625.43,174.107 617.024,132.646 663.949,132.646 	"/>
	<path fill="#231F20" d="M655.545,176.252c-2.509,0.702-5.019,1.052-7.529,1.305c-2.509,0.244-5.019,0.346-7.528,0.332
		c-2.509-0.01-5.019-0.126-7.528-0.365c-2.51-0.262-5.02-0.599-7.529-1.271l-1.779-0.477l-0.323-1.242l-10.672-41.002l-1.369-5.258
		l5.738-0.086l46.925-0.701l6.805-0.102l-1.748,6.286l-11.699,42.088L655.545,176.252z M653.724,171.512l5.169-39.892l5.057,6.185
		l-46.925-0.7l4.37-5.345l6.138,41.921l-2.103-1.72c2.51-0.672,5.02-1.01,7.529-1.271c2.51-0.24,5.02-0.355,7.528-0.365
		c2.51-0.014,5.02,0.087,7.528,0.332C649.918,170.848,651.821,171.097,653.724,171.512z"/>
	<path fill="#231F20" d="M661.959,284.253l-1.06-118.826l-0.006-0.742l0.403-0.683V164l6.446-13.041l3.406,6.034h-0.002
		c-2.544,0.268-5.088,0.408-7.632,0.51c-2.544,0.097-5.089,0.143-7.633,0.146c-5.088,0.007-10.176-0.072-15.265-0.203
		c-5.088-0.128-10.175-0.287-15.264-0.363c-5.088-0.086-10.177-0.125-15.265,0.009l3.489-6.183l0.003,0.002l6.361,13.092
		l0.443,0.912l-0.047,0.513v0.004l-0.571,117.834l-0.008,1.374l-1.229,0.596l-0.005,0.002c-3.448,2.091-6.467,4.878-9.17,7.968
		c-2.707,3.096-5.101,6.506-7.303,10.052c-2.19,3.556-4.191,7.255-6.029,11.044c-1.854,3.784-3.536,7.664-5.117,11.589
		c-3.155,7.854-5.854,15.918-8.158,24.074c-2.291,8.153-4.219,16.428-5.506,24.658c-0.319,2.056-0.594,4.105-0.799,6.135
		c-0.207,2.028-0.356,4.04-0.392,5.976c-0.074,3.831,0.306,7.488,1.314,10.792c1.003,3.308,2.65,6.234,5.003,8.794
		c1.176,1.279,2.528,2.458,4.018,3.549c0.748,0.543,1.529,1.061,2.344,1.551c0.81,0.495,1.652,0.964,2.52,1.41
		c3.471,1.781,7.319,3.181,11.312,4.298c3.996,1.119,8.146,1.963,12.354,2.59c8.426,1.267,17.065,1.718,25.701,1.782
		c8.646,0.058,17.281-0.255,25.747-1.36c4.228-0.55,8.406-1.312,12.451-2.362c4.04-1.05,7.958-2.375,11.529-4.129
		c3.564-1.758,6.775-3.922,9.273-6.565c2.514-2.631,4.293-5.729,5.379-9.188c1.091-3.461,1.495-7.262,1.431-11.195
		c-0.071-3.977-0.553-8.145-1.193-12.284c-0.632-4.152-1.452-8.312-2.4-12.45c-0.931-4.144-1.998-8.268-3.172-12.363
		c-2.333-8.197-5.101-16.284-8.32-24.167c-1.622-3.936-3.35-7.823-5.249-11.617c-1.889-3.797-3.942-7.503-6.197-11.062
		c-2.265-3.55-4.732-6.961-7.522-10.05c-2.787-3.082-5.904-5.859-9.46-7.9L661.959,284.253z M665.375,282.159
		c3.886,1.752,7.352,4.274,10.457,7.078c1.682,1.526,3.269,3.143,4.77,4.828c1.502,1.682,2.928,3.425,4.279,5.216
		c5.409,7.168,9.817,14.954,13.649,22.959c3.83,8.013,7.055,16.281,9.808,24.71c1.365,4.218,2.604,8.48,3.715,12.786
		c1.092,4.312,2.054,8.668,2.831,13.095c0.75,4.438,1.346,8.92,1.5,13.637c0.141,4.744-0.343,9.723-1.987,14.531
		c-0.814,2.398-1.928,4.736-3.323,6.896c-1.4,2.156-3.068,4.136-4.923,5.857c-1.862,1.715-3.883,3.198-5.992,4.436
		c-2.105,1.243-4.287,2.266-6.492,3.114c-4.414,1.698-8.899,2.765-13.358,3.519c-4.464,0.743-8.909,1.177-13.331,1.483
		c-4.424,0.301-8.826,0.452-13.216,0.555c-4.39,0.1-8.77,0.143-13.136,0.174c-8.747,0.049-17.513,0.117-26.397-0.306
		c-4.442-0.229-8.916-0.582-13.427-1.255c-4.506-0.687-9.063-1.678-13.577-3.349c-2.255-0.835-4.494-1.849-6.667-3.101
		c-2.176-1.244-4.278-2.74-6.213-4.501c-1.933-1.759-3.68-3.794-5.141-6.023c-1.461-2.229-2.629-4.646-3.485-7.122
		c-1.727-4.965-2.236-10.087-2.105-14.934c0.141-4.81,0.742-9.334,1.501-13.81c0.773-4.467,1.743-8.852,2.854-13.186
		c1.114-4.334,2.37-8.617,3.758-12.853c2.782-8.468,6.072-16.762,9.968-24.802c3.916-8.024,8.41-15.832,13.948-23.007
		c1.382-1.794,2.842-3.537,4.381-5.22c1.534-1.686,3.163-3.301,4.886-4.825c1.726-1.521,3.555-2.948,5.505-4.218
		c1.947-1.269,4.022-2.38,6.216-3.228l0.004-0.002l-1.236,1.97l-0.572-117.834v-0.004l0.396,1.426l-8.618-11.729l-0.002-0.002
		l-3.605-6.37l7.096,0.187c5.088,0.134,10.177,0.095,15.265,0.01c5.089-0.077,10.176-0.236,15.264-0.364
		c5.089-0.13,10.177-0.21,15.265-0.202c2.544,0.003,5.089,0.049,7.633,0.145c2.544,0.102,5.088,0.242,7.632,0.511h0.002l7.332,0.617
		l-3.926,5.417l-8.535,11.781l-0.001,0.001l0.397-1.426L665.375,282.159z"/>
	<path fill="#CEAF85" d="M627.23,140.913c-0.946,0-0.946,1.469,0,1.469C628.179,142.382,628.179,140.913,627.23,140.913z"/>
	<path fill="#CEAF85" d="M634.575,141.28c-0.947,0-0.947,1.469,0,1.469C635.523,142.749,635.523,141.28,634.575,141.28z"/>
	<path fill="#CEAF85" d="M645.959,140.546c-0.947,0-0.947,1.469,0,1.469S646.906,140.546,645.959,140.546z"/>
	<path fill="#CEAF85" d="M649.631,144.952c-0.947,0-0.947,1.469,0,1.469S650.578,144.952,649.631,144.952z"/>
	<path fill="#CEAF85" d="M639.349,145.687c-0.946,0-0.946,1.47,0,1.47C640.296,147.156,640.296,145.687,639.349,145.687z"/>
	<path fill="#CEAF85" d="M634.208,158.539c-0.947,0-0.947,1.469,0,1.469S635.155,158.539,634.208,158.539z"/>
	<path fill="#CEAF85" d="M633.841,164.047c-0.947,0-0.947,1.47,0,1.47S634.788,164.047,633.841,164.047z"/>
	<path fill="#CEAF85" d="M629.802,161.844c-0.948,0-0.948,1.469,0,1.469C630.749,163.312,630.749,161.844,629.802,161.844z"/>
	<path fill="#CEAF85" d="M630.169,169.188c-0.947,0-0.947,1.47,0,1.47S631.116,169.188,630.169,169.188z"/>
	<path fill="#CEAF85" d="M646.693,165.149c-0.947,0-0.947,1.468,0,1.468S647.641,165.149,646.693,165.149z"/>
	<path fill="#CEAF85" d="M643.389,160.742c-0.948,0-0.948,1.469,0,1.469C644.336,162.211,644.336,160.742,643.389,160.742z"/>
	<path fill="#CEAF85" d="M638.982,167.352c-0.948,0-0.948,1.47,0,1.47C639.93,168.821,639.93,167.352,638.982,167.352z"/>
	<path fill="#CEAF85" d="M651.468,161.477c-0.948,0-0.948,1.469,0,1.469C652.414,162.945,652.414,161.477,651.468,161.477z"/>
	<path fill="#CEAF85" d="M653.671,140.546c-0.947,0-0.947,1.469,0,1.469S654.618,140.546,653.671,140.546z"/>
	<path fill="#CEAF85" d="M650.732,142.015c-0.947,0-0.947,1.469,0,1.469C651.681,143.483,651.681,142.015,650.732,142.015z"/>
	<path fill="#CEAF85" d="M638.615,142.749c-0.948,0-0.948,1.469,0,1.469C639.562,144.218,639.562,142.749,638.615,142.749z"/>
	<path fill="#CEAF85" d="M627.23,144.218c-0.946,0-0.946,1.469,0,1.469C628.179,145.687,628.179,144.218,627.23,144.218z"/>
	<path fill="#CEAF85" d="M628.332,142.015c-0.946,0-0.946,1.469,0,1.469C629.28,143.483,629.28,142.015,628.332,142.015z"/>
	<path fill="#CEAF85" d="M636.411,160.375c-0.947,0-0.947,1.469,0,1.469S637.358,160.375,636.411,160.375z"/>
	<path fill="#CEAF85" d="M643.021,165.883c-0.947,0-0.947,1.469,0,1.469S643.969,165.883,643.021,165.883z"/>
	<path fill="#FFFFFF" d="M632.881,309.687c0,3.681-2.983,6.665-6.664,6.665s-6.664-2.984-6.664-6.665s2.983-6.664,6.664-6.664
		S632.881,306.006,632.881,309.687"/>
	<circle fill="#FFFFFF" cx="657.134" cy="356.445" r="4.292"/>
	<circle fill="#FFFFFF" cx="629.43" cy="383.854" r="3.213"/>
	<circle fill="#FFFFFF" cx="649.628" cy="237.386" r="3.213"/>
	<circle fill="#FFFFFF" cx="631.2" cy="193.639" r="4.619"/>
	<path fill="#64C3A1" d="M626.217,298.62c-6.974,4.583-12.785,10.98-17.291,18.151c-4.509,7.191-7.727,15.172-9.775,23.37
		c-2.056,8.207-2.974,16.641-2.901,25.013c0.049,4.188,0.341,8.365,0.917,12.498c0.296,2.066,0.639,4.123,1.097,6.159
		c0.449,2.037,0.95,4.062,1.638,6.035c0.316-8.3,0.895-16.395,1.826-24.405c0.938-8.001,2.273-15.89,4.211-23.596
		c1.94-7.703,4.472-15.224,7.821-22.438c1.749-3.8,3.734-7.497,5.941-11.121c0.339-1.582,1.238-2.955,2.48-3.901
		C623.463,302.446,624.809,300.526,626.217,298.62"/>
	<path fill="#FFFFFF" d="M622.18,304.384c-1.242,0.947-2.141,2.32-2.48,3.901C620.498,306.976,621.325,305.676,622.18,304.384"/>
</g>
</svg>
