<?xml version="1.0" encoding="utf-8"?>
<!-- Generator: Adobe Illustrator 15.0.0, SVG Export Plug-In . SVG Version: 6.00 Build 0)  -->
<!DOCTYPE svg PUBLIC "-//W3C//DTD SVG 1.1//EN" "http://www.w3.org/Graphics/SVG/1.1/DTD/svg11.dtd">
<svg version="1.1" id="Layer_1" xmlns="http://www.w3.org/2000/svg" xmlns:xlink="http://www.w3.org/1999/xlink" x="0px" y="0px"
	 width="1280px" height="800px" viewBox="0 0 1280 800" enable-background="new 0 0 1280 800" xml:space="preserve">
<g>
	<polyline fill="#FFFFFF" points="1280,799 0,799 0,-1 1280,-1 1280,799 	"/>
	<g>
		<path fill="#808000" d="M383.359,559.944c0-8.496,2.075-16.724,6.226-24.683c4.102-7.91,10.474-14.575,19.116-19.995
			c3.076-1.904,6.237-3.417,9.484-4.541c3.247-1.123,6.775-1.989,10.584-2.6s7.812-0.916,12.012-0.916
			c18.262,0,32.397,5.347,42.407,16.04c4.98,5.273,8.74,10.986,11.279,17.139c2.538,6.152,3.809,12.671,3.809,19.556
			c0,14.209-5.176,26.562-15.527,37.061c-10.353,10.499-24.342,15.747-41.968,15.747c-17.041,0-30.86-4.932-41.455-14.795
			C388.681,588.143,383.359,575.472,383.359,559.944z M427.598,559.944c0,11.328,1.099,18.97,3.296,22.925
			c2.099,4.004,5.395,6.006,9.888,6.006c4.442,0,7.764-1.929,9.961-5.786c2.197-3.906,3.296-11.62,3.296-23.145
			c0-11.181-1.074-18.798-3.223-22.852c-2.1-4.003-5.445-6.006-10.034-6.006c-4.395,0-7.69,1.93-9.888,5.786
			C428.696,540.73,427.598,548.421,427.598,559.944z"/>
		<path fill="#808000" d="M607.993,611.141h-96.973v-24.39h9.155V533.65h-9.155v-24.39h58.228v24.39h-9.668v53.101h24.097v-16.333
			h24.316V611.141z"/>
		<path fill="#808000" d="M673.765,611.141h-58.081v-24.39h9.375V533.65h-9.375v-24.39h58.081v24.39h-9.302v53.101h9.302V611.141z"
			/>
		<path fill="#808000" d="M752.207,612.02h-31.714l-32.52-78.369h-7.544v-24.39h54.785v24.39h-8.643l15.161,43.433l15.894-43.433
			h-8.35v-24.39h41.089v24.39h-7.544L752.207,612.02z"/>
		<path fill="#808000" d="M895.615,611.141h-97.192v-24.39h7.91V533.65h-8.057v-24.39h97.339v32.593h-26.733v-8.203h-23.145v15.674
			h20.142v20.728h-20.142v16.699h23.145v-8.203h26.733V611.141z"/>
	</g>
	<path fill="#808000" d="M656.238,302.987V173.454l5.347-10.829h-43.581l5.347,10.829v129.533
		c-19.836,11.688-34.091,42.297-34.091,64.45c0,27.908,22.626,31.819,50.535,31.819s50.534-3.911,50.534-31.819
		C690.329,345.284,676.074,314.675,656.238,302.987"/>
	<polygon fill="#A28A66" points="649.858,177.464 631.108,177.464 625.875,149.487 655.092,149.487 	"/>
	<path fill="#231F20" d="M649.858,178.742c-1.562,0.416-3.125,0.629-4.687,0.777c-1.562,0.146-3.126,0.206-4.688,0.197
		c-1.562-0.006-3.125-0.073-4.688-0.217c-1.562-0.152-3.125-0.36-4.688-0.758l-1.073-0.272l-0.184-0.771l-6.588-27.723l-0.736-3.099
		l3.348-0.048l29.217-0.417l3.958-0.057l-0.937,3.696l-7.19,28.406L649.858,178.742z M648.762,175.928l3.308-27.006l3.022,3.64
		l-29.217-0.417l2.612-3.146l3.878,28.229l-1.257-1.043c1.562-0.396,3.125-0.604,4.688-0.758c1.562-0.143,3.125-0.211,4.688-0.218
		c1.562-0.008,3.126,0.053,4.688,0.198C646.368,175.521,647.564,175.676,648.762,175.928z"/>
	<path fill="#231F20" d="M652.404,304.993l1.429-131.539l0.006-0.588l0.242-0.478l0.002-0.006l4.243-11.366l3.259,5.243h-0.007
		c-3.631,0.037-7.262-0.01-10.893-0.081c-3.632-0.073-7.264-0.19-10.895-0.298l-5.447-0.18l-5.446-0.204
		c-3.632-0.132-7.263-0.288-10.894-0.465l2.158-3.473l0.003,0.009l7.511,9.75l0.096,0.124l0.402,2.012l0.002,0.009l-1.885,129.524
		l-0.024,1.712l-1.423,0.821l-0.013,0.008c-2.311,1.578-4.486,3.37-6.496,5.353c-2.021,1.969-3.896,4.105-5.643,6.35
		c-3.485,4.496-6.464,9.418-8.969,14.56c-1.253,2.571-2.396,5.197-3.404,7.868c-1.012,2.671-1.914,5.376-2.671,8.111
		c-0.753,2.734-1.387,5.491-1.856,8.252c-0.47,2.759-0.769,5.523-0.883,8.246c-0.027,0.681-0.043,1.358-0.043,2.033
		c-0.001,0.336,0.004,0.673,0.01,1.008l0.014,0.512l0.008,0.273l0.012,0.232c0.013,0.302,0.031,0.651,0.054,0.975
		c0.021,0.329,0.048,0.655,0.077,0.98c0.06,0.65,0.137,1.293,0.232,1.926c0.37,2.531,1.019,4.906,2.004,6.994
		c0.982,2.092,2.292,3.885,3.922,5.417c1.631,1.53,3.611,2.794,5.855,3.812c2.243,1.014,4.725,1.806,7.334,2.401
		c2.61,0.599,5.346,1.013,8.138,1.305c5.588,0.595,11.409,0.733,17.27,0.704c5.89-0.008,11.688-0.184,17.271-0.814
		c2.788-0.31,5.515-0.741,8.111-1.356c2.598-0.612,5.062-1.419,7.277-2.442c2.219-1.026,4.164-2.292,5.756-3.812
		c1.591-1.521,2.859-3.293,3.81-5.357c1.904-4.121,2.479-9.38,2.226-14.775c-0.134-2.7-0.447-5.443-0.932-8.18
		c-0.485-2.739-1.133-5.473-1.898-8.186c-0.769-2.711-1.682-5.395-2.703-8.04c-1.02-2.646-2.171-5.247-3.43-7.792
		c-2.519-5.086-5.503-9.947-8.976-14.369c-3.476-4.411-7.465-8.388-12.004-11.443L652.404,304.993z M660.026,300.742
		c2.212,1.299,4.304,2.772,6.277,4.365c2.514,2.039,4.845,4.267,7.004,6.629c4.326,4.725,7.995,9.953,11.139,15.459
		c3.128,5.517,5.731,11.324,7.748,17.377c1.014,3.025,1.864,6.118,2.546,9.273c0.677,3.156,1.191,6.377,1.441,9.674
		c0.252,3.295,0.275,6.665-0.104,10.127c-0.386,3.453-1.205,7.008-2.689,10.445c-0.742,1.715-1.649,3.394-2.724,4.974
		c-1.069,1.583-2.313,3.058-3.67,4.391c-2.719,2.675-5.875,4.733-9.083,6.273c-3.215,1.552-6.5,2.603-9.741,3.394
		c-3.245,0.787-6.463,1.309-9.643,1.682c-6.36,0.721-12.595,0.867-18.718,0.868c-6.15-0.038-12.362-0.22-18.718-0.974
		c-3.176-0.392-6.384-0.928-9.617-1.73c-3.229-0.807-6.496-1.87-9.686-3.428c-3.184-1.547-6.307-3.604-8.99-6.267
		c-1.338-1.326-2.563-2.791-3.615-4.363c-1.058-1.567-1.947-3.233-2.675-4.933c-2.909-6.858-3.18-13.962-2.668-20.414
		c0.267-3.273,0.796-6.473,1.486-9.606c0.694-3.134,1.559-6.204,2.583-9.208c2.04-6.009,4.662-11.77,7.802-17.232
		c3.155-5.452,6.828-10.62,11.139-15.273c4.301-4.641,9.27-8.797,14.993-11.781l0.014-0.01l-1.447,2.534l-1.885-129.524l0.002-0.009
		l0.499,2.136l-3.176-11.891l-0.005-0.008l-1.825-3.279l3.983-0.193c3.631-0.177,7.262-0.334,10.894-0.465l5.446-0.205l5.447-0.18
		c3.631-0.107,7.263-0.225,10.895-0.297c3.631-0.072,7.262-0.118,10.893-0.082l0.007,0.002l6.153,0.625l-2.895,4.617l-6.445,10.279
		l-0.002,0.006l0.248-1.065L660.026,300.742z"/>
	<path fill="#CEAF85" d="M630.912,154.198c-0.661,0-0.661,1.024,0,1.024S631.573,154.198,630.912,154.198z"/>
	<path fill="#CEAF85" d="M636.036,154.454c-0.661,0-0.661,1.025,0,1.025S636.697,154.454,636.036,154.454z"/>
	<path fill="#CEAF85" d="M643.979,153.941c-0.661,0-0.661,1.025,0,1.025S644.64,153.941,643.979,153.941z"/>
	<path fill="#CEAF85" d="M646.54,157.016c-0.661,0-0.661,1.025,0,1.025S647.201,157.016,646.54,157.016z"/>
	<path fill="#CEAF85" d="M639.366,157.528c-0.66,0-0.66,1.025,0,1.025C640.027,158.554,640.027,157.528,639.366,157.528z"/>
	<path fill="#CEAF85" d="M635.78,166.496c-0.662,0-0.662,1.024,0,1.024C636.44,167.521,636.44,166.496,635.78,166.496z"/>
	<path fill="#CEAF85" d="M635.523,170.338c-0.661,0-0.661,1.025,0,1.025S636.185,170.338,635.523,170.338z"/>
	<path fill="#CEAF85" d="M632.705,168.802c-0.661,0-0.661,1.024,0,1.024S633.366,168.802,632.705,168.802z"/>
	<path fill="#CEAF85" d="M632.961,173.926c-0.66,0-0.66,1.024,0,1.024C633.622,174.95,633.622,173.926,632.961,173.926z"/>
	<path fill="#CEAF85" d="M644.49,171.107c-0.661,0-0.661,1.024,0,1.024S645.151,171.107,644.49,171.107z"/>
	<path fill="#CEAF85" d="M642.185,168.033c-0.661,0-0.661,1.024,0,1.024S642.846,168.033,642.185,168.033z"/>
	<path fill="#CEAF85" d="M639.11,172.645c-0.661,0-0.661,1.024,0,1.024S639.771,172.645,639.11,172.645z"/>
	<path fill="#CEAF85" d="M647.821,168.545c-0.661,0-0.661,1.025,0,1.025C648.481,169.57,648.481,168.545,647.821,168.545z"/>
	<path fill="#CEAF85" d="M649.358,153.941c-0.661,0-0.661,1.025,0,1.025S650.02,153.941,649.358,153.941z"/>
	<path fill="#CEAF85" d="M647.309,154.967c-0.66,0-0.66,1.025,0,1.025C647.97,155.992,647.97,154.967,647.309,154.967z"/>
	<path fill="#CEAF85" d="M638.854,155.479c-0.662,0-0.662,1.024,0,1.024C639.515,156.504,639.515,155.479,638.854,155.479z"/>
	<path fill="#CEAF85" d="M630.912,156.504c-0.661,0-0.661,1.024,0,1.024S631.573,156.504,630.912,156.504z"/>
	<path fill="#CEAF85" d="M631.681,154.967c-0.661,0-0.661,1.025,0,1.025S632.342,154.967,631.681,154.967z"/>
	<path fill="#CEAF85" d="M637.316,167.776c-0.66,0-0.66,1.025,0,1.025C637.978,168.802,637.978,167.776,637.316,167.776z"/>
	<path fill="#CEAF85" d="M641.929,171.619c-0.661,0-0.661,1.025,0,1.025S642.59,171.619,641.929,171.619z"/>
	<circle fill="#FFFFFF" cx="620.134" cy="364.33" r="4.913"/>
	<circle fill="#FFFFFF" cx="631.185" cy="320.869" r="3.213"/>
	<circle fill="#FFFFFF" cx="636.532" cy="203.325" r="3.213"/>
	<circle fill="#FFFFFF" cx="641.433" cy="248.748" r="3.213"/>
	<circle fill="#FFFFFF" cx="635.541" cy="277.656" r="3.213"/>
	<path fill="#999933" d="M624.771,317.656c-5.002,2.717-9.159,6.921-12.368,11.709c-3.209,4.808-5.476,10.224-6.863,15.79
		c-1.396,5.573-1.94,11.308-1.725,16.97c0.262,5.653,1.156,11.307,3.35,16.568c0.688-5.611,1.329-10.979,2.128-16.281
		c0.794-5.293,1.758-10.48,3.034-15.554c1.28-5.072,2.86-10.028,4.909-14.858C619.267,327.149,621.798,322.485,624.771,317.656"/>
</g>
</svg>
