<?xml version="1.0" encoding="utf-8"?>
<!-- Generator: Adobe Illustrator 15.0.0, SVG Export Plug-In . SVG Version: 6.00 Build 0)  -->
<!DOCTYPE svg PUBLIC "-//W3C//DTD SVG 1.1//EN" "http://www.w3.org/Graphics/SVG/1.1/DTD/svg11.dtd">
<svg version="1.1" id="Layer_1" xmlns="http://www.w3.org/2000/svg" xmlns:xlink="http://www.w3.org/1999/xlink" x="0px" y="0px"
	 width="175.896px" height="337.89px" viewBox="0 0 175.896 337.89" enable-background="new 0 0 175.896 337.89"
	 xml:space="preserve">
<g>
	<ellipse fill="#99999A" cx="88.9" cy="330.39" rx="72.413" ry="7.5"/>
	<path fill="#7FFF00" d="M115.016,171.698V39.006l8.44-17.089H54.678l8.439,17.089v132.693c-31.305,18.445-53.8,66.75-53.8,101.709
		c0,44.044,35.705,50.215,79.75,50.215s79.75-6.171,79.75-50.215C168.816,238.448,146.322,190.142,115.016,171.698"/>
	<polygon fill="#A28A66" points="103.104,45.938 75.076,45.938 67.253,4.118 110.926,4.118 	"/>
	<path fill="#231F20" d="M103.104,47.623c-2.336,0.548-4.671,0.829-7.008,1.024c-2.335,0.193-4.671,0.272-7.006,0.262
		c-2.336-0.008-4.671-0.098-7.007-0.287c-2.336-0.202-4.672-0.476-7.007-0.999l-1.411-0.316l-0.246-1.059L63.811,4.761l-0.947-4.091
		l4.389-0.055l43.673-0.55L116.103,0l-1.193,4.863l-10.406,42.432L103.104,47.623z M101.665,43.954l5.277-40.581l3.983,4.798
		L67.253,7.62l3.442-4.146l6.037,42.155l-1.656-1.376c2.335-0.524,4.671-0.797,7.007-0.998c2.335-0.189,4.671-0.279,7.007-0.287
		c2.335-0.011,4.671,0.069,7.006,0.261C97.954,43.384,99.809,43.6,101.665,43.954z"/>
	<path fill="#231F20" d="M113.34,172.597l-4.203-133.592l-0.038-1.187l0.646-1.417l0.001-0.002l8.75-16.932l4.959,7.979h-0.002
		l-68.774-2.359l2.844-4.576l0.002,0.003l11.316,15.664l0.239,0.331l0.421,2.495v0.003l-3.967,132.69l-0.043,1.444l-1.148,0.639
		l-0.004,0.002c-7.51,5.256-13.929,11.887-19.482,19.14c-2.767,3.64-5.343,7.424-7.697,11.348c-2.36,3.917-4.541,7.943-6.51,12.068
		c-3.968,8.232-7.17,16.821-9.578,25.555c-1.194,4.368-2.19,8.774-2.923,13.191c-0.745,4.414-1.225,8.841-1.396,13.213
		c-0.042,1.094-0.062,2.184-0.061,3.267c0,0.543,0.007,1.084,0.02,1.623l0.021,0.819l0.013,0.436l0.017,0.38
		c0.021,0.495,0.053,1.052,0.087,1.577c0.034,0.53,0.078,1.059,0.124,1.585c0.096,1.051,0.221,2.091,0.373,3.119
		c0.599,4.108,1.667,7.995,3.287,11.449c1.614,3.461,3.788,6.469,6.497,9.015c2.71,2.542,5.972,4.631,9.623,6.307
		c3.652,1.67,7.664,2.951,11.856,3.916c4.196,0.968,8.565,1.659,13.02,2.14c4.455,0.487,8.993,0.795,13.576,0.973
		c4.579,0.189,9.221,0.261,13.857,0.263c4.673,0.013,9.289-0.044,13.877-0.218c4.584-0.163,9.124-0.455,13.583-0.929
		c4.458-0.468,8.834-1.145,13.04-2.1c4.203-0.953,8.228-2.223,11.901-3.886c3.672-1.67,6.96-3.757,9.701-6.31
		c2.74-2.555,4.945-5.583,6.585-9.067c1.646-3.478,2.733-7.389,3.351-11.52c0.624-4.13,0.784-8.478,0.639-12.865
		c-0.16-4.393-0.627-8.838-1.361-13.269c-0.722-4.435-1.707-8.859-2.891-13.247c-2.389-8.77-5.576-17.396-9.533-25.674
		c-1.964-4.146-4.142-8.196-6.5-12.139c-2.354-3.948-4.932-7.76-7.704-11.43c-5.566-7.31-12.013-14.014-19.597-19.347
		L113.34,172.597z M116.754,170.689c4.055,2.071,7.892,4.575,11.506,7.365c3.865,3.005,7.486,6.326,10.854,9.878
		c6.754,7.104,12.548,15.073,17.539,23.509c4.958,8.458,9.131,17.397,12.373,26.736c3.228,9.34,5.59,19.073,6.506,29.214
		c0.449,5.07,0.526,10.245-0.008,15.53c-0.542,5.271-1.73,10.671-3.93,15.871c-1.101,2.592-2.449,5.126-4.049,7.513
		c-1.592,2.392-3.444,4.624-5.474,6.649c-2.029,2.026-4.24,3.841-6.548,5.438c-2.312,1.593-4.722,2.972-7.169,4.168
		c-4.901,2.397-9.948,4.059-14.958,5.319c-5.016,1.259-10.02,2.083-14.98,2.695c-9.921,1.188-19.703,1.478-29.335,1.507
		c-9.669,0-19.424-0.258-29.362-1.418c-4.965-0.597-9.975-1.407-15.002-2.652c-5.02-1.248-10.081-2.898-15.003-5.288
		c-2.458-1.193-4.879-2.568-7.206-4.161c-2.322-1.597-4.547-3.413-6.592-5.443c-2.045-2.028-3.914-4.269-5.521-6.668
		c-1.616-2.396-2.977-4.94-4.093-7.545c-2.227-5.222-3.437-10.646-3.997-15.939c-0.139-1.326-0.24-2.646-0.303-3.959
		c-0.031-0.656-0.056-1.312-0.071-1.965c-0.015-0.66-0.025-1.287-0.024-1.978v-0.508l0.005-0.454l0.016-0.958
		c0.017-0.646,0.038-1.291,0.069-1.934c0.059-1.284,0.144-2.563,0.253-3.837c0.888-10.178,3.226-19.946,6.435-29.323
		c3.22-9.375,7.378-18.354,12.325-26.856c4.979-8.479,10.77-16.499,17.534-23.662c3.375-3.584,7.005-6.937,10.888-9.978
		c3.891-3.024,8.037-5.747,12.455-7.937l0.005-0.002l-1.19,2.082l-3.967-132.69v-0.003l0.66,2.826l-5.557-18.508l-0.002-0.002
		l-2.362-4.398l5.207-0.179l68.774-2.358h0.002l8.794-0.161l-3.835,8.141l-8.125,17.241l0,0.002l0.607-2.604L116.754,170.689z"/>
	<path fill="#CEAF85" d="M74.713,9.343c-0.995,0-0.995,1.544,0,1.544C75.71,10.887,75.71,9.343,74.713,9.343z"/>
	<path fill="#CEAF85" d="M82.435,9.729c-0.996,0-0.996,1.544,0,1.544C83.431,11.273,83.431,9.729,82.435,9.729z"/>
	<path fill="#CEAF85" d="M94.403,8.957c-0.997,0-0.997,1.544,0,1.544C95.398,10.501,95.398,8.957,94.403,8.957z"/>
	<path fill="#CEAF85" d="M98.263,13.589c-0.997,0-0.997,1.545,0,1.545C99.258,15.134,99.258,13.589,98.263,13.589z"/>
	<path fill="#CEAF85" d="M87.454,14.362c-0.996,0-0.996,1.544,0,1.544C88.449,15.906,88.449,14.362,87.454,14.362z"/>
	<path fill="#CEAF85" d="M82.049,27.873c-0.996,0-0.996,1.544,0,1.544C83.044,29.417,83.044,27.873,82.049,27.873z"/>
	<path fill="#CEAF85" d="M81.663,33.664c-0.996,0-0.996,1.544,0,1.544C82.659,35.208,82.659,33.664,81.663,33.664z"/>
	<path fill="#CEAF85" d="M77.417,31.348c-0.997,0-0.997,1.544,0,1.544C78.412,32.892,78.412,31.348,77.417,31.348z"/>
	<path fill="#CEAF85" d="M77.802,39.068c-0.996,0-0.996,1.545,0,1.545S78.798,39.068,77.802,39.068z"/>
	<path fill="#CEAF85" d="M95.174,34.822c-0.996,0-0.996,1.544,0,1.544S96.17,34.822,95.174,34.822z"/>
	<path fill="#CEAF85" d="M91.7,30.189c-0.996,0-0.996,1.544,0,1.544C92.696,31.734,92.696,30.189,91.7,30.189z"/>
	<path fill="#CEAF85" d="M87.067,37.138c-0.996,0-0.996,1.544,0,1.544C88.063,38.683,88.063,37.138,87.067,37.138z"/>
	<path fill="#CEAF85" d="M100.193,30.962c-0.997,0-0.997,1.544,0,1.544C101.188,32.506,101.188,30.962,100.193,30.962z"/>
	<path fill="#CEAF85" d="M102.51,8.957c-0.997,0-0.997,1.544,0,1.544C103.505,10.501,103.505,8.957,102.51,8.957z"/>
	<path fill="#CEAF85" d="M99.421,10.501c-0.996,0-0.996,1.544,0,1.544C100.417,12.046,100.417,10.501,99.421,10.501z"/>
	<path fill="#CEAF85" d="M86.682,11.273c-0.997,0-0.997,1.543,0,1.543C87.677,12.817,87.677,11.273,86.682,11.273z"/>
	<path fill="#CEAF85" d="M74.713,12.817c-0.995,0-0.995,1.545,0,1.545C75.71,14.362,75.71,12.817,74.713,12.817z"/>
	<path fill="#CEAF85" d="M75.872,10.501c-0.995,0-0.995,1.544,0,1.544C76.868,12.046,76.868,10.501,75.872,10.501z"/>
	<path fill="#CEAF85" d="M84.365,29.803c-0.996,0-0.996,1.545,0,1.545S85.361,29.803,84.365,29.803z"/>
	<path fill="#CEAF85" d="M91.314,35.594c-0.996,0-0.996,1.544,0,1.544S92.31,35.594,91.314,35.594z"/>
	<circle fill="#FFFFFF" cx="116.103" cy="292.577" r="5.658"/>
	<path fill="#FFFFFF" d="M36.875,281.26c0,3.126-2.534,5.659-5.659,5.659c-3.124,0-5.658-2.533-5.658-5.659
		c0-3.124,2.534-5.657,5.658-5.657C34.342,275.603,36.875,278.135,36.875,281.26"/>
	<circle fill="#FFFFFF" cx="89.633" cy="235.475" r="7.79"/>
	<circle fill="#FFFFFF" cx="85.112" cy="77.932" r="7.79"/>
	<circle fill="#FFFFFF" cx="98.814" cy="105.33" r="3.952"/>
	<path fill="#99FF33" d="M61.061,203.036c-6.27,3.917-11.491,9.533-15.535,15.853c-4.046,6.341-6.923,13.407-8.737,20.666
		c-1.82,7.268-2.605,14.738-2.482,22.145c0.177,7.395,1.112,14.802,3.545,21.793c0.448-7.34,1.05-14.462,1.933-21.507
		c0.887-7.036,2.09-13.96,3.791-20.728c1.706-6.765,3.898-13.37,6.782-19.734C53.226,215.14,56.82,209.065,61.061,203.036"/>
</g>
</svg>
