<?xml version="1.0" encoding="utf-8"?>
<!-- Generator: Adobe Illustrator 15.0.0, SVG Export Plug-In . SVG Version: 6.00 Build 0)  -->
<!DOCTYPE svg PUBLIC "-//W3C//DTD SVG 1.1//EN" "http://www.w3.org/Graphics/SVG/1.1/DTD/svg11.dtd">
<svg version="1.1" id="Layer_1" xmlns="http://www.w3.org/2000/svg" xmlns:xlink="http://www.w3.org/1999/xlink" x="0px" y="0px"
	 width="1280px" height="800px" viewBox="0 0 1280 800" enable-background="new 0 0 1280 800" xml:space="preserve">
<g>
	<polyline fill="#FFFFFF" points="1280,799 0,799 0,-1 1280,-1 1280,799 	"/>
	<g>
		<path fill="#7FFF00" d="M228.99,582.298l21.152,7.441c-1.797,8.711-5.918,15.841-12.363,21.387
			c-6.524,5.587-15.508,8.379-26.953,8.379c-15.625,0-27.188-4.081-34.688-12.246c-7.539-8.124-11.309-18.047-11.309-29.766
			c0-11.797,3.691-21.816,11.074-30.059c7.383-8.241,16.972-12.363,28.77-12.363c9.57,0,17.363,2.364,23.379,7.09v-5.449h19.57
			v29.766h-20.332c-1.055-3.711-2.833-6.641-5.332-8.789c-2.5-2.109-5.353-3.164-8.555-3.164c-8.828,0-13.242,7.598-13.242,22.793
			c0,15.234,4.57,22.852,13.711,22.852C221.88,600.169,226.919,594.213,228.99,582.298z"/>
		<path fill="#7FFF00" d="M303.463,618.216h-42.891v-19.512h6.152v-42.48h-6.27v-19.512h43.008v19.512h-5.215v12.422h18.867v-12.422
			h-5.273v-19.512h42.949v19.512h-6.152v42.48h6.152v19.512h-42.949v-19.512h5.273v-13.359h-18.867v13.359h5.215V618.216z"/>
		<path fill="#7FFF00" d="M393.814,618.216h-32.285v-19.512h6.211l15.293-42.48h-6.562v-19.512h58.594v19.512h-6.562l15.586,42.48
			h5.977v19.512h-42.539v-17.871h7.148l-3.105-10.254h-20.859l-3.574,10.254h6.68V618.216z M401.49,557.396l-7.676,22.559h14.59
			L401.49,557.396z"/>
		<path fill="#7FFF00" d="M500.924,618.216h-44.297v-19.512h6.621v-42.48h-6.621v-19.512h44.297c3.984,0,7.676,0.068,11.074,0.205
			c3.398,0.138,6.308,0.332,8.73,0.586c2.422,0.255,4.648,0.596,6.68,1.025c5.703,1.211,10.332,3.848,13.887,7.91
			c3.594,4.141,5.391,9.023,5.391,14.648c0,4.219-1.094,8.048-3.281,11.484c-2.188,3.398-5.06,5.898-8.613,7.5l11.25,18.633h5.859
			v19.512h-29.355l-17.754-33.281h-10.02v13.77h6.152V618.216z M494.771,554.583v15.527h3.516c4.608,0,7.734-0.137,9.375-0.41
			c1.758-0.272,3.242-1.055,4.453-2.344c1.21-1.21,1.816-2.871,1.816-4.98s-0.606-3.788-1.816-5.039
			c-1.211-1.289-2.754-2.07-4.629-2.344c-1.797-0.272-5.078-0.41-9.844-0.41H494.771z"/>
		<path fill="#7FFF00" d="M618.923,618.216h-45.762v-19.512h7.031v-42.48h-9.375v14.824h-15.293v-34.336h80.801v34.336h-15.293
			v-14.824h-9.316v42.48h7.207V618.216z"/>
		<path fill="#7FFF00" d="M690.524,618.216h-44.297v-19.512h6.621v-42.48h-6.621v-19.512h44.297c3.984,0,7.676,0.068,11.074,0.205
			c3.398,0.138,6.308,0.332,8.73,0.586c2.422,0.255,4.648,0.596,6.68,1.025c5.703,1.211,10.332,3.848,13.887,7.91
			c3.594,4.141,5.391,9.023,5.391,14.648c0,4.219-1.094,8.048-3.281,11.484c-2.188,3.398-5.06,5.898-8.613,7.5l11.25,18.633h5.859
			v19.512h-29.355l-17.754-33.281h-10.02v13.77h6.152V618.216z M684.372,554.583v15.527h3.516c4.608,0,7.734-0.137,9.375-0.41
			c1.758-0.272,3.242-1.055,4.453-2.344c1.21-1.21,1.816-2.871,1.816-4.98s-0.606-3.788-1.816-5.039
			c-1.211-1.289-2.754-2.07-4.629-2.344c-1.797-0.272-5.078-0.41-9.844-0.41H684.372z"/>
		<path fill="#7FFF00" d="M826.638,618.216h-77.754v-19.512h6.328v-42.48h-6.445v-19.512h77.871v26.074h-21.387v-6.562h-18.516
			v12.539h16.113v16.582h-16.113v13.359h18.516v-6.562h21.387V618.216z"/>
		<path fill="#7FFF00" d="M843.22,556.224h-6.27v-19.512h41.719v19.512h-3.867v27.48c0,6.562,0.624,11.036,1.875,13.418
			c1.25,2.344,3.495,3.516,6.738,3.516c2.695,0,4.648-0.996,5.859-2.988c1.21-1.953,1.816-5.956,1.816-12.012v-29.414h-4.102
			v-19.512h30.645v19.512h-6.445v29.531c0,7.539-1.094,13.711-3.281,18.516c-2.188,4.767-5.821,8.496-10.898,11.191
			c-5.078,2.695-11.329,4.043-18.75,4.043c-5.977,0-11.271-0.724-15.879-2.168c-4.688-1.406-8.399-3.554-11.133-6.445
			c-2.734-2.851-4.746-6.308-6.035-10.371c-1.328-3.945-1.992-9.999-1.992-18.164V556.224z"/>
		<path fill="#7FFF00" d="M944.704,618.216h-18.34v-26.133h18.34c2.188,7.11,6.308,10.664,12.363,10.664
			c4.374,0,6.562-1.758,6.562-5.273c0-1.836-0.762-3.359-2.285-4.57c-1.641-1.327-5.098-3.164-10.371-5.508
			c-6.642-3.008-11.523-5.604-14.648-7.793c-2.93-1.992-5.43-4.746-7.5-8.262c-2.071-3.477-3.105-7.324-3.105-11.543
			c0-7.578,2.461-13.496,7.383-17.754c4.883-4.257,10.898-6.387,18.047-6.387s13.203,2.031,18.164,6.094v-5.039h18.457v23.203
			h-18.223c-2.227-6.406-6.173-9.609-11.836-9.609c-3.984,0-5.977,1.699-5.977,5.098c0,1.641,0.565,2.871,1.699,3.691
			c1.093,0.859,4.629,2.754,10.605,5.684c8.007,3.984,13.359,6.895,16.055,8.73c1.367,0.899,2.763,2.159,4.189,3.779
			c1.426,1.621,2.607,3.291,3.545,5.01c2.147,3.829,3.223,7.969,3.223,12.422c0,6.836-2.54,12.618-7.617,17.344
			c-5.078,4.805-11.484,7.207-19.219,7.207c-7.188,0-13.691-2.129-19.512-6.387V618.216z"/>
		<path fill="#7FFF00" d="M1079.118,618.216h-77.754v-19.512h6.328v-42.48h-6.445v-19.512h77.871v26.074h-21.387v-6.562h-18.516
			v12.539h16.113v16.582h-16.113v13.359h18.516v-6.562h21.387V618.216z"/>
	</g>
	<path fill="#7FFF00" d="M642.201,307.994V207.33l6.402-12.965h-52.176l6.401,12.965v100.664
		c-23.748,13.992-40.813,50.639-40.813,77.158c0,33.414,27.086,38.096,60.5,38.096c33.413,0,60.5-4.682,60.5-38.096
		C683.016,358.633,665.95,321.986,642.201,307.994"/>
	<polygon fill="#A28A66" points="633.164,212.589 611.901,212.589 605.967,180.863 639.098,180.863 	"/>
	<path fill="#231F20" d="M633.164,213.867c-1.772,0.416-3.544,0.629-5.316,0.777c-1.771,0.146-3.544,0.206-5.315,0.197
		c-1.771-0.006-3.544-0.074-5.315-0.217c-1.771-0.153-3.544-0.361-5.315-0.758l-1.071-0.24l-0.186-0.803l-7.289-31.473l-0.719-3.104
		l3.33-0.043l33.131-0.416l3.928-0.051l-0.905,3.689l-7.895,32.19L633.164,213.867z M632.072,211.084l4.004-30.786l3.021,3.64
		l-33.131-0.418l2.611-3.145l4.579,31.979l-1.256-1.043c1.771-0.396,3.544-0.605,5.315-0.758c1.771-0.143,3.544-0.212,5.315-0.218
		c1.771-0.009,3.544,0.052,5.315,0.198C629.257,210.65,630.664,210.814,632.072,211.084z"/>
	<path fill="#231F20" d="M640.929,308.676l-3.188-101.346l-0.029-0.9l0.49-1.074l0.001-0.002l6.638-12.846l3.763,6.053h-0.002
		l-52.174-1.789l2.157-3.471l0.001,0.002l8.585,11.883l0.182,0.251l0.319,1.894v0.002l-3.009,100.662l-0.033,1.096l-0.871,0.484
		l-0.003,0.002c-5.697,3.986-10.566,9.018-14.78,14.52c-2.099,2.762-4.053,5.632-5.839,8.608c-1.791,2.972-3.445,6.026-4.938,9.155
		c-3.01,6.246-5.439,12.762-7.267,19.387c-0.905,3.313-1.661,6.656-2.217,10.008c-0.565,3.348-0.93,6.705-1.06,10.023
		c-0.032,0.829-0.048,1.656-0.046,2.479c0,0.411,0.005,0.821,0.015,1.23l0.017,0.621l0.01,0.33l0.013,0.289
		c0.016,0.375,0.04,0.799,0.065,1.195c0.026,0.403,0.06,0.805,0.094,1.203c0.073,0.799,0.168,1.588,0.283,2.367
		c0.454,3.116,1.265,6.064,2.493,8.686c1.225,2.625,2.874,4.906,4.929,6.838c2.056,1.929,4.53,3.514,7.301,4.785
		c2.771,1.266,5.813,2.238,8.994,2.971c3.184,0.733,6.498,1.258,9.877,1.623c3.38,0.369,6.822,0.604,10.299,0.738
		c3.474,0.143,6.995,0.197,10.513,0.199c3.545,0.01,7.047-0.033,10.527-0.166c3.478-0.124,6.922-0.346,10.305-0.705
		c3.383-0.354,6.702-0.867,9.893-1.592c3.188-0.723,6.241-1.687,9.028-2.948c2.785-1.267,5.28-2.851,7.359-4.786
		c2.078-1.938,3.751-4.236,4.995-6.879c1.248-2.639,2.074-5.605,2.542-8.74c0.474-3.132,0.596-6.43,0.485-9.76
		c-0.122-3.332-0.476-6.703-1.032-10.064c-0.548-3.365-1.295-6.721-2.193-10.05c-1.812-6.653-4.23-13.198-7.232-19.478
		c-1.49-3.145-3.142-6.217-4.932-9.209c-1.785-2.994-3.741-5.886-5.844-8.67c-4.223-5.545-9.114-10.631-14.867-14.677
		L640.929,308.676z M643.52,307.229c3.076,1.57,5.986,3.471,8.729,5.586c2.932,2.281,5.679,4.799,8.234,7.494
		c5.123,5.389,9.519,11.436,13.305,17.835c3.761,6.417,6.928,13.198,9.387,20.282c2.448,7.086,4.24,14.471,4.936,22.162
		c0.34,3.848,0.399,7.773-0.007,11.782c-0.411,3.999-1.312,8.095-2.981,12.04c-0.835,1.967-1.857,3.889-3.071,5.699
		c-1.207,1.814-2.612,3.508-4.152,5.045s-3.217,2.913-4.968,4.125c-1.755,1.208-3.582,2.254-5.439,3.162
		c-3.718,1.818-7.547,3.078-11.348,4.035c-3.805,0.955-7.602,1.58-11.364,2.045c-7.526,0.901-14.946,1.121-22.254,1.143
		c-7.335,0-14.735-0.195-22.275-1.076c-3.766-0.451-7.566-1.066-11.381-2.012c-3.808-0.947-7.647-2.198-11.381-4.012
		c-1.865-0.904-3.701-1.948-5.467-3.156c-1.762-1.211-3.449-2.589-5.001-4.129c-1.552-1.539-2.969-3.238-4.188-5.059
		c-1.227-1.818-2.258-3.748-3.105-5.725c-1.688-3.961-2.606-8.076-3.032-12.092c-0.105-1.006-0.182-2.008-0.229-3.004
		c-0.023-0.498-0.043-0.995-0.054-1.49c-0.011-0.5-0.019-0.977-0.019-1.5v-0.385l0.004-0.346l0.013-0.727
		c0.013-0.489,0.028-0.979,0.052-1.467c0.045-0.975,0.109-1.945,0.192-2.91c0.674-7.721,2.447-15.132,4.882-22.246
		c2.442-7.111,5.597-13.923,9.35-20.373c3.777-6.434,8.17-12.518,13.302-17.951c2.561-2.719,5.314-5.262,8.26-7.568
		c2.951-2.295,6.098-4.36,9.449-6.021l0.003-0.002l-0.902,1.58l-3.01-100.662v-0.002l0.501,2.145l-4.216-14.041l-0.001-0.002
		l-1.792-3.336l3.95-0.137l52.174-1.789h0.002l6.671-0.122l-2.909,6.177l-6.163,13.078l-0.001,0.002l0.461-1.975L643.52,307.229z"/>
	<path fill="#CEAF85" d="M611.626,184.826c-0.755,0-0.755,1.172,0,1.172C612.383,185.998,612.383,184.826,611.626,184.826z"/>
	<path fill="#CEAF85" d="M617.483,185.12c-0.755,0-0.755,1.171,0,1.171C618.239,186.291,618.239,185.12,617.483,185.12z"/>
	<path fill="#CEAF85" d="M626.563,184.534c-0.757,0-0.757,1.171,0,1.171C627.318,185.705,627.318,184.534,626.563,184.534z"/>
	<path fill="#CEAF85" d="M629.491,188.048c-0.756,0-0.756,1.172,0,1.172C630.246,189.22,630.246,188.048,629.491,188.048z"/>
	<path fill="#CEAF85" d="M621.291,188.634c-0.756,0-0.756,1.173,0,1.173S622.047,188.634,621.291,188.634z"/>
	<path fill="#CEAF85" d="M617.191,198.885c-0.756,0-0.756,1.172,0,1.172C617.946,200.057,617.946,198.885,617.191,198.885z"/>
	<path fill="#CEAF85" d="M616.898,203.277c-0.756,0-0.756,1.172,0,1.172C617.653,204.449,617.653,203.277,616.898,203.277z"/>
	<path fill="#CEAF85" d="M613.677,201.52c-0.756,0-0.756,1.172,0,1.172S614.433,201.52,613.677,201.52z"/>
	<path fill="#CEAF85" d="M613.97,207.377c-0.756,0-0.756,1.172,0,1.172S614.726,207.377,613.97,207.377z"/>
	<path fill="#CEAF85" d="M627.148,204.156c-0.756,0-0.756,1.171,0,1.171S627.904,204.156,627.148,204.156z"/>
	<path fill="#CEAF85" d="M624.513,200.642c-0.756,0-0.756,1.172,0,1.172S625.269,200.642,624.513,200.642z"/>
	<path fill="#CEAF85" d="M620.998,205.914c-0.755,0-0.755,1.17,0,1.17C621.754,207.084,621.754,205.914,620.998,205.914z"/>
	<path fill="#CEAF85" d="M630.956,201.228c-0.756,0-0.756,1.171,0,1.171C631.711,202.398,631.711,201.228,630.956,201.228z"/>
	<path fill="#CEAF85" d="M632.713,184.534c-0.756,0-0.756,1.171,0,1.171S633.469,184.534,632.713,184.534z"/>
	<path fill="#CEAF85" d="M630.37,185.705c-0.756,0-0.756,1.172,0,1.172S631.126,185.705,630.37,185.705z"/>
	<path fill="#CEAF85" d="M620.706,186.291c-0.757,0-0.757,1.172,0,1.172C621.461,187.463,621.461,186.291,620.706,186.291z"/>
	<path fill="#CEAF85" d="M611.626,187.463c-0.755,0-0.755,1.171,0,1.171C612.383,188.634,612.383,187.463,611.626,187.463z"/>
	<path fill="#CEAF85" d="M612.505,185.705c-0.755,0-0.755,1.172,0,1.172C613.261,186.877,613.261,185.705,612.505,185.705z"/>
	<path fill="#CEAF85" d="M618.948,200.35c-0.756,0-0.756,1.17,0,1.17S619.704,200.35,618.948,200.35z"/>
	<path fill="#CEAF85" d="M624.22,204.741c-0.756,0-0.756,1.173,0,1.173S624.976,204.741,624.22,204.741z"/>
	<circle fill="#FFFFFF" cx="643.025" cy="399.695" r="4.292"/>
	<path fill="#FFFFFF" d="M582.922,391.109c0,2.371-1.922,4.293-4.293,4.293c-2.37,0-4.292-1.922-4.292-4.293
		s1.922-4.291,4.292-4.291C581,386.818,582.922,388.738,582.922,391.109"/>
	<circle fill="#FFFFFF" cx="622.945" cy="356.376" r="5.91"/>
	<circle fill="#FFFFFF" cx="619.515" cy="236.861" r="5.91"/>
	<circle fill="#FFFFFF" cx="629.909" cy="257.645" r="2.998"/>
	<path fill="#99FF33" d="M601.27,331.768c-5.002,2.717-9.159,6.921-12.368,11.709c-3.209,4.807-5.476,10.223-6.865,15.79
		c-1.395,5.573-1.94,11.307-1.725,16.97c0.197,4.248,0.751,8.496,1.945,12.578c0.378,0.597,0.614,1.294,0.658,2.043
		c0.23,0.654,0.479,1.304,0.747,1.947c0.688-5.611,1.329-10.98,2.128-16.281c0.794-5.293,1.758-10.48,3.034-15.554
		c1.28-5.072,2.86-10.028,4.909-14.858C595.766,341.261,598.297,336.597,601.27,331.768"/>
	<path fill="#FFFFFF" d="M582.257,388.814c0.201,0.686,0.419,1.367,0.658,2.043C582.871,390.108,582.636,389.411,582.257,388.814"/>
</g>
</svg>
