<?xml version="1.0" encoding="utf-8"?>
<!-- Generator: Adobe Illustrator 15.0.0, SVG Export Plug-In . SVG Version: 6.00 Build 0)  -->
<!DOCTYPE svg PUBLIC "-//W3C//DTD SVG 1.1//EN" "http://www.w3.org/Graphics/SVG/1.1/DTD/svg11.dtd">
<svg version="1.1" id="Layer_1" xmlns="http://www.w3.org/2000/svg" xmlns:xlink="http://www.w3.org/1999/xlink" x="0px" y="0px"
	 width="129.594px" height="418.733px" viewBox="0 0 129.594 418.733" enable-background="new 0 0 129.594 418.733"
	 xml:space="preserve">
<g>
	<ellipse fill="#99999A" cx="63.445" cy="411.233" rx="54.612" ry="7.5"/>
	<path fill="#00FF00" d="M83.322,277.566V46.907l5.762-14.273H42.122l5.762,14.273v230.658
		c-21.375,15.406-36.735,55.755-36.735,84.957c0,36.789,24.381,41.943,54.455,41.943c30.073,0,54.454-5.154,54.454-41.943
		C120.058,333.321,104.697,292.971,83.322,277.566"/>
	<polygon fill="#A28A66" points="73.669,53.358 57.537,53.358 53.035,4.155 78.172,4.155 	"/>
	<path fill="#231F20" d="M73.669,55.043c-1.344,0.548-2.688,0.829-4.033,1.025c-1.344,0.191-2.688,0.271-4.033,0.261
		c-1.344-0.008-2.688-0.099-4.033-0.287c-1.344-0.202-2.689-0.475-4.033-0.999l-1.559-0.607l-0.119-0.925L49.547,4.474l-0.482-3.736
		l3.969-0.086l25.137-0.551L82.84,0l-0.633,4.524l-6.985,49.886L73.669,55.043z M72.081,51.148l2.054-47.363l4.037,4.422
		l-25.137-0.55l3.488-3.821l2.692,49.369l-1.678-1.532c1.344-0.523,2.689-0.797,4.033-0.998c1.344-0.188,2.689-0.279,4.033-0.287
		c1.345-0.011,2.689,0.07,4.033,0.261C70.452,50.768,71.264,50.926,72.081,51.148z"/>
	<path fill="#231F20" d="M81.631,278.325L77.442,46.907l-0.018-1.035l0.445-1.166l0.001-0.002l6.085-14.14l5.128,7.6h-0.003
		l-46.958-2.36l2.941-4.358l0,0.003l8.74,13.069l-0.051-0.075l0.515,2.465l0.001,0.003l-3.967,230.656l-0.022,1.269l-0.982,0.692
		l-0.004,0.003c-5.174,4.62-9.343,10.281-12.901,16.28c-1.765,3.014-3.396,6.113-4.869,9.291c-1.477,3.177-2.839,6.409-4.052,9.698
		c-2.462,6.563-4.414,13.316-5.911,20.121c-1.481,6.805-2.489,13.687-2.836,20.471c-0.324,6.764-0.021,13.504,1.525,19.367
		c0.763,2.93,1.855,5.603,3.267,7.903c1.419,2.301,3.163,4.229,5.271,5.837c4.197,3.223,10.019,5.148,16.426,6.185
		c3.204,0.525,6.546,0.856,9.96,1.047c3.41,0.201,6.915,0.277,10.422,0.278c3.553,0.014,7.023-0.047,10.446-0.234
		c3.416-0.176,6.763-0.493,9.973-1.004c6.42-1.011,12.27-2.909,16.52-6.135c2.134-1.61,3.908-3.548,5.352-5.865
		c1.437-2.316,2.551-5.009,3.333-7.956c1.582-5.898,1.915-12.668,1.618-19.458c-0.32-6.811-1.304-13.721-2.762-20.556
		c-1.475-6.833-3.406-13.618-5.853-20.219c-1.206-3.31-2.562-6.562-4.035-9.762c-1.469-3.202-3.098-6.326-4.864-9.369
		c-1.783-3.03-3.714-5.977-5.868-8.752c-2.142-2.785-4.509-5.393-7.132-7.75L81.631,278.325z M85.044,276.638
		c3.009,1.835,5.794,4.026,8.378,6.416c2.784,2.598,5.348,5.42,7.709,8.392c4.735,5.94,8.705,12.435,12.125,19.188
		c3.392,6.771,6.244,13.814,8.499,21.085c2.256,7.271,3.95,14.762,4.854,22.493c0.454,3.867,0.691,7.793,0.644,11.804
		c-0.058,4.008-0.414,8.114-1.294,12.275c-0.885,4.148-2.309,8.383-4.554,12.372c-1.118,1.992-2.432,3.915-3.927,5.699
		c-1.5,1.781-3.174,3.422-4.967,4.88c-3.586,2.934-7.611,5.081-11.629,6.651c-4.031,1.575-8.085,2.577-12.064,3.304
		c-7.965,1.408-15.695,1.692-23.2,1.729c-7.551-0.007-15.249-0.261-23.238-1.64c-3.985-0.712-8.049-1.7-12.096-3.266
		c-4.033-1.559-8.081-3.7-11.694-6.633c-1.807-1.459-3.495-3.104-5.009-4.889c-1.51-1.789-2.837-3.718-3.969-5.717
		c-2.273-4.004-3.72-8.258-4.624-12.423c-0.9-4.18-1.273-8.301-1.347-12.325c-0.063-4.032,0.16-7.959,0.599-11.846
		c0.876-7.758,2.546-15.275,4.779-22.576c2.231-7.302,5.063-14.378,8.438-21.188c3.405-6.792,7.363-13.328,12.101-19.327
		c2.362-3,4.933-5.854,7.73-8.49c2.807-2.62,5.845-5.034,9.178-6.998l0.005-0.003l-1.004,1.961L41.499,46.911l0.001-0.003
		l0.464,2.389l-2.782-15.474l0-0.003l-1.908-4.115l4.849-0.244l46.958-2.359h0.003l8.066-0.184l-2.938,7.785l-5.437,14.402v0.002
		l0.427-2.201L85.044,276.638z"/>
	<path fill="#CEAF85" d="M59.075,9.085c-0.995,0-0.995,1.544,0,1.544C60.072,10.63,60.072,9.085,59.075,9.085z"/>
	<path fill="#CEAF85" d="M66.796,9.471c-0.996,0-0.996,1.544,0,1.544C67.792,11.016,67.792,9.471,66.796,9.471z"/>
	<path fill="#CEAF85" d="M60.57,17.964c-0.997,0-0.997,1.544,0,1.544C61.565,19.508,61.565,17.964,60.57,17.964z"/>
	<path fill="#CEAF85" d="M64.43,22.595c-0.997,0-0.997,1.544,0,1.544C65.425,24.14,65.425,22.595,64.43,22.595z"/>
	<path fill="#CEAF85" d="M71.815,14.104c-0.996,0-0.996,1.545,0,1.545C72.811,15.648,72.811,14.104,71.815,14.104z"/>
	<path fill="#CEAF85" d="M64.983,37.536c-0.996,0-0.996,1.544,0,1.544C65.979,39.08,65.979,37.536,64.983,37.536z"/>
	<path fill="#CEAF85" d="M64.597,43.327c-0.996,0-0.996,1.544,0,1.544C65.593,44.871,65.593,43.327,64.597,43.327z"/>
	<path fill="#CEAF85" d="M60.351,41.011c-0.997,0-0.997,1.544,0,1.544C61.347,42.555,61.347,41.011,60.351,41.011z"/>
	<path fill="#CEAF85" d="M60.737,48.731c-0.996,0-0.996,1.545,0,1.545S61.733,48.731,60.737,48.731z"/>
	<path fill="#CEAF85" d="M67.106,46.416c-0.996,0-0.996,1.543,0,1.543S68.103,46.416,67.106,46.416z"/>
	<path fill="#CEAF85" d="M63.632,41.783c-0.996,0-0.996,1.544,0,1.544C64.628,43.327,64.628,41.783,63.632,41.783z"/>
	<path fill="#CEAF85" d="M70.002,46.801c-0.996,0-0.996,1.545,0,1.545C70.998,48.345,70.998,46.801,70.002,46.801z"/>
	<path fill="#CEAF85" d="M69.424,24.912c-0.997,0-0.997,1.543,0,1.543C70.419,26.456,70.419,24.912,69.424,24.912z"/>
	<path fill="#CEAF85" d="M68.677,17.964c-0.997,0-0.997,1.544,0,1.544C69.672,19.508,69.672,17.964,68.677,17.964z"/>
	<path fill="#CEAF85" d="M65.588,19.508c-0.996,0-0.996,1.544,0,1.544C66.584,21.052,66.584,19.508,65.588,19.508z"/>
	<path fill="#CEAF85" d="M71.043,11.016c-0.997,0-0.997,1.543,0,1.543C72.039,12.559,72.039,11.016,71.043,11.016z"/>
	<path fill="#CEAF85" d="M59.075,12.559c-0.995,0-0.995,1.544,0,1.544C60.072,14.104,60.072,12.559,59.075,12.559z"/>
	<path fill="#CEAF85" d="M62.94,13.332c-0.995,0-0.995,1.544,0,1.544C63.937,14.876,63.937,13.332,62.94,13.332z"/>
	<path fill="#CEAF85" d="M67.299,39.466c-0.996,0-0.996,1.545,0,1.545S68.295,39.466,67.299,39.466z"/>
	<path fill="#CEAF85" d="M63.246,47.187c-0.996,0-0.996,1.544,0,1.544S64.242,47.187,63.246,47.187z"/>
	<path fill="#FFFFFF" d="M62.532,308.776c0,4.852-3.934,8.785-8.785,8.785s-8.784-3.934-8.784-8.785s3.933-8.784,8.784-8.784
		S62.532,303.925,62.532,308.776"/>
	<circle fill="#FFFFFF" cx="94.502" cy="370.412" r="5.658"/>
	<circle fill="#FFFFFF" cx="66.049" cy="85.441" r="3.952"/>
	<circle fill="#FFFFFF" cx="71.814" cy="207.776" r="3.952"/>
	<path fill="#33FF33" d="M57.055,288.445c-6.27,3.917-11.491,9.532-15.534,15.853c-4.045,6.341-6.924,13.407-8.737,20.666
		c-1.819,7.268-2.604,14.738-2.481,22.144c0.176,7.396,1.11,14.803,3.543,21.794c0.449-7.34,1.05-14.463,1.935-21.508
		c0.886-7.035,2.089-13.96,3.792-20.727c1.436-5.699,3.218-11.287,5.47-16.711c-0.052-0.386-0.078-0.78-0.078-1.18
		c0-3.144,1.651-5.901,4.133-7.454C51.41,296.947,54.073,292.684,57.055,288.445"/>
	<path fill="#FFFFFF" d="M49.096,301.323c-2.482,1.552-4.133,4.31-4.133,7.454c0,0.4,0.026,0.794,0.078,1.18
		c0.421-1.014,0.858-2.021,1.312-3.023C47.204,305.038,48.119,303.17,49.096,301.323"/>
</g>
</svg>
