<?xml version="1.0" encoding="utf-8"?>
<!-- Generator: Adobe Illustrator 16.0.0, SVG Export Plug-In . SVG Version: 6.00 Build 0)  -->
<!DOCTYPE svg PUBLIC "-//W3C//DTD SVG 1.1//EN" "http://www.w3.org/Graphics/SVG/1.1/DTD/svg11.dtd">
<svg version="1.1" id="Layer_1" xmlns="http://www.w3.org/2000/svg" xmlns:xlink="http://www.w3.org/1999/xlink" x="0px" y="0px"
	 width="144.922px" height="749.396px" viewBox="0 0 200.922 387.396" enable-background="new 0 0 200.922 387.396"
	 xml:space="preserve">
<g>
	<path fill="#EA2227" d="M177.394,85.974H50c-4.35,0-7.874,2.937-7.874,6.563v9.081c0,3.624,3.524,6.561,7.874,6.561h10.823v375.36
		h105.746V108.18h10.822c4.35,0,7.875-2.937,7.875-6.561v-9.082C185.269,88.911,181.743,85.974,177.394,85.974z"/>
	<rect x="61.364" y="148.307" fill="#EA2227" width="103.571" height="314.191"/>
	<ellipse opacity="0.34" fill="#FFFFFF" enable-background="new    " cx="101.387" cy="181.227" rx="7.679" ry="6.396"/>
	<ellipse opacity="0.34" fill="#FFFFFF" enable-background="new    " cx="93.298" cy="259.998" rx="5.378" ry="4.48"/>
	<ellipse opacity="0.34" fill="#FFFFFF" enable-background="new    " cx="118.42" cy="229.029" rx="11.152" ry="9.292"/>
	<ellipse opacity="0.34" fill="#FFFFFF" enable-background="new    " cx="107.268" cy="305.401" rx="5.88" ry="4.899"/>
	<path fill="#231F20" d="M191.908,96.744l-0.061-2.417l-0.045-1.208l-0.023-0.746l-0.021-0.301l-0.061-0.659
		c-0.384-2.97-2.135-5.72-4.751-7.638c-2.599-1.924-6.1-3.033-9.554-2.991l-21.732,0.092c-7.244,0.02-14.488,0.028-21.731,0.119
		c-7.244,0.095-14.488,0.224-21.732,0.438c-7.244,0.208-14.488,0.625-21.734,1.058c-7.244,0.447-14.488,0.913-21.732,1.171
		c-3.62,0.128-7.244,0.212-10.864,0.24c-1.812,0.016-3.624,0.025-5.436,0.01l-2.78-0.007c-1.235,0.019-2.399,0.208-3.528,0.57
		c-2.243,0.718-4.176,2.082-5.408,3.833c-0.617,0.875-1.039,1.849-1.275,2.854c-0.119,0.485-0.177,1.056-0.197,1.489l-0.071,1.133
		c-0.082,1.508-0.224,3.016-0.338,4.524c-0.054,0.753-0.143,1.508-0.214,2.263l-0.058,0.568l-0.027,0.281l-0.014,0.146l-0.003,0.031
		c-0.003-0.054-0.003,0.117-0.003,0.117l-0.003,0.065c-0.007,0.106-0.018,0.174-0.018,0.303l0.011,0.48
		c0.021,0.287,0.037,0.558,0.078,0.835c0.071,0.514,0.207,1.022,0.38,1.522c0.913,0.527,1.599,1.279,1.802,2.236
		c0.078,0.383,0.183,0.758,0.268,1.14c0.36,0.389,0.733,0.767,1.157,1.113c1.011,0.807,2.195,1.491,3.509,2
		c1.313,0.501,2.755,0.819,4.225,0.938c1.371,0.159,2.713,0.343,4.065,0.527c0.686,29.715,1.259,59.431,1.772,89.148l0.77,46.919
		l0.686,46.92l0.338,23.461l0.26,23.457l0.52,46.92l0.335,46.92l0.096,23.46l0.04,23.461v1.68h109.782v-1.682
		c1.129-15.643,1.815-31.282,2.528-46.919c0.655-15.64,1.171-31.28,1.569-46.92c0.836-31.279,1.196-62.56,1.296-93.841
		c0.101-31.279-0.056-62.558-0.558-93.836c-0.547-29.886-1.251-59.775-2.703-89.659c0.552,0.095,1.108,0.199,1.663,0.282
		c0.969,0.146,1.932,0.27,2.9,0.378c1.037,0.083,1.67,0.253,3.514,0.218c3.464-0.126,6.896-1.455,9.295-3.607
		c1.212-1.068,2.182-2.337,2.842-3.721c0.658-1.372,0.996-2.91,0.999-4.325C191.938,99.971,191.952,98.357,191.908,96.744z
		 M178.689,94.327l-0.062,2.417c-0.047,1.613-0.033,3.226-0.026,4.84c0.003,0.195,0.003,0.271-0.027,0.408
		c-0.029,0.125-0.082,0.253-0.172,0.383c-0.182,0.255-0.431,0.486-0.826,0.679c-0.085,0.093-1.391,0.175-2.292,0.289
		c-0.969,0.108-1.932,0.229-2.9,0.373c-1.938,0.291-3.873,0.646-5.811,1.162h-0.007l-3.79-0.144l-0.177,3.447
		c-1.598,31.279-2.313,62.561-2.887,93.837c-0.503,31.281-0.659,62.561-0.561,93.837c0.102,31.284,0.458,62.564,1.296,93.842
		c0.4,15.64,0.917,31.28,1.571,46.921c0.686,15.077,1.357,30.157,2.419,45.236H62.846l0.037-21.775l0.096-23.46l0.332-46.92
		l0.52-46.92l0.26-23.457l0.339-23.461l0.688-46.92l0.77-46.921c0.537-31.277,1.133-62.559,1.87-93.837l0.132-5.664l-7.068-0.116
		h-0.006c-3.606,0.694-7.275,1.183-10.833,1.613c-0.676,0.212-1.5,0.207-2.271-0.113c-0.776-0.304-1.438-0.898-1.777-1.646
		c-0.043-0.089-0.082-0.194-0.115-0.283c-0.01-0.027-0.024-0.056-0.036-0.085c-0.018-0.058-0.028-0.18-0.037-0.261l-0.01-0.071
		c-0.004-0.028,0,0.12-0.004,0.038l-0.003-0.031l-0.013-0.146l-0.028-0.281l-0.057-0.568c-0.071-0.753-0.16-1.509-0.214-2.263
		c-0.114-1.508-0.26-3.015-0.339-4.524l-0.071-1.133c-0.02-0.324-0.03-0.507-0.01-0.768c0.043-0.485,0.214-0.96,0.466-1.411
		c0.509-0.895,1.432-1.659,2.563-2.052c0.549-0.208,1.188-0.325,1.761-0.357l0.275-0.01l0.338-0.003l0.679-0.004l1.357-0.003
		c1.812-0.017,3.624-0.004,5.436,0.008c3.62,0.027,7.244,0.11,10.864,0.241c7.244,0.261,14.488,0.728,21.732,1.17
		c7.244,0.434,14.488,0.851,21.732,1.061c7.244,0.214,14.488,0.341,21.732,0.436c7.245,0.09,14.489,0.1,21.733,0.119l21.731,0.093
		c0.421,0.034,0.773,0.161,1.037,0.42c0.256,0.243,0.363,0.568,0.334,0.814L178.689,94.327z"/>
	<g opacity="0.2">
		<polygon fill="#FFFFFF" points="83.795,101.806 78.583,326.831 73.372,101.806 		"/>
	</g>
</g>
<g>
	<path fill="#D35060" d="M160.09,81.683c-0.285-1.005-1.078-1.726-1.998-2.031c-0.346-0.474-0.863-0.856-1.588-1.061
		c-0.881-1.073-2.137-1.261-3.211-0.874c-0.252-0.066-0.508-0.13-0.762-0.191c0.752-6.526,0.57-13.188-2.742-19.059
		c-1.291-2.283-4.371-1.699-5.355,0.419c-3.979-3.896-9.317,0.709-11.856,3.974c-0.468,0.603-0.693,1.242-0.744,1.862
		c-1.5-1.325-3.192-2.026-5.506-2.528c-4.789-1.038-10.086-0.547-14.041,2.173c-0.804-3.31-2.688-6.242-5.468-8.507
		c-0.403-0.331-0.883-0.536-1.381-0.637c-0.219-0.417-0.42-0.84-0.647-1.256c-0.615-1.115-1.524-1.551-2.429-1.522
		c-4.155-6.334-9.593-11.37-17.46-8.855c-0.098,0.031-0.186,0.071-0.277,0.108c-9.27-1.858-21.572,1.002-25.051,9.356
		c-4.121,3.604-6.738,8.705-4.768,14.225c0.201,0.564,0.535,1.027,0.943,1.382c0.045,0.167,0.1,0.333,0.152,0.5
		c-0.705,3.627-0.619,8.374,0.604,12.022c-0.107,0.176-0.215,0.353-0.324,0.525c-2.027-0.196-4.295,0.646-5.996,1.682
		c-0.723,0.439-1.146,1.087-1.326,1.784c-3.604,3.15-3.689,8.914,0.219,12.927c0.031,0.032,0.066,0.058,0.098,0.088
		c-1.008,1.124-2.031,2.234-3.078,3.322c-1.902,1.979-3.77,3.955-5.494,6.021c-0.857-0.162-1.779,0.05-2.525,0.827
		c-1.779,1.854-2.768,4.089-3.25,6.479c-0.42,1.236-0.76,2.512-1.021,3.845c-0.148,0.762-0.057,1.421,0.188,1.969
		c-0.072,0.164-0.137,0.341-0.188,0.531c-0.906,3.378,0.277,6.046,2.334,8.234c-0.654,0.849-0.838,1.981-0.031,3.077
		c0.914,1.242,4.139,3.389,5.953,5.302c-0.361,0.339-0.633,0.799-0.756,1.386c-0.648,3.109-0.533,5.664,0.314,7.906
		c-1.268,4.126-0.336,9.128,4.318,10.408c1.291,0.354,2.572,0.06,3.809-0.311c0.32-0.096,0.619-0.155,0.9-0.186
		c1.611,1.968,2.803,4.174,3.877,6.462c-0.381,2.597,0.67,5.797,2.586,8.149c-1.174,7.755,11.592,9.214,12.088,16.368
		c0.08,1.137,0.816,2.142,1.768,2.666c1.621,3.563,3.896,6.743,7.273,8.497c0.49,0.781,1.336,1.337,2.459,1.337h2
		c1.627,0,2.67-1.294,2.902-2.674c0.955-0.235,1.77-0.885,1.99-2.028c0.439-2.272,0.596-4.481,0.607-6.798
		c0.004-0.493-0.117-0.922-0.309-1.299c-0.176-8.427-1.186-17.539,1.674-25.136c0.342-0.389,0.525-0.87,0.572-1.384
		c0.527-1.164,1.156-2.286,1.906-3.358c0.131-0.176,0.254-0.355,0.389-0.529c0.061-0.081,0.123-0.162,0.186-0.242
		c0.383-0.486,0.779-0.966,1.203-1.431c0.066-0.073,0.109-0.146,0.166-0.221c1.768-1.488,5.141-2.225,7.227-3.257
		c2.151-1.065,4.031-2.857,5.851-4.401c6.932-5.885,11.975-12.555,14.369-21.375c0.702-2.586,1.176-5.243,2.575-7.563
		c1.947-3.226,6.945-4.219,10.289-4.971c7-1.577,13.927-2.063,19.011-7.02c0.141-0.063,0.278-0.132,0.405-0.225
		c1.162-0.83,1.644-1.553,1.865-2.729c1.215-0.381,2.121-1.552,2.121-2.86c0-0.334-0.068-0.648-0.171-0.948
		c0.688-1.308,1.214-2.762,1.572-4.302C161.031,91.55,161.555,86.823,160.09,81.683z"/>
	<g>
		<path fill="#231F20" d="M142.697,88.981c-0.188-0.053-0.197-0.889,0.215-2.389c0.422-1.491,1.252-3.655,2.951-6.138
			c0.857-1.232,1.93-2.555,3.438-3.769c0.761-0.6,1.634-1.178,2.699-1.6c1.054-0.421,2.349-0.676,3.707-0.461
			c1.358,0.199,2.66,0.885,3.66,1.774c1.014,0.893,1.791,1.954,2.45,3.065c0.63,1.061,1.25,2.4,1.58,3.742
			c0.353,1.339,0.535,2.704,0.619,4.086c0.162,2.763-0.067,5.6-0.598,8.495c-0.541,2.893-1.369,5.851-2.676,8.817
			c-0.662,1.481-1.434,2.97-2.461,4.425c-0.512,0.727-1.096,1.443-1.781,2.133c-0.348,0.344-0.721,0.679-1.131,1l-0.404,0.293
			l-0.467,0.313c-0.146,0.123-0.326,0.176-0.508,0.221l-0.539,0.154l-9.502,2.699l-4.93,1.388l-2.508,0.703l-0.695,0.195
			c-0.412,0.084-0.816,0.308-1.248,0.206l-0.916-0.066l-0.59-0.025c-1.576-0.056-2.908,0.104-3.703,0.58
			c-0.422,0.237-0.844,0.592-1.303,1.112c-0.229,0.258-0.461,0.551-0.693,0.867c-0.113,0.156-0.227,0.299-0.295,0.421
			c-0.072,0.114-0.148,0.239-0.23,0.396c-0.65,1.178-1.098,2.729-1.439,4.414c-0.346,1.691-0.59,3.522-0.924,5.471
			c-0.36,1.937-0.717,4.062-1.842,6.31c-1.025,2.037-2.408,3.872-4,5.438c-3.205,3.142-6.957,5.105-10.424,6.794l-2.563,1.225
			l-1.229,0.598c-0.227,0.112-0.355,0.177-0.492,0.255c-0.143,0.078-0.287,0.165-0.432,0.261c-1.172,0.762-2.346,1.92-3.389,3.173
			c-2.1,2.539-3.797,5.505-5.09,8.514c-1.287,3.018-2.176,6.134-2.494,9.136c-0.168,1.231-0.016,2.957,0.053,4.548l0.264,4.891
			c0.129,3.266,0.146,6.521-0.352,9.771c-0.258,1.622-0.646,3.25-1.322,4.836c-0.666,1.576-1.676,3.132-3.076,4.318
			c-0.344,0.294-0.736,0.574-1.066,0.782c-0.295,0.193-0.619,0.407-0.977,0.609c-0.693,0.402-1.436,0.756-2.23,1.028
			c-1.572,0.554-3.451,0.713-5.137,0.223c-1.693-0.473-3.039-1.466-4.047-2.502c-1.016-1.049-1.76-2.173-2.373-3.28
			c-1.215-2.223-1.938-4.399-2.49-6.439c-1.07-4.089-1.41-7.663-1.5-10.583c-0.08-2.92,0.146-5.196,0.477-6.716
			c0.328-1.525,0.758-2.265,0.951-2.209c0.205,0.057,0.184,0.842,0.252,2.314c0.066,1.471,0.221,3.642,0.645,6.404
			c0.434,2.753,1.102,6.129,2.383,9.804c0.646,1.823,1.455,3.736,2.568,5.482c1.088,1.729,2.611,3.302,4.201,3.618
			c0.787,0.169,1.629,0.079,2.555-0.292c0.461-0.185,0.934-0.434,1.404-0.737c0.229-0.145,0.473-0.319,0.744-0.517
			c0.244-0.17,0.408-0.305,0.588-0.471c1.41-1.286,2.217-3.676,2.523-6.365c0.32-2.701,0.23-5.68,0.012-8.788l-0.391-4.81
			c-0.068-0.829-0.133-1.672-0.182-2.547c-0.023-0.448-0.041-0.862-0.051-1.366c-0.01-0.563,0.039-1.063,0.07-1.511
			c0.311-3.719,1.289-7.339,2.709-10.837c1.441-3.492,3.297-6.888,5.838-10.041c1.293-1.568,2.732-3.095,4.676-4.4
			c0.244-0.162,0.5-0.319,0.766-0.47c0.268-0.154,0.557-0.302,0.75-0.397l1.299-0.644l2.539-1.233
			c3.318-1.622,6.455-3.357,8.826-5.7c1.182-1.162,2.15-2.462,2.859-3.855c0.633-1.19,0.994-2.877,1.316-4.651
			c0.317-1.786,0.582-3.685,0.995-5.647c0.427-1.958,0.974-4.022,2.109-6.063c0.135-0.247,0.297-0.513,0.475-0.783
			c0.171-0.268,0.343-0.483,0.498-0.695c0.316-0.415,0.654-0.834,1.033-1.252c0.75-0.832,1.713-1.688,2.875-2.312
			c1.16-0.633,2.424-0.96,3.551-1.104c1.138-0.148,2.175-0.141,3.162-0.098l0.729,0.045l0.359,0.028
			c0.051,0.004,0.023,0.003,0.039,0.005c0.012,0.005,0.023,0.001,0.033,0.001l0.572-0.148l2.521-0.656l4.955-1.284l9.524-2.443
			c0.023-0.005,0.052-0.002,0.072-0.016l0.029-0.014c-0.002,0.002,0.006-0.002,0.08-0.054c0.221-0.16,0.441-0.346,0.662-0.549
			c0.438-0.413,0.863-0.894,1.26-1.422c0.801-1.053,1.492-2.259,2.096-3.492c1.203-2.482,2.063-5.107,2.654-7.662
			c0.588-2.558,0.906-5.073,0.895-7.409c-0.008-1.167-0.102-2.287-0.307-3.312c-0.197-1.033-0.527-1.878-1-2.833
			c-0.896-1.812-2.1-3.101-3.373-3.377c-1.281-0.343-2.844,0.239-4.119,1.076c-1.293,0.842-2.379,1.891-3.28,2.895
			c-1.808,2.031-2.929,3.9-3.675,5.164C143.285,88.334,142.906,89.042,142.697,88.981z"/>
	</g>
	<g>
		<path fill="#231F20" d="M68.197,181.981c-0.066,0.4-0.721,0.712-1.898,0.776c-1.172,0.06-2.881-0.146-4.859-0.906
			c-1.971-0.755-4.201-2.079-6.227-4.085c-2.021-1.996-3.834-4.679-4.891-7.866c-1.062-3.18-1.207-6.537-0.555-9.414
			c0.631-2.894,2.008-5.236,3.432-6.839c1.432-1.617,2.883-2.547,3.953-3.016c1.084-0.462,1.805-0.478,2.045-0.15
			c0.533,0.697-1.064,2.537-2.488,5.549c-0.699,1.509-1.305,3.321-1.488,5.37c-0.197,2.042,0.037,4.322,0.797,6.614
			c0.76,2.292,1.953,4.344,3.287,6.035c1.334,1.698,2.807,3.034,4.154,4.071C66.158,180.182,68.342,181.125,68.197,181.981z"/>
	</g>
	<g>
		<path fill="#231F20" d="M41.674,141.276c0.709,0.422,0.967,1.544,1.4,3.298c0.42,1.737,0.936,4.173,1.828,6.417
			c0.445,1.115,0.941,2.021,1.434,2.683c0.49,0.665,0.988,1.133,1.59,1.527c1.211,0.777,2.641,1.111,2.826,1.936
			c0.1,0.396-0.105,0.87-0.68,1.325c-0.572,0.438-1.545,0.881-2.928,0.909c-1.365,0.041-3.141-0.489-4.582-1.656
			c-1.457-1.147-2.541-2.77-3.229-4.491c-1.354-3.474-1.176-6.714-0.49-8.953c0.352-1.122,0.861-2.001,1.398-2.523
			C40.779,141.216,41.312,141.085,41.674,141.276z"/>
	</g>
	<g>
		<path fill="#231F20" d="M60.197,103.981c-0.32,0.293-1.271-0.31-2.881-1.095c-1.602-0.775-3.951-1.61-6.748-1.108
			c-2.787,0.455-5.99,2.28-8.828,5.201c-2.822,2.897-5.391,6.862-6.641,11.252c-0.619,2.166-0.812,4.384-0.518,6.183
			c0.365,1.93,1.186,3.892,2.201,5.57c2.059,3.411,4.902,5.926,7.541,7.501c2.658,1.601,5.137,2.275,6.908,2.622
			c1.777,0.346,2.881,0.451,2.965,0.875c0.084,0.381-0.889,1.078-2.959,1.461c-2.045,0.375-5.23,0.284-8.768-1.142
			c-3.514-1.406-7.363-4.088-10.312-8.287c-1.463-2.112-2.686-4.547-3.344-7.458c-0.604-3.073-0.287-6.079,0.508-8.943
			c1.65-5.707,4.9-10.284,8.611-13.642c3.707-3.341,8.205-5.414,12.316-5.421c2.033-0.025,3.869,0.458,5.287,1.15
			c1.43,0.691,2.461,1.554,3.184,2.322C60.156,102.59,60.488,103.726,60.197,103.981z"/>
	</g>
	<g>
		<path fill="#231F20" d="M56.697,82.481c-0.219,0.361-0.75,0.478-1.482,0.518c-0.725,0.039-1.668,0.003-2.59,0.167
			c-0.934,0.16-1.736,0.521-2.467,1.186c-0.738,0.662-1.471,1.728-2.016,3.08s-0.842,2.801-0.934,4.086
			c-0.094,1.293,0.02,2.41,0.234,3.3c0.207,0.898,0.545,1.6,0.852,2.193c0.301,0.591,0.543,1.075,0.402,1.472
			c-0.131,0.379-0.658,0.657-1.588,0.54c-0.91-0.107-2.24-0.733-3.316-2.042c-2.209-2.614-3.002-7.327-1.215-11.796
			c0.896-2.227,2.453-4.257,4.531-5.444c1.029-0.592,2.156-0.944,3.209-1.042c1.057-0.113,2.02,0.025,2.816,0.257
			c1.604,0.481,2.574,1.295,3.115,1.951C56.791,81.573,56.908,82.136,56.697,82.481z"/>
	</g>
	<g>
		<path fill="#231F20" d="M113.697,71.481c-0.426,0.063-0.969-1.455-1.998-4.044c-1.043-2.572-2.633-6.255-5.5-10.114
			c-2.84-3.838-7.061-7.844-12.693-10.373c-5.582-2.56-12.564-3.417-19.412-1.564c-1.709,0.45-3.363,1.048-4.949,1.755
			c-0.793,0.354-1.57,0.738-2.328,1.146c-0.742,0.398-1.537,0.854-2.156,1.261c-2.641,1.768-4.779,4.088-6.201,6.643
			c-1.441,2.563-2.229,5.363-2.596,8.081c-0.363,2.725-0.326,5.364-0.113,7.773c0.439,4.837,1.502,8.751,2.207,11.467
			c0.725,2.718,1.121,4.281,0.74,4.472c-0.357,0.182-1.467-1.034-2.904-3.593c-1.41-2.56-3.186-6.475-4.242-11.738
			c-0.516-2.628-0.834-5.603-0.639-8.852c0.197-3.235,0.943-6.782,2.658-10.192c1.705-3.416,4.385-6.549,7.797-8.93
			c0.902-0.615,1.709-1.092,2.598-1.592c0.877-0.49,1.781-0.953,2.713-1.38c1.861-0.856,3.83-1.58,5.883-2.12
			c4.1-1.092,8.33-1.385,12.324-0.922c3.998,0.452,7.744,1.645,11.014,3.303c6.581,3.326,11.122,8.379,13.842,13.019
			c2.75,4.682,3.826,8.95,4.219,11.866C114.336,69.789,114.09,71.428,113.697,71.481z"/>
	</g>
	<g>
		<path fill="#231F20" d="M132.697,72.481c-0.854,0.004-1.486-1.588-2.602-3.493c-1.099-1.907-2.882-4.018-5.425-4.831
			c-2.522-0.866-5.213-0.227-7.264,0.641c-2.056,0.856-3.546,1.715-4.212,1.184c-0.62-0.472-0.35-2.354,1.699-4.602
			c1.027-1.091,2.556-2.233,4.603-2.914c2.024-0.687,4.599-0.832,7.06-0.005c2.469,0.806,4.442,2.452,5.661,4.214
			c1.24,1.77,1.785,3.61,1.945,5.112C134.443,70.839,133.475,72.501,132.697,72.481z"/>
	</g>
	<g>
		<path fill="#231F20" d="M151.197,75.481c-0.842-0.117-1.143-2.479-1.42-5.958c-0.158-1.724-0.33-3.763-0.834-5.689
			c-0.25-0.955-0.601-1.863-1.049-2.55c-0.457-0.693-0.947-1.131-1.623-1.444c-0.34-0.159-0.738-0.275-1.172-0.358
			c-0.23-0.039-0.341-0.052-0.519-0.059c-0.179-0.008-0.371-0.001-0.574,0.018c-0.817,0.071-1.762,0.367-2.643,0.753
			c-1.785,0.783-3.351,1.904-4.552,2.925c-1.203,1.034-2.057,1.996-2.668,2.706c-0.617,0.702-1.022,1.193-1.449,1.158
			c-0.395-0.025-0.791-0.68-0.764-1.9c0.019-1.211,0.508-2.907,1.613-4.667c1.111-1.749,2.775-3.606,5.213-5.098
			c1.227-0.73,2.648-1.395,4.416-1.694c0.439-0.074,0.902-0.122,1.387-0.13c0.482-0.014,1.041,0.029,1.476,0.094
			c0.891,0.137,1.821,0.378,2.735,0.801c1.855,0.821,3.367,2.376,4.199,3.938c0.861,1.572,1.223,3.114,1.408,4.505
			c0.338,2.794,0.014,5.104-0.371,6.981C153.174,73.552,151.99,75.594,151.197,75.481z"/>
	</g>
	<g opacity="0.2">
		<path fill="#FFFFFF" d="M65.197,76.481c0.008-0.001-0.023-0.491-0.186-1.396c-0.152-0.903-0.43-2.228-0.652-3.898
			c-0.219-1.668-0.398-3.688-0.24-5.937c0.156-2.244,0.637-4.73,1.771-7.222c1.127-2.47,2.873-4.742,5.141-6.156
			c1.119-0.705,2.348-1.167,3.512-1.351c1.168-0.185,2.248-0.111,3.156,0.088c1.824,0.408,2.994,1.176,3.789,1.64
			c0.781,0.494,1.203,0.737,1.209,0.729c0.004,0.001-0.457-0.208-1.354-0.327c-0.881-0.118-2.232-0.142-3.615,0.289
			c-0.689,0.217-1.363,0.546-1.969,0.993c-0.607,0.444-1.148,0.995-1.648,1.644c-1,1.295-1.873,2.995-2.764,4.947
			c-0.887,1.953-1.719,3.948-2.52,5.813c-0.791,1.869-1.549,3.615-2.141,5.119c-0.594,1.504-1.027,2.763-1.246,3.644
			C65.211,75.984,65.195,76.482,65.197,76.481z"/>
	</g>
	<g opacity="0.2">
		<path fill="#FFFFFF" d="M46.697,128.981c0,0-0.07-0.058-0.227-0.146l-0.697-0.391c-0.299-0.185-0.701-0.397-1.117-0.724
			c-0.418-0.322-0.916-0.711-1.385-1.227c-0.945-1.019-1.893-2.49-2.422-4.289c-0.537-1.791-0.666-3.888-0.197-5.976
			c0.461-2.088,1.473-3.948,2.744-5.346c1.271-1.406,2.793-2.32,4.109-2.79c0.656-0.246,1.281-0.361,1.799-0.451
			c0.521-0.094,0.975-0.099,1.326-0.119c0.354-0.017,0.621-0.011,0.799-0.021c0.178-0.007,0.268-0.024,0.268-0.024
			s-0.375,0.069-0.938,0.453c-0.283,0.177-0.598,0.457-0.922,0.788c-0.328,0.328-0.633,0.767-0.928,1.236
			c-0.592,0.953-1.031,2.153-1.398,3.436c-0.367,1.29-0.676,2.678-1.002,4.136c-0.318,1.459-0.625,2.863-0.85,4.202
			c-0.227,1.336-0.361,2.622-0.275,3.75c0.047,0.559,0.115,1.089,0.25,1.534c0.133,0.444,0.279,0.836,0.445,1.128
			C46.396,128.748,46.701,128.983,46.697,128.981z"/>
	</g>
	<g opacity="0.2">
		<path fill="#FFFFFF" d="M65.197,162.481c0.008-0.002-0.043-0.104-0.279-0.259c-0.107-0.08-0.25-0.179-0.441-0.292
			c-0.18-0.116-0.457-0.241-0.666-0.409c-0.217-0.165-0.516-0.35-0.725-0.581c-0.213-0.229-0.496-0.485-0.666-0.782
			c-0.391-0.587-0.586-1.316-0.492-2.021c0.09-0.709,0.453-1.301,0.941-1.739l2.133-1.911l0.195,0.094
			c0.244,0.117,0.494,0.313,0.783,0.502c0.275,0.206,0.656,0.396,1.023,0.872c0.18,0.226,0.311,0.504,0.35,0.726
			c0.045,0.224,0.021,0.388-0.01,0.511c-0.098,0.25-0.227,0.382-0.316,0.51c-0.383,0.486-0.348,0.799-0.33,0.781
			c0.025-0.02-0.201-0.146-0.789-0.498c-0.145-0.08-0.322-0.182-0.496-0.179c-0.018,0.002-0.035,0.002-0.051,0.007
			c-0.027,0.012,0.01-0.002,0.057-0.019l0.119-0.05c0.113-0.045,0.201-0.092,0.252-0.123c0.104-0.062,0.096-0.082,0.053-0.021
			c-0.045,0.062-0.125,0.207-0.205,0.467c-0.035,0.123-0.08,0.282-0.115,0.463l-0.076,0.408c-0.037,0.145-0.133,0.327-0.248,0.444
			l2.328-1.818c0.256,0.495,0.4,0.938,0.354,1.33c-0.046,0.393-0.287,0.718-0.641,1.088c-0.148,0.183-0.398,0.379-0.566,0.573
			c-0.162,0.194-0.406,0.4-0.564,0.593c-0.15,0.19-0.367,0.386-0.49,0.552c-0.131,0.167-0.227,0.313-0.285,0.429
			C65.189,162.366,65.191,162.483,65.197,162.481z"/>
	</g>
	<g opacity="0.2">
		<path fill="#FFFFFF" d="M120.197,73.481c-0.004-0.007-0.01,0.038,0.113,0.193c0.053,0.068,0.131,0.163,0.268,0.257
			c0.113,0.076,0.045,0.029,0.018,0.018l-0.078-0.04c-0.063-0.023-0.09-0.034-0.131-0.035c-0.016-0.003-0.021,0.003,0.006-0.008
			c0.06-0.016,0.224-0.138,0.359-0.369c0.139-0.227,0.23-0.505,0.301-0.759c0.021-0.073,0.08-0.411,0.025-0.063
			c-0.025,0.18-0.045,0.454-0.039,0.638c0.004,0.181,0.01,0.436,0.029,0.584c0.018,0.164,0.039,0.285,0.061,0.371
			c0.039,0.195,0.07,0.22,0.068,0.213c0-0.007-0.023,0.019-0.08,0.208L121,75.054c-0.049,0.148-0.121,0.392-0.203,0.563
			c-0.082,0.178-0.193,0.439-0.32,0.601c-0.123,0.17-0.283,0.402-0.461,0.521c-0.172,0.148-0.385,0.235-0.6,0.264
			c-0.229,0.021-0.453-0.015-0.709-0.171c-0.234-0.142-0.486-0.397-0.658-0.734c-0.184-0.341-0.305-0.789-0.275-1.234
			c-0.006-0.458,0.226-0.872,0.431-1.148c0.209-0.269,0.534-0.407,0.76-0.451c0.226-0.073,0.486-0.011,0.646,0.021
			c0.173,0.034,0.291,0.085,0.377,0.116C120.172,73.483,120.201,73.489,120.197,73.481z"/>
	</g>
	<g opacity="0.2">
		<path fill="#FFFFFF" d="M128.197,74.981c0.002-0.007-0.025,0.021-0.035,0.215c-0.002,0.042-0.002,0.095,0,0.155
			c-0.002,0.034,0.029,0.198,0.018,0.132c-0.006-0.043-0.027-0.098-0.035-0.128c-0.033-0.084-0.082-0.106-0.041-0.084
			c0.035,0.021,0.181,0.042,0.363-0.005c0.184-0.044,0.367-0.137,0.529-0.228l0.219-0.144l0.049-0.035
			c0.004-0.004,0.021-0.018,0.014-0.012L129.21,74.9l-0.242,0.205c-0.133,0.12-0.315,0.294-0.416,0.407
			c-0.108,0.121-0.186,0.215-0.235,0.286c-0.119,0.155-0.121,0.188-0.117,0.184s-0.023,0-0.189,0.106l-0.322,0.194
			c-0.133,0.076-0.35,0.207-0.521,0.28c-0.174,0.078-0.431,0.195-0.625,0.231c-0.196,0.046-0.467,0.109-0.67,0.082
			c-0.218-0.002-0.42-0.074-0.584-0.191c-0.17-0.129-0.297-0.296-0.363-0.568c-0.062-0.247-0.055-0.586,0.062-0.928
			c0.111-0.354,0.338-0.736,0.668-1.017c0.312-0.313,0.758-0.431,1.088-0.469c0.324-0.034,0.643,0.105,0.82,0.238
			c0.196,0.113,0.328,0.344,0.41,0.48c0.088,0.149,0.127,0.27,0.157,0.354C128.186,74.964,128.195,74.989,128.197,74.981z"/>
	</g>
	<g>
		<circle fill="#D35060" cx="124.126" cy="31.705" r="11.224"/>
		<path fill="#020202" d="M137.1,31.749c-0.078,1.598-0.494,3.345-1.207,4.83c-0.721,1.508-1.746,2.845-2.963,3.929
			c-2.432,2.179-5.604,3.39-8.803,3.421c-3.201,0.073-6.436-1.169-8.83-3.394c-2.422-2.214-3.998-5.382-4.143-8.874
			c-0.184-3.303,1.051-6.908,3.455-9.474c1.205-1.281,2.666-2.351,4.303-3.069c0.818-0.357,1.674-0.636,2.549-0.824
			c0.438-0.095,0.881-0.167,1.326-0.223l0.668-0.062l0.734-0.028l0.551,0.012l0.725,0.049c0.457,0.046,0.895,0.107,1.338,0.192
			c0.883,0.177,1.742,0.46,2.566,0.813c1.646,0.723,3.117,1.801,4.303,3.11c2.363,2.632,3.598,6.152,3.428,9.545V31.749z
			 M133.6,31.706c-0.143-2.494-1.33-4.814-3.146-6.327c-0.892-0.77-1.908-1.357-2.979-1.759c-0.533-0.209-1.086-0.354-1.645-0.462
			c-0.277-0.056-0.566-0.099-0.84-0.129l-0.377-0.031l-0.551-0.017c-2.166-0.063-4.56,0.791-6.291,2.37
			c-1.775,1.58-2.965,3.814-3.119,6.399c-0.172,2.395,0.674,5.067,2.432,6.998c0.885,0.96,1.959,1.77,3.168,2.312
			c1.213,0.54,2.529,0.835,3.875,0.87c2.689,0.061,5.357-1.152,7.07-3.153c0.859-0.994,1.502-2.146,1.904-3.354
			c0.414-1.229,0.575-2.42,0.5-3.761L133.6,31.706z"/>
	</g>
	<g>
		<circle fill="#D35060" cx="102.713" cy="7.981" r="5.5"/>
		<path fill="#020202" d="M110.477,8.039l0.017,0.271l-0.009,0.43c-0.012,0.267-0.03,0.515-0.067,0.771
			c-0.076,0.51-0.199,1.018-0.39,1.501c-0.381,0.969-1.016,1.824-1.776,2.506c-1.508,1.391-3.594,2.077-5.537,1.908
			c-1.951-0.151-3.754-1.123-4.922-2.521c-1.188-1.396-1.76-3.196-1.686-4.923c0.143-3.5,3.002-6.506,6.641-6.755
			c1.694-0.163,3.657,0.373,5.125,1.597c1.494,1.202,2.491,3.126,2.604,5.158V8.039z M105.949,7.981
			c0.129-0.852-0.063-1.791-0.615-2.62c-0.564-0.824-1.465-1.476-2.652-1.625c-1.049-0.148-2.315,0.234-3.146,1.066
			c-0.846,0.824-1.316,2.021-1.213,3.179c0.059,1.159,0.674,2.223,1.537,2.854c0.861,0.649,1.919,0.866,2.854,0.701
			c0.94-0.155,1.72-0.656,2.242-1.313c0.256-0.337,0.438-0.701,0.606-1.062c0.086-0.183,0.172-0.366,0.238-0.563l0.088-0.296
			l0.033-0.108l0.029-0.27L105.949,7.981z"/>
	</g>
	<g>
		<circle fill="#D35060" cx="86.447" cy="28.231" r="3.75"/>
		<path fill="#020202" d="M92.121,28.33l0.008,0.369c-0.01,0.192-0.035,0.43-0.062,0.644c-0.07,0.381-0.184,0.732-0.34,1.078
			c-0.32,0.68-0.777,1.281-1.32,1.771c-1.094,0.979-2.578,1.453-3.959,1.329c-1.373-0.107-2.674-0.79-3.51-1.775
			c-0.857-0.979-1.309-2.264-1.268-3.512c0.029-2.529,2.125-4.799,4.777-4.997c1.293-0.114,2.723,0.292,3.795,1.203
			c1.084,0.896,1.803,2.31,1.881,3.794L92.121,28.33z M88.271,28.231c0.086-0.48-0.004-1.021-0.314-1.509
			c-0.312-0.483-0.834-0.885-1.51-0.993c-0.662-0.117-1.391,0.095-1.928,0.575c-0.531,0.493-0.822,1.201-0.795,1.927
			c0.035,0.721,0.393,1.385,0.93,1.793c0.549,0.41,1.199,0.535,1.793,0.42c0.588-0.116,1.053-0.448,1.346-0.866
			c0.15-0.205,0.25-0.436,0.305-0.663c0.027-0.111,0.055-0.23,0.088-0.328c0.008-0.03,0.023-0.035,0.045-0.085l0.043-0.367
			L88.271,28.231z"/>
	</g>
	<g>
		<circle fill="#D35060" cx="167.699" cy="66.853" r="3.629"/>
		<path fill="#020202" d="M172.389,66.907c-0.205,1.079-0.479,2.374-1.289,3.347c-0.781,0.989-2.01,1.725-3.399,1.911
			c-1.371,0.197-2.947-0.21-4.13-1.184c-0.581-0.492-1.086-1.108-1.44-1.818c-0.172-0.358-0.313-0.732-0.412-1.122
			c-0.04-0.195-0.081-0.393-0.112-0.59l-0.031-0.298l-0.014-0.149l-0.004-0.075l-0.002-0.038l-0.003-0.018l0.003-0.146l0.002-0.356
			c0.014-0.21,0.043-0.478,0.08-0.711c0.081-0.414,0.192-0.794,0.344-1.176c0.309-0.752,0.778-1.434,1.365-1.983
			c0.59-0.549,1.293-0.967,2.049-1.214c0.379-0.118,0.764-0.204,1.151-0.242c0.195-0.013,0.39-0.024,0.582-0.027l0.683,0.043
			l0.352,0.087c0.195,0.042,0.43,0.099,0.635,0.156c0.367,0.126,0.693,0.281,1.012,0.465c0.629,0.372,1.16,0.858,1.568,1.411
			c0.818,1.103,1.16,2.454,1.014,3.676v0.053H172.389z M170.266,66.853c-0.139-0.68-0.58-1.215-1.111-1.455
			c-0.264-0.119-0.536-0.17-0.786-0.161c-0.123,0.006-0.25,0.025-0.349,0.053c-0.028,0.024-0.028,0.041-0.069,0.052l-0.359,0.051
			c0.218,0.006,0.06,0.002,0.107,0.004h-0.005l-0.004,0.003l-0.008,0.004l-0.02,0.013l-0.033,0.019l-0.068,0.037l-0.123,0.077
			c-0.076,0.06-0.146,0.11-0.207,0.168c-0.123,0.117-0.225,0.237-0.309,0.359s-0.152,0.244-0.205,0.37
			c-0.027,0.06-0.053,0.136-0.07,0.187c0.002,0-0.008-0.033-0.022-0.007l-0.035,0.354c0.009-0.255,0.002-0.069,0.004-0.126v0.002
			v0.003v0.007v0.015l-0.004,0.027l-0.014,0.058c-0.003,0.039-0.003,0.075-0.011,0.114c0.002,0.075-0.006,0.156,0.002,0.24
			c0.009,0.167,0.041,0.356,0.129,0.535c0.16,0.378,0.474,0.75,1.005,0.942c0.512,0.19,1.172,0.146,1.729-0.214
			c0.271-0.184,0.521-0.425,0.707-0.723c0.086-0.148,0.146-0.319,0.16-0.486v-0.217l-0.029-0.358L170.266,66.853z"/>
	</g>
	<circle opacity="0.2" fill="#FFFFFF" enable-background="new    " cx="128.957" cy="30.106" r="1.875"/>
	<circle opacity="0.2" fill="#FFFFFF" enable-background="new    " cx="102.713" cy="6.106" r="1.875"/>
</g>
</svg>
