<?xml version="1.0" encoding="UTF-8" standalone="no"?>
<!-- Generator: Adobe Illustrator 15.0.0, SVG Export Plug-In . SVG Version: 6.00 Build 0)  -->

<svg
   xmlns:dc="http://purl.org/dc/elements/1.1/"
   xmlns:cc="http://creativecommons.org/ns#"
   xmlns:rdf="http://www.w3.org/1999/02/22-rdf-syntax-ns#"
   xmlns:svg="http://www.w3.org/2000/svg"
   xmlns="http://www.w3.org/2000/svg"
   xmlns:sodipodi="http://sodipodi.sourceforge.net/DTD/sodipodi-0.dtd"
   xmlns:inkscape="http://www.inkscape.org/namespaces/inkscape"
   version="1.1"
   id="Layer_1"
   x="0px"
   y="0px"
   width="143.92"
   height="500.39999"
   viewBox="0 0 103.0909 500.4"
   enable-background="new 0 0 143.922 387.396"
   xml:space="preserve"
   inkscape:version="0.48.4 r9939"
   sodipodi:docname="01 Red.svg"><metadata
     id="metadata113"><rdf:RDF><cc:Work
         rdf:about=""><dc:format>image/svg+xml</dc:format><dc:type
           rdf:resource="http://purl.org/dc/dcmitype/StillImage" /></cc:Work></rdf:RDF></metadata><defs
     id="defs111" /><sodipodi:namedview
     pagecolor="#ffffff"
     bordercolor="#666666"
     borderopacity="1"
     objecttolerance="10"
     gridtolerance="10"
     guidetolerance="10"
     inkscape:pageopacity="0"
     inkscape:pageshadow="2"
     inkscape:window-width="1301"
     inkscape:window-height="744"
     id="namedview109"
     showgrid="false"
     inkscape:zoom="4.8735661"
     inkscape:cx="100.461"
     inkscape:cy="310.68859"
     inkscape:window-x="65"
     inkscape:window-y="24"
     inkscape:window-maximized="1"
     inkscape:current-layer="Layer_1" /><g
     id="g3"
     transform="translate(-19.698102,1.3821719)"><g
       id="g5"><path
         d="m 122.508,112.708 -73.332,0 c -2.504,0 -4.533,2.029 -4.533,4.534 l 0,6.274 c 0,2.504 2.029,4.534 4.533,4.534 l 6.23,0 -13.747634,258.72943 74.618634,0.61557 0,-259.344 6.23,0 c 2.504,0 4.533,-2.03 4.533,-4.534 l 0,-6.274 c 10e-4,-2.506 -2.028,-4.535 -4.532,-4.535 z"
         id="path7"
         inkscape:connector-curvature="0"
         style="fill:#ea2227"
         sodipodi:nodetypes="sssssccccsscs" /><rect
         x="45.252384"
         y="157.00612"
         width="70.083618"
         height="215.85185"
         id="rect9"
         style="fill:#ea2227" /><circle
         cx="78.755997"
         cy="178.52"
         r="4.4200001"
         id="circle11"
         sodipodi:cx="78.755997"
         sodipodi:cy="178.52"
         sodipodi:rx="4.4200001"
         sodipodi:ry="4.4200001"
         style="opacity:0.34000017;fill:#ffffff"
         d="m 83.175997,178.52 c 0,2.4411 -1.978902,4.42 -4.42,4.42 -2.441099,0 -4.42,-1.9789 -4.42,-4.42 0,-2.44109 1.978901,-4.42 4.42,-4.42 2.441098,0 4.42,1.97891 4.42,4.42 z" /><circle
         cx="74.099998"
         cy="232.94501"
         r="3.096"
         id="circle13"
         sodipodi:cx="74.099998"
         sodipodi:cy="232.94501"
         sodipodi:rx="3.096"
         sodipodi:ry="3.096"
         style="opacity:0.34000017;fill:#ffffff"
         d="m 77.195998,232.94501 c 0,1.70987 -1.386126,3.096 -3.096,3.096 -1.709873,0 -3.095999,-1.38613 -3.095999,-3.096 0,-1.70988 1.386126,-3.096 3.095999,-3.096 1.709874,0 3.096,1.38612 3.096,3.096 z" /><circle
         cx="88.560997"
         cy="211.548"
         r="6.4200001"
         id="circle15"
         sodipodi:cx="88.560997"
         sodipodi:cy="211.548"
         sodipodi:rx="6.4200001"
         sodipodi:ry="6.4200001"
         style="opacity:0.34000017;fill:#ffffff"
         d="m 94.980997,211.548 c 0,3.54567 -2.874332,6.42 -6.42,6.42 -3.545668,0 -6.42,-2.87433 -6.42,-6.42 0,-3.54566 2.874332,-6.42 6.42,-6.42 3.545668,0 6.42,2.87434 6.42,6.42 z" /><circle
         cx="82.140999"
         cy="264.315"
         r="3.385"
         id="circle17"
         sodipodi:cx="82.140999"
         sodipodi:cy="264.315"
         sodipodi:rx="3.385"
         sodipodi:ry="3.385"
         style="opacity:0.34000017;fill:#ffffff"
         d="m 85.525999,264.315 c 0,1.86949 -1.515516,3.385 -3.385,3.385 -1.869484,0 -3.385,-1.51551 -3.385,-3.385 0,-1.86948 1.515516,-3.385 3.385,-3.385 1.869484,0 3.385,1.51552 3.385,3.385 z" /><path
         d="m 130.863,120.149 -0.035,-1.67 -0.025,-0.835 -0.014,-0.515 -0.012,-0.208 -0.035,-0.455 c -0.221,-2.052 -1.229,-3.953 -2.734,-5.278 -1.496,-1.329 -3.512,-2.095 -5.5,-2.066 l -12.51,0.063 c -4.17,0.014 -8.34,0.02 -12.51,0.082 -4.17,0.066 -8.34,0.155 -12.51,0.303 -4.17,0.144 -8.34,0.432 -12.51,0.731 -4.17,0.308 -8.34,0.63 -12.51,0.809 -2.084,0.089 -4.17,0.147 -6.254,0.166 -1.043,0.011 -2.086,0.018 -3.129,0.007 l -1.6,-0.005 c -0.711,0.013 -1.381,0.144 -2.031,0.394 -1.291,0.496 -2.404,1.438 -3.113,2.648 -0.355,0.605 -0.598,1.277 -0.734,1.972 -0.068,0.335 -0.102,0.729 -0.113,1.028 l -0.041,0.783 c -0.047,1.042 -0.129,2.084 -0.195,3.126 -0.031,0.521 -0.082,1.042 -0.123,1.564 l -0.033,0.392 -0.016,0.195 -0.008,0.1 -0.002,0.022 c -0.002,-0.037 -0.002,0.081 -0.002,0.081 l -0.002,0.045 c -0.004,0.073 -0.01,0.12 -0.01,0.209 l 0.006,0.332 c 0.012,0.198 0.021,0.385 0.045,0.577 0.041,0.354 0.119,0.706 0.219,1.052 0.525,0.364 0.92,0.883 1.037,1.545 0.045,0.264 0.105,0.524 0.154,0.788 0.207,0.268 0.422,0.529 0.666,0.768 0.582,0.558 1.264,1.03 2.02,1.382 0.756,0.347 1.586,0.565 2.432,0.647 0.789,0.111 1.562,0.238 2.34,0.365 0.395,20.531 -9.944805,41.062 -9.649805,61.594 l 0.03262,34.46989 -0.01538,30.36611 -0.01019,16.62038 0.15,17.64332 0.09381,29.95573 -0.01219,36.1124 -0.150189,14.15711 0.023,14.56749 -0.205188,1.57138 75.711502,0.20519 0,-1.162 c 0.65,-10.807 1.045,-21.613 1.455,-32.417 0.377,-10.806 0.674,-21.613 0.904,-32.419 0.482,-21.611 0.688,-43.223 0.746,-64.837 0.057,-21.611 -0.033,-43.222 -0.322,-64.834 -0.314,-20.648 -0.719,-41.299 -1.555,-61.947 0.318,0.066 0.637,0.138 0.957,0.195 0.557,0.101 1.113,0.186 1.67,0.261 0.596,0.058 0.961,0.175 2.023,0.151 1.994,-0.087 3.969,-1.005 5.35,-2.493 0.697,-0.738 1.256,-1.615 1.635,-2.571 0.379,-0.948 0.574,-2.011 0.576,-2.988 0.003,-1.116 0.011,-2.232 -0.015,-3.346 z m -7.609,-1.67 -0.035,1.67 c -0.027,1.114 -0.02,2.229 -0.016,3.344 0.002,0.135 0.002,0.187 -0.016,0.282 -0.016,0.086 -0.047,0.175 -0.098,0.265 -0.105,0.176 -0.248,0.336 -0.475,0.469 -0.049,0.064 -0.801,0.121 -1.32,0.199 -0.557,0.075 -1.113,0.158 -1.67,0.258 -1.115,0.201 -2.229,0.446 -3.344,0.802 l -0.004,0 -2.182,-0.099 -0.102,2.382 c -0.92,21.611 -1.332,43.224 -1.662,64.835 -0.289,21.612 -0.379,43.224 -0.322,64.834 0.059,21.615 0.264,43.227 0.746,64.837 0.23,10.806 0.527,21.613 0.904,32.419 0.395,10.417 0.781,20.836 1.393,31.255 l -70.587125,-0.61557 0.021,-14.63462 -0.150189,-13.74674 0.806566,-35.70201 0.09381,-29.95574 0.15,-17.64332 0.605377,-16.82557 0.806377,-29.75054 0.03262,-30.98168 C 47.138441,174.76421 58.972,149.663 59.396,128.052 l 0.076,-3.914 -4.068,-0.08 -0.004,0 c -2.076,0.48 -4.188,0.818 -6.236,1.115 -0.389,0.146 -0.863,0.142 -1.307,-0.078 -0.447,-0.21 -0.828,-0.621 -1.023,-1.138 -0.025,-0.062 -0.047,-0.134 -0.066,-0.195 -0.006,-0.019 -0.014,-0.039 -0.021,-0.059 -0.01,-0.04 -0.016,-0.124 -0.021,-0.181 l -0.006,-0.049 c -0.002,-0.019 0,0.083 -0.002,0.027 l -0.002,-0.022 -0.008,-0.1 -0.016,-0.195 -0.033,-0.392 c -0.041,-0.521 -0.092,-1.043 -0.123,-1.564 -0.066,-1.042 -0.15,-2.083 -0.195,-3.126 L 46.3,117.318 c -0.012,-0.223 -0.018,-0.35 -0.006,-0.53 0.025,-0.335 0.123,-0.663 0.268,-0.975 0.293,-0.618 0.824,-1.146 1.475,-1.418 0.316,-0.143 0.684,-0.224 1.014,-0.247 l 0.158,-0.007 0.195,-0.002 0.391,-0.002 0.781,-0.002 c 1.043,-0.012 2.086,-0.003 3.129,0.005 2.084,0.019 4.17,0.077 6.254,0.166 4.17,0.181 8.34,0.503 12.51,0.809 4.17,0.3 8.34,0.588 12.51,0.733 4.17,0.148 8.34,0.236 12.51,0.301 4.17,0.063 8.34,0.07 12.51,0.082 l 12.51,0.065 c 0.242,0.023 0.445,0.111 0.596,0.29 0.148,0.168 0.209,0.392 0.193,0.562 z"
         id="path19"
         inkscape:connector-curvature="0"
         style="fill:#231f20"
         sodipodi:nodetypes="cccccccccccccccccccccccccccccccccccccccccccccccccccccccccccccccccccccccccccccccccccccccccccccccccccccccccccccccccccccccccccccc" /><g
         id="g21"
         style="opacity:0.2"><polygon
           points="65.629,279.122 62.629,123.646 68.629,123.646 "
           id="polygon23"
           style="fill:#ffffff" /></g></g><g
       id="g25"><path
         d="m 131.59,80.457 c -0.285,-1.005 -1.078,-1.726 -1.998,-2.031 -0.346,-0.474 -0.863,-0.857 -1.588,-1.061 -0.881,-1.073 -2.137,-1.261 -3.211,-0.874 -0.252,-0.066 -0.508,-0.13 -0.762,-0.191 0.752,-6.527 0.57,-13.188 -2.742,-19.059 -1.291,-2.283 -4.371,-1.699 -5.355,0.419 -3.98,-3.896 -9.318,0.709 -11.857,3.974 -0.467,0.602 -0.693,1.242 -0.744,1.862 -1.5,-1.325 -3.193,-2.026 -5.506,-2.528 C 93.038,59.929 87.741,60.421 83.786,63.14 82.983,59.831 81.098,56.898 78.319,54.634 77.915,54.303 77.436,54.097 76.938,53.997 76.719,53.58 76.518,53.157 76.29,52.741 75.675,51.626 74.765,51.19 73.862,51.219 69.706,44.885 64.268,39.848 56.401,42.363 c -0.098,0.031 -0.186,0.071 -0.277,0.108 -9.27,-1.858 -21.572,1.002 -25.051,9.357 -4.121,3.604 -6.738,8.705 -4.768,14.225 0.201,0.564 0.535,1.027 0.943,1.381 0.045,0.167 0.1,0.333 0.152,0.5 -0.705,3.627 -0.619,8.374 0.604,12.023 -0.107,0.176 -0.215,0.352 -0.324,0.525 -2.027,-0.196 -4.295,0.646 -5.996,1.682 -0.723,0.439 -1.146,1.087 -1.326,1.784 -3.604,3.15 -3.689,8.914 0.219,12.927 0.031,0.032 0.066,0.057 0.098,0.088 -1.008,1.124 -2.031,2.234 -3.078,3.322 -1.902,1.978 -3.77,3.955 -5.494,6.02 -0.857,-0.162 -1.779,0.05 -2.525,0.828 -1.779,1.853 -2.768,4.088 -3.25,6.479 -0.42,1.236 -0.76,2.512 -1.021,3.845 -0.148,0.762 -0.057,1.421 0.188,1.969 -0.072,0.164 -0.137,0.34 -0.188,0.531 -0.906,3.378 0.277,6.046 2.334,8.234 -0.654,0.849 -0.838,1.982 -0.031,3.077 0.914,1.243 4.139,3.389 5.953,5.302 -0.361,0.339 -0.633,0.799 -0.756,1.386 -0.648,3.109 -0.533,5.664 0.314,7.906 -1.268,4.126 -0.336,9.128 4.318,10.408 1.291,0.355 2.572,0.06 3.809,-0.31 0.32,-0.096 0.619,-0.156 0.9,-0.186 1.611,1.968 2.803,4.174 3.877,6.462 -0.381,2.597 0.67,5.797 2.586,8.15 -1.174,7.754 10.771246,5.31442 11.267246,12.46942 0.08,1.136 1.636754,6.03958 2.588754,6.56458 1.621,3.562 3.896,6.743 7.273,8.497 0.49,0.781 1.336,1.337 2.459,1.337 l 2,0 c 1.627,0 2.67,-1.294 2.902,-2.674 0.955,-0.235 1.77,-0.885 1.99,-2.028 0.439,-2.273 0.596,-4.482 0.607,-6.798 0.004,-0.493 -0.117,-0.922 -0.309,-1.299 -0.176,-8.427 -1.186,-17.539 1.674,-25.136 0.342,-0.389 0.525,-0.87 0.572,-1.384 0.527,-1.164 1.156,-2.286 1.906,-3.358 0.131,-0.176 0.254,-0.356 0.389,-0.529 0.061,-0.081 0.123,-0.162 0.186,-0.243 0.383,-0.486 0.779,-0.965 1.203,-1.43 0.066,-0.073 0.109,-0.147 0.166,-0.221 1.768,-1.488 5.141,-2.225 7.227,-3.257 2.152,-1.065 4.031,-2.857 5.85,-4.401 6.932,-5.885 11.975,-12.555 14.369,-21.375 0.703,-2.586 1.176,-5.243 2.576,-7.563 1.947,-3.225 6.945,-4.218 10.289,-4.97 7,-1.577 13.926,-2.064 19.01,-7.02 0.141,-0.062 0.279,-0.132 0.406,-0.224 1.162,-0.831 1.643,-1.553 1.865,-2.73 1.215,-0.381 2.121,-1.552 2.121,-2.86 0,-0.334 -0.068,-0.649 -0.17,-0.949 0.688,-1.307 1.213,-2.761 1.572,-4.301 1.931,-4.181 2.455,-8.908 0.99,-14.047 z"
         id="path27"
         inkscape:connector-curvature="0"
         style="fill:#d35060"
         sodipodi:nodetypes="cccccccccccccccccccccccccccccccccccccccccccccccsscccccccccccccccccccsccc" /><g
         id="g29"><path
           d="m 114.197,87.755 c -0.188,-0.053 -0.197,-0.889 0.215,-2.389 0.422,-1.491 1.252,-3.655 2.951,-6.138 0.857,-1.232 1.93,-2.554 3.439,-3.768 0.76,-0.6 1.633,-1.178 2.699,-1.6 1.053,-0.421 2.348,-0.676 3.707,-0.461 1.359,0.199 2.66,0.885 3.66,1.775 1.014,0.892 1.791,1.954 2.451,3.065 0.629,1.061 1.25,2.4 1.58,3.742 0.352,1.339 0.535,2.704 0.619,4.086 0.162,2.763 -0.068,5.6 -0.598,8.495 -0.541,2.893 -1.369,5.851 -2.676,8.818 -0.662,1.481 -1.434,2.969 -2.461,4.424 -0.512,0.727 -1.096,1.444 -1.781,2.133 -0.348,0.344 -0.721,0.679 -1.131,1 l -0.404,0.293 -0.467,0.313 c -0.146,0.123 -0.326,0.176 -0.508,0.22 l -0.539,0.155 -9.502,2.699 -4.93,1.388 -2.508,0.703 -0.695,0.195 c -0.412,0.084 -0.816,0.308 -1.248,0.206 l -0.916,-0.066 -0.59,-0.026 c -1.576,-0.055 -2.908,0.104 -3.703,0.58 -0.422,0.238 -0.844,0.592 -1.303,1.113 -0.229,0.258 -0.461,0.551 -0.693,0.867 -0.113,0.156 -0.227,0.299 -0.295,0.421 -0.072,0.114 -0.148,0.239 -0.23,0.396 -0.65,1.178 -1.098,2.73 -1.439,4.414 -0.346,1.692 -0.59,3.523 -0.924,5.471 -0.361,1.937 -0.717,4.062 -1.842,6.31 -1.025,2.037 -2.408,3.872 -4,5.437 -3.205,3.142 -6.957,5.106 -10.424,6.794 l -2.562,1.225 -1.229,0.597 c -0.227,0.113 -0.355,0.177 -0.492,0.255 -0.143,0.078 -0.287,0.165 -0.432,0.261 -1.172,0.762 -2.346,1.92 -3.389,3.173 -2.1,2.539 -3.797,5.505 -5.09,8.514 -1.287,3.017 -2.176,6.133 -2.494,9.135 -0.168,1.232 -0.016,2.957 0.053,4.548 l 0.264,4.891 c 0.129,3.265 0.146,6.521 -0.352,9.771 -0.258,1.622 -0.646,3.25 -1.322,4.836 -0.666,1.576 -1.676,3.132 -3.076,4.319 -0.344,0.293 -0.736,0.574 -1.066,0.782 -0.295,0.193 -0.619,0.407 -0.977,0.609 -0.693,0.402 -1.436,0.756 -2.23,1.028 -1.572,0.554 -3.451,0.713 -5.137,0.223 -1.693,-0.473 -3.039,-1.466 -4.047,-2.502 -1.016,-1.049 -1.76,-2.173 -2.373,-3.28 -1.215,-2.223 -1.938,-4.4 -2.49,-6.44 -1.07,-4.088 -1.41,-7.663 -1.5,-10.583 -0.08,-2.92 0.146,-5.196 0.477,-6.715 0.328,-1.526 0.758,-2.265 0.951,-2.209 0.205,0.056 0.184,0.841 0.252,2.314 0.066,1.471 0.221,3.642 0.645,6.404 0.434,2.753 1.102,6.129 2.383,9.804 0.646,1.823 1.455,3.736 2.568,5.482 1.088,1.729 2.611,3.302 4.201,3.619 0.787,0.169 1.629,0.079 2.555,-0.292 0.461,-0.185 0.934,-0.434 1.404,-0.738 0.229,-0.144 0.473,-0.319 0.744,-0.516 0.244,-0.17 0.408,-0.305 0.588,-0.471 1.41,-1.286 2.217,-3.676 2.523,-6.365 0.32,-2.701 0.23,-5.68 0.012,-8.788 l -0.391,-4.81 c -0.068,-0.829 -0.133,-1.672 -0.182,-2.547 -0.023,-0.448 -0.041,-0.862 -0.051,-1.366 -0.01,-0.562 0.039,-1.063 0.07,-1.511 0.311,-3.718 1.289,-7.339 2.709,-10.837 1.441,-3.492 3.297,-6.887 5.838,-10.041 1.293,-1.568 2.732,-3.094 4.676,-4.4 0.244,-0.162 0.5,-0.319 0.766,-0.47 0.268,-0.154 0.557,-0.301 0.75,-0.397 l 1.299,-0.644 2.539,-1.233 c 3.318,-1.622 6.455,-3.358 8.826,-5.7 1.182,-1.162 2.15,-2.462 2.859,-3.856 0.633,-1.19 0.994,-2.877 1.316,-4.651 0.318,-1.786 0.582,-3.685 0.996,-5.648 0.426,-1.958 0.973,-4.022 2.109,-6.062 0.135,-0.247 0.297,-0.513 0.475,-0.783 0.17,-0.268 0.342,-0.484 0.498,-0.696 0.316,-0.415 0.654,-0.834 1.033,-1.252 0.75,-0.832 1.713,-1.687 2.875,-2.311 1.16,-0.633 2.424,-0.96 3.551,-1.104 1.137,-0.148 2.174,-0.14 3.162,-0.097 l 0.73,0.045 0.359,0.028 c 0.051,0.004 0.023,0.003 0.039,0.005 0.012,0.005 0.023,10e-4 0.033,10e-4 l 0.572,-0.149 2.521,-0.656 4.955,-1.284 9.525,-2.443 c 0.023,-0.005 0.051,-0.002 0.072,-0.016 l 0.029,-0.014 c -0.002,0.002 0.006,-0.002 0.08,-0.053 0.221,-0.161 0.441,-0.346 0.662,-0.549 0.438,-0.413 0.863,-0.894 1.26,-1.422 0.801,-1.053 1.492,-2.259 2.096,-3.492 1.203,-2.483 2.062,-5.108 2.654,-7.662 0.588,-2.558 0.906,-5.074 0.895,-7.41 -0.008,-1.167 -0.102,-2.287 -0.307,-3.311 -0.197,-1.033 -0.527,-1.878 -1,-2.833 -0.896,-1.812 -2.1,-3.101 -3.373,-3.377 -1.281,-0.343 -2.844,0.239 -4.119,1.076 -1.293,0.842 -2.379,1.891 -3.281,2.895 -1.807,2.031 -2.928,3.9 -3.674,5.164 -0.739,1.269 -1.118,1.977 -1.327,1.917 z"
           id="path31"
           inkscape:connector-curvature="0"
           style="fill:#231f20" /></g><g
         id="g33"><path
           d="m 39.697,180.755 c -0.066,0.4 -0.721,0.712 -1.898,0.776 -1.172,0.06 -2.881,-0.146 -4.859,-0.906 -1.971,-0.755 -4.201,-2.079 -6.227,-4.085 -2.021,-1.996 -3.834,-4.679 -4.891,-7.866 -1.062,-3.18 -1.207,-6.537 -0.555,-9.414 0.631,-2.894 2.008,-5.237 3.432,-6.839 1.432,-1.617 2.883,-2.547 3.953,-3.016 1.084,-0.462 1.805,-0.477 2.045,-0.15 0.533,0.697 -1.064,2.537 -2.488,5.549 -0.699,1.508 -1.305,3.321 -1.488,5.37 -0.197,2.042 0.037,4.322 0.797,6.614 0.76,2.292 1.953,4.344 3.287,6.035 1.334,1.698 2.807,3.034 4.154,4.071 2.699,2.062 4.883,3.004 4.738,3.861 z"
           id="path35"
           inkscape:connector-curvature="0"
           style="fill:#231f20" /></g><g
         id="g37"><path
           d="m 13.174,140.05 c 0.709,0.421 0.967,1.544 1.4,3.297 0.42,1.738 0.936,4.173 1.828,6.417 0.445,1.116 0.941,2.022 1.434,2.683 0.49,0.665 0.988,1.133 1.59,1.527 1.211,0.778 2.641,1.112 2.826,1.936 0.1,0.396 -0.105,0.87 -0.68,1.325 -0.572,0.439 -1.545,0.881 -2.928,0.909 -1.365,0.041 -3.141,-0.489 -4.582,-1.656 -1.457,-1.147 -2.541,-2.769 -3.229,-4.491 -1.354,-3.474 -1.176,-6.714 -0.49,-8.953 0.352,-1.122 0.861,-2.001 1.398,-2.524 0.538,-0.531 1.071,-0.662 1.433,-0.47 z"
           id="path39"
           inkscape:connector-curvature="0"
           style="fill:#231f20" /></g><g
         id="g41"><path
           d="m 31.697,102.755 c -0.32,0.293 -1.271,-0.31 -2.881,-1.095 -1.602,-0.775 -3.951,-1.61 -6.748,-1.108 -2.787,0.455 -5.99,2.28 -8.828,5.201 -2.822,2.897 -5.391,6.862 -6.641,11.252 -0.619,2.166 -0.812,4.383 -0.518,6.182 0.365,1.93 1.186,3.892 2.201,5.571 2.059,3.411 4.902,5.925 7.541,7.501 2.658,1.6 5.137,2.275 6.908,2.622 1.777,0.345 2.881,0.451 2.965,0.875 0.084,0.381 -0.889,1.078 -2.959,1.461 -2.045,0.375 -5.23,0.284 -8.768,-1.142 -3.514,-1.406 -7.363,-4.088 -10.312,-8.287 -1.463,-2.112 -2.686,-4.547 -3.344,-7.458 -0.604,-3.073 -0.287,-6.079 0.508,-8.943 1.65,-5.708 4.9,-10.285 8.611,-13.642 3.707,-3.341 8.205,-5.414 12.316,-5.421 2.033,-0.025 3.869,0.458 5.287,1.15 1.43,0.692 2.461,1.554 3.184,2.323 1.437,1.566 1.769,2.703 1.478,2.958 z"
           id="path43"
           inkscape:connector-curvature="0"
           style="fill:#231f20" /></g><g
         id="g45"><path
           d="m 28.197,81.255 c -0.219,0.361 -0.75,0.477 -1.482,0.517 -0.725,0.039 -1.668,0.003 -2.59,0.167 -0.934,0.16 -1.736,0.521 -2.467,1.186 -0.738,0.662 -1.471,1.727 -2.016,3.08 -0.545,1.352 -0.842,2.801 -0.934,4.086 -0.094,1.293 0.02,2.41 0.234,3.3 0.207,0.898 0.545,1.599 0.852,2.193 0.301,0.591 0.543,1.075 0.402,1.472 -0.131,0.379 -0.658,0.657 -1.588,0.54 -0.91,-0.108 -2.24,-0.734 -3.316,-2.042 -2.209,-2.615 -3.002,-7.327 -1.215,-11.796 0.896,-2.227 2.453,-4.257 4.531,-5.445 1.029,-0.591 2.156,-0.944 3.209,-1.042 1.057,-0.113 2.02,0.026 2.816,0.257 1.604,0.482 2.574,1.295 3.115,1.951 0.543,0.667 0.66,1.231 0.449,1.576 z"
           id="path47"
           inkscape:connector-curvature="0"
           style="fill:#231f20" /></g><g
         id="g49"><path
           d="M 85.197,70.255 C 84.771,70.317 84.228,68.8 83.199,66.211 82.156,63.638 80.566,59.956 77.699,56.096 74.859,52.259 70.638,48.253 65.006,45.723 59.424,43.164 52.442,42.306 45.594,44.159 c -1.709,0.45 -3.363,1.048 -4.949,1.755 -0.793,0.354 -1.57,0.738 -2.328,1.145 -0.742,0.399 -1.537,0.855 -2.156,1.261 -2.641,1.768 -4.779,4.088 -6.201,6.643 -1.441,2.562 -2.229,5.363 -2.596,8.081 -0.363,2.724 -0.326,5.364 -0.113,7.773 0.439,4.837 1.502,8.751 2.207,11.467 0.725,2.718 1.121,4.281 0.74,4.472 -0.357,0.181 -1.467,-1.035 -2.904,-3.593 -1.41,-2.56 -3.186,-6.475 -4.242,-11.738 -0.516,-2.628 -0.834,-5.603 -0.639,-8.852 0.197,-3.235 0.943,-6.782 2.658,-10.192 1.705,-3.416 4.385,-6.549 7.797,-8.93 0.902,-0.615 1.709,-1.092 2.598,-1.592 0.877,-0.49 1.781,-0.953 2.713,-1.38 1.861,-0.856 3.83,-1.58 5.883,-2.12 4.1,-1.092 8.33,-1.385 12.324,-0.922 3.998,0.452 7.744,1.645 11.014,3.303 6.58,3.326 11.121,8.379 13.842,13.019 2.75,4.681 3.826,8.95 4.219,11.866 0.375,2.937 0.129,4.577 -0.264,4.63 z"
           id="path51"
           inkscape:connector-curvature="0"
           style="fill:#231f20" /></g><g
         id="g53"><path
           d="m 104.197,71.255 c -0.854,0.004 -1.486,-1.588 -2.602,-3.493 -1.098,-1.908 -2.881,-4.018 -5.424,-4.832 -2.523,-0.866 -5.213,-0.226 -7.264,0.641 -2.055,0.857 -3.545,1.715 -4.211,1.184 -0.621,-0.472 -0.35,-2.355 1.699,-4.602 1.027,-1.091 2.555,-2.233 4.602,-2.914 2.025,-0.686 4.598,-0.832 7.059,-0.005 2.469,0.806 4.443,2.452 5.662,4.214 1.24,1.77 1.785,3.61 1.945,5.112 0.28,3.052 -0.688,4.714 -1.466,4.695 z"
           id="path55"
           inkscape:connector-curvature="0"
           style="fill:#231f20" /></g><g
         id="g57"><path
           d="m 122.697,74.255 c -0.842,-0.118 -1.143,-2.48 -1.42,-5.958 -0.158,-1.724 -0.33,-3.763 -0.834,-5.69 -0.25,-0.955 -0.6,-1.863 -1.049,-2.55 -0.457,-0.693 -0.947,-1.13 -1.623,-1.444 -0.34,-0.159 -0.738,-0.275 -1.172,-0.358 -0.23,-0.039 -0.34,-0.052 -0.518,-0.059 -0.178,-0.008 -0.371,-10e-4 -0.574,0.018 -0.818,0.071 -1.762,0.367 -2.643,0.753 -1.785,0.783 -3.35,1.904 -4.551,2.924 -1.203,1.035 -2.057,1.996 -2.668,2.706 -0.617,0.703 -1.023,1.194 -1.449,1.159 -0.395,-0.026 -0.791,-0.68 -0.764,-1.901 0.018,-1.211 0.508,-2.907 1.613,-4.667 1.111,-1.749 2.775,-3.606 5.213,-5.097 1.227,-0.731 2.648,-1.395 4.416,-1.695 0.439,-0.074 0.902,-0.122 1.387,-0.13 0.482,-0.013 1.041,0.03 1.475,0.094 0.891,0.137 1.822,0.378 2.736,0.801 1.855,0.821 3.367,2.376 4.199,3.938 0.861,1.573 1.223,3.115 1.408,4.505 0.338,2.794 0.014,5.104 -0.371,6.982 -0.834,3.74 -2.018,5.782 -2.811,5.669 z"
           id="path59"
           inkscape:connector-curvature="0"
           style="fill:#231f20" /></g><g
         id="g61"
         style="opacity:0.2"><path
           d="m 36.697,75.255 c 0.008,-10e-4 -0.023,-0.492 -0.186,-1.396 -0.152,-0.903 -0.43,-2.227 -0.652,-3.898 -0.219,-1.668 -0.398,-3.688 -0.24,-5.937 0.156,-2.244 0.637,-4.73 1.771,-7.221 1.127,-2.47 2.873,-4.743 5.141,-6.157 1.119,-0.705 2.348,-1.167 3.512,-1.35 1.168,-0.185 2.248,-0.112 3.156,0.088 1.824,0.408 2.994,1.175 3.789,1.639 0.781,0.494 1.203,0.738 1.209,0.73 0.004,10e-4 -0.457,-0.208 -1.354,-0.327 -0.881,-0.119 -2.232,-0.142 -3.615,0.289 -0.689,0.216 -1.363,0.546 -1.969,0.993 -0.607,0.444 -1.148,0.995 -1.648,1.643 -1,1.295 -1.873,2.995 -2.764,4.948 -0.887,1.953 -1.719,3.948 -2.52,5.813 -0.791,1.869 -1.549,3.615 -2.141,5.119 -0.594,1.504 -1.027,2.763 -1.246,3.644 -0.229,0.883 -0.245,1.381 -0.243,1.38 z"
           id="path63"
           inkscape:connector-curvature="0"
           style="fill:#ffffff" /></g><g
         id="g65"
         style="opacity:0.2"><path
           d="m 18.197,127.755 c 0,0 -0.07,-0.058 -0.227,-0.146 l -0.697,-0.39 c -0.299,-0.185 -0.701,-0.398 -1.117,-0.724 -0.418,-0.322 -0.916,-0.711 -1.385,-1.227 -0.945,-1.018 -1.893,-2.49 -2.422,-4.289 -0.537,-1.791 -0.666,-3.887 -0.197,-5.975 0.461,-2.088 1.473,-3.949 2.744,-5.346 1.271,-1.406 2.793,-2.32 4.109,-2.79 0.656,-0.246 1.281,-0.361 1.799,-0.451 0.521,-0.094 0.975,-0.099 1.326,-0.119 0.354,-0.017 0.621,-0.011 0.799,-0.021 0.178,-0.007 0.268,-0.024 0.268,-0.024 0,0 -0.375,0.069 -0.938,0.453 -0.283,0.177 -0.598,0.457 -0.922,0.788 -0.328,0.328 -0.633,0.767 -0.928,1.236 -0.592,0.953 -1.031,2.154 -1.398,3.436 -0.367,1.29 -0.676,2.678 -1.002,4.136 -0.318,1.459 -0.625,2.863 -0.85,4.202 -0.227,1.336 -0.361,2.622 -0.275,3.75 0.047,0.558 0.115,1.089 0.25,1.534 0.133,0.444 0.279,0.836 0.445,1.128 0.317,0.605 0.622,0.841 0.618,0.839 z"
           id="path67"
           inkscape:connector-curvature="0"
           style="fill:#ffffff" /></g><g
         id="g69"
         style="opacity:0.2"><path
           d="m 36.697,161.255 c 0.008,-0.002 -0.043,-0.104 -0.279,-0.259 -0.107,-0.08 -0.25,-0.179 -0.441,-0.292 -0.18,-0.116 -0.457,-0.241 -0.666,-0.409 -0.217,-0.165 -0.516,-0.35 -0.725,-0.581 -0.213,-0.229 -0.496,-0.486 -0.666,-0.783 -0.391,-0.586 -0.586,-1.316 -0.492,-2.02 0.09,-0.709 0.453,-1.301 0.941,-1.739 l 2.133,-1.911 0.195,0.093 c 0.244,0.117 0.494,0.314 0.783,0.502 0.275,0.206 0.656,0.397 1.023,0.872 0.18,0.226 0.311,0.504 0.35,0.726 0.045,0.224 0.021,0.388 -0.01,0.511 -0.098,0.25 -0.227,0.381 -0.316,0.509 -0.383,0.487 -0.348,0.799 -0.33,0.782 0.025,-0.02 -0.201,-0.147 -0.789,-0.498 -0.145,-0.08 -0.322,-0.182 -0.496,-0.179 -0.018,0.002 -0.035,0.002 -0.051,0.007 -0.027,0.011 0.01,-0.002 0.057,-0.019 l 0.119,-0.05 c 0.113,-0.045 0.201,-0.091 0.252,-0.123 0.104,-0.061 0.096,-0.082 0.053,-0.02 -0.045,0.061 -0.125,0.207 -0.205,0.467 -0.035,0.123 -0.08,0.282 -0.115,0.463 l -0.076,0.408 c -0.037,0.144 -0.133,0.327 -0.248,0.444 l 2.328,-1.818 c 0.256,0.495 0.4,0.938 0.354,1.33 -0.046,0.392 -0.287,0.718 -0.641,1.088 -0.148,0.182 -0.398,0.379 -0.566,0.573 -0.162,0.194 -0.406,0.4 -0.564,0.593 -0.15,0.19 -0.367,0.385 -0.49,0.551 -0.131,0.167 -0.227,0.313 -0.285,0.429 -0.145,0.237 -0.143,0.355 -0.137,0.353 z"
           id="path71"
           inkscape:connector-curvature="0"
           style="fill:#ffffff" /></g><g
         id="g73"
         style="opacity:0.2"><path
           d="m 91.697,72.255 c -0.004,-0.007 -0.01,0.038 0.113,0.193 0.053,0.068 0.131,0.163 0.268,0.257 0.113,0.076 0.045,0.029 0.018,0.017 l -0.078,-0.04 c -0.064,-0.023 -0.09,-0.034 -0.131,-0.035 -0.016,-0.003 -0.021,0.003 0.006,-0.008 0.059,-0.015 0.223,-0.137 0.359,-0.369 0.139,-0.226 0.23,-0.505 0.301,-0.758 0.021,-0.074 0.08,-0.412 0.025,-0.063 -0.025,0.18 -0.045,0.454 -0.039,0.638 0.004,0.18 0.01,0.435 0.029,0.584 0.018,0.164 0.039,0.285 0.061,0.371 0.039,0.195 0.07,0.22 0.068,0.213 0,-0.007 -0.023,0.018 -0.08,0.208 L 92.5,73.828 c -0.049,0.148 -0.121,0.392 -0.203,0.563 -0.082,0.178 -0.193,0.44 -0.32,0.601 -0.123,0.17 -0.283,0.402 -0.461,0.521 -0.172,0.149 -0.385,0.236 -0.6,0.264 -0.229,0.021 -0.453,-0.015 -0.709,-0.171 -0.234,-0.141 -0.486,-0.397 -0.658,-0.734 -0.184,-0.341 -0.305,-0.789 -0.275,-1.235 -0.006,-0.458 0.225,-0.872 0.43,-1.148 0.209,-0.269 0.535,-0.407 0.76,-0.451 0.225,-0.073 0.486,-0.011 0.646,0.02 0.172,0.035 0.291,0.085 0.377,0.117 0.185,0.082 0.214,0.087 0.21,0.08 z"
           id="path75"
           inkscape:connector-curvature="0"
           style="fill:#ffffff" /></g><g
         id="g77"
         style="opacity:0.2"><path
           d="m 99.697,73.755 c 0.002,-0.007 -0.025,0.02 -0.035,0.215 -0.002,0.042 -0.002,0.094 0,0.155 -0.002,0.034 0.029,0.198 0.018,0.132 -0.006,-0.043 -0.027,-0.098 -0.035,-0.128 -0.033,-0.084 -0.082,-0.107 -0.041,-0.084 0.035,0.021 0.18,0.042 0.363,-0.005 0.184,-0.044 0.367,-0.137 0.529,-0.228 l 0.219,-0.143 0.049,-0.035 c 0.004,-0.004 0.021,-0.018 0.014,-0.012 l -0.068,0.052 -0.242,0.205 c -0.133,0.12 -0.316,0.294 -0.416,0.407 -0.109,0.121 -0.186,0.215 -0.236,0.286 -0.119,0.155 -0.121,0.188 -0.117,0.184 0.004,-0.004 -0.023,0 -0.189,0.106 l -0.322,0.194 c -0.133,0.077 -0.35,0.207 -0.521,0.281 -0.174,0.078 -0.43,0.195 -0.625,0.231 -0.197,0.046 -0.467,0.11 -0.67,0.082 -0.217,-0.002 -0.42,-0.074 -0.584,-0.191 -0.17,-0.129 -0.297,-0.296 -0.363,-0.569 -0.061,-0.247 -0.055,-0.586 0.061,-0.927 0.111,-0.354 0.338,-0.737 0.668,-1.017 0.312,-0.312 0.758,-0.431 1.088,-0.469 0.324,-0.034 0.643,0.106 0.82,0.239 0.197,0.113 0.328,0.343 0.41,0.48 0.088,0.149 0.127,0.27 0.158,0.354 0.056,0.187 0.065,0.212 0.067,0.205 z"
           id="path79"
           inkscape:connector-curvature="0"
           style="fill:#ffffff" /></g><g
         id="g81"><circle
           cx="95.625999"
           cy="30.479"
           r="11.224"
           id="circle83"
           sodipodi:cx="95.625999"
           sodipodi:cy="30.479"
           sodipodi:rx="11.224"
           sodipodi:ry="11.224"
           style="fill:#d35060"
           d="m 106.85,30.479 c 0,6.198844 -5.02516,11.224 -11.224001,11.224 -6.198844,0 -11.224,-5.025156 -11.224,-11.224 0,-6.198844 5.025156,-11.224 11.224,-11.224 6.198841,0 11.224001,5.025156 11.224001,11.224 z" /><path
           d="m 108.6,30.522 c -0.078,1.598 -0.494,3.345 -1.207,4.83 -0.721,1.508 -1.746,2.845 -2.963,3.929 -2.432,2.179 -5.605,3.39 -8.803,3.421 -3.201,0.073 -6.436,-1.169 -8.83,-3.394 -2.422,-2.213 -3.998,-5.381 -4.143,-8.874 -0.184,-3.302 1.051,-6.908 3.455,-9.473 1.205,-1.282 2.666,-2.351 4.303,-3.07 0.818,-0.357 1.674,-0.635 2.549,-0.824 0.438,-0.095 0.881,-0.167 1.326,-0.222 l 0.668,-0.062 0.734,-0.028 0.551,0.011 0.725,0.049 c 0.457,0.046 0.895,0.108 1.338,0.193 0.883,0.176 1.742,0.46 2.566,0.813 1.646,0.723 3.117,1.801 4.303,3.11 2.363,2.632 3.598,6.153 3.428,9.545 v 0.046 z m -3.5,-0.043 c -0.143,-2.494 -1.33,-4.814 -3.146,-6.327 -0.891,-0.769 -1.908,-1.357 -2.979,-1.759 -0.533,-0.209 -1.086,-0.353 -1.645,-0.462 -0.277,-0.055 -0.566,-0.098 -0.84,-0.128 l -0.377,-0.032 -0.551,-0.016 c -2.166,-0.064 -4.559,0.791 -6.291,2.37 -1.775,1.58 -2.965,3.814 -3.119,6.399 -0.172,2.395 0.674,5.068 2.432,6.998 0.885,0.96 1.959,1.77 3.168,2.312 1.213,0.54 2.529,0.835 3.875,0.87 2.689,0.06 5.357,-1.152 7.07,-3.153 0.859,-0.995 1.502,-2.146 1.904,-3.354 0.414,-1.229 0.576,-2.42 0.5,-3.761 l -0.001,0.043 z"
           id="path85"
           inkscape:connector-curvature="0"
           style="fill:#020202" /></g><g
         id="g87"><circle
           cx="74.212997"
           cy="6.7550001"
           r="5.5"
           id="circle89"
           sodipodi:cx="74.212997"
           sodipodi:cy="6.7550001"
           sodipodi:rx="5.5"
           sodipodi:ry="5.5"
           style="fill:#d35060"
           d="m 79.712997,6.7550001 c 0,3.0375661 -2.462433,5.4999999 -5.5,5.4999999 -3.037566,0 -5.5,-2.4624338 -5.5,-5.4999999 0,-3.0375661 2.462434,-5.5 5.5,-5.5 3.037567,0 5.5,2.4624339 5.5,5.5 z" /><path
           d="m 81.977,6.812 0.016,0.271 -0.008,0.429 c -0.012,0.267 -0.031,0.515 -0.068,0.772 -0.076,0.51 -0.199,1.018 -0.389,1.501 -0.381,0.969 -1.016,1.824 -1.777,2.506 -1.508,1.39 -3.594,2.077 -5.537,1.908 -1.951,-0.151 -3.754,-1.123 -4.922,-2.521 -1.188,-1.397 -1.76,-3.197 -1.686,-4.923 0.143,-3.5 3.002,-6.506 6.641,-6.755 1.695,-0.163 3.658,0.373 5.125,1.596 1.494,1.203 2.492,3.126 2.605,5.159 V 6.812 z M 77.449,6.755 C 77.578,5.903 77.387,4.964 76.834,4.135 76.27,3.31 75.369,2.659 74.182,2.51 73.133,2.361 71.866,2.744 71.036,3.576 70.19,4.4 69.72,5.596 69.823,6.755 c 0.059,1.159 0.674,2.222 1.537,2.854 0.861,0.65 1.92,0.866 2.854,0.701 0.941,-0.155 1.719,-0.656 2.242,-1.313 0.256,-0.337 0.438,-0.701 0.607,-1.062 0.086,-0.182 0.172,-0.366 0.238,-0.563 l 0.088,-0.296 0.033,-0.108 0.029,-0.27 -0.002,0.057 z"
           id="path91"
           inkscape:connector-curvature="0"
           style="fill:#020202" /></g><g
         id="g93"><circle
           cx="57.946999"
           cy="27.004999"
           r="3.75"
           id="circle95"
           sodipodi:cx="57.946999"
           sodipodi:cy="27.004999"
           sodipodi:rx="3.75"
           sodipodi:ry="3.75"
           style="fill:#d35060"
           d="m 61.696999,27.004999 c 0,2.071068 -1.678933,3.75 -3.75,3.75 -2.071068,0 -3.75,-1.678932 -3.75,-3.75 0,-2.071068 1.678932,-3.75 3.75,-3.75 2.071067,0 3.75,1.678932 3.75,3.75 z" /><path
           d="m 63.621,27.103 0.008,0.369 c -0.01,0.193 -0.035,0.43 -0.062,0.644 -0.07,0.381 -0.184,0.732 -0.34,1.078 -0.32,0.68 -0.777,1.281 -1.32,1.771 -1.094,0.979 -2.578,1.453 -3.959,1.329 -1.373,-0.108 -2.674,-0.79 -3.51,-1.776 -0.857,-0.978 -1.309,-2.263 -1.268,-3.511 0.029,-2.53 2.125,-4.799 4.777,-4.997 1.293,-0.115 2.723,0.292 3.795,1.203 1.084,0.896 1.803,2.309 1.881,3.794 l -0.002,0.096 z m -3.85,-0.098 c 0.086,-0.481 -0.004,-1.021 -0.314,-1.509 -0.312,-0.484 -0.834,-0.885 -1.51,-0.993 -0.662,-0.117 -1.391,0.094 -1.928,0.575 -0.531,0.493 -0.822,1.201 -0.795,1.927 0.035,0.72 0.393,1.384 0.93,1.793 0.549,0.41 1.199,0.535 1.793,0.42 0.588,-0.117 1.053,-0.449 1.346,-0.867 0.15,-0.205 0.25,-0.435 0.305,-0.663 0.027,-0.111 0.055,-0.23 0.088,-0.328 0.008,-0.03 0.023,-0.035 0.045,-0.085 l 0.043,-0.367 -0.003,0.097 z"
           id="path97"
           inkscape:connector-curvature="0"
           style="fill:#020202" /></g><g
         id="g99"><circle
           cx="139.19901"
           cy="65.626999"
           r="3.6289999"
           id="circle101"
           sodipodi:cx="139.19901"
           sodipodi:cy="65.626999"
           sodipodi:rx="3.6289999"
           sodipodi:ry="3.6289999"
           style="fill:#d35060"
           d="m 142.82801,65.626999 c 0,2.004241 -1.62476,3.629 -3.629,3.629 -2.00425,0 -3.629,-1.624759 -3.629,-3.629 0,-2.004241 1.62475,-3.629 3.629,-3.629 2.00424,0 3.629,1.624759 3.629,3.629 z" /><path
           d="m 143.889,65.68 c -0.205,1.08 -0.48,2.374 -1.289,3.347 -0.781,0.989 -2.01,1.725 -3.4,1.911 -1.371,0.198 -2.947,-0.21 -4.129,-1.183 -0.582,-0.493 -1.086,-1.109 -1.441,-1.819 -0.172,-0.358 -0.314,-0.732 -0.412,-1.122 -0.041,-0.195 -0.082,-0.392 -0.113,-0.59 l -0.031,-0.297 -0.014,-0.15 -0.004,-0.075 -0.002,-0.038 -0.002,-0.018 0.002,-0.146 0.002,-0.357 c 0.014,-0.21 0.043,-0.477 0.08,-0.711 0.082,-0.414 0.193,-0.794 0.344,-1.175 0.309,-0.752 0.779,-1.434 1.365,-1.984 0.59,-0.549 1.293,-0.967 2.049,-1.214 0.379,-0.118 0.764,-0.204 1.152,-0.242 0.195,-0.013 0.389,-0.024 0.582,-0.027 l 0.682,0.043 0.352,0.087 c 0.195,0.042 0.43,0.098 0.635,0.156 0.367,0.126 0.693,0.281 1.012,0.465 0.629,0.372 1.16,0.858 1.568,1.411 0.818,1.102 1.16,2.454 1.014,3.676 v 0.052 z m -2.123,-0.053 c -0.139,-0.68 -0.58,-1.215 -1.111,-1.455 -0.264,-0.119 -0.537,-0.17 -0.787,-0.161 -0.123,0.005 -0.25,0.025 -0.348,0.052 -0.029,0.025 -0.029,0.041 -0.07,0.052 l -0.359,0.051 c 0.217,0.006 0.059,0.002 0.107,0.004 l -0.004,0 -0.004,0.003 -0.008,0.004 -0.02,0.012 -0.033,0.019 -0.068,0.037 -0.123,0.077 c -0.076,0.06 -0.146,0.11 -0.207,0.168 -0.123,0.117 -0.225,0.237 -0.309,0.359 -0.084,0.122 -0.152,0.245 -0.205,0.371 -0.027,0.059 -0.053,0.135 -0.07,0.186 0.002,0 -0.008,-0.033 -0.023,-0.007 l -0.035,0.355 c 0.008,-0.255 0.002,-0.07 0.004,-0.126 v 0.002 0.003 0.006 0.015 l -0.004,0.027 -0.014,0.058 c -0.002,0.039 -0.002,0.075 -0.01,0.114 0.002,0.076 -0.006,0.157 0.002,0.241 0.008,0.167 0.041,0.356 0.129,0.535 0.16,0.378 0.473,0.75 1.004,0.942 0.512,0.191 1.172,0.146 1.73,-0.214 0.271,-0.183 0.521,-0.425 0.707,-0.722 0.086,-0.149 0.145,-0.32 0.16,-0.487 v -0.217 l -0.029,-0.358 -0.002,0.054 z"
           id="path103"
           inkscape:connector-curvature="0"
           style="fill:#020202" /></g><circle
         cx="100.457"
         cy="28.879999"
         r="1.875"
         id="circle105"
         sodipodi:cx="100.457"
         sodipodi:cy="28.879999"
         sodipodi:rx="1.875"
         sodipodi:ry="1.875"
         style="opacity:0.2;fill:#ffffff"
         d="m 102.332,28.879999 c 0,1.035534 -0.83947,1.875 -1.875,1.875 -1.035533,0 -1.874999,-0.839466 -1.874999,-1.875 0,-1.035534 0.839466,-1.875 1.874999,-1.875 1.03553,0 1.875,0.839466 1.875,1.875 z" /><circle
         cx="74.212997"
         cy="4.8800001"
         r="1.875"
         id="circle107"
         sodipodi:cx="74.212997"
         sodipodi:cy="4.8800001"
         sodipodi:rx="1.875"
         sodipodi:ry="1.875"
         style="opacity:0.2;fill:#ffffff"
         d="m 76.087997,4.8800001 c 0,1.0355339 -0.839466,1.875 -1.875,1.875 -1.035533,0 -1.875,-0.8394661 -1.875,-1.875 0,-1.0355339 0.839467,-1.875 1.875,-1.875 1.035534,0 1.875,0.8394661 1.875,1.875 z" /></g></g></svg>