<?xml version="1.0" encoding="UTF-8" standalone="no"?>
<!-- Generator: Adobe Illustrator 16.0.0, SVG Export Plug-In . SVG Version: 6.00 Build 0)  -->

<svg
   xmlns:dc="http://purl.org/dc/elements/1.1/"
   xmlns:cc="http://creativecommons.org/ns#"
   xmlns:rdf="http://www.w3.org/1999/02/22-rdf-syntax-ns#"
   xmlns:svg="http://www.w3.org/2000/svg"
   xmlns="http://www.w3.org/2000/svg"
   xmlns:sodipodi="http://sodipodi.sourceforge.net/DTD/sodipodi-0.dtd"
   xmlns:inkscape="http://www.inkscape.org/namespaces/inkscape"
   version="1.1"
   id="Layer_1"
   x="0px"
   y="0px"
   width="120.922px"
   height="650.396px"
   viewBox="0 0 200.922 650.396"
   enable-background="new 0 0 200.922 387.396"
   xml:space="preserve"
   inkscape:version="0.48.4 r9939"
   sodipodi:docname="01 Red.svg"><metadata
     id="metadata111"><rdf:RDF><cc:Work
         rdf:about=""><dc:format>image/svg+xml</dc:format><dc:type
           rdf:resource="http://purl.org/dc/dcmitype/StillImage" /></cc:Work></rdf:RDF></metadata><defs
     id="defs109" /><sodipodi:namedview
     pagecolor="#ffffff"
     bordercolor="#666666"
     borderopacity="1"
     objecttolerance="10"
     gridtolerance="10"
     guidetolerance="10"
     inkscape:pageopacity="0"
     inkscape:pageshadow="2"
     inkscape:window-width="640"
     inkscape:window-height="480"
     id="namedview107"
     showgrid="false"
     inkscape:zoom="0.60919576"
     inkscape:cx="100.461"
     inkscape:cy="415.58378"
     inkscape:window-x="75"
     inkscape:window-y="34"
     inkscape:window-maximized="0"
     inkscape:current-layer="Layer_1" /><g
     id="g3"
     transform="matrix(1.359938,0,0,1.5130714,-49.413129,-195.92311)"><path
       d="M 177.394,85.974 H 50 c -4.35,0 -7.874,2.937 -7.874,6.563 v 9.081 c 0,3.624 3.524,6.561 7.874,6.561 h 10.823 v 375.36 H 166.569 V 108.18 h 10.822 c 4.35,0 7.875,-2.937 7.875,-6.561 v -9.082 c 0.003,-3.626 -3.523,-6.563 -7.872,-6.563 z"
       id="path5"
       inkscape:connector-curvature="0"
       style="fill:#ea2227" /><rect
       x="61.363998"
       y="148.30701"
       width="103.571"
       height="314.19101"
       id="rect7"
       style="fill:#ea2227" /><ellipse
       enable-background="new    "
       cx="101.387"
       cy="181.22701"
       rx="7.6789999"
       ry="6.3959999"
       id="ellipse9"
       d="m 109.066,181.22701 c 0,3.53241 -3.438,6.39599 -7.679,6.39599 -4.240994,0 -7.678999,-2.86358 -7.678999,-6.39599 0,-3.53242 3.438005,-6.396 7.678999,-6.396 4.241,0 7.679,2.86358 7.679,6.396 z"
       sodipodi:cx="101.387"
       sodipodi:cy="181.22701"
       sodipodi:rx="7.6789999"
       sodipodi:ry="6.3959999"
       style="opacity:0.34000017;fill:#ffffff" /><ellipse
       enable-background="new    "
       cx="93.297997"
       cy="259.99799"
       rx="5.3779998"
       ry="4.48"
       id="ellipse11"
       d="m 98.675996,259.99799 c 0,2.47423 -2.407812,4.48 -5.377999,4.48 -2.970188,0 -5.378,-2.00577 -5.378,-4.48 0,-2.47424 2.407812,-4.48 5.378,-4.48 2.970187,0 5.377999,2.00576 5.377999,4.48 z"
       sodipodi:cx="93.297997"
       sodipodi:cy="259.99799"
       sodipodi:rx="5.3779998"
       sodipodi:ry="4.48"
       style="opacity:0.34000017;fill:#ffffff" /><ellipse
       enable-background="new    "
       cx="118.42"
       cy="229.02901"
       rx="11.152"
       ry="9.2919998"
       id="ellipse13"
       d="m 129.572,229.02901 c 0,5.13183 -4.99292,9.292 -11.152,9.292 -6.15908,0 -11.152,-4.16017 -11.152,-9.292 0,-5.13183 4.99292,-9.292 11.152,-9.292 6.15908,0 11.152,4.16017 11.152,9.292 z"
       sodipodi:cx="118.42"
       sodipodi:cy="229.02901"
       sodipodi:rx="11.152"
       sodipodi:ry="9.2919998"
       style="opacity:0.34000017;fill:#ffffff" /><ellipse
       enable-background="new    "
       cx="107.268"
       cy="305.401"
       rx="5.8800001"
       ry="4.8990002"
       id="ellipse15"
       d="m 113.148,305.401 c 0,2.70564 -2.63257,4.899 -5.88,4.899 -3.24744,0 -5.88,-2.19336 -5.88,-4.899 0,-2.70564 2.63256,-4.899 5.88,-4.899 3.24743,0 5.88,2.19336 5.88,4.899 z"
       sodipodi:cx="107.268"
       sodipodi:cy="305.401"
       sodipodi:rx="5.8800001"
       sodipodi:ry="4.8990002"
       style="opacity:0.34000017;fill:#ffffff" /><path
       d="m 191.908,96.744 -0.061,-2.417 -0.045,-1.208 -0.023,-0.746 -0.021,-0.301 -0.061,-0.659 c -0.384,-2.97 -2.135,-5.72 -4.751,-7.638 -2.599,-1.924 -6.1,-3.033 -9.554,-2.991 l -21.732,0.092 c -7.244,0.02 -14.488,0.028 -21.731,0.119 -7.244,0.095 -14.488,0.224 -21.732,0.438 -7.244,0.208 -14.488,0.625 -21.734,1.058 -7.244,0.447 -14.488,0.913 -21.732,1.171 -3.62,0.128 -7.244,0.212 -10.864,0.24 -1.812,0.016 -3.624,0.025 -5.436,0.01 l -2.78,-0.007 c -1.235,0.019 -2.399,0.208 -3.528,0.57 -2.243,0.718 -4.176,2.082 -5.408,3.833 -0.617,0.875 -1.039,1.849 -1.275,2.854 -0.119,0.485 -0.177,1.056 -0.197,1.489 l -0.071,1.133 c -0.082,1.508 -0.224,3.016 -0.338,4.524 -0.054,0.753 -0.143,1.508 -0.214,2.263 l -0.058,0.568 -0.027,0.281 -0.014,0.146 -0.003,0.031 c -0.003,-0.054 -0.003,0.117 -0.003,0.117 l -0.003,0.065 c -0.007,0.106 -0.018,0.174 -0.018,0.303 l 0.011,0.48 c 0.021,0.287 0.037,0.558 0.078,0.835 0.071,0.514 0.207,1.022 0.38,1.522 0.913,0.527 1.599,1.279 1.802,2.236 0.078,0.383 0.183,0.758 0.268,1.14 0.36,0.389 0.733,0.767 1.157,1.113 1.011,0.807 2.195,1.491 3.509,2 1.313,0.501 2.755,0.819 4.225,0.938 1.371,0.159 2.713,0.343 4.065,0.527 0.686,29.715 1.259,59.431 1.772,89.148 l 0.77,46.919 0.686,46.92 0.338,23.461 0.26,23.457 0.52,46.92 0.335,46.92 0.096,23.46 0.04,23.461 v 1.68 h 109.782 v -1.682 c 1.129,-15.643 1.815,-31.282 2.528,-46.919 0.655,-15.64 1.171,-31.28 1.569,-46.92 0.836,-31.279 1.196,-62.56 1.296,-93.841 0.101,-31.279 -0.056,-62.558 -0.558,-93.836 -0.547,-29.886 -1.251,-59.775 -2.703,-89.659 0.552,0.095 1.108,0.199 1.663,0.282 0.969,0.146 1.932,0.27 2.9,0.378 1.037,0.083 1.67,0.253 3.514,0.218 3.464,-0.126 6.896,-1.455 9.295,-3.607 1.212,-1.068 2.182,-2.337 2.842,-3.721 0.658,-1.372 0.996,-2.91 0.999,-4.325 0.005,-1.616 0.019,-3.23 -0.025,-4.843 z m -13.219,-2.417 -0.062,2.417 c -0.047,1.613 -0.033,3.226 -0.026,4.84 0.003,0.195 0.003,0.271 -0.027,0.408 -0.029,0.125 -0.082,0.253 -0.172,0.383 -0.182,0.255 -0.431,0.486 -0.826,0.679 -0.085,0.093 -1.391,0.175 -2.292,0.289 -0.969,0.108 -1.932,0.229 -2.9,0.373 -1.938,0.291 -3.873,0.646 -5.811,1.162 h -0.007 l -3.79,-0.144 -0.177,3.447 c -1.598,31.279 -2.313,62.561 -2.887,93.837 -0.503,31.281 -0.659,62.561 -0.561,93.837 0.102,31.284 0.458,62.564 1.296,93.842 0.4,15.64 0.917,31.28 1.571,46.921 0.686,15.077 1.357,30.157 2.419,45.236 H 62.846 l 0.037,-21.775 0.096,-23.46 0.332,-46.92 0.52,-46.92 0.26,-23.457 0.339,-23.461 0.688,-46.92 0.77,-46.921 c 0.537,-31.277 1.133,-62.559 1.87,-93.837 l 0.132,-5.664 -7.068,-0.116 h -0.006 c -3.606,0.694 -7.275,1.183 -10.833,1.613 -0.676,0.212 -1.5,0.207 -2.271,-0.113 -0.776,-0.304 -1.438,-0.898 -1.777,-1.646 -0.043,-0.089 -0.082,-0.194 -0.115,-0.283 -0.01,-0.027 -0.024,-0.056 -0.036,-0.085 -0.018,-0.058 -0.028,-0.18 -0.037,-0.261 l -0.01,-0.071 c -0.004,-0.028 0,0.12 -0.004,0.038 l -0.003,-0.031 -0.013,-0.146 -0.028,-0.281 -0.057,-0.568 c -0.071,-0.753 -0.16,-1.509 -0.214,-2.263 -0.114,-1.508 -0.26,-3.015 -0.339,-4.524 l -0.071,-1.133 c -0.02,-0.324 -0.03,-0.507 -0.01,-0.768 0.043,-0.485 0.214,-0.96 0.466,-1.411 0.509,-0.895 1.432,-1.659 2.563,-2.052 0.549,-0.208 1.188,-0.325 1.761,-0.357 l 0.275,-0.01 0.338,-0.003 0.679,-0.004 1.357,-0.003 c 1.812,-0.017 3.624,-0.004 5.436,0.008 3.62,0.027 7.244,0.11 10.864,0.241 7.244,0.261 14.488,0.728 21.732,1.17 7.244,0.434 14.488,0.851 21.732,1.061 7.244,0.214 14.488,0.341 21.732,0.436 7.245,0.09 14.489,0.1 21.733,0.119 l 21.731,0.093 c 0.421,0.034 0.773,0.161 1.037,0.42 0.256,0.243 0.363,0.568 0.334,0.814 l -0.079,1.924 z"
       id="path17"
       inkscape:connector-curvature="0"
       style="fill:#231f20" /><g
       id="g19"
       style="opacity:0.2"><polygon
         points="73.372,101.806 83.795,101.806 78.583,326.831 "
         id="polygon21"
         style="fill:#ffffff" /></g></g><g
     id="g23"
     transform="matrix(1.3800915,0,0,1.3212728,-34.816542,-209.84729)"><path
       d="m 160.09,81.683 c -0.285,-1.005 -1.078,-1.726 -1.998,-2.031 -0.346,-0.474 -0.863,-0.856 -1.588,-1.061 -0.881,-1.073 -2.137,-1.261 -3.211,-0.874 -0.252,-0.066 -0.508,-0.13 -0.762,-0.191 0.752,-6.526 0.57,-13.188 -2.742,-19.059 -1.291,-2.283 -4.371,-1.699 -5.355,0.419 -3.979,-3.896 -9.317,0.709 -11.856,3.974 -0.468,0.603 -0.693,1.242 -0.744,1.862 -1.5,-1.325 -3.192,-2.026 -5.506,-2.528 -4.789,-1.038 -10.086,-0.547 -14.041,2.173 -0.804,-3.31 -2.688,-6.242 -5.468,-8.507 -0.403,-0.331 -0.883,-0.536 -1.381,-0.637 -0.219,-0.417 -0.42,-0.84 -0.647,-1.256 -0.615,-1.115 -1.524,-1.551 -2.429,-1.522 -4.155,-6.334 -9.593,-11.37 -17.46,-8.855 -0.098,0.031 -0.186,0.071 -0.277,0.108 -9.27,-1.858 -21.572,1.002 -25.051,9.356 -4.121,3.604 -6.738,8.705 -4.768,14.225 0.201,0.564 0.535,1.027 0.943,1.382 0.045,0.167 0.1,0.333 0.152,0.5 -0.705,3.627 -0.619,8.374 0.604,12.022 -0.107,0.176 -0.215,0.353 -0.324,0.525 -2.027,-0.196 -4.295,0.646 -5.996,1.682 -0.723,0.439 -1.146,1.087 -1.326,1.784 -3.604,3.15 -3.689,8.914 0.219,12.927 0.031,0.032 0.066,0.058 0.098,0.088 -1.008,1.124 -2.031,2.234 -3.078,3.322 -1.902,1.979 -3.77,3.955 -5.494,6.021 -0.857,-0.162 -1.779,0.05 -2.525,0.827 -1.779,1.854 -2.768,4.089 -3.25,6.479 -0.42,1.236 -0.76,2.512 -1.021,3.845 -0.148,0.762 -0.057,1.421 0.188,1.969 -0.072,0.164 -0.137,0.341 -0.188,0.531 -0.906,3.378 0.277,6.046 2.334,8.234 -0.654,0.849 -0.838,1.981 -0.031,3.077 0.914,1.242 4.139,3.389 5.953,5.302 -0.361,0.339 -0.633,0.799 -0.756,1.386 -0.648,3.109 -0.533,5.664 0.314,7.906 -1.268,4.126 -0.336,9.128 4.318,10.408 1.291,0.354 2.572,0.06 3.809,-0.311 0.32,-0.096 0.619,-0.155 0.9,-0.186 1.611,1.968 2.803,4.174 3.877,6.462 -0.381,2.597 0.67,5.797 2.586,8.149 -1.174,7.755 11.592,9.214 12.088,16.368 0.08,1.137 0.816,2.142 1.768,2.666 1.621,3.563 3.896,6.743 7.273,8.497 0.49,0.781 1.336,1.337 2.459,1.337 h 2 c 1.627,0 2.67,-1.294 2.902,-2.674 0.955,-0.235 1.77,-0.885 1.99,-2.028 0.439,-2.272 0.596,-4.481 0.607,-6.798 0.004,-0.493 -0.117,-0.922 -0.309,-1.299 -0.176,-8.427 -1.186,-17.539 1.674,-25.136 0.342,-0.389 0.525,-0.87 0.572,-1.384 0.527,-1.164 1.156,-2.286 1.906,-3.358 0.131,-0.176 0.254,-0.355 0.389,-0.529 0.061,-0.081 0.123,-0.162 0.186,-0.242 0.383,-0.486 0.779,-0.966 1.203,-1.431 0.066,-0.073 0.109,-0.146 0.166,-0.221 1.768,-1.488 5.141,-2.225 7.227,-3.257 2.151,-1.065 4.031,-2.857 5.851,-4.401 6.932,-5.885 11.975,-12.555 14.369,-21.375 0.702,-2.586 1.176,-5.243 2.575,-7.563 1.947,-3.226 6.945,-4.219 10.289,-4.971 7,-1.577 13.927,-2.063 19.011,-7.02 0.141,-0.063 0.278,-0.132 0.405,-0.225 1.162,-0.83 1.644,-1.553 1.865,-2.729 1.215,-0.381 2.121,-1.552 2.121,-2.86 0,-0.334 -0.068,-0.648 -0.171,-0.948 0.688,-1.308 1.214,-2.762 1.572,-4.302 1.931,-4.177 2.455,-8.904 0.99,-14.044 z"
       id="path25"
       inkscape:connector-curvature="0"
       style="fill:#d35060" /><g
       id="g27"><path
         d="m 142.697,88.981 c -0.188,-0.053 -0.197,-0.889 0.215,-2.389 0.422,-1.491 1.252,-3.655 2.951,-6.138 0.857,-1.232 1.93,-2.555 3.438,-3.769 0.761,-0.6 1.634,-1.178 2.699,-1.6 1.054,-0.421 2.349,-0.676 3.707,-0.461 1.358,0.199 2.66,0.885 3.66,1.774 1.014,0.893 1.791,1.954 2.45,3.065 0.63,1.061 1.25,2.4 1.58,3.742 0.353,1.339 0.535,2.704 0.619,4.086 0.162,2.763 -0.067,5.6 -0.598,8.495 -0.541,2.893 -1.369,5.851 -2.676,8.817 -0.662,1.481 -1.434,2.97 -2.461,4.425 -0.512,0.727 -1.096,1.443 -1.781,2.133 -0.348,0.344 -0.721,0.679 -1.131,1 l -0.404,0.293 -0.467,0.313 c -0.146,0.123 -0.326,0.176 -0.508,0.221 l -0.539,0.154 -9.502,2.699 -4.93,1.388 -2.508,0.703 -0.695,0.195 c -0.412,0.084 -0.816,0.308 -1.248,0.206 l -0.916,-0.066 -0.59,-0.025 c -1.576,-0.056 -2.908,0.104 -3.703,0.58 -0.422,0.237 -0.844,0.592 -1.303,1.112 -0.229,0.258 -0.461,0.551 -0.693,0.867 -0.113,0.156 -0.227,0.299 -0.295,0.421 -0.072,0.114 -0.148,0.239 -0.23,0.396 -0.65,1.178 -1.098,2.729 -1.439,4.414 -0.346,1.691 -0.59,3.522 -0.924,5.471 -0.36,1.937 -0.717,4.062 -1.842,6.31 -1.025,2.037 -2.408,3.872 -4,5.438 -3.205,3.142 -6.957,5.105 -10.424,6.794 l -2.563,1.225 -1.229,0.598 c -0.227,0.112 -0.355,0.177 -0.492,0.255 -0.143,0.078 -0.287,0.165 -0.432,0.261 -1.172,0.762 -2.346,1.92 -3.389,3.173 -2.1,2.539 -3.797,5.505 -5.09,8.514 -1.287,3.018 -2.176,6.134 -2.494,9.136 -0.168,1.231 -0.016,2.957 0.053,4.548 l 0.264,4.891 c 0.129,3.266 0.146,6.521 -0.352,9.771 -0.258,1.622 -0.646,3.25 -1.322,4.836 -0.666,1.576 -1.676,3.132 -3.076,4.318 -0.344,0.294 -0.736,0.574 -1.066,0.782 -0.295,0.193 -0.619,0.407 -0.977,0.609 -0.693,0.402 -1.436,0.756 -2.23,1.028 -1.572,0.554 -3.451,0.713 -5.137,0.223 -1.693,-0.473 -3.039,-1.466 -4.047,-2.502 -1.016,-1.049 -1.76,-2.173 -2.373,-3.28 -1.215,-2.223 -1.938,-4.399 -2.49,-6.439 -1.07,-4.089 -1.41,-7.663 -1.5,-10.583 -0.08,-2.92 0.146,-5.196 0.477,-6.716 0.328,-1.525 0.758,-2.265 0.951,-2.209 0.205,0.057 0.184,0.842 0.252,2.314 0.066,1.471 0.221,3.642 0.645,6.404 0.434,2.753 1.102,6.129 2.383,9.804 0.646,1.823 1.455,3.736 2.568,5.482 1.088,1.729 2.611,3.302 4.201,3.618 0.787,0.169 1.629,0.079 2.555,-0.292 0.461,-0.185 0.934,-0.434 1.404,-0.737 0.229,-0.145 0.473,-0.319 0.744,-0.517 0.244,-0.17 0.408,-0.305 0.588,-0.471 1.41,-1.286 2.217,-3.676 2.523,-6.365 0.32,-2.701 0.23,-5.68 0.012,-8.788 l -0.391,-4.81 c -0.068,-0.829 -0.133,-1.672 -0.182,-2.547 -0.023,-0.448 -0.041,-0.862 -0.051,-1.366 -0.01,-0.563 0.039,-1.063 0.07,-1.511 0.311,-3.719 1.289,-7.339 2.709,-10.837 1.441,-3.492 3.297,-6.888 5.838,-10.041 1.293,-1.568 2.732,-3.095 4.676,-4.4 0.244,-0.162 0.5,-0.319 0.766,-0.47 0.268,-0.154 0.557,-0.302 0.75,-0.397 l 1.299,-0.644 2.539,-1.233 c 3.318,-1.622 6.455,-3.357 8.826,-5.7 1.182,-1.162 2.15,-2.462 2.859,-3.855 0.633,-1.19 0.994,-2.877 1.316,-4.651 0.317,-1.786 0.582,-3.685 0.995,-5.647 0.427,-1.958 0.974,-4.022 2.109,-6.063 0.135,-0.247 0.297,-0.513 0.475,-0.783 0.171,-0.268 0.343,-0.483 0.498,-0.695 0.316,-0.415 0.654,-0.834 1.033,-1.252 0.75,-0.832 1.713,-1.688 2.875,-2.312 1.16,-0.633 2.424,-0.96 3.551,-1.104 1.138,-0.148 2.175,-0.141 3.162,-0.098 l 0.729,0.045 0.359,0.028 c 0.051,0.004 0.023,0.003 0.039,0.005 0.012,0.005 0.023,0.001 0.033,0.001 l 0.572,-0.148 2.521,-0.656 4.955,-1.284 9.524,-2.443 c 0.023,-0.005 0.052,-0.002 0.072,-0.016 l 0.029,-0.014 c -0.002,0.002 0.006,-0.002 0.08,-0.054 0.221,-0.16 0.441,-0.346 0.662,-0.549 0.438,-0.413 0.863,-0.894 1.26,-1.422 0.801,-1.053 1.492,-2.259 2.096,-3.492 1.203,-2.482 2.063,-5.107 2.654,-7.662 0.588,-2.558 0.906,-5.073 0.895,-7.409 -0.008,-1.167 -0.102,-2.287 -0.307,-3.312 -0.197,-1.033 -0.527,-1.878 -1,-2.833 -0.896,-1.812 -2.1,-3.101 -3.373,-3.377 -1.281,-0.343 -2.844,0.239 -4.119,1.076 -1.293,0.842 -2.379,1.891 -3.28,2.895 -1.808,2.031 -2.929,3.9 -3.675,5.164 -0.733,1.271 -1.112,1.979 -1.321,1.918 z"
         id="path29"
         inkscape:connector-curvature="0"
         style="fill:#231f20" /></g><g
       id="g31"><path
         d="m 68.197,181.981 c -0.066,0.4 -0.721,0.712 -1.898,0.776 -1.172,0.06 -2.881,-0.146 -4.859,-0.906 -1.971,-0.755 -4.201,-2.079 -6.227,-4.085 -2.021,-1.996 -3.834,-4.679 -4.891,-7.866 -1.062,-3.18 -1.207,-6.537 -0.555,-9.414 0.631,-2.894 2.008,-5.236 3.432,-6.839 1.432,-1.617 2.883,-2.547 3.953,-3.016 1.084,-0.462 1.805,-0.478 2.045,-0.15 0.533,0.697 -1.064,2.537 -2.488,5.549 -0.699,1.509 -1.305,3.321 -1.488,5.37 -0.197,2.042 0.037,4.322 0.797,6.614 0.76,2.292 1.953,4.344 3.287,6.035 1.334,1.698 2.807,3.034 4.154,4.071 2.699,2.062 4.883,3.005 4.738,3.861 z"
         id="path33"
         inkscape:connector-curvature="0"
         style="fill:#231f20" /></g><g
       id="g35"><path
         d="m 41.674,141.276 c 0.709,0.422 0.967,1.544 1.4,3.298 0.42,1.737 0.936,4.173 1.828,6.417 0.445,1.115 0.941,2.021 1.434,2.683 0.49,0.665 0.988,1.133 1.59,1.527 1.211,0.777 2.641,1.111 2.826,1.936 0.1,0.396 -0.105,0.87 -0.68,1.325 -0.572,0.438 -1.545,0.881 -2.928,0.909 -1.365,0.041 -3.141,-0.489 -4.582,-1.656 -1.457,-1.147 -2.541,-2.77 -3.229,-4.491 -1.354,-3.474 -1.176,-6.714 -0.49,-8.953 0.352,-1.122 0.861,-2.001 1.398,-2.523 0.538,-0.532 1.071,-0.663 1.433,-0.472 z"
         id="path37"
         inkscape:connector-curvature="0"
         style="fill:#231f20" /></g><g
       id="g39"><path
         d="m 60.197,103.981 c -0.32,0.293 -1.271,-0.31 -2.881,-1.095 -1.602,-0.775 -3.951,-1.61 -6.748,-1.108 -2.787,0.455 -5.99,2.28 -8.828,5.201 -2.822,2.897 -5.391,6.862 -6.641,11.252 -0.619,2.166 -0.812,4.384 -0.518,6.183 0.365,1.93 1.186,3.892 2.201,5.57 2.059,3.411 4.902,5.926 7.541,7.501 2.658,1.601 5.137,2.275 6.908,2.622 1.777,0.346 2.881,0.451 2.965,0.875 0.084,0.381 -0.889,1.078 -2.959,1.461 -2.045,0.375 -5.23,0.284 -8.768,-1.142 -3.514,-1.406 -7.363,-4.088 -10.312,-8.287 -1.463,-2.112 -2.686,-4.547 -3.344,-7.458 -0.604,-3.073 -0.287,-6.079 0.508,-8.943 1.65,-5.707 4.9,-10.284 8.611,-13.642 3.707,-3.341 8.205,-5.414 12.316,-5.421 2.033,-0.025 3.869,0.458 5.287,1.15 1.43,0.691 2.461,1.554 3.184,2.322 1.437,1.568 1.769,2.704 1.478,2.959 z"
         id="path41"
         inkscape:connector-curvature="0"
         style="fill:#231f20" /></g><g
       id="g43"><path
         d="m 56.697,82.481 c -0.219,0.361 -0.75,0.478 -1.482,0.518 -0.725,0.039 -1.668,0.003 -2.59,0.167 -0.934,0.16 -1.736,0.521 -2.467,1.186 -0.738,0.662 -1.471,1.728 -2.016,3.08 -0.545,1.352 -0.842,2.801 -0.934,4.086 -0.094,1.293 0.02,2.41 0.234,3.3 0.207,0.898 0.545,1.6 0.852,2.193 0.301,0.591 0.543,1.075 0.402,1.472 -0.131,0.379 -0.658,0.657 -1.588,0.54 -0.91,-0.107 -2.24,-0.733 -3.316,-2.042 -2.209,-2.614 -3.002,-7.327 -1.215,-11.796 0.896,-2.227 2.453,-4.257 4.531,-5.444 1.029,-0.592 2.156,-0.944 3.209,-1.042 1.057,-0.113 2.02,0.025 2.816,0.257 1.604,0.481 2.574,1.295 3.115,1.951 0.543,0.666 0.66,1.229 0.449,1.574 z"
         id="path45"
         inkscape:connector-curvature="0"
         style="fill:#231f20" /></g><g
       id="g47"><path
         d="m 113.697,71.481 c -0.426,0.063 -0.969,-1.455 -1.998,-4.044 -1.043,-2.572 -2.633,-6.255 -5.5,-10.114 -2.84,-3.838 -7.061,-7.844 -12.693,-10.373 -5.582,-2.56 -12.564,-3.417 -19.412,-1.564 -1.709,0.45 -3.363,1.048 -4.949,1.755 -0.793,0.354 -1.57,0.738 -2.328,1.146 -0.742,0.398 -1.537,0.854 -2.156,1.261 -2.641,1.768 -4.779,4.088 -6.201,6.643 -1.441,2.563 -2.229,5.363 -2.596,8.081 -0.363,2.725 -0.326,5.364 -0.113,7.773 0.439,4.837 1.502,8.751 2.207,11.467 0.725,2.718 1.121,4.281 0.74,4.472 -0.357,0.182 -1.467,-1.034 -2.904,-3.593 -1.41,-2.56 -3.186,-6.475 -4.242,-11.738 -0.516,-2.628 -0.834,-5.603 -0.639,-8.852 0.197,-3.235 0.943,-6.782 2.658,-10.192 1.705,-3.416 4.385,-6.549 7.797,-8.93 0.902,-0.615 1.709,-1.092 2.598,-1.592 0.877,-0.49 1.781,-0.953 2.713,-1.38 1.861,-0.856 3.83,-1.58 5.883,-2.12 4.1,-1.092 8.33,-1.385 12.324,-0.922 3.998,0.452 7.744,1.645 11.014,3.303 6.581,3.326 11.122,8.379 13.842,13.019 2.75,4.682 3.826,8.95 4.219,11.866 0.375,2.936 0.129,4.575 -0.264,4.628 z"
         id="path49"
         inkscape:connector-curvature="0"
         style="fill:#231f20" /></g><g
       id="g51"><path
         d="m 132.697,72.481 c -0.854,0.004 -1.486,-1.588 -2.602,-3.493 -1.099,-1.907 -2.882,-4.018 -5.425,-4.831 -2.522,-0.866 -5.213,-0.227 -7.264,0.641 -2.056,0.856 -3.546,1.715 -4.212,1.184 -0.62,-0.472 -0.35,-2.354 1.699,-4.602 1.027,-1.091 2.556,-2.233 4.603,-2.914 2.024,-0.687 4.599,-0.832 7.06,-0.005 2.469,0.806 4.442,2.452 5.661,4.214 1.24,1.77 1.785,3.61 1.945,5.112 0.281,3.052 -0.687,4.714 -1.465,4.694 z"
         id="path53"
         inkscape:connector-curvature="0"
         style="fill:#231f20" /></g><g
       id="g55"><path
         d="m 151.197,75.481 c -0.842,-0.117 -1.143,-2.479 -1.42,-5.958 -0.158,-1.724 -0.33,-3.763 -0.834,-5.689 -0.25,-0.955 -0.601,-1.863 -1.049,-2.55 -0.457,-0.693 -0.947,-1.131 -1.623,-1.444 -0.34,-0.159 -0.738,-0.275 -1.172,-0.358 -0.23,-0.039 -0.341,-0.052 -0.519,-0.059 -0.179,-0.008 -0.371,-0.001 -0.574,0.018 -0.817,0.071 -1.762,0.367 -2.643,0.753 -1.785,0.783 -3.351,1.904 -4.552,2.925 -1.203,1.034 -2.057,1.996 -2.668,2.706 -0.617,0.702 -1.022,1.193 -1.449,1.158 -0.395,-0.025 -0.791,-0.68 -0.764,-1.9 0.019,-1.211 0.508,-2.907 1.613,-4.667 1.111,-1.749 2.775,-3.606 5.213,-5.098 1.227,-0.73 2.648,-1.395 4.416,-1.694 0.439,-0.074 0.902,-0.122 1.387,-0.13 0.482,-0.014 1.041,0.029 1.476,0.094 0.891,0.137 1.821,0.378 2.735,0.801 1.855,0.821 3.367,2.376 4.199,3.938 0.861,1.572 1.223,3.114 1.408,4.505 0.338,2.794 0.014,5.104 -0.371,6.981 -0.832,3.739 -2.016,5.781 -2.809,5.668 z"
         id="path57"
         inkscape:connector-curvature="0"
         style="fill:#231f20" /></g><g
       id="g59"
       style="opacity:0.2"><path
         d="m 65.197,76.481 c 0.008,-10e-4 -0.023,-0.491 -0.186,-1.396 -0.152,-0.903 -0.43,-2.228 -0.652,-3.898 -0.219,-1.668 -0.398,-3.688 -0.24,-5.937 0.156,-2.244 0.637,-4.73 1.771,-7.222 1.127,-2.47 2.873,-4.742 5.141,-6.156 1.119,-0.705 2.348,-1.167 3.512,-1.351 1.168,-0.185 2.248,-0.111 3.156,0.088 1.824,0.408 2.994,1.176 3.789,1.64 0.781,0.494 1.203,0.737 1.209,0.729 0.004,10e-4 -0.457,-0.208 -1.354,-0.327 -0.881,-0.118 -2.232,-0.142 -3.615,0.289 -0.689,0.217 -1.363,0.546 -1.969,0.993 -0.607,0.444 -1.148,0.995 -1.648,1.644 -1,1.295 -1.873,2.995 -2.764,4.947 -0.887,1.953 -1.719,3.948 -2.52,5.813 -0.791,1.869 -1.549,3.615 -2.141,5.119 -0.594,1.504 -1.027,2.763 -1.246,3.644 -0.229,0.884 -0.245,1.382 -0.243,1.381 z"
         id="path61"
         inkscape:connector-curvature="0"
         style="fill:#ffffff" /></g><g
       id="g63"
       style="opacity:0.2"><path
         d="m 46.697,128.981 c 0,0 -0.07,-0.058 -0.227,-0.146 l -0.697,-0.391 c -0.299,-0.185 -0.701,-0.397 -1.117,-0.724 -0.418,-0.322 -0.916,-0.711 -1.385,-1.227 -0.945,-1.019 -1.893,-2.49 -2.422,-4.289 -0.537,-1.791 -0.666,-3.888 -0.197,-5.976 0.461,-2.088 1.473,-3.948 2.744,-5.346 1.271,-1.406 2.793,-2.32 4.109,-2.79 0.656,-0.246 1.281,-0.361 1.799,-0.451 0.521,-0.094 0.975,-0.099 1.326,-0.119 0.354,-0.017 0.621,-0.011 0.799,-0.021 0.178,-0.007 0.268,-0.024 0.268,-0.024 0,0 -0.375,0.069 -0.938,0.453 -0.283,0.177 -0.598,0.457 -0.922,0.788 -0.328,0.328 -0.633,0.767 -0.928,1.236 -0.592,0.953 -1.031,2.153 -1.398,3.436 -0.367,1.29 -0.676,2.678 -1.002,4.136 -0.318,1.459 -0.625,2.863 -0.85,4.202 -0.227,1.336 -0.361,2.622 -0.275,3.75 0.047,0.559 0.115,1.089 0.25,1.534 0.133,0.444 0.279,0.836 0.445,1.128 0.317,0.608 0.622,0.843 0.618,0.841 z"
         id="path65"
         inkscape:connector-curvature="0"
         style="fill:#ffffff" /></g><g
       id="g67"
       style="opacity:0.2"><path
         d="m 65.197,162.481 c 0.008,-0.002 -0.043,-0.104 -0.279,-0.259 -0.107,-0.08 -0.25,-0.179 -0.441,-0.292 -0.18,-0.116 -0.457,-0.241 -0.666,-0.409 -0.217,-0.165 -0.516,-0.35 -0.725,-0.581 -0.213,-0.229 -0.496,-0.485 -0.666,-0.782 -0.391,-0.587 -0.586,-1.316 -0.492,-2.021 0.09,-0.709 0.453,-1.301 0.941,-1.739 l 2.133,-1.911 0.195,0.094 c 0.244,0.117 0.494,0.313 0.783,0.502 0.275,0.206 0.656,0.396 1.023,0.872 0.18,0.226 0.311,0.504 0.35,0.726 0.045,0.224 0.021,0.388 -0.01,0.511 -0.098,0.25 -0.227,0.382 -0.316,0.51 -0.383,0.486 -0.348,0.799 -0.33,0.781 0.025,-0.02 -0.201,-0.146 -0.789,-0.498 -0.145,-0.08 -0.322,-0.182 -0.496,-0.179 -0.018,0.002 -0.035,0.002 -0.051,0.007 -0.027,0.012 0.01,-0.002 0.057,-0.019 l 0.119,-0.05 c 0.113,-0.045 0.201,-0.092 0.252,-0.123 0.104,-0.062 0.096,-0.082 0.053,-0.021 -0.045,0.062 -0.125,0.207 -0.205,0.467 -0.035,0.123 -0.08,0.282 -0.115,0.463 l -0.076,0.408 c -0.037,0.145 -0.133,0.327 -0.248,0.444 l 2.328,-1.818 c 0.256,0.495 0.4,0.938 0.354,1.33 -0.046,0.393 -0.287,0.718 -0.641,1.088 -0.148,0.183 -0.398,0.379 -0.566,0.573 -0.162,0.194 -0.406,0.4 -0.564,0.593 -0.15,0.19 -0.367,0.386 -0.49,0.552 -0.131,0.167 -0.227,0.313 -0.285,0.429 -0.145,0.237 -0.143,0.354 -0.137,0.352 z"
         id="path69"
         inkscape:connector-curvature="0"
         style="fill:#ffffff" /></g><g
       id="g71"
       style="opacity:0.2"><path
         d="m 120.197,73.481 c -0.004,-0.007 -0.01,0.038 0.113,0.193 0.053,0.068 0.131,0.163 0.268,0.257 0.113,0.076 0.045,0.029 0.018,0.018 l -0.078,-0.04 c -0.063,-0.023 -0.09,-0.034 -0.131,-0.035 -0.016,-0.003 -0.021,0.003 0.006,-0.008 0.06,-0.016 0.224,-0.138 0.359,-0.369 0.139,-0.227 0.23,-0.505 0.301,-0.759 0.021,-0.073 0.08,-0.411 0.025,-0.063 -0.025,0.18 -0.045,0.454 -0.039,0.638 0.004,0.181 0.01,0.436 0.029,0.584 0.018,0.164 0.039,0.285 0.061,0.371 0.039,0.195 0.07,0.22 0.068,0.213 0,-0.007 -0.023,0.019 -0.08,0.208 L 121,75.054 c -0.049,0.148 -0.121,0.392 -0.203,0.563 -0.082,0.178 -0.193,0.439 -0.32,0.601 -0.123,0.17 -0.283,0.402 -0.461,0.521 -0.172,0.148 -0.385,0.235 -0.6,0.264 -0.229,0.021 -0.453,-0.015 -0.709,-0.171 -0.234,-0.142 -0.486,-0.397 -0.658,-0.734 -0.184,-0.341 -0.305,-0.789 -0.275,-1.234 -0.006,-0.458 0.226,-0.872 0.431,-1.148 0.209,-0.269 0.534,-0.407 0.76,-0.451 0.226,-0.073 0.486,-0.011 0.646,0.021 0.173,0.034 0.291,0.085 0.377,0.116 0.184,0.081 0.213,0.087 0.209,0.079 z"
         id="path73"
         inkscape:connector-curvature="0"
         style="fill:#ffffff" /></g><g
       id="g75"
       style="opacity:0.2"><path
         d="m 128.197,74.981 c 0.002,-0.007 -0.025,0.021 -0.035,0.215 -0.002,0.042 -0.002,0.095 0,0.155 -0.002,0.034 0.029,0.198 0.018,0.132 -0.006,-0.043 -0.027,-0.098 -0.035,-0.128 -0.033,-0.084 -0.082,-0.106 -0.041,-0.084 0.035,0.021 0.181,0.042 0.363,-0.005 0.184,-0.044 0.367,-0.137 0.529,-0.228 l 0.219,-0.144 0.049,-0.035 c 0.004,-0.004 0.021,-0.018 0.014,-0.012 l -0.068,0.053 -0.242,0.205 c -0.133,0.12 -0.315,0.294 -0.416,0.407 -0.108,0.121 -0.186,0.215 -0.235,0.286 -0.119,0.155 -0.121,0.188 -0.117,0.184 0.004,-0.004 -0.023,0 -0.189,0.106 l -0.322,0.194 c -0.133,0.076 -0.35,0.207 -0.521,0.28 -0.174,0.078 -0.431,0.195 -0.625,0.231 -0.196,0.046 -0.467,0.109 -0.67,0.082 -0.218,-0.002 -0.42,-0.074 -0.584,-0.191 -0.17,-0.129 -0.297,-0.296 -0.363,-0.568 -0.062,-0.247 -0.055,-0.586 0.062,-0.928 0.111,-0.354 0.338,-0.736 0.668,-1.017 0.312,-0.313 0.758,-0.431 1.088,-0.469 0.324,-0.034 0.643,0.105 0.82,0.238 0.196,0.113 0.328,0.344 0.41,0.48 0.088,0.149 0.127,0.27 0.157,0.354 0.055,0.19 0.064,0.215 0.066,0.207 z"
         id="path77"
         inkscape:connector-curvature="0"
         style="fill:#ffffff" /></g><g
       id="g79"><circle
         cx="124.126"
         cy="31.705"
         r="11.224"
         id="circle81"
         d="m 135.35,31.705 c 0,6.198844 -5.02516,11.224 -11.224,11.224 -6.19884,0 -11.224,-5.025156 -11.224,-11.224 0,-6.198844 5.02516,-11.224 11.224,-11.224 6.19884,0 11.224,5.025156 11.224,11.224 z"
         sodipodi:cx="124.126"
         sodipodi:cy="31.705"
         sodipodi:rx="11.224"
         sodipodi:ry="11.224"
         style="fill:#d35060" /><path
         d="m 137.1,31.749 c -0.078,1.598 -0.494,3.345 -1.207,4.83 -0.721,1.508 -1.746,2.845 -2.963,3.929 -2.432,2.179 -5.604,3.39 -8.803,3.421 -3.201,0.073 -6.436,-1.169 -8.83,-3.394 -2.422,-2.214 -3.998,-5.382 -4.143,-8.874 -0.184,-3.303 1.051,-6.908 3.455,-9.474 1.205,-1.281 2.666,-2.351 4.303,-3.069 0.818,-0.357 1.674,-0.636 2.549,-0.824 0.438,-0.095 0.881,-0.167 1.326,-0.223 l 0.668,-0.062 0.734,-0.028 0.551,0.012 0.725,0.049 c 0.457,0.046 0.895,0.107 1.338,0.192 0.883,0.177 1.742,0.46 2.566,0.813 1.646,0.723 3.117,1.801 4.303,3.11 2.363,2.632 3.598,6.152 3.428,9.545 v 0.047 z m -3.5,-0.043 c -0.143,-2.494 -1.33,-4.814 -3.146,-6.327 -0.892,-0.77 -1.908,-1.357 -2.979,-1.759 -0.533,-0.209 -1.086,-0.354 -1.645,-0.462 -0.277,-0.056 -0.566,-0.099 -0.84,-0.129 l -0.377,-0.031 -0.551,-0.017 c -2.166,-0.063 -4.56,0.791 -6.291,2.37 -1.775,1.58 -2.965,3.814 -3.119,6.399 -0.172,2.395 0.674,5.067 2.432,6.998 0.885,0.96 1.959,1.77 3.168,2.312 1.213,0.54 2.529,0.835 3.875,0.87 2.689,0.061 5.357,-1.152 7.07,-3.153 0.859,-0.994 1.502,-2.146 1.904,-3.354 0.414,-1.229 0.575,-2.42 0.5,-3.761 l -0.001,0.044 z"
         id="path83"
         inkscape:connector-curvature="0"
         style="fill:#020202" /></g><g
       id="g85"><circle
         cx="102.713"
         cy="7.9809999"
         r="5.5"
         id="circle87"
         d="m 108.213,7.9809999 c 0,3.0375661 -2.46244,5.5000001 -5.5,5.5000001 -3.037569,0 -5.500003,-2.462434 -5.500003,-5.5000001 0,-3.0375661 2.462434,-5.5 5.500003,-5.5 3.03756,0 5.5,2.4624339 5.5,5.5 z"
         sodipodi:cx="102.713"
         sodipodi:cy="7.9809999"
         sodipodi:rx="5.5"
         sodipodi:ry="5.5"
         style="fill:#d35060" /><path
         d="m 110.477,8.039 0.017,0.271 -0.009,0.43 c -0.012,0.267 -0.03,0.515 -0.067,0.771 -0.076,0.51 -0.199,1.018 -0.39,1.501 -0.381,0.969 -1.016,1.824 -1.776,2.506 -1.508,1.391 -3.594,2.077 -5.537,1.908 -1.951,-0.151 -3.754,-1.123 -4.922,-2.521 -1.188,-1.396 -1.76,-3.196 -1.686,-4.923 0.143,-3.5 3.002,-6.506 6.641,-6.755 1.694,-0.163 3.657,0.373 5.125,1.597 1.494,1.202 2.491,3.126 2.604,5.158 v 0.057 z m -4.528,-0.058 c 0.129,-0.852 -0.063,-1.791 -0.615,-2.62 -0.564,-0.824 -1.465,-1.476 -2.652,-1.625 -1.049,-0.148 -2.315,0.234 -3.146,1.066 -0.846,0.824 -1.316,2.021 -1.213,3.179 0.059,1.159 0.674,2.223 1.537,2.854 0.861,0.649 1.919,0.866 2.854,0.701 0.94,-0.155 1.72,-0.656 2.242,-1.313 0.256,-0.337 0.438,-0.701 0.606,-1.062 0.086,-0.183 0.172,-0.366 0.238,-0.563 l 0.088,-0.296 0.033,-0.108 0.029,-0.27 -0.001,0.057 z"
         id="path89"
         inkscape:connector-curvature="0"
         style="fill:#020202" /></g><g
       id="g91"><circle
         cx="86.446999"
         cy="28.231001"
         r="3.75"
         id="circle93"
         d="m 90.196999,28.231001 c 0,2.071068 -1.678933,3.75 -3.75,3.75 -2.071068,0 -3.75,-1.678932 -3.75,-3.75 0,-2.071068 1.678932,-3.75 3.75,-3.75 2.071067,0 3.75,1.678932 3.75,3.75 z"
         sodipodi:cx="86.446999"
         sodipodi:cy="28.231001"
         sodipodi:rx="3.75"
         sodipodi:ry="3.75"
         style="fill:#d35060" /><path
         d="m 92.121,28.33 0.008,0.369 c -0.01,0.192 -0.035,0.43 -0.062,0.644 -0.07,0.381 -0.184,0.732 -0.34,1.078 -0.32,0.68 -0.777,1.281 -1.32,1.771 -1.094,0.979 -2.578,1.453 -3.959,1.329 -1.373,-0.107 -2.674,-0.79 -3.51,-1.775 -0.857,-0.979 -1.309,-2.264 -1.268,-3.512 0.029,-2.529 2.125,-4.799 4.777,-4.997 1.293,-0.114 2.723,0.292 3.795,1.203 1.084,0.896 1.803,2.31 1.881,3.794 l -0.002,0.096 z m -3.85,-0.099 c 0.086,-0.48 -0.004,-1.021 -0.314,-1.509 -0.312,-0.483 -0.834,-0.885 -1.51,-0.993 -0.662,-0.117 -1.391,0.095 -1.928,0.575 -0.531,0.493 -0.822,1.201 -0.795,1.927 0.035,0.721 0.393,1.385 0.93,1.793 0.549,0.41 1.199,0.535 1.793,0.42 0.588,-0.116 1.053,-0.448 1.346,-0.866 0.15,-0.205 0.25,-0.436 0.305,-0.663 0.027,-0.111 0.055,-0.23 0.088,-0.328 0.008,-0.03 0.023,-0.035 0.045,-0.085 l 0.043,-0.367 -0.003,0.096 z"
         id="path95"
         inkscape:connector-curvature="0"
         style="fill:#020202" /></g><g
       id="g97"><circle
         cx="167.69901"
         cy="66.852997"
         r="3.6289999"
         id="circle99"
         d="m 171.32801,66.852997 c 0,2.004241 -1.62476,3.629 -3.629,3.629 -2.00425,0 -3.629,-1.624759 -3.629,-3.629 0,-2.004242 1.62475,-3.629 3.629,-3.629 2.00424,0 3.629,1.624758 3.629,3.629 z"
         sodipodi:cx="167.69901"
         sodipodi:cy="66.852997"
         sodipodi:rx="3.6289999"
         sodipodi:ry="3.6289999"
         style="fill:#d35060" /><path
         d="m 172.389,66.907 c -0.205,1.079 -0.479,2.374 -1.289,3.347 -0.781,0.989 -2.01,1.725 -3.399,1.911 -1.371,0.197 -2.947,-0.21 -4.13,-1.184 -0.581,-0.492 -1.086,-1.108 -1.44,-1.818 -0.172,-0.358 -0.313,-0.732 -0.412,-1.122 -0.04,-0.195 -0.081,-0.393 -0.112,-0.59 l -0.031,-0.298 -0.014,-0.149 -0.004,-0.075 -0.002,-0.038 -0.003,-0.018 0.003,-0.146 0.002,-0.356 c 0.014,-0.21 0.043,-0.478 0.08,-0.711 0.081,-0.414 0.192,-0.794 0.344,-1.176 0.309,-0.752 0.778,-1.434 1.365,-1.983 0.59,-0.549 1.293,-0.967 2.049,-1.214 0.379,-0.118 0.764,-0.204 1.151,-0.242 0.195,-0.013 0.39,-0.024 0.582,-0.027 l 0.683,0.043 0.352,0.087 c 0.195,0.042 0.43,0.099 0.635,0.156 0.367,0.126 0.693,0.281 1.012,0.465 0.629,0.372 1.16,0.858 1.568,1.411 0.818,1.103 1.16,2.454 1.014,3.676 v 0.053 h -0.004 z m -2.123,-0.054 c -0.139,-0.68 -0.58,-1.215 -1.111,-1.455 -0.264,-0.119 -0.536,-0.17 -0.786,-0.161 -0.123,0.006 -0.25,0.025 -0.349,0.053 -0.028,0.024 -0.028,0.041 -0.069,0.052 l -0.359,0.051 c 0.218,0.006 0.06,0.002 0.107,0.004 h -0.005 l -0.004,0.003 -0.008,0.004 -0.02,0.013 -0.033,0.019 -0.068,0.037 -0.123,0.077 c -0.076,0.06 -0.146,0.11 -0.207,0.168 -0.123,0.117 -0.225,0.237 -0.309,0.359 -0.084,0.122 -0.152,0.244 -0.205,0.37 -0.027,0.06 -0.053,0.136 -0.07,0.187 0.002,0 -0.008,-0.033 -0.022,-0.007 l -0.035,0.354 c 0.009,-0.255 0.002,-0.069 0.004,-0.126 v 0.002 0.003 0.007 0.015 l -0.004,0.027 -0.014,0.058 c -0.003,0.039 -0.003,0.075 -0.011,0.114 0.002,0.075 -0.006,0.156 0.002,0.24 0.009,0.167 0.041,0.356 0.129,0.535 0.16,0.378 0.474,0.75 1.005,0.942 0.512,0.19 1.172,0.146 1.729,-0.214 0.271,-0.184 0.521,-0.425 0.707,-0.723 0.086,-0.148 0.146,-0.319 0.16,-0.486 v -0.217 l -0.029,-0.358 -0.002,0.053 z"
         id="path101"
         inkscape:connector-curvature="0"
         style="fill:#020202" /></g><circle
       enable-background="new    "
       cx="128.957"
       cy="30.106001"
       r="1.875"
       id="circle103"
       d="m 130.832,30.106001 c 0,1.035534 -0.83947,1.875 -1.875,1.875 -1.03553,0 -1.875,-0.839466 -1.875,-1.875 0,-1.035534 0.83947,-1.875 1.875,-1.875 1.03553,0 1.875,0.839466 1.875,1.875 z"
       sodipodi:cx="128.957"
       sodipodi:cy="30.106001"
       sodipodi:rx="1.875"
       sodipodi:ry="1.875"
       style="opacity:0.2;fill:#ffffff" /><circle
       enable-background="new    "
       cx="102.713"
       cy="6.1059999"
       r="1.875"
       id="circle105"
       d="m 104.588,6.1059999 c 0,1.035534 -0.83947,1.875 -1.875,1.875 -1.03554,0 -1.875,-0.839466 -1.875,-1.875 0,-1.0355339 0.83946,-1.875 1.875,-1.875 1.03553,0 1.875,0.8394661 1.875,1.875 z"
       sodipodi:cx="102.713"
       sodipodi:cy="6.1059999"
       sodipodi:rx="1.875"
       sodipodi:ry="1.875"
       style="opacity:0.2;fill:#ffffff" /></g></svg>