<?xml version="1.0" encoding="utf-8"?>
<!-- Generator: Adobe Illustrator 15.0.0, SVG Export Plug-In . SVG Version: 6.00 Build 0)  -->
<!DOCTYPE svg PUBLIC "-//W3C//DTD SVG 1.1//EN" "http://www.w3.org/Graphics/SVG/1.1/DTD/svg11.dtd">
<svg version="1.1" id="Layer_1" xmlns="http://www.w3.org/2000/svg" xmlns:xlink="http://www.w3.org/1999/xlink" x="0px" y="0px"
	 width="88.33px" height="285.23px" viewBox="0 0 88.33 285.23" enable-background="new 0 0 88.33 285.23" xml:space="preserve">
<g>
	<path fill="#FFFFFF" d="M79.956,9.383H6.622c-2.502,0-4.532,2.029-4.532,4.534v6.274c0,2.504,2.03,4.535,4.532,4.535h6.231V284.07
		h60.872V24.726h6.23c2.502,0,4.532-2.031,4.532-4.535v-6.274C84.488,11.412,82.458,9.383,79.956,9.383z"/>
	<rect x="13.164" y="52.45" fill="#EA2227" width="59.619" height="217.082"/>
	<circle opacity="0.34" fill="#FFFFFF" cx="36.204" cy="75.194" r="4.42"/>
	<circle opacity="0.34" fill="#FFFFFF" cx="31.548" cy="129.62" r="3.096"/>
	<circle opacity="0.34" fill="#FFFFFF" cx="46.009" cy="108.223" r="6.42"/>
	<circle opacity="0.34" fill="#FFFFFF" cx="39.589" cy="160.99" r="3.385"/>
	<path fill="#231F20" d="M79.956,12.971l-12.51-0.065c-4.171-0.012-8.34-0.019-12.51-0.082c-4.17-0.065-8.34-0.153-12.51-0.301
		c-4.17-0.145-8.34-0.433-12.51-0.733c-4.17-0.305-8.34-0.628-12.51-0.809c-2.086-0.088-4.17-0.146-6.255-0.166
		c-1.042-0.008-2.085-0.017-3.128-0.005l-0.781,0.002l-0.391,0.002l-0.195,0.002l-0.159,0.007c-0.329,0.023-0.697,0.104-1.013,0.247
		c-0.65,0.272-1.182,0.8-1.475,1.418c-0.145,0.312-0.242,0.639-0.268,0.975c-0.012,0.18-0.007,0.307,0.006,0.53l0.04,0.783
		c0.046,1.042,0.129,2.084,0.196,3.126c0.031,0.521,0.082,1.042,0.123,1.564l0.031,0.392l0.018,0.194l0.008,0.1l0.002,0.022
		c0.001,0.055,0-0.046,0.002-0.027l0.005,0.049c0.007,0.057,0.013,0.142,0.021,0.181c0.009,0.02,0.017,0.04,0.022,0.059
		c0.02,0.061,0.041,0.132,0.066,0.195c0.195,0.518,0.576,0.928,1.023,1.137c0.443,0.22,0.918,0.225,1.306,0.079
		c2.05-0.296,4.159-0.635,6.237-1.115h0.003l4.069,0.079l-0.076,3.915c-0.424,21.611-0.768,43.223-1.077,64.834l-0.442,32.418
		l-0.396,32.418l-0.195,16.21l-0.15,16.207l-0.299,32.418l-0.191,32.419L14.04,267.86l-0.023,16.209l-1.163-1.164h60.872
		l-1.163,1.164v-0.001c-0.65-10.807-1.045-21.613-1.455-32.417c-0.377-10.807-0.674-21.613-0.903-32.419
		c-0.482-21.611-0.688-43.223-0.747-64.837c-0.055-21.611,0.035-43.222,0.322-64.834c0.329-21.611,0.741-43.224,1.663-64.834
		l0.1-2.382l2.184,0.099h0.004c1.114-0.356,2.229-0.601,3.343-0.802c0.557-0.101,1.115-0.184,1.672-0.259
		c0.518-0.077,1.27-0.134,1.318-0.198c0.227-0.133,0.371-0.293,0.476-0.469c0.05-0.09,0.083-0.179,0.097-0.265
		c0.018-0.095,0.019-0.147,0.017-0.282c-0.004-1.115-0.012-2.23,0.015-3.344l0.036-1.67l0.043-1.331
		c0.016-0.17-0.044-0.394-0.194-0.562C80.4,13.083,80.197,12.995,79.956,12.971z M79.956,5.795c1.989-0.028,4.004,0.738,5.501,2.066
		c1.504,1.326,2.512,3.227,2.731,5.278l0.038,0.455l0.011,0.208l0.014,0.515l0.024,0.835l0.036,1.67
		c0.026,1.114,0.019,2.229,0.014,3.344c0,0.978-0.194,2.041-0.574,2.988c-0.38,0.956-0.938,1.833-1.636,2.571
		c-1.381,1.488-3.354,2.406-5.35,2.493c-1.062,0.023-1.426-0.094-2.021-0.151c-0.557-0.075-1.115-0.16-1.672-0.261
		c-1.114-0.201-2.229-0.443-3.343-0.799h-0.004l2.283-2.283c0.919,21.611,1.331,43.223,1.663,64.834
		c0.286,21.612,0.377,43.224,0.322,64.834c-0.059,21.615-0.266,43.227-0.748,64.837c-0.229,10.806-0.526,21.612-0.903,32.419
		c-0.411,10.805-0.805,21.61-1.455,32.417v0.001v1.161h-1.162H12.854h-1.161l-0.001-1.161l-0.023-16.209l-0.054-16.209
		l-0.193-32.419l-0.299-32.418l-0.15-16.207l-0.195-16.21l-0.396-32.418L9.938,89.56C9.628,67.949,9.284,46.336,8.86,24.726
		l3.993,3.993h-0.003c-2.092-0.481-4.152-0.816-6.271-1.117c-0.846-0.083-1.676-0.3-2.433-0.647
		c-0.756-0.353-1.437-0.825-2.019-1.382c-1.154-1.125-1.898-2.617-2.076-4.154c-0.024-0.192-0.033-0.379-0.045-0.577L0,20.509
		c0.001-0.09,0.007-0.136,0.01-0.208l0.003-0.048c0,0.003,0-0.115,0.002-0.078l0.002-0.022l0.008-0.1l0.016-0.194l0.032-0.392
		c0.041-0.522,0.093-1.043,0.124-1.564c0.066-1.042,0.148-2.083,0.195-3.126l0.041-0.783c0.012-0.299,0.045-0.692,0.113-1.028
		c0.136-0.695,0.379-1.366,0.733-1.972c0.709-1.209,1.823-2.152,3.114-2.648c0.65-0.25,1.319-0.381,2.031-0.394l1.6,0.005
		c1.043,0.01,2.086,0.003,3.128-0.007c2.085-0.019,4.169-0.077,6.255-0.166c4.17-0.179,8.34-0.501,12.51-0.809
		c4.17-0.3,8.34-0.588,12.51-0.731c4.17-0.148,8.34-0.237,12.51-0.303c4.17-0.062,8.339-0.068,12.51-0.082L79.956,5.795z"/>
	<ellipse fill="#CC2027" cx="43.289" cy="52.405" rx="27.077" ry="4.511"/>
	<g opacity="0.2">
		<polygon fill="#FFFFFF" points="26.077,20.32 23.077,175.796 20.077,20.32 		"/>
	</g>
</g>
</svg>
