<?xml version="1.0" encoding="utf-8"?>
<!-- Generator: Adobe Illustrator 15.0.0, SVG Export Plug-In . SVG Version: 6.00 Build 0)  -->
<!DOCTYPE svg PUBLIC "-//W3C//DTD SVG 1.1//EN" "http://www.w3.org/Graphics/SVG/1.1/DTD/svg11.dtd">
<svg version="1.1" id="Layer_1" xmlns="http://www.w3.org/2000/svg" xmlns:xlink="http://www.w3.org/1999/xlink" x="0px" y="0px"
	 width="87.694px" height="281.543px" viewBox="0 0 87.694 281.543" enable-background="new 0 0 87.694 281.543"
	 xml:space="preserve">
<g>
	<circle opacity="0.34" fill="#FFFFFF" cx="42.791" cy="97.319" r="4.42"/>
	<path fill="#FFFFFF" d="M79.457,5.618H6.125c-2.505,0-4.533,2.029-4.533,4.534v6.274c0,2.504,2.028,4.534,4.533,4.534h6.23v259.346
		h60.871V20.96h6.23c2.504,0,4.533-2.03,4.533-4.534v-6.274C83.99,7.647,81.961,5.618,79.457,5.618z"/>
	<rect x="14.036" y="48.685" fill="#F05A29" width="59.62" height="217.082"/>
	<path fill="#231F20" d="M87.692,13.059l-0.004-1.67l-0.007-0.835l-0.004-0.513l-0.007-0.209L87.64,9.38
		c-0.192-2.039-1.177-3.954-2.682-5.282c-1.489-1.342-3.514-2.096-5.501-2.066l-50.04,1.197L16.909,3.55l-6.256,0.162L7.527,3.793
		l-1.61,0.043C5.16,3.877,4.465,4.038,3.793,4.323c-1.336,0.563-2.44,1.594-3.099,2.859c-0.328,0.63-0.547,1.319-0.642,2.02
		c-0.047,0.338-0.058,0.73-0.052,1.026l0.022,0.782l0.088,3.126l0.044,1.564L0.18,16.52l0.012,0.203l0.025,0.285
		c0.023,0.175,0.048,0.339,0.084,0.508c0.273,1.338,1.032,2.555,2.081,3.39c1.045,0.841,2.389,1.296,3.708,1.269l5.17-0.146
		c-0.278,5.047-0.515,10.094-0.724,15.139c-0.25,5.403-0.416,10.806-0.614,16.209C9.538,64.185,9.248,74.991,9.014,85.795
		c-0.482,21.613-0.744,43.226-0.84,64.837c-0.109,21.612-0.012,43.224,0.411,64.835c0.226,10.808,0.522,21.612,0.933,32.418
		c0.416,10.805,0.91,21.611,1.676,32.419l0.088,1.237l1.074-0.077h60.871h1.163v-1.161v-0.002l2.442-255.654l1.414,0.011
		l0.835,0.002l0.512-0.002l0.229-0.008l0.463-0.032c2.024-0.194,3.957-1.179,5.299-2.686c0.677-0.752,1.213-1.631,1.574-2.58
		c0.36-0.94,0.54-1.99,0.536-2.952L87.692,13.059z M80.286,16.403c-0.003,0.151-0.02,0.215-0.054,0.318
		c-0.035,0.091-0.088,0.182-0.159,0.257c-0.144,0.156-0.328,0.252-0.526,0.274l-2.973,0.02L73.23,17.32h-0.004l-3.675,0.035
		l0.033,3.605l2.469,258.181h-58.46c0.719-10.419,1.199-20.837,1.6-31.255c0.409-10.806,0.706-21.611,0.932-32.418
		c0.425-21.612,0.521-43.223,0.411-64.835c-0.095-21.611-0.356-43.224-0.839-64.837c-0.235-10.805-0.524-21.611-0.908-32.417
		c-0.199-5.403-0.363-10.806-0.614-16.209c-0.224-5.404-0.474-10.806-0.778-16.209l-0.063-1.096l-0.978,0.055h-0.003l-6.248-0.175
		c-0.768-0.034-1.496-0.337-2.049-0.838c-0.553-0.502-0.919-1.184-1.017-1.898c-0.015-0.09-0.021-0.184-0.027-0.269l-0.004-0.104
		l-0.001-0.188l0.021-0.746l0.044-1.564l0.088-3.126l0.021-0.782c0.009-0.225,0.024-0.355,0.058-0.532
		c0.067-0.329,0.19-0.64,0.359-0.924C3.943,8.207,4.483,7.769,5.09,7.562c0.292-0.105,0.635-0.157,0.918-0.153l1.52,0.035
		l3.126,0.081l6.256,0.16l12.508,0.323l50.04,1.199c0.244,0.024,0.438,0.122,0.596,0.29c0.149,0.165,0.233,0.377,0.246,0.559
		L80.286,16.403z"/>
	<ellipse fill="#D56227" cx="42.217" cy="48.64" rx="27.653" ry="4.511"/>
	<circle opacity="0.34" fill="#FFFFFF" cx="25.366" cy="65.692" r="2.544"/>
	<circle opacity="0.34" fill="#FFFFFF" cx="60.611" cy="66.745" r="1.568"/>
	<circle opacity="0.34" fill="#FFFFFF" cx="36.93" cy="88.42" r="2.544"/>
	<circle opacity="0.34" fill="#FFFFFF" cx="27.91" cy="138.132" r="3.615"/>
	<g opacity="0.2">
		<polygon fill="#FFFFFF" points="25.822,16.555 22.822,172.032 19.822,16.555 		"/>
	</g>
</g>
</svg>
