<?xml version="1.0" encoding="UTF-8" standalone="no"?>
<!-- Generator: Adobe Illustrator 16.0.0, SVG Export Plug-In . SVG Version: 6.00 Build 0)  -->

<svg
   xmlns:dc="http://purl.org/dc/elements/1.1/"
   xmlns:cc="http://creativecommons.org/ns#"
   xmlns:rdf="http://www.w3.org/1999/02/22-rdf-syntax-ns#"
   xmlns:svg="http://www.w3.org/2000/svg"
   xmlns="http://www.w3.org/2000/svg"
   xmlns:sodipodi="http://sodipodi.sourceforge.net/DTD/sodipodi-0.dtd"
   xmlns:inkscape="http://www.inkscape.org/namespaces/inkscape"
   version="1.1"
   id="Layer_1"
   x="0px"
   y="0px"
   width="120.922px"
   height="650.396px"
   viewBox="0 0 200.922 650.396"
   enable-background="new 0 0 200.922 387.396"
   xml:space="preserve"
   inkscape:version="0.48.4 r9939"
   sodipodi:docname="03 Yellow.svg"><metadata
     id="metadata113"><rdf:RDF><cc:Work
         rdf:about=""><dc:format>image/svg+xml</dc:format><dc:type
           rdf:resource="http://purl.org/dc/dcmitype/StillImage" /></cc:Work></rdf:RDF></metadata><defs
     id="defs111" /><sodipodi:namedview
     pagecolor="#ffffff"
     bordercolor="#666666"
     borderopacity="1"
     objecttolerance="10"
     gridtolerance="10"
     guidetolerance="10"
     inkscape:pageopacity="0"
     inkscape:pageshadow="2"
     inkscape:window-width="1301"
     inkscape:window-height="744"
     id="namedview109"
     showgrid="false"
     inkscape:zoom="0.59790581"
     inkscape:cx="71.960999"
     inkscape:cy="385.84128"
     inkscape:window-x="65"
     inkscape:window-y="24"
     inkscape:window-maximized="1"
     inkscape:current-layer="Layer_1" /><g
     id="g3"
     transform="matrix(1.3861747,0,0,2.1132233,0.11701064,-219.86116)"><path
       d="M 124.431,118.863 H 25.3 c -3.386,0 -6.128,2.029 -6.128,4.534 v 6.274 c 0,2.504 2.743,4.535 6.128,4.535 h 8.421 V 393.55 h 82.285 V 134.206 h 8.421 c 3.387,0 6.128,-2.031 6.128,-4.535 v -6.274 c 0.004,-2.505 -2.74,-4.534 -6.124,-4.534 z"
       id="path5"
       inkscape:connector-curvature="0"
       style="fill:#fff100" /><rect
       x="34.754002"
       y="161.92999"
       width="80.594002"
       height="217.082"
       id="rect7"
       style="fill:#fff100" /><path
       d="m 135.636,126.304 -0.071,-1.67 -0.04,-0.835 -0.021,-0.511 -0.018,-0.209 -0.05,-0.449 c -0.296,-2.028 -1.637,-3.905 -3.635,-5.233 -1.997,-1.325 -4.681,-2.111 -7.371,-2.12 -11.274,-0.197 -22.548,-0.428 -33.821,-0.762 -11.275,-0.306 -22.549,-0.658 -33.82,-0.885 -5.637,-0.133 -11.275,-0.212 -16.912,-0.28 l -8.457,-0.075 -4.227,-0.02 -1.056,-0.006 -0.531,-0.002 -0.264,-0.002 -0.457,0.006 -0.196,0.006 -0.374,0.016 -0.375,0.024 -0.301,0.025 c -0.394,0.035 -0.782,0.085 -1.17,0.144 -0.773,0.119 -1.537,0.292 -2.271,0.511 -2.952,0.865 -5.413,2.508 -6.901,4.562 -0.748,1.027 -1.26,2.151 -1.481,3.304 -0.053,0.288 -0.098,0.576 -0.116,0.863 -0.014,0.146 -0.019,0.288 -0.021,0.432 v 0.338 l 0.028,0.783 c 0.031,1.042 0.097,2.084 0.147,3.125 l 0.103,1.565 0.056,0.915 0.024,0.229 c 0.016,0.178 0.036,0.355 0.063,0.534 0.05,0.299 0.111,0.563 0.196,0.841 0.634,2.217 2.352,4.214 4.703,5.552 2.329,1.358 5.349,2.06 8.222,1.96 l 1.096,-0.075 1.058,-0.083 c 0.352,-0.028 0.704,-0.063 1.056,-0.091 0.52,20.104 0.958,40.209 1.346,60.312 l 0.599,32.418 0.535,32.418 0.263,16.21 0.2,16.207 0.407,32.418 0.258,32.419 0.075,16.209 0.031,16.209 0.002,1.161 h 1.568 82.286 1.571 v -1.161 -10e-4 c 0.882,-10.807 1.412,-21.612 1.967,-32.417 0.512,-10.807 0.913,-21.613 1.223,-32.419 0.65,-21.61 0.931,-43.223 1.011,-64.837 0.074,-21.611 -0.048,-43.223 -0.436,-64.834 -0.428,-20.649 -0.975,-41.297 -2.104,-61.947 0.43,0.066 0.863,0.138 1.294,0.195 0.752,0.101 1.506,0.186 2.26,0.261 0.806,0.058 1.297,0.175 2.731,0.151 2.695,-0.087 5.366,-1.005 7.23,-2.494 0.941,-0.738 1.692,-1.618 2.202,-2.574 0.504,-0.947 0.762,-2.01 0.755,-2.984 -0.003,-1.118 -0.017,-2.234 -0.069,-3.347 z M 26.665,123.4 l 0.005,0.02 c 0.002,0.013 0,0.027 0.005,0.041 0,0.028 0.003,0.058 0,0.087 -0.003,0.028 -0.013,0.056 -0.019,0.084 l 0.005,-0.159 c 0.002,-0.021 0.002,-0.089 0.004,-0.073 z m -1.457,1.086 -0.028,-0.002 h 0.028 l 0.067,-0.002 h 0.066 l -0.022,0.002 -0.111,0.002 z m 0.995,5.014 -0.903,-0.068 c 0.146,-0.193 0.637,-0.216 0.903,0.068 z m 99.35,-4.866 -0.071,1.67 c -0.053,1.114 -0.063,2.229 -0.078,3.344 -0.005,0.138 -0.011,0.19 -0.041,0.286 -0.024,0.086 -0.075,0.173 -0.143,0.263 -0.145,0.173 -0.338,0.334 -0.644,0.467 -0.067,0.064 -1.084,0.121 -1.782,0.198 -0.753,0.075 -1.508,0.158 -2.261,0.259 -1.505,0.201 -3.014,0.446 -4.52,0.802 h -0.007 l -2.949,-0.099 -0.139,2.382 c -1.243,21.611 -1.801,43.223 -2.247,64.834 -0.388,21.612 -0.509,43.224 -0.434,64.834 0.079,21.614 0.358,43.228 1.01,64.837 0.31,10.807 0.71,21.612 1.22,32.419 0.536,10.418 1.056,20.836 1.884,31.255 H 35.297 l 0.028,-15.045 0.074,-16.209 0.258,-32.419 0.407,-32.418 0.2,-16.207 0.266,-16.21 0.534,-32.418 0.599,-32.418 c 0.42,-21.611 0.881,-43.224 1.454,-64.834 l 0.103,-3.915 -5.499,-0.079 h -0.003 c -1.41,-0.174 -2.819,-0.312 -4.229,-0.438 -0.704,-0.068 -1.41,-0.13 -2.111,-0.184 l -1.033,-0.079 0.011,-0.172 0.028,-0.392 0.101,-1.565 c 0.047,-0.968 0.105,-1.938 0.137,-2.906 l 0.574,-0.004 4.227,-0.02 8.457,-0.074 c 5.637,-0.07 11.274,-0.149 16.911,-0.282 11.271,-0.227 22.545,-0.577 33.819,-0.885 11.273,-0.334 22.547,-0.562 33.822,-0.76 0.326,-0.015 0.639,0.052 0.873,0.235 0.24,0.167 0.341,0.415 0.318,0.61 l -0.07,1.337 z"
       id="path9"
       inkscape:connector-curvature="0"
       style="fill:#231f20" /><g
       id="g11"
       style="opacity:0.2"><polygon
         points="51.829,129.8 47.774,285.275 43.718,129.8 "
         id="polygon13"
         style="fill:#ffffff" /></g><ellipse
       cx="68.005997"
       cy="189.884"
       rx="7.0440001"
       ry="5.211"
       id="ellipse15"
       d="m 75.049997,189.884 c 0,2.87796 -3.153706,5.211 -7.044,5.211 -3.890294,0 -7.044,-2.33304 -7.044,-5.211 0,-2.87795 3.153706,-5.211 7.044,-5.211 3.890294,0 7.044,2.33305 7.044,5.211 z"
       sodipodi:cx="68.005997"
       sodipodi:cy="189.884"
       sodipodi:rx="7.0440001"
       sodipodi:ry="5.211"
       style="fill:#ffffff" /><ellipse
       cx="78.046997"
       cy="213.5"
       rx="2.9960001"
       ry="2.217"
       id="ellipse17"
       d="m 81.042997,213.5 c 0,1.22442 -1.341355,2.217 -2.996,2.217 -1.654645,0 -2.996,-0.99258 -2.996,-2.217 0,-1.22442 1.341355,-2.217 2.996,-2.217 1.654645,0 2.996,0.99258 2.996,2.217 z"
       sodipodi:cx="78.046997"
       sodipodi:cy="213.5"
       sodipodi:rx="2.9960001"
       sodipodi:ry="2.217"
       style="fill:#ffffff" /><ellipse
       cx="60.962002"
       cy="235.56599"
       rx="2.997"
       ry="2.217"
       id="ellipse19"
       d="m 63.959002,235.56599 c 0,1.22442 -1.341803,2.217 -2.997,2.217 -1.655198,0 -2.997,-0.99258 -2.997,-2.217 0,-1.22441 1.341802,-2.217 2.997,-2.217 1.655197,0 2.997,0.99259 2.997,2.217 z"
       sodipodi:cx="60.962002"
       sodipodi:cy="235.56599"
       sodipodi:rx="2.997"
       sodipodi:ry="2.217"
       style="fill:#ffffff" /><ellipse
       cx="95.581001"
       cy="180.76801"
       rx="3.934"
       ry="2.9100001"
       id="ellipse21"
       d="m 99.515001,180.76801 c 0,1.60714 -1.761312,2.91 -3.934,2.91 -2.172688,0 -3.934,-1.30286 -3.934,-2.91 0,-1.60715 1.761312,-2.91 3.934,-2.91 2.172688,0 3.934,1.30285 3.934,2.91 z"
       sodipodi:cx="95.581001"
       sodipodi:cy="180.76801"
       sodipodi:rx="3.934"
       sodipodi:ry="2.9100001"
       style="fill:#ffffff" /><ellipse
       cx="91.646004"
       cy="273.38101"
       rx="3.9349999"
       ry="2.9100001"
       id="ellipse23"
       d="m 95.581004,273.38101 c 0,1.60715 -1.76176,2.91 -3.935,2.91 -2.173241,0 -3.935,-1.30285 -3.935,-2.91 0,-1.60715 1.761759,-2.91 3.935,-2.91 2.17324,0 3.935,1.30285 3.935,2.91 z"
       sodipodi:cx="91.646004"
       sodipodi:cy="273.38101"
       sodipodi:rx="3.9349999"
       sodipodi:ry="2.9100001"
       style="fill:#ffffff" /></g><g
     id="g25"
     transform="matrix(1.3861747,0,0,2.1132233,0.11701064,-219.86116)"><path
       d="m 131.289,83.292 c -0.287,-1.004 -1.078,-1.725 -2,-2.031 -0.346,-0.474 -0.863,-0.857 -1.588,-1.061 -0.881,-1.073 -2.135,-1.261 -3.209,-0.874 -0.254,-0.066 -0.508,-0.13 -0.762,-0.191 0.752,-6.527 0.569,-13.188 -2.744,-19.059 -1.289,-2.283 -4.371,-1.699 -5.355,0.419 -3.979,-3.895 -9.316,0.709 -11.855,3.974 -0.469,0.602 -0.694,1.242 -0.743,1.862 C 101.53,65.006 99.84,64.305 97.526,63.803 92.737,62.765 87.44,63.256 83.485,65.976 82.682,62.665 80.797,59.733 78.018,57.469 77.614,57.139 77.135,56.933 76.635,56.832 76.418,56.414 76.215,55.993 75.987,55.577 75.375,54.462 74.465,54.026 73.561,54.055 69.405,47.721 63.967,42.685 56.099,45.199 56,45.23 55.914,45.27 55.822,45.308 46.551,43.45 34.25,46.31 30.769,54.664 c -4.121,3.605 -6.738,8.705 -4.766,14.225 0.201,0.564 0.535,1.026 0.941,1.381 0.047,0.167 0.1,0.333 0.152,0.5 -0.705,3.627 -0.619,8.374 0.604,12.023 -0.107,0.176 -0.215,0.352 -0.324,0.525 -2.025,-0.197 -4.295,0.646 -5.994,1.681 -0.725,0.44 -1.148,1.088 -1.328,1.785 -3.604,3.15 -3.689,8.914 0.221,12.927 0.031,0.032 0.064,0.057 0.098,0.088 -1.008,1.124 -2.031,2.234 -3.078,3.322 -1.902,1.979 -3.77,3.955 -5.494,6.021 -0.857,-0.162 -1.779,0.05 -2.525,0.827 -1.779,1.854 -2.77,4.089 -3.25,6.479 -0.422,1.237 -0.76,2.512 -1.021,3.844 -0.15,0.763 -0.057,1.422 0.188,1.969 -0.074,0.164 -0.137,0.34 -0.188,0.531 -0.906,3.378 0.275,6.046 2.334,8.235 -0.656,0.848 -0.838,1.982 -0.033,3.077 0.916,1.243 4.141,3.389 5.953,5.302 -0.361,0.339 -0.631,0.799 -0.754,1.386 -0.65,3.109 -0.533,5.664 0.312,7.906 -1.266,4.126 -0.334,9.128 4.318,10.408 1.293,0.355 2.574,0.059 3.809,-0.31 0.322,-0.096 0.619,-0.155 0.9,-0.186 1.613,1.968 2.803,4.174 3.877,6.462 -0.381,2.597 0.672,5.797 2.588,8.151 -1.176,7.754 11.59,9.213 12.088,16.367 0.078,1.136 0.816,2.141 1.766,2.666 1.623,3.562 3.898,6.743 7.273,8.497 0.49,0.781 1.336,1.337 2.461,1.337 h 2 c 1.627,0 2.67,-1.294 2.9,-2.674 0.955,-0.234 1.771,-0.884 1.992,-2.027 0.438,-2.273 0.596,-4.482 0.607,-6.798 0.002,-0.492 -0.117,-0.922 -0.309,-1.299 -0.178,-8.426 -1.186,-17.539 1.674,-25.135 0.342,-0.389 0.523,-0.87 0.57,-1.384 0.527,-1.164 1.156,-2.286 1.908,-3.358 0.129,-0.176 0.254,-0.356 0.387,-0.529 0.061,-0.081 0.125,-0.162 0.188,-0.243 0.383,-0.486 0.779,-0.965 1.203,-1.43 0.064,-0.072 0.107,-0.147 0.164,-0.221 1.77,-1.488 5.143,-2.225 7.229,-3.257 2.152,-1.065 4.031,-2.857 5.85,-4.401 6.932,-5.884 11.973,-12.554 14.369,-21.375 0.701,-2.586 1.174,-5.243 2.576,-7.563 1.947,-3.225 6.943,-4.218 10.289,-4.97 6.998,-1.577 13.926,-2.064 19.008,-7.02 0.143,-0.062 0.279,-0.132 0.408,-0.224 1.162,-0.831 1.641,-1.553 1.865,-2.73 1.215,-0.381 2.121,-1.552 2.121,-2.86 0,-0.334 -0.068,-0.649 -0.17,-0.948 0.686,-1.308 1.211,-2.762 1.571,-4.302 1.933,-4.183 2.455,-8.909 0.992,-14.05 z"
       id="path27"
       inkscape:connector-curvature="0"
       style="fill:#f6eb6c" /><g
       id="g29"><path
         d="m 113.896,90.591 c -0.189,-0.053 -0.199,-0.889 0.215,-2.389 0.422,-1.491 1.252,-3.655 2.949,-6.138 0.858,-1.233 1.932,-2.554 3.44,-3.768 0.758,-0.6 1.633,-1.178 2.697,-1.6 1.055,-0.421 2.35,-0.676 3.709,-0.461 1.356,0.199 2.657,0.885 3.657,1.775 1.015,0.892 1.793,1.954 2.453,3.065 0.629,1.061 1.248,2.401 1.578,3.742 0.353,1.339 0.537,2.704 0.621,4.086 0.162,2.763 -0.07,5.6 -0.6,8.495 -0.539,2.892 -1.369,5.851 -2.674,8.818 -0.662,1.481 -1.437,2.969 -2.463,4.424 -0.513,0.727 -1.094,1.444 -1.779,2.133 -0.348,0.344 -0.723,0.679 -1.133,1 l -0.404,0.293 -0.467,0.312 c -0.148,0.123 -0.326,0.176 -0.51,0.221 l -0.539,0.154 -9.502,2.699 -4.929,1.388 -2.508,0.703 -0.694,0.195 c -0.414,0.084 -0.816,0.308 -1.248,0.206 l -0.916,-0.066 -0.59,-0.026 c -1.576,-0.055 -2.91,0.104 -3.703,0.58 -0.425,0.238 -0.845,0.592 -1.306,1.113 -0.228,0.258 -0.459,0.551 -0.69,0.867 -0.113,0.156 -0.228,0.299 -0.297,0.421 -0.07,0.114 -0.148,0.239 -0.23,0.396 -0.648,1.178 -1.096,2.73 -1.439,4.414 -0.344,1.692 -0.588,3.523 -0.922,5.471 -0.361,1.937 -0.717,4.062 -1.844,6.31 -1.023,2.037 -2.408,3.872 -4,5.437 -3.203,3.141 -6.955,5.106 -10.424,6.794 l -2.561,1.225 -1.229,0.598 c -0.228,0.113 -0.357,0.177 -0.494,0.254 -0.142,0.079 -0.285,0.165 -0.431,0.261 -1.174,0.762 -2.345,1.92 -3.391,3.173 -2.098,2.539 -3.797,5.505 -5.09,8.514 -1.287,3.017 -2.176,6.133 -2.492,9.135 -0.168,1.232 -0.016,2.957 0.053,4.548 l 0.264,4.89 c 0.129,3.267 0.146,6.522 -0.354,9.771 -0.256,1.622 -0.646,3.25 -1.322,4.835 -0.664,1.576 -1.674,3.133 -3.076,4.32 -0.344,0.293 -0.734,0.572 -1.064,0.781 -0.295,0.193 -0.619,0.407 -0.977,0.609 -0.695,0.402 -1.438,0.756 -2.232,1.027 -1.57,0.555 -3.449,0.713 -5.137,0.223 -1.693,-0.473 -3.037,-1.465 -4.045,-2.502 -1.018,-1.049 -1.76,-2.172 -2.375,-3.279 -1.215,-2.223 -1.938,-4.4 -2.488,-6.439 -1.07,-4.089 -1.41,-7.663 -1.502,-10.583 -0.078,-2.921 0.148,-5.196 0.477,-6.715 0.328,-1.526 0.76,-2.265 0.953,-2.209 0.205,0.056 0.182,0.842 0.252,2.314 0.066,1.471 0.219,3.642 0.645,6.405 0.434,2.753 1.102,6.129 2.381,9.804 0.648,1.823 1.457,3.736 2.568,5.481 1.088,1.729 2.611,3.303 4.203,3.619 0.787,0.17 1.627,0.079 2.555,-0.292 0.459,-0.185 0.932,-0.434 1.402,-0.737 0.23,-0.145 0.473,-0.319 0.746,-0.518 0.244,-0.17 0.408,-0.305 0.588,-0.471 1.41,-1.286 2.215,-3.676 2.523,-6.365 0.318,-2.701 0.229,-5.68 0.012,-8.788 l -0.393,-4.81 c -0.066,-0.829 -0.133,-1.672 -0.18,-2.547 -0.023,-0.448 -0.043,-0.862 -0.051,-1.366 -0.012,-0.562 0.039,-1.063 0.068,-1.511 0.312,-3.719 1.291,-7.34 2.711,-10.838 1.439,-3.492 3.295,-6.887 5.838,-10.041 1.291,-1.568 2.732,-3.094 4.676,-4.4 0.242,-0.162 0.498,-0.319 0.764,-0.47 0.271,-0.154 0.56,-0.301 0.75,-0.397 l 1.299,-0.644 2.541,-1.233 c 3.317,-1.623 6.455,-3.358 8.826,-5.7 1.182,-1.162 2.149,-2.462 2.856,-3.856 0.633,-1.19 0.996,-2.877 1.318,-4.651 0.318,-1.786 0.58,-3.685 0.996,-5.648 0.426,-1.958 0.973,-4.022 2.107,-6.062 0.137,-0.247 0.297,-0.513 0.475,-0.783 0.172,-0.268 0.344,-0.484 0.5,-0.695 0.314,-0.415 0.652,-0.835 1.033,-1.253 0.75,-0.832 1.711,-1.687 2.875,-2.311 1.16,-0.633 2.424,-0.96 3.549,-1.104 1.139,-0.148 2.176,-0.141 3.164,-0.098 l 0.729,0.045 0.359,0.028 c 0.053,0.004 0.025,0.003 0.041,0.005 0.012,0.004 0.021,0.001 0.033,0.001 l 0.57,-0.148 2.521,-0.657 4.957,-1.284 9.524,-2.443 c 0.023,-0.006 0.051,-0.002 0.07,-0.016 l 0.031,-0.014 c -0.002,0.002 0.006,-0.002 0.078,-0.053 0.221,-0.161 0.443,-0.346 0.662,-0.549 0.438,-0.413 0.865,-0.894 1.262,-1.421 0.799,-1.053 1.49,-2.259 2.094,-3.492 1.205,-2.483 2.064,-5.108 2.656,-7.662 0.586,-2.558 0.906,-5.074 0.893,-7.41 -0.006,-1.166 -0.102,-2.287 -0.307,-3.311 -0.195,-1.033 -0.525,-1.878 -0.998,-2.833 -0.898,-1.811 -2.1,-3.101 -3.375,-3.377 -1.281,-0.343 -2.842,0.239 -4.117,1.076 -1.295,0.842 -2.381,1.89 -3.283,2.895 -1.805,2.031 -2.926,3.9 -3.672,5.164 -0.734,1.273 -1.111,1.981 -1.32,1.921 z"
         id="path31"
         inkscape:connector-curvature="0"
         style="fill:#231f20" /></g><g
       id="g33"><path
         d="m 39.396,183.591 c -0.068,0.4 -0.721,0.712 -1.9,0.776 -1.172,0.06 -2.879,-0.146 -4.857,-0.906 -1.971,-0.755 -4.203,-2.079 -6.229,-4.085 -2.021,-1.995 -3.834,-4.678 -4.891,-7.866 -1.061,-3.18 -1.205,-6.536 -0.553,-9.414 0.631,-2.894 2.008,-5.237 3.432,-6.839 1.432,-1.616 2.881,-2.547 3.953,-3.016 1.084,-0.462 1.805,-0.476 2.045,-0.15 0.533,0.697 -1.066,2.537 -2.488,5.55 -0.701,1.507 -1.307,3.32 -1.49,5.369 -0.195,2.042 0.039,4.322 0.799,6.614 0.76,2.291 1.953,4.345 3.285,6.035 1.336,1.698 2.809,3.034 4.154,4.071 2.701,2.061 4.885,3.004 4.74,3.861 z"
         id="path35"
         inkscape:connector-curvature="0"
         style="fill:#231f20" /></g><g
       id="g37"><path
         d="m 12.871,142.886 c 0.711,0.422 0.969,1.544 1.402,3.298 0.418,1.737 0.936,4.172 1.828,6.417 0.445,1.115 0.941,2.021 1.432,2.682 0.49,0.665 0.988,1.132 1.592,1.527 1.209,0.778 2.641,1.112 2.826,1.936 0.098,0.396 -0.105,0.87 -0.68,1.325 -0.572,0.439 -1.545,0.881 -2.928,0.909 -1.365,0.041 -3.141,-0.489 -4.582,-1.656 -1.457,-1.147 -2.543,-2.769 -3.23,-4.492 -1.354,-3.473 -1.176,-6.713 -0.49,-8.952 0.354,-1.122 0.863,-2.001 1.398,-2.524 0.54,-0.531 1.073,-0.662 1.432,-0.47 z"
         id="path39"
         inkscape:connector-curvature="0"
         style="fill:#231f20" /></g><g
       id="g41"><path
         d="m 31.396,105.591 c -0.32,0.293 -1.273,-0.31 -2.883,-1.095 -1.6,-0.775 -3.949,-1.61 -6.748,-1.108 -2.787,0.455 -5.988,2.279 -8.826,5.201 -2.822,2.897 -5.391,6.862 -6.641,11.252 -0.619,2.166 -0.812,4.384 -0.52,6.182 0.365,1.93 1.186,3.892 2.203,5.571 2.057,3.411 4.9,5.925 7.541,7.501 2.658,1.6 5.137,2.275 6.908,2.622 1.777,0.345 2.879,0.45 2.965,0.875 0.084,0.381 -0.891,1.078 -2.959,1.461 -2.045,0.375 -5.23,0.284 -8.768,-1.142 -3.514,-1.406 -7.363,-4.088 -10.312,-8.288 -1.463,-2.111 -2.688,-4.546 -3.344,-7.458 -0.604,-3.072 -0.287,-6.079 0.506,-8.943 1.652,-5.708 4.902,-10.285 8.613,-13.642 3.707,-3.341 8.205,-5.414 12.314,-5.421 2.035,-0.025 3.871,0.458 5.289,1.151 1.428,0.691 2.459,1.553 3.184,2.323 1.437,1.566 1.768,2.703 1.478,2.958 z"
         id="path43"
         inkscape:connector-curvature="0"
         style="fill:#231f20" /></g><g
       id="g45"><path
         d="m 27.896,84.091 c -0.219,0.361 -0.752,0.477 -1.482,0.517 -0.727,0.039 -1.67,0.003 -2.59,0.167 -0.934,0.16 -1.736,0.521 -2.469,1.186 -0.736,0.662 -1.469,1.727 -2.016,3.08 -0.543,1.352 -0.842,2.801 -0.934,4.085 -0.094,1.293 0.021,2.411 0.234,3.3 0.207,0.898 0.545,1.599 0.852,2.193 0.303,0.591 0.543,1.075 0.404,1.472 -0.131,0.379 -0.658,0.657 -1.59,0.54 -0.91,-0.108 -2.24,-0.734 -3.314,-2.042 -2.209,-2.614 -3.002,-7.327 -1.215,-11.796 0.896,-2.227 2.453,-4.256 4.531,-5.445 1.027,-0.591 2.154,-0.944 3.209,-1.042 1.055,-0.113 2.018,0.026 2.816,0.257 1.604,0.482 2.572,1.295 3.113,1.951 0.543,0.669 0.66,1.232 0.451,1.577 z"
         id="path47"
         inkscape:connector-curvature="0"
         style="fill:#231f20" /></g><g
       id="g49"><path
         d="m 84.896,73.091 c -0.426,0.062 -0.97,-1.455 -2,-4.044 -1.041,-2.573 -2.633,-6.256 -5.498,-10.115 -2.842,-3.837 -7.062,-7.843 -12.693,-10.373 -5.584,-2.56 -12.566,-3.417 -19.412,-1.564 -1.709,0.45 -3.365,1.047 -4.951,1.754 -0.793,0.355 -1.568,0.739 -2.326,1.145 -0.744,0.399 -1.537,0.855 -2.158,1.261 -2.641,1.768 -4.779,4.088 -6.201,6.644 -1.439,2.562 -2.229,5.363 -2.594,8.081 -0.363,2.724 -0.326,5.364 -0.115,7.773 0.439,4.837 1.502,8.751 2.207,11.467 0.727,2.718 1.123,4.281 0.742,4.472 -0.357,0.181 -1.469,-1.035 -2.904,-3.593 -1.41,-2.559 -3.186,-6.474 -4.242,-11.737 -0.518,-2.628 -0.836,-5.603 -0.641,-8.852 0.199,-3.235 0.945,-6.783 2.66,-10.192 1.705,-3.416 4.385,-6.55 7.795,-8.93 0.902,-0.615 1.709,-1.092 2.598,-1.592 0.877,-0.49 1.783,-0.953 2.713,-1.38 1.863,-0.856 3.832,-1.58 5.883,-2.12 4.102,-1.092 8.332,-1.384 12.326,-0.922 3.998,0.453 7.744,1.645 11.012,3.303 6.583,3.326 11.124,8.379 13.844,13.019 2.75,4.681 3.824,8.95 4.217,11.865 0.375,2.937 0.131,4.577 -0.262,4.63 z"
         id="path51"
         inkscape:connector-curvature="0"
         style="fill:#231f20" /></g><g
       id="g53"><path
         d="m 103.896,74.091 c -0.854,0.004 -1.486,-1.588 -2.603,-3.492 -1.099,-1.908 -2.881,-4.019 -5.424,-4.832 -2.524,-0.866 -5.213,-0.227 -7.265,0.641 -2.057,0.858 -3.545,1.715 -4.211,1.184 -0.623,-0.472 -0.352,-2.355 1.697,-4.602 1.029,-1.091 2.557,-2.233 4.604,-2.914 2.023,-0.686 4.599,-0.832 7.06,-0.005 2.468,0.805 4.443,2.452 5.662,4.214 1.24,1.77 1.783,3.61 1.944,5.112 0.283,3.051 -0.686,4.713 -1.464,4.694 z"
         id="path55"
         inkscape:connector-curvature="0"
         style="fill:#231f20" /></g><g
       id="g57"><path
         d="m 122.396,77.091 c -0.845,-0.118 -1.144,-2.48 -1.42,-5.958 -0.158,-1.724 -0.33,-3.763 -0.834,-5.69 -0.252,-0.955 -0.603,-1.863 -1.052,-2.549 -0.454,-0.694 -0.946,-1.131 -1.623,-1.445 -0.338,-0.159 -0.735,-0.275 -1.17,-0.358 -0.229,-0.039 -0.34,-0.052 -0.521,-0.059 -0.176,-0.008 -0.37,-10e-4 -0.573,0.018 -0.815,0.071 -1.761,0.366 -2.642,0.753 -1.787,0.783 -3.35,1.904 -4.551,2.925 -1.205,1.034 -2.059,1.995 -2.668,2.705 -0.619,0.703 -1.023,1.194 -1.449,1.159 -0.396,-0.026 -0.791,-0.68 -0.766,-1.901 0.02,-1.211 0.51,-2.907 1.613,-4.667 1.113,-1.749 2.777,-3.607 5.215,-5.097 1.225,-0.731 2.648,-1.395 4.414,-1.695 0.439,-0.074 0.902,-0.122 1.387,-0.129 0.484,-0.014 1.043,0.029 1.475,0.093 0.894,0.137 1.822,0.378 2.738,0.801 1.854,0.821 3.367,2.376 4.199,3.938 0.859,1.573 1.223,3.115 1.406,4.505 0.338,2.794 0.014,5.103 -0.369,6.982 -0.832,3.74 -2.016,5.782 -2.809,5.669 z"
         id="path59"
         inkscape:connector-curvature="0"
         style="fill:#231f20" /></g><g
       id="g61"
       style="opacity:0.2"><path
         d="m 36.396,78.091 c 0.006,-10e-4 -0.025,-0.491 -0.188,-1.396 -0.15,-0.904 -0.428,-2.227 -0.65,-3.898 -0.221,-1.668 -0.4,-3.688 -0.24,-5.937 0.156,-2.244 0.635,-4.73 1.771,-7.221 1.125,-2.471 2.873,-4.744 5.139,-6.157 1.121,-0.705 2.35,-1.167 3.514,-1.35 1.166,-0.185 2.248,-0.112 3.154,0.088 1.824,0.408 2.996,1.175 3.789,1.639 0.783,0.494 1.205,0.738 1.211,0.73 0.002,0.001 -0.459,-0.208 -1.355,-0.327 -0.881,-0.119 -2.23,-0.142 -3.615,0.289 -0.688,0.217 -1.363,0.546 -1.967,0.993 -0.607,0.444 -1.148,0.995 -1.65,1.643 -0.998,1.295 -1.873,2.996 -2.764,4.948 -0.885,1.953 -1.717,3.947 -2.518,5.813 -0.793,1.869 -1.551,3.615 -2.143,5.119 -0.592,1.504 -1.027,2.763 -1.246,3.644 -0.228,0.883 -0.245,1.381 -0.242,1.38 z"
         id="path63"
         inkscape:connector-curvature="0"
         style="fill:#ffffff" /></g><g
       id="g65"
       style="opacity:0.2"><path
         d="m 17.896,130.591 c 0,0 -0.072,-0.058 -0.227,-0.146 l -0.699,-0.39 c -0.299,-0.185 -0.701,-0.398 -1.117,-0.724 -0.418,-0.322 -0.914,-0.711 -1.383,-1.227 -0.945,-1.018 -1.895,-2.49 -2.422,-4.289 -0.537,-1.791 -0.668,-3.887 -0.197,-5.975 0.461,-2.088 1.471,-3.948 2.744,-5.346 1.27,-1.406 2.793,-2.32 4.109,-2.79 0.656,-0.246 1.279,-0.361 1.799,-0.451 0.521,-0.094 0.975,-0.099 1.324,-0.119 0.354,-0.017 0.623,-0.011 0.801,-0.021 0.178,-0.007 0.268,-0.024 0.268,-0.024 0,0 -0.375,0.069 -0.938,0.453 -0.285,0.177 -0.598,0.457 -0.922,0.788 -0.328,0.328 -0.635,0.767 -0.93,1.236 -0.59,0.953 -1.029,2.154 -1.398,3.436 -0.367,1.29 -0.674,2.678 -1,4.137 -0.318,1.459 -0.625,2.862 -0.852,4.201 -0.225,1.336 -0.359,2.622 -0.275,3.75 0.049,0.558 0.115,1.089 0.25,1.534 0.133,0.445 0.281,0.836 0.445,1.128 0.32,0.604 0.624,0.841 0.62,0.839 z"
         id="path67"
         inkscape:connector-curvature="0"
         style="fill:#ffffff" /></g><g
       id="g69"
       style="opacity:0.2"><path
         d="m 36.396,164.091 c 0.006,-0.002 -0.043,-0.104 -0.279,-0.259 -0.107,-0.08 -0.25,-0.178 -0.443,-0.292 -0.178,-0.116 -0.455,-0.241 -0.666,-0.409 -0.217,-0.165 -0.516,-0.35 -0.725,-0.581 -0.211,-0.229 -0.496,-0.486 -0.666,-0.782 -0.389,-0.586 -0.584,-1.316 -0.492,-2.02 0.092,-0.709 0.455,-1.301 0.943,-1.739 l 2.133,-1.911 0.195,0.093 c 0.244,0.117 0.494,0.314 0.783,0.502 0.275,0.206 0.654,0.397 1.023,0.872 0.18,0.226 0.311,0.504 0.35,0.726 0.043,0.224 0.021,0.388 -0.012,0.511 -0.096,0.25 -0.225,0.381 -0.314,0.509 -0.383,0.487 -0.348,0.799 -0.33,0.781 0.025,-0.02 -0.203,-0.147 -0.791,-0.498 -0.145,-0.08 -0.32,-0.182 -0.494,-0.179 -0.018,0.001 -0.035,0.001 -0.053,0.007 -0.025,0.011 0.01,-0.002 0.057,-0.019 l 0.119,-0.05 c 0.113,-0.045 0.203,-0.091 0.254,-0.123 0.104,-0.062 0.094,-0.082 0.051,-0.02 -0.043,0.061 -0.123,0.207 -0.203,0.468 -0.037,0.123 -0.08,0.281 -0.117,0.463 l -0.076,0.408 c -0.037,0.144 -0.133,0.327 -0.246,0.444 l 2.328,-1.818 c 0.256,0.494 0.398,0.938 0.352,1.33 -0.046,0.392 -0.285,0.718 -0.639,1.088 -0.15,0.182 -0.398,0.379 -0.568,0.573 -0.16,0.194 -0.406,0.4 -0.562,0.593 -0.152,0.19 -0.369,0.386 -0.49,0.552 -0.131,0.167 -0.227,0.312 -0.287,0.428 -0.144,0.237 -0.142,0.354 -0.135,0.352 z"
         id="path71"
         inkscape:connector-curvature="0"
         style="fill:#ffffff" /></g><g
       id="g73"
       style="opacity:0.2"><path
         d="m 91.396,75.091 c -0.004,-0.007 -0.01,0.038 0.11,0.193 0.054,0.068 0.134,0.163 0.271,0.256 0.113,0.077 0.045,0.03 0.018,0.018 l -0.078,-0.04 c -0.064,-0.023 -0.09,-0.034 -0.133,-0.035 -0.014,-0.003 -0.021,0.003 0.008,-0.008 0.057,-0.016 0.223,-0.137 0.357,-0.369 0.141,-0.226 0.232,-0.505 0.303,-0.757 0.021,-0.075 0.08,-0.413 0.025,-0.064 -0.027,0.18 -0.045,0.454 -0.039,0.638 0.004,0.18 0.008,0.435 0.027,0.584 0.02,0.164 0.041,0.285 0.061,0.371 0.041,0.195 0.07,0.22 0.07,0.213 -0.002,-0.007 -0.025,0.018 -0.082,0.208 l -0.115,0.365 c -0.049,0.148 -0.121,0.392 -0.205,0.563 -0.08,0.178 -0.193,0.439 -0.318,0.601 -0.123,0.169 -0.285,0.402 -0.463,0.521 -0.172,0.148 -0.383,0.235 -0.6,0.263 -0.227,0.021 -0.453,-0.015 -0.709,-0.171 -0.234,-0.141 -0.484,-0.397 -0.656,-0.734 -0.184,-0.34 -0.305,-0.789 -0.275,-1.234 -0.006,-0.458 0.223,-0.872 0.43,-1.148 0.207,-0.268 0.533,-0.408 0.761,-0.452 0.224,-0.073 0.485,-0.01 0.646,0.02 0.172,0.035 0.291,0.085 0.377,0.117 0.182,0.083 0.213,0.088 0.209,0.081 z"
         id="path75"
         inkscape:connector-curvature="0"
         style="fill:#ffffff" /></g><g
       id="g77"
       style="opacity:0.2"><path
         d="m 99.396,76.591 c 0.002,-0.007 -0.025,0.02 -0.035,0.215 -0.002,0.043 -0.004,0.094 0,0.155 -0.002,0.034 0.029,0.198 0.018,0.132 -0.006,-0.043 -0.027,-0.098 -0.035,-0.128 -0.033,-0.084 -0.082,-0.107 -0.043,-0.084 0.037,0.021 0.182,0.042 0.363,-0.005 0.184,-0.044 0.369,-0.136 0.531,-0.228 l 0.219,-0.143 0.047,-0.035 c 0.004,-0.004 0.023,-0.018 0.016,-0.012 l -0.069,0.052 -0.242,0.205 c -0.133,0.119 -0.313,0.294 -0.414,0.407 -0.108,0.121 -0.187,0.215 -0.237,0.286 -0.117,0.155 -0.119,0.188 -0.115,0.184 0.004,-0.004 -0.025,0 -0.189,0.106 l -0.322,0.194 c -0.133,0.077 -0.35,0.207 -0.521,0.281 -0.177,0.078 -0.433,0.195 -0.625,0.231 -0.199,0.046 -0.47,0.11 -0.671,0.083 -0.217,-0.002 -0.422,-0.075 -0.586,-0.192 -0.168,-0.129 -0.295,-0.296 -0.36,-0.568 -0.062,-0.247 -0.058,-0.586 0.062,-0.927 0.108,-0.354 0.338,-0.738 0.668,-1.018 0.311,-0.312 0.756,-0.43 1.086,-0.469 0.326,-0.034 0.643,0.106 0.821,0.239 0.197,0.113 0.328,0.343 0.41,0.48 0.086,0.149 0.127,0.27 0.158,0.354 0.054,0.187 0.064,0.212 0.065,0.205 z"
         id="path79"
         inkscape:connector-curvature="0"
         style="fill:#ffffff" /></g><g
       id="g81"><circle
         cx="95.324997"
         cy="33.313999"
         r="11.224"
         id="circle83"
         d="m 106.549,33.313999 c 0,6.198844 -5.02516,11.224 -11.224003,11.224 -6.198844,0 -11.224,-5.025156 -11.224,-11.224 0,-6.198844 5.025156,-11.224 11.224,-11.224 6.198843,0 11.224003,5.025156 11.224003,11.224 z"
         sodipodi:cx="95.324997"
         sodipodi:cy="33.313999"
         sodipodi:rx="11.224"
         sodipodi:ry="11.224"
         style="fill:#f6eb6c" /><path
         d="m 108.297,33.358 c -0.078,1.598 -0.492,3.345 -1.207,4.83 -0.721,1.508 -1.744,2.845 -2.963,3.929 -2.432,2.179 -5.604,3.39 -8.803,3.421 -3.201,0.073 -6.434,-1.169 -8.83,-3.394 -2.42,-2.213 -3.998,-5.381 -4.143,-8.874 -0.183,-3.302 1.053,-6.908 3.457,-9.472 1.205,-1.281 2.666,-2.351 4.301,-3.071 0.817,-0.357 1.674,-0.635 2.551,-0.824 0.438,-0.094 0.879,-0.167 1.324,-0.222 l 0.67,-0.062 0.734,-0.028 0.551,0.011 0.723,0.049 c 0.457,0.046 0.895,0.108 1.34,0.193 0.883,0.176 1.742,0.46 2.566,0.813 1.645,0.723 3.115,1.801 4.301,3.11 2.365,2.632 3.6,6.153 3.43,9.545 l -0.002,0.046 z m -3.498,-0.044 c -0.143,-2.494 -1.33,-4.814 -3.146,-6.327 -0.893,-0.769 -1.909,-1.357 -2.979,-1.759 -0.533,-0.209 -1.088,-0.353 -1.646,-0.462 -0.274,-0.056 -0.565,-0.099 -0.84,-0.129 l -0.375,-0.032 -0.551,-0.016 c -2.168,-0.064 -4.561,0.791 -6.293,2.369 -1.775,1.581 -2.963,3.815 -3.119,6.4 -0.172,2.395 0.674,5.068 2.435,6.998 0.883,0.96 1.957,1.769 3.168,2.311 1.213,0.54 2.526,0.835 3.873,0.871 2.688,0.06 5.356,-1.152 7.069,-3.153 0.859,-0.994 1.502,-2.146 1.906,-3.354 0.414,-1.229 0.576,-2.42 0.498,-3.761 v 0.044 l 0,0 z"
         id="path85"
         inkscape:connector-curvature="0"
         style="fill:#020202" /></g><g
       id="g87"><circle
         cx="73.912003"
         cy="9.5909996"
         r="5.5"
         id="circle89"
         d="m 79.412003,9.5909996 c 0,3.0375664 -2.462434,5.5000004 -5.5,5.5000004 -3.037567,0 -5.5,-2.462434 -5.5,-5.5000004 0,-3.0375661 2.462433,-5.5 5.5,-5.5 3.037566,0 5.5,2.4624339 5.5,5.5 z"
         sodipodi:cx="73.912003"
         sodipodi:cy="9.5909996"
         sodipodi:rx="5.5"
         sodipodi:ry="5.5"
         style="fill:#f6eb6c" /><path
         d="m 81.674,9.648 0.016,0.271 -0.006,0.43 c -0.014,0.266 -0.031,0.514 -0.069,0.771 -0.074,0.51 -0.197,1.018 -0.388,1.501 -0.381,0.969 -1.016,1.824 -1.778,2.505 -1.509,1.391 -3.593,2.077 -5.535,1.908 -1.951,-0.151 -3.754,-1.123 -4.924,-2.521 -1.186,-1.397 -1.758,-3.197 -1.686,-4.923 0.143,-3.5 3.002,-6.506 6.64,-6.755 1.697,-0.163 3.66,0.373 5.127,1.597 1.494,1.202 2.49,3.125 2.605,5.158 L 81.674,9.648 z M 77.148,9.591 C 77.275,8.739 77.085,7.8 76.531,6.971 75.968,6.146 75.068,5.495 73.881,5.346 72.83,5.197 71.563,5.58 70.733,6.412 69.887,7.236 69.417,8.433 69.52,9.591 c 0.061,1.159 0.676,2.222 1.537,2.854 0.861,0.65 1.921,0.866 2.855,0.701 0.941,-0.155 1.719,-0.656 2.242,-1.314 0.254,-0.336 0.436,-0.7 0.607,-1.062 0.086,-0.182 0.172,-0.366 0.235,-0.564 l 0.088,-0.295 0.033,-0.108 0.028,-0.27 v 0.058 h 0.003 z"
         id="path91"
         inkscape:connector-curvature="0"
         style="fill:#020202" /></g><g
       id="g93"><circle
         cx="57.646"
         cy="29.841"
         r="3.75"
         id="circle95"
         d="m 61.396,29.841 c 0,2.071067 -1.678932,3.75 -3.75,3.75 -2.071068,0 -3.75,-1.678933 -3.75,-3.75 0,-2.071068 1.678932,-3.75 3.75,-3.75 2.071068,0 3.75,1.678932 3.75,3.75 z"
         sodipodi:cx="57.646"
         sodipodi:cy="29.841"
         sodipodi:rx="3.75"
         sodipodi:ry="3.75"
         style="fill:#f6eb6c" /><path
         d="m 63.32,29.938 0.006,0.369 c -0.01,0.192 -0.035,0.43 -0.062,0.643 -0.068,0.381 -0.182,0.733 -0.338,1.078 -0.32,0.679 -0.777,1.281 -1.322,1.771 -1.092,0.979 -2.578,1.453 -3.957,1.329 -1.373,-0.108 -2.674,-0.79 -3.512,-1.776 -0.857,-0.978 -1.307,-2.263 -1.266,-3.511 0.029,-2.53 2.125,-4.799 4.777,-4.997 1.291,-0.115 2.721,0.292 3.793,1.203 1.086,0.896 1.805,2.309 1.883,3.794 l -0.002,0.097 z m -3.849,-0.097 c 0.084,-0.481 -0.004,-1.021 -0.314,-1.509 -0.314,-0.484 -0.836,-0.885 -1.51,-0.993 -0.662,-0.117 -1.391,0.095 -1.928,0.575 -0.533,0.493 -0.824,1.201 -0.795,1.927 0.033,0.72 0.391,1.385 0.93,1.793 0.549,0.409 1.199,0.535 1.793,0.42 0.586,-0.117 1.053,-0.449 1.346,-0.867 0.148,-0.205 0.248,-0.436 0.303,-0.663 0.027,-0.111 0.057,-0.231 0.088,-0.328 0.008,-0.031 0.025,-0.035 0.045,-0.085 l 0.045,-0.367 -0.003,0.097 z"
         id="path97"
         inkscape:connector-curvature="0"
         style="fill:#020202" /></g><g
       id="g99"><circle
         cx="138.896"
         cy="68.462997"
         r="3.628"
         id="circle101"
         d="m 142.524,68.462997 c 0,2.00369 -1.62431,3.628 -3.628,3.628 -2.00369,0 -3.628,-1.62431 -3.628,-3.628 0,-2.003689 1.62431,-3.628 3.628,-3.628 2.00369,0 3.628,1.624311 3.628,3.628 z"
         sodipodi:cx="138.896"
         sodipodi:cy="68.462997"
         sodipodi:rx="3.628"
         sodipodi:ry="3.628"
         style="fill:#f6eb6c" /><path
         d="m 143.586,68.517 c -0.205,1.079 -0.48,2.374 -1.289,3.346 -0.781,0.989 -2.008,1.725 -3.398,1.911 -1.373,0.198 -2.948,-0.21 -4.129,-1.183 -0.584,-0.493 -1.088,-1.109 -1.442,-1.819 -0.17,-0.358 -0.312,-0.732 -0.41,-1.122 -0.043,-0.195 -0.084,-0.392 -0.115,-0.59 l -0.03,-0.297 -0.013,-0.15 -0.006,-0.075 -0.004,-0.038 v -0.018 l 0.002,-0.147 0.002,-0.356 c 0.014,-0.209 0.043,-0.477 0.08,-0.711 0.08,-0.414 0.191,-0.794 0.342,-1.175 0.311,-0.752 0.779,-1.434 1.367,-1.984 0.588,-0.549 1.293,-0.967 2.047,-1.214 0.379,-0.118 0.766,-0.204 1.154,-0.242 0.195,-0.013 0.389,-0.024 0.58,-0.028 l 0.684,0.043 0.352,0.087 c 0.193,0.042 0.429,0.098 0.636,0.156 0.364,0.126 0.692,0.281 1.012,0.464 0.627,0.372 1.16,0.859 1.566,1.412 0.819,1.102 1.159,2.454 1.016,3.676 l -0.004,0.054 z m -2.121,-0.054 c -0.141,-0.68 -0.58,-1.215 -1.111,-1.455 -0.266,-0.119 -0.537,-0.17 -0.787,-0.161 -0.123,0.005 -0.252,0.025 -0.35,0.052 -0.029,0.025 -0.027,0.041 -0.07,0.052 l -0.358,0.051 c 0.219,0.006 0.062,0.002 0.106,0.004 h -0.002 l -0.004,0.003 -0.01,0.005 -0.018,0.011 -0.035,0.019 -0.068,0.037 -0.123,0.077 c -0.076,0.06 -0.145,0.11 -0.207,0.168 -0.123,0.117 -0.223,0.237 -0.307,0.359 -0.084,0.123 -0.152,0.245 -0.207,0.371 -0.025,0.059 -0.051,0.135 -0.068,0.185 0.002,0 -0.008,-0.033 -0.025,-0.007 l -0.032,0.355 c 0.006,-0.255 0.002,-0.07 0.004,-0.126 v 0.002 0.003 0.007 l -0.002,0.014 -0.004,0.027 -0.013,0.058 c -0.002,0.039 -0.002,0.075 -0.01,0.114 0,0.076 -0.006,0.157 0.002,0.241 0.006,0.167 0.041,0.356 0.129,0.535 0.16,0.378 0.472,0.75 1.002,0.942 0.515,0.191 1.172,0.146 1.732,-0.214 0.271,-0.183 0.521,-0.425 0.705,-0.722 0.086,-0.149 0.146,-0.32 0.162,-0.487 v -0.217 l -0.031,-0.358 v 0.055 z"
         id="path103"
         inkscape:connector-curvature="0"
         style="fill:#020202" /></g><circle
       enable-background="new    "
       cx="100.154"
       cy="31.716"
       r="1.875"
       id="circle105"
       d="m 102.029,31.716 c 0,1.035534 -0.83947,1.875 -1.875,1.875 -1.035535,0 -1.875001,-0.839466 -1.875001,-1.875 0,-1.035534 0.839466,-1.875 1.875001,-1.875 1.03553,0 1.875,0.839466 1.875,1.875 z"
       sodipodi:cx="100.154"
       sodipodi:cy="31.716"
       sodipodi:rx="1.875"
       sodipodi:ry="1.875"
       style="opacity:0.2;fill:#ffffff" /><circle
       enable-background="new    "
       cx="73.912003"
       cy="7.7160001"
       r="1.875"
       id="circle107"
       d="m 75.787003,7.7160001 c 0,1.0355339 -0.839467,1.875 -1.875,1.875 -1.035534,0 -1.875,-0.8394661 -1.875,-1.875 0,-1.0355339 0.839466,-1.875 1.875,-1.875 1.035533,0 1.875,0.8394661 1.875,1.875 z"
       sodipodi:cx="73.912003"
       sodipodi:cy="7.7160001"
       sodipodi:rx="1.875"
       sodipodi:ry="1.875"
       style="opacity:0.2;fill:#ffffff" /></g></svg>