<?xml version="1.0" encoding="utf-8"?>
<!-- Generator: Adobe Illustrator 16.0.0, SVG Export Plug-In . SVG Version: 6.00 Build 0)  -->
<!DOCTYPE svg PUBLIC "-//W3C//DTD SVG 1.1//EN" "http://www.w3.org/Graphics/SVG/1.1/DTD/svg11.dtd">
<svg version="1.1" id="Layer_1" xmlns="http://www.w3.org/2000/svg" xmlns:xlink="http://www.w3.org/1999/xlink" x="0px" y="0px"
	 width="143.922px" height="749.711px" viewBox="0 0 143.922 394.711" enable-background="new 0 0 143.922 394.711"
	 xml:space="preserve">
<g>
	<path fill="#FFF100" d="M124.431,118.863H25.3c-3.386,0-6.128,2.029-6.128,4.534v6.274c0,2.504,2.743,4.535,6.128,4.535h8.421
		V393.55h82.285V134.206h8.421c3.387,0,6.128-2.031,6.128-4.535v-6.274C130.559,120.892,127.815,118.863,124.431,118.863z"/>
	<rect x="34.754" y="161.93" fill="#FFF100" width="80.594" height="217.082"/>
	<path fill="#231F20" d="M135.636,126.304l-0.071-1.67l-0.04-0.835l-0.021-0.511l-0.018-0.209l-0.05-0.449
		c-0.296-2.028-1.637-3.905-3.635-5.233c-1.997-1.325-4.681-2.111-7.371-2.12c-11.274-0.197-22.548-0.428-33.821-0.762
		c-11.275-0.306-22.549-0.658-33.82-0.885c-5.637-0.133-11.275-0.212-16.912-0.28l-8.457-0.075l-4.227-0.02l-1.056-0.006
		l-0.531-0.002l-0.264-0.002l-0.457,0.006l-0.196,0.006l-0.374,0.016l-0.375,0.024l-0.301,0.025
		c-0.394,0.035-0.782,0.085-1.17,0.144c-0.773,0.119-1.537,0.292-2.271,0.511c-2.952,0.865-5.413,2.508-6.901,4.562
		c-0.748,1.027-1.26,2.151-1.481,3.304c-0.053,0.288-0.098,0.576-0.116,0.863c-0.014,0.146-0.019,0.288-0.021,0.432v0.338
		l0.028,0.783c0.031,1.042,0.097,2.084,0.147,3.125l0.103,1.565l0.056,0.915l0.024,0.229c0.016,0.178,0.036,0.355,0.063,0.534
		c0.05,0.299,0.111,0.563,0.196,0.841c0.634,2.217,2.352,4.214,4.703,5.552c2.329,1.358,5.349,2.06,8.222,1.96l1.096-0.075
		l1.058-0.083c0.352-0.028,0.704-0.063,1.056-0.091c0.52,20.104,0.958,40.209,1.346,60.312l0.599,32.418l0.535,32.418l0.263,16.21
		l0.2,16.207l0.407,32.418l0.258,32.419l0.075,16.209l0.031,16.209l0.002,1.161h1.568h82.286h1.571v-1.161v-0.001
		c0.882-10.807,1.412-21.612,1.967-32.417c0.512-10.807,0.913-21.613,1.223-32.419c0.65-21.61,0.931-43.223,1.011-64.837
		c0.074-21.611-0.048-43.223-0.436-64.834c-0.428-20.649-0.975-41.297-2.104-61.947c0.43,0.066,0.863,0.138,1.294,0.195
		c0.752,0.101,1.506,0.186,2.26,0.261c0.806,0.058,1.297,0.175,2.731,0.151c2.695-0.087,5.366-1.005,7.23-2.494
		c0.941-0.738,1.692-1.618,2.202-2.574c0.504-0.947,0.762-2.01,0.755-2.984C135.702,128.533,135.688,127.417,135.636,126.304z
		 M26.665,123.4l0.005,0.02c0.002,0.013,0,0.027,0.005,0.041c0,0.028,0.003,0.058,0,0.087c-0.003,0.028-0.013,0.056-0.019,0.084
		l0.005-0.159C26.663,123.452,26.663,123.384,26.665,123.4z M25.208,124.486l-0.028-0.002h0.028l0.067-0.002h0.066l-0.022,0.002
		L25.208,124.486z M26.203,129.5l-0.903-0.068C25.446,129.239,25.937,129.216,26.203,129.5z M125.553,124.634l-0.071,1.67
		c-0.053,1.114-0.063,2.229-0.078,3.344c-0.005,0.138-0.011,0.19-0.041,0.286c-0.024,0.086-0.075,0.173-0.143,0.263
		c-0.145,0.173-0.338,0.334-0.644,0.467c-0.067,0.064-1.084,0.121-1.782,0.198c-0.753,0.075-1.508,0.158-2.261,0.259
		c-1.505,0.201-3.014,0.446-4.52,0.802h-0.007l-2.949-0.099l-0.139,2.382c-1.243,21.611-1.801,43.223-2.247,64.834
		c-0.388,21.612-0.509,43.224-0.434,64.834c0.079,21.614,0.358,43.228,1.01,64.837c0.31,10.807,0.71,21.612,1.22,32.419
		c0.536,10.418,1.056,20.836,1.884,31.255H35.297l0.028-15.045l0.074-16.209l0.258-32.419l0.407-32.418l0.2-16.207l0.266-16.21
		l0.534-32.418l0.599-32.418c0.42-21.611,0.881-43.224,1.454-64.834l0.103-3.915l-5.499-0.079h-0.003
		c-1.41-0.174-2.819-0.312-4.229-0.438c-0.704-0.068-1.41-0.13-2.111-0.184l-1.033-0.079l0.011-0.172l0.028-0.392l0.101-1.565
		c0.047-0.968,0.105-1.938,0.137-2.906l0.574-0.004l4.227-0.02l8.457-0.074c5.637-0.07,11.274-0.149,16.911-0.282
		c11.271-0.227,22.545-0.577,33.819-0.885c11.273-0.334,22.547-0.562,33.822-0.76c0.326-0.015,0.639,0.052,0.873,0.235
		c0.24,0.167,0.341,0.415,0.318,0.61L125.553,124.634z"/>
	<g opacity="0.2">
		<polygon fill="#FFFFFF" points="51.829,129.8 47.774,285.275 43.718,129.8 		"/>
	</g>
	<ellipse fill="#FFFFFF" cx="68.006" cy="189.884" rx="7.044" ry="5.211"/>
	<ellipse fill="#FFFFFF" cx="78.047" cy="213.5" rx="2.996" ry="2.217"/>
	<ellipse fill="#FFFFFF" cx="60.962" cy="235.566" rx="2.997" ry="2.217"/>
	<ellipse fill="#FFFFFF" cx="95.581" cy="180.768" rx="3.934" ry="2.91"/>
	<ellipse fill="#FFFFFF" cx="91.646" cy="273.381" rx="3.935" ry="2.91"/>
</g>
<g>
	<path fill="#F6EB6C" d="M131.289,83.292c-0.287-1.004-1.078-1.725-2-2.031c-0.346-0.474-0.863-0.857-1.588-1.061
		c-0.881-1.073-2.135-1.261-3.209-0.874c-0.254-0.066-0.508-0.13-0.762-0.191c0.752-6.527,0.569-13.188-2.744-19.059
		c-1.289-2.283-4.371-1.699-5.355,0.419c-3.979-3.895-9.316,0.709-11.855,3.974c-0.469,0.602-0.694,1.242-0.743,1.862
		c-1.503-1.325-3.193-2.026-5.507-2.528c-4.789-1.038-10.086-0.547-14.041,2.173c-0.803-3.311-2.688-6.243-5.467-8.507
		c-0.404-0.33-0.883-0.536-1.383-0.637c-0.217-0.418-0.42-0.839-0.648-1.255c-0.612-1.115-1.522-1.551-2.426-1.522
		c-4.156-6.334-9.594-11.37-17.462-8.856C56,45.23,55.914,45.27,55.822,45.308c-9.271-1.858-21.572,1.002-25.053,9.356
		c-4.121,3.605-6.738,8.705-4.766,14.225c0.201,0.564,0.535,1.026,0.941,1.381c0.047,0.167,0.1,0.333,0.152,0.5
		c-0.705,3.627-0.619,8.374,0.604,12.023c-0.107,0.176-0.215,0.352-0.324,0.525c-2.025-0.197-4.295,0.646-5.994,1.681
		c-0.725,0.44-1.148,1.088-1.328,1.785c-3.604,3.15-3.689,8.914,0.221,12.927c0.031,0.032,0.064,0.057,0.098,0.088
		c-1.008,1.124-2.031,2.234-3.078,3.322c-1.902,1.979-3.77,3.955-5.494,6.021c-0.857-0.162-1.779,0.05-2.525,0.827
		c-1.779,1.854-2.77,4.089-3.25,6.479c-0.422,1.237-0.76,2.512-1.021,3.844c-0.15,0.763-0.057,1.422,0.188,1.969
		c-0.074,0.164-0.137,0.34-0.188,0.531c-0.906,3.378,0.275,6.046,2.334,8.235c-0.656,0.848-0.838,1.982-0.033,3.077
		c0.916,1.243,4.141,3.389,5.953,5.302c-0.361,0.339-0.631,0.799-0.754,1.386c-0.65,3.109-0.533,5.664,0.312,7.906
		c-1.266,4.126-0.334,9.128,4.318,10.408c1.293,0.355,2.574,0.059,3.809-0.31c0.322-0.096,0.619-0.155,0.9-0.186
		c1.613,1.968,2.803,4.174,3.877,6.462c-0.381,2.597,0.672,5.797,2.588,8.151c-1.176,7.754,11.59,9.213,12.088,16.367
		c0.078,1.136,0.816,2.141,1.766,2.666c1.623,3.562,3.898,6.743,7.273,8.497c0.49,0.781,1.336,1.337,2.461,1.337h2
		c1.627,0,2.67-1.294,2.9-2.674c0.955-0.234,1.771-0.884,1.992-2.027c0.438-2.273,0.596-4.482,0.607-6.798
		c0.002-0.492-0.117-0.922-0.309-1.299c-0.178-8.426-1.186-17.539,1.674-25.135c0.342-0.389,0.523-0.87,0.57-1.384
		c0.527-1.164,1.156-2.286,1.908-3.358c0.129-0.176,0.254-0.356,0.387-0.529c0.061-0.081,0.125-0.162,0.188-0.243
		c0.383-0.486,0.779-0.965,1.203-1.43c0.064-0.072,0.107-0.147,0.164-0.221c1.77-1.488,5.143-2.225,7.229-3.257
		c2.152-1.065,4.031-2.857,5.85-4.401c6.932-5.884,11.973-12.554,14.369-21.375c0.701-2.586,1.174-5.243,2.576-7.563
		c1.947-3.225,6.943-4.218,10.289-4.97c6.998-1.577,13.926-2.064,19.008-7.02c0.143-0.062,0.279-0.132,0.408-0.224
		c1.162-0.831,1.641-1.553,1.865-2.73c1.215-0.381,2.121-1.552,2.121-2.86c0-0.334-0.068-0.649-0.17-0.948
		c0.686-1.308,1.211-2.762,1.571-4.302C132.23,93.159,132.752,88.433,131.289,83.292z"/>
	<g>
		<path fill="#231F20" d="M113.896,90.591c-0.189-0.053-0.199-0.889,0.215-2.389c0.422-1.491,1.252-3.655,2.949-6.138
			c0.858-1.233,1.932-2.554,3.44-3.768c0.758-0.6,1.633-1.178,2.697-1.6c1.055-0.421,2.35-0.676,3.709-0.461
			c1.356,0.199,2.657,0.885,3.657,1.775c1.015,0.892,1.793,1.954,2.453,3.065c0.629,1.061,1.248,2.401,1.578,3.742
			c0.353,1.339,0.537,2.704,0.621,4.086c0.162,2.763-0.07,5.6-0.6,8.495c-0.539,2.892-1.369,5.851-2.674,8.818
			c-0.662,1.481-1.437,2.969-2.463,4.424c-0.513,0.727-1.094,1.444-1.779,2.133c-0.348,0.344-0.723,0.679-1.133,1l-0.404,0.293
			l-0.467,0.312c-0.148,0.123-0.326,0.176-0.51,0.221l-0.539,0.154l-9.502,2.699l-4.929,1.388l-2.508,0.703l-0.694,0.195
			c-0.414,0.084-0.816,0.308-1.248,0.206l-0.916-0.066l-0.59-0.026c-1.576-0.055-2.91,0.104-3.703,0.58
			c-0.425,0.238-0.845,0.592-1.306,1.113c-0.228,0.258-0.459,0.551-0.69,0.867c-0.113,0.156-0.228,0.299-0.297,0.421
			c-0.07,0.114-0.148,0.239-0.23,0.396c-0.648,1.178-1.096,2.73-1.439,4.414c-0.344,1.692-0.588,3.523-0.922,5.471
			c-0.361,1.937-0.717,4.062-1.844,6.31c-1.023,2.037-2.408,3.872-4,5.437c-3.203,3.141-6.955,5.106-10.424,6.794l-2.561,1.225
			l-1.229,0.598c-0.228,0.113-0.357,0.177-0.494,0.254c-0.142,0.079-0.285,0.165-0.431,0.261c-1.174,0.762-2.345,1.92-3.391,3.173
			c-2.098,2.539-3.797,5.505-5.09,8.514c-1.287,3.017-2.176,6.133-2.492,9.135c-0.168,1.232-0.016,2.957,0.053,4.548l0.264,4.89
			c0.129,3.267,0.146,6.522-0.354,9.771c-0.256,1.622-0.646,3.25-1.322,4.835c-0.664,1.576-1.674,3.133-3.076,4.32
			c-0.344,0.293-0.734,0.572-1.064,0.781c-0.295,0.193-0.619,0.407-0.977,0.609c-0.695,0.402-1.438,0.756-2.232,1.027
			c-1.57,0.555-3.449,0.713-5.137,0.223c-1.693-0.473-3.037-1.465-4.045-2.502c-1.018-1.049-1.76-2.172-2.375-3.279
			c-1.215-2.223-1.938-4.4-2.488-6.439c-1.07-4.089-1.41-7.663-1.502-10.583c-0.078-2.921,0.148-5.196,0.477-6.715
			c0.328-1.526,0.76-2.265,0.953-2.209c0.205,0.056,0.182,0.842,0.252,2.314c0.066,1.471,0.219,3.642,0.645,6.405
			c0.434,2.753,1.102,6.129,2.381,9.804c0.648,1.823,1.457,3.736,2.568,5.481c1.088,1.729,2.611,3.303,4.203,3.619
			c0.787,0.17,1.627,0.079,2.555-0.292c0.459-0.185,0.932-0.434,1.402-0.737c0.23-0.145,0.473-0.319,0.746-0.518
			c0.244-0.17,0.408-0.305,0.588-0.471c1.41-1.286,2.215-3.676,2.523-6.365c0.318-2.701,0.229-5.68,0.012-8.788l-0.393-4.81
			c-0.066-0.829-0.133-1.672-0.18-2.547c-0.023-0.448-0.043-0.862-0.051-1.366c-0.012-0.562,0.039-1.063,0.068-1.511
			c0.312-3.719,1.291-7.34,2.711-10.838c1.439-3.492,3.295-6.887,5.838-10.041c1.291-1.568,2.732-3.094,4.676-4.4
			c0.242-0.162,0.498-0.319,0.764-0.47c0.271-0.154,0.56-0.301,0.75-0.397l1.299-0.644l2.541-1.233
			c3.317-1.623,6.455-3.358,8.826-5.7c1.182-1.162,2.149-2.462,2.856-3.856c0.633-1.19,0.996-2.877,1.318-4.651
			c0.318-1.786,0.58-3.685,0.996-5.648c0.426-1.958,0.973-4.022,2.107-6.062c0.137-0.247,0.297-0.513,0.475-0.783
			c0.172-0.268,0.344-0.484,0.5-0.695c0.314-0.415,0.652-0.835,1.033-1.253c0.75-0.832,1.711-1.687,2.875-2.311
			c1.16-0.633,2.424-0.96,3.549-1.104c1.139-0.148,2.176-0.141,3.164-0.098l0.729,0.045l0.359,0.028
			c0.053,0.004,0.025,0.003,0.041,0.005c0.012,0.004,0.021,0.001,0.033,0.001l0.57-0.148l2.521-0.657l4.957-1.284l9.524-2.443
			c0.023-0.006,0.051-0.002,0.07-0.016l0.031-0.014c-0.002,0.002,0.006-0.002,0.078-0.053c0.221-0.161,0.443-0.346,0.662-0.549
			c0.438-0.413,0.865-0.894,1.262-1.421c0.799-1.053,1.49-2.259,2.094-3.492c1.205-2.483,2.064-5.108,2.656-7.662
			c0.586-2.558,0.906-5.074,0.893-7.41c-0.006-1.166-0.102-2.287-0.307-3.311c-0.195-1.033-0.525-1.878-0.998-2.833
			c-0.898-1.811-2.1-3.101-3.375-3.377c-1.281-0.343-2.842,0.239-4.117,1.076c-1.295,0.842-2.381,1.89-3.283,2.895
			c-1.805,2.031-2.926,3.9-3.672,5.164C114.482,89.943,114.105,90.651,113.896,90.591z"/>
	</g>
	<g>
		<path fill="#231F20" d="M39.396,183.591c-0.068,0.4-0.721,0.712-1.9,0.776c-1.172,0.06-2.879-0.146-4.857-0.906
			c-1.971-0.755-4.203-2.079-6.229-4.085c-2.021-1.995-3.834-4.678-4.891-7.866c-1.061-3.18-1.205-6.536-0.553-9.414
			c0.631-2.894,2.008-5.237,3.432-6.839c1.432-1.616,2.881-2.547,3.953-3.016c1.084-0.462,1.805-0.476,2.045-0.15
			c0.533,0.697-1.066,2.537-2.488,5.55c-0.701,1.507-1.307,3.32-1.49,5.369c-0.195,2.042,0.039,4.322,0.799,6.614
			c0.76,2.291,1.953,4.345,3.285,6.035c1.336,1.698,2.809,3.034,4.154,4.071C37.357,181.791,39.541,182.734,39.396,183.591z"/>
	</g>
	<g>
		<path fill="#231F20" d="M12.871,142.886c0.711,0.422,0.969,1.544,1.402,3.298c0.418,1.737,0.936,4.172,1.828,6.417
			c0.445,1.115,0.941,2.021,1.432,2.682c0.49,0.665,0.988,1.132,1.592,1.527c1.209,0.778,2.641,1.112,2.826,1.936
			c0.098,0.396-0.105,0.87-0.68,1.325c-0.572,0.439-1.545,0.881-2.928,0.909c-1.365,0.041-3.141-0.489-4.582-1.656
			c-1.457-1.147-2.543-2.769-3.23-4.492c-1.354-3.473-1.176-6.713-0.49-8.952c0.354-1.122,0.863-2.001,1.398-2.524
			C11.979,142.825,12.512,142.694,12.871,142.886z"/>
	</g>
	<g>
		<path fill="#231F20" d="M31.396,105.591c-0.32,0.293-1.273-0.31-2.883-1.095c-1.6-0.775-3.949-1.61-6.748-1.108
			c-2.787,0.455-5.988,2.279-8.826,5.201c-2.822,2.897-5.391,6.862-6.641,11.252c-0.619,2.166-0.812,4.384-0.52,6.182
			c0.365,1.93,1.186,3.892,2.203,5.571c2.057,3.411,4.9,5.925,7.541,7.501c2.658,1.6,5.137,2.275,6.908,2.622
			c1.777,0.345,2.879,0.45,2.965,0.875c0.084,0.381-0.891,1.078-2.959,1.461c-2.045,0.375-5.23,0.284-8.768-1.142
			c-3.514-1.406-7.363-4.088-10.312-8.288c-1.463-2.111-2.688-4.546-3.344-7.458c-0.604-3.072-0.287-6.079,0.506-8.943
			c1.652-5.708,4.902-10.285,8.613-13.642c3.707-3.341,8.205-5.414,12.314-5.421c2.035-0.025,3.871,0.458,5.289,1.151
			c1.428,0.691,2.459,1.553,3.184,2.323C31.355,104.199,31.686,105.336,31.396,105.591z"/>
	</g>
	<g>
		<path fill="#231F20" d="M27.896,84.091c-0.219,0.361-0.752,0.477-1.482,0.517c-0.727,0.039-1.67,0.003-2.59,0.167
			c-0.934,0.16-1.736,0.521-2.469,1.186c-0.736,0.662-1.469,1.727-2.016,3.08c-0.543,1.352-0.842,2.801-0.934,4.085
			c-0.094,1.293,0.021,2.411,0.234,3.3c0.207,0.898,0.545,1.599,0.852,2.193c0.303,0.591,0.543,1.075,0.404,1.472
			c-0.131,0.379-0.658,0.657-1.59,0.54c-0.91-0.108-2.24-0.734-3.314-2.042c-2.209-2.614-3.002-7.327-1.215-11.796
			c0.896-2.227,2.453-4.256,4.531-5.445c1.027-0.591,2.154-0.944,3.209-1.042c1.055-0.113,2.018,0.026,2.816,0.257
			c1.604,0.482,2.572,1.295,3.113,1.951C27.988,83.183,28.105,83.746,27.896,84.091z"/>
	</g>
	<g>
		<path fill="#231F20" d="M84.896,73.091c-0.426,0.062-0.97-1.455-2-4.044c-1.041-2.573-2.633-6.256-5.498-10.115
			c-2.842-3.837-7.062-7.843-12.693-10.373c-5.584-2.56-12.566-3.417-19.412-1.564c-1.709,0.45-3.365,1.047-4.951,1.754
			c-0.793,0.355-1.568,0.739-2.326,1.145c-0.744,0.399-1.537,0.855-2.158,1.261c-2.641,1.768-4.779,4.088-6.201,6.644
			c-1.439,2.562-2.229,5.363-2.594,8.081c-0.363,2.724-0.326,5.364-0.115,7.773c0.439,4.837,1.502,8.751,2.207,11.467
			c0.727,2.718,1.123,4.281,0.742,4.472c-0.357,0.181-1.469-1.035-2.904-3.593c-1.41-2.559-3.186-6.474-4.242-11.737
			c-0.518-2.628-0.836-5.603-0.641-8.852c0.199-3.235,0.945-6.783,2.66-10.192c1.705-3.416,4.385-6.55,7.795-8.93
			c0.902-0.615,1.709-1.092,2.598-1.592c0.877-0.49,1.783-0.953,2.713-1.38c1.863-0.856,3.832-1.58,5.883-2.12
			c4.102-1.092,8.332-1.384,12.326-0.922c3.998,0.453,7.744,1.645,11.012,3.303c6.583,3.326,11.124,8.379,13.844,13.019
			c2.75,4.681,3.824,8.95,4.217,11.865C85.533,71.398,85.289,73.038,84.896,73.091z"/>
	</g>
	<g>
		<path fill="#231F20" d="M103.896,74.091c-0.854,0.004-1.486-1.588-2.603-3.492c-1.099-1.908-2.881-4.019-5.424-4.832
			c-2.524-0.866-5.213-0.227-7.265,0.641c-2.057,0.858-3.545,1.715-4.211,1.184c-0.623-0.472-0.352-2.355,1.697-4.602
			c1.029-1.091,2.557-2.233,4.604-2.914c2.023-0.686,4.599-0.832,7.06-0.005c2.468,0.805,4.443,2.452,5.662,4.214
			c1.24,1.77,1.783,3.61,1.944,5.112C105.643,72.448,104.674,74.11,103.896,74.091z"/>
	</g>
	<g>
		<path fill="#231F20" d="M122.396,77.091c-0.845-0.118-1.144-2.48-1.42-5.958c-0.158-1.724-0.33-3.763-0.834-5.69
			c-0.252-0.955-0.603-1.863-1.052-2.549c-0.454-0.694-0.946-1.131-1.623-1.445c-0.338-0.159-0.735-0.275-1.17-0.358
			c-0.229-0.039-0.34-0.052-0.521-0.059c-0.176-0.008-0.37-0.001-0.573,0.018c-0.815,0.071-1.761,0.366-2.642,0.753
			c-1.787,0.783-3.35,1.904-4.551,2.925c-1.205,1.034-2.059,1.995-2.668,2.705c-0.619,0.703-1.023,1.194-1.449,1.159
			c-0.396-0.026-0.791-0.68-0.766-1.901c0.02-1.211,0.51-2.907,1.613-4.667c1.113-1.749,2.777-3.607,5.215-5.097
			c1.225-0.731,2.648-1.395,4.414-1.695c0.439-0.074,0.902-0.122,1.387-0.129c0.484-0.014,1.043,0.029,1.475,0.093
			c0.894,0.137,1.822,0.378,2.738,0.801c1.854,0.821,3.367,2.376,4.199,3.938c0.859,1.573,1.223,3.115,1.406,4.505
			c0.338,2.794,0.014,5.103-0.369,6.982C124.373,75.162,123.189,77.204,122.396,77.091z"/>
	</g>
	<g opacity="0.2">
		<path fill="#FFFFFF" d="M36.396,78.091c0.006-0.001-0.025-0.491-0.188-1.396c-0.15-0.904-0.428-2.227-0.65-3.898
			c-0.221-1.668-0.4-3.688-0.24-5.937c0.156-2.244,0.635-4.73,1.771-7.221c1.125-2.471,2.873-4.744,5.139-6.157
			c1.121-0.705,2.35-1.167,3.514-1.35c1.166-0.185,2.248-0.112,3.154,0.088c1.824,0.408,2.996,1.175,3.789,1.639
			c0.783,0.494,1.205,0.738,1.211,0.73c0.002,0.001-0.459-0.208-1.355-0.327c-0.881-0.119-2.23-0.142-3.615,0.289
			c-0.688,0.217-1.363,0.546-1.967,0.993c-0.607,0.444-1.148,0.995-1.65,1.643c-0.998,1.295-1.873,2.996-2.764,4.948
			c-0.885,1.953-1.717,3.947-2.518,5.813c-0.793,1.869-1.551,3.615-2.143,5.119c-0.592,1.504-1.027,2.763-1.246,3.644
			C36.41,77.594,36.393,78.092,36.396,78.091z"/>
	</g>
	<g opacity="0.2">
		<path fill="#FFFFFF" d="M17.896,130.591c0,0-0.072-0.058-0.227-0.146l-0.699-0.39c-0.299-0.185-0.701-0.398-1.117-0.724
			c-0.418-0.322-0.914-0.711-1.383-1.227c-0.945-1.018-1.895-2.49-2.422-4.289c-0.537-1.791-0.668-3.887-0.197-5.975
			c0.461-2.088,1.471-3.948,2.744-5.346c1.27-1.406,2.793-2.32,4.109-2.79c0.656-0.246,1.279-0.361,1.799-0.451
			c0.521-0.094,0.975-0.099,1.324-0.119c0.354-0.017,0.623-0.011,0.801-0.021c0.178-0.007,0.268-0.024,0.268-0.024
			s-0.375,0.069-0.938,0.453c-0.285,0.177-0.598,0.457-0.922,0.788c-0.328,0.328-0.635,0.767-0.93,1.236
			c-0.59,0.953-1.029,2.154-1.398,3.436c-0.367,1.29-0.674,2.678-1,4.137c-0.318,1.459-0.625,2.862-0.852,4.201
			c-0.225,1.336-0.359,2.622-0.275,3.75c0.049,0.558,0.115,1.089,0.25,1.534c0.133,0.445,0.281,0.836,0.445,1.128
			C17.596,130.356,17.9,130.593,17.896,130.591z"/>
	</g>
	<g opacity="0.2">
		<path fill="#FFFFFF" d="M36.396,164.091c0.006-0.002-0.043-0.104-0.279-0.259c-0.107-0.08-0.25-0.178-0.443-0.292
			c-0.178-0.116-0.455-0.241-0.666-0.409c-0.217-0.165-0.516-0.35-0.725-0.581c-0.211-0.229-0.496-0.486-0.666-0.782
			c-0.389-0.586-0.584-1.316-0.492-2.02c0.092-0.709,0.455-1.301,0.943-1.739l2.133-1.911l0.195,0.093
			c0.244,0.117,0.494,0.314,0.783,0.502c0.275,0.206,0.654,0.397,1.023,0.872c0.18,0.226,0.311,0.504,0.35,0.726
			c0.043,0.224,0.021,0.388-0.012,0.511c-0.096,0.25-0.225,0.381-0.314,0.509c-0.383,0.487-0.348,0.799-0.33,0.781
			c0.025-0.02-0.203-0.147-0.791-0.498c-0.145-0.08-0.32-0.182-0.494-0.179c-0.018,0.001-0.035,0.001-0.053,0.007
			c-0.025,0.011,0.01-0.002,0.057-0.019l0.119-0.05c0.113-0.045,0.203-0.091,0.254-0.123c0.104-0.062,0.094-0.082,0.051-0.02
			c-0.043,0.061-0.123,0.207-0.203,0.468c-0.037,0.123-0.08,0.281-0.117,0.463l-0.076,0.408c-0.037,0.144-0.133,0.327-0.246,0.444
			l2.328-1.818c0.256,0.494,0.398,0.938,0.352,1.33c-0.046,0.392-0.285,0.718-0.639,1.088c-0.15,0.182-0.398,0.379-0.568,0.573
			c-0.16,0.194-0.406,0.4-0.562,0.593c-0.152,0.19-0.369,0.386-0.49,0.552c-0.131,0.167-0.227,0.312-0.287,0.428
			C36.387,163.976,36.389,164.093,36.396,164.091z"/>
	</g>
	<g opacity="0.2">
		<path fill="#FFFFFF" d="M91.396,75.091c-0.004-0.007-0.01,0.038,0.11,0.193c0.054,0.068,0.134,0.163,0.271,0.256
			c0.113,0.077,0.045,0.03,0.018,0.018l-0.078-0.04c-0.064-0.023-0.09-0.034-0.133-0.035c-0.014-0.003-0.021,0.003,0.008-0.008
			c0.057-0.016,0.223-0.137,0.357-0.369c0.141-0.226,0.232-0.505,0.303-0.757c0.021-0.075,0.08-0.413,0.025-0.064
			c-0.027,0.18-0.045,0.454-0.039,0.638c0.004,0.18,0.008,0.435,0.027,0.584c0.02,0.164,0.041,0.285,0.061,0.371
			c0.041,0.195,0.07,0.22,0.07,0.213c-0.002-0.007-0.025,0.018-0.082,0.208l-0.115,0.365c-0.049,0.148-0.121,0.392-0.205,0.563
			c-0.08,0.178-0.193,0.439-0.318,0.601c-0.123,0.169-0.285,0.402-0.463,0.521c-0.172,0.148-0.383,0.235-0.6,0.263
			c-0.227,0.021-0.453-0.015-0.709-0.171c-0.234-0.141-0.484-0.397-0.656-0.734c-0.184-0.34-0.305-0.789-0.275-1.234
			c-0.006-0.458,0.223-0.872,0.43-1.148c0.207-0.268,0.533-0.408,0.761-0.452c0.224-0.073,0.485-0.01,0.646,0.02
			c0.172,0.035,0.291,0.085,0.377,0.117C91.369,75.093,91.4,75.098,91.396,75.091z"/>
	</g>
	<g opacity="0.2">
		<path fill="#FFFFFF" d="M99.396,76.591c0.002-0.007-0.025,0.02-0.035,0.215c-0.002,0.043-0.004,0.094,0,0.155
			c-0.002,0.034,0.029,0.198,0.018,0.132c-0.006-0.043-0.027-0.098-0.035-0.128c-0.033-0.084-0.082-0.107-0.043-0.084
			c0.037,0.021,0.182,0.042,0.363-0.005c0.184-0.044,0.369-0.136,0.531-0.228l0.219-0.143l0.047-0.035
			c0.004-0.004,0.023-0.018,0.016-0.012l-0.069,0.052l-0.242,0.205c-0.133,0.119-0.313,0.294-0.414,0.407
			c-0.108,0.121-0.187,0.215-0.237,0.286c-0.117,0.155-0.119,0.188-0.115,0.184c0.004-0.004-0.025,0-0.189,0.106l-0.322,0.194
			c-0.133,0.077-0.35,0.207-0.521,0.281c-0.177,0.078-0.433,0.195-0.625,0.231c-0.199,0.046-0.47,0.11-0.671,0.083
			c-0.217-0.002-0.422-0.075-0.586-0.192c-0.168-0.129-0.295-0.296-0.36-0.568c-0.062-0.247-0.058-0.586,0.062-0.927
			c0.108-0.354,0.338-0.738,0.668-1.018c0.311-0.312,0.756-0.43,1.086-0.469c0.326-0.034,0.643,0.106,0.821,0.239
			c0.197,0.113,0.328,0.343,0.41,0.48c0.086,0.149,0.127,0.27,0.158,0.354C99.385,76.573,99.395,76.598,99.396,76.591z"/>
	</g>
	<g>
		<circle fill="#F6EB6C" cx="95.325" cy="33.314" r="11.224"/>
		<path fill="#020202" d="M108.297,33.358c-0.078,1.598-0.492,3.345-1.207,4.83c-0.721,1.508-1.744,2.845-2.963,3.929
			c-2.432,2.179-5.604,3.39-8.803,3.421c-3.201,0.073-6.434-1.169-8.83-3.394c-2.42-2.213-3.998-5.381-4.143-8.874
			c-0.183-3.302,1.053-6.908,3.457-9.472c1.205-1.281,2.666-2.351,4.301-3.071c0.817-0.357,1.674-0.635,2.551-0.824
			c0.438-0.094,0.879-0.167,1.324-0.222l0.67-0.062l0.734-0.028l0.551,0.011l0.723,0.049c0.457,0.046,0.895,0.108,1.34,0.193
			c0.883,0.176,1.742,0.46,2.566,0.813c1.645,0.723,3.115,1.801,4.301,3.11c2.365,2.632,3.6,6.153,3.43,9.545L108.297,33.358z
			 M104.799,33.314c-0.143-2.494-1.33-4.814-3.146-6.327c-0.893-0.769-1.909-1.357-2.979-1.759
			c-0.533-0.209-1.088-0.353-1.646-0.462c-0.274-0.056-0.565-0.099-0.84-0.129l-0.375-0.032l-0.551-0.016
			c-2.168-0.064-4.561,0.791-6.293,2.369c-1.775,1.581-2.963,3.815-3.119,6.4c-0.172,2.395,0.674,5.068,2.435,6.998
			c0.883,0.96,1.957,1.769,3.168,2.311c1.213,0.54,2.526,0.835,3.873,0.871c2.688,0.06,5.356-1.152,7.069-3.153
			c0.859-0.994,1.502-2.146,1.906-3.354c0.414-1.229,0.576-2.42,0.498-3.761V33.314L104.799,33.314z"/>
	</g>
	<g>
		<circle fill="#F6EB6C" cx="73.912" cy="9.591" r="5.5"/>
		<path fill="#020202" d="M81.674,9.648l0.016,0.271l-0.006,0.43c-0.014,0.266-0.031,0.514-0.069,0.771
			c-0.074,0.51-0.197,1.018-0.388,1.501c-0.381,0.969-1.016,1.824-1.778,2.505c-1.509,1.391-3.593,2.077-5.535,1.908
			c-1.951-0.151-3.754-1.123-4.924-2.521c-1.186-1.397-1.758-3.197-1.686-4.923c0.143-3.5,3.002-6.506,6.64-6.755
			c1.697-0.163,3.66,0.373,5.127,1.597c1.494,1.202,2.49,3.125,2.605,5.158L81.674,9.648z M77.148,9.591
			c0.127-0.852-0.063-1.791-0.617-2.62c-0.563-0.825-1.463-1.476-2.65-1.625c-1.051-0.149-2.318,0.234-3.148,1.066
			c-0.846,0.824-1.316,2.021-1.213,3.179c0.061,1.159,0.676,2.222,1.537,2.854c0.861,0.65,1.921,0.866,2.855,0.701
			c0.941-0.155,1.719-0.656,2.242-1.314c0.254-0.336,0.436-0.7,0.607-1.062c0.086-0.182,0.172-0.366,0.235-0.564l0.088-0.295
			l0.033-0.108l0.028-0.27v0.058H77.148z"/>
	</g>
	<g>
		<circle fill="#F6EB6C" cx="57.646" cy="29.841" r="3.75"/>
		<path fill="#020202" d="M63.32,29.938l0.006,0.369c-0.01,0.192-0.035,0.43-0.062,0.643c-0.068,0.381-0.182,0.733-0.338,1.078
			c-0.32,0.679-0.777,1.281-1.322,1.771c-1.092,0.979-2.578,1.453-3.957,1.329c-1.373-0.108-2.674-0.79-3.512-1.776
			c-0.857-0.978-1.307-2.263-1.266-3.511c0.029-2.53,2.125-4.799,4.777-4.997c1.291-0.115,2.721,0.292,3.793,1.203
			c1.086,0.896,1.805,2.309,1.883,3.794L63.32,29.938z M59.471,29.841c0.084-0.481-0.004-1.021-0.314-1.509
			c-0.314-0.484-0.836-0.885-1.51-0.993c-0.662-0.117-1.391,0.095-1.928,0.575c-0.533,0.493-0.824,1.201-0.795,1.927
			c0.033,0.72,0.391,1.385,0.93,1.793c0.549,0.409,1.199,0.535,1.793,0.42c0.586-0.117,1.053-0.449,1.346-0.867
			c0.148-0.205,0.248-0.436,0.303-0.663c0.027-0.111,0.057-0.231,0.088-0.328c0.008-0.031,0.025-0.035,0.045-0.085l0.045-0.367
			L59.471,29.841z"/>
	</g>
	<g>
		<circle fill="#F6EB6C" cx="138.896" cy="68.463" r="3.628"/>
		<path fill="#020202" d="M143.586,68.517c-0.205,1.079-0.48,2.374-1.289,3.346c-0.781,0.989-2.008,1.725-3.398,1.911
			c-1.373,0.198-2.948-0.21-4.129-1.183c-0.584-0.493-1.088-1.109-1.442-1.819c-0.17-0.358-0.312-0.732-0.41-1.122
			c-0.043-0.195-0.084-0.392-0.115-0.59l-0.03-0.297l-0.013-0.15l-0.006-0.075L132.75,68.5v-0.018l0.002-0.147l0.002-0.356
			c0.014-0.209,0.043-0.477,0.08-0.711c0.08-0.414,0.191-0.794,0.342-1.175c0.311-0.752,0.779-1.434,1.367-1.984
			c0.588-0.549,1.293-0.967,2.047-1.214c0.379-0.118,0.766-0.204,1.154-0.242c0.195-0.013,0.389-0.024,0.58-0.028l0.684,0.043
			l0.352,0.087c0.193,0.042,0.429,0.098,0.636,0.156c0.364,0.126,0.692,0.281,1.012,0.464c0.627,0.372,1.16,0.859,1.566,1.412
			c0.819,1.102,1.159,2.454,1.016,3.676L143.586,68.517z M141.465,68.463c-0.141-0.68-0.58-1.215-1.111-1.455
			c-0.266-0.119-0.537-0.17-0.787-0.161c-0.123,0.005-0.252,0.025-0.35,0.052c-0.029,0.025-0.027,0.041-0.07,0.052l-0.358,0.051
			c0.219,0.006,0.062,0.002,0.106,0.004h-0.002l-0.004,0.003l-0.01,0.005l-0.018,0.011l-0.035,0.019l-0.068,0.037l-0.123,0.077
			c-0.076,0.06-0.145,0.11-0.207,0.168c-0.123,0.117-0.223,0.237-0.307,0.359c-0.084,0.123-0.152,0.245-0.207,0.371
			c-0.025,0.059-0.051,0.135-0.068,0.185c0.002,0-0.008-0.033-0.025-0.007l-0.032,0.355c0.006-0.255,0.002-0.07,0.004-0.126v0.002
			v0.003v0.007l-0.002,0.014l-0.004,0.027l-0.013,0.058c-0.002,0.039-0.002,0.075-0.01,0.114c0,0.076-0.006,0.157,0.002,0.241
			c0.006,0.167,0.041,0.356,0.129,0.535c0.16,0.378,0.472,0.75,1.002,0.942c0.515,0.191,1.172,0.146,1.732-0.214
			c0.271-0.183,0.521-0.425,0.705-0.722c0.086-0.149,0.146-0.32,0.162-0.487v-0.217l-0.031-0.358V68.463z"/>
	</g>
	<circle opacity="0.2" fill="#FFFFFF" enable-background="new    " cx="100.154" cy="31.716" r="1.875"/>
	<circle opacity="0.2" fill="#FFFFFF" enable-background="new    " cx="73.912" cy="7.716" r="1.875"/>
</g>
</svg>
