<?xml version="1.0" encoding="utf-8"?>
<!-- Generator: Adobe Illustrator 15.0.0, SVG Export Plug-In . SVG Version: 6.00 Build 0)  -->
<!DOCTYPE svg PUBLIC "-//W3C//DTD SVG 1.1//EN" "http://www.w3.org/Graphics/SVG/1.1/DTD/svg11.dtd">
<svg version="1.1" id="Layer_1" xmlns="http://www.w3.org/2000/svg" xmlns:xlink="http://www.w3.org/1999/xlink" x="0px" y="0px"
	 width="86px" height="283.998px" viewBox="0 0 91.75 283.998" enable-background="new 0 0 91.75 283.998" xml:space="preserve">
<g>
	<path fill="#FFFFFF" d="M83.406,8.072H10.072c-2.502,0-4.531,2.029-4.531,4.534v6.274c0,2.504,2.029,4.534,4.531,4.534h6.232
		V282.76h60.871V23.415h6.23c2.504,0,4.533-2.03,4.533-4.534v-6.274C87.939,10.102,85.91,8.072,83.406,8.072z"/>
	<rect x="17.066" y="51.14" fill="#FFF100" width="59.619" height="217.082"/>
	<path fill="#231F20" d="M91.695,15.514l-0.053-1.67l-0.029-0.835l-0.016-0.511l-0.014-0.209l-0.035-0.449
		c-0.221-2.028-1.213-3.905-2.691-5.233c-1.475-1.326-3.463-2.111-5.451-2.12c-8.34-0.198-16.68-0.428-25.02-0.763
		c-8.34-0.306-16.68-0.657-25.02-0.884c-4.17-0.133-8.34-0.213-12.51-0.281l-6.254-0.074l-3.129-0.02l-0.781-0.006l-0.391-0.002
		l-0.195-0.001L9.77,2.461L9.623,2.467L9.346,2.482L9.068,2.506L8.846,2.531C8.557,2.566,8.268,2.616,7.98,2.675
		c-0.572,0.119-1.135,0.292-1.678,0.51C4.119,4.051,2.299,5.694,1.195,7.748C0.645,8.774,0.266,9.898,0.1,11.051
		c-0.039,0.288-0.07,0.576-0.084,0.863C0.006,12.06,0.002,12.202,0,12.346v0.338l0.021,0.782c0.021,1.043,0.072,2.084,0.109,3.126
		l0.074,1.564l0.043,0.915L0.266,19.3c0.012,0.177,0.027,0.355,0.045,0.533c0.039,0.299,0.084,0.563,0.145,0.841
		c0.471,2.217,1.74,4.214,3.479,5.552c1.725,1.359,3.957,2.061,6.084,1.96l0.811-0.075l0.781-0.083
		c0.262-0.028,0.521-0.062,0.783-0.091c0.385,20.104,0.707,40.208,0.996,60.312l0.441,32.419l0.396,32.418l0.195,16.21l0.15,16.208
		l0.299,32.418l0.193,32.418l0.053,16.209l0.025,16.21v1.161h1.162h60.871h1.162v-1.161v-0.002
		c0.65-10.807,1.045-21.612,1.455-32.417c0.377-10.806,0.674-21.613,0.904-32.418c0.482-21.612,0.688-43.223,0.746-64.838
		c0.057-21.611-0.033-43.222-0.322-64.834c-0.316-20.649-0.719-41.298-1.555-61.947c0.318,0.066,0.637,0.138,0.957,0.195
		c0.557,0.101,1.113,0.186,1.67,0.261c0.596,0.058,0.961,0.175,2.023,0.152c1.994-0.087,3.969-1.005,5.348-2.495
		c0.697-0.738,1.25-1.617,1.627-2.574c0.375-0.947,0.564-2.01,0.559-2.984C91.742,17.743,91.734,16.628,91.695,15.514z
		 M11.084,12.61l0.004,0.02c0,0.012,0,0.026,0.002,0.041c0,0.028,0.004,0.058,0,0.087c0,0.028-0.01,0.057-0.014,0.084l0.004-0.158
		C11.082,12.662,11.082,12.594,11.084,12.61z M10.004,13.697l-0.02-0.002h0.02l0.051-0.002h0.047l-0.014,0.002L10.004,13.697z
		 M10.742,18.71l-0.668-0.068C10.18,18.449,10.543,18.426,10.742,18.71z M84.236,13.844l-0.055,1.67
		c-0.037,1.114-0.047,2.229-0.055,3.344c-0.004,0.138-0.01,0.19-0.031,0.286c-0.02,0.086-0.055,0.173-0.105,0.263
		c-0.107,0.173-0.25,0.333-0.477,0.466c-0.049,0.065-0.801,0.122-1.32,0.199c-0.557,0.075-1.113,0.159-1.67,0.259
		c-1.115,0.201-2.23,0.445-3.344,0.802h-0.004l-2.182-0.099l-0.102,2.381c-0.92,21.612-1.332,43.225-1.662,64.835
		c-0.289,21.613-0.379,43.224-0.322,64.834c0.057,21.615,0.264,43.226,0.746,64.838c0.23,10.805,0.527,21.612,0.904,32.418
		c0.395,10.418,0.781,20.836,1.391,31.255h-58.48l0.021-15.046l0.055-16.209l0.191-32.418l0.299-32.418l0.15-16.208l0.195-16.21
		l0.396-32.418l0.443-32.419c0.309-21.611,0.652-43.224,1.076-64.835l0.076-3.914l-4.068-0.078h-0.004
		c-1.043-0.175-2.084-0.312-3.127-0.439c-0.521-0.069-1.043-0.129-1.564-0.183l-0.764-0.079l0.01-0.173l0.02-0.392l0.074-1.564
		c0.035-0.97,0.078-1.938,0.104-2.907l0.422-0.004l3.129-0.02l6.254-0.074c4.17-0.071,8.34-0.15,12.51-0.283
		c8.34-0.226,16.68-0.577,25.02-0.885c8.34-0.334,16.68-0.562,25.02-0.76c0.242-0.015,0.473,0.052,0.643,0.235
		c0.178,0.167,0.254,0.416,0.238,0.61L84.236,13.844z"/>
	<ellipse fill="#EEDD0F" cx="46.877" cy="51.095" rx="27.082" ry="4.511"/>
	<g opacity="0.2">
		<polygon fill="#FFFFFF" points="29.699,19.01 26.699,174.486 23.699,19.01 		"/>
	</g>
	<circle fill="#FFFFFF" cx="41.666" cy="79.094" r="5.211"/>
	<circle fill="#FFFFFF" cx="49.094" cy="102.71" r="2.217"/>
	<circle fill="#FFFFFF" cx="36.455" cy="124.775" r="2.217"/>
	<circle fill="#FFFFFF" cx="62.063" cy="69.978" r="2.909"/>
	<circle fill="#FFFFFF" cx="59.153" cy="162.591" r="2.909"/>
</g>
</svg>
