<?xml version="1.0" encoding="UTF-8" standalone="no"?>
<!-- Generator: Adobe Illustrator 16.0.0, SVG Export Plug-In . SVG Version: 6.00 Build 0)  -->

<svg
   xmlns:dc="http://purl.org/dc/elements/1.1/"
   xmlns:cc="http://creativecommons.org/ns#"
   xmlns:rdf="http://www.w3.org/1999/02/22-rdf-syntax-ns#"
   xmlns:svg="http://www.w3.org/2000/svg"
   xmlns="http://www.w3.org/2000/svg"
   xmlns:sodipodi="http://sodipodi.sourceforge.net/DTD/sodipodi-0.dtd"
   xmlns:inkscape="http://www.inkscape.org/namespaces/inkscape"
   version="1.1"
   id="Layer_1"
   x="0px"
   y="0px"
   width="120.922px"
   height="650.396px"
   viewBox="0 0 200.922 650.396"
   enable-background="new 0 0 200.922 387.396"
   xml:space="preserve"
   inkscape:version="0.48.4 r9939"
   sodipodi:docname="04 Green.svg"><metadata
     id="metadata115"><rdf:RDF><cc:Work
         rdf:about=""><dc:format>image/svg+xml</dc:format><dc:type
           rdf:resource="http://purl.org/dc/dcmitype/StillImage" /></cc:Work></rdf:RDF></metadata><defs
     id="defs113" /><sodipodi:namedview
     pagecolor="#ffffff"
     bordercolor="#666666"
     borderopacity="1"
     objecttolerance="10"
     gridtolerance="10"
     guidetolerance="10"
     inkscape:pageopacity="0"
     inkscape:pageshadow="2"
     inkscape:window-width="640"
     inkscape:window-height="480"
     id="namedview111"
     showgrid="false"
     inkscape:zoom="0.59823472"
     inkscape:cx="71.413002"
     inkscape:cy="103.33046"
     inkscape:window-x="75"
     inkscape:window-y="34"
     inkscape:window-maximized="0"
     inkscape:current-layer="Layer_1" /><g
     id="g3"
     transform="matrix(1.3859545,0,0,2.1122296,7.7159514e-4,-219.43882)"><ellipse
       enable-background="new    "
       cx="78.370003"
       cy="244.099"
       rx="7.3369999"
       ry="5.211"
       id="ellipse5"
       d="m 85.707003,244.099 c 0,2.87795 -3.284887,5.211 -7.337,5.211 -4.052113,0 -7.337,-2.33305 -7.337,-5.211 0,-2.87796 3.284887,-5.211 7.337,-5.211 4.052113,0 7.337,2.33304 7.337,5.211 z"
       sodipodi:cx="78.370003"
       sodipodi:cy="244.099"
       sodipodi:rx="7.3369999"
       sodipodi:ry="5.211"
       style="opacity:0.34000017;fill:#ffffff" /><path
       d="M 123.855,118.568 H 20.589 c -3.526,0 -6.385,2.029 -6.385,4.534 v 6.274 c 0,2.504 2.859,4.534 6.385,4.534 h 8.771 v 259.345 h 85.722 V 133.911 h 8.772 c 3.523,0 6.382,-2.03 6.382,-4.534 v -6.274 c 0.003,-2.505 -2.857,-4.535 -6.381,-4.535 z"
       id="path7"
       inkscape:connector-curvature="0"
       style="fill:#5aad51" /><rect
       x="31.479"
       y="161.63499"
       width="83.954002"
       height="217.08299"
       id="rect9"
       style="fill:#5aad51" /><path
       d="m 135.623,126.01 -0.052,-1.67 -0.032,-0.835 -0.02,-0.515 -0.017,-0.208 -0.05,-0.455 c -0.313,-2.052 -1.731,-3.953 -3.85,-5.278 -2.107,-1.329 -4.944,-2.095 -7.746,-2.066 l -17.614,0.063 c -5.872,0.014 -11.746,0.02 -17.619,0.082 -5.872,0.066 -11.744,0.155 -17.615,0.303 -5.872,0.144 -11.746,0.432 -17.618,0.731 -5.873,0.308 -11.744,0.63 -17.616,0.809 -2.937,0.089 -5.872,0.147 -8.81,0.166 -1.465,0.011 -2.936,0.018 -4.404,0.007 l -2.253,-0.005 c -1.001,0.013 -1.945,0.144 -2.86,0.394 -1.818,0.496 -3.388,1.438 -4.386,2.648 -0.499,0.605 -0.84,1.277 -1.031,1.972 -0.096,0.335 -0.144,0.729 -0.162,1.028 l -0.055,0.783 c -0.066,1.042 -0.181,2.084 -0.274,3.126 -0.044,0.521 -0.119,1.042 -0.176,1.564 l -0.044,0.392 -0.023,0.195 -0.014,0.1 v 0.022 c -0.002,-0.037 -0.002,0.081 -0.002,0.081 l -0.005,0.045 c -0.003,0.073 -0.012,0.12 -0.015,0.209 l 0.011,0.332 c 0.014,0.198 0.028,0.385 0.064,0.577 0.25,1.537 1.298,3.028 2.922,4.154 0.82,0.558 1.777,1.03 2.845,1.382 1.065,0.347 2.234,0.565 3.425,0.647 1.108,0.112 2.202,0.231 3.294,0.358 0.557,20.534 1.021,41.067 1.434,61.6 l 0.625,32.418 0.558,32.418 0.275,16.21 0.211,16.206 0.421,32.418 0.272,32.419 0.074,16.209 0.032,16.209 0.004,1.161 h 1.633 85.722 1.637 v -1.161 -10e-4 c 0.915,-10.808 1.472,-21.612 2.049,-32.417 0.531,-10.806 0.949,-21.613 1.273,-32.419 0.676,-21.61 0.968,-43.224 1.051,-64.837 0.077,-21.611 -0.05,-43.223 -0.453,-64.834 -0.446,-20.649 -1.014,-41.297 -2.191,-61.947 0.448,0.066 0.898,0.138 1.347,0.195 0.786,0.101 1.568,0.186 2.354,0.261 0.839,0.058 1.351,0.175 2.848,0.151 2.809,-0.087 5.587,-1.005 7.532,-2.493 0.984,-0.738 1.77,-1.615 2.306,-2.571 0.533,-0.948 0.809,-2.011 0.812,-2.988 0,-1.116 0.013,-2.231 -0.024,-3.345 z m -10.717,-1.67 -0.052,1.67 c -0.034,1.114 -0.025,2.229 -0.02,3.344 0.003,0.135 0.003,0.187 -0.022,0.282 -0.021,0.086 -0.068,0.175 -0.137,0.265 -0.149,0.176 -0.352,0.336 -0.67,0.469 -0.068,0.064 -1.128,0.121 -1.858,0.199 -0.785,0.075 -1.567,0.158 -2.354,0.258 -1.568,0.201 -3.141,0.446 -4.707,0.802 h -0.006 l -3.074,-0.099 -0.146,2.382 c -1.292,21.611 -1.873,43.224 -2.341,64.835 -0.403,21.611 -0.53,43.225 -0.454,64.834 0.087,21.615 0.376,43.227 1.054,64.837 0.323,10.806 0.742,21.613 1.274,32.419 0.555,10.418 1.101,20.836 1.958,31.255 H 31 l 0.032,-15.045 0.075,-16.209 0.271,-32.419 L 31.8,296 l 0.211,-16.207 0.274,-16.21 0.558,-32.418 0.624,-32.418 c 0.435,-21.611 0.918,-43.224 1.516,-64.835 l 0.107,-3.914 -5.732,-0.08 0,0 c -2.927,0.48 -5.897,0.818 -8.784,1.115 -0.548,0.146 -1.213,0.142 -1.838,-0.078 -0.629,-0.21 -1.166,-0.621 -1.44,-1.138 -0.038,-0.062 -0.069,-0.134 -0.093,-0.195 -0.008,-0.019 -0.02,-0.039 -0.032,-0.059 -0.012,-0.04 -0.02,-0.124 -0.029,-0.181 l -0.009,-0.049 c 0,-0.019 0,0.083 0,0.027 l -0.003,-0.022 -0.011,-0.1 -0.026,-0.195 -0.043,-0.392 c -0.058,-0.521 -0.13,-1.043 -0.176,-1.564 -0.093,-1.042 -0.208,-2.083 -0.275,-3.126 l -0.055,-0.783 c -0.019,-0.223 -0.025,-0.35 -0.008,-0.53 0.035,-0.335 0.173,-0.663 0.377,-0.975 0.413,-0.618 1.161,-1.146 2.078,-1.418 0.442,-0.143 0.963,-0.224 1.424,-0.247 l 0.226,-0.007 0.274,-0.002 0.551,-0.002 1.1,-0.002 c 1.469,-0.012 2.938,-0.003 4.404,0.005 2.937,0.019 5.872,0.077 8.81,0.166 5.872,0.181 11.744,0.503 17.617,0.809 5.872,0.3 11.744,0.588 17.616,0.733 5.872,0.148 11.745,0.236 17.617,0.301 5.872,0.063 11.744,0.07 17.616,0.082 l 17.617,0.065 c 0.34,0.023 0.623,0.111 0.84,0.29 0.207,0.168 0.293,0.392 0.271,0.562 l -0.068,1.332 z"
       id="path11"
       inkscape:connector-curvature="0"
       style="fill:#231f20" /><ellipse
       enable-background="new    "
       cx="78.365997"
       cy="190.64799"
       rx="3.5840001"
       ry="2.5439999"
       id="ellipse13"
       d="m 81.949997,190.64799 c 0,1.40502 -1.604611,2.544 -3.584,2.544 -1.979388,0 -3.584,-1.13898 -3.584,-2.544 0,-1.40501 1.604612,-2.54399 3.584,-2.54399 1.979389,0 3.584,1.13898 3.584,2.54399 z"
       sodipodi:cx="78.365997"
       sodipodi:cy="190.64799"
       sodipodi:rx="3.5840001"
       sodipodi:ry="2.5439999"
       style="opacity:0.34000017;fill:#ffffff" /><ellipse
       enable-background="new    "
       cx="85.707001"
       cy="230.61301"
       rx="5.0910001"
       ry="3.615"
       id="ellipse15"
       d="m 90.798001,230.61301 c 0,1.99651 -2.279319,3.615 -5.091,3.615 -2.811682,0 -5.091,-1.61849 -5.091,-3.615 0,-1.99651 2.279318,-3.615 5.091,-3.615 2.811681,0 5.091,1.61849 5.091,3.615 z"
       sodipodi:cx="85.707001"
       sodipodi:cy="230.61301"
       sodipodi:rx="5.0910001"
       sodipodi:ry="3.615"
       style="opacity:0.34000017;fill:#ffffff" /><path
       enable-background="new    "
       d="m 73.453,235.272 c 2.813,0 5.093,1.618 5.093,3.615 0,1.996 -2.28,3.614 -5.093,3.614 -2.809,0 -5.088,-1.618 -5.088,-3.614 0,-1.996 2.279,-3.615 5.088,-3.615 z"
       id="path17"
       inkscape:connector-curvature="0"
       style="opacity:0.34000017;fill:#ffffff" /><ellipse
       enable-background="new    "
       cx="62.812"
       cy="176.099"
       rx="5.092"
       ry="3.615"
       id="ellipse19"
       d="m 67.904,176.099 c 0,1.99651 -2.279766,3.615 -5.092,3.615 -2.812234,0 -5.092,-1.61849 -5.092,-3.615 0,-1.99651 2.279766,-3.615 5.092,-3.615 2.812234,0 5.092,1.61849 5.092,3.615 z"
       sodipodi:cx="62.812"
       sodipodi:cy="176.099"
       sodipodi:rx="5.092"
       sodipodi:ry="3.615"
       style="opacity:0.34000017;fill:#ffffff" /><g
       id="g21"
       style="opacity:0.2"><polygon
         points="45.96,284.981 41.735,129.506 50.185,129.506 "
         id="polygon23"
         style="fill:#ffffff" /></g><ellipse
       enable-background="new    "
       cx="57.722"
       cy="307.52399"
       rx="7.3390002"
       ry="5.211"
       id="ellipse25"
       d="m 65.061,307.52399 c 0,2.87795 -3.285782,5.211 -7.339,5.211 -4.053218,0 -7.339,-2.33305 -7.339,-5.211 0,-2.87796 3.285782,-5.211 7.339,-5.211 4.053218,0 7.339,2.33304 7.339,5.211 z"
       sodipodi:cx="57.722"
       sodipodi:cy="307.52399"
       sodipodi:rx="7.3390002"
       sodipodi:ry="5.211"
       style="opacity:0.34000017;fill:#ffffff" /></g><g
     id="g27"
     transform="matrix(1.3859545,0,0,2.1122296,7.7159514e-4,-219.43882)"><path
       d="m 131.59,82.999 c -0.286,-1.004 -1.077,-1.725 -2,-2.031 -0.346,-0.474 -0.862,-0.857 -1.588,-1.061 -0.881,-1.074 -2.135,-1.261 -3.209,-0.874 -0.254,-0.066 -0.508,-0.13 -0.763,-0.191 0.753,-6.528 0.57,-13.188 -2.743,-19.059 -1.289,-2.284 -4.371,-1.7 -5.354,0.419 -3.979,-3.895 -9.316,0.709 -11.855,3.974 -0.469,0.602 -0.695,1.242 -0.744,1.862 -1.502,-1.325 -3.193,-2.027 -5.506,-2.528 C 93.039,62.472 87.742,62.963 83.787,65.683 82.984,62.372 81.098,59.44 78.32,57.176 77.916,56.846 77.437,56.64 76.937,56.539 76.719,56.122 76.517,55.7 76.289,55.284 75.676,54.169 74.766,53.733 73.863,53.762 69.707,47.428 64.269,42.392 56.4,44.906 c -0.098,0.031 -0.184,0.071 -0.275,0.109 -9.271,-1.858 -21.572,1.002 -25.053,9.356 -4.121,3.605 -6.738,8.705 -4.766,14.225 0.201,0.564 0.535,1.027 0.941,1.382 0.047,0.167 0.1,0.333 0.152,0.5 -0.705,3.627 -0.619,8.375 0.604,12.023 -0.107,0.176 -0.215,0.352 -0.324,0.526 -2.025,-0.196 -4.295,0.647 -5.994,1.681 -0.725,0.44 -1.148,1.087 -1.328,1.785 -3.604,3.15 -3.689,8.914 0.221,12.927 0.031,0.032 0.064,0.057 0.098,0.088 -1.008,1.124 -2.031,2.234 -3.078,3.322 -1.902,1.979 -3.77,3.955 -5.494,6.021 -0.857,-0.162 -1.779,0.05 -2.525,0.827 -1.779,1.854 -2.77,4.089 -3.25,6.479 -0.422,1.236 -0.76,2.511 -1.021,3.844 -0.15,0.762 -0.057,1.421 0.188,1.969 -0.074,0.164 -0.137,0.34 -0.188,0.531 -0.906,3.378 0.275,6.046 2.334,8.235 -0.656,0.848 -0.838,1.982 -0.033,3.077 0.916,1.243 4.141,3.389 5.953,5.302 -0.361,0.339 -0.631,0.798 -0.754,1.386 -0.65,3.109 -0.533,5.665 0.312,7.906 -1.266,4.126 -0.334,9.128 4.318,10.408 1.293,0.355 2.574,0.06 3.809,-0.311 0.322,-0.096 0.619,-0.155 0.9,-0.186 1.613,1.968 2.803,4.174 3.877,6.462 -0.381,2.598 0.672,5.798 2.588,8.151 -1.176,7.754 11.59,9.213 12.088,16.367 0.078,1.136 0.816,2.141 1.766,2.666 1.623,3.562 3.898,6.743 7.273,8.497 0.49,0.781 1.336,1.337 2.461,1.337 h 2 c 1.627,0 2.67,-1.294 2.9,-2.674 0.955,-0.232 1.771,-0.884 1.992,-2.028 0.438,-2.272 0.596,-4.482 0.607,-6.798 0.002,-0.492 -0.117,-0.922 -0.309,-1.299 -0.178,-8.426 -1.186,-17.539 1.674,-25.135 0.342,-0.389 0.523,-0.87 0.57,-1.385 0.527,-1.163 1.156,-2.285 1.908,-3.358 0.129,-0.176 0.254,-0.355 0.387,-0.528 0.061,-0.081 0.125,-0.162 0.188,-0.243 0.383,-0.486 0.779,-0.965 1.203,-1.43 0.064,-0.072 0.107,-0.147 0.164,-0.221 1.77,-1.489 5.143,-2.225 7.229,-3.257 2.152,-1.065 4.031,-2.857 5.85,-4.401 6.933,-5.884 11.974,-12.554 14.369,-21.375 0.701,-2.586 1.174,-5.243 2.576,-7.563 1.947,-3.225 6.943,-4.218 10.289,-4.97 6.998,-1.577 13.926,-2.064 19.008,-7.02 0.143,-0.063 0.279,-0.132 0.408,-0.223 1.162,-0.831 1.641,-1.554 1.865,-2.73 1.215,-0.381 2.121,-1.552 2.121,-2.86 0,-0.334 -0.068,-0.649 -0.17,-0.948 0.686,-1.308 1.211,-2.762 1.572,-4.302 1.93,-4.185 2.453,-8.911 0.989,-14.051 z"
       id="path29"
       inkscape:connector-curvature="0"
       style="fill:#89c080" /><g
       id="g31"><path
         d="m 114.196,90.297 c -0.188,-0.053 -0.198,-0.888 0.216,-2.388 0.422,-1.492 1.252,-3.656 2.948,-6.138 0.859,-1.232 1.933,-2.554 3.441,-3.769 0.758,-0.6 1.633,-1.177 2.697,-1.6 1.055,-0.421 2.35,-0.676 3.709,-0.461 1.357,0.199 2.658,0.885 3.658,1.775 1.014,0.892 1.793,1.954 2.453,3.065 0.629,1.061 1.248,2.401 1.578,3.742 0.352,1.339 0.537,2.704 0.621,4.086 0.162,2.763 -0.07,5.601 -0.601,8.496 -0.539,2.892 -1.369,5.85 -2.674,8.818 -0.662,1.481 -1.437,2.969 -2.463,4.424 -0.513,0.727 -1.095,1.444 -1.779,2.133 -0.349,0.344 -0.724,0.679 -1.133,1 l -0.404,0.293 -0.463,0.312 c -0.147,0.123 -0.326,0.176 -0.51,0.221 l -0.539,0.154 -9.502,2.699 -4.929,1.388 -2.508,0.703 -0.695,0.195 c -0.414,0.085 -0.815,0.308 -1.248,0.206 l -0.916,-0.067 -0.59,-0.026 c -1.576,-0.056 -2.91,0.104 -3.703,0.58 -0.424,0.237 -0.844,0.593 -1.305,1.112 -0.227,0.258 -0.459,0.551 -0.69,0.867 -0.113,0.156 -0.228,0.299 -0.298,0.421 -0.069,0.114 -0.147,0.239 -0.229,0.396 -0.647,1.178 -1.096,2.73 -1.438,4.414 -0.344,1.692 -0.588,3.524 -0.922,5.471 -0.361,1.938 -0.718,4.062 -1.845,6.311 -1.022,2.037 -2.407,3.872 -4,5.437 -3.202,3.141 -6.955,5.107 -10.424,6.794 l -2.562,1.224 -1.229,0.598 c -0.227,0.112 -0.357,0.177 -0.494,0.254 -0.141,0.08 -0.285,0.165 -0.43,0.261 -1.174,0.762 -2.346,1.92 -3.391,3.172 -2.098,2.54 -3.797,5.505 -5.09,8.515 -1.287,3.017 -2.176,6.133 -2.492,9.135 -0.168,1.232 -0.016,2.957 0.053,4.548 l 0.264,4.89 c 0.129,3.267 0.146,6.522 -0.354,9.771 -0.256,1.622 -0.646,3.251 -1.322,4.836 -0.664,1.576 -1.674,3.133 -3.076,4.319 -0.344,0.294 -0.734,0.573 -1.064,0.782 -0.295,0.193 -0.619,0.407 -0.977,0.609 -0.695,0.402 -1.438,0.756 -2.232,1.027 -1.57,0.555 -3.449,0.715 -5.137,0.225 -1.693,-0.475 -3.037,-1.467 -4.045,-2.502 -1.018,-1.049 -1.76,-2.174 -2.375,-3.28 -1.215,-2.222 -1.938,-4.4 -2.488,-6.439 -1.07,-4.089 -1.41,-7.664 -1.502,-10.583 -0.078,-2.921 0.148,-5.196 0.477,-6.715 0.328,-1.526 0.76,-2.265 0.953,-2.209 0.205,0.056 0.182,0.842 0.252,2.313 0.066,1.471 0.219,3.642 0.645,6.405 0.434,2.753 1.102,6.129 2.381,9.804 0.648,1.824 1.457,3.736 2.568,5.481 1.088,1.729 2.611,3.303 4.203,3.619 0.787,0.169 1.627,0.079 2.555,-0.293 0.459,-0.186 0.932,-0.434 1.402,-0.736 0.23,-0.146 0.473,-0.32 0.746,-0.519 0.244,-0.17 0.408,-0.306 0.588,-0.472 1.41,-1.284 2.215,-3.675 2.523,-6.364 0.318,-2.701 0.229,-5.68 0.012,-8.788 l -0.393,-4.81 c -0.066,-0.829 -0.133,-1.672 -0.18,-2.547 -0.023,-0.448 -0.043,-0.862 -0.051,-1.366 -0.012,-0.562 0.039,-1.063 0.068,-1.511 0.312,-3.719 1.291,-7.34 2.711,-10.838 1.439,-3.492 3.295,-6.887 5.838,-10.041 1.291,-1.568 2.732,-3.094 4.676,-4.4 0.242,-0.162 0.498,-0.319 0.764,-0.47 0.27,-0.154 0.559,-0.301 0.75,-0.397 l 1.299,-0.644 2.541,-1.233 c 3.318,-1.622 6.455,-3.358 8.826,-5.7 1.182,-1.162 2.15,-2.462 2.857,-3.856 0.633,-1.19 0.996,-2.877 1.318,-4.651 0.317,-1.786 0.579,-3.685 0.995,-5.647 0.427,-1.958 0.974,-4.022 2.107,-6.062 0.137,-0.247 0.297,-0.513 0.475,-0.784 0.173,-0.268 0.345,-0.484 0.5,-0.694 0.313,-0.416 0.652,-0.835 1.033,-1.253 0.75,-0.832 1.711,-1.687 2.875,-2.311 1.16,-0.633 2.424,-0.96 3.549,-1.104 1.14,-0.148 2.177,-0.141 3.164,-0.098 l 0.729,0.045 0.358,0.028 c 0.054,0.004 0.025,0.004 0.041,0.005 0.013,0.004 0.021,0.001 0.033,0.001 l 0.569,-0.148 2.521,-0.657 4.957,-1.284 9.525,-2.443 c 0.023,-0.006 0.051,-0.002 0.07,-0.016 l 0.03,-0.014 c -0.002,0.002 0.007,-0.002 0.078,-0.053 0.222,-0.161 0.442,-0.346 0.662,-0.549 0.438,-0.413 0.864,-0.894 1.262,-1.421 0.8,-1.053 1.49,-2.258 2.095,-3.493 1.205,-2.482 2.063,-5.108 2.655,-7.661 0.587,-2.558 0.906,-5.075 0.894,-7.411 -0.006,-1.166 -0.103,-2.287 -0.307,-3.311 -0.195,-1.033 -0.525,-1.878 -0.998,-2.833 -0.898,-1.811 -2.101,-3.101 -3.375,-3.377 -1.281,-0.343 -2.843,0.239 -4.117,1.076 -1.295,0.842 -2.381,1.89 -3.283,2.895 -1.805,2.031 -2.926,3.9 -3.672,5.164 -0.737,1.274 -1.115,1.982 -1.324,1.922 z"
         id="path33"
         inkscape:connector-curvature="0"
         style="fill:#231f20" /></g><g
       id="g35"><path
         d="m 39.697,183.297 c -0.068,0.4 -0.721,0.712 -1.9,0.776 -1.172,0.06 -2.879,-0.146 -4.857,-0.907 -1.971,-0.755 -4.203,-2.078 -6.229,-4.085 -2.021,-1.996 -3.834,-4.678 -4.891,-7.866 -1.061,-3.181 -1.205,-6.536 -0.553,-9.414 0.631,-2.893 2.008,-5.237 3.432,-6.839 1.432,-1.616 2.881,-2.547 3.953,-3.016 1.084,-0.462 1.805,-0.476 2.045,-0.15 0.533,0.697 -1.066,2.537 -2.488,5.55 -0.701,1.507 -1.307,3.319 -1.49,5.369 -0.195,2.042 0.039,4.322 0.799,6.614 0.76,2.292 1.953,4.344 3.285,6.035 1.336,1.698 2.809,3.034 4.154,4.071 2.701,2.063 4.885,3.005 4.74,3.862 z"
         id="path37"
         inkscape:connector-curvature="0"
         style="fill:#231f20" /></g><g
       id="g39"><path
         d="m 13.172,142.592 c 0.711,0.422 0.969,1.544 1.402,3.298 0.418,1.737 0.936,4.172 1.828,6.417 0.445,1.115 0.941,2.021 1.432,2.682 0.49,0.666 0.988,1.133 1.592,1.527 1.209,0.778 2.641,1.112 2.826,1.936 0.098,0.396 -0.105,0.87 -0.68,1.325 -0.572,0.439 -1.545,0.881 -2.928,0.908 -1.365,0.041 -3.141,-0.488 -4.582,-1.655 -1.457,-1.148 -2.543,-2.771 -3.23,-4.492 -1.354,-3.473 -1.176,-6.713 -0.49,-8.953 0.354,-1.121 0.863,-2.001 1.398,-2.523 0.539,-0.531 1.072,-0.662 1.432,-0.47 z"
         id="path41"
         inkscape:connector-curvature="0"
         style="fill:#231f20" /></g><g
       id="g43"><path
         d="m 31.697,105.297 c -0.32,0.293 -1.273,-0.311 -2.883,-1.095 -1.6,-0.775 -3.949,-1.61 -6.748,-1.108 -2.787,0.455 -5.988,2.279 -8.826,5.2 -2.822,2.898 -5.391,6.863 -6.641,11.253 -0.619,2.166 -0.812,4.384 -0.52,6.182 0.365,1.93 1.186,3.892 2.203,5.571 2.057,3.411 4.9,5.925 7.541,7.501 2.658,1.6 5.137,2.276 6.908,2.622 1.777,0.345 2.879,0.45 2.965,0.875 0.084,0.381 -0.891,1.078 -2.959,1.461 -2.045,0.375 -5.23,0.283 -8.768,-1.142 -3.514,-1.406 -7.363,-4.088 -10.312,-8.287 -1.463,-2.111 -2.688,-4.547 -3.344,-7.458 -0.604,-3.073 -0.287,-6.08 0.506,-8.944 1.652,-5.708 4.902,-10.285 8.613,-13.643 3.707,-3.341 8.205,-5.413 12.314,-5.42 2.035,-0.025 3.871,0.458 5.289,1.151 1.428,0.691 2.459,1.553 3.184,2.323 1.437,1.566 1.767,2.703 1.478,2.958 z"
         id="path45"
         inkscape:connector-curvature="0"
         style="fill:#231f20" /></g><g
       id="g47"><path
         d="m 28.197,83.797 c -0.219,0.361 -0.752,0.477 -1.482,0.517 -0.727,0.039 -1.67,0.002 -2.59,0.167 -0.934,0.16 -1.736,0.521 -2.469,1.186 -0.736,0.662 -1.469,1.727 -2.016,3.08 -0.543,1.352 -0.842,2.801 -0.934,4.085 -0.094,1.293 0.021,2.411 0.234,3.3 0.207,0.899 0.545,1.599 0.852,2.193 0.303,0.591 0.543,1.075 0.404,1.472 -0.131,0.379 -0.658,0.657 -1.59,0.54 -0.91,-0.108 -2.24,-0.734 -3.314,-2.042 -2.209,-2.614 -3.002,-7.327 -1.215,-11.796 0.896,-2.227 2.453,-4.256 4.531,-5.445 1.027,-0.591 2.154,-0.944 3.209,-1.043 1.055,-0.112 2.018,0.027 2.816,0.258 1.604,0.482 2.572,1.295 3.113,1.951 0.543,0.669 0.66,1.232 0.451,1.577 z"
         id="path49"
         inkscape:connector-curvature="0"
         style="fill:#231f20" /></g><g
       id="g51"><path
         d="m 85.196,72.797 c -0.426,0.062 -0.969,-1.455 -2,-4.045 C 82.156,66.179 80.563,62.498 77.699,58.637 74.856,54.8 70.638,50.794 65.006,48.264 59.422,45.705 52.44,44.847 45.594,46.7 c -1.709,0.45 -3.365,1.047 -4.951,1.755 -0.793,0.354 -1.568,0.738 -2.326,1.144 -0.744,0.399 -1.537,0.856 -2.158,1.261 -2.641,1.768 -4.779,4.088 -6.201,6.644 -1.439,2.562 -2.229,5.363 -2.594,8.081 -0.363,2.724 -0.326,5.364 -0.115,7.773 0.439,4.837 1.502,8.751 2.207,11.467 0.727,2.718 1.123,4.281 0.742,4.472 -0.357,0.181 -1.469,-1.035 -2.904,-3.593 -1.41,-2.56 -3.186,-6.474 -4.242,-11.738 -0.518,-2.628 -0.836,-5.603 -0.641,-8.852 0.199,-3.235 0.945,-6.783 2.66,-10.192 1.705,-3.416 4.385,-6.55 7.795,-8.93 0.902,-0.616 1.709,-1.092 2.598,-1.593 0.877,-0.49 1.783,-0.953 2.713,-1.38 1.863,-0.856 3.832,-1.579 5.883,-2.12 4.102,-1.092 8.332,-1.384 12.326,-0.922 3.998,0.454 7.744,1.645 11.012,3.303 6.582,3.326 11.123,8.38 13.842,13.02 2.75,4.681 3.823,8.95 4.217,11.865 0.377,2.939 0.133,4.579 -0.261,4.632 z"
         id="path53"
         inkscape:connector-curvature="0"
         style="fill:#231f20" /></g><g
       id="g55"><path
         d="m 104.196,73.797 c -0.854,0.004 -1.485,-1.588 -2.602,-3.492 -1.098,-1.909 -2.881,-4.019 -5.424,-4.833 -2.525,-0.866 -5.213,-0.227 -7.264,0.641 -2.057,0.858 -3.545,1.715 -4.211,1.184 -0.623,-0.472 -0.352,-2.355 1.697,-4.602 1.028,-1.091 2.557,-2.233 4.604,-2.914 2.023,-0.687 4.598,-0.832 7.059,-0.005 2.467,0.805 4.443,2.452 5.662,4.214 1.24,1.77 1.783,3.61 1.945,5.112 0.28,3.053 -0.686,4.714 -1.466,4.695 z"
         id="path57"
         inkscape:connector-curvature="0"
         style="fill:#231f20" /></g><g
       id="g59"><path
         d="m 122.696,76.797 c -0.844,-0.118 -1.143,-2.48 -1.42,-5.958 -0.157,-1.724 -0.33,-3.762 -0.834,-5.69 -0.252,-0.955 -0.602,-1.863 -1.051,-2.549 -0.455,-0.694 -0.947,-1.131 -1.623,-1.444 -0.338,-0.159 -0.735,-0.276 -1.17,-0.358 -0.229,-0.04 -0.34,-0.052 -0.52,-0.06 -0.176,-0.008 -0.371,-10e-4 -0.574,0.019 -0.816,0.071 -1.76,0.367 -2.641,0.753 -1.787,0.783 -3.35,1.904 -4.551,2.925 -1.205,1.034 -2.06,1.995 -2.668,2.705 -0.619,0.703 -1.023,1.194 -1.449,1.159 -0.396,-0.026 -0.791,-0.68 -0.766,-1.901 0.02,-1.211 0.51,-2.907 1.612,-4.667 1.113,-1.749 2.776,-3.606 5.215,-5.097 1.226,-0.731 2.648,-1.396 4.414,-1.695 0.438,-0.074 0.902,-0.122 1.388,-0.129 0.483,-0.014 1.043,0.029 1.475,0.093 0.893,0.137 1.822,0.378 2.738,0.801 1.854,0.821 3.367,2.376 4.199,3.938 0.858,1.573 1.223,3.115 1.405,4.505 0.338,2.794 0.015,5.103 -0.369,6.982 -0.832,3.739 -2.016,5.781 -2.81,5.668 z"
         id="path61"
         inkscape:connector-curvature="0"
         style="fill:#231f20" /></g><g
       id="g63"
       style="opacity:0.2"><path
         d="m 36.697,77.797 c 0.006,0 -0.025,-0.491 -0.188,-1.396 -0.15,-0.904 -0.428,-2.227 -0.65,-3.898 -0.221,-1.668 -0.4,-3.688 -0.24,-5.937 0.156,-2.244 0.635,-4.73 1.771,-7.221 1.125,-2.471 2.873,-4.744 5.139,-6.157 1.121,-0.705 2.35,-1.167 3.514,-1.35 1.166,-0.184 2.248,-0.112 3.154,0.088 1.824,0.408 2.996,1.176 3.789,1.64 0.783,0.494 1.205,0.739 1.211,0.73 0.002,10e-4 -0.459,-0.208 -1.355,-0.327 -0.881,-0.119 -2.23,-0.142 -3.615,0.289 -0.688,0.217 -1.363,0.547 -1.967,0.992 -0.607,0.444 -1.148,0.996 -1.65,1.643 -0.998,1.296 -1.873,2.996 -2.764,4.949 -0.885,1.952 -1.717,3.946 -2.518,5.813 -0.793,1.869 -1.551,3.615 -2.143,5.119 -0.592,1.504 -1.027,2.763 -1.246,3.644 -0.228,0.882 -0.246,1.38 -0.242,1.379 z"
         id="path65"
         inkscape:connector-curvature="0"
         style="fill:#ffffff" /></g><g
       id="g67"
       style="opacity:0.2"><path
         d="m 18.197,130.297 c 0,0 -0.072,-0.058 -0.227,-0.145 l -0.699,-0.391 c -0.299,-0.184 -0.701,-0.397 -1.117,-0.723 -0.418,-0.322 -0.914,-0.711 -1.383,-1.227 -0.945,-1.018 -1.895,-2.49 -2.422,-4.289 -0.537,-1.792 -0.668,-3.887 -0.197,-5.975 0.461,-2.088 1.471,-3.948 2.744,-5.346 1.27,-1.406 2.793,-2.32 4.109,-2.79 0.656,-0.245 1.279,-0.36 1.799,-0.45 0.521,-0.094 0.975,-0.098 1.324,-0.119 0.354,-0.018 0.623,-0.012 0.801,-0.021 0.178,-0.007 0.268,-0.024 0.268,-0.024 0.004,0 -0.375,0.069 -0.938,0.453 -0.285,0.177 -0.598,0.457 -0.922,0.788 -0.328,0.328 -0.635,0.768 -0.93,1.236 -0.59,0.953 -1.029,2.154 -1.398,3.435 -0.367,1.29 -0.674,2.679 -1,4.137 -0.318,1.459 -0.625,2.862 -0.852,4.201 -0.225,1.336 -0.359,2.622 -0.275,3.75 0.049,0.558 0.115,1.089 0.25,1.534 0.133,0.445 0.281,0.836 0.445,1.128 0.319,0.603 0.624,0.84 0.62,0.838 z"
         id="path69"
         inkscape:connector-curvature="0"
         style="fill:#ffffff" /></g><g
       id="g71"
       style="opacity:0.2"><path
         d="m 36.697,163.797 c 0.006,-0.002 -0.043,-0.104 -0.279,-0.259 -0.107,-0.081 -0.25,-0.178 -0.443,-0.292 -0.178,-0.116 -0.455,-0.241 -0.666,-0.409 -0.217,-0.165 -0.516,-0.351 -0.725,-0.581 -0.211,-0.229 -0.496,-0.486 -0.666,-0.782 -0.389,-0.586 -0.584,-1.316 -0.492,-2.021 0.092,-0.709 0.455,-1.301 0.943,-1.738 l 2.133,-1.911 0.195,0.093 c 0.244,0.117 0.494,0.314 0.783,0.502 0.275,0.206 0.654,0.398 1.023,0.871 0.18,0.227 0.311,0.505 0.35,0.726 0.043,0.224 0.021,0.388 -0.012,0.511 -0.096,0.25 -0.225,0.381 -0.314,0.509 -0.383,0.486 -0.348,0.799 -0.33,0.781 0.025,-0.02 -0.203,-0.147 -0.791,-0.498 -0.145,-0.08 -0.32,-0.182 -0.494,-0.179 -0.018,0.002 -0.035,0.002 -0.053,0.007 -0.025,0.011 0.01,-0.002 0.057,-0.019 l 0.119,-0.05 c 0.113,-0.044 0.203,-0.091 0.254,-0.123 0.104,-0.062 0.094,-0.083 0.051,-0.021 -0.043,0.061 -0.123,0.208 -0.203,0.468 -0.037,0.123 -0.08,0.281 -0.117,0.462 l -0.076,0.408 c -0.037,0.144 -0.133,0.327 -0.246,0.444 l 2.328,-1.818 c 0.256,0.494 0.398,0.938 0.352,1.33 -0.047,0.392 -0.285,0.718 -0.639,1.088 -0.15,0.182 -0.398,0.379 -0.568,0.573 -0.16,0.194 -0.406,0.4 -0.562,0.593 -0.152,0.189 -0.369,0.386 -0.49,0.552 -0.131,0.167 -0.227,0.312 -0.287,0.428 -0.144,0.24 -0.143,0.357 -0.135,0.355 z"
         id="path73"
         inkscape:connector-curvature="0"
         style="fill:#ffffff" /></g><g
       id="g75"
       style="opacity:0.2"><path
         d="m 91.696,74.797 c -0.004,-0.007 -0.01,0.038 0.111,0.193 0.053,0.069 0.133,0.162 0.271,0.257 0.112,0.076 0.045,0.029 0.019,0.017 l -0.078,-0.04 c -0.064,-0.023 -0.09,-0.034 -0.134,-0.035 -0.014,-0.003 -0.021,0.003 0.009,-0.008 0.057,-0.016 0.223,-0.138 0.356,-0.369 0.142,-0.227 0.231,-0.505 0.304,-0.757 0.021,-0.075 0.079,-0.412 0.024,-0.064 -0.027,0.18 -0.045,0.453 -0.039,0.638 0.004,0.18 0.008,0.435 0.026,0.584 0.021,0.164 0.041,0.285 0.062,0.371 0.041,0.195 0.069,0.22 0.069,0.213 -0.002,-0.007 -0.024,0.018 -0.081,0.208 L 92.5,76.37 c -0.049,0.148 -0.121,0.392 -0.205,0.563 -0.08,0.178 -0.192,0.439 -0.317,0.601 -0.123,0.17 -0.285,0.402 -0.463,0.521 -0.173,0.148 -0.384,0.235 -0.601,0.263 -0.228,0.021 -0.453,-0.015 -0.709,-0.17 -0.233,-0.141 -0.483,-0.397 -0.656,-0.734 -0.184,-0.34 -0.305,-0.789 -0.274,-1.234 -0.006,-0.458 0.223,-0.872 0.43,-1.148 0.207,-0.268 0.533,-0.408 0.76,-0.451 0.223,-0.073 0.486,-0.011 0.646,0.02 0.172,0.035 0.291,0.085 0.377,0.117 0.182,0.081 0.213,0.086 0.208,0.079 z"
         id="path77"
         inkscape:connector-curvature="0"
         style="fill:#ffffff" /></g><g
       id="g79"
       style="opacity:0.2"><path
         d="m 99.696,76.297 c 0.003,-0.007 -0.024,0.02 -0.034,0.215 -0.002,0.043 -0.004,0.094 0,0.155 -0.002,0.035 0.028,0.199 0.019,0.132 -0.007,-0.043 -0.027,-0.098 -0.035,-0.128 -0.033,-0.084 -0.082,-0.107 -0.043,-0.084 0.037,0.021 0.182,0.042 0.362,-0.005 0.185,-0.043 0.369,-0.136 0.531,-0.228 l 0.219,-0.143 0.048,-0.035 c 0.004,-0.003 0.022,-0.018 0.016,-0.012 l -0.07,0.052 -0.242,0.205 c -0.133,0.119 -0.314,0.294 -0.414,0.407 -0.109,0.122 -0.186,0.216 -0.238,0.286 -0.117,0.155 -0.119,0.188 -0.114,0.184 0.004,-0.005 -0.025,0 -0.189,0.106 l -0.321,0.194 c -0.133,0.077 -0.351,0.208 -0.521,0.28 -0.176,0.078 -0.432,0.195 -0.625,0.231 -0.199,0.046 -0.469,0.109 -0.67,0.083 C 97.155,78.19 96.95,78.117 96.786,78 c -0.168,-0.128 -0.295,-0.296 -0.361,-0.568 -0.063,-0.247 -0.057,-0.586 0.061,-0.927 0.109,-0.354 0.339,-0.737 0.668,-1.018 0.312,-0.312 0.757,-0.43 1.086,-0.469 0.326,-0.034 0.644,0.106 0.822,0.239 0.197,0.112 0.328,0.343 0.41,0.479 0.086,0.149 0.127,0.27 0.158,0.354 0.057,0.189 0.064,0.214 0.066,0.207 z"
         id="path81"
         inkscape:connector-curvature="0"
         style="fill:#ffffff" /></g><g
       id="g83"><circle
         cx="95.625999"
         cy="33.021"
         r="11.224"
         id="circle85"
         d="m 106.85,33.021 c 0,6.198844 -5.02516,11.224 -11.224001,11.224 -6.198844,0 -11.224,-5.025156 -11.224,-11.224 0,-6.198844 5.025156,-11.224 11.224,-11.224 6.198841,0 11.224001,5.025156 11.224001,11.224 z"
         sodipodi:cx="95.625999"
         sodipodi:cy="33.021"
         sodipodi:rx="11.224"
         sodipodi:ry="11.224"
         style="fill:#89c080" /><path
         d="m 108.599,33.064 c -0.078,1.598 -0.492,3.345 -1.207,4.83 -0.722,1.508 -1.744,2.845 -2.963,3.929 -2.433,2.179 -5.604,3.39 -8.804,3.421 -3.201,0.073 -6.435,-1.169 -8.83,-3.393 -2.42,-2.214 -3.998,-5.382 -4.144,-8.875 -0.182,-3.302 1.054,-6.908 3.457,-9.472 1.205,-1.281 2.666,-2.351 4.302,-3.071 0.817,-0.357 1.674,-0.635 2.551,-0.824 0.438,-0.094 0.879,-0.167 1.324,-0.222 l 0.67,-0.062 0.733,-0.028 0.552,0.011 0.723,0.049 c 0.457,0.046 0.896,0.108 1.341,0.193 0.883,0.176 1.741,0.46 2.565,0.813 1.646,0.723 3.114,1.801 4.301,3.11 2.365,2.632 3.601,6.152 3.431,9.545 l -0.002,0.046 z m -3.498,-0.043 c -0.144,-2.494 -1.33,-4.814 -3.146,-6.327 -0.893,-0.769 -1.91,-1.357 -2.979,-1.758 -0.533,-0.209 -1.088,-0.354 -1.646,-0.462 -0.275,-0.056 -0.566,-0.099 -0.84,-0.129 l -0.375,-0.032 -0.551,-0.015 c -2.168,-0.064 -4.562,0.79 -6.293,2.368 -1.775,1.581 -2.963,3.815 -3.119,6.4 -0.172,2.394 0.674,5.068 2.434,6.998 0.883,0.96 1.957,1.769 3.168,2.311 1.213,0.54 2.527,0.835 3.873,0.871 2.689,0.06 5.357,-1.152 7.07,-3.153 0.859,-0.994 1.502,-2.146 1.906,-3.354 0.414,-1.229 0.575,-2.42 0.498,-3.761 v 0.043 l 0,0 z"
         id="path87"
         inkscape:connector-curvature="0"
         style="fill:#020202" /></g><g
       id="g89"><circle
         cx="74.212997"
         cy="9.2969999"
         r="5.5"
         id="circle91"
         d="m 79.712997,9.2969999 c 0,3.0375661 -2.462433,5.5000001 -5.5,5.5000001 -3.037566,0 -5.5,-2.462434 -5.5,-5.5000001 0,-3.0375661 2.462434,-5.5 5.5,-5.5 3.037567,0 5.5,2.4624339 5.5,5.5 z"
         sodipodi:cx="74.212997"
         sodipodi:cy="9.2969999"
         sodipodi:rx="5.5"
         sodipodi:ry="5.5"
         style="fill:#89c080" /><path
         d="m 81.976,9.354 0.016,0.27 -0.006,0.431 c -0.014,0.266 -0.031,0.514 -0.07,0.771 -0.074,0.51 -0.197,1.018 -0.387,1.501 -0.381,0.97 -1.016,1.825 -1.779,2.505 -1.508,1.391 -3.592,2.078 -5.535,1.909 -1.951,-0.151 -3.754,-1.123 -4.924,-2.521 -1.186,-1.396 -1.758,-3.197 -1.686,-4.923 0.143,-3.5 3.002,-6.506 6.641,-6.755 1.697,-0.163 3.66,0.373 5.127,1.598 1.494,1.202 2.49,3.125 2.605,5.158 L 81.976,9.354 z M 77.449,9.297 C 77.576,8.444 77.387,7.506 76.832,6.677 76.27,5.853 75.369,5.201 74.183,5.052 73.131,4.903 71.864,5.285 71.035,6.118 c -0.846,0.824 -1.316,2.021 -1.213,3.179 0.061,1.159 0.676,2.222 1.537,2.855 0.861,0.65 1.922,0.866 2.855,0.701 0.94,-0.155 1.72,-0.656 2.242,-1.314 0.254,-0.336 0.437,-0.7 0.606,-1.062 0.086,-0.182 0.172,-0.366 0.236,-0.563 l 0.088,-0.296 0.033,-0.108 0.029,-0.27 0.001,0.057 0,0 z"
         id="path93"
         inkscape:connector-curvature="0"
         style="fill:#020202" /></g><g
       id="g95"><circle
         cx="57.946999"
         cy="29.547001"
         r="3.75"
         id="circle97"
         d="m 61.696999,29.547001 c 0,2.071068 -1.678933,3.75 -3.75,3.75 -2.071068,0 -3.75,-1.678932 -3.75,-3.75 0,-2.071068 1.678932,-3.75 3.75,-3.75 2.071067,0 3.75,1.678932 3.75,3.75 z"
         sodipodi:cx="57.946999"
         sodipodi:cy="29.547001"
         sodipodi:rx="3.75"
         sodipodi:ry="3.75"
         style="fill:#89c080" /><path
         d="m 63.621,29.645 0.006,0.369 c -0.01,0.192 -0.035,0.43 -0.062,0.643 -0.068,0.381 -0.182,0.733 -0.338,1.078 -0.32,0.679 -0.777,1.281 -1.322,1.771 -1.092,0.979 -2.578,1.453 -3.957,1.329 -1.373,-0.108 -2.674,-0.79 -3.512,-1.776 -0.857,-0.978 -1.307,-2.264 -1.266,-3.511 0.029,-2.53 2.125,-4.799 4.777,-4.997 1.291,-0.115 2.721,0.292 3.793,1.203 1.086,0.896 1.805,2.309 1.883,3.794 l -0.002,0.097 z m -3.85,-0.098 c 0.084,-0.481 -0.004,-1.021 -0.314,-1.509 -0.314,-0.485 -0.836,-0.885 -1.51,-0.994 -0.662,-0.117 -1.391,0.095 -1.928,0.575 -0.533,0.494 -0.824,1.202 -0.795,1.928 0.033,0.72 0.391,1.385 0.93,1.793 0.549,0.409 1.199,0.535 1.793,0.42 0.586,-0.117 1.053,-0.449 1.346,-0.867 0.148,-0.205 0.248,-0.436 0.303,-0.663 0.027,-0.112 0.057,-0.231 0.088,-0.329 0.008,-0.03 0.025,-0.035 0.045,-0.085 l 0.045,-0.367 -0.003,0.098 z"
         id="path99"
         inkscape:connector-curvature="0"
         style="fill:#020202" /></g><g
       id="g101"><circle
         cx="139.198"
         cy="68.168999"
         r="3.628"
         id="circle103"
         d="m 142.826,68.168999 c 0,2.003689 -1.62431,3.628 -3.628,3.628 -2.00369,0 -3.628,-1.624311 -3.628,-3.628 0,-2.003689 1.62431,-3.628 3.628,-3.628 2.00369,0 3.628,1.624311 3.628,3.628 z"
         sodipodi:cx="139.198"
         sodipodi:cy="68.168999"
         sodipodi:rx="3.628"
         sodipodi:ry="3.628"
         style="fill:#89c080" /><path
         d="m 143.888,68.223 c -0.205,1.079 -0.48,2.374 -1.289,3.346 -0.781,0.99 -2.009,1.725 -3.398,1.911 -1.373,0.198 -2.949,-0.21 -4.129,-1.183 -0.584,-0.493 -1.088,-1.109 -1.443,-1.819 -0.17,-0.358 -0.313,-0.732 -0.41,-1.121 -0.043,-0.195 -0.084,-0.392 -0.115,-0.589 l -0.031,-0.298 -0.012,-0.15 -0.006,-0.074 -0.002,-0.038 V 68.19 l 0.002,-0.147 0.002,-0.356 c 0.014,-0.209 0.043,-0.477 0.08,-0.711 0.08,-0.414 0.191,-0.794 0.342,-1.175 0.312,-0.752 0.779,-1.434 1.367,-1.984 0.588,-0.549 1.293,-0.967 2.047,-1.214 0.379,-0.118 0.767,-0.204 1.154,-0.242 0.195,-0.013 0.389,-0.025 0.58,-0.028 l 0.684,0.043 0.353,0.087 c 0.192,0.041 0.428,0.098 0.635,0.156 0.365,0.126 0.693,0.281 1.013,0.464 0.627,0.373 1.16,0.859 1.565,1.412 0.819,1.102 1.16,2.454 1.017,3.676 l -0.006,0.052 z m -2.121,-0.054 c -0.142,-0.68 -0.58,-1.216 -1.111,-1.455 -0.266,-0.119 -0.537,-0.17 -0.787,-0.162 -0.123,0.006 -0.252,0.025 -0.35,0.053 -0.029,0.024 -0.027,0.04 -0.07,0.051 l -0.359,0.05 c 0.219,0.007 0.061,0.002 0.107,0.005 h -0.002 l -0.004,0.003 -0.01,0.005 -0.019,0.011 -0.035,0.019 -0.067,0.037 -0.123,0.077 c -0.076,0.06 -0.146,0.11 -0.207,0.168 -0.123,0.117 -0.224,0.237 -0.308,0.359 -0.084,0.123 -0.151,0.245 -0.207,0.371 -0.024,0.059 -0.051,0.135 -0.067,0.185 0.002,0 -0.008,-0.033 -0.025,-0.007 l -0.033,0.355 c 0.006,-0.255 0.002,-0.07 0.004,-0.126 v 0.002 0.003 0.007 l -0.002,0.014 -0.004,0.027 -0.012,0.058 c -0.002,0.039 -0.002,0.075 -0.01,0.114 0,0.076 -0.006,0.157 0.002,0.241 0.006,0.168 0.041,0.356 0.129,0.535 0.16,0.378 0.471,0.75 1.002,0.942 0.514,0.191 1.172,0.146 1.732,-0.214 0.271,-0.183 0.521,-0.425 0.704,-0.722 0.087,-0.149 0.146,-0.32 0.162,-0.487 v -0.217 l -0.03,-0.358 v 0.056 z"
         id="path105"
         inkscape:connector-curvature="0"
         style="fill:#020202" /></g><circle
       enable-background="new    "
       cx="100.455"
       cy="31.422001"
       r="1.875"
       id="circle107"
       d="m 102.33,31.422001 c 0,1.035534 -0.83946,1.875 -1.875,1.875 -1.035532,0 -1.874998,-0.839466 -1.874998,-1.875 0,-1.035534 0.839466,-1.875 1.874998,-1.875 1.03554,0 1.875,0.839466 1.875,1.875 z"
       sodipodi:cx="100.455"
       sodipodi:cy="31.422001"
       sodipodi:rx="1.875"
       sodipodi:ry="1.875"
       style="opacity:0.2;fill:#ffffff" /><circle
       enable-background="new    "
       cx="74.212997"
       cy="7.4219999"
       r="1.875"
       id="circle109"
       d="m 76.087997,7.4219999 c 0,1.0355339 -0.839466,1.875 -1.875,1.875 -1.035533,0 -1.875,-0.8394661 -1.875,-1.875 0,-1.0355339 0.839467,-1.875 1.875,-1.875 1.035534,0 1.875,0.8394661 1.875,1.875 z"
       sodipodi:cx="74.212997"
       sodipodi:cy="7.4219999"
       sodipodi:rx="1.875"
       sodipodi:ry="1.875"
       style="opacity:0.2;fill:#ffffff" /></g></svg>