<?xml version="1.0" encoding="UTF-8" standalone="no"?>
<!-- Generator: Adobe Illustrator 16.0.0, SVG Export Plug-In . SVG Version: 6.00 Build 0)  -->

<svg
   xmlns:dc="http://purl.org/dc/elements/1.1/"
   xmlns:cc="http://creativecommons.org/ns#"
   xmlns:rdf="http://www.w3.org/1999/02/22-rdf-syntax-ns#"
   xmlns:svg="http://www.w3.org/2000/svg"
   xmlns="http://www.w3.org/2000/svg"
   xmlns:sodipodi="http://sodipodi.sourceforge.net/DTD/sodipodi-0.dtd"
   xmlns:inkscape="http://www.inkscape.org/namespaces/inkscape"
   version="1.1"
   id="Layer_1"
   x="0px"
   y="0px"
   width="120.922px"
   height="650.396px"
   viewBox="0 0 200.922 650.396"
   enable-background="new 0 0 200.922 387.396"
   xml:space="preserve"
   inkscape:version="0.48.4 r9939"
   sodipodi:docname="05 Blue.svg"><metadata
     id="metadata113"><rdf:RDF><cc:Work
         rdf:about=""><dc:format>image/svg+xml</dc:format><dc:type
           rdf:resource="http://purl.org/dc/dcmitype/StillImage" /></cc:Work></rdf:RDF></metadata><defs
     id="defs111" /><sodipodi:namedview
     pagecolor="#ffffff"
     bordercolor="#666666"
     borderopacity="1"
     objecttolerance="10"
     gridtolerance="10"
     guidetolerance="10"
     inkscape:pageopacity="0"
     inkscape:pageshadow="2"
     inkscape:window-width="640"
     inkscape:window-height="480"
     id="namedview109"
     showgrid="false"
     inkscape:zoom="0.60676649"
     inkscape:cx="71.960999"
     inkscape:cy="248.4871"
     inkscape:window-x="75"
     inkscape:window-y="34"
     inkscape:window-maximized="0"
     inkscape:current-layer="Layer_1" /><g
     id="g3"
     transform="matrix(1.3805317,0,0,2.1788362,3.8022221e-4,-209.26067)"><path
       d="m 26.386,113.021 h 99.374 c 3.394,0 6.144,2.028 6.144,4.534 v 6.273 c 0,2.504 -2.75,4.534 -6.144,4.534 h -8.443 V 387.707 H 34.829 V 128.364 h -8.442 c -3.393,0 -6.142,-2.03 -6.142,-4.534 v -6.273 c -0.002,-2.506 2.748,-4.536 6.141,-4.536 z"
       id="path5"
       inkscape:connector-curvature="0"
       style="fill:#4869b1" /><rect
       x="36.457001"
       y="156.089"
       width="80.791"
       height="217.08299"
       id="rect7"
       style="fill:#4869b1" /><path
       d="m 134.722,123.939 -0.005,-0.048 c 0,0 0,-0.115 0,-0.078 l -0.003,-0.022 -0.011,-0.1 -0.021,-0.195 -0.045,-0.392 c -0.056,-0.521 -0.124,-1.043 -0.166,-1.564 -0.093,-1.042 -0.204,-2.083 -0.265,-3.126 l -0.056,-0.783 c -0.019,-0.299 -0.062,-0.691 -0.154,-1.027 -0.185,-0.695 -0.513,-1.367 -0.993,-1.973 -0.961,-1.21 -2.47,-2.151 -4.219,-2.647 -0.883,-0.25 -1.788,-0.381 -2.754,-0.395 l -2.169,0.005 c -1.411,0.011 -2.824,0.004 -4.238,-0.007 -2.826,-0.019 -5.65,-0.077 -8.475,-0.166 -5.65,-0.178 -11.306,-0.501 -16.953,-0.809 -5.653,-0.3 -11.302,-0.588 -16.952,-0.731 -5.651,-0.146 -11.302,-0.235 -16.955,-0.303 -5.648,-0.062 -11.299,-0.068 -16.95,-0.082 l -16.953,-0.063 c -2.694,-0.028 -5.426,0.736 -7.456,2.065 -2.038,1.326 -3.404,3.228 -3.702,5.278 l -0.047,0.455 -0.019,0.208 -0.017,0.515 -0.034,0.835 -0.048,1.67 c -0.034,1.114 -0.027,2.229 -0.021,3.345 0,0.978 0.267,2.041 0.78,2.987 0.513,0.956 1.271,1.833 2.216,2.571 1.871,1.488 4.546,2.406 7.25,2.493 1.439,0.022 1.935,-0.094 2.738,-0.151 0.758,-0.075 1.511,-0.16 2.267,-0.261 0.431,-0.059 0.863,-0.129 1.297,-0.195 -1.133,20.65 -1.678,41.298 -2.107,61.947 -0.392,21.612 -0.514,43.224 -0.439,64.834 0.083,21.615 0.36,43.227 1.014,64.837 0.312,10.806 0.714,21.613 1.226,32.419 0.555,10.805 1.09,21.61 1.972,32.417 v 10e-4 1.161 h 1.574 82.487 1.572 l 0.003,-1.161 0.03,-16.209 0.075,-16.209 0.258,-32.419 0.408,-32.418 0.201,-16.207 0.265,-16.21 0.537,-32.418 0.6,-32.418 c 0.396,-20.533 0.844,-41.066 1.38,-61.6 1.05,-0.128 2.107,-0.246 3.174,-0.358 1.144,-0.082 2.268,-0.3 3.295,-0.647 1.024,-0.353 1.948,-0.824 2.736,-1.382 1.564,-1.125 2.573,-2.617 2.812,-4.153 0.034,-0.192 0.047,-0.38 0.061,-0.577 l 0.011,-0.332 c 0.001,-0.087 -0.007,-0.134 -0.012,-0.207 z m -5.066,-6.306 -0.056,0.783 c -0.063,1.042 -0.175,2.084 -0.265,3.126 -0.043,0.521 -0.111,1.042 -0.167,1.564 l -0.045,0.392 -0.021,0.195 -0.011,0.1 -0.002,0.022 c -0.003,0.056 0,-0.046 -0.003,-0.027 l -0.008,0.049 c -0.008,0.058 -0.021,0.143 -0.029,0.182 -0.011,0.02 -0.021,0.04 -0.029,0.059 -0.026,0.062 -0.056,0.132 -0.089,0.195 -0.265,0.518 -0.78,0.928 -1.385,1.138 -0.602,0.219 -1.244,0.224 -1.772,0.078 -2.78,-0.297 -5.638,-0.635 -8.449,-1.115 h -0.007 l -5.515,0.08 0.105,3.914 c 0.575,21.611 1.041,43.224 1.457,64.835 l 0.602,32.418 0.536,32.418 0.263,16.21 0.205,16.207 0.406,32.418 0.258,32.419 0.074,16.209 0.029,15.045 H 36.492 c 0.826,-10.419 1.35,-20.837 1.885,-31.255 0.511,-10.806 0.913,-21.613 1.225,-32.419 0.65,-21.611 0.933,-43.223 1.01,-64.837 0.075,-21.611 -0.047,-43.222 -0.436,-64.834 -0.447,-21.611 -1.005,-43.224 -2.252,-64.835 l -0.139,-2.382 -2.957,0.099 h -0.005 c -1.511,-0.355 -3.021,-0.601 -4.531,-0.802 -0.755,-0.101 -1.509,-0.183 -2.266,-0.258 -0.702,-0.078 -1.721,-0.134 -1.787,-0.199 -0.308,-0.133 -0.503,-0.292 -0.646,-0.469 -0.066,-0.09 -0.111,-0.18 -0.13,-0.266 -0.024,-0.095 -0.024,-0.146 -0.021,-0.281 0.005,-1.115 0.013,-2.23 -0.022,-3.345 l -0.047,-1.67 -0.059,-1.331 c -0.021,-0.17 0.059,-0.394 0.262,-0.562 0.203,-0.178 0.479,-0.267 0.807,-0.29 l 16.953,-0.065 c 5.651,-0.012 11.302,-0.019 16.95,-0.082 5.653,-0.064 11.306,-0.152 16.957,-0.301 5.65,-0.145 11.299,-0.433 16.952,-0.733 5.647,-0.306 11.302,-0.628 16.952,-0.809 2.824,-0.088 5.648,-0.146 8.475,-0.166 1.413,-0.008 2.827,-0.017 4.237,-0.005 l 1.062,0.002 0.529,0.002 0.265,0.002 0.215,0.007 c 0.447,0.023 0.944,0.104 1.371,0.247 0.884,0.272 1.604,0.8 1.998,1.418 0.198,0.313 0.328,0.64 0.363,0.976 0.018,0.179 0.01,0.306 -0.006,0.529 z"
       id="path9"
       inkscape:connector-curvature="0"
       style="fill:#231f20" /><path
       enable-background="new    "
       d="m 98.522,198.368 c 0,2.443 -2.681,4.422 -5.989,4.422 -3.308,0 -5.989,-1.979 -5.989,-4.422 0,-2.438 2.681,-4.419 5.989,-4.419 3.308,0 5.989,1.978 5.989,4.419 z"
       id="path11"
       inkscape:connector-curvature="0"
       style="opacity:0.34000017;fill:#ffffff" /><ellipse
       enable-background="new    "
       cx="56.938"
       cy="168.58"
       rx="3.447"
       ry="2.5439999"
       id="ellipse13"
       d="m 60.385,168.58 c 0,1.40501 -1.543275,2.544 -3.447,2.544 -1.903726,0 -3.447,-1.13899 -3.447,-2.544 0,-1.40501 1.543274,-2.544 3.447,-2.544 1.903725,0 3.447,1.13899 3.447,2.544 z"
       sodipodi:cx="56.938"
       sodipodi:cy="168.58"
       sodipodi:rx="3.447"
       sodipodi:ry="2.5439999"
       style="opacity:0.34000017;fill:#ffffff" /><ellipse
       enable-background="new    "
       cx="80.553001"
       cy="175.64101"
       rx="2.1270001"
       ry="1.569"
       id="ellipse15"
       d="m 82.680001,175.64101 c 0,0.86653 -0.95229,1.569 -2.127,1.569 -1.174709,0 -2.127,-0.70247 -2.127,-1.569 0,-0.86654 0.952291,-1.569 2.127,-1.569 1.17471,0 2.127,0.70246 2.127,1.569 z"
       sodipodi:cx="80.553001"
       sodipodi:cy="175.64101"
       sodipodi:rx="2.1270001"
       sodipodi:ry="1.569"
       style="opacity:0.34000017;fill:#ffffff" /><path
       enable-background="new    "
       d="m 72.614,188.764 c 1.902,0 3.445,1.139 3.445,2.544 0,1.404 -1.543,2.544 -3.445,2.544 -1.906,0 -3.449,-1.14 -3.449,-2.544 0,-1.405 1.543,-2.544 3.449,-2.544 z"
       id="path17"
       inkscape:connector-curvature="0"
       style="opacity:0.34000017;fill:#ffffff" /><ellipse
       enable-background="new    "
       cx="60.386002"
       cy="241.02"
       rx="4.8990002"
       ry="3.615"
       id="ellipse19"
       d="m 65.285002,241.02 c 0,1.99651 -2.193357,3.615 -4.899,3.615 -2.705643,0 -4.899001,-1.61849 -4.899001,-3.615 0,-1.99651 2.193358,-3.615 4.899001,-3.615 2.705643,0 4.899,1.61849 4.899,3.615 z"
       sodipodi:cx="60.386002"
       sodipodi:cy="241.02"
       sodipodi:rx="4.8990002"
       sodipodi:ry="3.615"
       style="opacity:0.34000017;fill:#ffffff" /><g
       id="g21"
       style="opacity:0.2"><polygon
         points="53.732,123.959 49.667,279.436 45.602,123.959 "
         id="polygon23"
         style="fill:#ffffff" /></g></g><g
     id="g25"
     transform="matrix(1.3805317,0,0,2.1788362,3.8022221e-4,-209.26067)"><path
       d="m 131.59,81.452 c -0.287,-1.004 -1.078,-1.725 -2,-2.031 -0.346,-0.474 -0.863,-0.856 -1.588,-1.061 -0.881,-1.074 -2.135,-1.261 -3.209,-0.874 -0.254,-0.066 -0.508,-0.13 -0.762,-0.191 0.752,-6.527 0.57,-13.188 -2.744,-19.059 -1.289,-2.284 -4.371,-1.7 -5.355,0.419 -3.979,-3.896 -9.315,0.709 -11.854,3.974 -0.47,0.603 -0.695,1.242 -0.744,1.862 -1.502,-1.325 -3.192,-2.027 -5.506,-2.528 -4.789,-1.038 -10.086,-0.547 -14.041,2.173 -0.804,-3.311 -2.688,-6.242 -5.468,-8.507 -0.403,-0.33 -0.883,-0.536 -1.383,-0.637 -0.217,-0.417 -0.42,-0.839 -0.647,-1.255 -0.613,-1.115 -1.522,-1.551 -2.427,-1.522 -4.155,-6.334 -9.593,-11.37 -17.462,-8.855 -0.098,0.031 -0.184,0.071 -0.275,0.108 -9.271,-1.857 -21.572,1.002 -25.053,9.356 -4.121,3.605 -6.738,8.705 -4.766,14.225 0.201,0.564 0.535,1.027 0.941,1.383 0.047,0.167 0.1,0.333 0.152,0.5 -0.705,3.627 -0.619,8.375 0.604,12.022 -0.107,0.176 -0.215,0.353 -0.324,0.526 -2.025,-0.196 -4.295,0.646 -5.994,1.681 -0.725,0.44 -1.148,1.087 -1.328,1.785 -3.604,3.15 -3.689,8.914 0.221,12.927 0.031,0.032 0.064,0.058 0.098,0.088 -1.008,1.124 -2.031,2.234 -3.078,3.322 -1.902,1.979 -3.77,3.955 -5.494,6.021 -0.857,-0.162 -1.779,0.05 -2.525,0.826 -1.779,1.854 -2.77,4.089 -3.25,6.479 -0.422,1.236 -0.76,2.511 -1.021,3.844 -0.15,0.762 -0.057,1.421 0.188,1.969 -0.074,0.164 -0.137,0.341 -0.188,0.531 -0.906,3.378 0.275,6.046 2.334,8.235 -0.656,0.848 -0.838,1.981 -0.033,3.077 0.916,1.242 4.141,3.389 5.953,5.302 -0.361,0.339 -0.631,0.798 -0.754,1.386 -0.65,3.109 -0.533,5.665 0.312,7.906 -1.266,4.126 -0.334,9.128 4.318,10.408 1.293,0.354 2.574,0.06 3.809,-0.312 0.322,-0.096 0.619,-0.155 0.9,-0.186 1.613,1.968 2.803,4.174 3.877,6.462 -0.381,2.598 0.672,5.798 2.588,8.15 -1.176,7.755 11.59,9.214 12.088,16.367 0.078,1.137 0.816,2.142 1.766,2.666 1.623,3.563 3.898,6.743 7.273,8.497 0.49,0.781 1.336,1.337 2.461,1.337 h 2 c 1.627,0 2.67,-1.294 2.9,-2.674 0.955,-0.233 1.771,-0.884 1.992,-2.028 0.438,-2.271 0.596,-4.481 0.607,-6.798 0.002,-0.492 -0.117,-0.922 -0.309,-1.299 -0.178,-8.426 -1.186,-17.539 1.674,-25.135 0.342,-0.389 0.523,-0.87 0.57,-1.385 0.527,-1.163 1.156,-2.285 1.908,-3.358 0.129,-0.176 0.254,-0.354 0.387,-0.528 0.061,-0.081 0.125,-0.162 0.188,-0.242 0.383,-0.486 0.779,-0.966 1.203,-1.431 0.064,-0.072 0.107,-0.146 0.164,-0.221 1.77,-1.489 5.143,-2.225 7.229,-3.257 2.151,-1.065 4.031,-2.857 5.851,-4.401 6.932,-5.884 11.973,-12.554 14.369,-21.375 0.7,-2.586 1.174,-5.243 2.575,-7.563 1.947,-3.226 6.943,-4.219 10.289,-4.971 6.998,-1.577 13.927,-2.063 19.009,-7.02 0.143,-0.063 0.278,-0.132 0.407,-0.224 1.162,-0.83 1.642,-1.554 1.865,-2.729 1.215,-0.381 2.12,-1.552 2.12,-2.86 0,-0.334 -0.067,-0.648 -0.17,-0.947 0.687,-1.309 1.211,-2.763 1.572,-4.303 1.931,-4.181 2.453,-8.907 0.99,-14.047 z"
       id="path27"
       inkscape:connector-curvature="0"
       style="fill:#82a0ca" /><g
       id="g29"><path
         d="m 114.197,88.75 c -0.189,-0.053 -0.199,-0.888 0.215,-2.388 0.422,-1.492 1.252,-3.656 2.949,-6.138 0.859,-1.232 1.932,-2.555 3.44,-3.77 0.759,-0.6 1.634,-1.177 2.697,-1.6 1.056,-0.421 2.351,-0.676 3.709,-0.461 1.356,0.198 2.658,0.885 3.658,1.774 1.014,0.893 1.793,1.953 2.452,3.065 0.63,1.061 1.248,2.4 1.578,3.742 0.353,1.339 0.537,2.704 0.621,4.086 0.162,2.763 -0.069,5.601 -0.6,8.496 -0.539,2.892 -1.369,5.85 -2.674,8.817 -0.662,1.481 -1.436,2.97 -2.463,4.424 -0.512,0.728 -1.094,1.444 -1.779,2.134 -0.348,0.344 -0.723,0.679 -1.133,1 l -0.404,0.293 -0.463,0.314 c -0.148,0.123 -0.326,0.176 -0.51,0.221 l -0.539,0.154 -9.502,2.699 -4.928,1.388 -2.508,0.703 -0.695,0.195 c -0.414,0.085 -0.816,0.308 -1.248,0.206 l -0.916,-0.067 -0.59,-0.026 c -1.576,-0.056 -2.91,0.104 -3.703,0.58 -0.424,0.237 -0.844,0.594 -1.305,1.112 -0.228,0.258 -0.459,0.551 -0.691,0.867 -0.113,0.156 -0.227,0.299 -0.297,0.421 -0.07,0.114 -0.148,0.239 -0.23,0.396 -0.648,1.178 -1.096,2.729 -1.439,4.413 -0.344,1.692 -0.588,3.524 -0.922,5.472 -0.36,1.938 -0.717,4.062 -1.844,6.311 -1.023,2.037 -2.408,3.872 -4,5.438 -3.203,3.141 -6.955,5.106 -10.424,6.794 l -2.561,1.224 -1.229,0.599 c -0.228,0.111 -0.356,0.177 -0.494,0.254 -0.141,0.08 -0.284,0.165 -0.43,0.261 -1.175,0.762 -2.347,1.92 -3.391,3.172 -2.098,2.54 -3.797,5.505 -5.09,8.515 -1.287,3.018 -2.176,6.134 -2.492,9.136 -0.168,1.231 -0.016,2.957 0.053,4.548 l 0.264,4.89 c 0.129,3.268 0.146,6.522 -0.354,9.771 -0.256,1.622 -0.646,3.251 -1.322,4.837 -0.664,1.576 -1.674,3.132 -3.076,4.318 -0.344,0.293 -0.734,0.573 -1.064,0.782 -0.295,0.194 -0.619,0.407 -0.977,0.61 -0.695,0.4 -1.438,0.755 -2.232,1.026 -1.57,0.556 -3.449,0.715 -5.137,0.225 -1.693,-0.475 -3.037,-1.466 -4.045,-2.502 -1.018,-1.049 -1.76,-2.173 -2.375,-3.28 -1.215,-2.222 -1.938,-4.4 -2.488,-6.439 -1.07,-4.089 -1.41,-7.663 -1.502,-10.583 -0.078,-2.921 0.148,-5.195 0.477,-6.715 0.328,-1.525 0.76,-2.265 0.953,-2.209 0.205,0.057 0.182,0.843 0.252,2.313 0.066,1.471 0.219,3.642 0.645,6.405 0.434,2.753 1.102,6.129 2.381,9.804 0.648,1.824 1.457,3.736 2.568,5.481 1.088,1.729 2.611,3.303 4.203,3.619 0.787,0.169 1.627,0.079 2.555,-0.293 0.459,-0.185 0.932,-0.434 1.402,-0.736 0.23,-0.146 0.473,-0.32 0.746,-0.519 0.244,-0.17 0.408,-0.305 0.588,-0.471 1.41,-1.285 2.215,-3.676 2.523,-6.365 0.318,-2.701 0.229,-5.68 0.012,-8.788 l -0.393,-4.81 c -0.066,-0.829 -0.133,-1.672 -0.18,-2.547 -0.023,-0.448 -0.043,-0.862 -0.051,-1.366 -0.012,-0.563 0.039,-1.063 0.068,-1.511 0.312,-3.72 1.291,-7.341 2.711,-10.839 1.439,-3.491 3.295,-6.887 5.838,-10.041 1.291,-1.567 2.732,-3.094 4.676,-4.399 0.242,-0.162 0.498,-0.319 0.764,-0.47 0.271,-0.154 0.56,-0.302 0.75,-0.397 l 1.3,-0.644 2.541,-1.233 c 3.317,-1.622 6.454,-3.358 8.825,-5.7 1.183,-1.162 2.149,-2.462 2.856,-3.855 0.634,-1.19 0.996,-2.877 1.318,-4.651 0.318,-1.786 0.58,-3.685 0.996,-5.647 0.426,-1.958 0.973,-4.021 2.107,-6.062 0.137,-0.247 0.297,-0.513 0.475,-0.784 0.172,-0.268 0.344,-0.483 0.5,-0.693 0.314,-0.416 0.652,-0.836 1.033,-1.254 0.75,-0.832 1.711,-1.687 2.875,-2.311 1.16,-0.633 2.424,-0.96 3.549,-1.104 1.139,-0.147 2.176,-0.141 3.164,-0.098 l 0.729,0.045 0.359,0.028 c 0.053,0.004 0.025,0.004 0.041,0.005 0.012,0.004 0.021,10e-4 0.033,10e-4 l 0.57,-0.148 2.521,-0.656 4.957,-1.284 9.524,-2.443 c 0.023,-0.006 0.052,-0.002 0.07,-0.016 l 0.031,-0.014 c -0.002,0.002 0.006,-0.003 0.078,-0.054 0.221,-0.161 0.443,-0.346 0.662,-0.549 0.438,-0.413 0.865,-0.894 1.262,-1.421 0.799,-1.053 1.49,-2.258 2.094,-3.493 1.205,-2.481 2.064,-5.107 2.656,-7.661 0.586,-2.558 0.906,-5.075 0.893,-7.411 -0.006,-1.166 -0.102,-2.286 -0.307,-3.311 -0.195,-1.033 -0.525,-1.878 -0.998,-2.833 -0.897,-1.811 -2.1,-3.101 -3.375,-3.377 -1.281,-0.343 -2.842,0.239 -4.117,1.076 -1.295,0.842 -2.381,1.89 -3.283,2.895 -1.805,2.031 -2.926,3.9 -3.672,5.164 -0.739,1.271 -1.116,1.979 -1.325,1.918 z"
         id="path31"
         inkscape:connector-curvature="0"
         style="fill:#231f20" /></g><g
       id="g33"><path
         d="m 39.697,181.75 c -0.068,0.4 -0.721,0.712 -1.9,0.776 -1.172,0.06 -2.879,-0.146 -4.857,-0.907 -1.971,-0.755 -4.203,-2.078 -6.229,-4.085 -2.021,-1.996 -3.834,-4.678 -4.891,-7.866 -1.061,-3.181 -1.205,-6.536 -0.553,-9.414 0.631,-2.893 2.008,-5.236 3.432,-6.839 1.432,-1.616 2.881,-2.547 3.953,-3.016 1.084,-0.462 1.805,-0.477 2.045,-0.15 0.533,0.697 -1.066,2.537 -2.488,5.55 -0.701,1.508 -1.307,3.319 -1.49,5.369 -0.195,2.042 0.039,4.322 0.799,6.614 0.76,2.292 1.953,4.344 3.285,6.035 1.336,1.698 2.809,3.034 4.154,4.071 2.701,2.063 4.885,3.006 4.74,3.862 z"
         id="path35"
         inkscape:connector-curvature="0"
         style="fill:#231f20" /></g><g
       id="g37"><path
         d="m 13.172,141.045 c 0.711,0.422 0.969,1.544 1.402,3.298 0.418,1.737 0.936,4.173 1.828,6.417 0.445,1.115 0.941,2.021 1.432,2.683 0.49,0.666 0.988,1.133 1.592,1.526 1.209,0.778 2.641,1.112 2.826,1.937 0.098,0.396 -0.105,0.87 -0.68,1.325 -0.572,0.438 -1.545,0.881 -2.928,0.908 -1.365,0.041 -3.141,-0.488 -4.582,-1.655 -1.457,-1.148 -2.543,-2.771 -3.23,-4.492 -1.354,-3.473 -1.176,-6.713 -0.49,-8.953 0.354,-1.121 0.863,-2.001 1.398,-2.522 0.539,-0.533 1.072,-0.664 1.432,-0.472 z"
         id="path39"
         inkscape:connector-curvature="0"
         style="fill:#231f20" /></g><g
       id="g41"><path
         d="m 31.697,103.75 c -0.32,0.293 -1.273,-0.311 -2.883,-1.095 -1.6,-0.775 -3.949,-1.61 -6.748,-1.108 -2.787,0.455 -5.988,2.279 -8.826,5.2 -2.822,2.898 -5.39,6.863 -6.64,11.253 -0.619,2.166 -0.812,4.384 -0.52,6.183 0.365,1.93 1.186,3.892 2.203,5.57 2.057,3.411 4.9,5.926 7.541,7.501 2.658,1.601 5.137,2.276 6.908,2.622 1.777,0.346 2.879,0.45 2.965,0.875 0.084,0.381 -0.891,1.078 -2.959,1.461 -2.045,0.375 -5.23,0.283 -8.768,-1.142 -3.514,-1.406 -7.363,-4.088 -10.312,-8.287 -1.463,-2.111 -2.688,-4.547 -3.344,-7.458 -0.604,-3.073 -0.287,-6.08 0.506,-8.944 1.652,-5.708 4.902,-10.284 8.613,-13.643 3.707,-3.341 8.205,-5.413 12.314,-5.42 2.035,-0.025 3.871,0.458 5.289,1.15 1.428,0.691 2.459,1.554 3.184,2.323 1.436,1.567 1.766,2.704 1.477,2.959 z"
         id="path43"
         inkscape:connector-curvature="0"
         style="fill:#231f20" /></g><g
       id="g45"><path
         d="m 28.197,82.25 c -0.219,0.361 -0.752,0.478 -1.482,0.518 -0.727,0.039 -1.67,0.002 -2.59,0.167 -0.934,0.159 -1.736,0.521 -2.469,1.186 -0.736,0.662 -1.469,1.728 -2.016,3.08 -0.543,1.352 -0.842,2.801 -0.934,4.085 -0.094,1.293 0.021,2.411 0.234,3.3 0.207,0.899 0.545,1.6 0.852,2.193 0.303,0.591 0.543,1.075 0.404,1.472 -0.131,0.379 -0.658,0.657 -1.59,0.54 -0.91,-0.107 -2.24,-0.733 -3.314,-2.042 -2.209,-2.614 -3.002,-7.327 -1.215,-11.796 0.896,-2.227 2.453,-4.256 4.531,-5.445 1.027,-0.591 2.154,-0.943 3.209,-1.043 1.055,-0.111 2.018,0.027 2.816,0.259 1.604,0.481 2.572,1.295 3.113,1.95 0.543,0.668 0.66,1.231 0.451,1.576 z"
         id="path47"
         inkscape:connector-curvature="0"
         style="fill:#231f20" /></g><g
       id="g49"><path
         d="m 85.197,71.25 c -0.426,0.063 -0.969,-1.455 -2,-4.045 C 82.156,64.632 80.564,60.951 77.699,57.09 74.857,53.253 70.638,49.247 65.006,46.717 59.422,44.158 52.44,43.3 45.594,45.154 c -1.709,0.45 -3.365,1.047 -4.951,1.755 -0.793,0.354 -1.568,0.738 -2.326,1.144 -0.744,0.399 -1.537,0.856 -2.158,1.262 -2.641,1.768 -4.779,4.088 -6.201,6.644 -1.439,2.563 -2.229,5.363 -2.594,8.081 -0.363,2.725 -0.326,5.364 -0.115,7.773 0.439,4.837 1.502,8.751 2.207,11.467 0.727,2.718 1.123,4.281 0.742,4.472 -0.357,0.182 -1.469,-1.035 -2.904,-3.593 -1.41,-2.56 -3.186,-6.474 -4.242,-11.738 -0.518,-2.628 -0.836,-5.603 -0.641,-8.852 0.199,-3.235 0.945,-6.783 2.66,-10.192 1.705,-3.416 4.385,-6.55 7.795,-8.93 0.902,-0.616 1.709,-1.092 2.598,-1.593 0.877,-0.49 1.783,-0.953 2.713,-1.38 1.863,-0.856 3.832,-1.579 5.883,-2.12 4.102,-1.093 8.332,-1.385 12.326,-0.922 3.998,0.453 7.744,1.645 11.012,3.303 6.583,3.326 11.124,8.379 13.844,13.019 2.75,4.682 3.824,8.95 4.217,11.865 0.375,2.939 0.131,4.578 -0.262,4.631 z"
         id="path51"
         inkscape:connector-curvature="0"
         style="fill:#231f20" /></g><g
       id="g53"><path
         d="m 104.197,72.25 c -0.854,0.004 -1.486,-1.588 -2.602,-3.492 -1.099,-1.908 -2.882,-4.019 -5.425,-4.833 -2.524,-0.865 -5.213,-0.227 -7.264,0.642 -2.058,0.857 -3.546,1.715 -4.212,1.184 -0.622,-0.472 -0.352,-2.354 1.697,-4.602 1.029,-1.091 2.558,-2.233 4.604,-2.914 2.022,-0.687 4.599,-0.832 7.06,-0.005 2.467,0.805 4.442,2.452 5.661,4.214 1.24,1.77 1.783,3.609 1.945,5.112 0.282,3.052 -0.686,4.714 -1.464,4.694 z"
         id="path55"
         inkscape:connector-curvature="0"
         style="fill:#231f20" /></g><g
       id="g57"><path
         d="m 122.697,75.25 c -0.844,-0.118 -1.143,-2.479 -1.42,-5.958 -0.158,-1.724 -0.33,-3.762 -0.834,-5.689 -0.252,-0.955 -0.603,-1.863 -1.051,-2.55 -0.455,-0.693 -0.947,-1.131 -1.623,-1.443 -0.338,-0.159 -0.736,-0.276 -1.17,-0.358 -0.23,-0.04 -0.341,-0.052 -0.521,-0.06 -0.177,-0.008 -0.371,-10e-4 -0.574,0.019 -0.815,0.071 -1.76,0.367 -2.642,0.753 -1.786,0.783 -3.35,1.904 -4.551,2.926 -1.205,1.033 -2.059,1.994 -2.668,2.704 -0.619,0.703 -1.022,1.194 -1.449,1.159 -0.396,-0.025 -0.791,-0.68 -0.766,-1.9 0.021,-1.211 0.51,-2.907 1.613,-4.667 1.113,-1.749 2.777,-3.606 5.215,-5.098 1.225,-0.73 2.648,-1.396 4.414,-1.694 0.439,-0.074 0.902,-0.122 1.387,-0.129 0.484,-0.015 1.043,0.028 1.476,0.093 0.894,0.137 1.821,0.378 2.737,0.801 1.854,0.821 3.367,2.376 4.199,3.938 0.859,1.573 1.223,3.115 1.406,4.506 0.338,2.794 0.014,5.103 -0.369,6.981 -0.832,3.737 -2.016,5.779 -2.809,5.666 z"
         id="path59"
         inkscape:connector-curvature="0"
         style="fill:#231f20" /></g><g
       id="g61"
       style="opacity:0.2"><path
         d="m 36.697,76.25 c 0.006,0 -0.025,-0.491 -0.188,-1.396 -0.15,-0.904 -0.428,-2.228 -0.65,-3.898 -0.221,-1.668 -0.4,-3.688 -0.24,-5.937 0.156,-2.244 0.635,-4.73 1.771,-7.222 1.125,-2.471 2.873,-4.743 5.139,-6.156 1.121,-0.705 2.35,-1.167 3.514,-1.351 1.166,-0.184 2.248,-0.111 3.154,0.088 1.824,0.408 2.996,1.177 3.789,1.641 0.783,0.494 1.205,0.738 1.211,0.729 0.002,0.001 -0.459,-0.208 -1.355,-0.327 -0.881,-0.119 -2.23,-0.142 -3.615,0.289 -0.688,0.217 -1.363,0.547 -1.967,0.992 -0.607,0.444 -1.148,0.996 -1.65,1.644 -0.998,1.296 -1.873,2.995 -2.764,4.948 -0.885,1.952 -1.717,3.946 -2.518,5.813 -0.793,1.869 -1.551,3.615 -2.143,5.119 -0.592,1.504 -1.027,2.763 -1.246,3.644 -0.228,0.883 -0.246,1.381 -0.242,1.38 z"
         id="path63"
         inkscape:connector-curvature="0"
         style="fill:#ffffff" /></g><g
       id="g65"
       style="opacity:0.2"><path
         d="m 18.197,128.75 c 0,0 -0.072,-0.058 -0.227,-0.145 l -0.699,-0.392 c -0.299,-0.184 -0.701,-0.396 -1.117,-0.723 -0.418,-0.322 -0.914,-0.711 -1.383,-1.227 -0.945,-1.019 -1.895,-2.49 -2.422,-4.289 -0.537,-1.792 -0.668,-3.888 -0.197,-5.976 0.461,-2.088 1.471,-3.948 2.744,-5.346 1.27,-1.406 2.793,-2.32 4.109,-2.79 0.656,-0.245 1.279,-0.36 1.799,-0.45 0.521,-0.094 0.975,-0.098 1.324,-0.119 0.354,-0.018 0.623,-0.012 0.801,-0.021 0.178,-0.007 0.268,-0.024 0.268,-0.024 0.004,0 -0.375,0.069 -0.938,0.453 -0.285,0.177 -0.598,0.457 -0.922,0.788 -0.328,0.328 -0.635,0.768 -0.93,1.236 -0.59,0.953 -1.029,2.153 -1.398,3.435 -0.367,1.29 -0.674,2.679 -1,4.137 -0.318,1.459 -0.625,2.862 -0.852,4.201 -0.225,1.336 -0.359,2.622 -0.275,3.75 0.049,0.559 0.115,1.089 0.25,1.534 0.133,0.445 0.281,0.836 0.445,1.128 0.319,0.606 0.624,0.842 0.62,0.84 z"
         id="path67"
         inkscape:connector-curvature="0"
         style="fill:#ffffff" /></g><g
       id="g69"
       style="opacity:0.2"><path
         d="m 36.697,162.25 c 0.006,-0.002 -0.043,-0.104 -0.279,-0.259 -0.107,-0.081 -0.25,-0.178 -0.443,-0.292 -0.178,-0.116 -0.455,-0.241 -0.666,-0.409 -0.217,-0.165 -0.516,-0.351 -0.725,-0.581 -0.211,-0.229 -0.496,-0.485 -0.666,-0.782 -0.389,-0.586 -0.584,-1.315 -0.492,-2.021 0.092,-0.709 0.455,-1.301 0.943,-1.738 l 2.133,-1.911 0.195,0.094 c 0.244,0.116 0.494,0.313 0.783,0.502 0.275,0.206 0.654,0.397 1.023,0.871 0.18,0.227 0.311,0.505 0.35,0.726 0.043,0.224 0.021,0.388 -0.012,0.511 -0.096,0.25 -0.225,0.381 -0.314,0.509 -0.383,0.486 -0.348,0.8 -0.33,0.781 0.025,-0.02 -0.203,-0.146 -0.791,-0.498 -0.145,-0.08 -0.32,-0.182 -0.494,-0.179 -0.018,0.002 -0.035,0.002 -0.053,0.007 -0.025,0.011 0.01,-0.002 0.057,-0.019 l 0.119,-0.05 c 0.113,-0.045 0.203,-0.092 0.254,-0.123 0.104,-0.063 0.094,-0.083 0.051,-0.021 -0.043,0.062 -0.123,0.208 -0.203,0.468 -0.037,0.123 -0.08,0.281 -0.117,0.462 l -0.076,0.408 c -0.037,0.145 -0.133,0.327 -0.246,0.444 l 2.328,-1.818 c 0.256,0.494 0.398,0.938 0.352,1.33 -0.047,0.393 -0.285,0.718 -0.639,1.088 -0.15,0.183 -0.398,0.379 -0.568,0.573 -0.16,0.194 -0.406,0.4 -0.562,0.593 -0.152,0.189 -0.369,0.386 -0.49,0.552 -0.131,0.167 -0.227,0.313 -0.287,0.429 -0.144,0.238 -0.143,0.355 -0.135,0.353 z"
         id="path71"
         inkscape:connector-curvature="0"
         style="fill:#ffffff" /></g><g
       id="g73"
       style="opacity:0.2"><path
         d="m 91.697,73.25 c -0.004,-0.007 -0.01,0.038 0.111,0.193 0.053,0.069 0.133,0.162 0.27,0.257 0.113,0.076 0.045,0.029 0.018,0.017 l -0.078,-0.04 c -0.063,-0.022 -0.09,-0.033 -0.133,-0.034 -0.014,-0.003 -0.021,0.003 0.008,-0.009 0.058,-0.016 0.224,-0.138 0.357,-0.368 0.141,-0.228 0.232,-0.506 0.303,-0.758 0.021,-0.074 0.08,-0.411 0.025,-0.063 -0.027,0.18 -0.045,0.453 -0.039,0.638 0.004,0.18 0.008,0.436 0.027,0.584 0.02,0.164 0.041,0.285 0.061,0.371 0.041,0.195 0.07,0.22 0.07,0.22 -0.002,-0.014 -0.025,0.012 -0.082,0.201 L 92.5,74.823 c -0.049,0.148 -0.121,0.392 -0.205,0.563 -0.08,0.179 -0.193,0.439 -0.318,0.602 -0.123,0.17 -0.285,0.402 -0.463,0.521 -0.172,0.148 -0.383,0.235 -0.6,0.264 -0.227,0.021 -0.453,-0.016 -0.709,-0.17 -0.234,-0.142 -0.484,-0.397 -0.656,-0.734 -0.184,-0.34 -0.305,-0.789 -0.275,-1.234 -0.006,-0.458 0.224,-0.872 0.431,-1.147 0.207,-0.269 0.532,-0.408 0.76,-0.451 0.224,-0.073 0.486,-0.011 0.646,0.021 0.173,0.034 0.291,0.085 0.377,0.116 0.182,0.078 0.213,0.083 0.209,0.076 z"
         id="path75"
         inkscape:connector-curvature="0"
         style="fill:#ffffff" /></g><g
       id="g77"
       style="opacity:0.2"><path
         d="m 99.697,74.75 c 0.002,-0.007 -0.025,0.021 -0.035,0.215 -0.002,0.043 -0.004,0.095 0,0.155 -0.002,0.035 0.029,0.199 0.018,0.132 -0.006,-0.043 -0.027,-0.098 -0.035,-0.128 -0.033,-0.084 -0.082,-0.106 -0.043,-0.084 0.037,0.021 0.183,0.042 0.363,-0.005 0.184,-0.043 0.369,-0.136 0.531,-0.228 l 0.219,-0.144 0.047,-0.035 c 0.004,-0.003 0.023,-0.018 0.016,-0.012 l -0.069,0.052 -0.242,0.205 c -0.133,0.119 -0.313,0.294 -0.414,0.407 -0.108,0.122 -0.186,0.216 -0.237,0.286 -0.117,0.155 -0.119,0.188 -0.115,0.184 0.004,-0.005 -0.025,0 -0.189,0.106 l -0.322,0.193 c -0.133,0.077 -0.35,0.208 -0.521,0.28 -0.176,0.078 -0.433,0.195 -0.625,0.231 -0.199,0.046 -0.47,0.108 -0.67,0.083 -0.218,-0.002 -0.422,-0.075 -0.586,-0.192 -0.168,-0.128 -0.295,-0.296 -0.361,-0.568 -0.062,-0.246 -0.057,-0.586 0.062,-0.927 0.109,-0.354 0.338,-0.736 0.668,-1.018 0.311,-0.313 0.756,-0.431 1.086,-0.469 0.326,-0.034 0.643,0.105 0.822,0.238 0.196,0.112 0.328,0.343 0.41,0.479 0.086,0.148 0.127,0.27 0.157,0.354 0.054,0.192 0.063,0.217 0.065,0.21 z"
         id="path79"
         inkscape:connector-curvature="0"
         style="fill:#ffffff" /></g><g
       id="g81"><circle
         cx="95.625999"
         cy="31.474001"
         r="11.224"
         id="circle83"
         d="m 106.85,31.474001 c 0,6.198844 -5.02516,11.224 -11.224001,11.224 -6.198844,0 -11.224,-5.025156 -11.224,-11.224 0,-6.198844 5.025156,-11.224 11.224,-11.224 6.198841,0 11.224001,5.025156 11.224001,11.224 z"
         sodipodi:cx="95.625999"
         sodipodi:cy="31.474001"
         sodipodi:rx="11.224"
         sodipodi:ry="11.224"
         style="fill:#82a0ca" /><path
         d="m 108.598,31.518 c -0.078,1.598 -0.492,3.345 -1.207,4.83 -0.721,1.508 -1.744,2.845 -2.963,3.929 -2.432,2.179 -5.604,3.39 -8.803,3.421 -3.201,0.073 -6.434,-1.169 -8.83,-3.393 -2.42,-2.215 -3.998,-5.383 -4.143,-8.875 -0.182,-3.303 1.053,-6.908 3.457,-9.473 1.205,-1.281 2.666,-2.351 4.301,-3.07 0.818,-0.357 1.674,-0.636 2.551,-0.824 0.438,-0.095 0.879,-0.167 1.324,-0.223 l 0.67,-0.062 0.734,-0.028 0.551,0.012 0.723,0.049 c 0.457,0.046 0.895,0.107 1.34,0.192 0.883,0.177 1.742,0.46 2.566,0.813 1.645,0.723 3.115,1.801 4.301,3.109 2.365,2.633 3.6,6.152 3.43,9.546 l -0.002,0.047 z M 105.1,31.474 c -0.143,-2.494 -1.33,-4.814 -3.146,-6.327 -0.894,-0.77 -1.91,-1.357 -2.979,-1.758 C 98.442,23.18 97.887,23.035 97.329,22.926 97.055,22.87 96.764,22.827 96.488,22.797 L 96.113,22.766 95.562,22.75 c -2.168,-0.063 -4.561,0.79 -6.293,2.368 -1.774,1.581 -2.963,3.815 -3.119,6.4 -0.172,2.394 0.675,5.067 2.435,6.998 0.883,0.96 1.957,1.769 3.168,2.311 1.213,0.54 2.526,0.835 3.873,0.871 2.688,0.06 5.356,-1.152 7.069,-3.153 0.859,-0.994 1.502,-2.146 1.906,-3.354 0.414,-1.229 0.576,-2.42 0.498,-3.761 v 0.044 l 10e-4,0 z"
         id="path85"
         inkscape:connector-curvature="0"
         style="fill:#020202" /></g><g
       id="g87"><circle
         cx="74.212997"
         cy="7.75"
         r="5.5"
         id="circle89"
         d="m 79.712997,7.75 c 0,3.037566 -2.462433,5.5 -5.5,5.5 -3.037566,0 -5.5,-2.462434 -5.5,-5.5 0,-3.0375661 2.462434,-5.5 5.5,-5.5 3.037567,0 5.5,2.4624339 5.5,5.5 z"
         sodipodi:cx="74.212997"
         sodipodi:cy="7.75"
         sodipodi:rx="5.5"
         sodipodi:ry="5.5"
         style="fill:#82a0ca" /><path
         d="m 81.975,7.808 0.017,0.27 -0.007,0.431 c -0.014,0.267 -0.03,0.515 -0.069,0.771 -0.074,0.51 -0.197,1.018 -0.388,1.501 -0.381,0.97 -1.016,1.825 -1.778,2.505 -1.508,1.391 -3.592,2.078 -5.535,1.909 -1.951,-0.151 -3.754,-1.123 -4.924,-2.521 -1.186,-1.396 -1.758,-3.196 -1.686,-4.923 0.143,-3.5 3.002,-6.506 6.641,-6.755 1.696,-0.163 3.659,0.373 5.127,1.598 1.494,1.202 2.489,3.125 2.604,5.158 L 81.975,7.808 z M 77.449,7.75 C 77.576,6.897 77.386,5.959 76.832,5.13 76.269,4.307 75.369,3.654 74.182,3.505 73.131,3.357 71.864,3.738 71.035,4.571 70.189,5.395 69.719,6.592 69.822,7.75 c 0.061,1.159 0.676,2.223 1.537,2.855 0.861,0.649 1.921,0.866 2.855,0.701 0.941,-0.155 1.719,-0.656 2.242,-1.314 0.254,-0.336 0.436,-0.7 0.607,-1.062 0.086,-0.183 0.172,-0.366 0.235,-0.563 l 0.089,-0.296 0.032,-0.108 0.029,-0.27 0.001,0.057 0,0 z"
         id="path91"
         inkscape:connector-curvature="0"
         style="fill:#020202" /></g><g
       id="g93"><circle
         cx="57.946999"
         cy="28"
         r="3.75"
         id="circle95"
         d="m 61.696999,28 c 0,2.071068 -1.678933,3.75 -3.75,3.75 -2.071068,0 -3.75,-1.678932 -3.75,-3.75 0,-2.071068 1.678932,-3.75 3.75,-3.75 2.071067,0 3.75,1.678932 3.75,3.75 z"
         sodipodi:cx="57.946999"
         sodipodi:cy="28"
         sodipodi:rx="3.75"
         sodipodi:ry="3.75"
         style="fill:#82a0ca" /><path
         d="m 63.621,28.098 0.006,0.368 c -0.01,0.192 -0.035,0.431 -0.062,0.644 -0.068,0.381 -0.182,0.732 -0.338,1.078 -0.32,0.679 -0.777,1.28 -1.322,1.771 -1.092,0.979 -2.578,1.453 -3.957,1.329 -1.373,-0.107 -2.674,-0.79 -3.512,-1.775 -0.857,-0.979 -1.307,-2.265 -1.266,-3.512 0.029,-2.529 2.125,-4.799 4.777,-4.997 1.291,-0.114 2.721,0.292 3.793,1.203 1.086,0.896 1.805,2.31 1.883,3.794 l -0.002,0.097 z M 59.771,28 c 0.084,-0.48 -0.004,-1.021 -0.314,-1.509 -0.314,-0.485 -0.836,-0.885 -1.51,-0.994 -0.662,-0.117 -1.391,0.095 -1.928,0.575 -0.533,0.494 -0.824,1.202 -0.795,1.928 0.033,0.72 0.391,1.385 0.93,1.793 0.549,0.409 1.199,0.535 1.793,0.42 0.586,-0.116 1.053,-0.448 1.346,-0.866 0.148,-0.205 0.248,-0.437 0.303,-0.663 0.027,-0.112 0.057,-0.231 0.088,-0.329 0.008,-0.03 0.025,-0.035 0.045,-0.085 L 59.774,27.903 59.771,28 z"
         id="path97"
         inkscape:connector-curvature="0"
         style="fill:#020202" /></g><g
       id="g99"><circle
         cx="139.198"
         cy="66.622002"
         r="3.628"
         id="circle101"
         d="m 142.826,66.622002 c 0,2.003689 -1.62431,3.628 -3.628,3.628 -2.00369,0 -3.628,-1.624311 -3.628,-3.628 0,-2.003689 1.62431,-3.628 3.628,-3.628 2.00369,0 3.628,1.624311 3.628,3.628 z"
         sodipodi:cx="139.198"
         sodipodi:cy="66.622002"
         sodipodi:rx="3.628"
         sodipodi:ry="3.628"
         style="fill:#82a0ca" /><path
         d="m 143.887,66.676 c -0.205,1.079 -0.479,2.374 -1.289,3.347 -0.781,0.99 -2.008,1.725 -3.397,1.911 -1.373,0.197 -2.949,-0.21 -4.13,-1.184 -0.584,-0.493 -1.088,-1.108 -1.442,-1.818 -0.17,-0.358 -0.312,-0.732 -0.41,-1.121 -0.043,-0.195 -0.084,-0.393 -0.114,-0.589 l -0.031,-0.299 -0.012,-0.149 -0.006,-0.074 -0.003,-0.038 v -0.018 l 0.003,-0.147 0.002,-0.355 c 0.014,-0.209 0.043,-0.478 0.08,-0.711 0.079,-0.414 0.19,-0.795 0.342,-1.176 0.311,-0.752 0.778,-1.434 1.367,-1.983 0.588,-0.549 1.293,-0.968 2.047,-1.214 0.379,-0.118 0.766,-0.204 1.153,-0.242 0.195,-0.014 0.39,-0.025 0.58,-0.028 l 0.685,0.043 0.352,0.087 c 0.193,0.041 0.428,0.099 0.635,0.156 0.365,0.126 0.693,0.281 1.012,0.464 0.627,0.373 1.16,0.859 1.566,1.412 0.82,1.102 1.16,2.454 1.016,3.676 l -0.006,0.05 z m -2.121,-0.054 c -0.141,-0.68 -0.58,-1.216 -1.111,-1.455 -0.266,-0.119 -0.536,-0.17 -0.786,-0.162 -0.123,0.006 -0.252,0.025 -0.351,0.054 -0.029,0.023 -0.026,0.04 -0.069,0.051 l -0.359,0.05 c 0.22,0.007 0.062,0.002 0.106,0.005 h -0.002 l -0.004,0.003 -0.01,0.005 -0.018,0.012 -0.035,0.019 -0.068,0.037 -0.123,0.077 c -0.076,0.06 -0.145,0.109 -0.207,0.168 -0.123,0.117 -0.223,0.237 -0.307,0.358 -0.084,0.123 -0.152,0.245 -0.207,0.371 -0.025,0.06 -0.051,0.136 -0.068,0.186 0.002,0 -0.008,-0.033 -0.024,-0.007 l -0.033,0.354 c 0.007,-0.255 0.002,-0.07 0.004,-0.126 v 0.002 0.003 0.007 l -0.002,0.015 -0.004,0.026 -0.012,0.059 c -0.002,0.039 -0.002,0.075 -0.011,0.114 0,0.075 -0.006,0.156 0.002,0.24 0.007,0.168 0.041,0.356 0.129,0.535 0.16,0.378 0.472,0.75 1.003,0.942 0.514,0.19 1.172,0.146 1.731,-0.214 0.271,-0.184 0.521,-0.426 0.705,-0.723 0.086,-0.148 0.146,-0.319 0.162,-0.486 v -0.218 l -0.031,-0.357 v 0.055 z"
         id="path103"
         inkscape:connector-curvature="0"
         style="fill:#020202" /></g><circle
       enable-background="new    "
       cx="100.455"
       cy="29.875"
       r="1.875"
       id="circle105"
       d="m 102.33,29.875 c 0,1.035534 -0.83946,1.875 -1.875,1.875 -1.035532,0 -1.874998,-0.839466 -1.874998,-1.875 0,-1.035534 0.839466,-1.875 1.874998,-1.875 1.03554,0 1.875,0.839466 1.875,1.875 z"
       sodipodi:cx="100.455"
       sodipodi:cy="29.875"
       sodipodi:rx="1.875"
       sodipodi:ry="1.875"
       style="opacity:0.2;fill:#ffffff" /><circle
       enable-background="new    "
       cx="74.212997"
       cy="5.875"
       r="1.875"
       id="circle107"
       d="m 76.087997,5.875 c 0,1.0355339 -0.839466,1.875 -1.875,1.875 -1.035533,0 -1.875,-0.8394661 -1.875,-1.875 0,-1.0355339 0.839467,-1.875 1.875,-1.875 1.035534,0 1.875,0.8394661 1.875,1.875 z"
       sodipodi:cx="74.212997"
       sodipodi:cy="5.875"
       sodipodi:rx="1.875"
       sodipodi:ry="1.875"
       style="opacity:0.2;fill:#ffffff" /></g></svg>