<?xml version="1.0" encoding="utf-8"?>
<!-- Generator: Adobe Illustrator 16.0.0, SVG Export Plug-In . SVG Version: 6.00 Build 0)  -->
<!DOCTYPE svg PUBLIC "-//W3C//DTD SVG 1.1//EN" "http://www.w3.org/Graphics/SVG/1.1/DTD/svg11.dtd">
<svg version="1.1" id="Layer_1" xmlns="http://www.w3.org/2000/svg" xmlns:xlink="http://www.w3.org/1999/xlink" x="0px" y="0px"
	 width="143.922px" height="749.947px" viewBox="0 0 143.922 388.947" enable-background="new 0 0 143.922 388.947"
	 xml:space="preserve">
<g>
	<path fill="#4869B1" d="M26.386,113.021h99.374c3.394,0,6.144,2.028,6.144,4.534v6.273c0,2.504-2.75,4.534-6.144,4.534h-8.443
		v259.345H34.829V128.364h-8.442c-3.393,0-6.142-2.03-6.142-4.534v-6.273C20.243,115.051,22.993,113.021,26.386,113.021z"/>
	<rect x="36.457" y="156.089" fill="#4869B1" width="80.791" height="217.083"/>
	<path fill="#231F20" d="M134.722,123.939l-0.005-0.048c0,0,0-0.115,0-0.078l-0.003-0.022l-0.011-0.1l-0.021-0.195l-0.045-0.392
		c-0.056-0.521-0.124-1.043-0.166-1.564c-0.093-1.042-0.204-2.083-0.265-3.126l-0.056-0.783c-0.019-0.299-0.062-0.691-0.154-1.027
		c-0.185-0.695-0.513-1.367-0.993-1.973c-0.961-1.21-2.47-2.151-4.219-2.647c-0.883-0.25-1.788-0.381-2.754-0.395l-2.169,0.005
		c-1.411,0.011-2.824,0.004-4.238-0.007c-2.826-0.019-5.65-0.077-8.475-0.166c-5.65-0.178-11.306-0.501-16.953-0.809
		c-5.653-0.3-11.302-0.588-16.952-0.731c-5.651-0.146-11.302-0.235-16.955-0.303c-5.648-0.062-11.299-0.068-16.95-0.082
		l-16.953-0.063c-2.694-0.028-5.426,0.736-7.456,2.065c-2.038,1.326-3.404,3.228-3.702,5.278l-0.047,0.455l-0.019,0.208
		l-0.017,0.515l-0.034,0.835l-0.048,1.67c-0.034,1.114-0.027,2.229-0.021,3.345c0,0.978,0.267,2.041,0.78,2.987
		c0.513,0.956,1.271,1.833,2.216,2.571c1.871,1.488,4.546,2.406,7.25,2.493c1.439,0.022,1.935-0.094,2.738-0.151
		c0.758-0.075,1.511-0.16,2.267-0.261c0.431-0.059,0.863-0.129,1.297-0.195c-1.133,20.65-1.678,41.298-2.107,61.947
		c-0.392,21.612-0.514,43.224-0.439,64.834c0.083,21.615,0.36,43.227,1.014,64.837c0.312,10.806,0.714,21.613,1.226,32.419
		c0.555,10.805,1.09,21.61,1.972,32.417v0.001v1.161h1.574h82.487h1.572l0.003-1.161l0.03-16.209l0.075-16.209l0.258-32.419
		l0.408-32.418l0.201-16.207l0.265-16.21l0.537-32.418l0.6-32.418c0.396-20.533,0.844-41.066,1.38-61.6
		c1.05-0.128,2.107-0.246,3.174-0.358c1.144-0.082,2.268-0.3,3.295-0.647c1.024-0.353,1.948-0.824,2.736-1.382
		c1.564-1.125,2.573-2.617,2.812-4.153c0.034-0.192,0.047-0.38,0.061-0.577l0.011-0.332
		C134.735,124.059,134.727,124.012,134.722,123.939z M129.656,117.633l-0.056,0.783c-0.063,1.042-0.175,2.084-0.265,3.126
		c-0.043,0.521-0.111,1.042-0.167,1.564l-0.045,0.392l-0.021,0.195l-0.011,0.1l-0.002,0.022c-0.003,0.056,0-0.046-0.003-0.027
		l-0.008,0.049c-0.008,0.058-0.021,0.143-0.029,0.182c-0.011,0.02-0.021,0.04-0.029,0.059c-0.026,0.062-0.056,0.132-0.089,0.195
		c-0.265,0.518-0.78,0.928-1.385,1.138c-0.602,0.219-1.244,0.224-1.772,0.078c-2.78-0.297-5.638-0.635-8.449-1.115h-0.007
		l-5.515,0.08l0.105,3.914c0.575,21.611,1.041,43.224,1.457,64.835l0.602,32.418l0.536,32.418l0.263,16.21l0.205,16.207
		l0.406,32.418l0.258,32.419l0.074,16.209l0.029,15.045H36.492c0.826-10.419,1.35-20.837,1.885-31.255
		c0.511-10.806,0.913-21.613,1.225-32.419c0.65-21.611,0.933-43.223,1.01-64.837c0.075-21.611-0.047-43.222-0.436-64.834
		c-0.447-21.611-1.005-43.224-2.252-64.835l-0.139-2.382l-2.957,0.099h-0.005c-1.511-0.355-3.021-0.601-4.531-0.802
		c-0.755-0.101-1.509-0.183-2.266-0.258c-0.702-0.078-1.721-0.134-1.787-0.199c-0.308-0.133-0.503-0.292-0.646-0.469
		c-0.066-0.09-0.111-0.18-0.13-0.266c-0.024-0.095-0.024-0.146-0.021-0.281c0.005-1.115,0.013-2.23-0.022-3.345l-0.047-1.67
		l-0.059-1.331c-0.021-0.17,0.059-0.394,0.262-0.562c0.203-0.178,0.479-0.267,0.807-0.29l16.953-0.065
		c5.651-0.012,11.302-0.019,16.95-0.082c5.653-0.064,11.306-0.152,16.957-0.301c5.65-0.145,11.299-0.433,16.952-0.733
		c5.647-0.306,11.302-0.628,16.952-0.809c2.824-0.088,5.648-0.146,8.475-0.166c1.413-0.008,2.827-0.017,4.237-0.005l1.062,0.002
		l0.529,0.002l0.265,0.002l0.215,0.007c0.447,0.023,0.944,0.104,1.371,0.247c0.884,0.272,1.604,0.8,1.998,1.418
		c0.198,0.313,0.328,0.64,0.363,0.976C129.68,117.283,129.672,117.41,129.656,117.633z"/>
	<path opacity="0.34" fill="#FFFFFF" enable-background="new    " d="M98.522,198.368c0,2.443-2.681,4.422-5.989,4.422
		s-5.989-1.979-5.989-4.422c0-2.438,2.681-4.419,5.989-4.419S98.522,195.927,98.522,198.368z"/>
	<ellipse opacity="0.34" fill="#FFFFFF" enable-background="new    " cx="56.938" cy="168.58" rx="3.447" ry="2.544"/>
	<ellipse opacity="0.34" fill="#FFFFFF" enable-background="new    " cx="80.553" cy="175.641" rx="2.127" ry="1.569"/>
	<path opacity="0.34" fill="#FFFFFF" enable-background="new    " d="M72.614,188.764c1.902,0,3.445,1.139,3.445,2.544
		c0,1.404-1.543,2.544-3.445,2.544c-1.906,0-3.449-1.14-3.449-2.544C69.165,189.903,70.708,188.764,72.614,188.764z"/>
	<ellipse opacity="0.34" fill="#FFFFFF" enable-background="new    " cx="60.386" cy="241.02" rx="4.899" ry="3.615"/>
	<g opacity="0.2">
		<polygon fill="#FFFFFF" points="53.732,123.959 49.667,279.436 45.602,123.959 		"/>
	</g>
</g>
<g>
	<path fill="#82A0CA" d="M131.59,81.452c-0.287-1.004-1.078-1.725-2-2.031c-0.346-0.474-0.863-0.856-1.588-1.061
		c-0.881-1.074-2.135-1.261-3.209-0.874c-0.254-0.066-0.508-0.13-0.762-0.191c0.752-6.527,0.57-13.188-2.744-19.059
		c-1.289-2.284-4.371-1.7-5.355,0.419c-3.979-3.896-9.315,0.709-11.854,3.974c-0.47,0.603-0.695,1.242-0.744,1.862
		c-1.502-1.325-3.192-2.027-5.506-2.528c-4.789-1.038-10.086-0.547-14.041,2.173c-0.804-3.311-2.688-6.242-5.468-8.507
		c-0.403-0.33-0.883-0.536-1.383-0.637c-0.217-0.417-0.42-0.839-0.647-1.255c-0.613-1.115-1.522-1.551-2.427-1.522
		c-4.155-6.334-9.593-11.37-17.462-8.855c-0.098,0.031-0.184,0.071-0.275,0.108c-9.271-1.857-21.572,1.002-25.053,9.356
		c-4.121,3.605-6.738,8.705-4.766,14.225c0.201,0.564,0.535,1.027,0.941,1.383c0.047,0.167,0.1,0.333,0.152,0.5
		c-0.705,3.627-0.619,8.375,0.604,12.022c-0.107,0.176-0.215,0.353-0.324,0.526c-2.025-0.196-4.295,0.646-5.994,1.681
		c-0.725,0.44-1.148,1.087-1.328,1.785c-3.604,3.15-3.689,8.914,0.221,12.927c0.031,0.032,0.064,0.058,0.098,0.088
		c-1.008,1.124-2.031,2.234-3.078,3.322c-1.902,1.979-3.77,3.955-5.494,6.021c-0.857-0.162-1.779,0.05-2.525,0.826
		c-1.779,1.854-2.77,4.089-3.25,6.479c-0.422,1.236-0.76,2.511-1.021,3.844c-0.15,0.762-0.057,1.421,0.188,1.969
		c-0.074,0.164-0.137,0.341-0.188,0.531c-0.906,3.378,0.275,6.046,2.334,8.235c-0.656,0.848-0.838,1.981-0.033,3.077
		c0.916,1.242,4.141,3.389,5.953,5.302c-0.361,0.339-0.631,0.798-0.754,1.386c-0.65,3.109-0.533,5.665,0.312,7.906
		c-1.266,4.126-0.334,9.128,4.318,10.408c1.293,0.354,2.574,0.06,3.809-0.312c0.322-0.096,0.619-0.155,0.9-0.186
		c1.613,1.968,2.803,4.174,3.877,6.462c-0.381,2.598,0.672,5.798,2.588,8.15c-1.176,7.755,11.59,9.214,12.088,16.367
		c0.078,1.137,0.816,2.142,1.766,2.666c1.623,3.563,3.898,6.743,7.273,8.497c0.49,0.781,1.336,1.337,2.461,1.337h2
		c1.627,0,2.67-1.294,2.9-2.674c0.955-0.233,1.771-0.884,1.992-2.028c0.438-2.271,0.596-4.481,0.607-6.798
		c0.002-0.492-0.117-0.922-0.309-1.299c-0.178-8.426-1.186-17.539,1.674-25.135c0.342-0.389,0.523-0.87,0.57-1.385
		c0.527-1.163,1.156-2.285,1.908-3.358c0.129-0.176,0.254-0.354,0.387-0.528c0.061-0.081,0.125-0.162,0.188-0.242
		c0.383-0.486,0.779-0.966,1.203-1.431c0.064-0.072,0.107-0.146,0.164-0.221c1.77-1.489,5.143-2.225,7.229-3.257
		c2.151-1.065,4.031-2.857,5.851-4.401c6.932-5.884,11.973-12.554,14.369-21.375c0.7-2.586,1.174-5.243,2.575-7.563
		c1.947-3.226,6.943-4.219,10.289-4.971c6.998-1.577,13.927-2.063,19.009-7.02c0.143-0.063,0.278-0.132,0.407-0.224
		c1.162-0.83,1.642-1.554,1.865-2.729c1.215-0.381,2.12-1.552,2.12-2.86c0-0.334-0.067-0.648-0.17-0.947
		c0.687-1.309,1.211-2.763,1.572-4.303C132.531,91.318,133.053,86.592,131.59,81.452z"/>
	<g>
		<path fill="#231F20" d="M114.197,88.75c-0.189-0.053-0.199-0.888,0.215-2.388c0.422-1.492,1.252-3.656,2.949-6.138
			c0.859-1.232,1.932-2.555,3.44-3.77c0.759-0.6,1.634-1.177,2.697-1.6c1.056-0.421,2.351-0.676,3.709-0.461
			c1.356,0.198,2.658,0.885,3.658,1.774c1.014,0.893,1.793,1.953,2.452,3.065c0.63,1.061,1.248,2.4,1.578,3.742
			c0.353,1.339,0.537,2.704,0.621,4.086c0.162,2.763-0.069,5.601-0.6,8.496c-0.539,2.892-1.369,5.85-2.674,8.817
			c-0.662,1.481-1.436,2.97-2.463,4.424c-0.512,0.728-1.094,1.444-1.779,2.134c-0.348,0.344-0.723,0.679-1.133,1l-0.404,0.293
			L126,112.538c-0.148,0.123-0.326,0.176-0.51,0.221l-0.539,0.154l-9.502,2.699L110.521,117l-2.508,0.703l-0.695,0.195
			c-0.414,0.085-0.816,0.308-1.248,0.206l-0.916-0.067l-0.59-0.026c-1.576-0.056-2.91,0.104-3.703,0.58
			c-0.424,0.237-0.844,0.594-1.305,1.112c-0.228,0.258-0.459,0.551-0.691,0.867c-0.113,0.156-0.227,0.299-0.297,0.421
			c-0.07,0.114-0.148,0.239-0.23,0.396c-0.648,1.178-1.096,2.729-1.439,4.413c-0.344,1.692-0.588,3.524-0.922,5.472
			c-0.36,1.938-0.717,4.062-1.844,6.311c-1.023,2.037-2.408,3.872-4,5.438c-3.203,3.141-6.955,5.106-10.424,6.794l-2.561,1.224
			l-1.229,0.599c-0.228,0.111-0.356,0.177-0.494,0.254c-0.141,0.08-0.284,0.165-0.43,0.261c-1.175,0.762-2.347,1.92-3.391,3.172
			c-2.098,2.54-3.797,5.505-5.09,8.515c-1.287,3.018-2.176,6.134-2.492,9.136c-0.168,1.231-0.016,2.957,0.053,4.548l0.264,4.89
			c0.129,3.268,0.146,6.522-0.354,9.771c-0.256,1.622-0.646,3.251-1.322,4.837c-0.664,1.576-1.674,3.132-3.076,4.318
			c-0.344,0.293-0.734,0.573-1.064,0.782c-0.295,0.194-0.619,0.407-0.977,0.61c-0.695,0.4-1.438,0.755-2.232,1.026
			c-1.57,0.556-3.449,0.715-5.137,0.225c-1.693-0.475-3.037-1.466-4.045-2.502c-1.018-1.049-1.76-2.173-2.375-3.28
			c-1.215-2.222-1.938-4.4-2.488-6.439c-1.07-4.089-1.41-7.663-1.502-10.583c-0.078-2.921,0.148-5.195,0.477-6.715
			c0.328-1.525,0.76-2.265,0.953-2.209c0.205,0.057,0.182,0.843,0.252,2.313c0.066,1.471,0.219,3.642,0.645,6.405
			c0.434,2.753,1.102,6.129,2.381,9.804c0.648,1.824,1.457,3.736,2.568,5.481c1.088,1.729,2.611,3.303,4.203,3.619
			c0.787,0.169,1.627,0.079,2.555-0.293c0.459-0.185,0.932-0.434,1.402-0.736c0.23-0.146,0.473-0.32,0.746-0.519
			c0.244-0.17,0.408-0.305,0.588-0.471c1.41-1.285,2.215-3.676,2.523-6.365c0.318-2.701,0.229-5.68,0.012-8.788l-0.393-4.81
			c-0.066-0.829-0.133-1.672-0.18-2.547c-0.023-0.448-0.043-0.862-0.051-1.366c-0.012-0.563,0.039-1.063,0.068-1.511
			c0.312-3.72,1.291-7.341,2.711-10.839c1.439-3.491,3.295-6.887,5.838-10.041c1.291-1.567,2.732-3.094,4.676-4.399
			c0.242-0.162,0.498-0.319,0.764-0.47c0.271-0.154,0.56-0.302,0.75-0.397l1.3-0.644l2.541-1.233c3.317-1.622,6.454-3.358,8.825-5.7
			c1.183-1.162,2.149-2.462,2.856-3.855c0.634-1.19,0.996-2.877,1.318-4.651c0.318-1.786,0.58-3.685,0.996-5.647
			c0.426-1.958,0.973-4.021,2.107-6.062c0.137-0.247,0.297-0.513,0.475-0.784c0.172-0.268,0.344-0.483,0.5-0.693
			c0.314-0.416,0.652-0.836,1.033-1.254c0.75-0.832,1.711-1.687,2.875-2.311c1.16-0.633,2.424-0.96,3.549-1.104
			c1.139-0.147,2.176-0.141,3.164-0.098l0.729,0.045l0.359,0.028c0.053,0.004,0.025,0.004,0.041,0.005
			c0.012,0.004,0.021,0.001,0.033,0.001l0.57-0.148l2.521-0.656l4.957-1.284l9.524-2.443c0.023-0.006,0.052-0.002,0.07-0.016
			l0.031-0.014c-0.002,0.002,0.006-0.003,0.078-0.054c0.221-0.161,0.443-0.346,0.662-0.549c0.438-0.413,0.865-0.894,1.262-1.421
			c0.799-1.053,1.49-2.258,2.094-3.493c1.205-2.481,2.064-5.107,2.656-7.661c0.586-2.558,0.906-5.075,0.893-7.411
			c-0.006-1.166-0.102-2.286-0.307-3.311c-0.195-1.033-0.525-1.878-0.998-2.833c-0.897-1.811-2.1-3.101-3.375-3.377
			c-1.281-0.343-2.842,0.239-4.117,1.076c-1.295,0.842-2.381,1.89-3.283,2.895c-1.805,2.031-2.926,3.9-3.672,5.164
			C114.783,88.103,114.406,88.811,114.197,88.75z"/>
	</g>
	<g>
		<path fill="#231F20" d="M39.697,181.75c-0.068,0.4-0.721,0.712-1.9,0.776c-1.172,0.06-2.879-0.146-4.857-0.907
			c-1.971-0.755-4.203-2.078-6.229-4.085c-2.021-1.996-3.834-4.678-4.891-7.866c-1.061-3.181-1.205-6.536-0.553-9.414
			c0.631-2.893,2.008-5.236,3.432-6.839c1.432-1.616,2.881-2.547,3.953-3.016c1.084-0.462,1.805-0.477,2.045-0.15
			c0.533,0.697-1.066,2.537-2.488,5.55c-0.701,1.508-1.307,3.319-1.49,5.369c-0.195,2.042,0.039,4.322,0.799,6.614
			c0.76,2.292,1.953,4.344,3.285,6.035c1.336,1.698,2.809,3.034,4.154,4.071C37.658,179.951,39.842,180.894,39.697,181.75z"/>
	</g>
	<g>
		<path fill="#231F20" d="M13.172,141.045c0.711,0.422,0.969,1.544,1.402,3.298c0.418,1.737,0.936,4.173,1.828,6.417
			c0.445,1.115,0.941,2.021,1.432,2.683c0.49,0.666,0.988,1.133,1.592,1.526c1.209,0.778,2.641,1.112,2.826,1.937
			c0.098,0.396-0.105,0.87-0.68,1.325c-0.572,0.438-1.545,0.881-2.928,0.908c-1.365,0.041-3.141-0.488-4.582-1.655
			c-1.457-1.148-2.543-2.771-3.23-4.492c-1.354-3.473-1.176-6.713-0.49-8.953c0.354-1.121,0.863-2.001,1.398-2.522
			C12.279,140.984,12.812,140.853,13.172,141.045z"/>
	</g>
	<g>
		<path fill="#231F20" d="M31.697,103.75c-0.32,0.293-1.273-0.311-2.883-1.095c-1.6-0.775-3.949-1.61-6.748-1.108
			c-2.787,0.455-5.988,2.279-8.826,5.2C10.418,109.645,7.85,113.61,6.6,118c-0.619,2.166-0.812,4.384-0.52,6.183
			c0.365,1.93,1.186,3.892,2.203,5.57c2.057,3.411,4.9,5.926,7.541,7.501c2.658,1.601,5.137,2.276,6.908,2.622
			c1.777,0.346,2.879,0.45,2.965,0.875c0.084,0.381-0.891,1.078-2.959,1.461c-2.045,0.375-5.23,0.283-8.768-1.142
			c-3.514-1.406-7.363-4.088-10.312-8.287c-1.463-2.111-2.688-4.547-3.344-7.458c-0.604-3.073-0.287-6.08,0.506-8.944
			c1.652-5.708,4.902-10.284,8.613-13.643c3.707-3.341,8.205-5.413,12.314-5.42c2.035-0.025,3.871,0.458,5.289,1.15
			c1.428,0.691,2.459,1.554,3.184,2.323C31.656,102.358,31.986,103.495,31.697,103.75z"/>
	</g>
	<g>
		<path fill="#231F20" d="M28.197,82.25c-0.219,0.361-0.752,0.478-1.482,0.518c-0.727,0.039-1.67,0.002-2.59,0.167
			c-0.934,0.159-1.736,0.521-2.469,1.186c-0.736,0.662-1.469,1.728-2.016,3.08c-0.543,1.352-0.842,2.801-0.934,4.085
			c-0.094,1.293,0.021,2.411,0.234,3.3c0.207,0.899,0.545,1.6,0.852,2.193c0.303,0.591,0.543,1.075,0.404,1.472
			c-0.131,0.379-0.658,0.657-1.59,0.54c-0.91-0.107-2.24-0.733-3.314-2.042c-2.209-2.614-3.002-7.327-1.215-11.796
			c0.896-2.227,2.453-4.256,4.531-5.445c1.027-0.591,2.154-0.943,3.209-1.043c1.055-0.111,2.018,0.027,2.816,0.259
			c1.604,0.481,2.572,1.295,3.113,1.95C28.289,81.342,28.406,81.905,28.197,82.25z"/>
	</g>
	<g>
		<path fill="#231F20" d="M85.197,71.25c-0.426,0.063-0.969-1.455-2-4.045c-1.041-2.573-2.633-6.254-5.498-10.115
			c-2.842-3.837-7.061-7.843-12.693-10.373c-5.584-2.559-12.566-3.417-19.412-1.563c-1.709,0.45-3.365,1.047-4.951,1.755
			c-0.793,0.354-1.568,0.738-2.326,1.144c-0.744,0.399-1.537,0.856-2.158,1.262c-2.641,1.768-4.779,4.088-6.201,6.644
			c-1.439,2.563-2.229,5.363-2.594,8.081c-0.363,2.725-0.326,5.364-0.115,7.773c0.439,4.837,1.502,8.751,2.207,11.467
			c0.727,2.718,1.123,4.281,0.742,4.472c-0.357,0.182-1.469-1.035-2.904-3.593c-1.41-2.56-3.186-6.474-4.242-11.738
			c-0.518-2.628-0.836-5.603-0.641-8.852c0.199-3.235,0.945-6.783,2.66-10.192c1.705-3.416,4.385-6.55,7.795-8.93
			c0.902-0.616,1.709-1.092,2.598-1.593c0.877-0.49,1.783-0.953,2.713-1.38c1.863-0.856,3.832-1.579,5.883-2.12
			c4.102-1.093,8.332-1.385,12.326-0.922c3.998,0.453,7.744,1.645,11.012,3.303c6.583,3.326,11.124,8.379,13.844,13.019
			c2.75,4.682,3.824,8.95,4.217,11.865C85.834,69.558,85.59,71.197,85.197,71.25z"/>
	</g>
	<g>
		<path fill="#231F20" d="M104.197,72.25c-0.854,0.004-1.486-1.588-2.602-3.492c-1.099-1.908-2.882-4.019-5.425-4.833
			c-2.524-0.865-5.213-0.227-7.264,0.642c-2.058,0.857-3.546,1.715-4.212,1.184c-0.622-0.472-0.352-2.354,1.697-4.602
			c1.029-1.091,2.558-2.233,4.604-2.914c2.022-0.687,4.599-0.832,7.06-0.005c2.467,0.805,4.442,2.452,5.661,4.214
			c1.24,1.77,1.783,3.609,1.945,5.112C105.943,70.608,104.975,72.27,104.197,72.25z"/>
	</g>
	<g>
		<path fill="#231F20" d="M122.697,75.25c-0.844-0.118-1.143-2.479-1.42-5.958c-0.158-1.724-0.33-3.762-0.834-5.689
			c-0.252-0.955-0.603-1.863-1.051-2.55c-0.455-0.693-0.947-1.131-1.623-1.443c-0.338-0.159-0.736-0.276-1.17-0.358
			c-0.23-0.04-0.341-0.052-0.521-0.06c-0.177-0.008-0.371-0.001-0.574,0.019c-0.815,0.071-1.76,0.367-2.642,0.753
			c-1.786,0.783-3.35,1.904-4.551,2.926c-1.205,1.033-2.059,1.994-2.668,2.704c-0.619,0.703-1.022,1.194-1.449,1.159
			c-0.396-0.025-0.791-0.68-0.766-1.9c0.021-1.211,0.51-2.907,1.613-4.667c1.113-1.749,2.777-3.606,5.215-5.098
			c1.225-0.73,2.648-1.396,4.414-1.694c0.439-0.074,0.902-0.122,1.387-0.129c0.484-0.015,1.043,0.028,1.476,0.093
			c0.894,0.137,1.821,0.378,2.737,0.801c1.854,0.821,3.367,2.376,4.199,3.938c0.859,1.573,1.223,3.115,1.406,4.506
			c0.338,2.794,0.014,5.103-0.369,6.981C124.674,73.321,123.49,75.363,122.697,75.25z"/>
	</g>
	<g opacity="0.2">
		<path fill="#FFFFFF" d="M36.697,76.25c0.006,0-0.025-0.491-0.188-1.396c-0.15-0.904-0.428-2.228-0.65-3.898
			c-0.221-1.668-0.4-3.688-0.24-5.937c0.156-2.244,0.635-4.73,1.771-7.222c1.125-2.471,2.873-4.743,5.139-6.156
			c1.121-0.705,2.35-1.167,3.514-1.351c1.166-0.184,2.248-0.111,3.154,0.088c1.824,0.408,2.996,1.177,3.789,1.641
			c0.783,0.494,1.205,0.738,1.211,0.729c0.002,0.001-0.459-0.208-1.355-0.327c-0.881-0.119-2.23-0.142-3.615,0.289
			c-0.688,0.217-1.363,0.547-1.967,0.992c-0.607,0.444-1.148,0.996-1.65,1.644c-0.998,1.296-1.873,2.995-2.764,4.948
			c-0.885,1.952-1.717,3.946-2.518,5.813c-0.793,1.869-1.551,3.615-2.143,5.119c-0.592,1.504-1.027,2.763-1.246,3.644
			C36.711,75.753,36.693,76.251,36.697,76.25z"/>
	</g>
	<g opacity="0.2">
		<path fill="#FFFFFF" d="M18.197,128.75c0,0-0.072-0.058-0.227-0.145l-0.699-0.392c-0.299-0.184-0.701-0.396-1.117-0.723
			c-0.418-0.322-0.914-0.711-1.383-1.227c-0.945-1.019-1.895-2.49-2.422-4.289c-0.537-1.792-0.668-3.888-0.197-5.976
			c0.461-2.088,1.471-3.948,2.744-5.346c1.27-1.406,2.793-2.32,4.109-2.79c0.656-0.245,1.279-0.36,1.799-0.45
			c0.521-0.094,0.975-0.098,1.324-0.119c0.354-0.018,0.623-0.012,0.801-0.021c0.178-0.007,0.268-0.024,0.268-0.024
			c0.004,0-0.375,0.069-0.938,0.453c-0.285,0.177-0.598,0.457-0.922,0.788c-0.328,0.328-0.635,0.768-0.93,1.236
			c-0.59,0.953-1.029,2.153-1.398,3.435c-0.367,1.29-0.674,2.679-1,4.137c-0.318,1.459-0.625,2.862-0.852,4.201
			c-0.225,1.336-0.359,2.622-0.275,3.75c0.049,0.559,0.115,1.089,0.25,1.534c0.133,0.445,0.281,0.836,0.445,1.128
			C17.896,128.516,18.201,128.752,18.197,128.75z"/>
	</g>
	<g opacity="0.2">
		<path fill="#FFFFFF" d="M36.697,162.25c0.006-0.002-0.043-0.104-0.279-0.259c-0.107-0.081-0.25-0.178-0.443-0.292
			c-0.178-0.116-0.455-0.241-0.666-0.409c-0.217-0.165-0.516-0.351-0.725-0.581c-0.211-0.229-0.496-0.485-0.666-0.782
			c-0.389-0.586-0.584-1.315-0.492-2.021c0.092-0.709,0.455-1.301,0.943-1.738l2.133-1.911l0.195,0.094
			c0.244,0.116,0.494,0.313,0.783,0.502c0.275,0.206,0.654,0.397,1.023,0.871c0.18,0.227,0.311,0.505,0.35,0.726
			c0.043,0.224,0.021,0.388-0.012,0.511c-0.096,0.25-0.225,0.381-0.314,0.509c-0.383,0.486-0.348,0.8-0.33,0.781
			c0.025-0.02-0.203-0.146-0.791-0.498c-0.145-0.08-0.32-0.182-0.494-0.179c-0.018,0.002-0.035,0.002-0.053,0.007
			c-0.025,0.011,0.01-0.002,0.057-0.019l0.119-0.05c0.113-0.045,0.203-0.092,0.254-0.123c0.104-0.063,0.094-0.083,0.051-0.021
			s-0.123,0.208-0.203,0.468c-0.037,0.123-0.08,0.281-0.117,0.462l-0.076,0.408c-0.037,0.145-0.133,0.327-0.246,0.444l2.328-1.818
			c0.256,0.494,0.398,0.938,0.352,1.33c-0.047,0.393-0.285,0.718-0.639,1.088c-0.15,0.183-0.398,0.379-0.568,0.573
			c-0.16,0.194-0.406,0.4-0.562,0.593c-0.152,0.189-0.369,0.386-0.49,0.552c-0.131,0.167-0.227,0.313-0.287,0.429
			C36.688,162.135,36.689,162.252,36.697,162.25z"/>
	</g>
	<g opacity="0.2">
		<path fill="#FFFFFF" d="M91.697,73.25c-0.004-0.007-0.01,0.038,0.111,0.193c0.053,0.069,0.133,0.162,0.27,0.257
			c0.113,0.076,0.045,0.029,0.018,0.017l-0.078-0.04c-0.063-0.022-0.09-0.033-0.133-0.034c-0.014-0.003-0.021,0.003,0.008-0.009
			c0.058-0.016,0.224-0.138,0.357-0.368c0.141-0.228,0.232-0.506,0.303-0.758c0.021-0.074,0.08-0.411,0.025-0.063
			c-0.027,0.18-0.045,0.453-0.039,0.638c0.004,0.18,0.008,0.436,0.027,0.584c0.02,0.164,0.041,0.285,0.061,0.371
			c0.041,0.195,0.07,0.22,0.07,0.22c-0.002-0.014-0.025,0.012-0.082,0.201L92.5,74.823c-0.049,0.148-0.121,0.392-0.205,0.563
			c-0.08,0.179-0.193,0.439-0.318,0.602c-0.123,0.17-0.285,0.402-0.463,0.521c-0.172,0.148-0.383,0.235-0.6,0.264
			c-0.227,0.021-0.453-0.016-0.709-0.17c-0.234-0.142-0.484-0.397-0.656-0.734c-0.184-0.34-0.305-0.789-0.275-1.234
			c-0.006-0.458,0.224-0.872,0.431-1.147c0.207-0.269,0.532-0.408,0.76-0.451c0.224-0.073,0.486-0.011,0.646,0.021
			c0.173,0.034,0.291,0.085,0.377,0.116C91.67,73.252,91.701,73.257,91.697,73.25z"/>
	</g>
	<g opacity="0.2">
		<path fill="#FFFFFF" d="M99.697,74.75c0.002-0.007-0.025,0.021-0.035,0.215c-0.002,0.043-0.004,0.095,0,0.155
			c-0.002,0.035,0.029,0.199,0.018,0.132c-0.006-0.043-0.027-0.098-0.035-0.128c-0.033-0.084-0.082-0.106-0.043-0.084
			c0.037,0.021,0.183,0.042,0.363-0.005c0.184-0.043,0.369-0.136,0.531-0.228l0.219-0.144l0.047-0.035
			c0.004-0.003,0.023-0.018,0.016-0.012l-0.069,0.052l-0.242,0.205c-0.133,0.119-0.313,0.294-0.414,0.407
			c-0.108,0.122-0.186,0.216-0.237,0.286c-0.117,0.155-0.119,0.188-0.115,0.184c0.004-0.005-0.025,0-0.189,0.106l-0.322,0.193
			c-0.133,0.077-0.35,0.208-0.521,0.28c-0.176,0.078-0.433,0.195-0.625,0.231c-0.199,0.046-0.47,0.108-0.67,0.083
			c-0.218-0.002-0.422-0.075-0.586-0.192c-0.168-0.128-0.295-0.296-0.361-0.568c-0.062-0.246-0.057-0.586,0.062-0.927
			c0.109-0.354,0.338-0.736,0.668-1.018c0.311-0.313,0.756-0.431,1.086-0.469c0.326-0.034,0.643,0.105,0.822,0.238
			c0.196,0.112,0.328,0.343,0.41,0.479c0.086,0.148,0.127,0.27,0.157,0.354C99.686,74.732,99.695,74.757,99.697,74.75z"/>
	</g>
	<g>
		<circle fill="#82A0CA" cx="95.626" cy="31.474" r="11.224"/>
		<path fill="#020202" d="M108.598,31.518c-0.078,1.598-0.492,3.345-1.207,4.83c-0.721,1.508-1.744,2.845-2.963,3.929
			c-2.432,2.179-5.604,3.39-8.803,3.421c-3.201,0.073-6.434-1.169-8.83-3.393c-2.42-2.215-3.998-5.383-4.143-8.875
			c-0.182-3.303,1.053-6.908,3.457-9.473c1.205-1.281,2.666-2.351,4.301-3.07c0.818-0.357,1.674-0.636,2.551-0.824
			c0.438-0.095,0.879-0.167,1.324-0.223l0.67-0.062l0.734-0.028l0.551,0.012l0.723,0.049c0.457,0.046,0.895,0.107,1.34,0.192
			c0.883,0.177,1.742,0.46,2.566,0.813c1.645,0.723,3.115,1.801,4.301,3.109c2.365,2.633,3.6,6.152,3.43,9.546L108.598,31.518z
			 M105.1,31.474c-0.143-2.494-1.33-4.814-3.146-6.327c-0.894-0.77-1.91-1.357-2.979-1.758c-0.533-0.209-1.088-0.354-1.646-0.463
			c-0.274-0.056-0.565-0.099-0.841-0.129l-0.375-0.031l-0.551-0.016c-2.168-0.063-4.561,0.79-6.293,2.368
			c-1.774,1.581-2.963,3.815-3.119,6.4c-0.172,2.394,0.675,5.067,2.435,6.998c0.883,0.96,1.957,1.769,3.168,2.311
			c1.213,0.54,2.526,0.835,3.873,0.871c2.688,0.06,5.356-1.152,7.069-3.153c0.859-0.994,1.502-2.146,1.906-3.354
			c0.414-1.229,0.576-2.42,0.498-3.761V31.474L105.1,31.474z"/>
	</g>
	<g>
		<circle fill="#82A0CA" cx="74.213" cy="7.75" r="5.5"/>
		<path fill="#020202" d="M81.975,7.808l0.017,0.27l-0.007,0.431c-0.014,0.267-0.03,0.515-0.069,0.771
			c-0.074,0.51-0.197,1.018-0.388,1.501c-0.381,0.97-1.016,1.825-1.778,2.505c-1.508,1.391-3.592,2.078-5.535,1.909
			c-1.951-0.151-3.754-1.123-4.924-2.521c-1.186-1.396-1.758-3.196-1.686-4.923c0.143-3.5,3.002-6.506,6.641-6.755
			c1.696-0.163,3.659,0.373,5.127,1.598c1.494,1.202,2.489,3.125,2.604,5.158L81.975,7.808z M77.449,7.75
			c0.127-0.853-0.063-1.791-0.617-2.62c-0.563-0.823-1.463-1.476-2.65-1.625c-1.051-0.148-2.318,0.233-3.147,1.066
			c-0.846,0.824-1.316,2.021-1.213,3.179c0.061,1.159,0.676,2.223,1.537,2.855c0.861,0.649,1.921,0.866,2.855,0.701
			c0.941-0.155,1.719-0.656,2.242-1.314c0.254-0.336,0.436-0.7,0.607-1.062c0.086-0.183,0.172-0.366,0.235-0.563l0.089-0.296
			l0.032-0.108l0.029-0.27L77.449,7.75L77.449,7.75z"/>
	</g>
	<g>
		<circle fill="#82A0CA" cx="57.947" cy="28" r="3.75"/>
		<path fill="#020202" d="M63.621,28.098l0.006,0.368c-0.01,0.192-0.035,0.431-0.062,0.644c-0.068,0.381-0.182,0.732-0.338,1.078
			c-0.32,0.679-0.777,1.28-1.322,1.771c-1.092,0.979-2.578,1.453-3.957,1.329c-1.373-0.107-2.674-0.79-3.512-1.775
			c-0.857-0.979-1.307-2.265-1.266-3.512c0.029-2.529,2.125-4.799,4.777-4.997c1.291-0.114,2.721,0.292,3.793,1.203
			c1.086,0.896,1.805,2.31,1.883,3.794L63.621,28.098z M59.771,28c0.084-0.48-0.004-1.021-0.314-1.509
			c-0.314-0.485-0.836-0.885-1.51-0.994c-0.662-0.117-1.391,0.095-1.928,0.575c-0.533,0.494-0.824,1.202-0.795,1.928
			c0.033,0.72,0.391,1.385,0.93,1.793c0.549,0.409,1.199,0.535,1.793,0.42c0.586-0.116,1.053-0.448,1.346-0.866
			c0.148-0.205,0.248-0.437,0.303-0.663c0.027-0.112,0.057-0.231,0.088-0.329c0.008-0.03,0.025-0.035,0.045-0.085l0.045-0.367
			L59.771,28z"/>
	</g>
	<g>
		<circle fill="#82A0CA" cx="139.198" cy="66.622" r="3.628"/>
		<path fill="#020202" d="M143.887,66.676c-0.205,1.079-0.479,2.374-1.289,3.347c-0.781,0.99-2.008,1.725-3.397,1.911
			c-1.373,0.197-2.949-0.21-4.13-1.184c-0.584-0.493-1.088-1.108-1.442-1.818c-0.17-0.358-0.312-0.732-0.41-1.121
			c-0.043-0.195-0.084-0.393-0.114-0.589l-0.031-0.299l-0.012-0.149l-0.006-0.074l-0.003-0.038v-0.018l0.003-0.147l0.002-0.355
			c0.014-0.209,0.043-0.478,0.08-0.711c0.079-0.414,0.19-0.795,0.342-1.176c0.311-0.752,0.778-1.434,1.367-1.983
			c0.588-0.549,1.293-0.968,2.047-1.214c0.379-0.118,0.766-0.204,1.153-0.242c0.195-0.014,0.39-0.025,0.58-0.028l0.685,0.043
			l0.352,0.087c0.193,0.041,0.428,0.099,0.635,0.156c0.365,0.126,0.693,0.281,1.012,0.464c0.627,0.373,1.16,0.859,1.566,1.412
			c0.82,1.102,1.16,2.454,1.016,3.676L143.887,66.676z M141.766,66.622c-0.141-0.68-0.58-1.216-1.111-1.455
			c-0.266-0.119-0.536-0.17-0.786-0.162c-0.123,0.006-0.252,0.025-0.351,0.054c-0.029,0.023-0.026,0.04-0.069,0.051l-0.359,0.05
			c0.22,0.007,0.062,0.002,0.106,0.005h-0.002l-0.004,0.003l-0.01,0.005l-0.018,0.012l-0.035,0.019l-0.068,0.037l-0.123,0.077
			c-0.076,0.06-0.145,0.109-0.207,0.168c-0.123,0.117-0.223,0.237-0.307,0.358c-0.084,0.123-0.152,0.245-0.207,0.371
			c-0.025,0.06-0.051,0.136-0.068,0.186c0.002,0-0.008-0.033-0.024-0.007l-0.033,0.354c0.007-0.255,0.002-0.07,0.004-0.126v0.002
			v0.003v0.007l-0.002,0.015l-0.004,0.026l-0.012,0.059c-0.002,0.039-0.002,0.075-0.011,0.114c0,0.075-0.006,0.156,0.002,0.24
			c0.007,0.168,0.041,0.356,0.129,0.535c0.16,0.378,0.472,0.75,1.003,0.942c0.514,0.19,1.172,0.146,1.731-0.214
			c0.271-0.184,0.521-0.426,0.705-0.723c0.086-0.148,0.146-0.319,0.162-0.486v-0.218l-0.031-0.357V66.622z"/>
	</g>
	<circle opacity="0.2" fill="#FFFFFF" enable-background="new    " cx="100.455" cy="29.875" r="1.875"/>
	<circle opacity="0.2" fill="#FFFFFF" enable-background="new    " cx="74.213" cy="5.875" r="1.875"/>
</g>
</svg>
