<?xml version="1.0" encoding="utf-8"?>
<!-- Generator: Adobe Illustrator 15.0.0, SVG Export Plug-In . SVG Version: 6.00 Build 0)  -->
<!DOCTYPE svg PUBLIC "-//W3C//DTD SVG 1.1//EN" "http://www.w3.org/Graphics/SVG/1.1/DTD/svg11.dtd">
<svg version="1.1" id="Layer_1" xmlns="http://www.w3.org/2000/svg" xmlns:xlink="http://www.w3.org/1999/xlink" x="0px" y="0px"
	 width="88.328px" height="283.998px" viewBox="0 0 88.328 283.998" enable-background="new 0 0 88.328 283.998"
	 xml:space="preserve">
<g>
	<path fill="#FFFFFF" d="M8.373,8.072h73.332c2.506,0,4.535,2.029,4.535,4.534v6.274c0,2.504-2.029,4.534-4.535,4.534h-6.229V282.76
		H14.604V23.415h-6.23c-2.502,0-4.533-2.03-4.533-4.534v-6.274C3.84,10.102,5.871,8.072,8.373,8.072z"/>
	<rect x="15.805" y="51.14" fill="#4869B1" width="59.619" height="217.082"/>
	<path fill="#231F20" d="M88.32,18.991l-0.004-0.048c0,0.003,0-0.115-0.002-0.078v-0.023l-0.01-0.099l-0.016-0.194l-0.031-0.392
		c-0.041-0.521-0.092-1.043-0.125-1.564c-0.066-1.042-0.148-2.083-0.193-3.126l-0.043-0.782c-0.012-0.299-0.045-0.692-0.113-1.028
		c-0.137-0.694-0.379-1.366-0.732-1.972c-0.711-1.21-1.822-2.152-3.113-2.648c-0.652-0.25-1.32-0.38-2.033-0.394l-1.6,0.005
		c-1.043,0.011-2.086,0.004-3.127-0.006c-2.086-0.019-4.17-0.078-6.256-0.167c-4.17-0.177-8.34-0.5-12.51-0.809
		c-4.17-0.3-8.34-0.587-12.51-0.731c-4.17-0.147-8.34-0.236-12.51-0.302c-4.17-0.063-8.34-0.069-12.51-0.083L8.373,4.486
		c-1.988-0.029-4.004,0.737-5.5,2.066C1.367,7.878,0.359,9.779,0.139,11.83l-0.035,0.454l-0.012,0.209l-0.014,0.515l-0.025,0.835
		l-0.035,1.67C-0.008,16.628,0,17.743,0.002,18.858c0,0.978,0.197,2.041,0.576,2.988c0.379,0.956,0.939,1.834,1.637,2.572
		c1.381,1.488,3.354,2.406,5.348,2.493c1.062,0.023,1.428-0.094,2.023-0.152c0.557-0.075,1.113-0.16,1.672-0.261
		c0.318-0.057,0.637-0.128,0.955-0.195c-0.836,20.649-1.238,41.298-1.555,61.947c-0.289,21.613-0.379,43.224-0.322,64.834
		c0.059,21.615,0.264,43.226,0.746,64.838c0.23,10.805,0.527,21.612,0.904,32.418c0.41,10.805,0.805,21.61,1.455,32.417v0.002v1.161
		h1.162h60.873h1.158l0.002-1.161l0.023-16.21l0.055-16.209l0.191-32.418l0.301-32.418l0.15-16.208l0.195-16.21l0.395-32.418
		l0.445-32.419c0.293-20.533,0.623-41.066,1.018-61.6c0.775-0.127,1.553-0.247,2.34-0.359c0.846-0.082,1.676-0.299,2.434-0.646
		c0.754-0.353,1.436-0.825,2.018-1.383c1.154-1.125,1.898-2.616,2.076-4.153c0.025-0.193,0.035-0.378,0.045-0.577l0.006-0.332
		C88.328,19.11,88.324,19.062,88.32,18.991z M84.58,12.684l-0.039,0.782c-0.047,1.043-0.129,2.084-0.195,3.126
		c-0.033,0.521-0.084,1.042-0.123,1.564l-0.035,0.392l-0.016,0.194l-0.006,0.099l-0.002,0.023c-0.002,0.056-0.002-0.046-0.002-0.026
		l-0.006,0.049c-0.008,0.056-0.014,0.142-0.021,0.18c-0.01,0.021-0.016,0.04-0.023,0.059c-0.018,0.06-0.039,0.132-0.066,0.195
		c-0.195,0.518-0.576,0.927-1.023,1.137c-0.443,0.221-0.916,0.224-1.305,0.079c-2.051-0.297-4.16-0.635-6.238-1.115h-0.002
		l-4.07,0.078l0.076,3.914c0.426,21.612,0.768,43.225,1.078,64.835l0.441,32.419l0.396,32.418l0.195,16.21l0.15,16.208l0.299,32.418
		l0.193,32.418l0.053,16.209l0.021,15.046H15.83c0.611-10.419,0.996-20.837,1.391-31.255c0.377-10.806,0.674-21.613,0.904-32.418
		c0.482-21.612,0.689-43.223,0.746-64.838c0.057-21.611-0.033-43.222-0.322-64.834c-0.33-21.611-0.742-43.224-1.662-64.835
		l-0.102-2.381l-2.182,0.099H14.6c-1.115-0.357-2.229-0.601-3.342-0.802c-0.559-0.1-1.115-0.184-1.672-0.259
		c-0.518-0.077-1.271-0.133-1.32-0.199c-0.225-0.132-0.371-0.292-0.475-0.468c-0.051-0.09-0.082-0.179-0.098-0.265
		c-0.018-0.095-0.018-0.147-0.016-0.282c0.004-1.115,0.012-2.23-0.014-3.344l-0.037-1.67l-0.043-1.331
		c-0.016-0.171,0.045-0.394,0.195-0.562c0.148-0.178,0.352-0.266,0.594-0.29l12.51-0.065c4.17-0.013,8.34-0.02,12.51-0.082
		c4.17-0.065,8.34-0.153,12.51-0.301c4.17-0.146,8.34-0.434,12.51-0.733c4.17-0.306,8.34-0.629,12.51-0.809
		c2.086-0.09,4.17-0.148,6.256-0.167c1.041-0.009,2.084-0.018,3.127-0.005l0.781,0.003l0.391,0.001l0.195,0.002l0.16,0.006
		c0.328,0.022,0.697,0.105,1.012,0.247c0.65,0.271,1.184,0.8,1.475,1.418c0.145,0.312,0.242,0.639,0.268,0.974
		C84.598,12.333,84.594,12.461,84.58,12.684z"/>
	<ellipse fill="#345693" cx="44.934" cy="51.095" rx="27.053" ry="4.511"/>
	<circle opacity="0.34" fill="#FFFFFF" cx="57.186" cy="93.419" r="4.42"/>
	<circle opacity="0.34" fill="#FFFFFF" cx="30.921" cy="63.631" r="2.544"/>
	<circle opacity="0.34" fill="#FFFFFF" cx="48.346" cy="70.691" r="1.568"/>
	<circle opacity="0.34" fill="#FFFFFF" cx="42.485" cy="86.358" r="2.544"/>
	<circle opacity="0.34" fill="#FFFFFF" cx="33.465" cy="136.071" r="3.615"/>
	<g opacity="0.2">
		<polygon fill="#FFFFFF" points="28.553,19.01 25.553,174.486 22.553,19.01 		"/>
	</g>
</g>
</svg>
