<?xml version="1.0" encoding="utf-8"?>
<!-- Generator: Adobe Illustrator 15.0.0, SVG Export Plug-In . SVG Version: 6.00 Build 0)  -->
<!DOCTYPE svg PUBLIC "-//W3C//DTD SVG 1.1//EN" "http://www.w3.org/Graphics/SVG/1.1/DTD/svg11.dtd">
<svg version="1.1" id="Layer_1" xmlns="http://www.w3.org/2000/svg" xmlns:xlink="http://www.w3.org/1999/xlink" x="0px" y="0px"
	 width="86px" height="283.998px" viewBox="0 0 95.635 283.998" enable-background="new 0 0 95.635 283.998"
	 xml:space="preserve">
<g>
	<path fill="#FFFFFF" d="M12.23,8.072h73.332c2.504,0,4.533,2.029,4.533,4.534v6.274c0,2.504-2.029,4.534-4.533,4.534h-6.23V282.76
		H18.461V23.415h-6.23c-2.504,0-4.533-2.03-4.533-4.534v-6.274C7.697,10.102,9.727,8.072,12.23,8.072z"/>
	<rect x="19.951" y="51.14" fill="#2F368F" width="59.619" height="217.082"/>
	<path fill="#231F20" d="M95.621,11.914c-0.014-0.288-0.047-0.575-0.084-0.863c-0.166-1.152-0.545-2.277-1.098-3.303
		c-1.102-2.054-2.924-3.696-5.105-4.562c-0.543-0.219-1.107-0.392-1.68-0.51c-0.287-0.059-0.574-0.109-0.865-0.144l-0.223-0.025
		l-0.275-0.023l-0.279-0.015l-0.146-0.006l-0.336-0.006l-0.195,0.001l-0.393,0.002L84.16,2.465l-3.127,0.02l-6.254,0.074
		c-4.172,0.068-8.34,0.148-12.512,0.281C53.93,3.066,45.59,3.417,37.25,3.723c-8.34,0.334-16.68,0.565-25.02,0.763
		c-1.99,0.009-3.977,0.794-5.451,2.12c-1.479,1.328-2.471,3.205-2.691,5.233l-0.035,0.449l-0.014,0.209l-0.016,0.511l-0.029,0.835
		l-0.053,1.67c-0.039,1.114-0.047,2.229-0.057,3.344c-0.004,0.974,0.186,2.037,0.561,2.984c0.377,0.957,0.932,1.836,1.627,2.574
		c1.379,1.49,3.354,2.408,5.348,2.495c1.062,0.023,1.428-0.094,2.023-0.152c0.557-0.075,1.115-0.16,1.67-0.261
		c0.32-0.057,0.639-0.128,0.959-0.195c-0.838,20.649-1.242,41.298-1.559,61.947c-0.287,21.613-0.377,43.224-0.32,64.834
		c0.059,21.615,0.264,43.226,0.746,64.838c0.229,10.805,0.527,21.612,0.904,32.418c0.41,10.805,0.805,21.61,1.455,32.417v0.002
		v1.161h1.162h60.871h1.16l0.002-1.161l0.023-16.21l0.055-16.209l0.191-32.418l0.301-32.418l0.148-16.208l0.195-16.21l0.396-32.418
		l0.443-32.419c0.287-20.104,0.611-40.208,0.994-60.312c0.262,0.029,0.523,0.062,0.785,0.091l0.781,0.083l0.809,0.075
		c2.127,0.101,4.361-0.601,6.084-1.96c1.738-1.337,3.01-3.335,3.479-5.552c0.062-0.278,0.107-0.542,0.145-0.841
		c0.02-0.178,0.035-0.356,0.047-0.533l0.016-0.229l0.043-0.915l0.076-1.564c0.037-1.042,0.086-2.083,0.109-3.126l0.02-0.782v-0.338
		C95.635,12.202,95.631,12.06,95.621,11.914z M84.547,12.671c0.002-0.015,0.002-0.028,0.002-0.041l0.002-0.02
		c0.002-0.017,0.002,0.052,0.004,0.073l0.004,0.158c-0.004-0.027-0.012-0.056-0.012-0.084
		C84.543,12.729,84.545,12.699,84.547,12.671z M82.463,18.983c-1.043,0.126-2.086,0.264-3.129,0.439h-0.002l-4.07,0.078l0.078,3.914
		c0.424,21.612,0.766,43.225,1.076,64.835l0.443,32.419l0.395,32.418l0.197,16.21l0.148,16.208l0.301,32.418l0.191,32.418
		l0.055,16.209l0.021,15.046h-58.48c0.609-10.419,0.996-20.837,1.391-31.255c0.377-10.806,0.674-21.613,0.904-32.418
		c0.482-21.612,0.689-43.223,0.746-64.838c0.057-21.611-0.033-43.222-0.322-64.834c-0.33-21.611-0.742-43.224-1.662-64.835
		l-0.102-2.381l-2.182,0.099h-0.004c-1.115-0.357-2.229-0.601-3.344-0.802c-0.555-0.1-1.113-0.184-1.67-0.259
		c-0.52-0.077-1.271-0.133-1.32-0.199c-0.227-0.132-0.369-0.292-0.477-0.466c-0.051-0.09-0.086-0.177-0.105-0.263
		c-0.021-0.095-0.027-0.147-0.031-0.286c-0.008-1.115-0.018-2.23-0.055-3.344l-0.055-1.67l-0.051-1.337
		c-0.016-0.194,0.061-0.442,0.238-0.61c0.17-0.184,0.4-0.25,0.643-0.235c8.34,0.197,16.68,0.426,25.02,0.76
		c8.34,0.308,16.68,0.659,25.018,0.885c4.172,0.133,8.34,0.212,12.512,0.283l6.254,0.074l3.127,0.02l0.424,0.004
		c0.023,0.969,0.066,1.937,0.102,2.907l0.074,1.564l0.02,0.392l0.01,0.173L84.027,18.8C83.506,18.854,82.984,18.915,82.463,18.983z
		 M84.895,18.71c0.199-0.284,0.561-0.261,0.668-0.068L84.895,18.71z M85.631,13.697l-0.084-0.002l-0.014-0.002h0.049l0.049,0.002
		h0.021L85.631,13.697z"/>
	<ellipse fill="#27316D" cx="48.896" cy="51.095" rx="27.053" ry="4.511"/>
	<g opacity="0.2">
		<polygon fill="#FFFFFF" points="31.057,19.01 28.057,174.486 25.057,19.01 		"/>
	</g>
	<circle opacity="0.34" fill="#FFFFFF" cx="55.282" cy="135.09" r="5.21"/>
	<circle opacity="0.34" fill="#FFFFFF" cx="55.283" cy="81.64" r="2.543"/>
	<circle opacity="0.34" fill="#FFFFFF" cx="60.494" cy="121.604" r="3.615"/>
	<circle opacity="0.34" fill="#FFFFFF" cx="51.797" cy="129.879" r="3.615"/>
	<circle opacity="0.34" fill="#FFFFFF" cx="44.238" cy="67.092" r="3.615"/>
	<circle opacity="0.34" fill="#FFFFFF" cx="40.623" cy="198.517" r="5.211"/>
</g>
</svg>
