<?xml version="1.0" encoding="UTF-8" standalone="no"?>
<!-- Generator: Adobe Illustrator 16.0.0, SVG Export Plug-In . SVG Version: 6.00 Build 0)  -->

<svg
   xmlns:dc="http://purl.org/dc/elements/1.1/"
   xmlns:cc="http://creativecommons.org/ns#"
   xmlns:rdf="http://www.w3.org/1999/02/22-rdf-syntax-ns#"
   xmlns:svg="http://www.w3.org/2000/svg"
   xmlns="http://www.w3.org/2000/svg"
   xmlns:sodipodi="http://sodipodi.sourceforge.net/DTD/sodipodi-0.dtd"
   xmlns:inkscape="http://www.inkscape.org/namespaces/inkscape"
   version="1.1"
   id="Layer_1"
   x="0px"
   y="0px"
   width="120.922px"
   height="650.396px"
   viewBox="0 0 200.922 650.396"
   enable-background="new 0 0 200.922 387.396"
   xml:space="preserve"
   inkscape:version="0.48.4 r9939"
   sodipodi:docname="07 Violet.svg"><metadata
     id="metadata113"><rdf:RDF><cc:Work
         rdf:about=""><dc:format>image/svg+xml</dc:format><dc:type
           rdf:resource="http://purl.org/dc/dcmitype/StillImage" /></cc:Work></rdf:RDF></metadata><defs
     id="defs111" /><sodipodi:namedview
     pagecolor="#ffffff"
     bordercolor="#666666"
     borderopacity="1"
     objecttolerance="10"
     gridtolerance="10"
     guidetolerance="10"
     inkscape:pageopacity="0"
     inkscape:pageshadow="2"
     inkscape:window-width="640"
     inkscape:window-height="480"
     id="namedview109"
     showgrid="false"
     inkscape:zoom="0.60676649"
     inkscape:cx="73.589996"
     inkscape:cy="372.3969"
     inkscape:window-x="75"
     inkscape:window-y="34"
     inkscape:window-maximized="0"
     inkscape:current-layer="Layer_1" /><g
     id="g3"
     transform="matrix(1.3424723,0,0,2.0050049,-1.1144053,-209.09249)"><path
       d="m 26.395,113.021 h 100.067 c 3.414,0 6.183,2.028 6.183,4.534 v 6.273 c 0,2.504 -2.769,4.534 -6.183,4.534 h -8.505 V 387.707 H 34.897 V 128.364 h -8.5 c -3.414,0 -6.186,-2.03 -6.186,-4.534 v -6.273 c -0.002,-2.506 2.77,-4.536 6.184,-4.536 z"
       id="path5"
       inkscape:connector-curvature="0"
       style="fill:#804096" /><rect
       x="35.751999"
       y="156.089"
       width="81.352997"
       height="217.08299"
       id="rect7"
       style="fill:#804096" /><path
       d="m 134.747,116.606 c -0.129,-0.701 -0.426,-1.391 -0.875,-2.021 -0.898,-1.265 -2.407,-2.296 -4.228,-2.858 -0.919,-0.285 -1.868,-0.445 -2.899,-0.486 l -2.196,-0.044 -4.27,-0.08 -8.533,-0.163 -17.07,-0.322 -68.28,-1.197 c -2.71,-0.028 -5.474,0.725 -7.505,2.065 -2.055,1.328 -3.398,3.243 -3.659,5.283 l -0.042,0.452 -0.011,0.209 -0.007,0.513 -0.008,0.835 -0.005,1.67 -0.002,3.345 c -0.005,0.962 0.237,2.011 0.73,2.951 0.493,0.949 1.226,1.829 2.148,2.58 1.831,1.507 4.468,2.491 7.23,2.687 l 0.631,0.033 0.314,0.007 0.698,0.002 1.141,-0.002 1.927,-0.013 3.334,255.655 v 0.001 1.161 h 1.584 83.062 l 1.468,0.078 0.12,-1.238 c 1.044,-10.807 1.717,-21.613 2.287,-32.419 0.56,-10.806 0.962,-21.61 1.27,-32.419 0.581,-21.611 0.71,-43.223 0.563,-64.835 -0.129,-21.611 -0.487,-43.224 -1.146,-64.836 -0.32,-10.805 -0.715,-21.611 -1.24,-32.417 -0.271,-5.403 -0.495,-10.807 -0.836,-16.209 -0.285,-5.046 -0.608,-10.093 -0.989,-15.14 l 7.055,0.146 c 1.8,0.027 3.635,-0.428 5.062,-1.269 1.428,-0.835 2.465,-2.053 2.838,-3.392 0.051,-0.168 0.083,-0.333 0.114,-0.508 l 0.033,-0.284 0.021,-0.203 0.03,-0.818 0.062,-1.564 0.117,-3.126 0.032,-0.783 c 0.012,-0.297 -0.008,-0.689 -0.07,-1.027 z m -4.03,7.433 -0.006,0.104 c -0.012,0.085 -0.02,0.18 -0.037,0.268 -0.136,0.715 -0.635,1.397 -1.389,1.899 -0.756,0.501 -1.748,0.805 -2.797,0.838 l -8.525,0.176 h -0.006 l -1.332,-0.056 -0.086,1.097 c -0.416,5.403 -0.76,10.805 -1.062,16.209 -0.342,5.402 -0.565,10.806 -0.837,16.209 -0.525,10.805 -0.92,21.612 -1.242,32.417 -0.657,21.612 -1.016,43.226 -1.144,64.836 -0.149,21.613 -0.019,43.225 0.563,64.835 0.307,10.809 0.709,21.613 1.271,32.419 0.546,10.418 1.202,20.836 2.184,31.255 H 36.5 l 3.366,-258.181 0.048,-3.606 -5.017,-0.034 h -0.005 l -4.563,-0.048 -4.056,-0.02 c -0.267,-0.023 -0.52,-0.119 -0.717,-0.275 -0.099,-0.074 -0.168,-0.166 -0.216,-0.257 -0.046,-0.103 -0.072,-0.167 -0.075,-0.317 l -0.019,-6.349 c 0.019,-0.182 0.133,-0.395 0.336,-0.56 0.214,-0.167 0.479,-0.267 0.813,-0.29 l 68.28,-1.2 17.07,-0.322 8.533,-0.16 4.27,-0.081 2.072,-0.034 c 0.387,-0.004 0.854,0.046 1.256,0.151 0.823,0.207 1.562,0.646 2.03,1.212 0.234,0.284 0.402,0.596 0.492,0.925 0.045,0.177 0.066,0.308 0.081,0.531 l 0.028,0.783 0.12,3.126 0.059,1.564 0.029,0.746 v 0.19 z"
       id="path9"
       inkscape:connector-curvature="0"
       style="fill:#231f20" /><ellipse
       enable-background="new    "
       cx="77.192001"
       cy="172.04201"
       rx="6.0310001"
       ry="4.4200001"
       id="ellipse11"
       d="m 83.223001,172.04201 c 0,2.4411 -2.70017,4.42 -6.031,4.42 -3.330829,0 -6.031,-1.9789 -6.031,-4.42 0,-2.4411 2.700171,-4.42 6.031,-4.42 3.33083,0 6.031,1.9789 6.031,4.42 z"
       sodipodi:cx="77.192001"
       sodipodi:cy="172.04201"
       sodipodi:rx="6.0310001"
       sodipodi:ry="4.4200001"
       style="opacity:0.34000017;fill:#ffffff" /><ellipse
       enable-background="new    "
       cx="71.162003"
       cy="234.828"
       rx="2.142"
       ry="1.569"
       id="ellipse13"
       d="m 73.304003,234.828 c 0,0.86654 -0.959007,1.569 -2.142,1.569 -1.182994,0 -2.142,-0.70246 -2.142,-1.569 0,-0.86653 0.959006,-1.569 2.142,-1.569 1.182993,0 2.142,0.70247 2.142,1.569 z"
       sodipodi:cx="71.162003"
       sodipodi:cy="234.828"
       sodipodi:rx="2.142"
       sodipodi:ry="1.569"
       style="opacity:0.34000017;fill:#ffffff" /><ellipse
       enable-background="new    "
       cx="83.224998"
       cy="191.308"
       rx="3.473"
       ry="2.5439999"
       id="ellipse15"
       d="m 86.697999,191.308 c 0,1.40501 -1.554916,2.544 -3.473001,2.544 -1.918084,0 -3.473,-1.13899 -3.473,-2.544 0,-1.40501 1.554916,-2.544 3.473,-2.544 1.918085,0 3.473001,1.13899 3.473001,2.544 z"
       sodipodi:cx="83.224998"
       sodipodi:cy="191.308"
       sodipodi:rx="3.473"
       sodipodi:ry="2.5439999"
       style="opacity:0.34000017;fill:#ffffff" /><g
       id="g17"
       style="opacity:0.2"><polygon
         points="48.269,279.436 44.176,123.959 52.363,123.959 "
         id="polygon19"
         style="fill:#ffffff" /></g><ellipse
       enable-background="new    "
       cx="64.051003"
       cy="245.25101"
       rx="7.1110001"
       ry="5.211"
       id="ellipse21"
       d="m 71.162003,245.25101 c 0,2.87795 -3.183704,5.211 -7.111,5.211 -3.927297,0 -7.111001,-2.33305 -7.111001,-5.211 0,-2.87796 3.183704,-5.211 7.111001,-5.211 3.927296,0 7.111,2.33304 7.111,5.211 z"
       sodipodi:cx="64.051003"
       sodipodi:cy="245.25101"
       sodipodi:rx="7.1110001"
       sodipodi:ry="5.211"
       style="opacity:0.34000017;fill:#ffffff" /><ellipse
       enable-background="new    "
       cx="83.223"
       cy="201.69701"
       rx="4.934"
       ry="3.615"
       id="ellipse23"
       d="m 88.157,201.69701 c 0,1.99651 -2.209027,3.615 -4.934,3.615 -2.724973,0 -4.934,-1.61849 -4.934,-3.615 0,-1.99651 2.209027,-3.615 4.934,-3.615 2.724973,0 4.934,1.61849 4.934,3.615 z"
       sodipodi:cx="83.223"
       sodipodi:cy="201.69701"
       sodipodi:rx="4.934"
       sodipodi:ry="3.615"
       style="opacity:0.34000017;fill:#ffffff" /></g><g
     id="g25"
     transform="matrix(1.3424723,0,0,2.0050049,-1.1144053,-209.09249)"><path
       d="m 134.848,81.452 c -0.287,-1.004 -1.078,-1.725 -2,-2.031 -0.347,-0.474 -0.863,-0.856 -1.589,-1.061 -0.881,-1.074 -2.135,-1.261 -3.209,-0.874 -0.254,-0.066 -0.508,-0.13 -0.762,-0.191 0.752,-6.527 0.57,-13.188 -2.744,-19.059 -1.289,-2.284 -4.371,-1.7 -5.354,0.419 -3.979,-3.896 -9.316,0.709 -11.855,3.974 -0.469,0.603 -0.694,1.242 -0.744,1.862 -1.502,-1.325 -3.192,-2.027 -5.506,-2.528 -4.789,-1.038 -10.086,-0.547 -14.041,2.173 -0.803,-3.311 -2.688,-6.242 -5.467,-8.507 -0.404,-0.33 -0.883,-0.536 -1.383,-0.637 -0.217,-0.417 -0.42,-0.839 -0.648,-1.255 -0.612,-1.115 -1.522,-1.551 -2.426,-1.522 -4.156,-6.334 -9.594,-11.37 -17.463,-8.855 -0.098,0.031 -0.184,0.071 -0.275,0.108 -9.271,-1.857 -21.571,1.002 -25.053,9.356 -4.121,3.605 -6.738,8.705 -4.766,14.225 0.201,0.564 0.535,1.027 0.94,1.383 0.047,0.167 0.101,0.333 0.152,0.5 -0.705,3.627 -0.619,8.375 0.604,12.022 -0.106,0.176 -0.215,0.353 -0.323,0.526 -2.025,-0.196 -4.295,0.646 -5.994,1.681 -0.726,0.44 -1.148,1.087 -1.328,1.785 -3.604,3.15 -3.689,8.914 0.221,12.927 0.031,0.032 0.064,0.058 0.099,0.088 -1.009,1.124 -2.031,2.234 -3.078,3.322 -1.902,1.979 -3.771,3.955 -5.494,6.021 -0.857,-0.162 -1.779,0.05 -2.525,0.826 -1.778,1.854 -2.77,4.089 -3.25,6.479 -0.422,1.236 -0.76,2.511 -1.021,3.844 -0.15,0.762 -0.058,1.421 0.188,1.969 -0.073,0.164 -0.137,0.341 -0.188,0.531 -0.906,3.378 0.274,6.046 2.334,8.235 -0.656,0.848 -0.838,1.981 -0.033,3.077 0.916,1.242 4.141,3.389 5.953,5.302 -0.361,0.339 -0.631,0.798 -0.754,1.386 -0.65,3.109 -0.533,5.665 0.312,7.906 -1.266,4.126 -0.334,9.128 4.318,10.408 1.293,0.354 2.574,0.06 3.809,-0.312 0.322,-0.096 0.619,-0.155 0.9,-0.186 1.613,1.968 2.803,4.174 3.877,6.462 -0.381,2.598 0.672,5.798 2.588,8.15 -1.176,7.755 11.59,9.214 12.088,16.367 0.078,1.137 0.816,2.142 1.767,2.666 1.623,3.563 3.897,6.743 7.272,8.497 0.49,0.781 1.336,1.337 2.461,1.337 h 2 c 1.627,0 2.67,-1.294 2.9,-2.674 0.955,-0.233 1.771,-0.884 1.992,-2.028 0.438,-2.271 0.596,-4.481 0.606,-6.798 0.002,-0.492 -0.117,-0.922 -0.309,-1.299 -0.179,-8.426 -1.187,-17.539 1.674,-25.135 0.342,-0.389 0.522,-0.87 0.57,-1.385 0.526,-1.163 1.155,-2.285 1.907,-3.358 0.13,-0.176 0.255,-0.354 0.388,-0.528 0.061,-0.081 0.125,-0.162 0.188,-0.242 0.383,-0.486 0.779,-0.966 1.203,-1.431 0.064,-0.072 0.107,-0.146 0.164,-0.221 1.771,-1.489 5.143,-2.225 7.229,-3.257 2.151,-1.065 4.03,-2.857 5.85,-4.401 6.932,-5.884 11.973,-12.554 14.369,-21.375 0.701,-2.586 1.174,-5.243 2.576,-7.563 1.946,-3.226 6.942,-4.219 10.289,-4.971 6.997,-1.577 13.926,-2.063 19.008,-7.02 0.143,-0.063 0.278,-0.132 0.408,-0.224 1.161,-0.83 1.641,-1.554 1.864,-2.729 1.215,-0.381 2.121,-1.552 2.121,-2.86 0,-0.334 -0.067,-0.648 -0.17,-0.947 0.687,-1.309 1.211,-2.763 1.572,-4.303 1.932,-4.181 2.454,-8.907 0.991,-14.047 z"
       id="path27"
       inkscape:connector-curvature="0"
       style="fill:#9a63a8" /><g
       id="g29"><path
         d="m 117.455,88.75 c -0.188,-0.053 -0.199,-0.888 0.215,-2.388 0.422,-1.492 1.252,-3.656 2.949,-6.138 0.859,-1.232 1.932,-2.555 3.441,-3.77 0.758,-0.6 1.633,-1.177 2.696,-1.6 1.056,-0.421 2.351,-0.676 3.709,-0.461 1.357,0.198 2.658,0.885 3.658,1.774 1.015,0.893 1.793,1.953 2.453,3.065 0.629,1.061 1.248,2.4 1.578,3.742 0.352,1.339 0.537,2.704 0.621,4.086 0.162,2.763 -0.07,5.601 -0.601,8.496 -0.538,2.892 -1.368,5.85 -2.674,8.817 -0.662,1.481 -1.436,2.97 -2.463,4.424 -0.512,0.728 -1.094,1.444 -1.779,2.134 -0.348,0.344 -0.723,0.679 -1.133,1 l -0.403,0.293 -0.468,0.312 c -0.147,0.123 -0.325,0.176 -0.51,0.221 l -0.539,0.154 -9.502,2.699 -4.924,1.39 -2.508,0.703 -0.695,0.195 c -0.414,0.085 -0.816,0.308 -1.248,0.206 l -0.916,-0.067 -0.59,-0.026 c -1.576,-0.056 -2.91,0.104 -3.703,0.58 -0.424,0.237 -0.844,0.594 -1.305,1.112 -0.228,0.258 -0.459,0.551 -0.691,0.867 -0.113,0.156 -0.227,0.299 -0.297,0.421 -0.07,0.114 -0.147,0.239 -0.229,0.396 -0.648,1.178 -1.097,2.729 -1.439,4.413 -0.344,1.692 -0.588,3.524 -0.922,5.472 -0.361,1.938 -0.717,4.062 -1.844,6.311 -1.023,2.037 -2.408,3.872 -4,5.438 -3.203,3.141 -6.955,5.106 -10.425,6.794 l -2.561,1.224 -1.229,0.599 c -0.227,0.111 -0.356,0.177 -0.493,0.254 -0.142,0.08 -0.285,0.165 -0.431,0.261 -1.174,0.762 -2.346,1.92 -3.391,3.172 -2.098,2.54 -3.797,5.505 -5.09,8.515 -1.287,3.018 -2.176,6.134 -2.492,9.136 -0.168,1.231 -0.016,2.957 0.053,4.548 l 0.265,4.89 c 0.129,3.268 0.146,6.522 -0.354,9.771 -0.256,1.622 -0.646,3.251 -1.322,4.837 -0.664,1.576 -1.674,3.132 -3.075,4.318 -0.345,0.293 -0.734,0.573 -1.064,0.782 -0.295,0.194 -0.619,0.407 -0.977,0.61 -0.695,0.4 -1.438,0.755 -2.232,1.026 -1.57,0.556 -3.449,0.715 -5.137,0.225 -1.693,-0.475 -3.037,-1.466 -4.045,-2.502 -1.019,-1.049 -1.761,-2.173 -2.375,-3.28 -1.216,-2.222 -1.938,-4.4 -2.488,-6.439 -1.07,-4.089 -1.41,-7.663 -1.502,-10.583 -0.078,-2.921 0.147,-5.195 0.477,-6.715 0.328,-1.525 0.761,-2.265 0.953,-2.209 0.205,0.057 0.183,0.843 0.252,2.313 0.066,1.471 0.219,3.642 0.646,6.405 0.434,2.753 1.102,6.129 2.381,9.804 0.647,1.824 1.457,3.736 2.567,5.481 1.089,1.729 2.611,3.303 4.203,3.619 0.787,0.169 1.627,0.079 2.556,-0.293 0.459,-0.185 0.932,-0.434 1.401,-0.736 0.23,-0.146 0.474,-0.32 0.746,-0.519 0.244,-0.17 0.408,-0.305 0.588,-0.471 1.41,-1.285 2.215,-3.676 2.523,-6.365 0.318,-2.701 0.229,-5.68 0.012,-8.788 l -0.393,-4.81 c -0.066,-0.829 -0.133,-1.672 -0.181,-2.547 -0.022,-0.448 -0.043,-0.862 -0.051,-1.366 -0.012,-0.563 0.039,-1.063 0.068,-1.511 0.312,-3.72 1.291,-7.341 2.711,-10.839 1.438,-3.491 3.295,-6.887 5.838,-10.041 1.291,-1.567 2.732,-3.094 4.676,-4.399 0.242,-0.162 0.498,-0.319 0.765,-0.47 0.27,-0.154 0.559,-0.302 0.75,-0.397 l 1.299,-0.644 2.541,-1.233 c 3.317,-1.622 6.455,-3.358 8.826,-5.7 1.182,-1.162 2.149,-2.462 2.856,-3.855 0.633,-1.19 0.996,-2.877 1.318,-4.651 0.317,-1.786 0.58,-3.685 0.996,-5.647 0.426,-1.958 0.973,-4.021 2.106,-6.062 0.138,-0.247 0.297,-0.513 0.476,-0.784 0.172,-0.268 0.344,-0.483 0.5,-0.693 0.313,-0.416 0.651,-0.836 1.032,-1.254 0.75,-0.832 1.711,-1.687 2.875,-2.311 1.16,-0.633 2.425,-0.96 3.55,-1.104 1.139,-0.147 2.176,-0.141 3.164,-0.098 l 0.729,0.045 0.359,0.028 c 0.053,0.004 0.024,0.004 0.041,0.005 0.012,0.004 0.021,10e-4 0.032,10e-4 l 0.57,-0.148 2.521,-0.656 4.957,-1.284 9.524,-2.443 c 0.023,-0.006 0.051,-0.002 0.07,-0.016 l 0.031,-0.014 c 0,0 0.006,-0.003 0.077,-0.054 0.222,-0.161 0.443,-0.346 0.662,-0.549 0.438,-0.413 0.865,-0.894 1.263,-1.421 0.799,-1.053 1.489,-2.258 2.094,-3.493 1.205,-2.481 2.063,-5.107 2.656,-7.661 0.586,-2.558 0.905,-5.075 0.893,-7.411 -0.006,-1.166 -0.102,-2.286 -0.307,-3.311 -0.195,-1.033 -0.525,-1.878 -0.998,-2.833 -0.898,-1.811 -2.101,-3.101 -3.375,-3.377 -1.281,-0.343 -2.842,0.239 -4.117,1.076 -1.295,0.842 -2.381,1.89 -3.283,2.895 -1.805,2.031 -2.926,3.9 -3.672,5.164 -0.74,1.271 -1.117,1.979 -1.326,1.918 z"
         id="path31"
         inkscape:connector-curvature="0"
         style="fill:#231f20" /></g><g
       id="g33"><path
         d="m 42.955,181.75 c -0.067,0.4 -0.721,0.712 -1.899,0.776 -1.173,0.06 -2.88,-0.146 -4.857,-0.907 -1.971,-0.755 -4.203,-2.078 -6.229,-4.085 -2.021,-1.996 -3.834,-4.678 -4.891,-7.866 -1.061,-3.181 -1.205,-6.536 -0.553,-9.414 0.631,-2.893 2.008,-5.236 3.432,-6.839 1.433,-1.616 2.881,-2.547 3.953,-3.016 1.084,-0.462 1.805,-0.477 2.045,-0.15 0.533,0.697 -1.065,2.537 -2.488,5.55 -0.7,1.508 -1.307,3.319 -1.489,5.369 -0.195,2.042 0.039,4.322 0.799,6.614 0.76,2.292 1.953,4.344 3.285,6.035 1.336,1.698 2.809,3.034 4.153,4.071 2.7,2.063 4.884,3.006 4.739,3.862 z"
         id="path35"
         inkscape:connector-curvature="0"
         style="fill:#231f20" /></g><g
       id="g37"><path
         d="m 16.43,141.045 c 0.711,0.422 0.969,1.544 1.401,3.298 0.418,1.737 0.937,4.173 1.828,6.417 0.445,1.115 0.941,2.021 1.432,2.683 0.49,0.666 0.988,1.133 1.593,1.526 1.209,0.778 2.641,1.112 2.825,1.937 0.099,0.396 -0.104,0.87 -0.68,1.325 -0.572,0.438 -1.545,0.881 -2.928,0.908 -1.365,0.041 -3.141,-0.488 -4.582,-1.655 -1.457,-1.148 -2.543,-2.771 -3.23,-4.492 -1.354,-3.473 -1.176,-6.713 -0.489,-8.953 0.354,-1.121 0.862,-2.001 1.397,-2.522 0.54,-0.533 1.073,-0.664 1.433,-0.472 z"
         id="path39"
         inkscape:connector-curvature="0"
         style="fill:#231f20" /></g><g
       id="g41"><path
         d="m 34.955,103.75 c -0.32,0.293 -1.272,-0.311 -2.883,-1.095 -1.6,-0.775 -3.949,-1.61 -6.748,-1.108 -2.787,0.455 -5.988,2.279 -8.826,5.2 -2.822,2.898 -5.391,6.863 -6.641,11.253 -0.619,2.166 -0.813,4.384 -0.521,6.183 0.365,1.93 1.187,3.892 2.203,5.57 2.058,3.411 4.9,5.925 7.541,7.501 2.658,1.601 5.137,2.276 6.908,2.622 1.777,0.346 2.879,0.45 2.965,0.875 0.084,0.381 -0.891,1.078 -2.959,1.461 -2.045,0.375 -5.229,0.283 -8.768,-1.142 -3.515,-1.406 -7.363,-4.088 -10.313,-8.287 -1.463,-2.111 -2.688,-4.547 -3.344,-7.458 -0.604,-3.073 -0.287,-6.08 0.506,-8.944 1.652,-5.708 4.902,-10.284 8.613,-13.643 3.707,-3.341 8.205,-5.413 12.313,-5.42 2.035,-0.025 3.871,0.458 5.289,1.15 1.429,0.691 2.459,1.554 3.185,2.323 1.439,1.567 1.769,2.704 1.48,2.959 z"
         id="path43"
         inkscape:connector-curvature="0"
         style="fill:#231f20" /></g><g
       id="g45"><path
         d="m 31.455,82.25 c -0.219,0.361 -0.752,0.478 -1.481,0.518 -0.728,0.039 -1.67,0.002 -2.591,0.167 -0.934,0.159 -1.735,0.521 -2.469,1.186 -0.735,0.662 -1.469,1.728 -2.016,3.08 -0.543,1.352 -0.842,2.801 -0.935,4.085 -0.094,1.293 0.021,2.411 0.234,3.3 0.207,0.899 0.545,1.6 0.852,2.193 0.304,0.591 0.543,1.075 0.404,1.472 -0.131,0.379 -0.658,0.657 -1.59,0.54 -0.91,-0.107 -2.24,-0.733 -3.314,-2.042 -2.209,-2.614 -3.002,-7.327 -1.215,-11.796 0.896,-2.227 2.453,-4.256 4.531,-5.445 1.027,-0.591 2.154,-0.943 3.209,-1.043 1.055,-0.111 2.018,0.027 2.816,0.259 1.604,0.481 2.571,1.295 3.112,1.95 0.545,0.668 0.662,1.231 0.453,1.576 z"
         id="path47"
         inkscape:connector-curvature="0"
         style="fill:#231f20" /></g><g
       id="g49"><path
         d="m 88.455,71.25 c -0.426,0.063 -0.969,-1.455 -2,-4.045 C 85.414,64.632 83.822,60.951 80.957,57.09 78.115,53.253 73.896,49.247 68.265,46.717 62.681,44.158 55.699,43.3 48.853,45.154 c -1.709,0.45 -3.365,1.047 -4.951,1.755 -0.793,0.354 -1.568,0.738 -2.326,1.144 -0.744,0.399 -1.537,0.856 -2.158,1.262 -2.641,1.768 -4.778,4.088 -6.201,6.644 -1.438,2.563 -2.229,5.363 -2.594,8.081 -0.363,2.725 -0.326,5.364 -0.115,7.773 0.439,4.837 1.502,8.751 2.207,11.467 0.728,2.718 1.123,4.281 0.742,4.472 -0.356,0.182 -1.469,-1.035 -2.904,-3.593 -1.409,-2.56 -3.186,-6.474 -4.241,-11.738 -0.519,-2.628 -0.836,-5.603 -0.642,-8.852 0.199,-3.235 0.945,-6.783 2.66,-10.192 1.705,-3.416 4.385,-6.55 7.795,-8.93 0.902,-0.616 1.709,-1.092 2.599,-1.593 0.877,-0.49 1.782,-0.953 2.713,-1.38 1.862,-0.856 3.832,-1.579 5.883,-2.12 4.102,-1.093 8.332,-1.385 12.326,-0.922 3.998,0.453 7.744,1.645 11.012,3.303 6.582,3.326 11.123,8.379 13.844,13.019 2.75,4.682 3.824,8.95 4.217,11.865 0.373,2.939 0.129,4.578 -0.264,4.631 z"
         id="path51"
         inkscape:connector-curvature="0"
         style="fill:#231f20" /></g><g
       id="g53"><path
         d="m 107.455,72.25 c -0.854,0.004 -1.485,-1.588 -2.602,-3.492 -1.099,-1.908 -2.881,-4.019 -5.424,-4.833 -2.525,-0.865 -5.214,-0.227 -7.265,0.642 -2.057,0.857 -3.545,1.715 -4.211,1.184 -0.623,-0.472 -0.352,-2.354 1.697,-4.602 1.029,-1.091 2.557,-2.233 4.604,-2.914 2.023,-0.687 4.599,-0.832 7.06,-0.005 2.467,0.805 4.442,2.452 5.662,4.214 1.239,1.77 1.782,3.609 1.944,5.112 0.281,3.052 -0.688,4.714 -1.465,4.694 z"
         id="path55"
         inkscape:connector-curvature="0"
         style="fill:#231f20" /></g><g
       id="g57"><path
         d="m 125.955,75.25 c -0.844,-0.118 -1.143,-2.479 -1.42,-5.958 -0.158,-1.724 -0.33,-3.762 -0.834,-5.689 -0.252,-0.955 -0.602,-1.863 -1.051,-2.55 -0.455,-0.693 -0.947,-1.131 -1.623,-1.443 -0.338,-0.159 -0.736,-0.276 -1.17,-0.358 -0.23,-0.04 -0.34,-0.052 -0.521,-0.06 -0.176,-0.008 -0.371,-10e-4 -0.573,0.019 -0.816,0.071 -1.761,0.367 -2.642,0.753 -1.787,0.783 -3.35,1.904 -4.551,2.926 -1.205,1.033 -2.059,1.994 -2.668,2.704 -0.619,0.703 -1.023,1.194 -1.449,1.159 -0.396,-0.025 -0.791,-0.68 -0.766,-1.9 0.02,-1.211 0.51,-2.907 1.612,-4.667 1.113,-1.749 2.777,-3.606 5.216,-5.098 1.225,-0.73 2.647,-1.396 4.414,-1.694 0.438,-0.074 0.901,-0.122 1.387,-0.129 0.483,-0.015 1.043,0.028 1.475,0.093 0.894,0.137 1.822,0.378 2.738,0.801 1.854,0.821 3.367,2.376 4.199,3.938 0.858,1.573 1.223,3.115 1.405,4.506 0.339,2.794 0.015,5.103 -0.368,6.981 -0.833,3.737 -2.017,5.779 -2.81,5.666 z"
         id="path59"
         inkscape:connector-curvature="0"
         style="fill:#231f20" /></g><g
       id="g61"
       style="opacity:0.2"><path
         d="m 39.955,76.25 c 0.006,0 -0.024,-0.491 -0.188,-1.396 -0.15,-0.904 -0.429,-2.228 -0.65,-3.898 -0.221,-1.668 -0.4,-3.688 -0.24,-5.937 0.156,-2.244 0.636,-4.73 1.771,-7.222 1.125,-2.471 2.873,-4.743 5.139,-6.156 1.121,-0.705 2.351,-1.167 3.514,-1.351 1.166,-0.184 2.248,-0.111 3.154,0.088 1.824,0.408 2.996,1.177 3.789,1.641 0.783,0.494 1.205,0.738 1.205,0.738 0.008,-0.007 -0.453,-0.216 -1.35,-0.335 -0.882,-0.118 -2.23,-0.142 -3.615,0.289 -0.688,0.218 -1.363,0.547 -1.967,0.992 -0.607,0.444 -1.148,0.996 -1.65,1.644 -0.998,1.296 -1.873,2.995 -2.764,4.948 -0.886,1.952 -1.717,3.946 -2.519,5.813 -0.793,1.869 -1.551,3.615 -2.143,5.119 -0.592,1.504 -1.027,2.763 -1.246,3.644 -0.226,0.882 -0.244,1.38 -0.24,1.379 z"
         id="path63"
         inkscape:connector-curvature="0"
         style="fill:#ffffff" /></g><g
       id="g65"
       style="opacity:0.2"><path
         d="m 21.455,128.75 c 0,0 -0.072,-0.058 -0.227,-0.145 l -0.699,-0.392 c -0.299,-0.184 -0.701,-0.396 -1.117,-0.723 -0.418,-0.322 -0.914,-0.711 -1.383,-1.227 -0.945,-1.019 -1.896,-2.49 -2.422,-4.289 -0.537,-1.792 -0.668,-3.888 -0.197,-5.976 0.461,-2.088 1.471,-3.948 2.744,-5.346 1.27,-1.406 2.793,-2.32 4.109,-2.79 0.655,-0.245 1.278,-0.36 1.799,-0.45 0.521,-0.094 0.975,-0.098 1.324,-0.119 0.354,-0.018 0.622,-0.012 0.801,-0.021 0.178,-0.007 0.268,-0.024 0.268,-0.024 0.004,0 -0.375,0.069 -0.938,0.453 -0.285,0.177 -0.599,0.457 -0.922,0.788 -0.328,0.328 -0.636,0.768 -0.931,1.236 -0.59,0.953 -1.028,2.153 -1.397,3.435 -0.367,1.29 -0.675,2.679 -1,4.137 -0.318,1.459 -0.625,2.862 -0.853,4.201 -0.225,1.336 -0.358,2.622 -0.274,3.75 0.049,0.559 0.114,1.089 0.25,1.534 0.133,0.445 0.28,0.836 0.444,1.128 0.32,0.606 0.625,0.842 0.621,0.84 z"
         id="path67"
         inkscape:connector-curvature="0"
         style="fill:#ffffff" /></g><g
       id="g69"
       style="opacity:0.2"><path
         d="m 39.955,162.25 c 0.006,-0.002 -0.043,-0.104 -0.279,-0.259 -0.106,-0.081 -0.25,-0.178 -0.442,-0.292 -0.178,-0.116 -0.455,-0.241 -0.666,-0.409 -0.217,-0.165 -0.517,-0.351 -0.726,-0.581 -0.211,-0.229 -0.495,-0.485 -0.666,-0.782 -0.389,-0.586 -0.584,-1.315 -0.491,-2.021 0.092,-0.709 0.455,-1.301 0.942,-1.738 l 2.133,-1.911 0.195,0.094 c 0.244,0.116 0.494,0.313 0.783,0.502 0.275,0.206 0.654,0.397 1.023,0.871 0.18,0.227 0.311,0.505 0.35,0.726 0.043,0.224 0.021,0.388 -0.012,0.511 -0.097,0.25 -0.226,0.381 -0.314,0.509 -0.383,0.486 -0.348,0.8 -0.33,0.781 0.025,-0.02 -0.203,-0.146 -0.791,-0.498 -0.145,-0.08 -0.32,-0.182 -0.494,-0.179 -0.018,0.002 -0.035,0.002 -0.053,0.007 -0.025,0.011 0.01,-0.002 0.057,-0.019 l 0.119,-0.05 c 0.113,-0.045 0.203,-0.092 0.254,-0.123 0.104,-0.063 0.095,-0.083 0.052,-0.021 -0.043,0.062 -0.123,0.208 -0.203,0.468 -0.037,0.123 -0.08,0.281 -0.117,0.462 l -0.076,0.408 c -0.037,0.145 -0.133,0.327 -0.246,0.444 l 2.328,-1.818 c 0.256,0.494 0.398,0.938 0.353,1.33 -0.048,0.393 -0.285,0.718 -0.64,1.088 -0.149,0.183 -0.397,0.379 -0.567,0.573 -0.16,0.194 -0.406,0.4 -0.563,0.593 -0.152,0.189 -0.369,0.386 -0.49,0.552 -0.131,0.167 -0.227,0.313 -0.287,0.429 -0.146,0.238 -0.144,0.355 -0.136,0.353 z"
         id="path71"
         inkscape:connector-curvature="0"
         style="fill:#ffffff" /></g><g
       id="g73"
       style="opacity:0.2"><path
         d="m 94.955,73.25 c -0.004,-0.007 -0.01,0.038 0.111,0.193 0.053,0.069 0.133,0.162 0.27,0.257 0.113,0.076 0.045,0.029 0.019,0.017 l -0.078,-0.04 c -0.064,-0.022 -0.09,-0.033 -0.133,-0.034 -0.015,-0.003 -0.021,0.003 0.008,-0.009 0.057,-0.016 0.223,-0.138 0.356,-0.368 0.142,-0.228 0.232,-0.506 0.304,-0.758 0.021,-0.074 0.08,-0.411 0.024,-0.063 -0.026,0.18 -0.045,0.453 -0.039,0.638 0.004,0.18 0.009,0.436 0.027,0.584 0.02,0.164 0.041,0.285 0.061,0.371 0.041,0.195 0.07,0.22 0.07,0.22 -0.002,-0.014 -0.024,0.012 -0.082,0.201 l -0.115,0.365 c -0.049,0.148 -0.12,0.392 -0.204,0.563 -0.08,0.179 -0.193,0.439 -0.318,0.602 -0.123,0.17 -0.285,0.402 -0.463,0.521 -0.172,0.148 -0.383,0.235 -0.601,0.264 -0.227,0.021 -0.453,-0.016 -0.709,-0.17 -0.233,-0.142 -0.483,-0.397 -0.655,-0.734 -0.185,-0.34 -0.306,-0.789 -0.275,-1.234 -0.006,-0.458 0.223,-0.872 0.43,-1.147 0.207,-0.269 0.533,-0.408 0.761,-0.451 0.223,-0.073 0.485,-0.011 0.646,0.02 0.172,0.035 0.291,0.086 0.377,0.117 0.181,0.077 0.212,0.082 0.208,0.075 z"
         id="path75"
         inkscape:connector-curvature="0"
         style="fill:#ffffff" /></g><g
       id="g77"
       style="opacity:0.2"><path
         d="m 102.955,74.75 c 0.002,-0.007 -0.024,0.021 -0.035,0.215 -0.002,0.043 -0.004,0.095 0,0.155 -0.002,0.035 0.029,0.199 0.019,0.132 -0.006,-0.043 -0.027,-0.098 -0.035,-0.128 -0.033,-0.084 -0.082,-0.106 -0.043,-0.084 0.037,0.021 0.182,0.042 0.363,-0.005 0.184,-0.043 0.368,-0.136 0.53,-0.228 l 0.22,-0.144 0.047,-0.035 c 0.004,-0.003 0.022,-0.018 0.016,-0.012 l -0.07,0.052 -0.241,0.205 c -0.134,0.119 -0.314,0.294 -0.414,0.407 -0.109,0.122 -0.187,0.216 -0.238,0.286 -0.117,0.155 -0.119,0.188 -0.119,0.188 0.008,-0.01 -0.021,-0.005 -0.186,0.103 l -0.322,0.193 c -0.133,0.077 -0.35,0.208 -0.521,0.28 -0.176,0.078 -0.432,0.195 -0.625,0.231 -0.198,0.046 -0.469,0.108 -0.67,0.083 -0.217,-0.002 -0.422,-0.075 -0.586,-0.192 -0.168,-0.128 -0.295,-0.296 -0.36,-0.568 -0.063,-0.246 -0.058,-0.586 0.061,-0.927 0.109,-0.354 0.338,-0.736 0.668,-1.018 0.312,-0.313 0.756,-0.431 1.086,-0.469 0.326,-0.034 0.644,0.105 0.822,0.238 0.197,0.112 0.328,0.343 0.41,0.479 0.086,0.148 0.127,0.27 0.158,0.354 0.053,0.191 0.063,0.216 0.065,0.209 z"
         id="path79"
         inkscape:connector-curvature="0"
         style="fill:#ffffff" /></g><g
       id="g81"><circle
         cx="98.884003"
         cy="31.474001"
         r="11.224"
         id="circle83"
         d="m 110.108,31.474001 c 0,6.198844 -5.02515,11.224 -11.223997,11.224 -6.198844,0 -11.224,-5.025156 -11.224,-11.224 0,-6.198844 5.025156,-11.224 11.224,-11.224 6.198847,0 11.223997,5.025156 11.223997,11.224 z"
         sodipodi:cx="98.884003"
         sodipodi:cy="31.474001"
         sodipodi:rx="11.224"
         sodipodi:ry="11.224"
         style="fill:#9a63a8" /><path
         d="m 111.855,31.518 c -0.078,1.598 -0.492,3.345 -1.207,4.83 -0.722,1.508 -1.744,2.845 -2.963,3.929 -2.433,2.179 -5.604,3.39 -8.804,3.421 -3.2,0.073 -6.434,-1.169 -8.83,-3.393 -2.42,-2.215 -3.997,-5.383 -4.143,-8.875 -0.182,-3.303 1.053,-6.908 3.457,-9.473 1.205,-1.281 2.666,-2.351 4.301,-3.07 0.818,-0.357 1.674,-0.636 2.551,-0.824 0.438,-0.095 0.88,-0.167 1.324,-0.223 l 0.67,-0.062 0.734,-0.028 0.551,0.012 0.724,0.049 c 0.457,0.046 0.895,0.107 1.34,0.192 0.883,0.177 1.741,0.46 2.565,0.813 1.646,0.723 3.115,1.801 4.302,3.109 2.364,2.633 3.6,6.152 3.43,9.546 l -0.002,0.047 z m -3.498,-0.044 c -0.144,-2.494 -1.33,-4.814 -3.146,-6.327 -0.893,-0.77 -1.91,-1.357 -2.979,-1.758 -0.533,-0.209 -1.088,-0.354 -1.646,-0.463 -0.274,-0.056 -0.565,-0.099 -0.84,-0.129 L 99.371,22.766 98.82,22.75 c -2.168,-0.063 -4.562,0.79 -6.293,2.368 -1.775,1.581 -2.963,3.815 -3.119,6.4 -0.172,2.394 0.674,5.067 2.434,6.998 0.884,0.96 1.957,1.769 3.168,2.311 1.214,0.54 2.527,0.835 3.873,0.871 2.689,0.06 5.357,-1.152 7.07,-3.153 0.859,-0.994 1.502,-2.146 1.906,-3.354 0.414,-1.229 0.576,-2.42 0.498,-3.761 v 0.044 z"
         id="path85"
         inkscape:connector-curvature="0"
         style="fill:#020202" /></g><g
       id="g87"><circle
         cx="77.471001"
         cy="7.75"
         r="5.5"
         id="circle89"
         d="m 82.971001,7.75 c 0,3.037566 -2.462434,5.5 -5.5,5.5 -3.037566,0 -5.5,-2.462434 -5.5,-5.5 0,-3.0375661 2.462434,-5.5 5.5,-5.5 3.037566,0 5.5,2.4624339 5.5,5.5 z"
         sodipodi:cx="77.471001"
         sodipodi:cy="7.75"
         sodipodi:rx="5.5"
         sodipodi:ry="5.5"
         style="fill:#9a63a8" /><path
         d="m 85.232,7.808 0.016,0.27 -0.006,0.431 c -0.014,0.267 -0.031,0.515 -0.07,0.771 -0.073,0.51 -0.196,1.018 -0.387,1.501 -0.381,0.97 -1.016,1.825 -1.779,2.505 -1.508,1.391 -3.592,2.078 -5.534,1.909 -1.951,-0.151 -3.755,-1.123 -4.925,-2.521 -1.186,-1.396 -1.758,-3.196 -1.686,-4.923 0.143,-3.5 3.002,-6.506 6.641,-6.755 1.697,-0.163 3.66,0.373 5.127,1.598 1.494,1.202 2.49,3.125 2.605,5.158 L 85.232,7.808 z M 80.707,7.75 C 80.834,6.897 80.645,5.959 80.09,5.13 79.528,4.307 78.627,3.654 77.441,3.505 76.39,3.357 75.123,3.738 74.293,4.571 73.447,5.395 72.978,6.592 73.08,7.75 c 0.062,1.159 0.676,2.223 1.537,2.855 0.861,0.649 1.922,0.866 2.855,0.701 0.94,-0.155 1.719,-0.656 2.241,-1.314 0.254,-0.336 0.437,-0.7 0.607,-1.062 0.086,-0.183 0.172,-0.366 0.236,-0.563 l 0.088,-0.296 0.032,-0.108 0.029,-0.27 0.002,0.057 0,0 z"
         id="path91"
         inkscape:connector-curvature="0"
         style="fill:#020202" /></g><g
       id="g93"><circle
         cx="61.205002"
         cy="28"
         r="3.75"
         id="circle95"
         d="m 64.955002,28 c 0,2.071068 -1.678932,3.75 -3.75,3.75 -2.071068,0 -3.75,-1.678932 -3.75,-3.75 0,-2.071068 1.678932,-3.75 3.75,-3.75 2.071068,0 3.75,1.678932 3.75,3.75 z"
         sodipodi:cx="61.205002"
         sodipodi:cy="28"
         sodipodi:rx="3.75"
         sodipodi:ry="3.75"
         style="fill:#9a63a8" /><path
         d="m 66.879,28.098 0.006,0.368 c -0.01,0.192 -0.034,0.431 -0.062,0.644 -0.068,0.381 -0.182,0.732 -0.338,1.078 -0.32,0.679 -0.777,1.28 -1.322,1.771 -1.092,0.979 -2.578,1.453 -3.957,1.329 -1.373,-0.107 -2.674,-0.79 -3.512,-1.775 -0.857,-0.979 -1.307,-2.265 -1.266,-3.512 0.028,-2.529 2.125,-4.799 4.776,-4.997 1.291,-0.114 2.721,0.292 3.793,1.203 1.086,0.896 1.806,2.31 1.883,3.794 l -10e-4,0.097 z M 63.029,28 c 0.084,-0.48 -0.004,-1.021 -0.314,-1.509 -0.313,-0.485 -0.836,-0.885 -1.51,-0.994 -0.662,-0.117 -1.391,0.095 -1.928,0.575 -0.533,0.494 -0.824,1.202 -0.795,1.928 0.033,0.72 0.391,1.385 0.93,1.793 0.549,0.409 1.199,0.535 1.793,0.42 0.586,-0.116 1.053,-0.448 1.346,-0.866 0.148,-0.205 0.248,-0.437 0.304,-0.663 0.026,-0.112 0.057,-0.231 0.088,-0.329 0.008,-0.03 0.024,-0.035 0.045,-0.085 L 63.033,27.903 63.029,28 z"
         id="path97"
         inkscape:connector-curvature="0"
         style="fill:#020202" /></g><g
       id="g99"><circle
         cx="142.45599"
         cy="66.622002"
         r="3.628"
         id="circle101"
         d="m 146.08399,66.622002 c 0,2.003689 -1.62431,3.628 -3.628,3.628 -2.00369,0 -3.628,-1.624311 -3.628,-3.628 0,-2.003689 1.62431,-3.628 3.628,-3.628 2.00369,0 3.628,1.624311 3.628,3.628 z"
         sodipodi:cx="142.45599"
         sodipodi:cy="66.622002"
         sodipodi:rx="3.628"
         sodipodi:ry="3.628"
         style="fill:#9a63a8" /><path
         d="m 147.145,66.676 c -0.205,1.079 -0.48,2.374 -1.289,3.347 -0.781,0.99 -2.008,1.725 -3.398,1.911 -1.373,0.197 -2.949,-0.21 -4.129,-1.184 -0.584,-0.493 -1.088,-1.108 -1.442,-1.818 -0.171,-0.358 -0.313,-0.732 -0.41,-1.121 -0.043,-0.195 -0.084,-0.393 -0.115,-0.589 l -0.031,-0.299 -0.012,-0.149 -0.006,-0.074 -0.002,-0.038 v -0.018 l 0.002,-0.147 0.002,-0.355 c 0.014,-0.209 0.043,-0.478 0.08,-0.711 0.08,-0.414 0.19,-0.795 0.342,-1.176 0.311,-0.752 0.779,-1.434 1.367,-1.983 0.588,-0.549 1.293,-0.968 2.047,-1.214 0.379,-0.118 0.766,-0.204 1.154,-0.242 0.194,-0.014 0.389,-0.025 0.579,-0.028 l 0.685,0.043 0.352,0.087 c 0.193,0.041 0.429,0.099 0.636,0.156 0.364,0.126 0.692,0.281 1.012,0.464 0.627,0.373 1.16,0.859 1.565,1.412 0.82,1.102 1.16,2.454 1.017,3.676 l -0.006,0.05 z m -2.122,-0.054 c -0.142,-0.68 -0.58,-1.216 -1.111,-1.455 -0.266,-0.119 -0.537,-0.17 -0.787,-0.162 -0.123,0.006 -0.252,0.025 -0.35,0.054 -0.029,0.023 -0.027,0.04 -0.07,0.051 l -0.358,0.05 c 0.219,0.007 0.061,0.002 0.106,0.005 h -0.002 l -0.004,0.003 -0.01,0.005 -0.019,0.012 -0.035,0.019 -0.067,0.037 -0.123,0.077 c -0.076,0.06 -0.146,0.109 -0.207,0.168 -0.123,0.117 -0.223,0.237 -0.307,0.358 -0.084,0.123 -0.152,0.245 -0.207,0.371 -0.025,0.06 -0.052,0.136 -0.068,0.186 0,0 -0.008,-0.033 -0.025,-0.007 l -0.032,0.354 c 0.006,-0.255 0.002,-0.07 0.004,-0.126 v 0.002 0.003 0.007 l -0.002,0.015 -0.005,0.026 -0.012,0.059 c -0.002,0.039 -0.002,0.075 -0.01,0.114 0,0.075 -0.006,0.156 0.002,0.24 0.006,0.168 0.041,0.356 0.129,0.535 0.16,0.378 0.471,0.75 1.002,0.942 0.515,0.19 1.172,0.146 1.732,-0.214 0.271,-0.184 0.521,-0.426 0.705,-0.723 0.086,-0.148 0.146,-0.319 0.162,-0.486 v -0.218 l -0.031,-0.357 v 0.055 z"
         id="path103"
         inkscape:connector-curvature="0"
         style="fill:#020202" /></g><circle
       enable-background="new    "
       cx="103.713"
       cy="29.875"
       r="1.875"
       id="circle105"
       d="m 105.588,29.875 c 0,1.035534 -0.83947,1.875 -1.875,1.875 -1.03554,0 -1.875,-0.839466 -1.875,-1.875 0,-1.035534 0.83946,-1.875 1.875,-1.875 1.03553,0 1.875,0.839466 1.875,1.875 z"
       sodipodi:cx="103.713"
       sodipodi:cy="29.875"
       sodipodi:rx="1.875"
       sodipodi:ry="1.875"
       style="opacity:0.2;fill:#ffffff" /><circle
       enable-background="new    "
       cx="77.471001"
       cy="5.875"
       r="1.875"
       id="circle107"
       d="m 79.346001,5.875 c 0,1.0355339 -0.839466,1.875 -1.875,1.875 -1.035534,0 -1.875,-0.8394661 -1.875,-1.875 0,-1.0355339 0.839466,-1.875 1.875,-1.875 1.035534,0 1.875,0.8394661 1.875,1.875 z"
       sodipodi:cx="77.471001"
       sodipodi:cy="5.875"
       sodipodi:rx="1.875"
       sodipodi:ry="1.875"
       style="opacity:0.2;fill:#ffffff" /></g></svg>