<?xml version="1.0" encoding="utf-8"?>
<!-- Generator: Adobe Illustrator 15.0.0, SVG Export Plug-In . SVG Version: 6.00 Build 0)  -->
<!DOCTYPE svg PUBLIC "-//W3C//DTD SVG 1.1//EN" "http://www.w3.org/Graphics/SVG/1.1/DTD/svg11.dtd">
<svg version="1.1" id="Layer_1" xmlns="http://www.w3.org/2000/svg" xmlns:xlink="http://www.w3.org/1999/xlink" x="0px" y="0px"
	 width="87.693px" height="283.998px" viewBox="0 0 87.693 283.998" enable-background="new 0 0 87.693 283.998"
	 xml:space="preserve">
<g>
	<path fill="#FFFFFF" d="M8.234,8.072h73.334c2.502,0,4.533,2.029,4.533,4.534v6.274c0,2.504-2.031,4.534-4.533,4.534h-6.23V282.76
		H14.467V23.415H8.234c-2.502,0-4.531-2.03-4.531-4.534v-6.274C3.703,10.102,5.732,8.072,8.234,8.072z"/>
	<rect x="15.092" y="51.14" fill="#804096" width="59.619" height="217.082"/>
	<path fill="#231F20" d="M87.641,11.657c-0.096-0.701-0.314-1.39-0.643-2.02C86.34,8.372,85.236,7.341,83.9,6.778
		c-0.672-0.286-1.367-0.446-2.125-0.487l-1.609-0.043l-3.127-0.081l-6.256-0.162l-12.51-0.322L8.234,4.486
		C6.248,4.457,4.225,5.21,2.736,6.552C1.23,7.88,0.246,9.795,0.053,11.834l-0.029,0.452l-0.008,0.209l-0.004,0.513l-0.008,0.835
		l-0.002,1.67L0,18.858c-0.006,0.961,0.174,2.011,0.535,2.952c0.361,0.949,0.896,1.828,1.572,2.58
		c1.344,1.507,3.275,2.491,5.301,2.686l0.463,0.032L8.1,27.115l0.514,0.002l0.834-0.002l1.412-0.011l2.443,255.654v0.002v1.161
		h1.164h60.871l1.074,0.077l0.088-1.237c0.766-10.808,1.26-21.614,1.676-32.419c0.41-10.806,0.707-21.611,0.932-32.418
		c0.424-21.612,0.521-43.223,0.412-64.835c-0.096-21.611-0.357-43.224-0.84-64.837c-0.236-10.805-0.525-21.611-0.908-32.417
		c-0.199-5.403-0.365-10.806-0.615-16.209c-0.207-5.045-0.443-10.092-0.723-15.139l5.17,0.146c1.318,0.027,2.662-0.428,3.707-1.269
		c1.047-0.835,1.809-2.052,2.082-3.39c0.035-0.169,0.061-0.333,0.084-0.508l0.025-0.285l0.012-0.203l0.023-0.818l0.045-1.564
		l0.088-3.126l0.021-0.782C87.699,12.387,87.688,11.996,87.641,11.657z M84.686,19.09l-0.004,0.104
		c-0.006,0.085-0.014,0.179-0.027,0.269c-0.098,0.714-0.465,1.396-1.016,1.898c-0.555,0.501-1.283,0.804-2.051,0.838l-6.246,0.175
		h-0.004l-0.979-0.055l-0.062,1.096c-0.305,5.403-0.555,10.805-0.779,16.209c-0.25,5.403-0.414,10.806-0.613,16.209
		C72.52,66.639,72.23,77.445,71.996,88.25c-0.482,21.613-0.746,43.226-0.838,64.837c-0.111,21.612-0.016,43.224,0.41,64.835
		c0.225,10.808,0.521,21.612,0.932,32.418c0.4,10.418,0.881,20.836,1.6,31.255H15.639l2.469-258.181l0.033-3.605l-3.674-0.035
		h-0.004l-3.344-0.047l-2.975-0.02c-0.195-0.022-0.381-0.119-0.523-0.274c-0.072-0.075-0.125-0.166-0.16-0.257
		c-0.035-0.103-0.051-0.167-0.055-0.318L7.395,12.51c0.012-0.182,0.096-0.395,0.246-0.559c0.158-0.167,0.352-0.266,0.594-0.29
		l50.039-1.199l12.51-0.323l6.256-0.16l3.127-0.081l1.52-0.035c0.283-0.004,0.623,0.047,0.918,0.153
		c0.605,0.207,1.146,0.645,1.49,1.211c0.17,0.284,0.293,0.595,0.361,0.924c0.031,0.177,0.047,0.307,0.057,0.532l0.021,0.782
		l0.088,3.126l0.043,1.564l0.021,0.746V19.09z"/>
	<ellipse fill="#6A3380" cx="45.461" cy="51.095" rx="27.611" ry="4.511"/>
	<circle opacity="0.34" fill="#FFFFFF" cx="45.462" cy="67.092" r="4.421"/>
	<circle opacity="0.34" fill="#FFFFFF" cx="41.043" cy="129.879" r="1.568"/>
	<circle opacity="0.34" fill="#FFFFFF" cx="49.882" cy="86.358" r="2.544"/>
	<g opacity="0.2">
		<polygon fill="#FFFFFF" points="27.264,19.01 24.264,174.486 21.264,19.01 		"/>
	</g>
	<circle opacity="0.34" fill="#FFFFFF" cx="35.831" cy="140.302" r="5.21"/>
	<circle opacity="0.34" fill="#FFFFFF" cx="49.881" cy="96.748" r="3.615"/>
</g>
</svg>
