<?xml version="1.0" encoding="utf-8"?>
<!-- Generator: Adobe Illustrator 15.0.0, SVG Export Plug-In . SVG Version: 6.00 Build 0)  -->
<!DOCTYPE svg PUBLIC "-//W3C//DTD SVG 1.1//EN" "http://www.w3.org/Graphics/SVG/1.1/DTD/svg11.dtd">
<svg version="1.1" id="Layer_1" xmlns="http://www.w3.org/2000/svg" xmlns:xlink="http://www.w3.org/1999/xlink" x="0px" y="0px"
	 width="88.33px" height="283.998px" viewBox="0 0 88.33 283.998" enable-background="new 0 0 88.33 283.998" xml:space="preserve">
<g>
	<path fill="#FFFFFF" d="M8.375,8.072h73.332c2.504,0,4.533,2.029,4.533,4.534v6.274c0,2.504-2.029,4.534-4.533,4.534h-6.23V282.76
		H14.604V23.415H8.375c-2.504,0-4.533-2.03-4.533-4.534v-6.274C3.842,10.102,5.871,8.072,8.375,8.072z"/>
	<rect x="15.232" y="51.14" opacity="0.09" fill="#CECECD" width="59.619" height="217.082"/>
	<path fill="#231F20" d="M88.32,18.991l-0.004-0.048c0,0.003,0-0.115,0-0.078l-0.002-0.023l-0.008-0.099l-0.016-0.194l-0.033-0.392
		c-0.041-0.521-0.092-1.043-0.123-1.564c-0.066-1.042-0.15-2.083-0.195-3.126l-0.041-0.782c-0.012-0.299-0.045-0.692-0.113-1.028
		c-0.137-0.694-0.379-1.366-0.734-1.972c-0.709-1.21-1.822-2.152-3.113-2.648c-0.652-0.25-1.32-0.38-2.031-0.394l-1.602,0.005
		c-1.041,0.011-2.084,0.004-3.127-0.006c-2.086-0.019-4.17-0.078-6.254-0.167c-4.172-0.177-8.34-0.5-12.51-0.809
		c-4.172-0.3-8.34-0.587-12.51-0.731c-4.17-0.147-8.34-0.236-12.51-0.302c-4.17-0.063-8.34-0.069-12.51-0.083L8.375,4.486
		c-1.99-0.029-4.004,0.737-5.502,2.066C1.369,7.878,0.361,9.779,0.141,11.83l-0.035,0.454l-0.014,0.209L0.08,13.008l-0.025,0.835
		l-0.035,1.67c-0.025,1.114-0.02,2.229-0.016,3.344c0,0.978,0.197,2.041,0.576,2.988c0.379,0.956,0.938,1.834,1.635,2.572
		c1.381,1.488,3.354,2.406,5.35,2.493c1.062,0.023,1.428-0.094,2.021-0.152c0.559-0.075,1.115-0.16,1.672-0.261
		c0.318-0.057,0.637-0.128,0.957-0.195c-0.836,20.649-1.24,41.298-1.557,61.947c-0.287,21.613-0.377,43.224-0.322,64.834
		c0.061,21.615,0.266,43.226,0.748,64.838c0.23,10.805,0.527,21.612,0.904,32.418c0.41,10.805,0.805,21.61,1.455,32.417v0.002v1.161
		h1.16h60.873h1.16l0.002-1.161l0.023-16.21l0.055-16.209l0.191-32.418l0.301-32.418l0.148-16.208l0.197-16.21l0.395-32.418
		l0.443-32.419c0.293-20.533,0.623-41.066,1.018-61.6c0.777-0.127,1.555-0.247,2.342-0.359c0.844-0.082,1.674-0.299,2.432-0.646
		c0.756-0.353,1.438-0.825,2.02-1.383c1.154-1.125,1.898-2.616,2.074-4.153c0.025-0.193,0.035-0.378,0.045-0.577l0.008-0.332
		C88.33,19.11,88.324,19.062,88.32,18.991z M84.582,12.684l-0.041,0.782c-0.045,1.043-0.129,2.084-0.195,3.126
		c-0.031,0.521-0.082,1.042-0.123,1.564l-0.033,0.392l-0.016,0.194l-0.008,0.099l-0.002,0.023c-0.002,0.056,0-0.046-0.002-0.026
		l-0.006,0.049c-0.006,0.056-0.014,0.142-0.021,0.18c-0.008,0.021-0.016,0.04-0.023,0.059c-0.018,0.06-0.039,0.132-0.064,0.195
		c-0.195,0.518-0.576,0.927-1.023,1.137c-0.443,0.221-0.918,0.224-1.307,0.079c-2.051-0.297-4.16-0.635-6.236-1.115h-0.004
		l-4.07,0.078l0.078,3.914c0.424,21.612,0.768,43.225,1.076,64.835l0.443,32.419l0.395,32.418l0.197,16.21l0.15,16.208l0.299,32.418
		l0.191,32.418l0.055,16.209l0.021,15.046H15.83c0.611-10.419,0.998-20.837,1.393-31.255c0.377-10.806,0.674-21.613,0.904-32.418
		c0.48-21.612,0.688-43.223,0.746-64.838c0.055-21.611-0.035-43.222-0.322-64.834c-0.33-21.611-0.742-43.224-1.664-64.835
		l-0.1-2.381l-2.184,0.099h-0.002c-1.115-0.357-2.229-0.601-3.344-0.802c-0.557-0.1-1.113-0.184-1.672-0.259
		c-0.518-0.077-1.27-0.133-1.318-0.199c-0.227-0.132-0.371-0.292-0.477-0.468c-0.049-0.09-0.082-0.179-0.096-0.265
		c-0.018-0.095-0.018-0.147-0.016-0.282c0.004-1.115,0.01-2.23-0.016-3.344l-0.035-1.67l-0.043-1.331
		c-0.016-0.171,0.043-0.394,0.193-0.562c0.15-0.178,0.354-0.266,0.596-0.29l12.51-0.065c4.17-0.013,8.34-0.02,12.51-0.082
		c4.17-0.065,8.34-0.153,12.51-0.301c4.17-0.146,8.338-0.434,12.51-0.733c4.17-0.306,8.338-0.629,12.51-0.809
		c2.084-0.09,4.168-0.148,6.254-0.167c1.043-0.009,2.086-0.018,3.127-0.005l0.781,0.003l0.393,0.001l0.195,0.002l0.158,0.006
		c0.33,0.022,0.697,0.105,1.014,0.247c0.65,0.271,1.182,0.8,1.473,1.418c0.145,0.312,0.244,0.639,0.268,0.974
		C84.6,12.333,84.594,12.461,84.582,12.684z"/>
	<ellipse fill="#CECECD" cx="44.923" cy="51.095" rx="27.063" ry="4.511"/>
	<circle fill="#CECECD" cx="44.192" cy="72.456" r="4.007"/>
	<circle fill="#CECECD" cx="55.109" cy="99.717" r="5.211"/>
	<path fill="#CECECD" d="M36.502,136.569c0,1.862-1.508,3.371-3.369,3.371s-3.369-1.508-3.369-3.371
		c0-1.858,1.508-3.368,3.369-3.368S36.502,134.711,36.502,136.569z"/>
	<path fill="#CECECD" d="M53.268,108.878c0,1.862-1.508,3.37-3.367,3.37c-1.863,0-3.369-1.507-3.369-3.37
		c0-1.859,1.506-3.368,3.369-3.368C51.76,105.51,53.268,107.019,53.268,108.878z"/>
	<g opacity="0.2">
		<polygon fill="#FFFFFF" points="27.18,19.01 24.18,174.486 21.18,19.01 		"/>
	</g>
</g>
</svg>
