<?xml version="1.0" encoding="utf-8"?>
<!-- Generator: Adobe Illustrator 15.0.0, SVG Export Plug-In . SVG Version: 6.00 Build 0)  -->
<!DOCTYPE svg PUBLIC "-//W3C//DTD SVG 1.1//EN" "http://www.w3.org/Graphics/SVG/1.1/DTD/svg11.dtd">
<svg version="1.1" id="Layer_1" xmlns="http://www.w3.org/2000/svg" xmlns:xlink="http://www.w3.org/1999/xlink" x="0px" y="0px"
	 width="100px" height="500px" viewBox="0 0 143.924 387.98" enable-background="new 0 0 143.924 387.98"
	 xml:space="preserve">
<g>
	<g>
		<circle opacity="0.34" fill="#FFFFFF" cx="91.832" cy="237.584" r="5.211"/>
		<path fill="#161616" stroke="#FFFFFF" stroke-miterlimit="10" d="M124.135,112.055H50.803c-2.504,0-4.533,2.029-4.533,4.534v6.274
			c0,2.504,2.029,4.534,4.533,4.534h6.23v259.345h60.871V127.397h6.23c2.504,0,4.533-2.03,4.533-4.534v-6.274
			C128.668,114.084,126.639,112.055,124.135,112.055z"/>
		<rect x="58.535" y="155.122" fill="#161616" width="59.619" height="217.083"/>
		<path fill="#231F20" d="M132.49,119.496l-0.035-1.67l-0.023-0.835l-0.016-0.515l-0.01-0.208l-0.037-0.455
			c-0.221-2.052-1.229-3.953-2.734-5.278c-1.494-1.329-3.51-2.095-5.5-2.066l-12.51,0.063c-4.17,0.014-8.338,0.02-12.51,0.082
			c-4.168,0.066-8.34,0.155-12.51,0.303c-4.17,0.144-8.34,0.432-12.508,0.731c-4.17,0.308-8.342,0.63-12.512,0.809
			c-2.084,0.089-4.17,0.147-6.254,0.166c-1.041,0.011-2.084,0.018-3.127,0.007l-1.6-0.005c-0.713,0.013-1.381,0.144-2.033,0.394
			c-1.291,0.496-2.404,1.438-3.113,2.648c-0.354,0.605-0.598,1.277-0.732,1.972c-0.068,0.335-0.104,0.729-0.115,1.028l-0.041,0.783
			c-0.047,1.042-0.129,2.084-0.195,3.126c-0.031,0.521-0.082,1.042-0.123,1.564l-0.033,0.392l-0.016,0.195l-0.008,0.1l-0.002,0.022
			c-0.002-0.037,0,0.081,0,0.081l-0.004,0.045c-0.004,0.073-0.008,0.12-0.01,0.209l0.006,0.332c0.012,0.198,0.021,0.385,0.045,0.577
			c0.18,1.537,0.922,3.028,2.078,4.154c0.58,0.558,1.262,1.03,2.018,1.382c0.758,0.347,1.586,0.565,2.432,0.647
			c0.787,0.112,1.566,0.231,2.34,0.358c0.396,20.534,0.725,41.067,1.02,61.6l0.443,32.418l0.395,32.418l0.195,16.21l0.152,16.207
			l0.299,32.418l0.191,32.419l0.055,16.209l0.023,16.209l0.002,1.161h1.16h60.871h1.164v-1.161v-0.001
			c0.65-10.807,1.045-21.613,1.453-32.417c0.379-10.806,0.676-21.613,0.904-32.419c0.482-21.611,0.688-43.223,0.746-64.837
			c0.057-21.611-0.033-43.222-0.32-64.834c-0.316-20.649-0.721-41.297-1.557-61.947c0.318,0.066,0.639,0.138,0.957,0.195
			c0.557,0.101,1.115,0.186,1.672,0.261c0.594,0.058,0.959,0.175,2.021,0.151c1.996-0.087,3.969-1.005,5.35-2.493
			c0.697-0.738,1.256-1.615,1.635-2.571c0.379-0.948,0.574-2.011,0.576-2.988C132.51,121.726,132.518,120.61,132.49,119.496z
			 M124.883,117.826l-0.037,1.67c-0.027,1.114-0.018,2.229-0.016,3.344c0.004,0.135,0.002,0.187-0.016,0.282
			c-0.014,0.086-0.047,0.175-0.096,0.265c-0.105,0.176-0.25,0.336-0.477,0.469c-0.049,0.064-0.801,0.121-1.318,0.199
			c-0.557,0.075-1.115,0.158-1.672,0.258c-1.115,0.201-2.229,0.446-3.344,0.802h-0.004l-2.182-0.099l-0.102,2.382
			c-0.92,21.611-1.332,43.224-1.662,64.835c-0.289,21.612-0.379,43.224-0.322,64.834c0.059,21.615,0.264,43.227,0.746,64.837
			c0.23,10.806,0.527,21.613,0.904,32.419c0.395,10.418,0.781,20.836,1.391,31.255h-58.48l0.021-15.045l0.055-16.209l0.191-32.419
			l0.301-32.418l0.148-16.207l0.195-16.21l0.396-32.418l0.443-32.418c0.311-21.611,0.652-43.224,1.076-64.835l0.076-3.914
			l-4.068-0.08h-0.004c-2.076,0.48-4.186,0.818-6.236,1.115c-0.389,0.146-0.863,0.142-1.307-0.078
			c-0.445-0.21-0.828-0.621-1.023-1.138c-0.025-0.062-0.047-0.134-0.066-0.195c-0.006-0.019-0.014-0.039-0.021-0.059
			c-0.008-0.04-0.014-0.124-0.021-0.181l-0.006-0.049c-0.002-0.019,0,0.083-0.002,0.027l-0.002-0.022l-0.008-0.1l-0.016-0.195
			l-0.033-0.392c-0.041-0.521-0.092-1.043-0.123-1.564c-0.066-1.042-0.148-2.083-0.195-3.126l-0.041-0.783
			c-0.012-0.223-0.018-0.35-0.006-0.53c0.027-0.335,0.125-0.663,0.27-0.975c0.291-0.618,0.824-1.146,1.473-1.418
			c0.316-0.143,0.684-0.224,1.014-0.247l0.158-0.007l0.197-0.002l0.389-0.002l0.783-0.002c1.043-0.012,2.086-0.003,3.127,0.005
			c2.084,0.019,4.17,0.077,6.254,0.166c4.17,0.181,8.342,0.503,12.512,0.809c4.168,0.3,8.338,0.588,12.508,0.733
			c4.17,0.148,8.342,0.236,12.51,0.301c4.172,0.063,8.34,0.07,12.51,0.082l12.51,0.065c0.242,0.023,0.445,0.111,0.596,0.29
			c0.15,0.168,0.211,0.392,0.193,0.562L124.883,117.826z"/>
		<circle opacity="0.34" fill="#FFFFFF" cx="91.833" cy="184.134" r="2.544"/>
		<circle opacity="0.34" fill="#FFFFFF" cx="97.043" cy="224.099" r="3.615"/>
		<circle opacity="0.34" fill="#FFFFFF" cx="88.345" cy="232.373" r="3.616"/>
		<circle opacity="0.34" fill="#FFFFFF" cx="80.787" cy="169.585" r="3.615"/>
		<g opacity="0.2">
			<polygon fill="#FFFFFF" points="71.82,122.993 68.82,278.469 65.82,122.993 			"/>
		</g>
		<circle opacity="0.34" fill="#FFFFFF" cx="77.172" cy="301.011" r="5.211"/>
	</g>
	<g>
		<path fill="#515152" d="M131.592,80.485c-0.287-1.004-1.078-1.725-2-2.031c-0.346-0.474-0.863-0.857-1.588-1.061
			c-0.881-1.074-2.135-1.261-3.209-0.874c-0.254-0.066-0.508-0.13-0.762-0.191c0.752-6.528,0.57-13.188-2.744-19.059
			c-1.289-2.284-4.371-1.7-5.355,0.419c-3.979-3.895-9.316,0.709-11.855,3.974c-0.469,0.602-0.695,1.242-0.744,1.862
			c-1.502-1.325-3.193-2.027-5.506-2.528c-4.789-1.038-10.086-0.547-14.041,2.173c-0.803-3.311-2.689-6.243-5.467-8.507
			c-0.404-0.33-0.883-0.536-1.383-0.637c-0.217-0.417-0.42-0.839-0.648-1.255c-0.613-1.115-1.523-1.551-2.426-1.522
			c-4.156-6.334-9.594-11.37-17.463-8.856c-0.098,0.031-0.184,0.071-0.275,0.109c-9.271-1.858-21.572,1.002-25.053,9.356
			c-4.121,3.605-6.738,8.705-4.766,14.225c0.201,0.564,0.535,1.027,0.941,1.382c0.047,0.167,0.1,0.333,0.152,0.5
			c-0.705,3.627-0.619,8.375,0.604,12.023c-0.107,0.176-0.215,0.352-0.324,0.526c-2.025-0.196-4.295,0.647-5.994,1.681
			c-0.725,0.44-1.148,1.087-1.328,1.785c-3.604,3.15-3.689,8.914,0.221,12.927c0.031,0.032,0.064,0.057,0.098,0.088
			c-1.008,1.124-2.031,2.234-3.078,3.322c-1.902,1.979-3.77,3.955-5.494,6.021c-0.857-0.162-1.779,0.05-2.525,0.827
			c-1.779,1.853-2.77,4.089-3.25,6.479c-0.422,1.236-0.76,2.511-1.021,3.844c-0.15,0.762-0.057,1.421,0.188,1.969
			c-0.074,0.164-0.137,0.34-0.188,0.531c-0.906,3.378,0.275,6.046,2.334,8.235c-0.656,0.848-0.838,1.982-0.033,3.077
			c0.916,1.243,4.141,3.389,5.953,5.302c-0.361,0.339-0.631,0.798-0.754,1.386c-0.65,3.109-0.533,5.665,0.312,7.906
			c-1.266,4.126-0.334,9.128,4.318,10.408c1.293,0.355,2.574,0.06,3.809-0.311c0.322-0.096,0.619-0.155,0.9-0.186
			c1.613,1.968,2.803,4.174,3.877,6.462c-0.381,2.598,0.672,5.798,2.588,8.151c-1.176,7.754,11.59,9.213,12.088,16.367
			c0.078,1.136,0.816,2.141,1.766,2.666c1.623,3.562,3.898,6.743,7.273,8.497c0.49,0.781,1.336,1.337,2.461,1.337h2
			c1.627,0,2.67-1.294,2.9-2.674c0.955-0.233,1.771-0.884,1.992-2.028c0.438-2.272,0.596-4.482,0.607-6.798
			c0.002-0.492-0.117-0.922-0.309-1.299c-0.178-8.426-1.186-17.539,1.674-25.135c0.342-0.389,0.523-0.87,0.57-1.385
			c0.527-1.163,1.156-2.285,1.908-3.358c0.129-0.176,0.254-0.355,0.387-0.528c0.061-0.081,0.125-0.162,0.188-0.243
			c0.383-0.486,0.779-0.965,1.203-1.43c0.064-0.072,0.107-0.147,0.164-0.221c1.77-1.489,5.143-2.225,7.229-3.257
			c2.152-1.065,4.031-2.857,5.85-4.401c6.932-5.884,11.973-12.554,14.369-21.375c0.701-2.586,1.174-5.243,2.576-7.563
			c1.947-3.225,6.943-4.218,10.289-4.97c6.998-1.577,13.926-2.064,19.008-7.02c0.143-0.062,0.279-0.132,0.408-0.223
			c1.162-0.831,1.641-1.554,1.865-2.73c1.215-0.381,2.121-1.552,2.121-2.86c0-0.334-0.068-0.649-0.17-0.948
			c0.686-1.308,1.211-2.762,1.572-4.302C132.533,90.351,133.055,85.625,131.592,80.485z"/>
		<g>
			<path fill="#231F20" d="M114.199,87.783c-0.189-0.053-0.199-0.888,0.215-2.388c0.422-1.492,1.252-3.656,2.949-6.138
				c0.859-1.232,1.932-2.554,3.441-3.769c0.758-0.6,1.633-1.177,2.697-1.6c1.055-0.421,2.35-0.676,3.709-0.461
				c1.357,0.199,2.658,0.885,3.658,1.775c1.014,0.892,1.793,1.953,2.453,3.065c0.629,1.061,1.248,2.401,1.578,3.742
				c0.352,1.339,0.537,2.704,0.621,4.086c0.162,2.763-0.07,5.601-0.6,8.496c-0.539,2.892-1.369,5.85-2.674,8.818
				c-0.662,1.481-1.436,2.969-2.463,4.424c-0.512,0.727-1.094,1.444-1.779,2.133c-0.348,0.344-0.723,0.679-1.133,1l-0.404,0.293
				l-0.467,0.312c-0.148,0.123-0.326,0.176-0.51,0.221l-0.539,0.154l-9.502,2.699l-4.928,1.388l-2.508,0.703l-0.695,0.195
				c-0.414,0.085-0.816,0.308-1.248,0.206l-0.916-0.067l-0.59-0.026c-1.576-0.056-2.91,0.104-3.703,0.58
				c-0.424,0.237-0.844,0.593-1.305,1.112c-0.227,0.258-0.459,0.551-0.691,0.867c-0.113,0.156-0.227,0.299-0.297,0.421
				c-0.07,0.114-0.148,0.239-0.23,0.396c-0.648,1.178-1.096,2.73-1.439,4.414c-0.344,1.692-0.588,3.524-0.922,5.471
				c-0.361,1.938-0.717,4.062-1.844,6.311c-1.023,2.037-2.408,3.872-4,5.437c-3.203,3.141-6.955,5.107-10.424,6.794l-2.561,1.224
				l-1.229,0.598c-0.227,0.112-0.357,0.177-0.494,0.254c-0.141,0.08-0.285,0.165-0.43,0.261c-1.174,0.762-2.346,1.92-3.391,3.172
				c-2.098,2.54-3.797,5.505-5.09,8.515c-1.287,3.017-2.176,6.133-2.492,9.135c-0.168,1.232-0.016,2.957,0.053,4.548l0.264,4.89
				c0.129,3.267,0.146,6.522-0.354,9.771c-0.256,1.622-0.646,3.251-1.322,4.837c-0.664,1.576-1.674,3.132-3.076,4.319
				c-0.344,0.293-0.734,0.573-1.064,0.782c-0.295,0.194-0.619,0.407-0.977,0.61c-0.695,0.401-1.438,0.755-2.232,1.027
				c-1.57,0.555-3.449,0.714-5.137,0.224c-1.693-0.474-3.037-1.466-4.045-2.502c-1.018-1.049-1.76-2.173-2.375-3.28
				c-1.215-2.222-1.938-4.4-2.488-6.439c-1.07-4.089-1.41-7.664-1.502-10.583c-0.078-2.921,0.148-5.196,0.477-6.715
				c0.328-1.526,0.76-2.265,0.953-2.209c0.205,0.056,0.182,0.842,0.252,2.313c0.066,1.471,0.219,3.642,0.645,6.405
				c0.434,2.753,1.102,6.129,2.381,9.804c0.648,1.824,1.457,3.736,2.568,5.482c1.088,1.729,2.611,3.302,4.203,3.619
				c0.787,0.169,1.627,0.079,2.555-0.293c0.459-0.185,0.932-0.434,1.402-0.737c0.23-0.145,0.473-0.32,0.746-0.518
				c0.244-0.17,0.408-0.305,0.588-0.471c1.41-1.285,2.215-3.676,2.523-6.365c0.318-2.701,0.229-5.68,0.012-8.788l-0.393-4.81
				c-0.066-0.829-0.133-1.672-0.18-2.547c-0.023-0.448-0.043-0.862-0.051-1.366c-0.012-0.562,0.039-1.063,0.068-1.511
				c0.312-3.719,1.291-7.34,2.711-10.838c1.439-3.492,3.295-6.887,5.838-10.041c1.291-1.568,2.732-3.094,4.676-4.4
				c0.242-0.162,0.498-0.319,0.764-0.47c0.27-0.154,0.559-0.301,0.75-0.397l1.299-0.644l2.541-1.233
				c3.318-1.622,6.455-3.358,8.826-5.7c1.182-1.162,2.15-2.462,2.857-3.856c0.633-1.19,0.996-2.877,1.318-4.651
				c0.318-1.786,0.58-3.685,0.996-5.647c0.426-1.958,0.973-4.022,2.107-6.062c0.137-0.247,0.297-0.513,0.475-0.784
				c0.172-0.268,0.344-0.484,0.5-0.694c0.314-0.416,0.652-0.835,1.033-1.253c0.75-0.832,1.711-1.687,2.875-2.311
				c1.16-0.633,2.424-0.96,3.549-1.104c1.139-0.148,2.176-0.141,3.164-0.098l0.729,0.045l0.359,0.028
				c0.053,0.004,0.025,0.004,0.041,0.005c0.012,0.004,0.021,0.001,0.033,0.001l0.57-0.148l2.521-0.657l4.957-1.284l9.525-2.443
				c0.023-0.006,0.051-0.002,0.07-0.016l0.031-0.014c0,0,0.006-0.002,0.078-0.053c0.221-0.161,0.443-0.346,0.662-0.549
				c0.438-0.413,0.865-0.894,1.262-1.421c0.799-1.053,1.49-2.258,2.094-3.493c1.205-2.482,2.064-5.108,2.656-7.661
				c0.586-2.558,0.906-5.075,0.893-7.411c-0.006-1.166-0.102-2.287-0.307-3.311c-0.195-1.033-0.525-1.878-0.998-2.833
				c-0.898-1.811-2.1-3.101-3.375-3.377c-1.281-0.343-2.842,0.239-4.117,1.076c-1.295,0.842-2.381,1.89-3.283,2.895
				c-1.805,2.031-2.926,3.9-3.672,5.164C114.785,87.136,114.408,87.844,114.199,87.783z"/>
		</g>
		<g>
			<path fill="#231F20" d="M39.699,180.783c-0.068,0.4-0.721,0.712-1.9,0.776c-1.172,0.06-2.879-0.146-4.857-0.907
				c-1.971-0.755-4.203-2.078-6.229-4.085c-2.021-1.996-3.834-4.678-4.891-7.866c-1.061-3.181-1.205-6.536-0.553-9.414
				c0.631-2.893,2.008-5.237,3.432-6.839c1.432-1.616,2.881-2.547,3.953-3.016c1.084-0.462,1.805-0.476,2.045-0.15
				c0.533,0.697-1.066,2.537-2.488,5.55c-0.701,1.507-1.307,3.319-1.49,5.369c-0.195,2.042,0.039,4.322,0.799,6.614
				c0.76,2.292,1.953,4.344,3.285,6.035c1.336,1.698,2.809,3.034,4.154,4.071C37.66,178.984,39.844,179.927,39.699,180.783z"/>
		</g>
		<g>
			<path fill="#231F20" d="M13.174,140.078c0.711,0.422,0.969,1.544,1.402,3.298c0.418,1.737,0.936,4.172,1.828,6.417
				c0.445,1.115,0.941,2.021,1.432,2.682c0.49,0.666,0.988,1.133,1.592,1.527c1.209,0.778,2.641,1.112,2.826,1.936
				c0.098,0.396-0.105,0.87-0.68,1.325c-0.572,0.439-1.545,0.881-2.928,0.908c-1.365,0.041-3.141-0.488-4.582-1.655
				c-1.457-1.148-2.543-2.77-3.23-4.492c-1.354-3.473-1.176-6.713-0.49-8.953c0.354-1.121,0.863-2.001,1.398-2.523
				C12.281,140.018,12.814,139.886,13.174,140.078z"/>
		</g>
		<g>
			<path fill="#231F20" d="M31.699,102.783c-0.32,0.293-1.273-0.311-2.883-1.095c-1.6-0.775-3.949-1.61-6.748-1.108
				c-2.787,0.455-5.988,2.279-8.826,5.2c-2.822,2.898-5.391,6.863-6.641,11.253c-0.619,2.166-0.812,4.384-0.52,6.182
				c0.365,1.93,1.186,3.892,2.203,5.571c2.057,3.411,4.9,5.925,7.541,7.501c2.658,1.6,5.137,2.276,6.908,2.622
				c1.777,0.345,2.879,0.45,2.965,0.875c0.084,0.381-0.891,1.078-2.959,1.461c-2.045,0.375-5.23,0.283-8.768-1.142
				c-3.514-1.406-7.363-4.088-10.312-8.287c-1.463-2.111-2.688-4.547-3.344-7.458c-0.604-3.073-0.287-6.08,0.506-8.944
				c1.652-5.708,4.902-10.285,8.613-13.643c3.707-3.341,8.205-5.413,12.314-5.42c2.035-0.025,3.871,0.458,5.289,1.151
				c1.428,0.691,2.459,1.553,3.184,2.323C31.658,101.391,31.988,102.528,31.699,102.783z"/>
		</g>
		<g>
			<path fill="#231F20" d="M28.199,81.283c-0.219,0.361-0.752,0.477-1.482,0.517c-0.727,0.039-1.67,0.002-2.59,0.167
				c-0.934,0.16-1.736,0.521-2.469,1.186c-0.736,0.662-1.469,1.727-2.016,3.08c-0.543,1.352-0.842,2.801-0.934,4.085
				c-0.094,1.293,0.021,2.411,0.234,3.3c0.207,0.899,0.545,1.599,0.852,2.193c0.303,0.591,0.543,1.075,0.404,1.472
				c-0.131,0.379-0.658,0.657-1.59,0.54c-0.91-0.108-2.24-0.734-3.314-2.042c-2.209-2.614-3.002-7.327-1.215-11.796
				c0.896-2.227,2.453-4.256,4.531-5.445c1.027-0.591,2.154-0.944,3.209-1.043c1.055-0.112,2.018,0.027,2.816,0.258
				c1.604,0.482,2.572,1.295,3.113,1.951C28.291,80.375,28.408,80.938,28.199,81.283z"/>
		</g>
		<g>
			<path fill="#231F20" d="M85.199,70.283c-0.426,0.062-0.969-1.455-2-4.045c-1.041-2.573-2.633-6.254-5.498-10.115
				c-2.842-3.837-7.061-7.843-12.693-10.373c-5.584-2.559-12.566-3.417-19.412-1.564c-1.709,0.45-3.365,1.047-4.951,1.755
				c-0.793,0.354-1.568,0.738-2.326,1.144c-0.744,0.399-1.537,0.856-2.158,1.261c-2.641,1.768-4.779,4.088-6.201,6.644
				c-1.439,2.562-2.229,5.363-2.594,8.081c-0.363,2.724-0.326,5.364-0.115,7.773c0.439,4.837,1.502,8.751,2.207,11.467
				c0.727,2.718,1.123,4.281,0.742,4.472c-0.357,0.181-1.469-1.035-2.904-3.593c-1.41-2.56-3.186-6.474-4.242-11.738
				c-0.518-2.628-0.836-5.603-0.641-8.852c0.199-3.235,0.945-6.783,2.66-10.192c1.705-3.416,4.385-6.55,7.795-8.93
				c0.902-0.616,1.709-1.092,2.598-1.593c0.877-0.49,1.783-0.953,2.713-1.38c1.863-0.856,3.832-1.579,5.883-2.12
				c4.102-1.092,8.332-1.384,12.326-0.922c3.998,0.454,7.744,1.645,11.012,3.303c6.582,3.326,11.123,8.379,13.844,13.019
				c2.75,4.681,3.824,8.95,4.217,11.865C85.836,68.591,85.592,70.23,85.199,70.283z"/>
		</g>
		<g>
			<path fill="#231F20" d="M104.199,71.283c-0.854,0.004-1.486-1.588-2.602-3.492c-1.098-1.909-2.881-4.019-5.424-4.833
				c-2.525-0.866-5.213-0.227-7.264,0.641c-2.057,0.858-3.545,1.715-4.211,1.184c-0.623-0.472-0.352-2.355,1.697-4.602
				c1.029-1.091,2.557-2.233,4.604-2.914c2.023-0.686,4.598-0.832,7.059-0.005c2.467,0.805,4.443,2.452,5.662,4.214
				c1.24,1.77,1.783,3.61,1.945,5.112C105.945,69.641,104.977,71.303,104.199,71.283z"/>
		</g>
		<g>
			<path fill="#231F20" d="M122.699,74.283c-0.844-0.118-1.143-2.48-1.42-5.958c-0.158-1.724-0.33-3.762-0.834-5.69
				c-0.252-0.955-0.602-1.863-1.051-2.549c-0.455-0.694-0.947-1.131-1.623-1.444c-0.338-0.159-0.736-0.276-1.17-0.358
				c-0.23-0.04-0.34-0.052-0.52-0.06c-0.176-0.008-0.371-0.001-0.574,0.019c-0.816,0.071-1.76,0.367-2.641,0.753
				c-1.787,0.783-3.35,1.904-4.551,2.925c-1.205,1.034-2.059,1.995-2.668,2.705c-0.619,0.703-1.023,1.194-1.449,1.159
				c-0.396-0.026-0.791-0.68-0.766-1.901c0.02-1.211,0.51-2.907,1.613-4.667c1.113-1.749,2.777-3.606,5.215-5.097
				c1.225-0.731,2.648-1.396,4.414-1.695c0.439-0.074,0.902-0.122,1.387-0.129c0.484-0.014,1.043,0.029,1.475,0.093
				c0.893,0.137,1.822,0.378,2.738,0.801c1.854,0.821,3.367,2.376,4.199,3.938c0.859,1.573,1.223,3.115,1.406,4.505
				c0.338,2.794,0.014,5.103-0.369,6.982C124.676,72.354,123.492,74.396,122.699,74.283z"/>
		</g>
		<g opacity="0.2">
			<path fill="#FFFFFF" d="M36.699,75.283c0.006,0-0.025-0.491-0.188-1.396c-0.15-0.904-0.428-2.227-0.65-3.898
				c-0.221-1.668-0.4-3.688-0.24-5.937c0.156-2.244,0.635-4.73,1.771-7.221c1.125-2.471,2.873-4.744,5.139-6.157
				c1.121-0.705,2.35-1.167,3.514-1.35c1.166-0.184,2.248-0.112,3.154,0.088c1.824,0.408,2.996,1.176,3.789,1.64
				c0.783,0.494,1.205,0.739,1.205,0.739c0.008-0.007-0.453-0.216-1.35-0.335c-0.881-0.119-2.23-0.142-3.615,0.289
				c-0.688,0.217-1.363,0.547-1.967,0.992c-0.607,0.444-1.148,0.996-1.65,1.643c-0.998,1.296-1.873,2.996-2.764,4.949
				c-0.885,1.952-1.717,3.946-2.518,5.813c-0.793,1.869-1.551,3.615-2.143,5.119c-0.592,1.504-1.027,2.763-1.246,3.644
				C36.713,74.786,36.695,75.285,36.699,75.283z"/>
		</g>
		<g opacity="0.2">
			<path fill="#FFFFFF" d="M18.199,127.783c0,0-0.072-0.058-0.227-0.145l-0.699-0.391c-0.299-0.184-0.701-0.397-1.117-0.723
				c-0.418-0.322-0.914-0.711-1.383-1.227c-0.945-1.018-1.895-2.49-2.422-4.289c-0.537-1.792-0.668-3.887-0.197-5.975
				c0.461-2.088,1.471-3.948,2.744-5.346c1.27-1.406,2.793-2.32,4.109-2.79c0.656-0.245,1.279-0.36,1.799-0.45
				c0.521-0.094,0.975-0.098,1.324-0.119c0.354-0.018,0.623-0.012,0.801-0.021c0.178-0.007,0.268-0.024,0.268-0.024
				c0.004,0-0.375,0.069-0.938,0.453c-0.285,0.177-0.598,0.457-0.922,0.788c-0.328,0.328-0.635,0.768-0.93,1.236
				c-0.59,0.953-1.029,2.154-1.398,3.435c-0.367,1.29-0.674,2.679-1,4.137c-0.318,1.459-0.625,2.862-0.852,4.201
				c-0.225,1.336-0.359,2.622-0.275,3.75c0.049,0.558,0.115,1.089,0.25,1.534c0.133,0.445,0.281,0.836,0.445,1.128
				C17.898,127.549,18.203,127.785,18.199,127.783z"/>
		</g>
		<g opacity="0.2">
			<path fill="#FFFFFF" d="M36.699,161.283c0.006-0.002-0.043-0.104-0.279-0.259c-0.107-0.081-0.25-0.178-0.443-0.292
				c-0.178-0.116-0.455-0.241-0.666-0.409c-0.217-0.165-0.516-0.351-0.725-0.581c-0.211-0.229-0.496-0.486-0.666-0.782
				c-0.389-0.586-0.584-1.316-0.492-2.021c0.092-0.709,0.455-1.301,0.943-1.738l2.133-1.911l0.195,0.093
				c0.244,0.117,0.494,0.314,0.783,0.502c0.275,0.206,0.654,0.398,1.023,0.871c0.18,0.227,0.311,0.505,0.35,0.726
				c0.043,0.224,0.021,0.388-0.012,0.511c-0.096,0.25-0.225,0.381-0.314,0.509c-0.383,0.486-0.348,0.799-0.33,0.781
				c0.025-0.02-0.203-0.147-0.791-0.498c-0.145-0.08-0.32-0.182-0.494-0.179c-0.018,0.002-0.035,0.002-0.053,0.007
				c-0.025,0.011,0.01-0.002,0.057-0.019l0.119-0.05c0.113-0.044,0.203-0.091,0.254-0.123c0.104-0.062,0.094-0.083,0.051-0.021
				c-0.043,0.061-0.123,0.208-0.203,0.468c-0.037,0.123-0.08,0.281-0.117,0.462l-0.076,0.408c-0.037,0.144-0.133,0.327-0.246,0.444
				l2.328-1.818c0.256,0.494,0.398,0.938,0.352,1.33c-0.047,0.392-0.285,0.718-0.639,1.088c-0.15,0.182-0.398,0.379-0.568,0.573
				c-0.16,0.194-0.406,0.4-0.562,0.593c-0.152,0.189-0.369,0.386-0.49,0.552c-0.131,0.167-0.227,0.312-0.287,0.428
				C36.689,161.168,36.691,161.285,36.699,161.283z"/>
		</g>
		<g opacity="0.2">
			<path fill="#FFFFFF" d="M91.699,72.283c-0.004-0.007-0.01,0.038,0.111,0.193c0.053,0.069,0.133,0.162,0.27,0.257
				c0.113,0.076,0.045,0.029,0.018,0.017l-0.078-0.04c-0.064-0.023-0.09-0.034-0.133-0.035c-0.014-0.003-0.021,0.003,0.008-0.008
				c0.057-0.016,0.223-0.138,0.357-0.369c0.141-0.227,0.232-0.505,0.303-0.757c0.021-0.075,0.08-0.412,0.025-0.064
				c-0.027,0.18-0.045,0.453-0.039,0.638c0.004,0.18,0.008,0.435,0.027,0.584c0.02,0.164,0.041,0.285,0.061,0.371
				c0.041,0.195,0.07,0.22,0.07,0.22c-0.002-0.014-0.025,0.011-0.082,0.201l-0.115,0.365c-0.049,0.148-0.121,0.392-0.205,0.563
				c-0.08,0.178-0.193,0.439-0.318,0.601c-0.123,0.17-0.285,0.402-0.463,0.521c-0.172,0.148-0.383,0.235-0.6,0.263
				c-0.227,0.021-0.453-0.015-0.709-0.17c-0.234-0.141-0.484-0.397-0.656-0.734c-0.184-0.34-0.305-0.789-0.275-1.234
				c-0.006-0.458,0.223-0.872,0.43-1.148c0.207-0.268,0.533-0.408,0.76-0.451c0.223-0.073,0.486-0.011,0.646,0.02
				c0.172,0.035,0.291,0.085,0.377,0.117C91.672,72.285,91.703,72.29,91.699,72.283z"/>
		</g>
		<g opacity="0.2">
			<path fill="#FFFFFF" d="M99.699,73.783c0.002-0.007-0.025,0.02-0.035,0.215c-0.002,0.043-0.004,0.094,0,0.155
				c-0.002,0.035,0.029,0.199,0.018,0.132c-0.006-0.043-0.027-0.098-0.035-0.128c-0.033-0.084-0.082-0.107-0.043-0.084
				c0.037,0.021,0.182,0.042,0.363-0.005c0.184-0.043,0.369-0.136,0.531-0.228l0.219-0.143l0.047-0.035
				c0.004-0.003,0.023-0.018,0.016-0.012l-0.07,0.052l-0.242,0.205c-0.133,0.119-0.314,0.294-0.414,0.407
				c-0.109,0.122-0.186,0.216-0.238,0.286c-0.117,0.155-0.119,0.188-0.119,0.188c0.008-0.01-0.021-0.005-0.186,0.102l-0.322,0.194
				c-0.133,0.077-0.35,0.208-0.521,0.28c-0.176,0.078-0.432,0.195-0.625,0.231c-0.199,0.046-0.469,0.109-0.67,0.083
				c-0.217-0.002-0.422-0.075-0.586-0.192c-0.168-0.128-0.295-0.296-0.361-0.568c-0.062-0.247-0.057-0.586,0.061-0.927
				c0.109-0.354,0.338-0.737,0.668-1.018c0.311-0.312,0.756-0.43,1.086-0.469c0.326-0.034,0.643,0.106,0.822,0.239
				c0.197,0.112,0.328,0.343,0.41,0.479c0.086,0.149,0.127,0.27,0.158,0.354C99.688,73.766,99.697,73.79,99.699,73.783z"/>
		</g>
		<g>
			<circle fill="#515152" stroke="#FFFFFF" stroke-miterlimit="10" cx="95.628" cy="30.507" r="11.224"/>
			<path fill="#020202" d="M108.6,30.551c-0.078,1.598-0.492,3.345-1.207,4.83c-0.721,1.508-1.744,2.845-2.963,3.929
				c-2.432,2.179-5.604,3.39-8.803,3.421c-3.201,0.073-6.434-1.169-8.83-3.393c-2.42-2.214-3.998-5.382-4.143-8.875
				c-0.182-3.302,1.053-6.908,3.457-9.472c1.205-1.281,2.666-2.351,4.301-3.071c0.818-0.357,1.674-0.635,2.551-0.824
				c0.438-0.094,0.879-0.167,1.324-0.222l0.67-0.062l0.734-0.028l0.551,0.011l0.723,0.049c0.457,0.046,0.895,0.108,1.34,0.193
				c0.883,0.176,1.742,0.46,2.566,0.813c1.645,0.723,3.115,1.801,4.301,3.11c2.365,2.632,3.6,6.152,3.43,9.545L108.6,30.551z
				 M105.102,30.507c-0.143-2.494-1.33-4.814-3.146-6.327c-0.893-0.769-1.91-1.357-2.979-1.758
				c-0.533-0.209-1.088-0.354-1.646-0.462c-0.275-0.056-0.566-0.099-0.84-0.129l-0.375-0.032l-0.551-0.015
				c-2.168-0.064-4.561,0.79-6.293,2.368c-1.775,1.581-2.963,3.815-3.119,6.4c-0.172,2.394,0.674,5.068,2.434,6.998
				c0.883,0.96,1.957,1.769,3.168,2.311c1.213,0.54,2.527,0.835,3.873,0.871c2.689,0.06,5.357-1.152,7.07-3.153
				c0.859-0.994,1.502-2.146,1.906-3.354c0.414-1.229,0.576-2.42,0.498-3.761V30.507z"/>
		</g>
		<g>
			<circle fill="#515152" stroke="#FFFFFF" stroke-miterlimit="10" cx="74.215" cy="6.783" r="5.5"/>
			<path fill="#020202" d="M81.977,6.841l0.016,0.27l-0.006,0.431c-0.014,0.266-0.031,0.514-0.07,0.771
				c-0.074,0.51-0.197,1.018-0.387,1.501c-0.381,0.97-1.016,1.825-1.779,2.505c-1.508,1.391-3.592,2.078-5.535,1.909
				c-1.951-0.151-3.754-1.123-4.924-2.521c-1.186-1.397-1.758-3.197-1.686-4.923c0.143-3.5,3.002-6.506,6.641-6.755
				c1.697-0.163,3.66,0.373,5.127,1.598c1.494,1.202,2.49,3.125,2.605,5.158L81.977,6.841z M77.451,6.783
				c0.127-0.853-0.062-1.791-0.617-2.62c-0.562-0.824-1.463-1.476-2.65-1.625c-1.051-0.149-2.318,0.233-3.148,1.066
				c-0.846,0.824-1.316,2.021-1.213,3.179c0.061,1.159,0.676,2.222,1.537,2.855c0.861,0.65,1.922,0.866,2.855,0.701
				c0.941-0.155,1.719-0.656,2.242-1.314c0.254-0.336,0.436-0.7,0.607-1.062c0.086-0.182,0.172-0.366,0.236-0.563l0.088-0.296
				l0.033-0.108l0.029-0.27V6.783z"/>
		</g>
		<g>
			<circle fill="#515152" stroke="#FFFFFF" stroke-miterlimit="10" cx="57.949" cy="27.033" r="3.75"/>
			<path fill="#020202" d="M63.623,27.131l0.006,0.369c-0.01,0.192-0.035,0.43-0.062,0.643c-0.068,0.381-0.182,0.733-0.338,1.078
				c-0.32,0.679-0.777,1.281-1.322,1.771c-1.092,0.979-2.578,1.453-3.957,1.329c-1.373-0.108-2.674-0.79-3.512-1.776
				c-0.857-0.978-1.307-2.264-1.266-3.511c0.029-2.53,2.125-4.799,4.777-4.997c1.291-0.115,2.721,0.292,3.793,1.203
				c1.086,0.896,1.805,2.309,1.883,3.794L63.623,27.131z M59.773,27.033c0.084-0.481-0.004-1.021-0.314-1.509
				c-0.314-0.485-0.836-0.885-1.51-0.994c-0.662-0.117-1.391,0.095-1.928,0.575c-0.533,0.494-0.824,1.202-0.795,1.928
				c0.033,0.72,0.391,1.385,0.93,1.793c0.549,0.409,1.199,0.535,1.793,0.42c0.586-0.117,1.053-0.449,1.346-0.867
				c0.148-0.205,0.248-0.436,0.303-0.663c0.027-0.112,0.057-0.231,0.088-0.329c0.008-0.03,0.025-0.035,0.045-0.085l0.045-0.367
				L59.773,27.033z"/>
		</g>
		<g>
			<circle fill="#515152" stroke="#FFFFFF" stroke-miterlimit="10" cx="139.2" cy="65.655" r="3.628"/>
			<path fill="#020202" d="M143.889,65.709c-0.205,1.079-0.48,2.374-1.289,3.346c-0.781,0.99-2.008,1.725-3.398,1.911
				c-1.373,0.198-2.949-0.21-4.129-1.183c-0.584-0.493-1.088-1.109-1.443-1.819c-0.17-0.358-0.312-0.732-0.41-1.121
				c-0.043-0.195-0.084-0.392-0.115-0.589l-0.031-0.298l-0.012-0.15l-0.006-0.074l-0.002-0.038v-0.018l0.002-0.147l0.002-0.356
				c0.014-0.209,0.043-0.477,0.08-0.711c0.08-0.414,0.191-0.794,0.342-1.175c0.311-0.752,0.779-1.434,1.367-1.984
				c0.588-0.549,1.293-0.967,2.047-1.214c0.379-0.118,0.766-0.204,1.154-0.242c0.195-0.013,0.389-0.025,0.58-0.028l0.684,0.043
				l0.352,0.087c0.193,0.041,0.428,0.098,0.635,0.156c0.365,0.126,0.693,0.281,1.012,0.464c0.627,0.373,1.16,0.859,1.566,1.412
				c0.82,1.102,1.16,2.454,1.016,3.676L143.889,65.709z M141.768,65.655c-0.141-0.68-0.58-1.216-1.111-1.455
				c-0.266-0.119-0.537-0.17-0.787-0.162c-0.123,0.006-0.252,0.025-0.35,0.053c-0.029,0.024-0.027,0.04-0.07,0.051l-0.359,0.05
				c0.219,0.007,0.061,0.002,0.107,0.005l-0.002,0l-0.004,0.003l-0.01,0.005l-0.018,0.011l-0.035,0.019l-0.068,0.037l-0.123,0.077
				c-0.076,0.06-0.145,0.11-0.207,0.168c-0.123,0.117-0.223,0.237-0.307,0.359c-0.084,0.123-0.152,0.245-0.207,0.371
				c-0.025,0.059-0.051,0.135-0.068,0.185c0,0-0.008-0.033-0.025-0.007l-0.033,0.355c0.006-0.255,0.002-0.07,0.004-0.126v0.002
				v0.003v0.007l-0.002,0.014l-0.004,0.027l-0.012,0.058c-0.002,0.039-0.002,0.075-0.01,0.114c0,0.076-0.006,0.157,0.002,0.241
				c0.006,0.168,0.041,0.356,0.129,0.535c0.16,0.378,0.471,0.75,1.002,0.942c0.514,0.191,1.172,0.146,1.732-0.214
				c0.271-0.183,0.521-0.425,0.705-0.722c0.086-0.149,0.146-0.32,0.162-0.487V65.96l-0.031-0.358V65.655z"/>
		</g>
		<circle opacity="0.2" fill="#FFFFFF" cx="100.457" cy="28.909" r="1.875"/>
		<circle opacity="0.2" fill="#FFFFFF" cx="74.215" cy="4.909" r="1.875"/>
	</g>
</g>
</svg>
