<?xml version="1.0" encoding="utf-8"?>
<!-- Generator: Adobe Illustrator 15.0.0, SVG Export Plug-In . SVG Version: 6.00 Build 0)  -->
<!DOCTYPE svg PUBLIC "-//W3C//DTD SVG 1.1//EN" "http://www.w3.org/Graphics/SVG/1.1/DTD/svg11.dtd">
<svg version="1.1" id="Layer_1" xmlns="http://www.w3.org/2000/svg" xmlns:xlink="http://www.w3.org/1999/xlink" x="0px" y="0px"
	 width="88.33px" height="281.543px" viewBox="0 0 88.33 281.543" enable-background="new 0 0 88.33 281.543" xml:space="preserve">
<g>
	<circle opacity="0.34" fill="#FFFFFF" cx="47.652" cy="131.147" r="5.211"/>
	<path fill="#FFFFFF" d="M79.955,5.618H6.623c-2.504,0-4.533,2.029-4.533,4.534v6.274c0,2.504,2.029,4.534,4.533,4.534h6.23v259.346
		h60.871V20.96h6.23c2.504,0,4.533-2.03,4.533-4.534v-6.274C84.488,7.647,82.459,5.618,79.955,5.618z"/>
	<rect x="14.355" y="48.685" fill="#161616" stroke="#FFFFFF" stroke-miterlimit="10" width="59.619" height="217.082"/>
	<path fill="#231F20" d="M88.311,13.059l-0.035-1.67l-0.023-0.835l-0.016-0.515l-0.01-0.209l-0.037-0.454
		c-0.221-2.051-1.229-3.952-2.734-5.278c-1.494-1.33-3.51-2.096-5.5-2.066l-12.51,0.063c-4.17,0.014-8.338,0.02-12.51,0.083
		c-4.168,0.066-8.34,0.155-12.51,0.302c-4.17,0.144-8.34,0.431-12.508,0.731c-4.17,0.309-8.342,0.632-12.512,0.809
		c-2.084,0.089-4.17,0.147-6.254,0.167c-1.041,0.01-2.084,0.018-3.127,0.006l-1.6-0.005C5.713,4.2,5.045,4.331,4.393,4.581
		C3.102,5.077,1.988,6.019,1.279,7.229C0.926,7.835,0.682,8.506,0.547,9.201C0.479,9.537,0.443,9.93,0.432,10.229l-0.041,0.782
		c-0.047,1.043-0.129,2.084-0.195,3.126c-0.031,0.521-0.082,1.042-0.123,1.564l-0.033,0.392l-0.016,0.194l-0.008,0.099L0.014,16.41
		c-0.002-0.038,0,0.081-0.002,0.078L0.01,16.536C0.006,16.608,0.002,16.655,0,16.745l0.006,0.332
		c0.012,0.199,0.021,0.384,0.045,0.577c0.18,1.538,0.922,3.029,2.078,4.153c0.58,0.558,1.262,1.03,2.018,1.383
		c0.758,0.347,1.586,0.564,2.432,0.646c0.787,0.113,1.566,0.232,2.34,0.359c0.396,20.534,0.725,41.067,1.02,61.6l0.443,32.419
		l0.395,32.418l0.195,16.21l0.152,16.208l0.299,32.418l0.191,32.418l0.055,16.209l0.023,16.21l0.002,1.161h1.16h60.871h1.164v-1.161
		v-0.002c0.65-10.807,1.045-21.612,1.453-32.417c0.379-10.806,0.676-21.613,0.904-32.418c0.482-21.612,0.688-43.223,0.746-64.838
		c0.057-21.611-0.033-43.222-0.32-64.834c-0.316-20.649-0.721-41.298-1.557-61.947c0.318,0.066,0.639,0.138,0.957,0.195
		c0.557,0.101,1.115,0.186,1.672,0.261c0.594,0.058,0.959,0.175,2.021,0.152c1.996-0.087,3.969-1.005,5.35-2.493
		c0.697-0.738,1.256-1.616,1.635-2.572c0.379-0.947,0.574-2.01,0.576-2.988C88.33,15.289,88.338,14.173,88.311,13.059z
		 M80.703,11.389l-0.037,1.67c-0.027,1.114-0.018,2.229-0.016,3.344c0.004,0.134,0.002,0.187-0.016,0.282
		c-0.014,0.086-0.047,0.175-0.096,0.265c-0.105,0.175-0.25,0.335-0.477,0.468c-0.049,0.065-0.801,0.122-1.318,0.199
		c-0.557,0.075-1.115,0.159-1.672,0.259c-1.115,0.201-2.229,0.445-3.344,0.802h-0.004l-2.182-0.099l-0.102,2.381
		c-0.92,21.612-1.332,43.225-1.662,64.835c-0.289,21.613-0.379,43.224-0.322,64.834c0.059,21.615,0.264,43.226,0.746,64.838
		c0.23,10.805,0.527,21.612,0.904,32.418c0.395,10.418,0.781,20.836,1.391,31.255h-58.48l0.021-15.046l0.055-16.209l0.191-32.418
		l0.301-32.418l0.148-16.208l0.195-16.21l0.396-32.418l0.443-32.419c0.311-21.611,0.652-43.224,1.076-64.835l0.076-3.914
		l-4.068-0.078H12.85c-2.076,0.48-4.186,0.818-6.236,1.115c-0.389,0.145-0.863,0.142-1.307-0.079
		c-0.445-0.21-0.828-0.62-1.023-1.137c-0.025-0.062-0.047-0.135-0.066-0.195c-0.006-0.019-0.014-0.038-0.021-0.059
		c-0.008-0.039-0.014-0.124-0.021-0.18l-0.006-0.049c-0.002-0.02,0,0.082-0.002,0.026l-0.002-0.023l-0.008-0.099l-0.016-0.194
		l-0.033-0.392c-0.041-0.521-0.092-1.043-0.123-1.564c-0.066-1.042-0.148-2.083-0.195-3.126l-0.041-0.782
		c-0.012-0.223-0.018-0.351-0.006-0.53c0.027-0.335,0.125-0.663,0.27-0.974c0.291-0.619,0.824-1.147,1.473-1.418
		c0.316-0.142,0.684-0.225,1.014-0.247l0.158-0.006L6.854,7.05l0.389-0.001l0.783-0.003c1.043-0.013,2.086-0.004,3.127,0.005
		c2.084,0.019,4.17,0.077,6.254,0.167c4.17,0.179,8.342,0.502,12.512,0.809c4.168,0.299,8.338,0.587,12.508,0.733
		c4.17,0.147,8.342,0.235,12.51,0.301c4.172,0.062,8.34,0.069,12.51,0.082l12.51,0.065c0.242,0.024,0.445,0.111,0.596,0.29
		c0.15,0.168,0.211,0.391,0.193,0.562L80.703,11.389z"/>
	<ellipse fill="#2D2D2D" cx="43.289" cy="48.64" rx="27.082" ry="4.511"/>
	<circle opacity="0.34" fill="#FFFFFF" cx="47.653" cy="77.697" r="2.544"/>
	<circle opacity="0.34" fill="#FFFFFF" cx="52.863" cy="117.662" r="3.615"/>
	<circle opacity="0.34" fill="#FFFFFF" cx="44.165" cy="125.936" r="3.616"/>
	<circle opacity="0.34" fill="#FFFFFF" cx="36.607" cy="63.148" r="3.615"/>
	<g opacity="0.2">
		<polygon fill="#FFFFFF" points="27.641,16.555 24.641,172.032 21.641,16.555 		"/>
	</g>
	<circle opacity="0.34" fill="#FFFFFF" cx="32.992" cy="194.574" r="5.211"/>
</g>
</svg>
