<?xml version="1.0" encoding="UTF-8" standalone="no"?>
<!-- Generator: Adobe Illustrator 15.0.0, SVG Export Plug-In . SVG Version: 6.00 Build 0)  -->

<svg
   xmlns:dc="http://purl.org/dc/elements/1.1/"
   xmlns:cc="http://creativecommons.org/ns#"
   xmlns:rdf="http://www.w3.org/1999/02/22-rdf-syntax-ns#"
   xmlns:svg="http://www.w3.org/2000/svg"
   xmlns="http://www.w3.org/2000/svg"
   xmlns:sodipodi="http://sodipodi.sourceforge.net/DTD/sodipodi-0.dtd"
   xmlns:inkscape="http://www.inkscape.org/namespaces/inkscape"
   version="1.1"
   id="Layer_1"
   x="0px"
   y="0px"
   width="143.922"
   height="500.70999"
   viewBox="0 0 143.922 500.71001"
   enable-background="new 0 0 143.922 388.714"
   xml:space="preserve"
   inkscape:version="0.48.4 r9939"
   sodipodi:docname="10 Brown.svg"><metadata
     id="metadata115"><rdf:RDF><cc:Work
         rdf:about=""><dc:format>image/svg+xml</dc:format><dc:type
           rdf:resource="http://purl.org/dc/dcmitype/StillImage" /></cc:Work></rdf:RDF></metadata><defs
     id="defs113" /><sodipodi:namedview
     pagecolor="#ffffff"
     bordercolor="#666666"
     borderopacity="1"
     objecttolerance="10"
     gridtolerance="10"
     guidetolerance="10"
     inkscape:pageopacity="0"
     inkscape:pageshadow="2"
     inkscape:window-width="1301"
     inkscape:window-height="744"
     id="namedview111"
     showgrid="false"
     inkscape:zoom="6.868894"
     inkscape:cx="71.960999"
     inkscape:cy="116.65514"
     inkscape:window-x="65"
     inkscape:window-y="24"
     inkscape:window-maximized="1"
     inkscape:current-layer="Layer_1" /><g
     id="g3"
     transform="translate(0,-0.00399057)"><g
       id="g5"><path
         stroke-miterlimit="10"
         d="m 54.779,114.104 73.334,0 c 2.502,0 4.533,2.03 4.533,4.534 l 0,6.274 c 0,2.504 -2.031,4.535 -4.533,4.535 l -6.23,0 0,259.344 L 49.65446,388.06308 61.01,129.447 l -6.23,0 c -2.502,0 -4.531,-2.03 -4.531,-4.535 l 0,-6.274 c -0.001,-2.504 2.028,-4.534 4.53,-4.534 z"
         id="path7"
         inkscape:connector-curvature="0"
         style="fill:#925624;stroke:#603a17;stroke-width:3;stroke-miterlimit:10"
         sodipodi:nodetypes="sssssccccsscs" /><rect
         x="49.110455"
         y="156.88083"
         width="72.719543"
         height="217.37418"
         id="rect9"
         style="fill:#925624" /><path
         d="m 134.727,125.022 -0.004,-0.048 c 0,0 0,-0.115 0,-0.077 l -0.002,-0.024 -0.01,-0.099 -0.016,-0.194 -0.033,-0.392 c -0.039,-0.522 -0.092,-1.043 -0.121,-1.564 -0.068,-1.043 -0.15,-2.084 -0.197,-3.127 l -0.039,-0.782 c -0.014,-0.298 -0.047,-0.692 -0.115,-1.028 -0.137,-0.693 -0.379,-1.366 -0.732,-1.972 -0.709,-1.21 -1.824,-2.152 -3.115,-2.648 -0.65,-0.25 -1.318,-0.381 -2.031,-0.394 l -1.6,0.005 c -1.043,0.011 -2.086,0.004 -3.129,-0.007 -2.084,-0.018 -4.168,-0.077 -6.254,-0.165 -4.17,-0.179 -8.34,-0.501 -12.51,-0.809 -4.17,-0.3 -8.34,-0.588 -12.508,-0.732 -4.172,-0.147 -8.342,-0.235 -12.512,-0.301 -4.17,-0.064 -8.338,-0.068 -12.51,-0.083 l -12.51,-0.063 c -1.988,-0.028 -4.004,0.737 -5.5,2.065 -1.506,1.327 -2.512,3.227 -2.734,5.279 l -0.035,0.455 -0.012,0.208 -0.014,0.514 -0.023,0.836 -0.037,1.67 c -0.025,1.114 -0.018,2.229 -0.014,3.344 0,0.978 0.195,2.041 0.574,2.988 0.381,0.956 0.939,1.834 1.637,2.572 1.381,1.487 3.354,2.406 5.348,2.493 1.064,0.023 1.428,-0.094 2.023,-0.152 0.557,-0.075 1.113,-0.159 1.672,-0.26 0.318,-0.058 0.637,-0.129 0.955,-0.194 -0.836,20.648 -11.944106,42.53232 -12.261106,63.18132 -0.287,21.612 -0.788773,43.63577 -0.733773,65.24777 0.059,21.613 -0.96932,44.46032 -0.48932,66.07232 0.23,10.805 -0.296547,23.2591 0.08045,34.0641 0.41,10.805 -0.722223,16.0624 -0.07222,26.8684 l 0.145584,1.89459 14.558385,0.2885 1.162,0 60.873,0 1.16,0 0.002,-1.162 0.023,-16.21 0.055,-16.209 0.191,-32.417 0.299,-32.419 0.15,-16.207 0.195,-16.21 0.396,-32.418 0.443,-32.419 c 0.293,-20.533 0.623,-41.066 1.018,-61.6 0.775,-0.127 1.553,-0.247 2.34,-0.358 0.846,-0.083 1.676,-0.301 2.434,-0.647 0.756,-0.353 1.438,-0.826 2.018,-1.383 1.154,-1.125 1.898,-2.615 2.076,-4.153 0.023,-0.191 0.035,-0.379 0.045,-0.576 l 0.008,-0.333 c -0.001,-0.09 -0.006,-0.138 -0.008,-0.21 z m -3.741,-6.307 -0.039,0.782 c -0.047,1.043 -0.131,2.084 -0.197,3.127 -0.029,0.521 -0.082,1.042 -0.121,1.564 l -0.033,0.392 -0.016,0.194 -0.01,0.099 -0.002,0.024 c 0,0.056 0,-0.047 0,-0.027 l -0.006,0.049 c -0.008,0.058 -0.014,0.142 -0.021,0.182 -0.01,0.02 -0.018,0.039 -0.021,0.059 -0.02,0.059 -0.041,0.131 -0.066,0.194 -0.197,0.518 -0.578,0.928 -1.025,1.139 -0.441,0.219 -0.916,0.223 -1.305,0.077 -2.051,-0.296 -4.16,-0.635 -6.238,-1.115 l -0.002,0 -4.07,0.079 0.076,3.915 c 0.424,21.611 0.768,43.224 1.078,64.834 l 0.443,32.419 0.395,32.418 0.195,16.21 0.15,16.207 0.299,32.419 0.193,32.417 0.053,16.209 0.023,15.047 -69.110621,-0.87351 c 0.611,-10.42 1.329288,-18.72917 1.724288,-29.14717 0.377,-10.806 0.264227,-23.26009 0.492227,-34.06409 0.482,-21.612 -0.134547,-44.45932 -0.07555,-66.07232 0.055,-21.612 -0.858546,-40.75336 -1.145546,-62.36536 C 52.271801,173.49555 64.215,151.059 63.295,129.449 l -0.104,-2.382 -2.182,0.099 -0.004,0 c -1.113,-0.356 -2.229,-0.601 -3.342,-0.802 -0.559,-0.101 -1.115,-0.184 -1.672,-0.259 -0.518,-0.077 -1.271,-0.133 -1.318,-0.198 -0.227,-0.133 -0.371,-0.293 -0.477,-0.469 -0.049,-0.09 -0.082,-0.178 -0.098,-0.265 -0.018,-0.095 -0.018,-0.147 -0.016,-0.282 0.004,-1.115 0.012,-2.23 -0.014,-3.344 l -0.037,-1.67 -0.043,-1.331 c -0.016,-0.17 0.045,-0.394 0.195,-0.562 0.15,-0.178 0.352,-0.266 0.594,-0.29 l 12.51,-0.064 c 4.172,-0.013 8.34,-0.021 12.51,-0.083 4.17,-0.065 8.34,-0.153 12.512,-0.301 4.168,-0.146 8.338,-0.432 12.508,-0.733 4.17,-0.305 8.34,-0.629 12.51,-0.809 2.086,-0.087 4.17,-0.147 6.254,-0.166 1.043,-0.009 2.086,-0.018 3.129,-0.005 l 0.783,0.004 0.389,10e-4 0.197,0.002 0.158,0.008 c 0.328,0.021 0.697,0.104 1.012,0.245 0.65,0.272 1.184,0.801 1.475,1.418 0.145,0.312 0.242,0.639 0.268,0.975 0.012,0.179 0.006,0.307 -0.006,0.529 z"
         id="path11"
         inkscape:connector-curvature="0"
         style="fill:#231f20"
         sodipodi:nodetypes="cccccccccccccccccccccccccccccccccccccccccccccccccccccccccccccccccccccccccccccccccccccccccccccccccccccccccccccccccccccccccccccc" /><g
         id="g13"
         style="opacity:0.2"><polygon
           points="68.961,125.042 74.961,125.042 71.961,280.519 "
           id="polygon15"
           style="fill:#ffffff" /></g><circle
         cx="92.528999"
         cy="172.47"
         r="5.211"
         id="circle17"
         sodipodi:cx="92.528999"
         sodipodi:cy="172.47"
         sodipodi:rx="5.211"
         sodipodi:ry="5.211"
         style="opacity:0.34000017;fill:#ffffff"
         d="m 97.739999,172.47 c 0,2.87796 -2.333044,5.211 -5.211,5.211 -2.877955,0 -5.211,-2.33304 -5.211,-5.211 0,-2.87795 2.333045,-5.211 5.211,-5.211 2.877956,0 5.211,2.33305 5.211,5.211 z" /><circle
         cx="92.528"
         cy="225.92101"
         r="2.5439999"
         id="circle19"
         sodipodi:cx="92.528"
         sodipodi:cy="225.92101"
         sodipodi:rx="2.5439999"
         sodipodi:ry="2.5439999"
         style="opacity:0.34000017;fill:#ffffff"
         d="m 95.072,225.92101 c 0,1.40501 -1.138988,2.544 -2.544,2.544 -1.405012,0 -2.544,-1.13899 -2.544,-2.544 0,-1.40502 1.138988,-2.544 2.544,-2.544 1.405012,0 2.544,1.13898 2.544,2.544 z" /><circle
         cx="87.318001"
         cy="185.95599"
         r="3.615"
         id="circle21"
         sodipodi:cx="87.318001"
         sodipodi:cy="185.95599"
         sodipodi:rx="3.615"
         sodipodi:ry="3.615"
         style="opacity:0.34000017;fill:#ffffff"
         d="m 90.933001,185.95599 c 0,1.99651 -1.618491,3.615 -3.615,3.615 -1.99651,0 -3.615,-1.61849 -3.615,-3.615 0,-1.99651 1.61849,-3.615 3.615,-3.615 1.996509,0 3.615,1.61849 3.615,3.615 z" /><circle
         cx="96.016998"
         cy="177.68201"
         r="3.6159999"
         id="circle23"
         sodipodi:cx="96.016998"
         sodipodi:cy="177.68201"
         sodipodi:rx="3.6159999"
         sodipodi:ry="3.6159999"
         style="opacity:0.34000017;fill:#ffffff"
         d="m 99.632998,177.68201 c 0,1.99706 -1.618938,3.616 -3.616,3.616 -1.997061,0 -3.616,-1.61894 -3.616,-3.616 0,-1.99706 1.618939,-3.616 3.616,-3.616 1.997062,0 3.616,1.61894 3.616,3.616 z" /><circle
         cx="103.574"
         cy="240.468"
         r="3.615"
         id="circle25"
         sodipodi:cx="103.574"
         sodipodi:cy="240.468"
         sodipodi:rx="3.615"
         sodipodi:ry="3.615"
         style="opacity:0.34000017;fill:#ffffff"
         d="m 107.189,240.468 c 0,1.99651 -1.61849,3.615 -3.615,3.615 -1.99651,0 -3.615003,-1.61849 -3.615003,-3.615 0,-1.99651 1.618493,-3.615 3.615003,-3.615 1.99651,0 3.615,1.61849 3.615,3.615 z" /></g><g
       id="g27"><path
         d="m 131.59,80.457 c -0.285,-1.004 -1.078,-1.725 -1.998,-2.031 -0.346,-0.474 -0.863,-0.857 -1.588,-1.061 -0.881,-1.074 -2.137,-1.261 -3.211,-0.874 -0.252,-0.066 -0.508,-0.13 -0.762,-0.191 0.752,-6.528 0.57,-13.188 -2.742,-19.059 -1.291,-2.284 -4.371,-1.7 -5.355,0.419 -3.98,-3.895 -9.318,0.709 -11.857,3.974 -0.467,0.602 -0.693,1.242 -0.744,1.862 -1.5,-1.325 -3.193,-2.027 -5.506,-2.528 C 93.038,59.93 87.741,60.421 83.786,63.141 82.983,59.83 81.098,56.898 78.319,54.634 77.915,54.304 77.436,54.098 76.938,53.997 76.719,53.58 76.518,53.158 76.29,52.742 75.675,51.627 74.765,51.191 73.862,51.22 69.706,44.886 64.268,39.85 56.401,42.364 c -0.098,0.031 -0.186,0.071 -0.277,0.109 -9.27,-1.858 -21.572,1.002 -25.051,9.356 -4.121,3.605 -6.738,8.705 -4.768,14.225 0.201,0.564 0.535,1.027 0.943,1.382 0.045,0.167 0.1,0.333 0.152,0.5 -0.705,3.627 -0.619,8.375 0.604,12.023 -0.107,0.176 -0.215,0.352 -0.324,0.526 -2.027,-0.196 -4.295,0.647 -5.996,1.681 -0.723,0.44 -1.146,1.087 -1.326,1.785 -3.604,3.15 -3.689,8.914 0.219,12.927 0.031,0.032 0.066,0.057 0.098,0.088 -1.008,1.124 -2.031,2.234 -3.078,3.322 -1.902,1.979 -3.77,3.955 -5.494,6.021 -0.857,-0.162 -1.779,0.05 -2.525,0.827 -1.779,1.853 -2.768,4.089 -3.25,6.479 -0.42,1.236 -0.76,2.511 -1.021,3.844 -0.148,0.762 -0.057,1.421 0.188,1.969 -0.072,0.164 -0.137,0.34 -0.188,0.531 -0.906,3.378 0.277,6.046 2.334,8.235 -0.654,0.848 -0.838,1.982 -0.031,3.077 0.914,1.243 4.139,3.389 5.953,5.302 -0.361,0.339 -0.633,0.798 -0.756,1.386 -0.648,3.109 -0.533,5.665 0.314,7.906 -1.268,4.126 -0.336,9.128 4.318,10.408 1.291,0.355 2.572,0.06 3.809,-0.311 0.32,-0.096 0.619,-0.155 0.9,-0.186 1.611,1.968 2.803,4.174 3.877,6.462 -0.381,2.598 0.67,5.798 2.586,8.151 -1.174,7.754 11.592,9.213 12.088,16.367 0.08,1.136 0.816,2.141 1.768,2.666 1.621,3.562 3.896,6.743 7.273,8.497 0.49,0.781 1.336,1.337 2.459,1.337 h 2 c 1.627,0 2.67,-1.294 2.902,-2.674 0.955,-0.233 1.77,-0.884 1.99,-2.028 0.439,-2.272 0.596,-4.482 0.607,-6.798 0.004,-0.492 -0.117,-0.922 -0.309,-1.299 -0.176,-8.426 -1.186,-17.539 1.674,-25.135 0.342,-0.389 0.525,-0.87 0.572,-1.385 0.527,-1.163 1.156,-2.285 1.906,-3.358 0.131,-0.176 0.254,-0.355 0.389,-0.528 0.061,-0.081 0.123,-0.162 0.186,-0.243 0.383,-0.486 0.779,-0.965 1.203,-1.43 0.066,-0.072 0.109,-0.147 0.166,-0.221 1.768,-1.489 5.141,-2.225 7.227,-3.257 2.152,-1.065 4.031,-2.857 5.85,-4.401 6.932,-5.884 11.975,-12.554 14.369,-21.375 0.703,-2.586 1.176,-5.243 2.576,-7.563 1.947,-3.225 6.945,-4.218 10.289,-4.97 7,-1.577 13.926,-2.064 19.01,-7.02 0.141,-0.062 0.279,-0.132 0.406,-0.223 1.162,-0.831 1.643,-1.554 1.865,-2.73 1.215,-0.381 2.121,-1.552 2.121,-2.86 0,-0.334 -0.068,-0.649 -0.17,-0.948 0.688,-1.308 1.213,-2.762 1.572,-4.302 1.931,-4.185 2.455,-8.91 0.99,-14.051 z"
         id="path29"
         inkscape:connector-curvature="0"
         style="fill:#b58765" /><g
         id="g31"><path
           d="m 114.197,87.755 c -0.188,-0.053 -0.197,-0.888 0.215,-2.388 0.422,-1.492 1.252,-3.656 2.951,-6.138 0.857,-1.232 1.93,-2.554 3.439,-3.769 0.76,-0.6 1.633,-1.177 2.699,-1.6 1.053,-0.421 2.348,-0.676 3.707,-0.461 1.359,0.199 2.66,0.885 3.66,1.775 1.014,0.892 1.791,1.954 2.451,3.065 0.629,1.061 1.25,2.401 1.58,3.742 0.352,1.339 0.535,2.704 0.619,4.086 0.162,2.763 -0.068,5.601 -0.598,8.496 -0.541,2.892 -1.369,5.85 -2.676,8.818 -0.662,1.481 -1.434,2.969 -2.461,4.424 -0.512,0.727 -1.096,1.444 -1.781,2.133 -0.348,0.344 -0.721,0.679 -1.131,1 l -0.404,0.293 -0.467,0.312 c -0.146,0.123 -0.326,0.176 -0.508,0.221 l -0.539,0.154 -9.502,2.699 -4.93,1.388 -2.508,0.703 -0.695,0.195 c -0.412,0.085 -0.816,0.308 -1.248,0.206 l -0.916,-0.067 -0.59,-0.026 c -1.576,-0.056 -2.908,0.104 -3.703,0.58 -0.422,0.237 -0.844,0.593 -1.303,1.112 -0.229,0.258 -0.461,0.551 -0.693,0.867 -0.113,0.156 -0.227,0.299 -0.295,0.421 -0.072,0.114 -0.148,0.239 -0.23,0.396 -0.65,1.178 -1.098,2.73 -1.439,4.414 -0.346,1.692 -0.59,3.524 -0.924,5.471 -0.361,1.938 -0.717,4.062 -1.842,6.311 -1.025,2.037 -2.408,3.872 -4,5.437 -3.205,3.141 -6.957,5.107 -10.424,6.794 l -2.562,1.224 -1.229,0.598 c -0.227,0.112 -0.355,0.177 -0.492,0.254 -0.143,0.08 -0.287,0.165 -0.432,0.261 -1.172,0.762 -2.346,1.92 -3.389,3.172 -2.1,2.54 -3.797,5.505 -5.09,8.515 -1.287,3.017 -2.176,6.133 -2.494,9.135 -0.168,1.232 -0.016,2.957 0.053,4.548 l 0.264,4.89 c 0.129,3.267 0.146,6.522 -0.352,9.771 -0.258,1.622 -0.646,3.251 -1.322,4.837 -0.666,1.576 -1.676,3.132 -3.076,4.319 -0.344,0.293 -0.736,0.573 -1.066,0.782 -0.295,0.194 -0.619,0.407 -0.977,0.61 -0.693,0.401 -1.436,0.755 -2.23,1.027 -1.572,0.555 -3.451,0.714 -5.137,0.224 -1.693,-0.474 -3.039,-1.466 -4.047,-2.502 -1.016,-1.049 -1.76,-2.173 -2.373,-3.28 -1.215,-2.222 -1.938,-4.4 -2.49,-6.439 -1.07,-4.089 -1.41,-7.664 -1.5,-10.583 -0.08,-2.921 0.146,-5.196 0.477,-6.715 0.328,-1.526 0.758,-2.265 0.951,-2.209 0.205,0.056 0.184,0.842 0.252,2.313 0.066,1.471 0.221,3.642 0.645,6.405 0.434,2.753 1.102,6.129 2.383,9.804 0.646,1.824 1.455,3.736 2.568,5.482 1.088,1.729 2.611,3.302 4.201,3.619 0.787,0.169 1.629,0.079 2.555,-0.293 0.461,-0.185 0.934,-0.434 1.404,-0.737 0.229,-0.145 0.473,-0.32 0.744,-0.518 0.244,-0.17 0.408,-0.305 0.588,-0.471 1.41,-1.285 2.217,-3.676 2.523,-6.365 0.32,-2.701 0.23,-5.68 0.012,-8.788 l -0.391,-4.81 c -0.068,-0.829 -0.133,-1.672 -0.182,-2.547 -0.023,-0.448 -0.041,-0.862 -0.051,-1.366 -0.01,-0.562 0.039,-1.063 0.07,-1.511 0.311,-3.719 1.289,-7.34 2.709,-10.838 1.441,-3.492 3.297,-6.887 5.838,-10.041 1.293,-1.568 2.732,-3.094 4.676,-4.4 0.244,-0.162 0.5,-0.319 0.766,-0.47 0.268,-0.154 0.557,-0.301 0.75,-0.397 l 1.299,-0.644 2.539,-1.233 c 3.318,-1.622 6.455,-3.358 8.826,-5.7 1.182,-1.162 2.15,-2.462 2.859,-3.856 0.633,-1.19 0.994,-2.877 1.316,-4.651 0.318,-1.786 0.582,-3.685 0.996,-5.647 0.426,-1.958 0.973,-4.022 2.109,-6.062 0.135,-0.247 0.297,-0.513 0.475,-0.784 0.17,-0.268 0.342,-0.484 0.498,-0.694 0.316,-0.416 0.654,-0.835 1.033,-1.253 0.75,-0.832 1.713,-1.687 2.875,-2.311 1.16,-0.633 2.424,-0.96 3.551,-1.104 1.137,-0.148 2.174,-0.141 3.162,-0.098 l 0.73,0.045 0.359,0.028 c 0.051,0.004 0.023,0.004 0.039,0.005 0.012,0.004 0.023,10e-4 0.033,10e-4 l 0.572,-0.148 2.521,-0.657 4.955,-1.284 9.525,-2.443 c 0.023,-0.006 0.051,-0.002 0.072,-0.016 l 0.029,-0.014 c -0.002,0.002 0.006,-0.002 0.08,-0.053 0.221,-0.161 0.441,-0.346 0.662,-0.549 0.438,-0.413 0.863,-0.894 1.26,-1.421 0.801,-1.053 1.492,-2.258 2.096,-3.493 1.203,-2.482 2.062,-5.108 2.654,-7.661 0.588,-2.558 0.906,-5.075 0.895,-7.411 -0.008,-1.166 -0.102,-2.287 -0.307,-3.311 -0.197,-1.033 -0.527,-1.878 -1,-2.833 -0.896,-1.811 -2.1,-3.101 -3.373,-3.377 -1.281,-0.343 -2.844,0.239 -4.119,1.076 -1.293,0.842 -2.379,1.89 -3.281,2.895 -1.807,2.031 -2.928,3.9 -3.674,5.164 -0.739,1.273 -1.118,1.981 -1.327,1.92 z"
           id="path33"
           inkscape:connector-curvature="0"
           style="fill:#231f20" /></g><g
         id="g35"><path
           d="m 39.697,180.755 c -0.066,0.4 -0.721,0.712 -1.898,0.776 -1.172,0.06 -2.881,-0.146 -4.859,-0.907 -1.971,-0.755 -4.201,-2.078 -6.227,-4.085 -2.021,-1.996 -3.834,-4.678 -4.891,-7.866 -1.062,-3.181 -1.207,-6.536 -0.555,-9.414 0.631,-2.893 2.008,-5.237 3.432,-6.839 1.432,-1.616 2.883,-2.547 3.953,-3.016 1.084,-0.462 1.805,-0.476 2.045,-0.15 0.533,0.697 -1.064,2.537 -2.488,5.55 -0.699,1.507 -1.305,3.319 -1.488,5.369 -0.197,2.042 0.037,4.322 0.797,6.614 0.76,2.292 1.953,4.344 3.287,6.035 1.334,1.698 2.807,3.034 4.154,4.071 2.699,2.063 4.883,3.006 4.738,3.862 z"
           id="path37"
           inkscape:connector-curvature="0"
           style="fill:#231f20" /></g><g
         id="g39"><path
           d="m 13.174,140.05 c 0.709,0.422 0.967,1.544 1.4,3.298 0.42,1.737 0.936,4.172 1.828,6.417 0.445,1.115 0.941,2.021 1.434,2.682 0.49,0.666 0.988,1.133 1.59,1.527 1.211,0.778 2.641,1.112 2.826,1.936 0.1,0.396 -0.105,0.87 -0.68,1.325 -0.572,0.439 -1.545,0.881 -2.928,0.908 -1.365,0.041 -3.141,-0.488 -4.582,-1.655 -1.457,-1.148 -2.541,-2.77 -3.229,-4.492 -1.354,-3.473 -1.176,-6.713 -0.49,-8.953 0.352,-1.121 0.861,-2.001 1.398,-2.523 0.538,-0.53 1.071,-0.662 1.433,-0.47 z"
           id="path41"
           inkscape:connector-curvature="0"
           style="fill:#231f20" /></g><g
         id="g43"><path
           d="m 31.697,102.755 c -0.32,0.293 -1.271,-0.311 -2.881,-1.095 -1.602,-0.775 -3.951,-1.61 -6.748,-1.108 -2.787,0.455 -5.99,2.279 -8.828,5.2 -2.822,2.898 -5.391,6.863 -6.641,11.253 -0.619,2.166 -0.812,4.384 -0.518,6.182 0.365,1.93 1.186,3.892 2.201,5.571 2.059,3.411 4.902,5.925 7.541,7.501 2.658,1.6 5.137,2.276 6.908,2.622 1.777,0.345 2.881,0.45 2.965,0.875 0.084,0.381 -0.889,1.078 -2.959,1.461 -2.045,0.375 -5.23,0.283 -8.768,-1.142 -3.514,-1.406 -7.363,-4.088 -10.312,-8.287 -1.463,-2.111 -2.686,-4.547 -3.344,-7.458 -0.604,-3.073 -0.287,-6.08 0.508,-8.944 1.65,-5.708 4.9,-10.285 8.611,-13.643 3.707,-3.341 8.205,-5.413 12.316,-5.42 2.033,-0.025 3.869,0.458 5.287,1.151 1.43,0.691 2.461,1.553 3.184,2.323 1.437,1.566 1.769,2.703 1.478,2.958 z"
           id="path45"
           inkscape:connector-curvature="0"
           style="fill:#231f20" /></g><g
         id="g47"><path
           d="m 28.197,81.255 c -0.219,0.361 -0.75,0.477 -1.482,0.517 -0.725,0.039 -1.668,0.002 -2.59,0.167 -0.934,0.16 -1.736,0.521 -2.467,1.186 -0.738,0.662 -1.471,1.727 -2.016,3.08 -0.545,1.352 -0.842,2.801 -0.934,4.085 -0.094,1.293 0.02,2.411 0.234,3.3 0.207,0.899 0.545,1.599 0.852,2.193 0.301,0.591 0.543,1.075 0.402,1.472 -0.131,0.379 -0.658,0.657 -1.588,0.54 -0.91,-0.108 -2.24,-0.734 -3.316,-2.042 -2.209,-2.614 -3.002,-7.327 -1.215,-11.796 0.896,-2.227 2.453,-4.256 4.531,-5.445 1.029,-0.591 2.156,-0.944 3.209,-1.043 1.057,-0.112 2.02,0.027 2.816,0.258 1.604,0.482 2.574,1.295 3.115,1.951 0.543,0.67 0.66,1.233 0.449,1.577 z"
           id="path49"
           inkscape:connector-curvature="0"
           style="fill:#231f20" /></g><g
         id="g51"><path
           d="M 85.197,70.255 C 84.771,70.317 84.228,68.8 83.199,66.21 82.156,63.637 80.566,59.956 77.699,56.095 74.859,52.258 70.638,48.252 65.006,45.722 59.424,43.163 52.442,42.305 45.594,44.158 c -1.709,0.45 -3.363,1.047 -4.949,1.755 -0.793,0.354 -1.57,0.738 -2.328,1.144 -0.742,0.399 -1.537,0.856 -2.156,1.261 -2.641,1.768 -4.779,4.088 -6.201,6.644 -1.441,2.562 -2.229,5.363 -2.596,8.081 -0.363,2.724 -0.326,5.364 -0.113,7.773 0.439,4.837 1.502,8.751 2.207,11.467 0.725,2.718 1.121,4.281 0.74,4.472 -0.357,0.181 -1.467,-1.035 -2.904,-3.593 -1.41,-2.56 -3.186,-6.474 -4.242,-11.738 -0.516,-2.628 -0.834,-5.603 -0.639,-8.852 0.197,-3.235 0.943,-6.783 2.658,-10.192 1.705,-3.416 4.385,-6.55 7.797,-8.93 0.902,-0.616 1.709,-1.092 2.598,-1.593 0.877,-0.49 1.781,-0.953 2.713,-1.38 1.861,-0.856 3.83,-1.579 5.883,-2.12 4.1,-1.092 8.33,-1.384 12.324,-0.922 3.998,0.454 7.744,1.645 11.014,3.303 6.58,3.326 11.121,8.379 13.842,13.019 2.75,4.681 3.826,8.95 4.219,11.865 0.375,2.941 0.129,4.581 -0.264,4.633 z"
           id="path53"
           inkscape:connector-curvature="0"
           style="fill:#231f20" /></g><g
         id="g55"><path
           d="m 104.197,71.255 c -0.854,0.004 -1.486,-1.588 -2.602,-3.492 -1.098,-1.909 -2.881,-4.019 -5.424,-4.833 -2.523,-0.866 -5.213,-0.227 -7.264,0.641 -2.055,0.858 -3.545,1.715 -4.211,1.184 -0.621,-0.472 -0.35,-2.355 1.699,-4.602 1.027,-1.091 2.555,-2.233 4.602,-2.914 2.025,-0.686 4.598,-0.832 7.059,-0.005 2.469,0.805 4.443,2.452 5.662,4.214 1.24,1.77 1.785,3.61 1.945,5.112 0.28,3.053 -0.688,4.715 -1.466,4.695 z"
           id="path57"
           inkscape:connector-curvature="0"
           style="fill:#231f20" /></g><g
         id="g59"><path
           d="m 122.697,74.255 c -0.842,-0.118 -1.143,-2.48 -1.42,-5.958 -0.158,-1.724 -0.33,-3.762 -0.834,-5.69 -0.25,-0.955 -0.6,-1.863 -1.049,-2.549 -0.457,-0.694 -0.947,-1.131 -1.623,-1.444 -0.34,-0.159 -0.738,-0.276 -1.172,-0.358 -0.23,-0.04 -0.34,-0.052 -0.518,-0.06 -0.178,-0.008 -0.371,-10e-4 -0.574,0.019 -0.818,0.071 -1.762,0.367 -2.643,0.753 -1.785,0.783 -3.35,1.904 -4.551,2.925 -1.203,1.034 -2.057,1.995 -2.668,2.705 -0.617,0.703 -1.023,1.194 -1.449,1.159 -0.395,-0.026 -0.791,-0.68 -0.764,-1.901 0.018,-1.211 0.508,-2.907 1.613,-4.667 1.111,-1.749 2.775,-3.606 5.213,-5.097 1.227,-0.731 2.648,-1.396 4.416,-1.695 0.439,-0.074 0.902,-0.122 1.387,-0.129 0.482,-0.014 1.041,0.029 1.475,0.093 0.891,0.137 1.822,0.378 2.736,0.801 1.855,0.821 3.367,2.376 4.199,3.938 0.861,1.573 1.223,3.115 1.408,4.505 0.338,2.794 0.014,5.103 -0.371,6.982 -0.834,3.74 -2.018,5.782 -2.811,5.668 z"
           id="path61"
           inkscape:connector-curvature="0"
           style="fill:#231f20" /></g><g
         id="g63"
         style="opacity:0.2"><path
           d="m 36.697,75.255 c 0,0 -0.023,-0.491 -0.186,-1.396 -0.152,-0.904 -0.43,-2.227 -0.652,-3.898 -0.219,-1.668 -0.398,-3.688 -0.24,-5.937 0.156,-2.244 0.637,-4.73 1.771,-7.221 1.127,-2.471 2.873,-4.744 5.141,-6.157 1.119,-0.705 2.348,-1.167 3.512,-1.35 1.168,-0.184 2.248,-0.112 3.156,0.088 1.824,0.408 2.994,1.176 3.789,1.64 0.781,0.494 1.203,0.739 1.209,0.73 0,0 -0.457,-0.208 -1.354,-0.327 -0.881,-0.119 -2.232,-0.142 -3.615,0.289 -0.689,0.217 -1.363,0.547 -1.969,0.992 -0.607,0.444 -1.148,0.996 -1.648,1.643 -1,1.296 -1.873,2.996 -2.764,4.949 -0.887,1.952 -1.719,3.946 -2.52,5.813 -0.791,1.869 -1.549,3.615 -2.141,5.119 -0.594,1.504 -1.027,2.763 -1.246,3.644 -0.229,0.882 -0.245,1.381 -0.243,1.379 z"
           id="path65"
           inkscape:connector-curvature="0"
           style="fill:#ffffff" /></g><g
         id="g67"
         style="opacity:0.2"><path
           d="m 18.197,127.755 c 0,0 -0.07,-0.058 -0.227,-0.145 l -0.697,-0.391 c -0.299,-0.184 -0.701,-0.397 -1.117,-0.723 -0.418,-0.322 -0.916,-0.711 -1.385,-1.227 -0.945,-1.018 -1.893,-2.49 -2.422,-4.289 -0.537,-1.792 -0.666,-3.887 -0.197,-5.975 0.461,-2.088 1.473,-3.948 2.744,-5.346 1.271,-1.406 2.793,-2.32 4.109,-2.79 0.656,-0.245 1.281,-0.36 1.799,-0.45 0.521,-0.094 0.975,-0.098 1.326,-0.119 0.354,-0.018 0.621,-0.012 0.799,-0.021 0.178,-0.007 0.268,-0.024 0.268,-0.024 0,0 -0.375,0.069 -0.938,0.453 -0.283,0.177 -0.598,0.457 -0.922,0.788 -0.328,0.328 -0.633,0.768 -0.928,1.236 -0.592,0.953 -1.031,2.154 -1.398,3.435 -0.367,1.29 -0.676,2.679 -1.002,4.137 -0.318,1.459 -0.625,2.862 -0.85,4.201 -0.227,1.336 -0.361,2.622 -0.275,3.75 0.047,0.558 0.115,1.089 0.25,1.534 0.133,0.445 0.279,0.836 0.445,1.128 0.317,0.604 0.622,0.84 0.618,0.838 z"
           id="path69"
           inkscape:connector-curvature="0"
           style="fill:#ffffff" /></g><g
         id="g71"
         style="opacity:0.2"><path
           d="m 36.697,161.255 c 0.008,-0.002 -0.043,-0.104 -0.279,-0.259 -0.107,-0.081 -0.25,-0.178 -0.441,-0.292 -0.18,-0.116 -0.457,-0.241 -0.666,-0.409 -0.217,-0.165 -0.516,-0.351 -0.725,-0.581 -0.213,-0.229 -0.496,-0.486 -0.666,-0.782 -0.391,-0.586 -0.586,-1.316 -0.492,-2.021 0.09,-0.709 0.453,-1.301 0.941,-1.738 l 2.133,-1.911 0.195,0.093 c 0.244,0.117 0.494,0.314 0.783,0.502 0.275,0.206 0.656,0.398 1.023,0.871 0.18,0.227 0.311,0.505 0.35,0.726 0.045,0.224 0.021,0.388 -0.01,0.511 -0.098,0.25 -0.227,0.381 -0.316,0.509 -0.383,0.486 -0.348,0.799 -0.33,0.781 0.025,-0.02 -0.201,-0.147 -0.789,-0.498 -0.145,-0.08 -0.322,-0.182 -0.496,-0.179 -0.018,0.002 -0.035,0.002 -0.051,0.007 -0.027,0.011 0.01,-0.002 0.057,-0.019 l 0.119,-0.05 c 0.113,-0.044 0.201,-0.091 0.252,-0.123 0.104,-0.062 0.096,-0.083 0.053,-0.021 -0.045,0.061 -0.125,0.208 -0.205,0.468 -0.035,0.123 -0.08,0.281 -0.115,0.462 l -0.076,0.408 c -0.037,0.144 -0.133,0.327 -0.248,0.444 l 2.328,-1.818 c 0.256,0.494 0.4,0.938 0.354,1.33 -0.047,0.392 -0.287,0.718 -0.641,1.088 -0.148,0.182 -0.398,0.379 -0.566,0.573 -0.162,0.194 -0.406,0.4 -0.564,0.593 -0.15,0.189 -0.367,0.386 -0.49,0.552 -0.131,0.167 -0.227,0.312 -0.285,0.428 -0.145,0.24 -0.143,0.357 -0.137,0.355 z"
           id="path73"
           inkscape:connector-curvature="0"
           style="fill:#ffffff" /></g><g
         id="g75"
         style="opacity:0.2"><path
           d="m 91.697,72.255 c -0.004,-0.007 -0.01,0.038 0.113,0.193 0.053,0.069 0.131,0.162 0.268,0.257 0.113,0.076 0.045,0.029 0.018,0.017 l -0.078,-0.04 c -0.064,-0.023 -0.09,-0.034 -0.131,-0.035 -0.016,-0.003 -0.021,0.003 0.006,-0.008 0.059,-0.016 0.223,-0.138 0.359,-0.369 0.139,-0.227 0.23,-0.505 0.301,-0.757 0.021,-0.075 0.08,-0.412 0.025,-0.064 -0.025,0.18 -0.045,0.453 -0.039,0.638 0.004,0.18 0.01,0.435 0.029,0.584 0.018,0.164 0.039,0.285 0.061,0.371 0.039,0.195 0.07,0.22 0.07,0.22 -0.002,-0.014 -0.025,0.011 -0.082,0.201 L 92.5,73.829 c -0.049,0.148 -0.121,0.392 -0.203,0.563 -0.082,0.178 -0.193,0.439 -0.32,0.601 -0.123,0.17 -0.283,0.402 -0.461,0.521 -0.172,0.148 -0.385,0.235 -0.6,0.263 -0.229,0.021 -0.453,-0.015 -0.709,-0.17 -0.234,-0.141 -0.486,-0.397 -0.658,-0.734 -0.184,-0.34 -0.305,-0.789 -0.275,-1.234 -0.006,-0.458 0.225,-0.872 0.43,-1.148 0.209,-0.268 0.535,-0.408 0.76,-0.451 0.225,-0.073 0.486,-0.011 0.646,0.02 0.172,0.035 0.291,0.085 0.377,0.117 0.185,0.08 0.214,0.085 0.21,0.078 z"
           id="path77"
           inkscape:connector-curvature="0"
           style="fill:#ffffff" /></g><g
         id="g79"
         style="opacity:0.2"><path
           d="m 99.697,73.755 c 0.002,-0.007 -0.025,0.02 -0.035,0.215 -0.002,0.043 -0.002,0.094 0,0.155 -0.002,0.035 0.029,0.199 0.018,0.132 -0.006,-0.043 -0.027,-0.098 -0.035,-0.128 -0.033,-0.084 -0.082,-0.107 -0.041,-0.084 0.035,0.021 0.18,0.042 0.363,-0.005 0.184,-0.043 0.367,-0.136 0.529,-0.228 l 0.219,-0.143 0.049,-0.035 c 0.004,-0.003 0.021,-0.018 0.014,-0.012 l -0.068,0.052 -0.242,0.205 c -0.133,0.119 -0.316,0.294 -0.416,0.407 -0.109,0.122 -0.186,0.216 -0.236,0.286 -0.119,0.155 -0.121,0.188 -0.117,0.184 0.004,-0.005 -0.023,0 -0.189,0.106 l -0.322,0.194 c -0.133,0.077 -0.35,0.208 -0.521,0.28 -0.174,0.078 -0.43,0.195 -0.625,0.231 -0.197,0.046 -0.467,0.109 -0.67,0.083 -0.217,-0.002 -0.42,-0.075 -0.584,-0.192 -0.17,-0.128 -0.297,-0.296 -0.363,-0.568 -0.061,-0.247 -0.055,-0.586 0.061,-0.927 0.111,-0.354 0.338,-0.737 0.668,-1.018 0.312,-0.312 0.758,-0.43 1.088,-0.469 0.324,-0.034 0.643,0.106 0.82,0.239 0.197,0.112 0.328,0.343 0.41,0.479 0.088,0.149 0.127,0.27 0.158,0.354 0.056,0.19 0.065,0.214 0.067,0.207 z"
           id="path81"
           inkscape:connector-curvature="0"
           style="fill:#ffffff" /></g><g
         id="g83"><circle
           cx="95.625999"
           cy="30.479"
           r="11.224"
           id="circle85"
           sodipodi:cx="95.625999"
           sodipodi:cy="30.479"
           sodipodi:rx="11.224"
           sodipodi:ry="11.224"
           style="fill:#b58765"
           d="m 106.85,30.479 c 0,6.198844 -5.02516,11.224 -11.224001,11.224 -6.198844,0 -11.224,-5.025156 -11.224,-11.224 0,-6.198844 5.025156,-11.224 11.224,-11.224 6.198841,0 11.224001,5.025156 11.224001,11.224 z" /><path
           d="m 108.6,30.523 c -0.078,1.598 -0.494,3.345 -1.207,4.83 -0.721,1.508 -1.746,2.845 -2.963,3.929 -2.432,2.179 -5.605,3.39 -8.803,3.421 -3.201,0.073 -6.436,-1.169 -8.83,-3.393 -2.422,-2.214 -3.998,-5.382 -4.143,-8.875 -0.184,-3.302 1.051,-6.908 3.455,-9.472 1.205,-1.281 2.666,-2.351 4.303,-3.071 0.818,-0.357 1.674,-0.635 2.549,-0.824 0.438,-0.094 0.881,-0.167 1.326,-0.222 l 0.668,-0.062 0.734,-0.028 0.551,0.011 0.725,0.049 c 0.457,0.046 0.895,0.108 1.338,0.193 0.883,0.176 1.742,0.46 2.566,0.813 1.646,0.723 3.117,1.801 4.303,3.11 2.363,2.632 3.598,6.152 3.428,9.545 v 0.046 z m -3.5,-0.044 c -0.143,-2.494 -1.33,-4.814 -3.146,-6.327 -0.891,-0.769 -1.908,-1.357 -2.979,-1.758 -0.533,-0.209 -1.086,-0.354 -1.645,-0.462 -0.277,-0.056 -0.566,-0.099 -0.84,-0.129 l -0.377,-0.032 -0.551,-0.015 c -2.166,-0.064 -4.559,0.79 -6.291,2.368 -1.775,1.581 -2.965,3.815 -3.119,6.4 -0.172,2.394 0.674,5.068 2.432,6.998 0.885,0.96 1.959,1.769 3.168,2.311 1.213,0.54 2.529,0.835 3.875,0.871 2.689,0.06 5.357,-1.152 7.07,-3.153 0.859,-0.994 1.502,-2.146 1.904,-3.354 0.414,-1.229 0.576,-2.42 0.5,-3.761 l -0.001,0.043 z"
           id="path87"
           inkscape:connector-curvature="0"
           style="fill:#020202" /></g><g
         id="g89"><circle
           cx="74.212997"
           cy="6.7550001"
           r="5.5"
           id="circle91"
           sodipodi:cx="74.212997"
           sodipodi:cy="6.7550001"
           sodipodi:rx="5.5"
           sodipodi:ry="5.5"
           style="fill:#b58765"
           d="m 79.712997,6.7550001 c 0,3.0375661 -2.462433,5.4999999 -5.5,5.4999999 -3.037566,0 -5.5,-2.4624338 -5.5,-5.4999999 0,-3.0375661 2.462434,-5.5 5.5,-5.5 3.037567,0 5.5,2.4624339 5.5,5.5 z" /><path
           d="m 81.977,6.813 0.016,0.27 -0.008,0.431 c -0.012,0.266 -0.031,0.514 -0.068,0.771 -0.076,0.51 -0.199,1.018 -0.389,1.501 -0.381,0.97 -1.016,1.825 -1.777,2.505 -1.508,1.391 -3.594,2.078 -5.537,1.909 -1.951,-0.151 -3.754,-1.123 -4.922,-2.521 -1.188,-1.397 -1.76,-3.197 -1.686,-4.923 0.143,-3.5 3.002,-6.506 6.641,-6.755 1.695,-0.163 3.658,0.373 5.125,1.598 1.494,1.202 2.492,3.125 2.605,5.158 V 6.813 z M 77.449,6.755 C 77.578,5.902 77.387,4.964 76.834,4.135 76.27,3.311 75.369,2.66 74.182,2.51 73.133,2.361 71.866,2.743 71.036,3.576 70.19,4.4 69.72,5.597 69.823,6.755 c 0.059,1.159 0.674,2.222 1.537,2.855 0.861,0.65 1.92,0.866 2.854,0.701 0.941,-0.155 1.719,-0.656 2.242,-1.314 0.256,-0.336 0.438,-0.7 0.607,-1.062 0.086,-0.182 0.172,-0.366 0.238,-0.563 l 0.088,-0.296 0.033,-0.108 0.029,-0.27 -0.002,0.057 z"
           id="path93"
           inkscape:connector-curvature="0"
           style="fill:#020202" /></g><g
         id="g95"><circle
           cx="57.946999"
           cy="27.004999"
           r="3.75"
           id="circle97"
           sodipodi:cx="57.946999"
           sodipodi:cy="27.004999"
           sodipodi:rx="3.75"
           sodipodi:ry="3.75"
           style="fill:#b58765"
           d="m 61.696999,27.004999 c 0,2.071068 -1.678933,3.75 -3.75,3.75 -2.071068,0 -3.75,-1.678932 -3.75,-3.75 0,-2.071068 1.678932,-3.75 3.75,-3.75 2.071067,0 3.75,1.678932 3.75,3.75 z" /><path
           d="m 63.621,27.103 0.008,0.369 c -0.01,0.192 -0.035,0.43 -0.062,0.643 -0.07,0.381 -0.184,0.733 -0.34,1.078 -0.32,0.679 -0.777,1.281 -1.32,1.771 -1.094,0.979 -2.578,1.453 -3.959,1.329 -1.373,-0.108 -2.674,-0.79 -3.51,-1.776 -0.857,-0.978 -1.309,-2.264 -1.268,-3.511 0.029,-2.53 2.125,-4.799 4.777,-4.997 1.293,-0.115 2.723,0.292 3.795,1.203 1.084,0.896 1.803,2.309 1.881,3.794 l -0.002,0.097 z m -3.85,-0.098 c 0.086,-0.481 -0.004,-1.021 -0.314,-1.509 -0.312,-0.485 -0.834,-0.885 -1.51,-0.994 -0.662,-0.117 -1.391,0.095 -1.928,0.575 -0.531,0.494 -0.822,1.202 -0.795,1.928 0.035,0.72 0.393,1.385 0.93,1.793 0.549,0.409 1.199,0.535 1.793,0.42 0.588,-0.117 1.053,-0.449 1.346,-0.867 0.15,-0.205 0.25,-0.436 0.305,-0.663 0.027,-0.112 0.055,-0.231 0.088,-0.329 0.008,-0.03 0.023,-0.035 0.045,-0.085 l 0.043,-0.367 -0.003,0.098 z"
           id="path99"
           inkscape:connector-curvature="0"
           style="fill:#020202" /></g><g
         id="g101"><circle
           cx="139.19901"
           cy="65.626999"
           r="3.6289999"
           id="circle103"
           sodipodi:cx="139.19901"
           sodipodi:cy="65.626999"
           sodipodi:rx="3.6289999"
           sodipodi:ry="3.6289999"
           style="fill:#b58765"
           d="m 142.82801,65.626999 c 0,2.004241 -1.62476,3.629 -3.629,3.629 -2.00425,0 -3.629,-1.624759 -3.629,-3.629 0,-2.004241 1.62475,-3.629 3.629,-3.629 2.00424,0 3.629,1.624759 3.629,3.629 z" /><path
           d="m 143.889,65.682 c -0.205,1.079 -0.48,2.374 -1.289,3.346 -0.781,0.99 -2.01,1.725 -3.4,1.911 -1.371,0.198 -2.947,-0.21 -4.129,-1.183 -0.582,-0.493 -1.086,-1.109 -1.441,-1.819 -0.172,-0.358 -0.314,-0.732 -0.412,-1.121 -0.041,-0.195 -0.082,-0.392 -0.113,-0.589 l -0.031,-0.298 -0.014,-0.15 -0.004,-0.074 -0.002,-0.038 -0.002,-0.018 0.002,-0.147 0.002,-0.356 c 0.014,-0.209 0.043,-0.477 0.08,-0.711 0.082,-0.414 0.193,-0.794 0.344,-1.175 0.309,-0.752 0.779,-1.434 1.365,-1.984 0.59,-0.549 1.293,-0.967 2.049,-1.214 0.379,-0.118 0.764,-0.204 1.152,-0.242 0.195,-0.013 0.389,-0.025 0.582,-0.028 l 0.682,0.043 0.352,0.087 c 0.195,0.041 0.43,0.098 0.635,0.156 0.367,0.126 0.693,0.281 1.012,0.464 0.629,0.373 1.16,0.859 1.568,1.412 0.818,1.102 1.16,2.454 1.014,3.676 v 0.052 z m -2.123,-0.055 c -0.139,-0.68 -0.58,-1.216 -1.111,-1.455 -0.264,-0.119 -0.537,-0.17 -0.787,-0.162 -0.123,0.006 -0.25,0.025 -0.348,0.053 -0.029,0.024 -0.029,0.04 -0.07,0.051 l -0.359,0.05 c 0.217,0.007 0.059,0.002 0.107,0.005 l -0.004,0 -0.004,0.003 -0.008,0.005 -0.02,0.011 -0.033,0.019 -0.068,0.037 -0.123,0.077 c -0.076,0.06 -0.146,0.11 -0.207,0.168 -0.123,0.117 -0.225,0.237 -0.309,0.359 -0.084,0.123 -0.152,0.245 -0.205,0.371 -0.027,0.059 -0.053,0.135 -0.07,0.185 0,0 -0.008,-0.033 -0.023,-0.007 l -0.035,0.355 c 0.008,-0.255 0.002,-0.07 0.004,-0.126 v 0.002 0.003 0.007 0.014 l -0.004,0.027 -0.014,0.058 c -0.002,0.039 -0.002,0.075 -0.01,0.114 0.002,0.076 -0.006,0.157 0.002,0.241 0.008,0.168 0.041,0.356 0.129,0.535 0.16,0.378 0.473,0.75 1.004,0.942 0.512,0.191 1.172,0.146 1.73,-0.214 0.271,-0.183 0.521,-0.425 0.707,-0.722 0.086,-0.149 0.145,-0.32 0.16,-0.487 v -0.217 l -0.029,-0.358 -0.002,0.056 z"
           id="path105"
           inkscape:connector-curvature="0"
           style="fill:#020202" /></g><circle
         cx="100.457"
         cy="28.881001"
         r="1.875"
         id="circle107"
         sodipodi:cx="100.457"
         sodipodi:cy="28.881001"
         sodipodi:rx="1.875"
         sodipodi:ry="1.875"
         style="opacity:0.2;fill:#ffffff"
         d="m 102.332,28.881001 c 0,1.035533 -0.83947,1.875 -1.875,1.875 -1.035533,0 -1.874999,-0.839467 -1.874999,-1.875 0,-1.035534 0.839466,-1.875 1.874999,-1.875 1.03553,0 1.875,0.839466 1.875,1.875 z" /><circle
         cx="74.212997"
         cy="4.881"
         r="1.875"
         id="circle109"
         sodipodi:cx="74.212997"
         sodipodi:cy="4.881"
         sodipodi:rx="1.875"
         sodipodi:ry="1.875"
         style="opacity:0.2;fill:#ffffff"
         d="m 76.087997,4.881 c 0,1.0355339 -0.839466,1.875 -1.875,1.875 -1.035533,0 -1.875,-0.8394661 -1.875,-1.875 0,-1.0355339 0.839467,-1.875 1.875,-1.875 1.035534,0 1.875,0.8394661 1.875,1.875 z" /></g></g></svg>