<?xml version="1.0" encoding="UTF-8" standalone="no"?>
<!-- Generator: Adobe Illustrator 16.0.0, SVG Export Plug-In . SVG Version: 6.00 Build 0)  -->

<svg
   xmlns:dc="http://purl.org/dc/elements/1.1/"
   xmlns:cc="http://creativecommons.org/ns#"
   xmlns:rdf="http://www.w3.org/1999/02/22-rdf-syntax-ns#"
   xmlns:svg="http://www.w3.org/2000/svg"
   xmlns="http://www.w3.org/2000/svg"
   xmlns:sodipodi="http://sodipodi.sourceforge.net/DTD/sodipodi-0.dtd"
   xmlns:inkscape="http://www.inkscape.org/namespaces/inkscape"
   version="1.1"
   id="Layer_1"
   x="0px"
   y="0px"
   width="120.922px"
   height="650.396px"
   viewBox="0 0 200.922 650.396"
   enable-background="new 0 0 200.922 387.396"
   xml:space="preserve"
   inkscape:version="0.48.4 r9939"
   sodipodi:docname="10 Brown.svg"><metadata
     id="metadata113"><rdf:RDF><cc:Work
         rdf:about=""><dc:format>image/svg+xml</dc:format><dc:type
           rdf:resource="http://purl.org/dc/dcmitype/StillImage" /></cc:Work></rdf:RDF></metadata><defs
     id="defs111" /><sodipodi:namedview
     pagecolor="#ffffff"
     bordercolor="#666666"
     borderopacity="1"
     objecttolerance="10"
     gridtolerance="10"
     guidetolerance="10"
     inkscape:pageopacity="0"
     inkscape:pageshadow="2"
     inkscape:window-width="640"
     inkscape:window-height="480"
     id="namedview109"
     showgrid="false"
     inkscape:zoom="0.60713019"
     inkscape:cx="71.960999"
     inkscape:cy="183.22057"
     inkscape:window-x="75"
     inkscape:window-y="34"
     inkscape:window-maximized="0"
     inkscape:current-layer="Layer_1" /><g
     id="g3"
     transform="matrix(1.3612847,0,0,2.0826029,6.8885349e-4,-211.74194)"><path
       stroke-miterlimit="10"
       d="m 27.414,114.104 h 98.434 c 3.358,0 6.084,2.03 6.084,4.534 v 6.274 c 0,2.504 -2.726,4.535 -6.084,4.535 h -8.363 V 388.791 H 35.777 V 129.447 h -8.362 c -3.358,0 -6.082,-2.03 -6.082,-4.535 v -6.274 c 0,-2.504 2.723,-4.534 6.081,-4.534 z"
       id="path5"
       inkscape:connector-curvature="0"
       style="fill:#925624;stroke:#603a17;stroke-width:3;stroke-miterlimit:10" /><rect
       x="37.393002"
       y="157.172"
       width="80.021004"
       height="217.08299"
       id="rect7"
       style="fill:#925624" /><path
       d="m 134.724,125.022 -0.006,-0.048 c 0,0 0,-0.115 0,-0.077 l -0.002,-0.024 -0.013,-0.099 -0.021,-0.194 -0.044,-0.392 c -0.053,-0.522 -0.123,-1.043 -0.163,-1.564 -0.092,-1.043 -0.201,-2.084 -0.265,-3.127 l -0.052,-0.782 c -0.02,-0.298 -0.063,-0.692 -0.155,-1.028 -0.183,-0.693 -0.508,-1.366 -0.982,-1.972 -0.951,-1.21 -2.448,-2.152 -4.181,-2.648 -0.872,-0.25 -1.768,-0.381 -2.726,-0.394 l -2.147,0.005 c -1.4,0.011 -2.801,0.004 -4.201,-0.007 -2.797,-0.018 -5.594,-0.077 -8.394,-0.165 -5.598,-0.179 -11.195,-0.501 -16.793,-0.809 -5.597,-0.3 -11.194,-0.588 -16.788,-0.732 -5.6,-0.147 -11.196,-0.235 -16.794,-0.301 C 55.4,110.6 49.805,110.596 44.206,110.581 l -16.792,-0.063 c -2.668,-0.028 -5.374,0.737 -7.382,2.065 -2.021,1.327 -3.371,3.227 -3.669,5.279 l -0.047,0.455 -0.016,0.208 -0.02,0.514 -0.031,0.836 -0.049,1.67 c -0.033,1.114 -0.024,2.229 -0.019,3.344 0,0.978 0.261,2.041 0.771,2.988 0.511,0.956 1.26,1.834 2.197,2.572 1.854,1.487 4.502,2.406 7.178,2.493 1.429,0.023 1.917,-0.094 2.716,-0.152 0.747,-0.075 1.493,-0.159 2.244,-0.26 0.426,-0.058 0.854,-0.129 1.282,-0.194 -1.123,20.648 -1.662,41.297 -2.087,61.946 -0.386,21.612 -0.506,43.223 -0.432,64.836 0.079,21.612 0.356,43.225 1,64.836 0.309,10.805 0.708,21.612 1.214,32.418 0.55,10.805 1.08,21.61 1.953,32.416 v 0.002 1.162 h 1.559 81.706 1.558 l 0.003,-1.162 0.03,-16.209 0.074,-16.209 0.256,-32.418 0.401,-32.418 0.201,-16.207 0.262,-16.211 0.533,-32.418 0.594,-32.418 c 0.394,-20.533 0.836,-41.066 1.367,-61.6 1.039,-0.127 2.084,-0.247 3.141,-0.358 1.135,-0.083 2.249,-0.301 3.267,-0.647 1.015,-0.353 1.929,-0.826 2.708,-1.383 1.549,-1.125 2.548,-2.615 2.786,-4.153 0.031,-0.191 0.048,-0.379 0.061,-0.576 l 0.011,-0.333 c -0.001,-0.09 -0.008,-0.138 -0.011,-0.21 z m -5.021,-6.307 -0.052,0.782 c -0.063,1.043 -0.177,2.084 -0.265,3.127 -0.04,0.521 -0.111,1.042 -0.163,1.564 l -0.045,0.392 -0.021,0.194 -0.013,0.099 -0.003,0.024 c 0,0.056 0,-0.047 0,-0.027 l -0.008,0.049 c -0.011,0.058 -0.02,0.142 -0.029,0.182 -0.013,0.02 -0.023,0.039 -0.028,0.059 -0.026,0.059 -0.056,0.131 -0.088,0.194 -0.265,0.518 -0.775,0.928 -1.376,1.139 -0.592,0.219 -1.229,0.223 -1.752,0.077 -2.752,-0.296 -5.584,-0.635 -8.372,-1.115 h -0.003 l -5.462,0.079 0.102,3.915 c 0.569,21.611 1.03,43.224 1.445,64.834 l 0.595,32.419 0.531,32.418 0.261,16.209 0.201,16.207 0.402,32.42 0.258,32.416 0.071,16.209 0.031,15.047 H 37.423 c 0.821,-10.42 1.337,-20.838 1.867,-31.256 0.506,-10.806 0.908,-21.613 1.214,-32.416 0.646,-21.613 0.924,-43.225 1.003,-64.838 0.075,-21.611 -0.046,-43.224 -0.432,-64.835 -0.445,-21.611 -0.997,-43.224 -2.231,-64.834 l -0.14,-2.382 -2.929,0.099 H 35.77 c -1.494,-0.356 -2.992,-0.601 -4.486,-0.802 -0.75,-0.101 -1.497,-0.184 -2.244,-0.259 -0.695,-0.077 -1.707,-0.133 -1.77,-0.198 -0.305,-0.133 -0.498,-0.293 -0.64,-0.469 -0.065,-0.09 -0.11,-0.178 -0.131,-0.265 -0.024,-0.095 -0.024,-0.147 -0.021,-0.282 0.005,-1.115 0.016,-2.23 -0.02,-3.344 l -0.049,-1.67 -0.058,-1.331 c -0.021,-0.17 0.061,-0.394 0.262,-0.562 0.201,-0.178 0.472,-0.266 0.797,-0.29 l 16.792,-0.064 c 5.6,-0.013 11.194,-0.021 16.791,-0.083 5.597,-0.065 11.194,-0.153 16.794,-0.301 5.594,-0.146 11.19,-0.432 16.788,-0.733 5.597,-0.305 11.195,-0.629 16.792,-0.809 2.801,-0.087 5.598,-0.147 8.395,-0.166 1.4,-0.009 2.8,-0.018 4.2,-0.005 l 1.051,0.004 0.521,10e-4 0.265,0.002 0.211,0.008 c 0.441,0.021 0.937,0.104 1.359,0.245 0.873,0.272 1.59,0.801 1.981,1.418 0.193,0.312 0.324,0.639 0.359,0.975 0.018,0.179 0.011,0.307 -0.006,0.529 z"
       id="path9"
       inkscape:connector-curvature="0"
       style="fill:#231f20" /><g
       id="g11"
       style="opacity:0.2"><polygon
         points="46.45,125.042 54.503,125.042 50.477,280.519 "
         id="polygon13"
         style="fill:#ffffff" /></g><ellipse
       enable-background="new    "
       cx="78.084999"
       cy="172.47"
       rx="6.994"
       ry="5.211"
       id="ellipse15"
       d="m 85.078999,172.47 c 0,2.87796 -3.13132,5.211 -6.994,5.211 -3.862679,0 -6.994,-2.33304 -6.994,-5.211 0,-2.87795 3.131321,-5.211 6.994,-5.211 3.86268,0 6.994,2.33305 6.994,5.211 z"
       sodipodi:cx="78.084999"
       sodipodi:cy="172.47"
       sodipodi:rx="6.994"
       sodipodi:ry="5.211"
       style="opacity:0.34000017;fill:#ffffff" /><ellipse
       enable-background="new    "
       cx="78.082001"
       cy="225.92"
       rx="3.4159999"
       ry="2.5439999"
       id="ellipse17"
       d="m 81.498001,225.92 c 0,1.40501 -1.529396,2.544 -3.416,2.544 -1.886605,0 -3.416,-1.13899 -3.416,-2.544 0,-1.40501 1.529395,-2.544 3.416,-2.544 1.886604,0 3.416,1.13899 3.416,2.544 z"
       sodipodi:cx="78.082001"
       sodipodi:cy="225.92"
       sodipodi:rx="3.4159999"
       sodipodi:ry="2.5439999"
       style="opacity:0.34000017;fill:#ffffff" /><ellipse
       enable-background="new    "
       cx="71.089996"
       cy="185.95599"
       rx="4.8520002"
       ry="3.615"
       id="ellipse19"
       d="m 75.941997,185.95599 c 0,1.99651 -2.172315,3.615 -4.852001,3.615 -2.679685,0 -4.852,-1.61849 -4.852,-3.615 0,-1.99651 2.172315,-3.615 4.852,-3.615 2.679686,0 4.852001,1.61849 4.852001,3.615 z"
       sodipodi:cx="71.089996"
       sodipodi:cy="185.95599"
       sodipodi:rx="4.8520002"
       sodipodi:ry="3.615"
       style="opacity:0.34000017;fill:#ffffff" /><ellipse
       enable-background="new    "
       cx="82.766998"
       cy="177.68201"
       rx="4.8530002"
       ry="3.6159999"
       id="ellipse21"
       d="m 87.619998,177.68201 c 0,1.99706 -2.172762,3.616 -4.853,3.616 -2.680238,0 -4.853,-1.61894 -4.853,-3.616 0,-1.99706 2.172762,-3.616 4.853,-3.616 2.680238,0 4.853,1.61894 4.853,3.616 z"
       sodipodi:cx="82.766998"
       sodipodi:cy="177.68201"
       sodipodi:rx="4.8530002"
       sodipodi:ry="3.6159999"
       style="opacity:0.34000017;fill:#ffffff" /><ellipse
       enable-background="new    "
       cx="92.910004"
       cy="240.468"
       rx="4.8530002"
       ry="3.615"
       id="ellipse23"
       d="m 97.763004,240.468 c 0,1.99651 -2.172762,3.615 -4.853,3.615 -2.680238,0 -4.853001,-1.61849 -4.853001,-3.615 0,-1.99651 2.172763,-3.615 4.853001,-3.615 2.680238,0 4.853,1.61849 4.853,3.615 z"
       sodipodi:cx="92.910004"
       sodipodi:cy="240.468"
       sodipodi:rx="4.8530002"
       sodipodi:ry="3.615"
       style="opacity:0.34000017;fill:#ffffff" /></g><g
     id="g25"
     transform="matrix(1.3612847,0,0,2.0826029,6.8885349e-4,-211.74194)"><path
       d="m 131.59,80.457 c -0.285,-1.004 -1.078,-1.725 -1.998,-2.031 -0.346,-0.474 -0.863,-0.857 -1.588,-1.061 -0.881,-1.074 -2.137,-1.261 -3.211,-0.874 -0.252,-0.066 -0.508,-0.13 -0.762,-0.191 0.752,-6.528 0.57,-13.188 -2.742,-19.059 -1.291,-2.284 -4.371,-1.7 -5.355,0.419 -3.979,-3.895 -9.317,0.709 -11.856,3.974 -0.468,0.602 -0.693,1.242 -0.744,1.862 -1.5,-1.325 -3.192,-2.027 -5.506,-2.528 -4.789,-1.038 -10.086,-0.547 -14.041,2.173 -0.804,-3.311 -2.688,-6.243 -5.468,-8.507 -0.403,-0.33 -0.883,-0.536 -1.381,-0.637 -0.219,-0.417 -0.42,-0.839 -0.647,-1.255 -0.615,-1.115 -1.524,-1.551 -2.429,-1.522 -4.155,-6.334 -9.593,-11.37 -17.46,-8.855 -0.098,0.031 -0.186,0.071 -0.277,0.109 -9.27,-1.858 -21.572,1.002 -25.051,9.356 -4.121,3.605 -6.738,8.705 -4.768,14.225 0.201,0.564 0.535,1.027 0.943,1.382 0.045,0.167 0.1,0.333 0.152,0.5 -0.705,3.627 -0.619,8.375 0.604,12.023 -0.107,0.176 -0.215,0.352 -0.324,0.526 -2.027,-0.196 -4.295,0.647 -5.996,1.681 -0.723,0.44 -1.146,1.087 -1.326,1.785 -3.604,3.15 -3.689,8.914 0.219,12.927 0.031,0.032 0.066,0.057 0.098,0.088 -1.008,1.124 -2.031,2.234 -3.078,3.322 -1.902,1.979 -3.77,3.955 -5.494,6.021 -0.857,-0.162 -1.779,0.05 -2.525,0.827 -1.779,1.854 -2.768,4.089 -3.25,6.479 -0.42,1.236 -0.76,2.511 -1.021,3.844 -0.148,0.762 -0.057,1.421 0.188,1.969 -0.072,0.164 -0.137,0.34 -0.188,0.531 -0.906,3.378 0.277,6.046 2.334,8.235 -0.654,0.848 -0.838,1.982 -0.031,3.077 0.914,1.243 4.139,3.389 5.953,5.302 -0.361,0.339 -0.633,0.798 -0.756,1.386 -0.648,3.109 -0.533,5.665 0.314,7.906 -1.268,4.126 -0.336,9.128 4.318,10.408 1.291,0.355 2.572,0.06 3.809,-0.311 0.32,-0.096 0.619,-0.155 0.9,-0.186 1.611,1.968 2.803,4.174 3.877,6.462 -0.381,2.598 0.67,5.798 2.586,8.151 -1.174,7.754 11.592,9.213 12.088,16.367 0.08,1.136 0.816,2.141 1.768,2.666 1.621,3.562 3.896,6.744 7.273,8.498 0.49,0.781 1.336,1.336 2.459,1.336 h 2 c 1.627,0 2.67,-1.293 2.902,-2.674 0.955,-0.232 1.77,-0.883 1.99,-2.027 0.439,-2.272 0.596,-4.482 0.607,-6.798 0.004,-0.492 -0.117,-0.922 -0.309,-1.299 -0.176,-8.426 -1.186,-17.539 1.674,-25.135 0.342,-0.389 0.525,-0.87 0.572,-1.385 0.527,-1.163 1.156,-2.285 1.906,-3.358 0.131,-0.176 0.254,-0.355 0.389,-0.528 0.061,-0.081 0.123,-0.162 0.186,-0.243 0.383,-0.486 0.779,-0.965 1.203,-1.43 0.066,-0.072 0.109,-0.147 0.166,-0.221 1.768,-1.489 5.141,-2.225 7.227,-3.257 2.151,-1.065 4.031,-2.857 5.851,-4.401 6.932,-5.884 11.975,-12.554 14.369,-21.375 0.702,-2.586 1.176,-5.243 2.575,-7.563 1.947,-3.225 6.945,-4.218 10.289,-4.97 7,-1.577 13.927,-2.064 19.011,-7.02 0.141,-0.063 0.278,-0.132 0.405,-0.223 1.162,-0.831 1.644,-1.554 1.865,-2.73 1.215,-0.381 2.121,-1.552 2.121,-2.86 0,-0.334 -0.068,-0.649 -0.171,-0.948 0.688,-1.308 1.214,-2.762 1.572,-4.302 1.931,-4.187 2.455,-8.912 0.99,-14.053 z"
       id="path27"
       inkscape:connector-curvature="0"
       style="fill:#b58765" /><g
       id="g29"><path
         d="m 114.197,87.755 c -0.188,-0.053 -0.197,-0.888 0.215,-2.388 0.422,-1.492 1.252,-3.656 2.951,-6.138 0.857,-1.232 1.93,-2.554 3.438,-3.769 0.761,-0.6 1.634,-1.177 2.699,-1.6 1.054,-0.421 2.349,-0.676 3.707,-0.461 1.358,0.199 2.66,0.885 3.66,1.775 1.014,0.892 1.791,1.954 2.45,3.065 0.63,1.061 1.25,2.401 1.58,3.742 0.353,1.339 0.535,2.704 0.619,4.086 0.162,2.763 -0.067,5.601 -0.598,8.496 -0.541,2.892 -1.369,5.85 -2.676,8.818 -0.662,1.481 -1.434,2.969 -2.461,4.424 -0.512,0.727 -1.096,1.444 -1.781,2.133 -0.348,0.344 -0.721,0.679 -1.131,1 l -0.404,0.293 -0.465,0.312 c -0.146,0.123 -0.326,0.176 -0.508,0.221 l -0.539,0.154 -9.502,2.699 -4.93,1.388 -2.508,0.703 -0.695,0.195 c -0.412,0.085 -0.816,0.308 -1.248,0.206 l -0.916,-0.067 -0.59,-0.026 c -1.576,-0.056 -2.908,0.104 -3.703,0.58 -0.422,0.237 -0.844,0.593 -1.303,1.112 -0.229,0.258 -0.461,0.551 -0.693,0.867 -0.113,0.156 -0.227,0.299 -0.295,0.421 -0.072,0.114 -0.148,0.239 -0.23,0.396 -0.65,1.178 -1.098,2.73 -1.439,4.414 -0.346,1.692 -0.59,3.524 -0.924,5.471 -0.36,1.938 -0.717,4.062 -1.842,6.311 -1.025,2.037 -2.408,3.872 -4,5.437 -3.205,3.141 -6.957,5.107 -10.424,6.794 l -2.563,1.224 -1.229,0.598 c -0.227,0.112 -0.355,0.177 -0.492,0.254 -0.143,0.08 -0.287,0.165 -0.432,0.261 -1.172,0.762 -2.346,1.92 -3.389,3.172 -2.1,2.54 -3.797,5.505 -5.09,8.515 -1.287,3.017 -2.176,6.133 -2.494,9.135 -0.168,1.232 -0.016,2.957 0.053,4.548 l 0.264,4.89 c 0.129,3.267 0.146,6.522 -0.352,9.771 -0.258,1.622 -0.646,3.251 -1.322,4.837 -0.666,1.576 -1.676,3.132 -3.076,4.319 -0.344,0.293 -0.736,0.572 -1.066,0.781 -0.295,0.194 -0.619,0.408 -0.977,0.61 -0.693,0.401 -1.436,0.755 -2.23,1.027 -1.572,0.555 -3.451,0.714 -5.137,0.224 -1.693,-0.474 -3.039,-1.466 -4.047,-2.502 -1.016,-1.049 -1.76,-2.173 -2.373,-3.279 -1.215,-2.223 -1.938,-4.4 -2.49,-6.439 -1.07,-4.089 -1.41,-7.664 -1.5,-10.583 -0.08,-2.921 0.146,-5.196 0.477,-6.715 0.328,-1.526 0.758,-2.265 0.951,-2.209 0.205,0.056 0.184,0.842 0.252,2.313 0.066,1.471 0.221,3.642 0.645,6.405 0.434,2.753 1.102,6.129 2.383,9.804 0.646,1.824 1.455,3.736 2.568,5.482 1.088,1.729 2.611,3.302 4.201,3.618 0.787,0.17 1.629,0.08 2.555,-0.293 0.461,-0.185 0.934,-0.434 1.404,-0.736 0.229,-0.145 0.473,-0.32 0.744,-0.518 0.244,-0.17 0.408,-0.306 0.588,-0.472 1.41,-1.284 2.217,-3.676 2.523,-6.365 0.32,-2.701 0.23,-5.68 0.012,-8.788 l -0.391,-4.81 c -0.068,-0.829 -0.133,-1.672 -0.182,-2.547 -0.023,-0.448 -0.041,-0.862 -0.051,-1.366 -0.01,-0.562 0.039,-1.063 0.07,-1.511 0.311,-3.719 1.289,-7.34 2.709,-10.838 1.441,-3.492 3.297,-6.887 5.838,-10.041 1.293,-1.568 2.732,-3.094 4.676,-4.4 0.244,-0.162 0.5,-0.319 0.766,-0.47 0.268,-0.154 0.557,-0.301 0.75,-0.397 l 1.299,-0.644 2.539,-1.233 c 3.318,-1.622 6.455,-3.358 8.826,-5.7 1.182,-1.162 2.15,-2.462 2.859,-3.856 0.633,-1.19 0.994,-2.877 1.316,-4.651 0.317,-1.786 0.582,-3.685 0.995,-5.647 0.427,-1.958 0.974,-4.022 2.109,-6.062 0.135,-0.247 0.297,-0.513 0.475,-0.784 0.171,-0.268 0.343,-0.484 0.498,-0.694 0.316,-0.416 0.654,-0.835 1.033,-1.253 0.75,-0.832 1.713,-1.687 2.875,-2.311 1.16,-0.633 2.424,-0.96 3.551,-1.104 1.138,-0.148 2.175,-0.141 3.162,-0.098 l 0.729,0.045 0.359,0.028 c 0.051,0.004 0.023,0.004 0.039,0.005 0.012,0.004 0.023,0.001 0.033,0.001 l 0.572,-0.148 2.521,-0.657 4.955,-1.284 9.524,-2.443 c 0.023,-0.006 0.052,-0.002 0.072,-0.016 l 0.029,-0.014 c -0.002,0.002 0.006,-0.002 0.08,-0.053 0.221,-0.161 0.441,-0.346 0.662,-0.549 0.438,-0.413 0.863,-0.894 1.26,-1.421 0.801,-1.053 1.492,-2.258 2.096,-3.493 1.203,-2.482 2.063,-5.108 2.654,-7.661 0.588,-2.558 0.906,-5.075 0.895,-7.411 -0.008,-1.166 -0.102,-2.287 -0.307,-3.311 -0.197,-1.033 -0.527,-1.878 -1,-2.833 -0.896,-1.811 -2.1,-3.101 -3.373,-3.377 -1.281,-0.343 -2.844,0.239 -4.119,1.076 -1.293,0.842 -2.379,1.89 -3.28,2.895 -1.808,2.031 -2.929,3.9 -3.675,5.164 -0.735,1.274 -1.114,1.982 -1.323,1.921 z"
         id="path31"
         inkscape:connector-curvature="0"
         style="fill:#231f20" /></g><g
       id="g33"><path
         d="m 39.697,180.755 c -0.066,0.4 -0.721,0.712 -1.898,0.776 -1.172,0.06 -2.881,-0.146 -4.859,-0.907 -1.971,-0.755 -4.201,-2.078 -6.227,-4.085 -2.021,-1.996 -3.834,-4.678 -4.891,-7.866 -1.062,-3.181 -1.207,-6.536 -0.555,-9.414 0.631,-2.893 2.008,-5.237 3.432,-6.839 1.432,-1.616 2.883,-2.547 3.953,-3.016 1.084,-0.462 1.805,-0.476 2.045,-0.15 0.533,0.697 -1.064,2.537 -2.488,5.55 -0.699,1.507 -1.305,3.319 -1.488,5.369 -0.197,2.042 0.037,4.322 0.797,6.614 0.76,2.292 1.953,4.344 3.287,6.035 1.334,1.698 2.807,3.034 4.154,4.071 2.699,2.063 4.883,3.006 4.738,3.862 z"
         id="path35"
         inkscape:connector-curvature="0"
         style="fill:#231f20" /></g><g
       id="g37"><path
         d="m 13.174,140.05 c 0.709,0.422 0.967,1.544 1.4,3.298 0.42,1.737 0.936,4.172 1.828,6.417 0.445,1.115 0.941,2.021 1.434,2.682 0.49,0.666 0.988,1.133 1.59,1.527 1.211,0.778 2.641,1.112 2.826,1.936 0.1,0.396 -0.105,0.87 -0.68,1.325 -0.572,0.439 -1.545,0.881 -2.928,0.908 -1.365,0.041 -3.141,-0.488 -4.582,-1.655 -1.457,-1.148 -2.541,-2.771 -3.229,-4.492 -1.354,-3.473 -1.176,-6.713 -0.49,-8.953 0.352,-1.121 0.861,-2.001 1.398,-2.523 0.538,-0.53 1.071,-0.662 1.433,-0.47 z"
         id="path39"
         inkscape:connector-curvature="0"
         style="fill:#231f20" /></g><g
       id="g41"><path
         d="m 31.697,102.755 c -0.32,0.293 -1.271,-0.311 -2.881,-1.095 -1.602,-0.775 -3.951,-1.61 -6.748,-1.108 -2.787,0.455 -5.99,2.279 -8.828,5.2 -2.822,2.898 -5.391,6.863 -6.641,11.253 -0.619,2.166 -0.812,4.384 -0.518,6.182 0.365,1.93 1.186,3.892 2.201,5.571 2.059,3.411 4.902,5.925 7.541,7.501 2.658,1.6 5.137,2.276 6.908,2.622 1.777,0.345 2.881,0.45 2.965,0.875 0.084,0.381 -0.889,1.078 -2.959,1.461 -2.045,0.375 -5.23,0.283 -8.768,-1.142 -3.514,-1.406 -7.363,-4.088 -10.312,-8.287 -1.463,-2.111 -2.686,-4.547 -3.344,-7.458 -0.604,-3.073 -0.287,-6.08 0.508,-8.944 1.65,-5.708 4.9,-10.285 8.611,-13.643 3.707,-3.341 8.205,-5.413 12.316,-5.42 2.033,-0.025 3.869,0.458 5.287,1.151 1.43,0.691 2.461,1.553 3.184,2.323 1.437,1.566 1.769,2.703 1.478,2.958 z"
         id="path43"
         inkscape:connector-curvature="0"
         style="fill:#231f20" /></g><g
       id="g45"><path
         d="m 28.197,81.255 c -0.219,0.361 -0.75,0.477 -1.482,0.517 -0.725,0.039 -1.668,0.002 -2.59,0.167 -0.934,0.16 -1.736,0.521 -2.467,1.186 -0.738,0.662 -1.471,1.727 -2.016,3.08 -0.545,1.352 -0.842,2.801 -0.934,4.085 -0.094,1.293 0.02,2.411 0.234,3.3 0.207,0.899 0.545,1.599 0.852,2.193 0.301,0.591 0.543,1.075 0.402,1.472 -0.131,0.379 -0.658,0.657 -1.588,0.54 -0.91,-0.108 -2.24,-0.734 -3.316,-2.042 -2.209,-2.614 -3.002,-7.327 -1.215,-11.796 0.896,-2.227 2.453,-4.256 4.531,-5.445 1.029,-0.591 2.156,-0.944 3.209,-1.043 1.057,-0.112 2.02,0.027 2.816,0.258 1.604,0.482 2.574,1.295 3.115,1.951 0.543,0.67 0.66,1.233 0.449,1.577 z"
         id="path47"
         inkscape:connector-curvature="0"
         style="fill:#231f20" /></g><g
       id="g49"><path
         d="M 85.197,70.255 C 84.771,70.317 84.228,68.8 83.199,66.21 82.156,63.637 80.566,59.956 77.699,56.095 74.859,52.258 70.638,48.252 65.006,45.722 59.424,43.163 52.442,42.305 45.594,44.158 c -1.709,0.45 -3.363,1.047 -4.949,1.755 -0.793,0.354 -1.57,0.738 -2.328,1.144 -0.742,0.399 -1.537,0.856 -2.156,1.261 -2.641,1.768 -4.779,4.088 -6.201,6.644 -1.441,2.562 -2.229,5.363 -2.596,8.081 -0.363,2.724 -0.326,5.364 -0.113,7.773 0.439,4.837 1.502,8.751 2.207,11.467 0.725,2.718 1.121,4.281 0.74,4.472 -0.357,0.181 -1.467,-1.035 -2.904,-3.593 -1.41,-2.56 -3.186,-6.474 -4.242,-11.738 -0.516,-2.628 -0.834,-5.603 -0.639,-8.852 0.197,-3.235 0.943,-6.783 2.658,-10.192 1.705,-3.416 4.385,-6.55 7.797,-8.93 0.902,-0.616 1.709,-1.092 2.598,-1.593 0.877,-0.49 1.781,-0.953 2.713,-1.38 1.861,-0.856 3.83,-1.579 5.883,-2.12 4.1,-1.092 8.33,-1.384 12.324,-0.922 3.998,0.454 7.744,1.645 11.014,3.303 6.581,3.326 11.122,8.379 13.842,13.019 2.75,4.681 3.826,8.95 4.219,11.865 0.375,2.941 0.129,4.581 -0.264,4.633 z"
         id="path51"
         inkscape:connector-curvature="0"
         style="fill:#231f20" /></g><g
       id="g53"><path
         d="m 104.197,71.255 c -0.854,0.004 -1.486,-1.588 -2.602,-3.492 -1.099,-1.909 -2.882,-4.019 -5.425,-4.833 -2.522,-0.866 -5.213,-0.227 -7.264,0.641 -2.056,0.858 -3.546,1.715 -4.212,1.184 -0.62,-0.472 -0.35,-2.355 1.699,-4.602 1.027,-1.091 2.556,-2.233 4.603,-2.914 2.024,-0.687 4.599,-0.832 7.06,-0.005 2.469,0.805 4.442,2.452 5.661,4.214 1.24,1.77 1.785,3.61 1.945,5.112 0.281,3.053 -0.687,4.715 -1.465,4.695 z"
         id="path55"
         inkscape:connector-curvature="0"
         style="fill:#231f20" /></g><g
       id="g57"><path
         d="m 122.697,74.255 c -0.842,-0.118 -1.143,-2.48 -1.42,-5.958 -0.158,-1.724 -0.33,-3.762 -0.834,-5.69 -0.25,-0.955 -0.601,-1.863 -1.049,-2.549 -0.457,-0.694 -0.947,-1.131 -1.623,-1.444 -0.34,-0.159 -0.738,-0.276 -1.172,-0.358 -0.23,-0.04 -0.341,-0.052 -0.519,-0.06 -0.179,-0.008 -0.371,-10e-4 -0.574,0.019 -0.817,0.071 -1.762,0.367 -2.644,0.753 -1.784,0.783 -3.35,1.904 -4.551,2.925 -1.203,1.034 -2.057,1.995 -2.668,2.705 -0.617,0.703 -1.022,1.194 -1.449,1.159 -0.395,-0.026 -0.791,-0.68 -0.764,-1.901 0.019,-1.211 0.508,-2.907 1.613,-4.667 1.111,-1.749 2.775,-3.606 5.213,-5.097 1.227,-0.731 2.648,-1.396 4.416,-1.695 0.439,-0.074 0.902,-0.122 1.387,-0.129 0.482,-0.014 1.041,0.029 1.476,0.093 0.891,0.137 1.821,0.378 2.735,0.801 1.855,0.821 3.367,2.376 4.199,3.938 0.861,1.573 1.223,3.115 1.408,4.505 0.338,2.794 0.014,5.103 -0.371,6.982 -0.832,3.74 -2.016,5.782 -2.809,5.668 z"
         id="path59"
         inkscape:connector-curvature="0"
         style="fill:#231f20" /></g><g
       id="g61"
       style="opacity:0.2"><path
         d="m 36.697,75.255 c 0,0 -0.023,-0.491 -0.186,-1.396 -0.152,-0.904 -0.43,-2.227 -0.652,-3.898 -0.219,-1.668 -0.398,-3.688 -0.24,-5.937 0.156,-2.244 0.637,-4.73 1.771,-7.221 1.127,-2.471 2.873,-4.744 5.141,-6.157 1.119,-0.705 2.348,-1.167 3.512,-1.35 1.168,-0.184 2.248,-0.112 3.156,0.088 1.824,0.408 2.994,1.176 3.789,1.64 0.781,0.494 1.203,0.739 1.209,0.73 0,0 -0.457,-0.208 -1.354,-0.327 -0.881,-0.119 -2.232,-0.142 -3.615,0.289 -0.689,0.217 -1.363,0.547 -1.969,0.992 -0.607,0.444 -1.148,0.996 -1.648,1.643 -1,1.296 -1.873,2.996 -2.764,4.949 -0.887,1.952 -1.719,3.946 -2.52,5.813 -0.791,1.869 -1.549,3.615 -2.141,5.119 -0.594,1.504 -1.027,2.763 -1.246,3.644 -0.229,0.882 -0.245,1.381 -0.243,1.379 z"
         id="path63"
         inkscape:connector-curvature="0"
         style="fill:#ffffff" /></g><g
       id="g65"
       style="opacity:0.2"><path
         d="m 18.197,127.755 c 0,0 -0.07,-0.058 -0.227,-0.145 l -0.697,-0.391 c -0.299,-0.184 -0.701,-0.397 -1.117,-0.723 -0.418,-0.322 -0.916,-0.711 -1.385,-1.227 -0.945,-1.018 -1.893,-2.49 -2.422,-4.289 -0.537,-1.792 -0.666,-3.887 -0.197,-5.975 0.461,-2.088 1.473,-3.948 2.744,-5.346 1.271,-1.406 2.793,-2.32 4.109,-2.79 0.656,-0.245 1.281,-0.36 1.799,-0.45 0.521,-0.094 0.975,-0.098 1.326,-0.119 0.354,-0.018 0.621,-0.012 0.799,-0.021 0.178,-0.007 0.268,-0.024 0.268,-0.024 0,0 -0.375,0.069 -0.938,0.453 -0.283,0.177 -0.598,0.457 -0.922,0.788 -0.328,0.328 -0.633,0.768 -0.928,1.236 -0.592,0.953 -1.031,2.154 -1.398,3.435 -0.367,1.29 -0.676,2.679 -1.002,4.137 -0.318,1.459 -0.625,2.862 -0.85,4.201 -0.227,1.336 -0.361,2.622 -0.275,3.75 0.047,0.558 0.115,1.089 0.25,1.534 0.133,0.445 0.279,0.836 0.445,1.128 0.317,0.604 0.622,0.84 0.618,0.838 z"
         id="path67"
         inkscape:connector-curvature="0"
         style="fill:#ffffff" /></g><g
       id="g69"
       style="opacity:0.2"><path
         d="m 36.697,161.255 c 0.008,-0.002 -0.043,-0.104 -0.279,-0.259 -0.107,-0.081 -0.25,-0.178 -0.441,-0.292 -0.18,-0.116 -0.457,-0.241 -0.666,-0.409 -0.217,-0.165 -0.516,-0.351 -0.725,-0.581 -0.213,-0.229 -0.496,-0.486 -0.666,-0.782 -0.391,-0.586 -0.586,-1.316 -0.492,-2.021 0.09,-0.709 0.453,-1.301 0.941,-1.738 l 2.133,-1.911 0.195,0.093 c 0.244,0.117 0.494,0.314 0.783,0.502 0.275,0.206 0.656,0.398 1.023,0.871 0.18,0.227 0.311,0.505 0.35,0.726 0.045,0.224 0.021,0.388 -0.01,0.511 -0.098,0.25 -0.227,0.381 -0.316,0.509 -0.383,0.486 -0.348,0.799 -0.33,0.781 0.025,-0.02 -0.201,-0.147 -0.789,-0.498 -0.145,-0.08 -0.322,-0.182 -0.496,-0.179 -0.018,0.002 -0.035,0.002 -0.051,0.007 -0.027,0.011 0.01,-0.002 0.057,-0.019 l 0.119,-0.05 c 0.113,-0.044 0.201,-0.091 0.252,-0.123 0.104,-0.062 0.096,-0.083 0.053,-0.021 -0.045,0.061 -0.125,0.208 -0.205,0.468 -0.035,0.123 -0.08,0.281 -0.115,0.462 l -0.076,0.408 c -0.037,0.144 -0.133,0.327 -0.248,0.444 l 2.328,-1.818 c 0.256,0.494 0.4,0.938 0.354,1.33 -0.047,0.392 -0.287,0.718 -0.641,1.088 -0.148,0.182 -0.398,0.379 -0.566,0.573 -0.162,0.194 -0.406,0.4 -0.564,0.593 -0.15,0.189 -0.367,0.386 -0.49,0.552 -0.131,0.167 -0.227,0.312 -0.285,0.428 -0.145,0.24 -0.143,0.357 -0.137,0.355 z"
         id="path71"
         inkscape:connector-curvature="0"
         style="fill:#ffffff" /></g><g
       id="g73"
       style="opacity:0.2"><path
         d="m 91.697,72.255 c -0.004,-0.007 -0.01,0.038 0.113,0.193 0.053,0.069 0.131,0.162 0.268,0.257 0.113,0.076 0.045,0.029 0.018,0.017 l -0.078,-0.04 c -0.063,-0.023 -0.09,-0.034 -0.131,-0.035 -0.016,-0.003 -0.021,0.003 0.006,-0.008 0.06,-0.016 0.224,-0.138 0.359,-0.369 0.139,-0.227 0.23,-0.505 0.301,-0.757 0.021,-0.075 0.08,-0.412 0.025,-0.064 -0.025,0.18 -0.045,0.453 -0.039,0.638 0.004,0.18 0.01,0.435 0.029,0.584 0.018,0.164 0.039,0.285 0.061,0.371 0.039,0.195 0.07,0.22 0.07,0.22 -0.002,-0.014 -0.025,0.011 -0.082,0.201 L 92.5,73.829 c -0.049,0.148 -0.121,0.392 -0.203,0.563 -0.082,0.178 -0.193,0.439 -0.32,0.601 -0.123,0.17 -0.283,0.402 -0.461,0.521 -0.172,0.148 -0.385,0.235 -0.6,0.263 -0.229,0.021 -0.453,-0.015 -0.709,-0.17 -0.234,-0.141 -0.486,-0.397 -0.658,-0.734 -0.184,-0.34 -0.305,-0.789 -0.275,-1.234 -0.006,-0.458 0.226,-0.872 0.431,-1.148 0.209,-0.268 0.535,-0.408 0.76,-0.451 0.226,-0.073 0.486,-0.011 0.646,0.02 0.173,0.035 0.291,0.085 0.377,0.117 0.184,0.08 0.213,0.085 0.209,0.078 z"
         id="path75"
         inkscape:connector-curvature="0"
         style="fill:#ffffff" /></g><g
       id="g77"
       style="opacity:0.2"><path
         d="m 99.697,73.755 c 0.002,-0.007 -0.025,0.02 -0.035,0.215 -0.002,0.043 -0.002,0.094 0,0.155 -0.002,0.035 0.029,0.199 0.018,0.132 -0.006,-0.043 -0.027,-0.098 -0.035,-0.128 -0.033,-0.084 -0.082,-0.107 -0.041,-0.084 0.035,0.021 0.181,0.042 0.363,-0.005 0.184,-0.043 0.367,-0.136 0.529,-0.228 l 0.219,-0.143 0.049,-0.035 c 0.004,-0.003 0.021,-0.018 0.014,-0.012 l -0.067,0.052 -0.242,0.205 c -0.133,0.119 -0.315,0.294 -0.416,0.407 -0.108,0.122 -0.186,0.216 -0.235,0.286 -0.119,0.155 -0.121,0.188 -0.117,0.184 0.004,-0.005 -0.023,0 -0.189,0.106 l -0.322,0.194 c -0.133,0.077 -0.35,0.208 -0.521,0.28 -0.174,0.078 -0.431,0.195 -0.625,0.231 -0.196,0.046 -0.467,0.109 -0.67,0.083 -0.218,-0.002 -0.42,-0.075 -0.584,-0.192 -0.17,-0.128 -0.297,-0.296 -0.363,-0.568 -0.062,-0.247 -0.055,-0.586 0.062,-0.927 0.111,-0.354 0.338,-0.737 0.668,-1.018 0.312,-0.312 0.758,-0.43 1.088,-0.469 0.324,-0.034 0.643,0.106 0.82,0.239 0.196,0.112 0.328,0.343 0.41,0.479 0.088,0.149 0.127,0.27 0.157,0.354 0.054,0.19 0.063,0.214 0.065,0.207 z"
         id="path79"
         inkscape:connector-curvature="0"
         style="fill:#ffffff" /></g><g
       id="g81"><circle
         cx="95.625999"
         cy="30.479"
         r="11.224"
         id="circle83"
         d="m 106.85,30.479 c 0,6.198844 -5.02516,11.224 -11.224001,11.224 -6.198844,0 -11.224,-5.025156 -11.224,-11.224 0,-6.198844 5.025156,-11.224 11.224,-11.224 6.198841,0 11.224001,5.025156 11.224001,11.224 z"
         sodipodi:cx="95.625999"
         sodipodi:cy="30.479"
         sodipodi:rx="11.224"
         sodipodi:ry="11.224"
         style="fill:#b58765" /><path
         d="m 108.6,30.523 c -0.078,1.598 -0.494,3.345 -1.207,4.83 -0.721,1.508 -1.746,2.845 -2.963,3.929 -2.432,2.179 -5.604,3.39 -8.803,3.421 -3.201,0.073 -6.436,-1.169 -8.83,-3.393 -2.422,-2.214 -3.998,-5.382 -4.143,-8.875 -0.184,-3.302 1.051,-6.908 3.455,-9.472 1.205,-1.281 2.666,-2.351 4.303,-3.071 0.818,-0.357 1.674,-0.635 2.549,-0.824 0.438,-0.094 0.881,-0.167 1.326,-0.222 l 0.668,-0.062 0.734,-0.028 0.551,0.011 0.725,0.049 c 0.457,0.046 0.895,0.108 1.338,0.193 0.883,0.176 1.742,0.46 2.566,0.813 1.646,0.723 3.117,1.801 4.303,3.11 2.363,2.632 3.598,6.152 3.428,9.545 v 0.046 z m -3.5,-0.044 c -0.143,-2.494 -1.33,-4.814 -3.146,-6.327 -0.892,-0.769 -1.908,-1.357 -2.979,-1.758 -0.533,-0.209 -1.086,-0.354 -1.645,-0.462 -0.277,-0.056 -0.566,-0.099 -0.84,-0.129 l -0.377,-0.032 -0.551,-0.015 c -2.166,-0.064 -4.56,0.79 -6.291,2.368 -1.775,1.581 -2.965,3.815 -3.119,6.4 -0.172,2.394 0.674,5.068 2.432,6.998 0.885,0.96 1.959,1.769 3.168,2.311 1.213,0.54 2.529,0.835 3.875,0.871 2.689,0.06 5.357,-1.152 7.07,-3.153 0.859,-0.994 1.502,-2.146 1.904,-3.354 0.414,-1.229 0.575,-2.42 0.5,-3.761 l -0.001,0.043 z"
         id="path85"
         inkscape:connector-curvature="0"
         style="fill:#020202" /></g><g
       id="g87"><circle
         cx="74.212997"
         cy="6.7550001"
         r="5.5"
         id="circle89"
         d="m 79.712997,6.7550001 c 0,3.0375661 -2.462433,5.4999999 -5.5,5.4999999 -3.037566,0 -5.5,-2.4624338 -5.5,-5.4999999 0,-3.0375661 2.462434,-5.5 5.5,-5.5 3.037567,0 5.5,2.4624339 5.5,5.5 z"
         sodipodi:cx="74.212997"
         sodipodi:cy="6.7550001"
         sodipodi:rx="5.5"
         sodipodi:ry="5.5"
         style="fill:#b58765" /><path
         d="m 81.977,6.813 0.017,0.27 -0.009,0.431 c -0.012,0.266 -0.03,0.514 -0.067,0.771 -0.076,0.51 -0.199,1.018 -0.39,1.501 -0.381,0.97 -1.016,1.825 -1.776,2.505 -1.508,1.391 -3.594,2.078 -5.537,1.909 -1.951,-0.151 -3.754,-1.123 -4.922,-2.521 -1.188,-1.397 -1.76,-3.197 -1.686,-4.923 0.143,-3.5 3.002,-6.506 6.641,-6.755 1.694,-0.163 3.657,0.373 5.125,1.598 1.494,1.202 2.491,3.125 2.604,5.158 V 6.813 z M 77.449,6.755 C 77.578,5.902 77.386,4.964 76.834,4.135 76.27,3.311 75.369,2.66 74.182,2.51 73.133,2.361 71.867,2.743 71.036,3.576 70.19,4.4 69.72,5.597 69.823,6.755 c 0.059,1.159 0.674,2.222 1.537,2.855 0.861,0.65 1.919,0.866 2.854,0.701 0.94,-0.155 1.72,-0.656 2.242,-1.314 0.256,-0.336 0.438,-0.7 0.606,-1.062 0.086,-0.182 0.172,-0.366 0.238,-0.563 l 0.088,-0.296 0.033,-0.108 0.029,-0.27 -0.001,0.057 z"
         id="path91"
         inkscape:connector-curvature="0"
         style="fill:#020202" /></g><g
       id="g93"><circle
         cx="57.946999"
         cy="27.004999"
         r="3.75"
         id="circle95"
         d="m 61.696999,27.004999 c 0,2.071068 -1.678933,3.75 -3.75,3.75 -2.071068,0 -3.75,-1.678932 -3.75,-3.75 0,-2.071068 1.678932,-3.75 3.75,-3.75 2.071067,0 3.75,1.678932 3.75,3.75 z"
         sodipodi:cx="57.946999"
         sodipodi:cy="27.004999"
         sodipodi:rx="3.75"
         sodipodi:ry="3.75"
         style="fill:#b58765" /><path
         d="m 63.621,27.103 0.008,0.369 c -0.01,0.192 -0.035,0.43 -0.062,0.643 -0.07,0.381 -0.184,0.733 -0.34,1.078 -0.32,0.679 -0.777,1.281 -1.32,1.771 -1.094,0.979 -2.578,1.453 -3.959,1.329 -1.373,-0.108 -2.674,-0.79 -3.51,-1.776 -0.857,-0.978 -1.309,-2.264 -1.268,-3.511 0.029,-2.53 2.125,-4.799 4.777,-4.997 1.293,-0.115 2.723,0.292 3.795,1.203 1.084,0.896 1.803,2.309 1.881,3.794 l -0.002,0.097 z m -3.85,-0.098 c 0.086,-0.481 -0.004,-1.021 -0.314,-1.509 -0.312,-0.485 -0.834,-0.885 -1.51,-0.994 -0.662,-0.117 -1.391,0.095 -1.928,0.575 -0.531,0.494 -0.822,1.202 -0.795,1.928 0.035,0.72 0.393,1.385 0.93,1.793 0.549,0.409 1.199,0.535 1.793,0.42 0.588,-0.117 1.053,-0.449 1.346,-0.867 0.15,-0.205 0.25,-0.436 0.305,-0.663 0.027,-0.112 0.055,-0.231 0.088,-0.329 0.008,-0.03 0.023,-0.035 0.045,-0.085 l 0.043,-0.367 -0.003,0.098 z"
         id="path97"
         inkscape:connector-curvature="0"
         style="fill:#020202" /></g><g
       id="g99"><circle
         cx="139.19901"
         cy="65.626999"
         r="3.6289999"
         id="circle101"
         d="m 142.82801,65.626999 c 0,2.004241 -1.62476,3.629 -3.629,3.629 -2.00425,0 -3.629,-1.624759 -3.629,-3.629 0,-2.004241 1.62475,-3.629 3.629,-3.629 2.00424,0 3.629,1.624759 3.629,3.629 z"
         sodipodi:cx="139.19901"
         sodipodi:cy="65.626999"
         sodipodi:rx="3.6289999"
         sodipodi:ry="3.6289999"
         style="fill:#b58765" /><path
         d="m 143.889,65.682 c -0.205,1.079 -0.479,2.374 -1.289,3.346 -0.781,0.99 -2.01,1.725 -3.399,1.911 -1.371,0.198 -2.947,-0.21 -4.13,-1.183 -0.581,-0.493 -1.086,-1.109 -1.44,-1.819 -0.172,-0.358 -0.313,-0.732 -0.412,-1.121 -0.04,-0.195 -0.081,-0.392 -0.112,-0.589 l -0.031,-0.298 -0.014,-0.15 -0.004,-0.074 -0.002,-0.038 -0.003,-0.018 0.003,-0.147 0.002,-0.356 c 0.014,-0.209 0.043,-0.477 0.08,-0.711 0.081,-0.414 0.192,-0.794 0.344,-1.175 0.309,-0.752 0.778,-1.434 1.365,-1.984 0.59,-0.549 1.293,-0.967 2.049,-1.214 0.379,-0.118 0.764,-0.204 1.151,-0.242 0.195,-0.013 0.39,-0.025 0.582,-0.028 l 0.683,0.043 0.352,0.087 c 0.195,0.041 0.43,0.098 0.635,0.156 0.367,0.126 0.693,0.281 1.012,0.464 0.629,0.373 1.16,0.859 1.568,1.412 0.818,1.102 1.16,2.454 1.014,3.676 v 0.052 h -0.004 z m -2.123,-0.055 c -0.139,-0.68 -0.58,-1.216 -1.111,-1.455 -0.264,-0.119 -0.536,-0.17 -0.786,-0.162 -0.123,0.006 -0.25,0.025 -0.349,0.053 -0.028,0.024 -0.028,0.04 -0.069,0.051 l -0.359,0.05 c 0.218,0.007 0.06,0.002 0.107,0.005 h -0.005 l -0.004,0.003 -0.008,0.005 -0.02,0.011 -0.033,0.019 -0.068,0.037 -0.123,0.077 c -0.076,0.06 -0.146,0.11 -0.207,0.168 -0.123,0.117 -0.225,0.237 -0.309,0.359 -0.084,0.123 -0.152,0.245 -0.205,0.371 -0.027,0.059 -0.053,0.135 -0.07,0.185 0,0 -0.008,-0.033 -0.022,-0.007 l -0.035,0.355 c 0.009,-0.255 0.002,-0.07 0.004,-0.126 v 0.002 0.003 0.007 0.014 l -0.004,0.027 -0.014,0.058 c -0.003,0.039 -0.003,0.075 -0.011,0.114 0.002,0.076 -0.006,0.157 0.002,0.241 0.009,0.168 0.041,0.356 0.129,0.535 0.16,0.378 0.474,0.75 1.005,0.942 0.512,0.191 1.172,0.146 1.729,-0.214 0.271,-0.183 0.521,-0.425 0.707,-0.722 0.086,-0.149 0.146,-0.32 0.16,-0.487 v -0.217 l -0.029,-0.358 -0.002,0.056 z"
         id="path103"
         inkscape:connector-curvature="0"
         style="fill:#020202" /></g><circle
       enable-background="new    "
       cx="100.457"
       cy="28.881001"
       r="1.875"
       id="circle105"
       d="m 102.332,28.881001 c 0,1.035533 -0.83947,1.875 -1.875,1.875 -1.035533,0 -1.874999,-0.839467 -1.874999,-1.875 0,-1.035534 0.839466,-1.875 1.874999,-1.875 1.03553,0 1.875,0.839466 1.875,1.875 z"
       sodipodi:cx="100.457"
       sodipodi:cy="28.881001"
       sodipodi:rx="1.875"
       sodipodi:ry="1.875"
       style="opacity:0.2;fill:#ffffff" /><circle
       enable-background="new    "
       cx="74.212997"
       cy="4.881"
       r="1.875"
       id="circle107"
       d="m 76.087997,4.881 c 0,1.0355339 -0.839466,1.875 -1.875,1.875 -1.035533,0 -1.875,-0.8394661 -1.875,-1.875 0,-1.0355339 0.839467,-1.875 1.875,-1.875 1.035534,0 1.875,0.8394661 1.875,1.875 z"
       sodipodi:cx="74.212997"
       sodipodi:cy="4.881"
       sodipodi:rx="1.875"
       sodipodi:ry="1.875"
       style="opacity:0.2;fill:#ffffff" /></g></svg>