<?xml version="1.0" encoding="utf-8"?>
<!-- Generator: Adobe Illustrator 15.0.0, SVG Export Plug-In . SVG Version: 6.00 Build 0)  -->
<!DOCTYPE svg PUBLIC "-//W3C//DTD SVG 1.1//EN" "http://www.w3.org/Graphics/SVG/1.1/DTD/svg11.dtd">
<svg version="1.1" id="Layer_1" xmlns="http://www.w3.org/2000/svg" xmlns:xlink="http://www.w3.org/1999/xlink" x="0px" y="0px"
	 width="143.922px" height="388.714px" viewBox="0 0 143.922 388.714" enable-background="new 0 0 143.922 388.714"
	 xml:space="preserve">
<g>
	<g>
		<path fill="#925624" stroke="#603A17" stroke-width="3" stroke-miterlimit="10" d="M54.779,114.104h73.334
			c2.502,0,4.533,2.03,4.533,4.534v6.274c0,2.504-2.031,4.535-4.533,4.535h-6.23v259.344H61.01V129.447h-6.23
			c-2.502,0-4.531-2.03-4.531-4.535v-6.274C50.248,116.134,52.277,114.104,54.779,114.104z"/>
		<rect x="62.213" y="157.172" fill="#925624" width="59.617" height="217.083"/>
		<path fill="#231F20" d="M134.727,125.022l-0.004-0.048c0,0,0-0.115,0-0.077l-0.002-0.024l-0.01-0.099l-0.016-0.194l-0.033-0.392
			c-0.039-0.522-0.092-1.043-0.121-1.564c-0.068-1.043-0.15-2.084-0.197-3.127l-0.039-0.782c-0.014-0.298-0.047-0.692-0.115-1.028
			c-0.137-0.693-0.379-1.366-0.732-1.972c-0.709-1.21-1.824-2.152-3.115-2.648c-0.65-0.25-1.318-0.381-2.031-0.394l-1.6,0.005
			c-1.043,0.011-2.086,0.004-3.129-0.007c-2.084-0.018-4.168-0.077-6.254-0.165c-4.17-0.179-8.34-0.501-12.51-0.809
			c-4.17-0.3-8.34-0.588-12.508-0.732c-4.172-0.147-8.342-0.235-12.512-0.301c-4.17-0.064-8.338-0.068-12.51-0.083l-12.51-0.063
			c-1.988-0.028-4.004,0.737-5.5,2.065c-1.506,1.327-2.512,3.227-2.734,5.279l-0.035,0.455l-0.012,0.208l-0.014,0.514l-0.023,0.836
			l-0.037,1.67c-0.025,1.114-0.018,2.229-0.014,3.344c0,0.978,0.195,2.041,0.574,2.988c0.381,0.956,0.939,1.834,1.637,2.572
			c1.381,1.487,3.354,2.406,5.348,2.493c1.064,0.023,1.428-0.094,2.023-0.152c0.557-0.075,1.113-0.159,1.672-0.26
			c0.318-0.058,0.637-0.129,0.955-0.194c-0.836,20.648-1.238,41.297-1.555,61.946c-0.287,21.612-0.377,43.224-0.322,64.836
			c0.059,21.613,0.266,43.225,0.746,64.837c0.23,10.805,0.527,21.612,0.904,32.417c0.41,10.805,0.805,21.611,1.455,32.417v0.002
			v1.162h1.162h60.873h1.16l0.002-1.162l0.023-16.21l0.055-16.209l0.191-32.417l0.299-32.419l0.15-16.207l0.195-16.21l0.396-32.418
			l0.443-32.419c0.293-20.533,0.623-41.066,1.018-61.6c0.775-0.127,1.553-0.247,2.34-0.358c0.846-0.083,1.676-0.301,2.434-0.647
			c0.756-0.353,1.438-0.826,2.018-1.383c1.154-1.125,1.898-2.615,2.076-4.153c0.023-0.191,0.035-0.379,0.045-0.576l0.008-0.333
			C134.734,125.142,134.729,125.094,134.727,125.022z M130.986,118.715l-0.039,0.782c-0.047,1.043-0.131,2.084-0.197,3.127
			c-0.029,0.521-0.082,1.042-0.121,1.564l-0.033,0.392l-0.016,0.194l-0.01,0.099l-0.002,0.024c0,0.056,0-0.047,0-0.027l-0.006,0.049
			c-0.008,0.058-0.014,0.142-0.021,0.182c-0.01,0.02-0.018,0.039-0.021,0.059c-0.02,0.059-0.041,0.131-0.066,0.194
			c-0.197,0.518-0.578,0.928-1.025,1.139c-0.441,0.219-0.916,0.223-1.305,0.077c-2.051-0.296-4.16-0.635-6.238-1.115h-0.002
			l-4.07,0.079l0.076,3.915c0.424,21.611,0.768,43.224,1.078,64.834l0.443,32.419l0.395,32.418l0.195,16.21l0.15,16.207
			l0.299,32.419l0.193,32.417l0.053,16.209l0.023,15.047H62.236c0.611-10.42,0.996-20.838,1.391-31.256
			c0.377-10.806,0.676-21.613,0.904-32.417c0.482-21.612,0.689-43.224,0.748-64.837c0.055-21.612-0.035-43.224-0.322-64.836
			c-0.332-21.611-0.742-43.224-1.662-64.834l-0.104-2.382l-2.182,0.099h-0.004c-1.113-0.356-2.229-0.601-3.342-0.802
			c-0.559-0.101-1.115-0.184-1.672-0.259c-0.518-0.077-1.271-0.133-1.318-0.198c-0.227-0.133-0.371-0.293-0.477-0.469
			c-0.049-0.09-0.082-0.178-0.098-0.265c-0.018-0.095-0.018-0.147-0.016-0.282c0.004-1.115,0.012-2.23-0.014-3.344l-0.037-1.67
			l-0.043-1.331c-0.016-0.17,0.045-0.394,0.195-0.562c0.15-0.178,0.352-0.266,0.594-0.29l12.51-0.064
			c4.172-0.013,8.34-0.021,12.51-0.083c4.17-0.065,8.34-0.153,12.512-0.301c4.168-0.146,8.338-0.432,12.508-0.733
			c4.17-0.305,8.34-0.629,12.51-0.809c2.086-0.087,4.17-0.147,6.254-0.166c1.043-0.009,2.086-0.018,3.129-0.005l0.783,0.004
			l0.389,0.001l0.197,0.002l0.158,0.008c0.328,0.021,0.697,0.104,1.012,0.245c0.65,0.272,1.184,0.801,1.475,1.418
			c0.145,0.312,0.242,0.639,0.268,0.975C131.004,118.365,130.998,118.493,130.986,118.715z"/>
		<g opacity="0.2">
			<polygon fill="#FFFFFF" points="74.961,125.042 71.961,280.519 68.961,125.042 			"/>
		</g>
		<circle opacity="0.34" fill="#FFFFFF" cx="92.529" cy="172.47" r="5.211"/>
		<circle opacity="0.34" fill="#FFFFFF" cx="92.528" cy="225.921" r="2.544"/>
		<circle opacity="0.34" fill="#FFFFFF" cx="87.318" cy="185.956" r="3.615"/>
		<circle opacity="0.34" fill="#FFFFFF" cx="96.017" cy="177.682" r="3.616"/>
		<circle opacity="0.34" fill="#FFFFFF" cx="103.574" cy="240.468" r="3.615"/>
	</g>
	<g>
		<path fill="#B58765" d="M131.59,80.457c-0.285-1.004-1.078-1.725-1.998-2.031c-0.346-0.474-0.863-0.857-1.588-1.061
			c-0.881-1.074-2.137-1.261-3.211-0.874c-0.252-0.066-0.508-0.13-0.762-0.191c0.752-6.528,0.57-13.188-2.742-19.059
			c-1.291-2.284-4.371-1.7-5.355,0.419c-3.98-3.895-9.318,0.709-11.857,3.974c-0.467,0.602-0.693,1.242-0.744,1.862
			c-1.5-1.325-3.193-2.027-5.506-2.528c-4.789-1.038-10.086-0.547-14.041,2.173c-0.803-3.311-2.688-6.243-5.467-8.507
			c-0.404-0.33-0.883-0.536-1.381-0.637c-0.219-0.417-0.42-0.839-0.648-1.255c-0.615-1.115-1.525-1.551-2.428-1.522
			c-4.156-6.334-9.594-11.37-17.461-8.856c-0.098,0.031-0.186,0.071-0.277,0.109c-9.27-1.858-21.572,1.002-25.051,9.356
			c-4.121,3.605-6.738,8.705-4.768,14.225c0.201,0.564,0.535,1.027,0.943,1.382c0.045,0.167,0.1,0.333,0.152,0.5
			c-0.705,3.627-0.619,8.375,0.604,12.023c-0.107,0.176-0.215,0.352-0.324,0.526c-2.027-0.196-4.295,0.647-5.996,1.681
			c-0.723,0.44-1.146,1.087-1.326,1.785c-3.604,3.15-3.689,8.914,0.219,12.927c0.031,0.032,0.066,0.057,0.098,0.088
			c-1.008,1.124-2.031,2.234-3.078,3.322c-1.902,1.979-3.77,3.955-5.494,6.021c-0.857-0.162-1.779,0.05-2.525,0.827
			c-1.779,1.853-2.768,4.089-3.25,6.479c-0.42,1.236-0.76,2.511-1.021,3.844c-0.148,0.762-0.057,1.421,0.188,1.969
			c-0.072,0.164-0.137,0.34-0.188,0.531c-0.906,3.378,0.277,6.046,2.334,8.235c-0.654,0.848-0.838,1.982-0.031,3.077
			c0.914,1.243,4.139,3.389,5.953,5.302c-0.361,0.339-0.633,0.798-0.756,1.386c-0.648,3.109-0.533,5.665,0.314,7.906
			c-1.268,4.126-0.336,9.128,4.318,10.408c1.291,0.355,2.572,0.06,3.809-0.311c0.32-0.096,0.619-0.155,0.9-0.186
			c1.611,1.968,2.803,4.174,3.877,6.462c-0.381,2.598,0.67,5.798,2.586,8.151c-1.174,7.754,11.592,9.213,12.088,16.367
			c0.08,1.136,0.816,2.141,1.768,2.666c1.621,3.562,3.896,6.743,7.273,8.497c0.49,0.781,1.336,1.337,2.459,1.337h2
			c1.627,0,2.67-1.294,2.902-2.674c0.955-0.233,1.77-0.884,1.99-2.028c0.439-2.272,0.596-4.482,0.607-6.798
			c0.004-0.492-0.117-0.922-0.309-1.299c-0.176-8.426-1.186-17.539,1.674-25.135c0.342-0.389,0.525-0.87,0.572-1.385
			c0.527-1.163,1.156-2.285,1.906-3.358c0.131-0.176,0.254-0.355,0.389-0.528c0.061-0.081,0.123-0.162,0.186-0.243
			c0.383-0.486,0.779-0.965,1.203-1.43c0.066-0.072,0.109-0.147,0.166-0.221c1.768-1.489,5.141-2.225,7.227-3.257
			c2.152-1.065,4.031-2.857,5.85-4.401c6.932-5.884,11.975-12.554,14.369-21.375c0.703-2.586,1.176-5.243,2.576-7.563
			c1.947-3.225,6.945-4.218,10.289-4.97c7-1.577,13.926-2.064,19.01-7.02c0.141-0.062,0.279-0.132,0.406-0.223
			c1.162-0.831,1.643-1.554,1.865-2.73c1.215-0.381,2.121-1.552,2.121-2.86c0-0.334-0.068-0.649-0.17-0.948
			c0.688-1.308,1.213-2.762,1.572-4.302C132.531,90.323,133.055,85.598,131.59,80.457z"/>
		<g>
			<path fill="#231F20" d="M114.197,87.755c-0.188-0.053-0.197-0.888,0.215-2.388c0.422-1.492,1.252-3.656,2.951-6.138
				c0.857-1.232,1.93-2.554,3.439-3.769c0.76-0.6,1.633-1.177,2.699-1.6c1.053-0.421,2.348-0.676,3.707-0.461
				c1.359,0.199,2.66,0.885,3.66,1.775c1.014,0.892,1.791,1.954,2.451,3.065c0.629,1.061,1.25,2.401,1.58,3.742
				c0.352,1.339,0.535,2.704,0.619,4.086c0.162,2.763-0.068,5.601-0.598,8.496c-0.541,2.892-1.369,5.85-2.676,8.818
				c-0.662,1.481-1.434,2.969-2.461,4.424c-0.512,0.727-1.096,1.444-1.781,2.133c-0.348,0.344-0.721,0.679-1.131,1l-0.404,0.293
				L126,111.543c-0.146,0.123-0.326,0.176-0.508,0.221l-0.539,0.154l-9.502,2.699l-4.93,1.388l-2.508,0.703l-0.695,0.195
				c-0.412,0.085-0.816,0.308-1.248,0.206l-0.916-0.067l-0.59-0.026c-1.576-0.056-2.908,0.104-3.703,0.58
				c-0.422,0.237-0.844,0.593-1.303,1.112c-0.229,0.258-0.461,0.551-0.693,0.867c-0.113,0.156-0.227,0.299-0.295,0.421
				c-0.072,0.114-0.148,0.239-0.23,0.396c-0.65,1.178-1.098,2.73-1.439,4.414c-0.346,1.692-0.59,3.524-0.924,5.471
				c-0.361,1.938-0.717,4.062-1.842,6.311c-1.025,2.037-2.408,3.872-4,5.437c-3.205,3.141-6.957,5.107-10.424,6.794l-2.562,1.224
				l-1.229,0.598c-0.227,0.112-0.355,0.177-0.492,0.254c-0.143,0.08-0.287,0.165-0.432,0.261c-1.172,0.762-2.346,1.92-3.389,3.172
				c-2.1,2.54-3.797,5.505-5.09,8.515c-1.287,3.017-2.176,6.133-2.494,9.135c-0.168,1.232-0.016,2.957,0.053,4.548l0.264,4.89
				c0.129,3.267,0.146,6.522-0.352,9.771c-0.258,1.622-0.646,3.251-1.322,4.837c-0.666,1.576-1.676,3.132-3.076,4.319
				c-0.344,0.293-0.736,0.573-1.066,0.782c-0.295,0.194-0.619,0.407-0.977,0.61c-0.693,0.401-1.436,0.755-2.23,1.027
				c-1.572,0.555-3.451,0.714-5.137,0.224c-1.693-0.474-3.039-1.466-4.047-2.502c-1.016-1.049-1.76-2.173-2.373-3.28
				c-1.215-2.222-1.938-4.4-2.49-6.439c-1.07-4.089-1.41-7.664-1.5-10.583c-0.08-2.921,0.146-5.196,0.477-6.715
				c0.328-1.526,0.758-2.265,0.951-2.209c0.205,0.056,0.184,0.842,0.252,2.313c0.066,1.471,0.221,3.642,0.645,6.405
				c0.434,2.753,1.102,6.129,2.383,9.804c0.646,1.824,1.455,3.736,2.568,5.482c1.088,1.729,2.611,3.302,4.201,3.619
				c0.787,0.169,1.629,0.079,2.555-0.293c0.461-0.185,0.934-0.434,1.404-0.737c0.229-0.145,0.473-0.32,0.744-0.518
				c0.244-0.17,0.408-0.305,0.588-0.471c1.41-1.285,2.217-3.676,2.523-6.365c0.32-2.701,0.23-5.68,0.012-8.788l-0.391-4.81
				c-0.068-0.829-0.133-1.672-0.182-2.547c-0.023-0.448-0.041-0.862-0.051-1.366c-0.01-0.562,0.039-1.063,0.07-1.511
				c0.311-3.719,1.289-7.34,2.709-10.838c1.441-3.492,3.297-6.887,5.838-10.041c1.293-1.568,2.732-3.094,4.676-4.4
				c0.244-0.162,0.5-0.319,0.766-0.47c0.268-0.154,0.557-0.301,0.75-0.397l1.299-0.644l2.539-1.233
				c3.318-1.622,6.455-3.358,8.826-5.7c1.182-1.162,2.15-2.462,2.859-3.856c0.633-1.19,0.994-2.877,1.316-4.651
				c0.318-1.786,0.582-3.685,0.996-5.647c0.426-1.958,0.973-4.022,2.109-6.062c0.135-0.247,0.297-0.513,0.475-0.784
				c0.17-0.268,0.342-0.484,0.498-0.694c0.316-0.416,0.654-0.835,1.033-1.253c0.75-0.832,1.713-1.687,2.875-2.311
				c1.16-0.633,2.424-0.96,3.551-1.104c1.137-0.148,2.174-0.141,3.162-0.098l0.73,0.045l0.359,0.028
				c0.051,0.004,0.023,0.004,0.039,0.005c0.012,0.004,0.023,0.001,0.033,0.001l0.572-0.148l2.521-0.657l4.955-1.284l9.525-2.443
				c0.023-0.006,0.051-0.002,0.072-0.016l0.029-0.014c-0.002,0.002,0.006-0.002,0.08-0.053c0.221-0.161,0.441-0.346,0.662-0.549
				c0.438-0.413,0.863-0.894,1.26-1.421c0.801-1.053,1.492-2.258,2.096-3.493c1.203-2.482,2.062-5.108,2.654-7.661
				c0.588-2.558,0.906-5.075,0.895-7.411c-0.008-1.166-0.102-2.287-0.307-3.311c-0.197-1.033-0.527-1.878-1-2.833
				c-0.896-1.811-2.1-3.101-3.373-3.377c-1.281-0.343-2.844,0.239-4.119,1.076c-1.293,0.842-2.379,1.89-3.281,2.895
				c-1.807,2.031-2.928,3.9-3.674,5.164C114.785,87.108,114.406,87.816,114.197,87.755z"/>
		</g>
		<g>
			<path fill="#231F20" d="M39.697,180.755c-0.066,0.4-0.721,0.712-1.898,0.776c-1.172,0.06-2.881-0.146-4.859-0.907
				c-1.971-0.755-4.201-2.078-6.227-4.085c-2.021-1.996-3.834-4.678-4.891-7.866c-1.062-3.181-1.207-6.536-0.555-9.414
				c0.631-2.893,2.008-5.237,3.432-6.839c1.432-1.616,2.883-2.547,3.953-3.016c1.084-0.462,1.805-0.476,2.045-0.15
				c0.533,0.697-1.064,2.537-2.488,5.55c-0.699,1.507-1.305,3.319-1.488,5.369c-0.197,2.042,0.037,4.322,0.797,6.614
				c0.76,2.292,1.953,4.344,3.287,6.035c1.334,1.698,2.807,3.034,4.154,4.071C37.658,178.956,39.842,179.899,39.697,180.755z"/>
		</g>
		<g>
			<path fill="#231F20" d="M13.174,140.05c0.709,0.422,0.967,1.544,1.4,3.298c0.42,1.737,0.936,4.172,1.828,6.417
				c0.445,1.115,0.941,2.021,1.434,2.682c0.49,0.666,0.988,1.133,1.59,1.527c1.211,0.778,2.641,1.112,2.826,1.936
				c0.1,0.396-0.105,0.87-0.68,1.325c-0.572,0.439-1.545,0.881-2.928,0.908c-1.365,0.041-3.141-0.488-4.582-1.655
				c-1.457-1.148-2.541-2.77-3.229-4.492c-1.354-3.473-1.176-6.713-0.49-8.953c0.352-1.121,0.861-2.001,1.398-2.523
				C12.279,139.99,12.812,139.858,13.174,140.05z"/>
		</g>
		<g>
			<path fill="#231F20" d="M31.697,102.755c-0.32,0.293-1.271-0.311-2.881-1.095c-1.602-0.775-3.951-1.61-6.748-1.108
				c-2.787,0.455-5.99,2.279-8.828,5.2c-2.822,2.898-5.391,6.863-6.641,11.253c-0.619,2.166-0.812,4.384-0.518,6.182
				c0.365,1.93,1.186,3.892,2.201,5.571c2.059,3.411,4.902,5.925,7.541,7.501c2.658,1.6,5.137,2.276,6.908,2.622
				c1.777,0.345,2.881,0.45,2.965,0.875c0.084,0.381-0.889,1.078-2.959,1.461c-2.045,0.375-5.23,0.283-8.768-1.142
				c-3.514-1.406-7.363-4.088-10.312-8.287c-1.463-2.111-2.686-4.547-3.344-7.458c-0.604-3.073-0.287-6.08,0.508-8.944
				c1.65-5.708,4.9-10.285,8.611-13.643c3.707-3.341,8.205-5.413,12.316-5.42c2.033-0.025,3.869,0.458,5.287,1.151
				c1.43,0.691,2.461,1.553,3.184,2.323C31.656,101.363,31.988,102.5,31.697,102.755z"/>
		</g>
		<g>
			<path fill="#231F20" d="M28.197,81.255c-0.219,0.361-0.75,0.477-1.482,0.517c-0.725,0.039-1.668,0.002-2.59,0.167
				c-0.934,0.16-1.736,0.521-2.467,1.186c-0.738,0.662-1.471,1.727-2.016,3.08c-0.545,1.352-0.842,2.801-0.934,4.085
				c-0.094,1.293,0.02,2.411,0.234,3.3c0.207,0.899,0.545,1.599,0.852,2.193c0.301,0.591,0.543,1.075,0.402,1.472
				c-0.131,0.379-0.658,0.657-1.588,0.54c-0.91-0.108-2.24-0.734-3.316-2.042c-2.209-2.614-3.002-7.327-1.215-11.796
				c0.896-2.227,2.453-4.256,4.531-5.445c1.029-0.591,2.156-0.944,3.209-1.043c1.057-0.112,2.02,0.027,2.816,0.258
				c1.604,0.482,2.574,1.295,3.115,1.951C28.291,80.348,28.408,80.911,28.197,81.255z"/>
		</g>
		<g>
			<path fill="#231F20" d="M85.197,70.255c-0.426,0.062-0.969-1.455-1.998-4.045c-1.043-2.573-2.633-6.254-5.5-10.115
				c-2.84-3.837-7.061-7.843-12.693-10.373c-5.582-2.559-12.564-3.417-19.412-1.564c-1.709,0.45-3.363,1.047-4.949,1.755
				c-0.793,0.354-1.57,0.738-2.328,1.144c-0.742,0.399-1.537,0.856-2.156,1.261c-2.641,1.768-4.779,4.088-6.201,6.644
				c-1.441,2.562-2.229,5.363-2.596,8.081c-0.363,2.724-0.326,5.364-0.113,7.773c0.439,4.837,1.502,8.751,2.207,11.467
				c0.725,2.718,1.121,4.281,0.74,4.472c-0.357,0.181-1.467-1.035-2.904-3.593c-1.41-2.56-3.186-6.474-4.242-11.738
				c-0.516-2.628-0.834-5.603-0.639-8.852c0.197-3.235,0.943-6.783,2.658-10.192c1.705-3.416,4.385-6.55,7.797-8.93
				c0.902-0.616,1.709-1.092,2.598-1.593c0.877-0.49,1.781-0.953,2.713-1.38c1.861-0.856,3.83-1.579,5.883-2.12
				c4.1-1.092,8.33-1.384,12.324-0.922c3.998,0.454,7.744,1.645,11.014,3.303c6.58,3.326,11.121,8.379,13.842,13.019
				c2.75,4.681,3.826,8.95,4.219,11.865C85.836,68.563,85.59,70.203,85.197,70.255z"/>
		</g>
		<g>
			<path fill="#231F20" d="M104.197,71.255c-0.854,0.004-1.486-1.588-2.602-3.492c-1.098-1.909-2.881-4.019-5.424-4.833
				c-2.523-0.866-5.213-0.227-7.264,0.641c-2.055,0.858-3.545,1.715-4.211,1.184c-0.621-0.472-0.35-2.355,1.699-4.602
				c1.027-1.091,2.555-2.233,4.602-2.914c2.025-0.686,4.598-0.832,7.059-0.005c2.469,0.805,4.443,2.452,5.662,4.214
				c1.24,1.77,1.785,3.61,1.945,5.112C105.943,69.613,104.975,71.275,104.197,71.255z"/>
		</g>
		<g>
			<path fill="#231F20" d="M122.697,74.255c-0.842-0.118-1.143-2.48-1.42-5.958c-0.158-1.724-0.33-3.762-0.834-5.69
				c-0.25-0.955-0.6-1.863-1.049-2.549c-0.457-0.694-0.947-1.131-1.623-1.444c-0.34-0.159-0.738-0.276-1.172-0.358
				c-0.23-0.04-0.34-0.052-0.518-0.06s-0.371-0.001-0.574,0.019c-0.818,0.071-1.762,0.367-2.643,0.753
				c-1.785,0.783-3.35,1.904-4.551,2.925c-1.203,1.034-2.057,1.995-2.668,2.705c-0.617,0.703-1.023,1.194-1.449,1.159
				c-0.395-0.026-0.791-0.68-0.764-1.901c0.018-1.211,0.508-2.907,1.613-4.667c1.111-1.749,2.775-3.606,5.213-5.097
				c1.227-0.731,2.648-1.396,4.416-1.695c0.439-0.074,0.902-0.122,1.387-0.129c0.482-0.014,1.041,0.029,1.475,0.093
				c0.891,0.137,1.822,0.378,2.736,0.801c1.855,0.821,3.367,2.376,4.199,3.938c0.861,1.573,1.223,3.115,1.408,4.505
				c0.338,2.794,0.014,5.103-0.371,6.982C124.674,72.327,123.49,74.369,122.697,74.255z"/>
		</g>
		<g opacity="0.2">
			<path fill="#FFFFFF" d="M36.697,75.255c0,0-0.023-0.491-0.186-1.396c-0.152-0.904-0.43-2.227-0.652-3.898
				c-0.219-1.668-0.398-3.688-0.24-5.937c0.156-2.244,0.637-4.73,1.771-7.221c1.127-2.471,2.873-4.744,5.141-6.157
				c1.119-0.705,2.348-1.167,3.512-1.35c1.168-0.184,2.248-0.112,3.156,0.088c1.824,0.408,2.994,1.176,3.789,1.64
				c0.781,0.494,1.203,0.739,1.209,0.73c0,0-0.457-0.208-1.354-0.327c-0.881-0.119-2.232-0.142-3.615,0.289
				c-0.689,0.217-1.363,0.547-1.969,0.992c-0.607,0.444-1.148,0.996-1.648,1.643c-1,1.296-1.873,2.996-2.764,4.949
				c-0.887,1.952-1.719,3.946-2.52,5.813c-0.791,1.869-1.549,3.615-2.141,5.119c-0.594,1.504-1.027,2.763-1.246,3.644
				C36.711,74.758,36.695,75.257,36.697,75.255z"/>
		</g>
		<g opacity="0.2">
			<path fill="#FFFFFF" d="M18.197,127.755c0,0-0.07-0.058-0.227-0.145l-0.697-0.391c-0.299-0.184-0.701-0.397-1.117-0.723
				c-0.418-0.322-0.916-0.711-1.385-1.227c-0.945-1.018-1.893-2.49-2.422-4.289c-0.537-1.792-0.666-3.887-0.197-5.975
				c0.461-2.088,1.473-3.948,2.744-5.346c1.271-1.406,2.793-2.32,4.109-2.79c0.656-0.245,1.281-0.36,1.799-0.45
				c0.521-0.094,0.975-0.098,1.326-0.119c0.354-0.018,0.621-0.012,0.799-0.021c0.178-0.007,0.268-0.024,0.268-0.024
				s-0.375,0.069-0.938,0.453c-0.283,0.177-0.598,0.457-0.922,0.788c-0.328,0.328-0.633,0.768-0.928,1.236
				c-0.592,0.953-1.031,2.154-1.398,3.435c-0.367,1.29-0.676,2.679-1.002,4.137c-0.318,1.459-0.625,2.862-0.85,4.201
				c-0.227,1.336-0.361,2.622-0.275,3.75c0.047,0.558,0.115,1.089,0.25,1.534c0.133,0.445,0.279,0.836,0.445,1.128
				C17.896,127.521,18.201,127.757,18.197,127.755z"/>
		</g>
		<g opacity="0.2">
			<path fill="#FFFFFF" d="M36.697,161.255c0.008-0.002-0.043-0.104-0.279-0.259c-0.107-0.081-0.25-0.178-0.441-0.292
				c-0.18-0.116-0.457-0.241-0.666-0.409c-0.217-0.165-0.516-0.351-0.725-0.581c-0.213-0.229-0.496-0.486-0.666-0.782
				c-0.391-0.586-0.586-1.316-0.492-2.021c0.09-0.709,0.453-1.301,0.941-1.738l2.133-1.911l0.195,0.093
				c0.244,0.117,0.494,0.314,0.783,0.502c0.275,0.206,0.656,0.398,1.023,0.871c0.18,0.227,0.311,0.505,0.35,0.726
				c0.045,0.224,0.021,0.388-0.01,0.511c-0.098,0.25-0.227,0.381-0.316,0.509c-0.383,0.486-0.348,0.799-0.33,0.781
				c0.025-0.02-0.201-0.147-0.789-0.498c-0.145-0.08-0.322-0.182-0.496-0.179c-0.018,0.002-0.035,0.002-0.051,0.007
				c-0.027,0.011,0.01-0.002,0.057-0.019l0.119-0.05c0.113-0.044,0.201-0.091,0.252-0.123c0.104-0.062,0.096-0.083,0.053-0.021
				c-0.045,0.061-0.125,0.208-0.205,0.468c-0.035,0.123-0.08,0.281-0.115,0.462l-0.076,0.408c-0.037,0.144-0.133,0.327-0.248,0.444
				l2.328-1.818c0.256,0.494,0.4,0.938,0.354,1.33c-0.047,0.392-0.287,0.718-0.641,1.088c-0.148,0.182-0.398,0.379-0.566,0.573
				c-0.162,0.194-0.406,0.4-0.564,0.593c-0.15,0.189-0.367,0.386-0.49,0.552c-0.131,0.167-0.227,0.312-0.285,0.428
				C36.689,161.14,36.691,161.257,36.697,161.255z"/>
		</g>
		<g opacity="0.2">
			<path fill="#FFFFFF" d="M91.697,72.255c-0.004-0.007-0.01,0.038,0.113,0.193c0.053,0.069,0.131,0.162,0.268,0.257
				c0.113,0.076,0.045,0.029,0.018,0.017l-0.078-0.04c-0.064-0.023-0.09-0.034-0.131-0.035c-0.016-0.003-0.021,0.003,0.006-0.008
				c0.059-0.016,0.223-0.138,0.359-0.369c0.139-0.227,0.23-0.505,0.301-0.757c0.021-0.075,0.08-0.412,0.025-0.064
				c-0.025,0.18-0.045,0.453-0.039,0.638c0.004,0.18,0.01,0.435,0.029,0.584c0.018,0.164,0.039,0.285,0.061,0.371
				c0.039,0.195,0.07,0.22,0.07,0.22c-0.002-0.014-0.025,0.011-0.082,0.201L92.5,73.829c-0.049,0.148-0.121,0.392-0.203,0.563
				c-0.082,0.178-0.193,0.439-0.32,0.601c-0.123,0.17-0.283,0.402-0.461,0.521c-0.172,0.148-0.385,0.235-0.6,0.263
				c-0.229,0.021-0.453-0.015-0.709-0.17c-0.234-0.141-0.486-0.397-0.658-0.734c-0.184-0.34-0.305-0.789-0.275-1.234
				c-0.006-0.458,0.225-0.872,0.43-1.148c0.209-0.268,0.535-0.408,0.76-0.451c0.225-0.073,0.486-0.011,0.646,0.02
				c0.172,0.035,0.291,0.085,0.377,0.117C91.672,72.257,91.701,72.262,91.697,72.255z"/>
		</g>
		<g opacity="0.2">
			<path fill="#FFFFFF" d="M99.697,73.755c0.002-0.007-0.025,0.02-0.035,0.215c-0.002,0.043-0.002,0.094,0,0.155
				c-0.002,0.035,0.029,0.199,0.018,0.132c-0.006-0.043-0.027-0.098-0.035-0.128c-0.033-0.084-0.082-0.107-0.041-0.084
				c0.035,0.021,0.18,0.042,0.363-0.005c0.184-0.043,0.367-0.136,0.529-0.228l0.219-0.143l0.049-0.035
				c0.004-0.003,0.021-0.018,0.014-0.012l-0.068,0.052l-0.242,0.205c-0.133,0.119-0.316,0.294-0.416,0.407
				c-0.109,0.122-0.186,0.216-0.236,0.286c-0.119,0.155-0.121,0.188-0.117,0.184c0.004-0.005-0.023,0-0.189,0.106l-0.322,0.194
				c-0.133,0.077-0.35,0.208-0.521,0.28c-0.174,0.078-0.43,0.195-0.625,0.231c-0.197,0.046-0.467,0.109-0.67,0.083
				c-0.217-0.002-0.42-0.075-0.584-0.192c-0.17-0.128-0.297-0.296-0.363-0.568c-0.061-0.247-0.055-0.586,0.061-0.927
				c0.111-0.354,0.338-0.737,0.668-1.018c0.312-0.312,0.758-0.43,1.088-0.469c0.324-0.034,0.643,0.106,0.82,0.239
				c0.197,0.112,0.328,0.343,0.41,0.479c0.088,0.149,0.127,0.27,0.158,0.354C99.686,73.738,99.695,73.762,99.697,73.755z"/>
		</g>
		<g>
			<circle fill="#B58765" cx="95.626" cy="30.479" r="11.224"/>
			<path fill="#020202" d="M108.6,30.523c-0.078,1.598-0.494,3.345-1.207,4.83c-0.721,1.508-1.746,2.845-2.963,3.929
				c-2.432,2.179-5.605,3.39-8.803,3.421c-3.201,0.073-6.436-1.169-8.83-3.393c-2.422-2.214-3.998-5.382-4.143-8.875
				c-0.184-3.302,1.051-6.908,3.455-9.472c1.205-1.281,2.666-2.351,4.303-3.071c0.818-0.357,1.674-0.635,2.549-0.824
				c0.438-0.094,0.881-0.167,1.326-0.222l0.668-0.062l0.734-0.028l0.551,0.011l0.725,0.049c0.457,0.046,0.895,0.108,1.338,0.193
				c0.883,0.176,1.742,0.46,2.566,0.813c1.646,0.723,3.117,1.801,4.303,3.11c2.363,2.632,3.598,6.152,3.428,9.545V30.523z
				 M105.1,30.479c-0.143-2.494-1.33-4.814-3.146-6.327c-0.891-0.769-1.908-1.357-2.979-1.758c-0.533-0.209-1.086-0.354-1.645-0.462
				c-0.277-0.056-0.566-0.099-0.84-0.129l-0.377-0.032l-0.551-0.015c-2.166-0.064-4.559,0.79-6.291,2.368
				c-1.775,1.581-2.965,3.815-3.119,6.4c-0.172,2.394,0.674,5.068,2.432,6.998c0.885,0.96,1.959,1.769,3.168,2.311
				c1.213,0.54,2.529,0.835,3.875,0.871c2.689,0.06,5.357-1.152,7.07-3.153c0.859-0.994,1.502-2.146,1.904-3.354
				c0.414-1.229,0.576-2.42,0.5-3.761L105.1,30.479z"/>
		</g>
		<g>
			<circle fill="#B58765" cx="74.213" cy="6.755" r="5.5"/>
			<path fill="#020202" d="M81.977,6.813l0.016,0.27l-0.008,0.431c-0.012,0.266-0.031,0.514-0.068,0.771
				c-0.076,0.51-0.199,1.018-0.389,1.501c-0.381,0.97-1.016,1.825-1.777,2.505c-1.508,1.391-3.594,2.078-5.537,1.909
				c-1.951-0.151-3.754-1.123-4.922-2.521c-1.188-1.397-1.76-3.197-1.686-4.923c0.143-3.5,3.002-6.506,6.641-6.755
				c1.695-0.163,3.658,0.373,5.125,1.598c1.494,1.202,2.492,3.125,2.605,5.158V6.813z M77.449,6.755
				c0.129-0.853-0.062-1.791-0.615-2.62C76.27,3.311,75.369,2.66,74.182,2.51c-1.049-0.149-2.316,0.233-3.146,1.066
				c-0.846,0.824-1.316,2.021-1.213,3.179c0.059,1.159,0.674,2.222,1.537,2.855c0.861,0.65,1.92,0.866,2.854,0.701
				c0.941-0.155,1.719-0.656,2.242-1.314c0.256-0.336,0.438-0.7,0.607-1.062c0.086-0.182,0.172-0.366,0.238-0.563l0.088-0.296
				l0.033-0.108l0.029-0.27L77.449,6.755z"/>
		</g>
		<g>
			<circle fill="#B58765" cx="57.947" cy="27.005" r="3.75"/>
			<path fill="#020202" d="M63.621,27.103l0.008,0.369c-0.01,0.192-0.035,0.43-0.062,0.643c-0.07,0.381-0.184,0.733-0.34,1.078
				c-0.32,0.679-0.777,1.281-1.32,1.771c-1.094,0.979-2.578,1.453-3.959,1.329c-1.373-0.108-2.674-0.79-3.51-1.776
				c-0.857-0.978-1.309-2.264-1.268-3.511c0.029-2.53,2.125-4.799,4.777-4.997c1.293-0.115,2.723,0.292,3.795,1.203
				c1.084,0.896,1.803,2.309,1.881,3.794L63.621,27.103z M59.771,27.005c0.086-0.481-0.004-1.021-0.314-1.509
				c-0.312-0.485-0.834-0.885-1.51-0.994c-0.662-0.117-1.391,0.095-1.928,0.575c-0.531,0.494-0.822,1.202-0.795,1.928
				c0.035,0.72,0.393,1.385,0.93,1.793c0.549,0.409,1.199,0.535,1.793,0.42c0.588-0.117,1.053-0.449,1.346-0.867
				c0.15-0.205,0.25-0.436,0.305-0.663c0.027-0.112,0.055-0.231,0.088-0.329c0.008-0.03,0.023-0.035,0.045-0.085l0.043-0.367
				L59.771,27.005z"/>
		</g>
		<g>
			<circle fill="#B58765" cx="139.199" cy="65.627" r="3.629"/>
			<path fill="#020202" d="M143.889,65.682c-0.205,1.079-0.48,2.374-1.289,3.346c-0.781,0.99-2.01,1.725-3.4,1.911
				c-1.371,0.198-2.947-0.21-4.129-1.183c-0.582-0.493-1.086-1.109-1.441-1.819c-0.172-0.358-0.314-0.732-0.412-1.121
				c-0.041-0.195-0.082-0.392-0.113-0.589l-0.031-0.298l-0.014-0.15l-0.004-0.074l-0.002-0.038l-0.002-0.018l0.002-0.147
				l0.002-0.356c0.014-0.209,0.043-0.477,0.08-0.711c0.082-0.414,0.193-0.794,0.344-1.175c0.309-0.752,0.779-1.434,1.365-1.984
				c0.59-0.549,1.293-0.967,2.049-1.214c0.379-0.118,0.764-0.204,1.152-0.242c0.195-0.013,0.389-0.025,0.582-0.028l0.682,0.043
				l0.352,0.087c0.195,0.041,0.43,0.098,0.635,0.156c0.367,0.126,0.693,0.281,1.012,0.464c0.629,0.373,1.16,0.859,1.568,1.412
				c0.818,1.102,1.16,2.454,1.014,3.676V65.682z M141.766,65.627c-0.139-0.68-0.58-1.216-1.111-1.455
				c-0.264-0.119-0.537-0.17-0.787-0.162c-0.123,0.006-0.25,0.025-0.348,0.053c-0.029,0.024-0.029,0.04-0.07,0.051l-0.359,0.05
				c0.217,0.007,0.059,0.002,0.107,0.005l-0.004,0l-0.004,0.003l-0.008,0.005l-0.02,0.011l-0.033,0.019l-0.068,0.037l-0.123,0.077
				c-0.076,0.06-0.146,0.11-0.207,0.168c-0.123,0.117-0.225,0.237-0.309,0.359c-0.084,0.123-0.152,0.245-0.205,0.371
				c-0.027,0.059-0.053,0.135-0.07,0.185c0,0-0.008-0.033-0.023-0.007l-0.035,0.355c0.008-0.255,0.002-0.07,0.004-0.126v0.002v0.003
				v0.007v0.014l-0.004,0.027l-0.014,0.058c-0.002,0.039-0.002,0.075-0.01,0.114c0.002,0.076-0.006,0.157,0.002,0.241
				c0.008,0.168,0.041,0.356,0.129,0.535c0.16,0.378,0.473,0.75,1.004,0.942c0.512,0.191,1.172,0.146,1.73-0.214
				c0.271-0.183,0.521-0.425,0.707-0.722c0.086-0.149,0.145-0.32,0.16-0.487v-0.217l-0.029-0.358L141.766,65.627z"/>
		</g>
		<circle opacity="0.2" fill="#FFFFFF" cx="100.457" cy="28.881" r="1.875"/>
		<circle opacity="0.2" fill="#FFFFFF" cx="74.213" cy="4.881" r="1.875"/>
	</g>
</g>
</svg>
