<?xml version="1.0" encoding="utf-8"?>
<!-- Generator: Adobe Illustrator 15.0.0, SVG Export Plug-In . SVG Version: 6.00 Build 0)  -->
<!DOCTYPE svg PUBLIC "-//W3C//DTD SVG 1.1//EN" "http://www.w3.org/Graphics/SVG/1.1/DTD/svg11.dtd">
<svg version="1.1" id="Layer_1" xmlns="http://www.w3.org/2000/svg" xmlns:xlink="http://www.w3.org/1999/xlink" x="0px" y="0px"
	 width="88.33px" height="283.998px" viewBox="0 0 88.33 283.998" enable-background="new 0 0 88.33 283.998" xml:space="preserve">
<g>
	<path fill="#FFFFFF" d="M8.373,8.15h73.334c2.502,0,4.533,2.03,4.533,4.534v6.274c0,2.505-2.031,4.535-4.533,4.535h-6.23v259.345
		H14.604V23.492h-6.23c-2.502,0-4.531-2.029-4.531-4.535v-6.274C3.842,10.18,5.871,8.15,8.373,8.15z"/>
	
		<rect x="15.807" y="51.217" fill="#925624" stroke="#603A17" stroke-width="3" stroke-miterlimit="10" width="59.617" height="217.083"/>
	<path fill="#231F20" d="M88.32,19.067l-0.004-0.048c0,0.003,0-0.115,0-0.077l-0.002-0.023l-0.01-0.1l-0.016-0.194l-0.033-0.392
		c-0.039-0.521-0.092-1.043-0.121-1.563c-0.068-1.044-0.15-2.084-0.197-3.128l-0.039-0.782c-0.014-0.298-0.047-0.692-0.115-1.028
		c-0.137-0.693-0.379-1.366-0.732-1.972c-0.709-1.21-1.824-2.152-3.115-2.648c-0.65-0.25-1.318-0.381-2.031-0.394l-1.6,0.004
		c-1.043,0.011-2.086,0.004-3.129-0.006c-2.084-0.018-4.168-0.077-6.254-0.165c-4.17-0.18-8.34-0.502-12.51-0.81
		c-4.17-0.3-8.34-0.588-12.508-0.732c-4.172-0.147-8.342-0.235-12.512-0.302c-4.17-0.062-8.338-0.067-12.51-0.083L8.373,4.562
		C6.385,4.535,4.369,5.3,2.873,6.629c-1.506,1.327-2.512,3.227-2.734,5.278l-0.035,0.456l-0.012,0.208l-0.014,0.514l-0.023,0.836
		l-0.037,1.67c-0.025,1.115-0.018,2.23-0.014,3.344c0,0.979,0.195,2.041,0.574,2.988c0.381,0.956,0.939,1.834,1.637,2.573
		c1.381,1.487,3.354,2.406,5.348,2.492c1.064,0.023,1.428-0.094,2.023-0.151c0.557-0.075,1.113-0.16,1.672-0.261
		c0.318-0.058,0.637-0.128,0.955-0.194c-0.836,20.648-1.238,41.297-1.555,61.946c-0.287,21.613-0.377,43.224-0.322,64.836
		c0.059,21.613,0.266,43.224,0.746,64.836c0.23,10.805,0.527,21.611,0.904,32.417c0.41,10.806,0.805,21.611,1.455,32.417v0.002
		v1.161h1.162h60.873h1.16l0.002-1.161l0.023-16.21l0.055-16.209L76.908,218l0.299-32.418l0.15-16.208l0.195-16.209l0.396-32.418
		l0.443-32.419c0.293-20.532,0.623-41.066,1.018-61.601c0.775-0.127,1.553-0.246,2.34-0.357c0.846-0.083,1.676-0.301,2.434-0.647
		c0.756-0.353,1.438-0.825,2.018-1.383c1.154-1.125,1.898-2.615,2.076-4.153c0.023-0.191,0.035-0.379,0.045-0.576l0.008-0.333
		C88.328,19.187,88.322,19.14,88.32,19.067z M84.58,12.761l-0.039,0.782c-0.047,1.043-0.131,2.084-0.197,3.128
		c-0.029,0.52-0.082,1.042-0.121,1.563l-0.033,0.392l-0.016,0.194l-0.01,0.1l-0.002,0.023c0,0.055,0-0.046,0-0.028l-0.006,0.05
		c-0.008,0.058-0.014,0.142-0.021,0.182c-0.01,0.019-0.018,0.039-0.021,0.058c-0.02,0.06-0.041,0.132-0.066,0.194
		c-0.197,0.517-0.578,0.928-1.025,1.139c-0.441,0.219-0.916,0.223-1.305,0.077c-2.051-0.297-4.16-0.635-6.238-1.116h-0.002
		l-4.07,0.08l0.076,3.914c0.424,21.612,0.768,43.224,1.078,64.835l0.443,32.419l0.395,32.418l0.195,16.209l0.15,16.208L74.043,218
		l0.193,32.417l0.053,16.209l0.023,15.047H15.83c0.611-10.419,0.996-20.838,1.391-31.256c0.377-10.806,0.676-21.612,0.904-32.417
		c0.482-21.612,0.689-43.224,0.748-64.836c0.055-21.613-0.035-43.224-0.322-64.836c-0.332-21.611-0.742-43.223-1.662-64.835
		l-0.104-2.382l-2.182,0.098H14.6c-1.113-0.354-2.229-0.6-3.342-0.801c-0.559-0.101-1.115-0.184-1.672-0.259
		c-0.518-0.077-1.271-0.133-1.318-0.198c-0.227-0.133-0.371-0.293-0.477-0.469c-0.049-0.09-0.082-0.178-0.098-0.265
		c-0.018-0.095-0.018-0.147-0.016-0.282c0.004-1.114,0.012-2.229-0.014-3.344l-0.037-1.67L7.584,12.59
		c-0.016-0.169,0.045-0.393,0.195-0.562c0.15-0.178,0.352-0.266,0.594-0.289l12.51-0.065c4.172-0.013,8.34-0.021,12.51-0.083
		c4.17-0.065,8.34-0.153,12.512-0.301c4.168-0.146,8.338-0.432,12.508-0.733c4.17-0.307,8.34-0.629,12.51-0.81
		c2.086-0.087,4.17-0.146,6.254-0.166c1.043-0.009,2.086-0.017,3.129-0.004l0.783,0.004l0.389,0l0.197,0.002l0.158,0.009
		c0.328,0.021,0.697,0.103,1.012,0.246c0.65,0.272,1.184,0.8,1.475,1.418c0.145,0.311,0.242,0.638,0.268,0.974
		C84.598,12.411,84.592,12.538,84.58,12.761z"/>
	<ellipse fill="#603A17" cx="44.934" cy="51.172" rx="27.053" ry="4.51"/>
	<g opacity="0.2">
		<polygon fill="#FFFFFF" points="28.555,19.088 25.555,174.564 22.555,19.088 		"/>
	</g>
	<circle opacity="0.34" fill="#FFFFFF" cx="46.123" cy="66.516" r="5.211"/>
	<circle opacity="0.34" fill="#FFFFFF" cx="46.122" cy="119.966" r="2.544"/>
	<circle opacity="0.34" fill="#FFFFFF" cx="40.912" cy="80" r="3.615"/>
	<circle opacity="0.34" fill="#FFFFFF" cx="49.61" cy="71.727" r="3.616"/>
	<circle opacity="0.34" fill="#FFFFFF" cx="57.168" cy="134.514" r="3.615"/>
</g>
</svg>
