<?xml version="1.0" encoding="utf-8"?>
<!-- Generator: Adobe Illustrator 17.0.0, SVG Export Plug-In . SVG Version: 6.00 Build 0)  -->
<!DOCTYPE svg PUBLIC "-//W3C//DTD SVG 1.1//EN" "http://www.w3.org/Graphics/SVG/1.1/DTD/svg11.dtd">
<svg version="1.1" id="Layer_1" xmlns="http://www.w3.org/2000/svg" xmlns:xlink="http://www.w3.org/1999/xlink" x="0px" y="0px"
	 width="486.801px" height="479.759px" viewBox="0 0 486.801 479.759" enable-background="new 0 0 486.801 479.759"
	 xml:space="preserve">
<path fill="#949192" d="M486.803,414.161V56.223C486.803,25.17,461.26,0,429.757,0H57.05C25.542,0,0,25.17,0,56.223v357.939H486.803
	z"/>
<path fill="#C9C9C8" d="M57.048,479.759h372.707c31.508,0,57.046-25.17,57.046-56.222V284.778H0.003v138.759
	C0.003,454.59,25.541,479.759,57.048,479.759"/>
<path fill="#98989A" d="M194.362,389.129c0,4.471-33.219,8.093-74.197,8.093c-40.982,0-74.201-3.622-74.201-8.093
	c0-4.466,33.219-8.092,74.201-8.092C161.143,381.037,194.362,384.663,194.362,389.129"/>
<path fill="#FFFFFF" d="M140.965,239.336l14.552-124.111H84.812l14.552,124.111c-30.849,8.864-53.398,36.923-53.398,70.189
	c0,40.389,33.219,73.127,74.197,73.127c40.982,0,74.201-32.738,74.201-73.127C194.363,276.259,171.814,248.2,140.965,239.336"/>
<path fill="#F5EB17" d="M54.18,300.323h132.499c6.169,23.961-10.124,73.837-66.598,74.79
	C62.316,375.113,46.469,318.028,54.18,300.323"/>
<path fill="#DBBC26" d="M186.678,300.646c0,5.48-29.662,9.925-66.247,9.925c-36.589,0-66.251-4.445-66.251-9.925
	c0-5.48,29.662-9.925,66.251-9.925C157.016,290.722,186.678,295.167,186.678,300.646"/>
<path fill="#F8F181" d="M95.064,319.104c-2.903,0-5.259,2.322-5.259,5.181c0,2.864,2.357,5.181,5.259,5.181
	c2.903,0,5.255-2.318,5.255-5.181C100.319,321.426,97.967,319.104,95.064,319.104"/>
<path fill="#F8F181" d="M104.264,335.944c-1.997,0-3.613,1.594-3.613,3.561s1.616,3.565,3.613,3.565
	c1.997,0,3.617-1.599,3.617-3.565S106.261,335.944,104.264,335.944"/>
<path fill="#FFFFFF" d="M83.347,265.896c0,0-0.238,0.208-0.684,0.598c-0.438,0.399-1.096,0.966-1.915,1.72
	c-0.208,0.186-0.425,0.385-0.65,0.594c-0.212,0.221-0.433,0.45-0.667,0.689c-0.468,0.481-0.957,1.014-1.49,1.577
	c-0.264,0.286-0.55,0.568-0.819,0.879c-0.26,0.316-0.533,0.646-0.806,0.979c-0.55,0.676-1.131,1.386-1.716,2.144
	c-0.55,0.784-1.122,1.603-1.711,2.448c-0.152,0.212-0.303,0.425-0.446,0.645c-0.13,0.225-0.264,0.455-0.399,0.685
	c-0.273,0.459-0.546,0.927-0.823,1.404c-0.269,0.477-0.581,0.944-0.823,1.456c-0.251,0.507-0.507,1.018-0.762,1.534
	c-0.256,0.52-0.533,1.035-0.758,1.581c-0.221,0.55-0.442,1.1-0.667,1.659c-0.217,0.559-0.472,1.113-0.658,1.694
	c-0.191,0.58-0.381,1.165-0.576,1.754c-0.42,1.17-0.689,2.396-0.996,3.622c-0.074,0.308-0.16,0.611-0.221,0.923l-0.108,0.585
	c0.936-0.208,1.923-0.407,2.959-0.602c0.022-0.108,0.048-0.217,0.074-0.329c0.277-1.165,0.49-2.339,0.845-3.461
	c0.16-0.568,0.321-1.131,0.477-1.69c0.156-0.563,0.381-1.096,0.563-1.642c0.191-0.537,0.381-1.074,0.572-1.607
	c0.199-0.524,0.438-1.031,0.641-1.547c0.217-0.511,0.425-1.014,0.632-1.516c0.199-0.502,0.472-0.966,0.697-1.443
	c0.234-0.476,0.468-0.94,0.697-1.404c0.117-0.23,0.23-0.459,0.342-0.685c0.126-0.221,0.251-0.437,0.377-0.654
	c0.494-0.866,0.975-1.707,1.434-2.512c0.511-0.78,1.001-1.525,1.464-2.235c0.23-0.36,0.455-0.706,0.671-1.044
	c0.23-0.334,0.472-0.641,0.693-0.949c0.455-0.611,0.884-1.178,1.269-1.72c0.195-0.264,0.381-0.524,0.559-0.767
	c0.191-0.234,0.377-0.459,0.55-0.667c0.702-0.845,1.239-1.525,1.612-1.984C83.152,266.143,83.347,265.896,83.347,265.896"/>
<path fill="#F7EE5F" d="M64.694,306.013c0,0.282,0.004,0.568,0.004,0.849c0.035,0.632,0.069,1.265,0.104,1.893
	c0.035,1.26,0.234,2.495,0.364,3.721c0.082,0.607,0.191,1.213,0.286,1.811s0.186,1.196,0.316,1.781
	c0.121,0.585,0.243,1.165,0.36,1.737c0.117,0.576,0.277,1.135,0.42,1.694c0.273,1.113,0.615,2.183,0.927,3.232
	c0.663,2.08,1.382,4.016,2.14,5.762c0.728,1.759,1.508,3.318,2.222,4.683c0.715,1.369,1.404,2.526,1.984,3.466
	c1.17,1.876,1.962,2.868,1.962,2.868s-0.139-0.286-0.399-0.815c-0.264-0.524-0.615-1.313-1.061-2.313
	c-0.442-1.001-0.94-2.231-1.495-3.643c-0.542-1.421-1.118-3.028-1.685-4.8c-0.58-1.768-1.096-3.713-1.625-5.762
	c-0.234-1.035-0.498-2.092-0.689-3.188c-0.1-0.546-0.217-1.092-0.316-1.651c-0.091-0.559-0.182-1.122-0.277-1.689
	c-0.104-0.568-0.165-1.144-0.238-1.724c-0.065-0.576-0.147-1.161-0.204-1.75c-0.043-0.589-0.091-1.178-0.134-1.776l-0.074-0.892
	l-0.039-0.901c-0.026-0.598-0.048-1.204-0.074-1.806c0-0.061,0-0.126,0-0.186C66.501,306.416,65.573,306.217,64.694,306.013"/>
<path fill="#E1C654" d="M68.607,294.463c-1.035,0.195-2.019,0.394-2.955,0.598l-0.065,0.355c-0.113,0.624-0.225,1.252-0.338,1.884
	c-0.104,0.628-0.156,1.269-0.238,1.902c-0.061,0.641-0.173,1.273-0.195,1.915c-0.052,1.282-0.165,2.56-0.13,3.838
	c0.004,0.351,0.004,0.706,0.009,1.057c0.879,0.204,1.807,0.403,2.781,0.598c0.004-0.546,0.009-1.087,0.013-1.633
	c-0.022-1.217,0.104-2.434,0.169-3.652c0.022-0.607,0.121-1.209,0.178-1.815c0.074-0.607,0.117-1.213,0.212-1.811
	c0.1-0.598,0.199-1.196,0.299-1.793l0.143-0.892C68.521,294.828,68.564,294.646,68.607,294.463"/>
<path fill="#221F20" d="M145.637,236.199c3.362,0.932,6.663,2.11,9.89,3.483c4.319,1.88,8.469,4.168,12.407,6.797
	c7.876,5.272,14.747,12.065,20.287,19.841c5.48,7.819,9.531,16.679,11.87,26.01c1.191,4.666,1.884,9.422,2.162,14.274
	c0.277,4.757,0.126,9.63-0.464,14.422c-2.24,19.278-12.143,37.638-27.033,50.543c-7.421,6.481-16.072,11.614-25.373,15.106
	c-9.284,3.474-19.339,5.237-29.151,5.259c-10.051-0.013-19.937-1.768-29.281-5.233c-9.31-3.487-17.97-8.612-25.399-15.093
	c-14.907-12.897-24.836-31.261-27.098-50.552c-0.589-4.791-0.749-9.687-0.477-14.465c0.273-4.813,0.962-9.604,2.149-14.27
	c2.335-9.344,6.381-18.221,11.866-26.058c5.541-7.793,12.416-14.604,20.3-19.893c3.942-2.638,8.101-4.934,12.425-6.823
	c4.341-1.854,8.82-3.357,13.399-4.376l0.013-0.004l-3.145,4.666L82.829,115.458v-0.009l-0.355-2.079l2.339-0.117l70.696-3.574h0.004
	l6.377,0.065l-0.784,6.117L145.637,236.199z M136.409,242.134l13.516-127.547l5.588,6.182h-0.004l-70.696-3.574l1.988-2.201v0.009
	l16.939,123.834l0.477,3.505l-3.622,1.161l-0.013,0.004c-15.639,5.615-28.921,16.432-37.027,30.113
	c-8.27,13.581-11.168,29.844-8.599,45.124c1.308,7.625,3.981,14.963,7.82,21.63c3.864,6.654,8.877,12.65,14.799,17.58
	c11.779,9.925,27.18,15.492,42.537,15.414c7.854,0.03,15.47-1.308,22.735-3.938c7.261-2.591,14.023-6.52,19.945-11.45
	c5.931-4.93,10.952-10.93,14.825-17.584c3.843-6.676,6.529-14.019,7.841-21.652c0.645-3.825,0.957-7.681,0.91-11.628
	c-0.035-3.847-0.438-7.767-1.131-11.601c-1.399-7.694-4.263-15.163-8.365-21.973c-8.11-13.711-21.418-24.563-37.092-30.199
	L136.409,242.134z"/>
<path fill="#FFFFFF" d="M387.77,218.767l15.405-83.051h-74.868l15.405,83.051c-32.669,9.388-56.547,39.102-56.547,74.331
	c0,42.771,35.181,77.442,78.576,77.442c43.399,0,78.576-34.67,78.576-77.442C444.318,257.869,420.443,228.155,387.77,218.767"/>
<path fill="#98989A" d="M419.443,376.996c0,5.012-24.043,9.072-53.701,9.072c-29.658,0-53.701-4.059-53.701-9.072
	c0-5.008,24.043-9.071,53.701-9.071C395.4,367.924,419.443,371.988,419.443,376.996"/>
<path fill="#3B54A4" d="M295.584,282.546h140.314c6.537,25.378-10.718,78.195-70.523,79.2
	C304.201,361.746,287.418,301.295,295.584,282.546"/>
<path fill="#253C7A" d="M435.5,282.433c0,5.788-31.321,10.479-69.955,10.479c-38.638,0-69.96-4.691-69.96-10.479
	c0-5.788,31.321-10.479,69.96-10.479C404.178,271.954,435.5,276.645,435.5,282.433"/>
<path fill="#767EBD" d="M338.88,302.438c-3.076,0-5.567,2.456-5.567,5.485c0,3.032,2.491,5.489,5.567,5.489
	c3.076,0,5.567-2.456,5.567-5.489C344.447,304.894,341.956,302.438,338.88,302.438"/>
<path fill="#3B54A4" d="M363.589,255.271c0,3.033-2.495,5.489-5.571,5.489c-3.071,0-5.567-2.456-5.567-5.489
	c0-3.028,2.495-5.484,5.567-5.484C361.094,249.787,363.589,252.243,363.589,255.271"/>
<path fill="#3B54A4" d="M364.857,242.047c0,1.417-1.165,2.565-2.599,2.565c-1.438,0-2.604-1.148-2.604-2.565
	c0-1.416,1.165-2.565,2.604-2.565C363.692,239.482,364.857,240.63,364.857,242.047"/>
<path fill="#767EBD" d="M348.623,320.27c-2.114,0-3.83,1.69-3.83,3.773s1.716,3.773,3.83,3.773c2.114,0,3.83-1.689,3.83-3.773
	S350.738,320.27,348.623,320.27"/>
<path fill="#767EBD" d="M336.174,332.459c0.16,1.499,0.282,3.011,0.368,4.532c0.377-0.585,0.598-1.282,0.598-2.028
	C337.14,334.001,336.776,333.126,336.174,332.459"/>
<path fill="#FFFFFF" d="M323.457,247.669c0,0-0.256,0.23-0.736,0.654c-0.477,0.438-1.191,1.062-2.075,1.885
	c-0.221,0.204-0.455,0.42-0.702,0.65c-0.23,0.238-0.468,0.49-0.719,0.754c-0.507,0.524-1.04,1.105-1.616,1.72
	c-0.282,0.312-0.589,0.62-0.879,0.962c-0.286,0.346-0.576,0.702-0.875,1.07c-0.594,0.732-1.222,1.508-1.854,2.335
	c-0.594,0.854-1.213,1.742-1.85,2.664c-0.16,0.234-0.325,0.464-0.481,0.702c-0.143,0.247-0.29,0.498-0.433,0.745
	c-0.295,0.502-0.589,1.014-0.888,1.529c-0.29,0.52-0.633,1.027-0.892,1.581c-0.269,0.55-0.546,1.109-0.823,1.672
	c-0.277,0.563-0.576,1.126-0.819,1.72c-0.238,0.594-0.481,1.196-0.723,1.802c-0.234,0.607-0.511,1.209-0.71,1.841
	c-0.208,0.628-0.416,1.265-0.624,1.906c-0.052,0.147-0.104,0.295-0.152,0.442c0.758,0.663,1.503,1.33,2.244,2.01
	c0.134-0.581,0.282-1.157,0.459-1.72c0.173-0.62,0.351-1.23,0.524-1.841c0.169-0.611,0.416-1.191,0.615-1.785
	c0.212-0.589,0.42-1.174,0.628-1.75c0.217-0.576,0.477-1.126,0.702-1.685c0.234-0.554,0.468-1.109,0.697-1.65
	c0.212-0.55,0.511-1.053,0.758-1.573c0.26-0.515,0.516-1.027,0.767-1.525c0.126-0.251,0.251-0.498,0.377-0.745
	c0.139-0.242,0.277-0.476,0.412-0.715c0.542-0.944,1.07-1.854,1.573-2.734c0.546-0.849,1.1-1.646,1.603-2.426
	c0.256-0.386,0.498-0.767,0.741-1.135c0.247-0.36,0.516-0.693,0.758-1.027c0.494-0.663,0.966-1.278,1.391-1.863
	c0.212-0.29,0.416-0.568,0.611-0.836c0.212-0.251,0.412-0.49,0.602-0.719c0.771-0.914,1.36-1.65,1.772-2.149
	C323.24,247.937,323.457,247.669,323.457,247.669"/>
<path fill="#FFFFFF" d="M358.872,253.45c0,1.269-1.044,2.3-2.335,2.3c-1.287,0-2.331-1.031-2.331-2.3c0-1.269,1.044-2.3,2.331-2.3
	C357.828,251.15,358.872,252.181,358.872,253.45"/>
<path fill="#FFFFFF" d="M360.971,256.399c0,0.36-0.295,0.65-0.659,0.65c-0.364,0-0.658-0.29-0.658-0.65
	c0-0.359,0.295-0.65,0.658-0.65C360.677,255.749,360.971,256.04,360.971,256.399"/>
<path fill="#FFFFFF" d="M362.257,241.315c0,0.529-0.438,0.957-0.975,0.957c-0.537,0-0.97-0.429-0.97-0.957
	c0-0.528,0.433-0.957,0.97-0.957C361.819,240.358,362.257,240.787,362.257,241.315"/>
<path fill="#221F20" d="M393.18,214.572c3.353,0.949,6.654,2.118,9.882,3.479c4.596,1.988,9.015,4.414,13.209,7.196
	c8.387,5.593,15.713,12.802,21.617,21.067c5.848,8.309,10.172,17.74,12.68,27.669c1.278,4.973,2.023,10.029,2.322,15.201
	c0.299,5.06,0.143,10.254-0.477,15.362c-2.361,20.534-12.897,40.111-28.757,53.87c-7.902,6.918-17.121,12.39-27.033,16.116
	c-9.895,3.704-20.617,5.588-31.066,5.606c-10.718-0.008-21.249-1.88-31.209-5.58c-9.916-3.717-19.148-9.184-27.059-16.094
	c-15.877-13.754-26.443-33.336-28.83-53.892c-0.624-5.103-0.788-10.319-0.485-15.405c0.29-5.125,1.031-10.228,2.305-15.197
	c2.5-9.947,6.823-19.391,12.672-27.721c5.909-8.283,13.239-15.513,21.635-21.124c4.198-2.794,8.625-5.229,13.23-7.226
	c4.618-1.954,9.383-3.544,14.248-4.61h0.013l-3.474,5.545l-14.608-83.186v-0.009l-1.135-4.475l5.194-0.329l74.851-4.722h0.004
	l11.108,0.533l-2.335,9.843L393.18,214.572z M382.306,221.044l11.831-87.717l8.773,10.376h-0.004l-74.851-4.722l4.068-4.804v0.008
	l16.194,82.9l0.827,4.215l-4.302,1.334l-0.009,0.005c-16.475,5.991-30.433,17.428-38.924,31.859
	c-8.673,14.318-11.675,31.425-8.95,47.485c1.382,8.01,4.207,15.717,8.244,22.722c4.068,6.983,9.336,13.278,15.561,18.45
	c12.377,10.419,28.544,16.254,44.66,16.172c8.257,0.035,16.246-1.373,23.874-4.133c7.62-2.712,14.725-6.836,20.946-12.009
	c6.234-5.173,11.51-11.467,15.587-18.459c4.046-7.005,6.879-14.721,8.274-22.74c0.689-4.025,1.022-8.075,0.979-12.225
	c-0.03-4.046-0.446-8.175-1.165-12.208c-1.456-8.097-4.445-15.959-8.747-23.142c-8.5-14.465-22.479-25.941-38.994-31.954
	L382.306,221.044z"/>
<path fill="#98989A" d="M329.725,438.067c0,4.051-35.771,7.335-79.898,7.335c-44.123,0-79.893-3.284-79.893-7.335
	c0-4.051,35.77-7.33,79.893-7.33C293.955,430.738,329.725,434.017,329.725,438.067"/>
<path fill="#FFFFFF" d="M270.823,255.436l17.944-201.96h-87.202l17.948,201.96c-38.049,10.935-65.862,45.54-65.862,86.574
	c0,49.807,40.973,90.186,91.516,90.186s91.512-40.38,91.512-90.186C336.68,300.976,308.872,266.371,270.823,255.436"/>
<path fill="#EC2727" d="M258.465,283.516c0,3.531-2.903,6.39-6.485,6.39c-3.583,0-6.485-2.859-6.485-6.39
	c0-3.53,2.903-6.39,6.485-6.39C255.562,277.126,258.465,279.985,258.465,283.516"/>
<path fill="#EC2727" d="M273.583,77.032c0,3.531-2.903,6.39-6.485,6.39c-3.578,0-6.485-2.859-6.485-6.39
	c0-3.53,2.907-6.39,6.485-6.39C270.681,70.642,273.583,73.501,273.583,77.032"/>
<path fill="#EC2727" d="M247.155,156.683c0,3.531-2.903,6.394-6.485,6.394c-3.578,0-6.485-2.864-6.485-6.394
	c0-3.53,2.907-6.39,6.485-6.39C244.253,150.293,247.155,153.152,247.155,156.683"/>
<path fill="#EC2727" d="M246.995,252.067c0,4.7-3.864,8.509-8.634,8.509c-4.77,0-8.634-3.808-8.634-8.509
	c0-4.7,3.864-8.504,8.634-8.504C243.131,243.563,246.995,247.367,246.995,252.067"/>
<path fill="#EC2727" d="M267.099,177.112c0,4.7-3.864,8.513-8.634,8.513s-8.634-3.812-8.634-8.513c0-4.696,3.864-8.504,8.634-8.504
	S267.099,172.416,267.099,177.112"/>
<path fill="#EC2727" d="M245.129,302.645c0,2.426-1.997,4.393-4.458,4.393c-2.465,0-4.458-1.967-4.458-4.393
	c0-2.426,1.993-4.393,4.458-4.393C243.132,298.252,245.129,300.219,245.129,302.645"/>
<path fill="#EC2727" d="M161.286,329.405h168.438c7.85,30.464-12.866,94.874-84.659,96.083
	C171.631,425.488,151.478,351.915,161.286,329.405"/>
<path fill="#C42628" d="M329.725,329.817c0,6.97-37.707,12.615-84.221,12.615s-84.217-5.645-84.217-12.615
	c0-6.966,37.703-12.615,84.217-12.615S329.725,322.851,329.725,329.817"/>
<path fill="#D47259" d="M281.835,326.221c-12.905,0-23.372,1.984-23.372,4.432c0,2.452,10.466,4.436,23.372,4.436
	c12.905,0,23.368-1.984,23.368-4.436C305.203,328.205,294.741,326.221,281.835,326.221"/>
<path fill="#FFFFFF" d="M192.449,289.907c0,0-0.273,0.247-0.788,0.706c-0.507,0.468-1.265,1.144-2.209,2.032
	c-0.238,0.217-0.485,0.451-0.749,0.693c-0.247,0.26-0.503,0.533-0.771,0.814c-0.537,0.563-1.105,1.187-1.72,1.85
	c-0.303,0.333-0.633,0.667-0.94,1.031c-0.303,0.373-0.615,0.758-0.931,1.148c-0.637,0.793-1.304,1.625-1.984,2.508
	c-0.633,0.919-1.291,1.872-1.971,2.864c-0.169,0.247-0.347,0.494-0.511,0.75c-0.152,0.264-0.308,0.533-0.464,0.801
	c-0.312,0.537-0.628,1.083-0.949,1.638c-0.16,0.273-0.321,0.554-0.485,0.836c-0.165,0.277-0.325,0.563-0.464,0.862
	c-0.29,0.589-0.585,1.183-0.879,1.785c-0.295,0.607-0.615,1.209-0.875,1.846c-0.256,0.637-0.511,1.278-0.771,1.928
	c-0.247,0.654-0.542,1.3-0.758,1.975c-0.221,0.676-0.442,1.356-0.663,2.04c-0.49,1.356-0.797,2.781-1.152,4.207
	c-0.082,0.36-0.186,0.715-0.256,1.074l-0.061,0.334c0.944-0.251,1.945-0.498,2.998-0.737c0.009-0.03,0.017-0.061,0.022-0.091
	c0.325-1.365,0.581-2.738,0.996-4.055c0.191-0.663,0.381-1.321,0.568-1.975c0.186-0.654,0.446-1.282,0.663-1.915
	c0.23-0.632,0.455-1.261,0.676-1.88c0.104-0.316,0.256-0.606,0.377-0.91c0.13-0.299,0.256-0.598,0.381-0.897
	c0.256-0.598,0.503-1.187,0.749-1.772c0.117-0.295,0.256-0.576,0.403-0.854c0.139-0.281,0.282-0.559,0.42-0.836
	c0.277-0.55,0.555-1.096,0.827-1.633c0.134-0.269,0.269-0.533,0.403-0.797c0.147-0.256,0.299-0.511,0.442-0.763
	c0.589-1.014,1.152-1.988,1.698-2.928c0.585-0.914,1.187-1.768,1.729-2.599c0.273-0.416,0.537-0.819,0.797-1.213
	c0.269-0.39,0.555-0.745,0.819-1.1c0.533-0.71,1.04-1.369,1.495-1.993c0.23-0.308,0.451-0.607,0.663-0.892
	c0.225-0.269,0.446-0.524,0.65-0.771c0.832-0.975,1.464-1.759,1.906-2.292C192.215,290.193,192.449,289.907,192.449,289.907"/>
<path fill="#F15E41" d="M170.916,335.681c0.004,0.672,0.004,1.343,0.009,2.01c0.039,0.736,0.082,1.473,0.121,2.201
	c0.039,1.469,0.264,2.902,0.412,4.328c0.095,0.71,0.221,1.413,0.329,2.11c0.108,0.698,0.212,1.391,0.364,2.071
	c0.134,0.685,0.273,1.356,0.407,2.028c0.139,0.667,0.321,1.321,0.485,1.967c0.308,1.3,0.706,2.547,1.061,3.769
	c0.758,2.426,1.581,4.683,2.452,6.724c0.836,2.049,1.729,3.873,2.547,5.471c0.819,1.599,1.607,2.955,2.274,4.055
	c0.667,1.105,1.239,1.941,1.629,2.509c0.39,0.572,0.62,0.858,0.62,0.858s-0.173-0.321-0.477-0.936
	c-0.316-0.611-0.736-1.525-1.269-2.686c-0.529-1.161-1.126-2.591-1.785-4.237c-0.641-1.65-1.334-3.522-2.01-5.588
	c-0.689-2.062-1.313-4.328-1.936-6.724c-0.277-1.209-0.593-2.443-0.823-3.721c-0.121-0.637-0.264-1.278-0.377-1.928
	c-0.108-0.654-0.221-1.313-0.334-1.975c-0.121-0.663-0.195-1.339-0.282-2.015c-0.078-0.68-0.178-1.36-0.247-2.049
	c-0.052-0.689-0.108-1.382-0.165-2.079c-0.026-0.347-0.056-0.693-0.087-1.044l-0.043-1.053c-0.03-0.706-0.061-1.412-0.091-2.118
	c0-0.403,0.004-0.806,0.009-1.209C172.727,336.175,171.796,335.933,170.916,335.681"/>
<path fill="#CC5740" d="M175.096,322.892c-1.053,0.238-2.053,0.485-2.998,0.737l-0.139,0.758c-0.13,0.728-0.26,1.456-0.39,2.188
	c-0.121,0.736-0.182,1.477-0.277,2.218c-0.069,0.741-0.195,1.477-0.225,2.222c-0.061,1.491-0.195,2.976-0.152,4.458
	c0,0.069,0,0.139,0,0.208c0.879,0.251,1.811,0.494,2.794,0.736c0-0.307,0.004-0.615,0.004-0.918
	c-0.022-1.425,0.126-2.851,0.195-4.276c0.026-0.71,0.143-1.417,0.208-2.127c0.087-0.706,0.139-1.421,0.251-2.118
	c0.117-0.702,0.234-1.404,0.351-2.101l0.169-1.044C174.944,323.516,175.027,323.204,175.096,322.892"/>
<path fill="#FFFFFF" d="M267.099,73.637c0,1.014-0.832,1.837-1.863,1.837c-1.027,0-1.863-0.823-1.863-1.837
	c0-1.013,0.836-1.837,1.863-1.837C266.267,71.801,267.099,72.624,267.099,73.637"/>
<path fill="#FFFFFF" d="M240.533,153.409c0,1.17-0.962,2.118-2.149,2.118c-1.187,0-2.149-0.949-2.149-2.118
	c0-1.169,0.962-2.118,2.149-2.118C239.572,151.291,240.533,152.239,240.533,153.409"/>
<path fill="#FFFFFF" d="M258.465,173.472c0,1.655-1.36,2.994-3.037,2.994c-1.681,0-3.041-1.339-3.041-2.994
	c0-1.655,1.36-2.993,3.041-2.993C257.104,170.478,258.465,171.817,258.465,173.472"/>
<path fill="#FFFFFF" d="M261.325,176.955c0,0.607-0.498,1.1-1.118,1.1c-0.615,0-1.113-0.494-1.113-1.1c0-0.606,0.498-1.1,1.113-1.1
	C260.827,175.854,261.325,176.348,261.325,176.955"/>
<path fill="#FFFFFF" d="M238.779,248.831c0,1.789-1.473,3.241-3.288,3.241c-1.811,0-3.284-1.451-3.284-3.241
	c0-1.789,1.473-3.236,3.284-3.236C237.306,245.595,238.779,247.042,238.779,248.831"/>
<path fill="#FFFFFF" d="M239.996,252.874c0,0.446-0.368,0.806-0.819,0.806c-0.451,0-0.814-0.36-0.814-0.806
	c0-0.446,0.364-0.806,0.814-0.806C239.628,252.069,239.996,252.428,239.996,252.874"/>
<path fill="#FFFFFF" d="M252.641,281.442c0,1.148-0.944,2.075-2.105,2.075c-1.165,0-2.11-0.927-2.11-2.075
	c0-1.148,0.944-2.075,2.11-2.075C251.697,279.367,252.641,280.294,252.641,281.442"/>
<path fill="#FFFFFF" d="M253.636,284.334c0,0.451-0.368,0.819-0.827,0.819c-0.459,0-0.832-0.368-0.832-0.819
	c0-0.45,0.373-0.814,0.832-0.814C253.268,283.519,253.636,283.883,253.636,284.334"/>
<path fill="#FFFFFF" d="M241.829,301.958c0,1.226-1.009,2.214-2.248,2.214c-1.243,0-2.248-0.988-2.248-2.214
	c0-1.226,1.005-2.218,2.248-2.218C240.819,299.74,241.829,300.732,241.829,301.958"/>
<path fill="#221F20" d="M274.974,252.668c4.432,1.295,8.777,2.894,12.983,4.813c5.173,2.387,10.129,5.246,14.803,8.517
	c9.349,6.542,17.48,14.82,23.939,24.251c6.433,9.453,11.125,20.097,13.768,31.248c2.656,11.16,3.162,22.783,1.677,34.176
	c-1.495,11.402-5.121,22.566-10.683,32.716c-5.541,10.163-12.944,19.334-21.747,26.968c-8.803,7.638-19.053,13.655-30.048,17.736
	c-10.973,4.085-22.796,6.182-34.445,6.199c-11.822-0.009-23.519-2.097-34.54-6.173c-10.999-4.076-21.258-10.085-30.069-17.719
	c-8.812-7.629-16.224-16.804-21.778-26.967c-5.575-10.15-9.21-21.319-10.713-32.729c-1.499-11.402-0.996-23.034,1.651-34.207
	c2.634-11.164,7.326-21.825,13.759-31.295c6.459-9.444,14.595-17.736,23.952-24.299c4.674-3.275,9.635-6.143,14.812-8.539
	c5.186-2.374,10.579-4.28,16.081-5.701l0.022-0.005l-2.859,4.12L198.312,53.766v-0.013l-0.451-3.336l3.704-0.164l87.193-3.886h0.009
	l7.984,0.13l-0.801,7.598L274.974,252.668z M266.781,258.113l14.803-205.257l7.183,7.724h-0.009l-87.193-3.886l3.258-3.5v0.008
	l18.663,201.891l0.295,3.184l-3.149,0.936l-0.022,0.004c-4.952,1.594-9.747,3.622-14.309,6.048
	c-4.566,2.409-8.916,5.207-12.962,8.357c-8.105,6.299-15.08,13.945-20.43,22.549c-10.874,17.129-15.007,37.988-11.892,57.73
	c1.551,9.856,4.895,19.395,9.782,28.085c4.9,8.686,11.389,16.488,19.04,22.93c7.646,6.446,16.406,11.601,25.833,15.028
	c9.392,3.448,19.495,5.186,29.463,5.155c10.142,0.035,20.118-1.698,29.554-5.142c9.431-3.422,18.195-8.578,25.846-15.024
	c7.659-6.442,14.157-14.244,19.061-22.934c4.895-8.695,8.244-18.243,9.804-28.107c3.123-19.759-1.001-40.64-11.883-57.799
	c-5.359-8.612-12.338-16.276-20.452-22.588c-4.055-3.154-8.404-5.961-12.983-8.374c-4.566-2.435-9.37-4.466-14.331-6.061
	L266.781,258.113z"/>
<path fill="#020303" d="M466.872,409.296c-0.018-0.293-0.073-0.592-0.177-0.885c-0.104-0.293-0.262-0.568-0.445-0.812
	c-0.183-0.244-0.403-0.458-0.629-0.635c-0.458-0.36-0.94-0.592-1.416-0.763c-0.476-0.171-0.946-0.281-1.404-0.366
	c-0.952-0.171-1.898-0.177-2.801-0.067c-0.903,0.109-1.764,0.329-2.569,0.616c-0.799,0.287-1.55,0.635-2.252,1.031
	c-1.398,0.781-2.594,1.709-3.607,2.673c-1.019,0.964-1.855,1.971-2.527,2.942c-0.671,0.97-1.178,1.922-1.544,2.783
	c-0.36,0.866-0.58,1.648-0.702,2.295c-0.085,0.494-0.122,0.909-0.122,1.233c-0.482-0.452-0.976-0.897-1.489-1.325
	c0.14-0.159,0.281-0.354,0.421-0.586c0.537-0.873,1.056-2.233,1.446-3.954c0.195-0.861,0.36-1.813,0.482-2.838
	c0.116-1.031,0.189-2.142,0.177-3.32c-0.006-0.586-0.037-1.196-0.098-1.819c-0.067-0.623-0.159-1.257-0.323-1.917
	c-0.079-0.33-0.183-0.659-0.305-0.995c-0.128-0.342-0.287-0.677-0.494-1.019c-0.208-0.336-0.47-0.677-0.836-0.976
	c-0.183-0.146-0.397-0.281-0.629-0.384c-0.226-0.104-0.476-0.177-0.732-0.22c-0.507-0.073-0.989,0-1.404,0.122
	c-0.208,0.061-0.403,0.14-0.586,0.226l-0.128,0.061l-0.146,0.073c-0.104,0.061-0.207,0.122-0.299,0.189
	c-0.378,0.269-0.653,0.58-0.885,0.885c-0.226,0.305-0.409,0.622-0.568,0.934c-0.317,0.622-0.543,1.239-0.726,1.843
	c-0.177,0.61-0.317,1.208-0.427,1.788c-0.214,1.166-0.311,2.283-0.342,3.326c-0.031,1.044,0.012,2.02,0.116,2.905
	c0.067,0.58,0.159,1.123,0.281,1.617c-1.282-0.684-2.612-1.288-3.979-1.8c-1.453-0.549-2.942-0.995-4.455-1.343
	c-0.378-0.085-0.763-0.165-1.141-0.238c-0.384-0.073-0.763-0.14-1.16-0.202c-0.812-0.128-1.636-0.189-2.46-0.177
	c-1.648,0.012-3.302,0.299-4.858,0.824c-1.556,0.519-3.021,1.257-4.364,2.155c-1.343,0.897-2.563,1.934-3.662,3.082
	c-1.099,1.147-2.087,2.386-2.948,3.704c-1.721,2.637-2.984,5.548-3.723,8.605c-0.36,1.532-0.586,3.1-0.647,4.687
	c-0.037,0.787-0.024,1.593,0.037,2.393c0.061,0.799,0.171,1.599,0.33,2.386c0.317,1.575,0.836,3.113,1.532,4.559
	c0.69,1.452,1.568,2.807,2.582,4.046c2.026,2.478,4.602,4.461,7.433,5.871c2.838,1.41,5.938,2.252,9.075,2.508
	c0.787,0.061,1.568,0.092,2.356,0.079c0.769-0.012,1.526-0.036,2.289-0.073c1.514-0.079,3.033-0.214,4.541-0.397
	c3.021-0.372,6.03-0.964,8.947-1.947c1.453-0.488,2.881-1.092,4.242-1.837s2.655-1.66,3.778-2.771
	c0.561-0.549,1.074-1.16,1.52-1.813c0.452-0.659,0.83-1.361,1.135-2.093c0.031-0.067,0.055-0.14,0.085-0.207
	c0.146,0,0.293,0,0.446-0.012c0.995-0.055,2.142-0.324,3.32-0.812c0.293-0.128,0.592-0.263,0.891-0.415
	c0.153-0.073,0.299-0.153,0.452-0.232l0.11-0.067l0.055-0.031l0.098-0.061c0.14-0.079,0.275-0.165,0.409-0.25
	c0.543-0.348,1.056-0.732,1.489-1.117c0.433-0.384,0.781-0.763,1.05-1.123c0.098-0.128,0.183-0.25,0.262-0.372l0.244-0.372
	l0.519-0.793l0.073-0.11l0.031-0.055l0.012-0.018l0.037-0.061l0.098-0.171c0.079-0.14,0.177-0.311,0.354-0.611l-2.331,0.836
	c-0.36,0.128-0.696,0.25-0.995,0.348c-0.299,0.098-0.58,0.183-0.836,0.25c-0.519,0.147-0.964,0.232-1.392,0.287l-0.415,0.049
	c-0.098,0.012-0.195,0.019-0.287,0.025c-0.757,0.049-1.391-0.055-1.898-0.25c-0.445-0.165-0.787-0.397-1.05-0.58
	c-0.067-1.093-0.226-2.173-0.464-3.235c-0.323-1.489-0.787-2.948-1.367-4.352c-1.153-2.813-2.746-5.431-4.65-7.806l-0.061-0.067
	c0.11-0.012,0.22-0.018,0.336-0.037c1.33-0.153,3.186-0.726,5.297-1.764c1.05-0.513,2.173-1.147,3.326-1.898
	c1.153-0.751,2.35-1.623,3.528-2.648c0.586-0.513,1.172-1.062,1.739-1.66c0.561-0.61,1.111-1.263,1.605-2.008
	c0.244-0.372,0.476-0.769,0.677-1.202c0.195-0.433,0.366-0.903,0.452-1.434C466.872,409.87,466.89,409.589,466.872,409.296"/>
<path fill="#020303" d="M443.186,451.322c0.079-0.037,0.165-0.073,0.244-0.104c-0.098,0.025-0.195,0.049-0.293,0.079
	L443.186,451.322z"/>
<path fill="#020303" d="M441.394,452.647l-0.012-0.006c-0.128,0.049-0.256,0.098-0.378,0.146
	C441.131,452.751,441.265,452.708,441.394,452.647"/>
<path fill="#020303" d="M446.526,450.586c-1.172,0.458-2.356,0.897-3.515,1.379c-0.33,0.14-0.659,0.281-0.989,0.415l0.049,0.037
	l0.049,0.042c0.897-0.336,1.8-0.671,2.673-1.043C445.385,451.16,445.965,450.885,446.526,450.586"/>
<path fill="#FFFFFF" d="M411.368,439.074c-1.654,0-3.228-0.702-4.437-1.977c-1.294-1.361-2.099-3.296-2.331-5.578
	c-0.244-2.447,0.226-5.108,1.288-7.299c1.111-2.283,2.698-3.686,4.358-3.845c0.11-0.012,0.226-0.018,0.336-0.018
	c1.623,0,3.296,1.117,4.699,3.143c1.318,1.904,2.209,4.363,2.447,6.744c0.238,2.417-0.244,4.553-1.398,6.182
	c-1.074,1.519-2.637,2.447-4.394,2.618C411.746,439.068,411.557,439.074,411.368,439.074"/>
<path fill="#020303" d="M410.581,419.945v0.824V419.945c-0.128,0-0.25,0.006-0.372,0.018c-1.813,0.177-3.528,1.66-4.699,4.083
	c-1.092,2.258-1.575,4.992-1.324,7.513c0.238,2.374,1.08,4.388,2.441,5.823c1.288,1.355,2.972,2.105,4.742,2.105
	c0.201,0,0.403-0.012,0.604-0.031c1.886-0.183,3.558-1.171,4.699-2.795c1.215-1.709,1.721-3.943,1.471-6.457
	c-0.244-2.447-1.166-4.974-2.514-6.933C414.139,421.123,412.351,419.945,410.581,419.945 M410.581,420.769
	c3.113,0,6.249,4.736,6.725,9.515c0.494,4.925-2.209,8.044-5.413,8.355c-0.177,0.012-0.348,0.024-0.525,0.024
	c-3.021,0-5.883-2.533-6.353-7.183c-0.488-4.931,2.069-10.387,5.273-10.698C410.386,420.775,410.484,420.769,410.581,420.769"/>
<path fill="#FFFFFF" d="M413.571,428.047c0.592,0,1.074,0.476,1.074,1.062s-0.482,1.062-1.074,1.062s-1.074-0.476-1.074-1.062
	S412.979,428.047,413.571,428.047"/>
<path fill="#FFFFFF" d="M410.21,428.477c0.354,0,0.641,0.281,0.641,0.629c0,0.348-0.287,0.629-0.641,0.629s-0.641-0.281-0.641-0.629
	C409.569,428.758,409.856,428.477,410.21,428.477"/>
<path fill="#FFFFFF" d="M411.639,422.973c-0.409-0.275-0.897-0.433-1.428-0.433c-1.398,0-2.533,1.117-2.533,2.496
	c0,1.227,0.903,2.246,2.087,2.454c0.146,0.024,0.293,0.036,0.446,0.036c1.398,0,2.533-1.117,2.533-2.49
	C412.744,424.176,412.304,423.425,411.639,422.973"/>
<path fill="#FFFFFF" d="M426.24,435.989c-1.892,0-3.705-0.805-5.09-2.27c-1.489-1.569-2.411-3.784-2.673-6.42
	c-0.287-2.813,0.256-5.877,1.483-8.41c1.269-2.618,3.088-4.23,4.992-4.413c0.122-0.012,0.25-0.018,0.378-0.018
	c1.855,0,3.772,1.281,5.383,3.613c1.514,2.191,2.545,5.023,2.82,7.769c0.275,2.777-0.275,5.236-1.605,7.11
	c-1.233,1.746-3.021,2.813-5.041,3.009C426.673,435.977,426.453,435.989,426.24,435.989"/>
<path fill="#020303" d="M425.329,414.044v0.824V414.044c-0.14,0-0.281,0.006-0.421,0.018c-2.051,0.201-3.991,1.898-5.328,4.65
	c-1.257,2.594-1.813,5.737-1.52,8.63c0.268,2.722,1.233,5.023,2.783,6.658c1.471,1.55,3.387,2.398,5.395,2.398
	c0.232,0,0.464-0.006,0.69-0.031c2.142-0.207,4.04-1.337,5.346-3.18c1.385-1.953,1.965-4.51,1.672-7.391
	c-0.281-2.807-1.33-5.712-2.887-7.958C429.363,415.393,427.33,414.044,425.329,414.044 M425.329,414.868
	c3.601,0,7.232,5.487,7.787,11.01c0.568,5.7-2.557,9.307-6.268,9.667c-0.201,0.025-0.409,0.031-0.61,0.031
	c-3.491,0-6.811-2.923-7.348-8.312c-0.568-5.7,2.392-12.017,6.103-12.377C425.103,414.874,425.219,414.868,425.329,414.868"/>
<path fill="#FFFFFF" d="M428.696,423.291c0.69,0,1.245,0.549,1.245,1.227c0,0.677-0.555,1.227-1.245,1.227
	c-0.69,0-1.245-0.549-1.245-1.227C427.451,423.841,428.006,423.291,428.696,423.291"/>
<path fill="#FFFFFF" d="M424.807,423.79c0.409,0,0.738,0.33,0.738,0.726c0,0.403-0.33,0.732-0.738,0.732s-0.738-0.329-0.738-0.732
	C424.068,424.12,424.398,423.79,424.807,423.79"/>
<path fill="#FFFFFF" d="M426.46,417.419c-0.47-0.317-1.038-0.506-1.654-0.506c-1.617,0-2.929,1.294-2.929,2.893
	c0,1.422,1.044,2.606,2.417,2.844c0.165,0.024,0.336,0.042,0.513,0.042c1.617,0,2.929-1.294,2.929-2.886
	C427.736,418.811,427.229,417.938,426.46,417.419"/>
<path fill="#010101" d="M428.065,409.781c0.055-0.036,0.055-0.152-0.031-0.323c-0.079-0.165-0.256-0.372-0.507-0.568
	c-0.494-0.397-1.288-0.763-2.209-0.952c-0.458-0.092-0.909-0.134-1.324-0.122c-0.415,0.006-0.799,0.073-1.123,0.207
	c-0.165,0.067-0.305,0.153-0.421,0.256c-0.11,0.11-0.189,0.238-0.214,0.348c-0.024,0.116-0.006,0.202,0.018,0.256l0.092,0.073
	c0.067,0,0.128-0.092,0.226-0.159c0.049-0.031,0.104-0.055,0.183-0.079c0.079-0.018,0.183-0.037,0.299-0.049
	c0.488-0.049,1.251,0.037,2.069,0.201c0.824,0.171,1.556,0.397,2.057,0.592c0.25,0.098,0.445,0.189,0.586,0.256
	C427.913,409.781,428.01,409.818,428.065,409.781"/>
<path fill="#020303" d="M454.462,415.932c-0.024-0.061-0.165-0.079-0.403-0.024c-0.232,0.049-0.549,0.165-0.915,0.342
	c-0.738,0.36-1.69,0.958-2.636,1.758c-0.476,0.403-0.903,0.818-1.257,1.239c-0.354,0.421-0.641,0.842-0.806,1.257
	c-0.079,0.214-0.128,0.421-0.128,0.629c0,0.201,0.073,0.384,0.165,0.5c0.098,0.116,0.195,0.165,0.269,0.183
	c0.067,0.018,0.116,0.006,0.134-0.018c0.043-0.055-0.049-0.171-0.067-0.336c-0.012-0.079,0-0.165,0.037-0.275
	c0.037-0.11,0.11-0.238,0.201-0.384c0.195-0.287,0.494-0.616,0.854-0.964c0.354-0.354,0.775-0.726,1.227-1.104
	c0.903-0.763,1.758-1.428,2.374-1.91c0.305-0.244,0.555-0.44,0.72-0.586C454.395,416.091,454.486,415.993,454.462,415.932"/>
<path fill="#020303" d="M443.118,409.151c-0.067-0.006-0.146,0.086-0.214,0.275c-0.067,0.183-0.128,0.458-0.171,0.787
	c-0.098,0.659-0.134,1.569-0.177,2.551c-0.043,0.976-0.098,1.855-0.256,2.399c-0.079,0.275-0.177,0.439-0.281,0.543
	c-0.098,0.104-0.201,0.159-0.201,0.226l0.085,0.092c0.055,0.024,0.146,0.043,0.269,0.024c0.122-0.024,0.269-0.085,0.397-0.195
	c0.134-0.104,0.25-0.244,0.348-0.409c0.201-0.329,0.342-0.738,0.433-1.184c0.098-0.452,0.153-0.94,0.171-1.452
	c0.049-1.025-0.024-1.941-0.104-2.588c-0.043-0.33-0.092-0.592-0.134-0.775C443.234,409.267,443.185,409.163,443.118,409.151"/>
<path fill="#020303" d="M407.468,416.4c-0.085-0.098-0.409,0.006-0.83,0.317c-0.421,0.317-0.934,0.842-1.33,1.544
	c-0.201,0.348-0.354,0.702-0.452,1.037c-0.098,0.336-0.146,0.653-0.153,0.922c-0.012,0.269,0.024,0.482,0.073,0.628
	c0.049,0.147,0.116,0.226,0.183,0.226c0.134-0.006,0.238-0.299,0.409-0.732c0.171-0.434,0.427-1.007,0.781-1.617
	C406.845,417.498,407.639,416.607,407.468,416.4"/>
</svg>
