<?xml version="1.0" encoding="utf-8"?>
<!-- Generator: Adobe Illustrator 17.0.0, SVG Export Plug-In . SVG Version: 6.00 Build 0)  -->
<!DOCTYPE svg PUBLIC "-//W3C//DTD SVG 1.1//EN" "http://www.w3.org/Graphics/SVG/1.1/DTD/svg11.dtd">
<svg version="1.1" id="Layer_2" xmlns="http://www.w3.org/2000/svg" xmlns:xlink="http://www.w3.org/1999/xlink" x="0px" y="0px"
	 width="1280px" height="800px" viewBox="0 0 1280 800" enable-background="new 0 0 1280 800" xml:space="preserve">
<pattern  x="244.5" y="706.5" width="74" height="125.051" patternUnits="userSpaceOnUse" id="New_Pattern_2" viewBox="33.795 -164.074 74 125.051" overflow="visible">
	<g>
		<polygon fill="none" points="33.795,-164.074 107.795,-164.074 107.795,-39.024 33.795,-39.024 		"/>
		<polygon opacity="0.3" fill="none" stroke="#F7CF28" stroke-width="2" stroke-miterlimit="10" points="140.59,-20.089 
			107.795,-1.155 75,-20.089 75,-57.958 107.795,-76.892 140.59,-57.958 		"/>
		<polygon opacity="0.3" fill="none" stroke="#F7CF28" stroke-width="2" stroke-miterlimit="10" points="66.59,-20.089 
			33.795,-1.155 1,-20.089 1,-57.958 33.795,-76.892 66.59,-57.958 		"/>
		<polygon opacity="0.3" fill="none" stroke="#F7CF28" stroke-width="2" stroke-miterlimit="10" points="103.59,-82.615 
			70.795,-63.68 38,-82.615 38,-120.483 70.795,-139.417 103.59,-120.483 		"/>
		<polygon opacity="0.3" fill="none" stroke="#F7CF28" stroke-width="2" stroke-miterlimit="10" points="140.59,-145.14 
			107.795,-126.206 75,-145.14 75,-183.008 107.795,-201.943 140.59,-183.008 		"/>
		<polygon opacity="0.3" fill="none" stroke="#F7CF28" stroke-width="2" stroke-miterlimit="10" points="66.59,-145.14 
			33.795,-126.206 1,-145.14 1,-183.008 33.795,-201.943 66.59,-183.008 		"/>
	</g>
</pattern>
<rect x="-85" y="-65" fill="#F9EC27" width="1450" height="930"/>
<rect x="-85" y="-83.5" fill="url(#New_Pattern_2)" width="1441.5" height="948.5"/>
<path fill="#FFFFFF" d="M937.362,201.675c-0.285-5.206-4.066-8.074-8.94-8.67c-4.491-0.549-9.898,1.912-13.545,4.308
	c-3.968,2.607-7.056,6.198-9.746,10.063c-2.448,3.517-4.347,7.404-6.074,11.314c-0.884,2.002-1.716,4.028-2.537,6.056
	c-0.326,0.806-0.649,1.614-0.974,2.42c-0.179,0.443-0.359,0.886-0.541,1.328c-0.024,0.058-0.042,0.101-0.06,0.147
	c-0.026,0.059-0.057,0.13-0.099,0.227c-1.11,2.563-0.784,5.474,1.838,7.011c1.57,0.92,3.917,0.888,5.532-0.145
	c1.317,0.551,2.832,0.554,4.252-0.367c5.522-3.586,11.703-5.992,15.769-11.29c3.994-3.094,7.521-6.531,10.617-10.599
	C935.377,210.162,937.597,205.971,937.362,201.675z"/>
<path fill="#FFFFFF" d="M869.341,197.765c1.686-3.31,1.904-7.641,1.822-11.047c-0.108-4.482-0.844-11.175-4.65-14.226
	c-2.816-2.257-7.605-1.838-8.564,2.261c-0.264,1.127-0.529,2.259-0.782,3.393c-1.733,3.047-1.991,6.761-1.484,10.496
	c-0.063,3.871,0.612,7.688,2.663,11.361c-0.435,0.963-0.586,2.076-0.453,3.205c-0.363,3.424,2.523,6.117,6.359,5.517
	c0.131-0.021,0.262-0.041,0.394-0.062c1.695-0.265,3.16-2.008,3.579-3.579c0.142-0.534,0.222-1.053,0.224-1.575
	C869.068,201.608,869.403,199.687,869.341,197.765z"/>
<g opacity="0.22">
	<g>
		<path fill="#231F20" d="M950.19,271.193l4.617,1.319l4.627,1.368c3.081,0.927,6.154,1.881,9.218,2.867l-5.368,17.258
			c-2.97-0.891-5.95-1.753-8.939-2.589l-4.489-1.231l-4.523-1.198L950.19,271.193z"/>
	</g>
	<g>
		<path fill="#231F20" d="M986.95,283.042l4.506,1.684l4.514,1.743c3.002,1.179,5.993,2.393,8.97,3.642l-6.552,16.045
			c-2.874-1.14-5.763-2.247-8.664-3.321l-4.361-1.587l-4.405-1.548L986.95,283.042z"/>
	</g>
	<g>
		<path fill="#231F20" d="M1022.64,298.055l2.17,1.05l2.178,1.072c1.45,0.719,2.894,1.448,4.334,2.187
			c2.88,1.479,5.742,2.998,8.582,4.56l-7.853,14.61c-2.727-1.43-5.476-2.821-8.246-4.175c-1.385-0.677-2.774-1.344-4.169-2.002
			l-4.211-1.954L1022.64,298.055z"/>
	</g>
	<g>
		<path fill="#231F20" d="M1056.683,316.828l2.038,1.303l2.044,1.332c1.358,0.893,2.71,1.797,4.053,2.714
			c2.687,1.834,5.345,3.716,7.968,5.648l-9.274,12.845c-2.501-1.766-5.036-3.489-7.603-5.167c-1.283-0.84-2.574-1.668-3.872-2.486
			l-1.953-1.218l-1.979-1.212L1056.683,316.828z"/>
	</g>
	<g>
		<path fill="#231F20" d="M1088.101,340.049l1.827,1.601l1.829,1.636c1.213,1.098,2.414,2.209,3.604,3.334
			c2.38,2.249,4.711,4.554,6.988,6.915l-10.771,10.582c-2.153-2.147-4.358-4.243-6.612-6.292c-1.127-1.025-2.266-2.037-3.416-3.036
			l-1.733-1.491l-1.767-1.487L1088.101,340.049z"/>
	</g>
	<g>
		<path fill="#231F20" d="M1115.32,368.415l1.494,1.934l1.486,1.979c0.981,1.325,1.944,2.664,2.887,4.018
			c1.887,2.708,3.698,5.473,5.424,8.295l-12.177,7.604c-1.622-2.539-3.324-5.03-5.099-7.473c-0.888-1.221-1.793-2.431-2.716-3.628
			l-1.396-1.784l-1.44-1.789L1115.32,368.415z"/>
	</g>
	<g>
		<path fill="#231F20" d="M1135.882,402.257l0.977,2.257l0.952,2.305c0.621,1.542,1.214,3.096,1.78,4.662
			c1.13,3.129,2.148,6.304,3.043,9.516l-13.078,3.777c-0.859-2.86-1.827-5.69-2.899-8.484c-0.536-1.397-1.097-2.785-1.684-4.163
			l-0.898-2.059l-0.948-2.074L1135.882,402.257z"/>
	</g>
	<g>
		<path fill="#231F20" d="M1146.484,440.662l0.127,1.178l0.126,1.279c0.076,0.834,0.145,1.665,0.206,2.499
			c0.12,1.667,0.205,3.337,0.255,5.007c0.101,3.342,0.061,6.687-0.122,10.025l-12.855-0.583c0.104-2.975,0.081-5.955-0.067-8.929
			c-0.073-1.486-0.179-2.971-0.315-4.454c-0.069-0.741-0.145-1.483-0.227-2.222l-0.127-1.076l-0.15-1.176L1146.484,440.662z"/>
	</g>
	<g>
		<path fill="#231F20" d="M1144.274,480.505l-0.272,1.153l-0.306,1.247c-0.205,0.809-0.417,1.615-0.637,2.42
			c-0.442,1.608-0.917,3.205-1.425,4.793c-1.017,3.173-2.166,6.301-3.441,9.373l-11.243-4.542c1.093-2.787,2.069-5.616,2.925-8.48
			c0.428-1.431,0.825-2.87,1.192-4.317c0.182-0.724,0.358-1.449,0.527-2.175l0.239-1.06l0.249-1.158L1144.274,480.505z"/>
	</g>
	<g>
		<path fill="#231F20" d="M1129.104,517.214l-1.309,2.077c-0.449,0.695-0.903,1.386-1.363,2.073
			c-0.921,1.373-1.867,2.728-2.838,4.064c-1.942,2.672-3.98,5.268-6.105,7.786l-8.767-7.259c1.906-2.35,3.725-4.765,5.45-7.24
			c0.863-1.238,1.702-2.49,2.517-3.758l1.203-1.912l1.181-1.956L1129.104,517.214z"/>
	</g>
	<g>
		<path fill="#231F20" d="M1103.762,547.376l-1.823,1.619l-1.862,1.601c-1.25,1.058-2.515,2.096-3.795,3.113
			c-1.28,1.018-2.576,2.015-3.885,2.991c-1.318,0.982-2.614,1.923-3.986,2.879l-6.158-8.672c1.203-0.876,2.447-1.816,3.644-2.746
			c1.205-0.937,2.396-1.89,3.571-2.862c1.174-0.973,2.334-1.961,3.476-2.968l1.702-1.522l1.691-1.562L1103.762,547.376z"/>
	</g>
	<g>
		<path fill="#231F20" d="M1071.487,569.637l-2.175,1.082l-2.206,1.056c-1.475,0.693-2.959,1.364-4.451,2.013
			c-2.983,1.299-5.996,2.512-9.033,3.648l-3.544-9.195c2.86-1.137,5.687-2.344,8.473-3.626c1.393-0.641,2.776-1.301,4.147-1.98
			l2.048-1.034l2.048-1.072L1071.487,569.637z"/>
	</g>
	<g>
		<path fill="#231F20" d="M1035.143,583.376l-2.29,0.616l-2.361,0.609c-1.562,0.392-3.125,0.772-4.692,1.139
			c-3.133,0.729-6.276,1.4-9.427,2.019l-1.835-8.885c3.038-0.661,6.062-1.372,9.069-2.139c1.503-0.384,3.002-0.782,4.498-1.19
			l2.216-0.62l2.275-0.662L1035.143,583.376z"/>
	</g>
	<g>
		<path fill="#231F20" d="M997.379,590.859l-2.351,0.303l-2.396,0.293c-1.588,0.187-3.177,0.364-4.767,0.533
			c-3.18,0.334-6.361,0.628-9.544,0.882l-0.744-8.256c3.111-0.313,6.216-0.665,9.315-1.055c1.549-0.197,3.096-0.402,4.643-0.617
			l2.302-0.329l2.343-0.351L997.379,590.859z"/>
	</g>
	<g>
		<path fill="#231F20" d="M959.2,593.954l-4.768,0.14l-4.778,0.092c-3.185,0.045-6.37,0.059-9.552,0.043l-0.04-7.507
			c3.136-0.05,6.271-0.128,9.404-0.237l4.697-0.187l4.704-0.235L959.2,593.954z"/>
	</g>
	<g>
		<path fill="#231F20" d="M921.011,593.792l-4.757-0.21l-4.761-0.25c-3.173-0.179-6.344-0.383-9.513-0.612l0.414-6.712
			c3.139,0.161,6.278,0.298,9.418,0.41l4.71,0.149l4.717,0.112L921.011,593.792z"/>
	</g>
	<g>
		<path fill="#231F20" d="M882.991,591.073c-3.136-0.317-6.319-0.661-9.462-1.023c-3.153-0.363-6.303-0.747-9.45-1.151l0.696-5.903
			c3.129,0.336,6.26,0.653,9.392,0.947c3.142,0.296,6.249,0.567,9.407,0.822L882.991,591.073z"/>
	</g>
	<g>
		<path fill="#231F20" d="M845.231,586.238c-3.133-0.482-6.302-0.989-9.438-1.511c-3.144-0.522-6.285-1.064-9.422-1.623l0.855-5.09
			c3.128,0.492,6.259,0.966,9.392,1.42c3.14,0.456,6.255,0.89,9.411,1.309L845.231,586.238z"/>
	</g>
	<g>
		<path fill="#231F20" d="M807.686,579.551c-3.093-0.625-6.211-1.272-9.304-1.932c-3.098-0.66-6.193-1.338-9.284-2.033l0.916-4.282
			c3.089,0.627,6.181,1.238,9.276,1.831c3.101,0.594,6.184,1.168,9.298,1.73L807.686,579.551z"/>
	</g>
	<g>
		<path fill="#231F20" d="M770.598,571.226c-3.064-0.757-6.147-1.535-9.209-2.326c-3.066-0.791-6.128-1.598-9.185-2.422l0.899-3.483
			c3.062,0.757,6.127,1.498,9.196,2.223c3.073,0.726,6.133,1.432,9.22,2.128L770.598,571.226z"/>
	</g>
	<g>
		<path fill="#231F20" d="M733.913,561.35c-3.03-0.884-6.074-1.788-9.1-2.705c-3.029-0.918-6.054-1.85-9.073-2.799l0.817-2.694
			c3.028,0.884,6.062,1.751,9.099,2.603c3.041,0.853,6.073,1.686,9.128,2.509L733.913,561.35z"/>
	</g>
	<g>
		<path fill="#231F20" d="M697.685,549.963c-5.993-2.024-11.969-4.112-17.919-6.264l0.672-1.919
			c5.98,2.026,11.978,3.983,18.002,5.88L697.685,549.963z"/>
	</g>
	<g>
		<path fill="#231F20" d="M661.989,537.044c-5.897-2.284-11.771-4.636-17.614-7.057l0.467-1.161
			c5.883,2.297,11.791,4.523,17.726,6.681L661.989,537.044z"/>
	</g>
	<g>
		<path fill="#231F20" d="M626.938,522.51c-5.779-2.565-11.526-5.205-17.234-7.922l0.198-0.426
			c5.759,2.598,11.553,5.116,17.379,7.559L626.938,522.51z"/>
	</g>
	<g>
		<polygon fill="#231F20" points="592.702,506.189 589.428,504.497 592.737,506.119 		"/>
	</g>
</g>
<g>
	<g>
		<g>
			<path fill="#9D9D9D" d="M918.142,279.377c7.439,3.72,15.623-5.953,20.087-11.904c0.745,9.673-4.464,37.201-18.6,29.017"/>
		</g>
		<g>
			<g>
				<path d="M919.63,296.49c-0.091,0.158,0.016,0.435,0.347,0.802c0.33,0.363,0.879,0.823,1.712,1.262
					c0.832,0.43,1.976,0.853,3.433,0.909c0.725,0.027,1.52-0.048,2.331-0.259c0.812-0.208,1.636-0.552,2.419-1.013
					c1.574-0.925,2.962-2.292,4.141-3.872c1.182-1.586,2.177-3.395,3.026-5.341c0.85-1.95,1.557-4.04,2.136-6.235
					c0.29-1.097,0.547-2.22,0.771-3.366c0.112-0.574,0.215-1.152,0.31-1.737l0.135-0.881l0.13-0.949
					c0.403-3.142,0.541-6.266,0.331-8.629l-0.289-3.486l-0.152-1.788l-0.154-1.4l-3.455,4.707c-0.56,0.762-1.104,1.513-1.631,2.21
					c-0.527,0.701-1.039,1.357-1.543,1.983c-0.502,0.622-0.998,1.215-1.491,1.776l-1.006,1.138
					c-0.485,0.544-0.966,1.062-1.445,1.548c-1.91,1.951-3.778,3.401-5.447,4.228c-3.337,1.718-5.826,0.674-6.098,1.281
					c-0.068,0.135,0.007,0.344,0.245,0.606c0.239,0.259,0.646,0.574,1.251,0.86c0.602,0.285,1.413,0.533,2.391,0.614
					c0.977,0.085,2.113-0.006,3.299-0.313c2.389-0.607,4.91-2.051,7.311-4.016c0.603-0.49,1.2-1.015,1.793-1.569l0.443-0.42
					l0.112-0.107c0.01-0.006,0.014-0.007,0.018-0.011l0.032-0.015c0.041-0.019,0.075-0.034,0.107-0.046
					c0.121-0.045,0.164-0.027,0.169,0.024c0.001,0.012,0.001,0.021-0.001,0.037l-0.022,0.084c-0.014,0.047-0.028,0.08-0.037,0.101
					c-0.021,0.043-0.03,0.044-0.031,0.042l-0.101,0.753l-0.119,0.807c-0.084,0.536-0.172,1.067-0.266,1.593
					c-0.187,1.053-0.397,2.085-0.626,3.089c-0.461,2.011-1.002,3.918-1.628,5.666c-0.625,1.747-1.335,3.34-2.131,4.692
					c-0.795,1.352-1.677,2.457-2.6,3.227c-0.92,0.776-1.875,1.215-2.815,1.413c-0.936,0.202-1.845,0.17-2.611,0.091
					c-0.769-0.081-1.398-0.201-1.854-0.241C920.011,296.296,919.723,296.329,919.63,296.49z"/>
			</g>
		</g>
	</g>
	<g>
		<g>
			<path fill="#F9EC27" d="M912.623,314.634c-26.504,37.871-87.707,55.684-145.444,34.84
				c-43.477-15.695-65.458-67.051-46.233-109.087c19.225-42.037,75.168-73.117,114.018-48.07
				C890.955,228.414,940.954,274.152,912.623,314.634z"/>
		</g>
		<g>
			<path fill="#231F20" d="M914.692,316.097c-1.83,2.58-3.823,5.076-5.932,7.442c-2.113,2.367-4.347,4.621-6.681,6.758
				c-4.678,4.265-9.746,8.078-15.093,11.422c-5.336,3.364-10.955,6.254-16.744,8.723c-5.792,2.469-11.765,4.492-17.849,6.087
				c-12.169,3.196-24.765,4.67-37.339,4.574c-12.579-0.098-25.147-1.81-37.319-5.041c-3.043-0.809-6.063-1.706-9.054-2.697
				c-1.497-0.499-2.968-1.002-4.495-1.576c-1.502-0.565-2.988-1.177-4.456-1.831c-5.872-2.618-11.435-5.942-16.539-9.867
				c-10.22-7.846-18.57-18.087-24.345-29.633c-5.769-11.544-9.013-24.411-9.163-37.417c-0.077-6.498,0.607-13.02,2.063-19.378
				c0.726-3.178,1.647-6.316,2.751-9.387c1.108-3.07,2.413-6.074,3.86-8.973c2.893-5.81,6.39-11.282,10.34-16.379
				c3.947-5.102,8.353-9.829,13.125-14.146c4.772-4.319,9.914-8.233,15.377-11.662c5.46-3.429,11.239-6.393,17.298-8.734
				c6.054-2.342,12.386-4.087,18.893-4.996c6.501-0.916,13.183-1.003,19.771-0.024c3.292,0.487,6.556,1.23,9.737,2.25
				c3.18,1.019,6.278,2.305,9.242,3.84c1.482,0.767,2.932,1.594,4.342,2.481c0.35,0.219,0.708,0.451,1.043,0.672l0.971,0.642
				l1.942,1.291c2.586,1.726,5.158,3.475,7.716,5.247c10.236,7.081,20.204,14.591,29.732,22.69
				c4.756,4.059,9.393,8.274,13.852,12.696c4.456,4.421,8.736,9.05,12.716,13.963c3.977,4.913,7.653,10.118,10.786,15.701
				c3.121,5.58,5.69,11.576,7.136,17.951c0.72,3.183,1.148,6.452,1.223,9.744c0.076,3.291-0.224,6.601-0.9,9.826
				c-0.676,3.227-1.73,6.362-3.094,9.331c-1.364,2.971-3.029,5.779-4.906,8.404L914.692,316.097z M910.548,313.179
				c1.66-2.427,3.1-4.981,4.254-7.641c1.155-2.661,2.019-5.428,2.551-8.253c1.073-5.651,0.766-11.512-0.68-17.139
				c-1.428-5.638-3.894-11.049-6.922-16.151c-3.033-5.108-6.647-9.913-10.559-14.48c-3.92-4.567-8.153-8.894-12.574-13.038
				c-4.423-4.144-9.038-8.103-13.776-11.923c-9.47-7.653-19.439-14.731-29.613-21.515c-2.546-1.691-5.109-3.361-7.687-5.01
				l-1.936-1.232l-0.973-0.616l-0.911-0.565c-1.211-0.74-2.451-1.426-3.716-2.062c-5.061-2.541-10.534-4.205-16.164-4.984
				c-5.631-0.777-11.409-0.682-17.117,0.149c-5.709,0.838-11.353,2.383-16.798,4.501c-10.903,4.243-21.02,10.68-29.816,18.539
				c-2.199,1.968-4.314,4.03-6.334,6.178c-2.024,2.146-3.953,4.377-5.776,6.69c-3.643,4.625-6.867,9.57-9.543,14.771
				c-1.339,2.605-2.525,5.256-3.546,7.975c-1.026,2.718-1.891,5.497-2.585,8.321c-1.39,5.648-2.098,11.473-2.123,17.312
				c-0.019,5.839,0.615,11.694,1.903,17.416c1.286,5.721,3.218,11.31,5.74,16.625c5.028,10.634,12.445,20.18,21.644,27.576
				c4.596,3.7,9.626,6.864,14.97,9.392c1.335,0.633,2.691,1.225,4.063,1.778c1.348,0.545,2.787,1.067,4.207,1.567
				c2.849,1.001,5.729,1.913,8.637,2.731c11.629,3.278,23.676,5.111,35.774,5.391c12.092,0.282,24.236-1.018,35.975-3.939
				c11.73-2.926,23.088-7.492,33.334-13.874C894.677,331.287,903.744,323.035,910.548,313.179z"/>
		</g>
	</g>
	<g>
		<g>
			<path d="M759.043,240.841c-6.524,19.004-21.613,26.013-33.805,21.826c-12.189-4.186-19.452-18.87-12.927-37.873
				c6.525-19.003,25.043-34.894,37.231-30.708C761.734,198.273,765.569,221.84,759.043,240.841z"/>
		</g>
		<g>
			<circle fill="#FFFFFF" cx="747.428" cy="230.278" r="4.305"/>
		</g>
		<g>
			<circle fill="#FFFFFF" cx="735.202" cy="224.686" r="2.557"/>
		</g>
		<g>
			<path fill="#FFFFFF" d="M750.76,204.419c-1.018-1.691-2.536-3.105-4.464-3.986c-5.091-2.329-11.102-0.09-13.43,5
				c-2.074,4.537-0.518,9.811,3.45,12.547c0.483,0.335,1,0.628,1.552,0.881c5.089,2.328,11.097,0.088,13.424-5
				C752.737,210.701,752.423,207.187,750.76,204.419z"/>
		</g>
	</g>
	<g>
		<g>
			<path d="M830.278,216.467c-7.549,21.994-24.407,29.5-38.518,24.653c-14.105-4.844-22.511-21.839-14.96-43.832
				c7.552-21.992,28.376-39.777,42.482-34.933C833.393,167.202,837.833,194.478,830.278,216.467z"/>
		</g>
		<g>
			<circle fill="#FFFFFF" cx="816.836" cy="204.242" r="4.983"/>
		</g>
		<g>
			<circle fill="#FFFFFF" cx="802.687" cy="197.771" r="2.959"/>
		</g>
		<g>
			<path fill="#FFFFFF" d="M820.692,174.314c-1.177-1.958-2.934-3.595-5.167-4.616c-5.891-2.694-12.848-0.102-15.542,5.788
				c-2.4,5.249-0.6,11.353,3.992,14.521c0.559,0.387,1.158,0.727,1.795,1.019c5.891,2.694,12.846,0.101,15.539-5.787
				C822.98,181.584,822.618,177.516,820.692,174.314z"/>
		</g>
	</g>
	<g>
		<g>
			<path fill="none" stroke="#231F20" stroke-width="0.5" stroke-miterlimit="10" d="M907.452,199.08"/>
		</g>
	</g>
	<g>
		<g>
			<path fill="#231F20" d="M827.103,141.05c-0.326,0.175,0.192,1.826,1.197,4.392c1.005,2.566,2.489,6.056,4.17,9.894
				c1.685,3.837,3.251,7.295,4.467,9.769c1.218,2.474,2.093,3.967,2.441,3.844c0.345-0.122,0.094-1.851-0.685-4.526
				c-0.776-2.672-2.082-6.281-3.783-10.157c-1.698-3.877-3.474-7.284-4.924-9.662C828.537,142.226,827.424,140.877,827.103,141.05z"
				/>
		</g>
	</g>
	<g>
		<g>
			<path fill="#231F20" d="M742.29,164.485c-0.232-0.27-2.171,0.907-4.892,3.332c-2.715,2.419-6.182,6.125-9.287,10.77
				c-2.179,3.251-3.869,6.517-5.021,9.397c-0.576,1.439-1.025,2.779-1.356,3.967c-0.166,0.593-0.305,1.149-0.415,1.66
				c-0.057,0.255-0.104,0.5-0.148,0.733l-0.06,0.34c-0.012,0.062-0.014,0.094-0.031,0.178l-0.045,0.223l0.017,0.19l0.009,0.091
				l0.008,0.062l0.001,0.004v0.003c-1.027,0,1.4,0,1.15,0h0l0-0.009l-0.003-0.015l-0.005-0.03l-0.009-0.062l-0.018-0.118
				l-0.071-0.439c-0.049-0.272-0.099-0.503-0.15-0.691c-0.103-0.374-0.21-0.572-0.32-0.572c-0.11,0-0.217,0.198-0.319,0.572
				c-0.051,0.187-0.101,0.418-0.149,0.691l-0.072,0.439l-0.019,0.118l-0.008,0.062l-0.005,0.03l-0.002,0.015v0.009h-0.001
				c-0.249,0,2.178,0,1.15,0v-0.003l0-0.004l0.009-0.062l0.01-0.036l0.016-0.07l0.044-0.077c0.013-0.019,0.04-0.09,0.06-0.134
				l0.132-0.307l0.286-0.667l0.661-1.516c0.48-1.086,1.052-2.316,1.719-3.647c1.332-2.662,3.072-5.715,5.17-8.844
				c2.987-4.47,6.107-8.237,8.419-10.935C741.057,166.439,742.539,164.772,742.29,164.485z"/>
		</g>
	</g>
	<g>
		<path fill="#231F20" d="M861.091,212.83c0.044,0.038,0.124,0.152,0.117,0.144l0.038,0.061l0.058,0.092l0.102,0.17l0.184,0.324
			l0.343,0.647c0.224,0.431,0.446,0.863,0.658,1.297c0.421,0.872,0.829,1.746,1.229,2.626c0.779,1.764,1.539,3.541,2.24,5.338
			c1.412,3.593,2.695,7.239,3.838,10.934c1.138,3.695,2.163,7.431,3.042,11.209c0.882,3.778,1.631,7.592,2.273,11.436
			c1.269,7.686,2.095,15.504,2.168,23.417c0.083,7.906-0.658,15.923-2.582,23.779c-0.963,3.924-2.215,7.802-3.801,11.565
			c-1.572,3.767-3.501,7.404-5.713,10.865c-4.452,6.902-10.241,12.986-16.925,17.633c-6.671,4.68-14.117,7.974-21.728,10.067
			c-7.622,2.091-15.413,3.07-23.137,3.096l-0.203-1.706c7.41-1.776,14.64-3.921,21.419-6.872
			c6.772-2.938,13.083-6.659,18.521-11.274c1.364-1.147,2.667-2.356,3.913-3.614c1.25-1.251,2.441-2.556,3.566-3.912
			c1.122-1.36,2.196-2.755,3.198-4.199c1.007-1.443,1.937-2.937,2.817-4.461c3.526-6.099,5.98-12.806,7.732-19.75
			c1.741-6.954,2.773-14.171,3.313-21.501c0.52-7.333,0.481-14.783-0.06-22.234c-0.265-3.727-0.663-7.454-1.14-11.179
			c-0.48-3.725-1.027-7.453-1.66-11.174c-0.63-3.721-1.315-7.444-2.085-11.158c-0.39-1.855-0.774-3.716-1.208-5.564
			c-0.207-0.928-0.422-1.854-0.652-2.776l-0.343-1.381l-0.183-0.683l-0.094-0.333l-0.045-0.157l-0.021-0.067
			c-0.002-0.008-0.005-0.016-0.004-0.018c-0.022-0.033,0.042,0.055,0.066,0.072L861.091,212.83z"/>
	</g>
	<g>
		<path fill="#231F20" d="M886.358,232.815c0.084,0.08,0.085,0.091,0.112,0.122l0.058,0.07l0.102,0.13l0.19,0.254l0.36,0.51
			c0.236,0.341,0.469,0.683,0.695,1.029c0.447,0.695,0.883,1.396,1.309,2.103c0.838,1.42,1.651,2.857,2.409,4.323
			c0.756,1.466,1.497,2.945,2.183,4.449c0.687,1.504,1.344,3.022,1.973,4.556c1.222,3.078,2.351,6.205,3.297,9.397
			c0.95,3.19,1.748,6.434,2.404,9.719c1.301,6.568,2.021,13.322,1.839,20.144c-0.174,6.813-1.31,13.696-3.607,20.234
			c-1.144,3.267-2.564,6.445-4.244,9.474c-1.672,3.035-3.62,5.909-5.743,8.624c-4.281,5.412-9.359,10.104-14.898,13.997
			c-5.536,3.904-11.5,7.059-17.65,9.582c-6.156,2.521-12.498,4.443-18.935,5.774l-0.397-1.252c5.978-2.601,11.827-5.36,17.397-8.518
			c5.567-3.151,10.862-6.68,15.669-10.698c4.8-4.02,9.127-8.511,12.691-13.505c3.588-4.976,6.385-10.44,8.432-16.185
			c2.043-5.75,3.337-11.791,3.951-17.974c0.611-6.183,0.512-12.505-0.208-18.799c-0.357-3.148-0.871-6.289-1.501-9.417
			c-0.634-3.125-1.348-6.25-2.208-9.342c-0.413-1.552-0.858-3.098-1.333-4.637c-0.476-1.537-0.955-3.079-1.481-4.606
			c-0.525-1.526-1.057-3.055-1.637-4.567c-0.284-0.759-0.576-1.513-0.882-2.263l-0.462-1.121L886,233.869l-0.123-0.269l-0.061-0.128
			l-0.027-0.057c-0.002-0.01-0.029-0.042,0.018,0.003L886.358,232.815z"/>
	</g>
	<g>
		<g>
			<path d="M897.807,236.242c-0.062,0.165,0.296,0.518,1.137,0.883c0.838,0.362,2.179,0.699,3.918,0.709
				c1.737,0.017,3.848-0.291,6.165-1.005c2.318-0.711,4.842-1.811,7.462-3.298c2.62-1.487,5.34-3.355,8.056-5.61
				c2.714-2.26,5.434-4.899,7.98-8.002c1.27-1.554,2.495-3.226,3.618-5.048c1.118-1.824,2.147-3.798,2.921-6.004
				c0.384-1.102,0.704-2.265,0.901-3.5c0.195-1.234,0.27-2.546,0.114-3.909c-0.153-1.358-0.558-2.771-1.265-4.057
				c-0.699-1.289-1.689-2.416-2.795-3.295c-0.289-0.229-0.528-0.403-0.791-0.589c-0.26-0.182-0.523-0.362-0.794-0.532
				c-0.541-0.342-1.102-0.66-1.684-0.945c-1.162-0.571-2.406-1.013-3.687-1.28c-1.283-0.269-2.597-0.363-3.875-0.291
				c-1.278,0.071-2.519,0.302-3.689,0.645c-2.346,0.69-4.399,1.798-6.215,3.036c-1.818,1.246-3.411,2.636-4.85,4.068
				c-2.873,2.873-5.154,5.906-7.092,8.837c-1.931,2.938-3.502,5.794-4.798,8.462c-2.583,5.34-4.09,9.927-4.673,13.252
				c-0.285,1.662-0.341,3.019-0.103,3.988c0.12,0.495,0.335,0.841,0.568,0.989c0.234,0.152,0.445,0.115,0.52,0.073
				c0.077-0.047,0.025-0.11-0.026-0.296c-0.052-0.188-0.054-0.487,0.01-0.843c0.12-0.743,0.468-1.902,1.033-3.367
				c1.134-2.93,3.1-7.126,5.991-12.015c1.448-2.441,3.132-5.055,5.103-7.714c1.971-2.651,4.229-5.368,6.874-7.83
				c1.322-1.226,2.743-2.384,4.266-3.369c1.52-0.984,3.148-1.793,4.822-2.251c1.674-0.461,3.376-0.554,5.028-0.19
				c0.827,0.181,1.641,0.473,2.439,0.869c0.399,0.197,0.794,0.421,1.18,0.669c0.195,0.122,0.387,0.254,0.577,0.388
				c0.188,0.132,0.394,0.285,0.539,0.399c1.251,1.002,1.927,2.245,2.123,3.813c0.196,1.564-0.116,3.364-0.692,5.101
				c-0.578,1.747-1.408,3.455-2.346,5.074c-0.942,1.621-1.997,3.161-3.104,4.617c-2.22,2.91-4.636,5.483-7.042,7.726
				c-2.412,2.244-4.825,4.156-7.131,5.732c-2.307,1.575-4.51,2.81-6.512,3.705c-2.003,0.899-3.803,1.448-5.3,1.73
				c-1.499,0.289-2.69,0.312-3.516,0.31C898.345,236.07,897.873,236.062,897.807,236.242z"/>
		</g>
	</g>
	<g>
		<g>
			<path d="M861.225,210.929c-0.046,0.165,0.22,0.474,0.942,0.669c0.358,0.09,0.835,0.134,1.389,0.046
				c0.551-0.084,1.17-0.302,1.779-0.658c1.229-0.712,2.388-1.935,3.4-3.471c1.014-1.539,1.905-3.401,2.666-5.51
				c0.76-2.111,1.392-4.474,1.862-7.046c0.467-2.574,0.779-5.357,0.83-8.323c0.025-1.483-0.018-3.012-0.161-4.585
				c-0.145-1.574-0.385-3.191-0.809-4.85c-0.431-1.654-1.02-3.366-2.073-5.059c-0.53-0.842-1.189-1.68-2.047-2.421
				c-0.851-0.741-1.928-1.366-3.104-1.701c-1.175-0.343-2.385-0.389-3.473-0.251c-0.546,0.069-1.066,0.181-1.562,0.319l-0.184,0.053
				l-0.272,0.083c-0.092,0.025-0.188,0.066-0.282,0.11l-0.243,0.112c-0.249,0.119-0.493,0.248-0.731,0.387
				c-0.95,0.556-1.778,1.271-2.452,2.045c-0.677,0.776-1.209,1.604-1.642,2.435c-0.86,1.667-1.342,3.337-1.669,4.943
				c-0.321,1.61-0.473,3.168-0.54,4.673c-0.125,3.009,0.091,5.806,0.441,8.387c0.353,2.58,0.855,4.941,1.421,7.067
				c1.135,4.249,2.541,7.552,3.817,9.693c0.636,1.072,1.238,1.849,1.72,2.32C860.728,210.868,861.077,211.034,861.225,210.929
				c0.299-0.223-0.181-1.432-0.795-3.677c-0.624-2.24-1.418-5.526-2.033-9.641c-0.305-2.056-0.568-4.315-0.712-6.734
				c-0.143-2.414-0.175-4.997,0.06-7.625c0.122-1.313,0.312-2.636,0.617-3.916c0.305-1.277,0.725-2.519,1.305-3.571
				c0.579-1.056,1.307-1.874,2.148-2.348c0.105-0.06,0.215-0.115,0.325-0.167c0.011-0.004,0.034-0.015,0.034-0.014l-0.004,0.004
				c-0.005,0.002-0.01,0.002-0.005,0.002c0.006,0-0.006,0.001,0.014-0.005l0.103-0.028c0.274-0.075,0.54-0.128,0.793-0.157
				c0.509-0.06,0.95-0.028,1.341,0.086c0.392,0.114,0.755,0.311,1.122,0.62c0.362,0.309,0.718,0.729,1.037,1.225
				c0.644,0.998,1.138,2.26,1.505,3.566c0.368,1.312,0.618,2.682,0.792,4.046c0.174,1.366,0.269,2.732,0.312,4.071
				c0.082,2.682-0.045,5.261-0.294,7.658c-0.251,2.398-0.629,4.616-1.098,6.595c-0.469,1.979-1.032,3.72-1.662,5.15
				c-0.629,1.43-1.334,2.539-2.033,3.251C862.721,210.778,861.31,210.536,861.225,210.929z"/>
		</g>
	</g>
	<g>
		<g>
			<path d="M910.33,220.6c-0.188-0.308-1.402,0.02-3.119,1.007c-1.715,0.982-3.893,2.65-5.971,4.8
				c-2.085,2.147-3.686,4.331-4.683,6.01c-0.998,1.681-1.404,2.853-1.107,3.064c0.303,0.215,1.247-0.561,2.596-1.909
				c1.351-1.347,3.115-3.259,5.106-5.308c1.987-2.054,3.841-3.838,5.194-5.151C909.692,221.798,910.526,220.92,910.33,220.6z"/>
		</g>
	</g>
	<g>
		<g>
			<path d="M862.714,194.561c-0.36-0.062-0.825,0.63-1.215,1.832c-0.392,1.2-0.69,2.906-0.767,4.79
				c-0.078,1.885,0.062,3.58,0.297,4.8c0.238,1.22,0.572,1.97,0.94,1.97c0.368,0.001,0.699-0.753,0.945-1.964
				c0.246-1.21,0.405-2.872,0.48-4.694c0.074-1.821,0.067-3.463-0.026-4.675C863.274,195.411,863.079,194.623,862.714,194.561z"/>
		</g>
	</g>
	<g>
		<path fill="#A5499A" d="M837.227,237.494c-1.47,0.882-2.184,2.309-3.112,3.69c-0.75,1.114-1.689,1.232-2.69,1.029
			c-1.382-1.097-3.519-2.213-4.716-1.38c-0.166,0.012-0.329,0.053-0.468,0.141c-0.341,0.215-0.487,0.531-0.595,0.882
			c-0.748,0.617-1.21,1.535-1.279,2.559c-0.073,1.109,0.41,2.03,1.31,2.671c0.179,0.127,0.404,0.248,0.648,0.37
			c0.167,0.28,0.391,0.524,0.674,0.722c0.162,0.426,0.258,0.882,0.256,1.377c-0.008,1.727-1.987,2.527-3.325,2.959
			c-0.953,0.307-1.905,1.077-2.283,2.016c-0.295,0.73-0.07,1.697-0.147,2.507c-0.154,0.283-0.296,0.573-0.441,0.863
			c-0.331,0.199-0.658,0.441-0.973,0.731c-0.868,0.795-1.565,1.782-2.293,2.7c-0.342,0.432-0.698,0.854-1.078,1.256
			c-0.199,0.209-0.84,0.631-0.745,0.645c-0.569-0.086,0.325-2.186,0.413-2.504c0.285-1.031,0.201-2.455-0.885-3.011
			c-1.208-0.619-3.043-0.736-4.25-0.025c-1.38,0.813-1.838,2.159-2.167,3.651c-0.399,1.82-0.965,3.187-2.938,3.627
			c-0.311-0.042-0.629-0.05-0.932-0.017c-0.342,0.037-0.699,0.097-1.061,0.172c-1.282-0.037-2.601-0.249-3.829-0.235
			c-3.701,0.041-6.149,2.137-7.513,5.444c-1.3,3.154-1.217,7.21-3.671,9.795c-0.076,0.08-0.157,0.156-0.24,0.229
			c-0.985,0.529-2.103,0.752-3.341,0.443c-2.495-0.621-3.201-3.394-5.182-4.668c-1.736-1.116-3.873-0.667-5.173,0.908
			c-0.913,1.105-1.139,2.576-1.132,4.017c-0.064,0-0.13,0.001-0.194,0.002c-0.519-0.266-1.062-0.48-1.664-0.551
			c-2.564-0.302-4.516,1.304-6.886,1.942c-2.555,0.686-4.46-1.572-6.502-2.917c-0.55-0.739-1.255-1.271-2.365-1.269
			c-1.234,0.004-2.466,0.931-3.525,2.079c-1.143,1.017-2.344,2.029-3.815,1.259c-2.1-1.099-3.6-3.388-5.605-4.709
			c-1.618-1.065-3.402-0.789-5.213-0.627c-1.618,0.144-2.84,0.478-3.894,1.449c-0.201,0.104-0.4,0.213-0.598,0.33
			c-0.104,0.06-0.191,0.137-0.265,0.224c-0.097,0.049-0.195,0.098-0.293,0.147c-1.288,0.645-0.157,2.569,1.126,1.928l0.096-0.047
			c0.078,0.008,0.159,0.01,0.238,0.001c-0.024,0.275,0.076,0.56,0.36,0.802c2.886,2.454,6.922,3.141,10.536,3.821
			c0.152,0.028,0.298,0.023,0.437-0.007c0.138,0.088,0.272,0.181,0.412,0.266c0.364,0.223,0.752,0.181,1.066,0.002
			c1.691,0.664,3.536,1.044,5.318,1.262c1.078,0.132,2.361,0.27,3.538,0.087c3.276,0.307,6.631,0.258,10.005,0.067
			c4.804,1.366,10.05,0.311,14.848-0.86c0.392,0.131,0.798,0.219,1.193,0.271c2.531,0.337,5.149-0.39,7.535-1.175
			c2.299-0.756,4.553-1.738,6.686-2.877c2.607-1.392,4.906-3.278,7.137-5.217c0.037-0.021,0.074-0.04,0.11-0.061
			c0.015-0.009,0.031-0.02,0.046-0.029c3.245-1.53,6.149-3.742,8.786-6.153c0.329-0.3,0.398-0.67,0.307-1.002
			c0.212-0.165,0.418-0.331,0.618-0.495c0.4,0.255,0.925,0.272,1.306-0.177c0.285-0.336,0.521-0.677,0.733-1.032
			c1.767-1.119,3.289-2.58,4.864-3.973c0.055,0,0.11-0.004,0.165-0.015c0.33,0.183,0.741,0.217,1.081-0.014
			c2.681-1.816,5.223-3.918,6.465-6.99c0.1-0.247,0.079-0.491-0.019-0.707c0.076-0.152,0.096-0.32,0.077-0.488
			c2.039-2.574,3.866-5.331,5.483-8.194c1.988-2.582,2.99-5.769,4.947-8.387C839.446,238.092,838.129,236.95,837.227,237.494z
			 M745.174,281.085c-0.019-0.016-0.039-0.029-0.056-0.046c-0.666-0.58-1.309-1.216-1.976-1.82c0.749,0.536,1.456,1.238,2.107,1.908
			C745.225,281.112,745.2,281.099,745.174,281.085z"/>
	</g>
	<g>
		<path fill="#A5499A" d="M818.861,250.503c-0.341-0.378-0.926-0.405-1.351-0.175c-0.843,0.454-1.32,1.077-1.63,1.97
			c-0.098,0.284-0.078,0.532,0.013,0.738c-0.014,0.23,0.005,0.435,0.042,0.693c0.063,0.462,0.363,0.908,0.617,1.289
			c0.008,0.013,0.019,0.023,0.028,0.036c0.197,0.806,1.477,1.256,2.085,0.336C819.706,253.808,820.272,252.058,818.861,250.503z"/>
	</g>
	<g>
		<path fill="#A5499A" d="M784.73,273.439c-0.011-0.177-0.014-0.353-0.02-0.53c-0.014-0.508-0.027-1.017-0.051-1.525
			c-0.049-0.989-0.042-2.252-0.722-3.045c-1.061-1.239-2.287,0.221-2.727,1.177c-0.766,1.66,0.315,3.508,1.302,4.846
			c0.316,0.428,0.816,0.669,1.317,0.496C784.466,274.742,785.011,274.127,784.73,273.439z"/>
	</g>
	<g>
		<path fill="#A5499A" d="M853.567,251.247c0.485-0.277,0.969-0.535,1.425-0.86c0.918-0.656,1.363-1.485,1.503-2.585
			c0.285-2.235-2.026-3.31-3.805-3.593c-2.432-0.386-5.151-0.262-6.013-3.073c-0.42-1.372-2.575-0.788-2.152,0.593
			c0.187,0.612,0.437,1.157,0.744,1.636c-0.665,0.251-1.098,1.141-0.458,1.831c0.791,0.854,1.297,1.897,1.655,3
			c-0.031,0.06-0.059,0.123-0.082,0.192c-0.124,0.372-0.248,0.745-0.372,1.116c-0.185,0.556,0.062,0.978,0.448,1.197
			c-0.003,0.626-0.04,1.253-0.117,1.89c-0.052,0.486,0.172,0.802,0.492,0.954c0.011,0.31,0.037,0.621,0.082,0.935
			c-0.361,0.234-0.617,0.658-0.534,1.198c0.452,2.978,1.045,5.985,1.284,9c-0.372,1.936-0.344,4.012-0.244,5.883
			c-0.017,0.044-0.033,0.088-0.05,0.133c-0.457,0.081-0.848,0.429-0.844,1.056c0.005,0.483,0.015,0.967,0.031,1.449
			c-0.138,0.544-0.25,1.097-0.329,1.663c-0.341,2.483-0.311,5.046-0.037,7.559c-0.024,0.093-0.039,0.192-0.037,0.302
			c0.01,0.557,0.086,1.061,0.226,1.599c0.025,0.096,0.064,0.179,0.108,0.257c0.027,0.162,0.05,0.326,0.078,0.486
			c0.023,0.128,0.073,0.234,0.133,0.33c-0.017,0.071-0.034,0.143-0.049,0.213c-1.256,1.869-1.422,4.506-1.489,6.641
			c-0.008,0.278-0.01,0.557-0.012,0.838c-0.69,2.253-1.299,4.666-1.425,7.028c-0.66,1.581-1.203,3.216-1.807,4.818
			c-0.256,0.675,0.258,1.222,0.852,1.364c-0.254,0.258-0.5,0.529-0.739,0.817c-0.552,0.668-0.972,1.387-1.296,2.141
			c-0.48-0.685-1.62-0.622-1.979,0.329c-0.154,0.436-0.364,0.844-0.632,1.221c-0.4,0.643-0.056,1.253,0.468,1.515
			c-0.146,0.95-0.382,1.888-0.616,2.828c-0.218-0.007-0.445,0.04-0.651,0.137c-0.389-0.428-1.11-0.475-1.629-0.056
			c-1.511,1.212-2.579,3.04-3.163,4.989c-0.497,0.488-0.95,1.026-1.339,1.596c-0.051,0.033-0.1,0.068-0.147,0.11
			c-1.191,1.063-2.236,2.23-3.078,3.567c-1.43,0.652-2.66,1.624-3.709,2.783c-0.122-0.105-0.264-0.175-0.418-0.206
			c-0.276-0.117-0.603-0.138-0.94,0.006c-0.445,0.191-0.882,0.4-1.315,0.618c-0.181,0-0.365,0.037-0.546,0.125
			c-0.122,0.06-0.237,0.127-0.358,0.189c-0.147-0.014-0.31,0.004-0.491,0.071c-1.244,0.462-2.303,1.06-3.281,1.961
			c-0.072,0.065-0.126,0.14-0.172,0.216c-7.464,4.122-16.078,4.304-24.592,4.692c-0.571,0.026-1.141,0.057-1.713,0.089
			c-0.439-0.144-0.896-0.248-1.365-0.319c-0.82-0.125-1.584-0.037-2.303,0.188c-1.127-0.376-2.07-0.195-2.872,0.44
			c-0.678,0.013-1.357,0.019-2.038,0.007c-2.101-1.069-4.652-1.459-6.939-1.362c-0.218,0.01-0.409,0.076-0.569,0.178
			c-0.904-0.408-1.718-0.958-2.363-1.71c-0.568-0.665-1.32-0.362-1.664,0.221c-0.107-0.132-0.213-0.264-0.324-0.39
			c-1.633-1.862-3.741-2.593-6.166-2.164c-1.415,0.249-0.813,2.401,0.595,2.151c2.341-0.413,3.759,1.18,5.045,2.894
			c1.232,1.643,2.383,3.304,4.138,4.434c0.554,0.358,1.174,0.069,1.527-0.399c0.388-0.516,1.305-1.945,2.143-1.523
			c0.553,0.278,0.98,0.932,1.359,1.399c0.984,1.216,2.27,2.093,3.215,3.304c1.022,1.306,2.309,1.778,3.911,1.261
			c1.336-0.43,2.271-1.554,2.059-2.985c-0.087-0.585-0.314-1.11-0.534-1.655c-0.314-0.782-0.277-0.699,0.661-1.087
			c1.272-0.527,2.777,1.495,3.76,2.087c3.166,1.906,7.019-0.594,10.065-1.422c4.122-1.12,8.275,0.701,12.36-1.001
			c1.81-0.755,3.099-1.892,4.463-3.265c1.65-1.659,3.132-2.835,5.58-2.241c1.818,0.443,3.021,3.516,5.095,2.551
			c1.223-0.567,2.049-2.006,2.784-3.062c0.586-0.842,0.978-1.751,1.363-2.696c0.408-1.001,1.038-3.431,2.215-3.848
			c4.311-1.527,5.922-4.892,6.159-9.211c0.113-2.075,0.096-4.119,0.747-6.118c0.739-2.27,2.633-3.806,4.689-4.827
			c1.732-0.861,3.517-1.615,4.774-3.15c1.284-1.569,1.835-4.057,1.054-5.959c-0.407-0.989-1.19-1.756-1.919-2.512
			c-0.998-1.033-1.194-2.383-0.839-3.749c0.059-0.225,0.121-0.446,0.184-0.665c1.425-1.296,1.973-2.802,2.065-4.42
			c0.246-1.113,0.322-2.252,0.227-3.39c0.078-1.031-0.053-2.069-0.483-3.109c0-0.015,0-0.032,0-0.046
			c-0.01-2.281-1.2-4.549-0.65-6.841c0.226-0.942,0.62-1.83,1.084-2.697c0.852-1.334,1.765-2.655,2.357-4.102
			c0.201-0.397,0.386-0.8,0.542-1.211c0.93-2.447-0.31-4.508-1.419-6.63c-0.64-1.226-1.041-2.638-1.88-3.746
			c-0.047-0.061-0.087-0.114-0.121-0.162c0.119-0.308,0.271-0.616,0.382-0.907C852.873,251.829,852.884,251.639,853.567,251.247z"/>
	</g>
	<g>
		<path fill="#A5499A" d="M857.984,292.422c-0.075-0.609-0.317-1.216-0.631-1.703c-0.078-0.12-0.172-0.211-0.272-0.29
			c-0.069-0.271-0.232-0.511-0.501-0.669c-0.12-0.07-0.252-0.112-0.387-0.133c-0.13-0.173-0.333-0.303-0.623-0.35
			c-0.281-0.047-0.564-0.063-0.842-0.048c-0.018-0.007-0.035-0.015-0.053-0.022c-0.615-0.221-1.289-0.093-1.836,0.234
			c-0.466,0.092-0.809,0.508-0.862,1.005c-0.003,0.008-0.005,0.017-0.009,0.025c-0.457,0.382-0.648,1.07-0.092,1.595
			c0.004,0.034,0.009,0.068,0.016,0.101c0.08,1.145,0.91,2.178,1.938,2.736c1.131,0.614,2.475,0.448,3.437-0.382
			c0.1-0.085,0.184-0.179,0.261-0.275c0.199-0.072,0.357-0.216,0.468-0.399C858.312,293.443,858.344,292.795,857.984,292.422z"/>
	</g>
	<g>
		<path fill="#A5499A" d="M848.909,310.702c-0.265-0.734-0.946-0.969-1.639-0.668c-1.726,0.75-2.656,2.133-2.81,3.802
			c-0.272,0.945-0.322,1.788,0.177,2.933c0.25,0.571,1.041,0.661,1.528,0.399C848.512,315.909,849.85,313.302,848.909,310.702z"/>
	</g>
	<g>
		<path fill="#A5499A" d="M823.415,339.325c0.1-0.511,0.223-1.019,0.237-1.543c0.022-0.728-0.728-1.266-1.412-1.076
			c-0.762,0.211-1.384,0.581-1.688,1.335c-0.013,0.033-0.022,0.069-0.033,0.103c-0.44,0.411-0.513,1.105-0.171,1.749
			c0.052,0.273,0.207,0.52,0.482,0.692c0.174,0.207,0.361,0.405,0.546,0.59c0.698,0.701,1.885,0.174,1.904-0.79
			c0.005-0.243,0.035-0.483,0.073-0.722C823.385,339.552,823.406,339.439,823.415,339.325z"/>
	</g>
	<g>
		<path fill="#A5499A" d="M798.653,343.774c-0.418-0.08-0.823-0.139-1.22-0.178c-0.331-0.597-1.14-0.929-1.726-0.278
			c-0.088,0.097-0.17,0.198-0.249,0.3c-0.706,0.097-1.407,0.296-2.129,0.641c-0.993,0.472-0.563,1.705,0.27,1.987
			c-0.08,0.719,0.442,1.471,1.334,1.169c1.264-0.429,2.481-0.991,3.72-1.488C799.566,345.559,799.857,344.006,798.653,343.774z"/>
	</g>
	<g>
		<g id="XMLID_1_">
			<g>
				<path fill="#FFFFFF" d="M843.879,241.064c0.089,1.473,0.216,3.17,0.36,5.068c-0.242,0.807-0.519,1.833-0.848,3.049
					c-0.465,1.692-1.023,3.761-1.789,6.105c-0.766,2.344-1.741,4.966-3.102,7.708c-1.358,2.741-3.121,5.594-5.39,8.355
					c-2.266,2.76-5.041,5.413-8.273,7.835c-6.499,4.903-14.463,9.232-23.336,12.451c-11.287,4.11-22.563,5.96-32.379,6.492
					c-4.951,0.271-9.497,0.364-13.5-0.045c-1.998-0.201-3.854-0.524-5.52-0.994c-0.834-0.234-1.618-0.505-2.348-0.814
					c-0.364-0.153-0.715-0.317-1.049-0.492l-0.331-0.166c-0.078-0.042-0.163-0.082-0.238-0.131c-0.064-0.185-0.26-1.291-0.401-2.016
					l-0.428-2.199c-0.275-1.366-0.521-2.526-0.74-3.468c-0.116-0.491-0.22-0.923-0.32-1.287c0.524,0.175,1.06,0.346,1.607,0.51
					c6.153,1.87,13.869,3.042,22.399,2.593c8.522-0.42,17.815-2.456,26.873-6.269c9.074-3.798,17.008-8.962,23.432-14.515
					c6.44-5.554,11.369-11.499,14.877-16.856c3.518-5.368,5.651-10.122,6.863-13.471c0.379-1.056,0.674-1.975,0.893-2.737
					c0.874,0.052,1.704,0.212,2.47,0.45C843.67,237.374,843.745,239,843.879,241.064z"/>
			</g>
			<g>
				<path fill="#9F1D4D" d="M845.143,259.494c0.193,3.876,0.327,8.125,0.238,12.663c-0.037,1.793-0.112,3.631-0.235,5.505
					c-0.09-0.003-0.182-0.007-0.279-0.011c-1.227-0.022-3.013,0.16-5.142,0.785c-2.117,0.625-4.576,1.704-7.004,3.401
					c-2.429,1.693-4.817,4.021-6.697,6.916c-1.889,2.886-3.05,6.023-3.611,8.92c-0.097,0.494-0.175,0.979-0.242,1.454
					c-1.008,0.145-2.336,0.57-3.732,1.436c-1.611,0.986-3.266,2.541-4.68,4.527c-1.416,1.984-2.607,4.381-3.444,7.02
					c-1.684,5.282-1.614,10.479-0.554,14.01c0.521,1.766,1.265,3.102,1.931,3.903c0.093,0.111,0.182,0.215,0.272,0.304
					c-2.366,0.841-4.747,1.51-7.099,2.039c-4.91,1.097-9.709,1.584-14.206,1.685c-0.606,0.011-1.205,0.019-1.799,0.019
					c-0.013-1.091-0.128-2.545-0.352-4.293c-0.256-1.972-0.669-4.308-1.31-6.878c-0.643-2.567-1.51-5.368-2.719-8.217
					c-1.212-2.849-2.67-5.476-4.311-7.671c-1.637-2.203-3.464-3.954-5.201-5.145c-0.304-0.212-0.606-0.405-0.904-0.579
					c8.94-0.615,18.843-2.411,28.757-6.024c9.22-3.341,17.499-7.964,24.192-13.257c3.378-2.66,6.282-5.61,8.608-8.672
					c2.332-3.057,4.081-6.209,5.36-9.192c1.281-2.984,2.11-5.793,2.703-8.271c0.408-1.729,0.706-3.303,0.933-4.69
					C844.797,253.713,844.984,256.495,845.143,259.494z"/>
			</g>
			<g>
				<path fill="#D91D3F" d="M845.04,279.165c-0.187,2.403-0.462,4.866-0.849,7.373c-0.767,5.008-1.999,10.19-3.847,15.357
					c-0.46,1.294-0.96,2.582-1.502,3.872c-0.529,1.287-1.108,2.523-1.756,3.758c-1.294,2.451-2.857,4.806-4.672,6.997
					c-3.631,4.389-8.106,7.867-12.865,10.442c-2.094,1.139-4.233,2.101-6.398,2.927c-0.175-0.908-0.558-2.358-0.707-4.292
					c-0.13-1.585-0.123-3.49,0.115-5.592c0.235-2.101,0.7-4.399,1.436-6.725c0.74-2.329,1.686-4.453,2.743-6.243
					c1.055-1.792,2.225-3.236,3.348-4.295c0.667-0.637,1.313-1.135,1.89-1.533c-0.09,1.536-0.035,2.953,0.1,4.211
					c0.234,2.18,0.688,3.887,1.113,5.029c0.427,1.142,0.828,1.719,1.086,1.663c0.264-0.056,0.36-0.741,0.394-1.913
					c0.037-1.172,0.016-2.838,0.138-4.851c0.123-2.009,0.402-4.374,1.079-6.878c0.669-2.504,1.759-5.137,3.378-7.615
					c1.611-2.477,3.579-4.546,5.591-6.172c2.012-1.629,4.058-2.823,5.851-3.697C842.457,280.136,843.968,279.582,845.04,279.165z"/>
			</g>
			<g>
				<path fill="#231F20" d="M851.229,240.603c0.045,0.764-0.1,1.21-0.353,1.284c-0.26,0.078-0.599-0.216-1.049-0.748
					c-0.452-0.528-1.012-1.291-1.771-2.091c-0.756-0.797-1.715-1.615-2.917-2.225c-0.186-0.093-0.376-0.183-0.573-0.267
					c-0.327-1.537-0.569-2.345-0.726-2.326c-0.142,0.015-0.2,0.704-0.182,1.991c-0.766-0.238-1.596-0.398-2.47-0.45
					c0.473-1.667,0.588-2.6,0.42-2.656c-0.193-0.067-0.699,0.885-1.592,2.645c-1.246,0.048-2.44,0.297-3.477,0.67
					c-1.287,0.464-2.318,1.12-3.014,1.792c-0.704,0.674-1.079,1.373-1.321,1.946c-0.245,0.57-0.387,0.994-0.654,1.05
					c-0.25,0.052-0.629-0.271-0.848-1.091c-0.109-0.404-0.152-0.933-0.071-1.543c0.082-0.606,0.302-1.284,0.674-1.954
					c1.491-2.719,5.361-4.906,9.776-4.731c2.203,0.077,4.301,0.789,5.897,1.878c1.615,1.086,2.698,2.488,3.335,3.727
					C850.947,238.755,851.185,239.844,851.229,240.603z"/>
			</g>
			<g>
				<path fill="#231F20" d="M846.802,278.149c0.027,0.268-0.595,0.565-1.677,0.982c-0.026,0.012-0.055,0.023-0.085,0.034
					c0.041-0.501,0.078-1.004,0.107-1.503C846.204,277.711,846.78,277.908,846.802,278.149z"/>
			</g>
			<g>
				<path fill="#231F20" d="M788.442,336.295c0.283-0.057,0.428-0.849,0.418-2.225c0.594,0,1.193-0.008,1.799-0.019
					c4.497-0.101,9.295-0.589,14.206-1.685c2.352-0.528,4.733-1.198,7.099-2.039c0.538,0.569,0.967,0.763,1.149,0.635
					c0.174-0.126,0.149-0.486,0.037-1.071c2.165-0.827,4.304-1.788,6.398-2.927c4.759-2.575,9.234-6.053,12.865-10.442
					c1.814-2.192,3.378-4.547,4.672-6.997c0.648-1.235,1.227-2.471,1.756-3.758c0.542-1.29,1.042-2.578,1.502-3.872
					c1.848-5.167,3.08-10.349,3.847-15.357c0.386-2.507,0.662-4.97,0.849-7.373c0.03-0.011,0.059-0.022,0.085-0.034
					c1.082-0.416,1.704-0.714,1.677-0.982c-0.022-0.241-0.599-0.438-1.655-0.487c0.123-1.874,0.198-3.712,0.235-5.505
					c0.089-4.538-0.046-8.787-0.238-12.663c-0.16-2.998-0.346-5.78-0.528-8.313c0.092-0.602,0.179-1.169,0.249-1.7
					c0.461-3.524,0.52-5.484,0.267-5.532c-0.174-0.033-0.468,0.733-0.893,2.185c-0.145-1.898-0.271-3.595-0.36-5.068
					c-0.134-2.065-0.209-3.69-0.22-4.843c0.317,0.1,0.618,0.212,0.908,0.335c0.231,1.089,0.499,2.544,0.808,4.333
					c0.722,4.315,1.725,10.572,2.492,18.402c0.372,3.914,0.671,8.228,0.715,12.883c0.048,4.65-0.163,9.646-0.867,14.869
					c-0.7,5.223-1.908,10.665-3.802,16.108c-0.469,1.358-0.986,2.723-1.54,4.074c-0.55,1.361-1.187,2.741-1.882,4.084
					c-1.406,2.686-3.11,5.275-5.104,7.678c-3.98,4.814-8.894,8.582-14.046,11.309c-5.156,2.738-10.536,4.484-15.728,5.546
					c-5.205,1.061-10.241,1.447-14.929,1.41c-0.777-0.007-1.544-0.026-2.302-0.055l0.029-0.901
					C788.42,336.298,788.432,336.298,788.442,336.295z"/>
			</g>
			<g>
				<path fill="#231F20" d="M845.132,243.948c0.253,0.048,0.194,2.009-0.267,5.532c-0.07,0.531-0.157,1.098-0.249,1.7
					c-0.131-1.812-0.257-3.501-0.376-5.048C844.663,244.68,844.958,243.915,845.132,243.948z"/>
			</g>
			<g>
				<path fill="#231F20" d="M843.841,234.231c0.156-0.019,0.398,0.789,0.726,2.326c-0.289-0.123-0.591-0.235-0.908-0.335
					C843.641,234.935,843.699,234.246,843.841,234.231z"/>
			</g>
			<g>
				<path fill="#231F20" d="M841.609,233.115c0.168,0.056,0.053,0.989-0.42,2.656c-0.085-0.008-0.174-0.011-0.26-0.015
					c-0.305-0.011-0.611-0.011-0.912,0.004C840.91,234,841.416,233.048,841.609,233.115z"/>
			</g>
			<g>
				<path fill="#231F20" d="M840.929,235.756c0.086,0.004,0.175,0.007,0.26,0.015c-0.219,0.763-0.513,1.681-0.893,2.737
					c-1.212,3.349-3.345,8.102-6.863,13.471c-3.508,5.357-8.438,11.302-14.877,16.856c-6.424,5.553-14.359,10.717-23.432,14.515
					c-9.058,3.813-18.351,5.849-26.873,6.269c-8.53,0.449-16.246-0.723-22.399-2.593c-0.547-0.164-1.083-0.335-1.607-0.51
					c-0.275-1.049-0.483-1.588-0.618-1.573c-0.129,0.015-0.2,0.461-0.208,1.291c-4.969-1.737-8.771-3.821-11.357-5.495
					c-2.994-1.96-4.422-3.337-4.277-3.54c0.159-0.235,1.87,0.717,5.014,2.231c3.141,1.491,7.771,3.512,13.772,4.962
					c5.981,1.463,13.344,2.296,21.461,1.678c8.106-0.594,16.93-2.633,25.601-6.279c8.679-3.639,16.335-8.486,22.629-13.676
					c6.309-5.189,11.257-10.717,14.928-15.698c3.687-4.985,6.12-9.412,7.73-12.51c0.417-0.812,0.783-1.529,1.098-2.147
					C840.318,235.745,840.624,235.745,840.929,235.756z"/>
			</g>
			<g>
				<path fill="#231F20" d="M824.274,299.466c0.056,0.394-0.931,0.796-2.299,1.744c0.032-0.674,0.1-1.369,0.196-2.084
					c0.156-0.022,0.301-0.037,0.439-0.048C823.66,299.004,824.236,299.213,824.274,299.466z"/>
			</g>
			<g>
				<path fill="#231F20" d="M845.147,277.662c-0.029,0.499-0.067,1.002-0.107,1.503c-1.072,0.417-2.583,0.971-4.335,1.823
					c-1.793,0.874-3.84,2.068-5.851,3.697c-2.012,1.626-3.98,3.695-5.591,6.172c-1.619,2.478-2.709,5.111-3.378,7.615
					c-0.677,2.504-0.956,4.87-1.079,6.878c-0.122,2.013-0.101,3.679-0.138,4.851c-0.034,1.172-0.13,1.856-0.394,1.913
					c-0.258,0.056-0.659-0.521-1.086-1.663c-0.425-1.142-0.879-2.849-1.113-5.029c-0.135-1.258-0.19-2.675-0.1-4.211
					c1.368-0.949,2.355-1.35,2.299-1.744c-0.038-0.253-0.614-0.462-1.663-0.387c-0.138,0.011-0.283,0.026-0.439,0.048
					c0.067-0.475,0.145-0.96,0.242-1.454c0.561-2.897,1.722-6.034,3.611-8.92c1.88-2.895,4.268-5.223,6.697-6.916
					c2.429-1.696,4.888-2.775,7.004-3.401c2.129-0.624,3.914-0.807,5.142-0.785C844.965,277.655,845.057,277.659,845.147,277.662z"
					/>
			</g>
			<g>
				<path fill="#231F20" d="M822.172,299.127c-0.096,0.715-0.164,1.41-0.196,2.084c-0.577,0.398-1.224,0.897-1.89,1.533
					c-1.123,1.06-2.292,2.503-3.348,4.295c-1.057,1.79-2.003,3.914-2.743,6.243c-0.736,2.326-1.201,4.625-1.436,6.725
					c-0.238,2.103-0.245,4.007-0.115,5.592c0.149,1.935,0.532,3.385,0.707,4.292c-0.394,0.149-0.789,0.293-1.186,0.435
					c-0.09-0.089-0.179-0.193-0.272-0.304c-0.666-0.801-1.409-2.137-1.931-3.903c-1.06-3.531-1.13-8.728,0.554-14.01
					c0.837-2.638,2.028-5.036,3.444-7.02c1.415-1.987,3.069-3.542,4.68-4.527C819.836,299.697,821.164,299.272,822.172,299.127z"/>
			</g>
			<g>
				<path fill="#231F20" d="M813.151,329.892c0.112,0.584,0.137,0.945-0.037,1.071c-0.182,0.127-0.61-0.066-1.149-0.635
					C812.362,330.185,812.757,330.041,813.151,329.892z"/>
			</g>
			<g>
				<path fill="#231F20" d="M788.861,334.07c0.01,1.376-0.135,2.168-0.418,2.225c-0.01,0.003-0.023,0.003-0.034,0.003
					c-0.323,0-0.766-0.819-1.317-2.251C787.676,334.062,788.264,334.07,788.861,334.07z"/>
			</g>
			<g>
				<path fill="#231F20" d="M788.509,329.777c0.224,1.748,0.339,3.203,0.352,4.293c-0.596,0-1.185-0.008-1.769-0.023
					c-0.368-0.967-0.788-2.214-1.249-3.679c-1.19-3.709-2.667-8.85-4.918-14.177c-1.126-2.66-2.369-5.089-3.682-7.158
					c-1.31-2.072-2.698-3.765-4.003-5.055c-1.093-1.087-2.121-1.893-2.931-2.504c1.231-0.041,2.485-0.104,3.757-0.189
					c0.298,0.174,0.599,0.367,0.904,0.579c1.737,1.191,3.564,2.942,5.201,5.145c1.641,2.195,3.099,4.822,4.311,7.671
					c1.209,2.849,2.077,5.65,2.719,8.217C787.84,325.468,788.253,327.805,788.509,329.777z"/>
			</g>
			<g>
				<path fill="#231F20" d="M770.492,299.774c0.935,0.216,2.189,0.681,3.572,1.511c-1.272,0.085-2.526,0.148-3.757,0.189
					c-0.153-0.119-0.302-0.227-0.439-0.331c-0.855-0.639-1.358-1.045-1.272-1.306C768.678,299.592,769.347,299.518,770.492,299.774z
					"/>
			</g>
			<g>
				<path fill="#231F20" d="M754.006,326.856c0.138-0.253,2.343,0.759,6.421,2.217c4.074,1.44,10.085,3.278,17.715,4.285
					c2.782,0.365,5.781,0.617,8.95,0.689c0.551,1.432,0.994,2.251,1.317,2.251l-0.029,0.901c-3.821-0.146-7.389-0.562-10.654-1.143
					c-7.838-1.391-13.891-3.69-17.874-5.594c-1.998-0.953-3.486-1.811-4.462-2.444C754.412,327.381,753.946,326.972,754.006,326.856
					z"/>
			</g>
			<g>
				<path fill="#231F20" d="M744.565,287.803c0.219,0.942,0.464,2.102,0.74,3.468l0.428,2.199c0.141,0.725,0.337,1.83,0.401,2.016
					c0.075,0.049,0.16,0.089,0.238,0.131l0.331,0.166c0.334,0.175,0.685,0.339,1.049,0.492c0.73,0.308,1.514,0.579,2.348,0.814
					c1.666,0.469,3.522,0.793,5.52,0.994c4.002,0.409,8.549,0.316,13.5,0.045c9.817-0.532,21.093-2.382,32.379-6.492
					c8.873-3.219,16.837-7.548,23.336-12.451c3.233-2.422,6.008-5.075,8.273-7.835c2.269-2.76,4.032-5.613,5.39-8.355
					c1.361-2.742,2.336-5.364,3.102-7.708c0.767-2.344,1.325-4.412,1.789-6.105c0.329-1.216,0.606-2.243,0.848-3.049
					c0.12,1.547,0.246,3.236,0.376,5.048c-0.227,1.387-0.524,2.96-0.933,4.69c-0.593,2.478-1.422,5.286-2.703,8.271
					c-1.279,2.983-3.027,6.135-5.36,9.192c-2.325,3.061-5.23,6.012-8.608,8.672c-6.693,5.293-14.972,9.917-24.192,13.257
					c-9.914,3.613-19.817,5.409-28.757,6.024c-1.383-0.831-2.637-1.295-3.572-1.511c-1.145-0.256-1.814-0.182-1.896,0.063
					c-0.086,0.261,0.417,0.667,1.272,1.306c0.138,0.104,0.287,0.212,0.439,0.331c-0.353,0.011-0.708,0.022-1.057,0.03
					c-5.026,0.118-9.754,0.037-13.987-0.618c-2.117-0.327-4.107-0.788-5.919-1.431c-0.908-0.32-1.766-0.689-2.571-1.098
					c-0.401-0.209-0.788-0.428-1.16-0.658l-0.324-0.204c-0.123-0.082-0.247-0.156-0.373-0.246c-0.252-0.175-0.501-0.345-0.736-0.524
					c-0.182-1.577-0.224-2.143-0.306-2.994l-0.189-2.233c-0.107-1.388-0.186-2.574-0.231-3.541
					c-0.029-0.689-0.044-1.265-0.037-1.722c0.272,0.097,0.547,0.189,0.827,0.282C744.345,286.88,744.449,287.312,744.565,287.803z"
					/>
			</g>
			<g>
				<path fill="#231F20" d="M743.626,284.943c0.135-0.015,0.344,0.524,0.618,1.573c-0.28-0.093-0.555-0.185-0.827-0.282
					C743.426,285.404,743.497,284.958,743.626,284.943z"/>
			</g>
		</g>
	</g>
</g>
<g opacity="0.38">
	<circle fill="#FFFFFF" cx="953.072" cy="450.801" r="2.05"/>
</g>
<g>
	<g>
		<path fill="#231F20" d="M161.096,474.918c3.941,0,7.101-1.245,9.479-3.74c2.375-2.492,3.566-6.696,3.566-12.61v-61.921h-19.307
			v-28.525h78.445v28.525h-10.436v60.356c0,8.93-1.365,16.466-4.088,22.611c-2.726,6.148-6.436,11.192-11.132,15.133
			c-4.696,3.943-10.205,6.783-16.524,8.523c-6.321,1.739-13.018,2.609-20.089,2.609c-5.218,0-10.262-0.378-15.132-1.131
			c-4.87-0.756-8.409-1.592-10.61-2.522v-29.221c2.549,0.581,5.275,1.044,8.175,1.391
			C156.34,474.744,158.892,474.918,161.096,474.918z"/>
		<path fill="#231F20" d="M287.544,404.301c8.928,0,16.35,1.305,22.264,3.914c5.914,2.609,10.667,6.001,14.263,10.175
			c3.593,4.174,6.115,8.931,7.566,14.263c1.449,5.335,2.174,10.726,2.174,16.176v12.523h-56.355v1.043
			c0,4.175,1.187,7.306,3.565,9.393c2.375,2.087,6.697,3.131,12.958,3.131c7.653,0,14.668-0.579,21.046-1.739
			c6.375-1.158,11.654-2.435,15.828-3.827v27.83c-2.087,1.044-4.495,2.06-7.218,3.044c-2.726,0.986-5.827,1.913-9.306,2.783
			c-3.479,0.87-7.422,1.566-11.827,2.088c-4.408,0.521-9.393,0.783-14.959,0.783c-8.001,0-15.249-1.044-21.742-3.131
			c-6.496-2.087-12.031-5.245-16.611-9.479c-4.582-4.232-8.088-9.507-10.523-15.828c-2.435-6.319-3.652-13.768-3.652-22.351
			c0-8.464,1.217-15.885,3.652-22.264c2.435-6.375,5.941-11.681,10.523-15.915c4.58-4.231,10.115-7.392,16.611-9.479
			C272.295,405.344,279.543,404.301,287.544,404.301z M287.544,435.261c-3.365,0-5.887,0.87-7.566,2.609
			c-1.682,1.739-2.522,4.582-2.522,8.523v1.043h20.176v-1.043c0-3.941-0.843-6.784-2.522-8.523
			C293.428,436.131,290.906,435.261,287.544,435.261z"/>
		<path fill="#231F20" d="M338.161,368.122h47.658v106.796h7.654v28.525h-55.311v-28.525h7.653v-78.271h-7.653V368.122z"/>
		<path fill="#231F20" d="M398.341,368.122h47.658v106.796h7.653v28.525h-55.311v-28.525h7.653v-78.271h-7.653V368.122z"/>
		<path fill="#231F20" d="M503.396,463.787c0,3.943,0.84,6.783,2.522,8.523c1.68,1.739,4.202,2.609,7.566,2.609
			c3.362,0,5.884-0.87,7.566-2.609c1.68-1.739,2.522-4.58,2.522-8.523v-28.525h-9.392v-28.525h49.398v86.967
			c0,17.394-4.378,30.205-13.132,38.44c-8.756,8.232-21.829,12.349-39.222,12.349c-8.349,0-16.437-0.551-24.264-1.652
			c-7.827-1.103-14.466-2.465-19.916-4.087v-28.525c6.376,1.158,12.436,2,18.176,2.522c5.74,0.522,12.263,0.783,19.568,0.783
			c6.261,0,10.958-0.957,14.089-2.87c3.131-1.914,4.696-5.827,4.696-11.741v-7.305c-1.392,1.508-2.987,3.074-4.783,4.696
			c-1.799,1.625-3.857,3.131-6.174,4.523c-2.321,1.391-4.987,2.582-8.001,3.566c-3.017,0.984-6.496,1.478-10.436,1.478
			c-9.509,0-17.018-3.392-22.525-10.175c-5.509-6.784-8.262-17.421-8.262-31.917v-28.525h-7.653v-28.525h47.658V463.787z"/>
		<path fill="#231F20" d="M572.622,368.122h81.575c14.263,0,25.508,2.9,33.743,8.696c8.232,5.8,12.349,14.323,12.349,25.569
			c0,5.565-1.044,10.322-3.131,14.262c-2.087,3.944-4.639,7.192-7.653,9.741c-3.017,2.552-6.175,4.523-9.479,5.914
			c-3.305,1.392-6.175,2.321-8.61,2.783v1.739c2.549,0.234,5.68,0.783,9.392,1.652c3.71,0.87,7.246,2.435,10.61,4.696
			c3.362,2.261,6.231,5.392,8.61,9.393c2.375,4,3.565,9.248,3.565,15.741c0,6.496-1.334,11.974-4,16.437
			c-2.669,4.465-6.262,8.088-10.784,10.871c-4.523,2.783-9.771,4.783-15.741,6.001c-5.974,1.217-12.263,1.826-18.872,1.826h-81.575
			v-28.525h10.436v-78.271h-10.436V368.122z M641.152,425.172c3.362,0,5.884-0.87,7.566-2.609c1.68-1.739,2.523-4.579,2.523-8.523
			v-6.261c0-3.941-0.843-6.784-2.523-8.523c-1.682-1.739-4.204-2.609-7.566-2.609h-9.392v28.525H641.152z M642.37,474.918
			c3.362,0,5.884-0.87,7.566-2.609c1.679-1.739,2.522-4.58,2.522-8.523v-7.654c0-3.941-0.843-6.784-2.522-8.523
			c-1.682-1.739-4.204-2.609-7.566-2.609h-10.61v29.917H642.37z"/>
		<path fill="#231F20" d="M760.297,404.301c8.928,0,16.35,1.305,22.264,3.914c5.914,2.609,10.667,6.001,14.263,10.175
			c3.593,4.174,6.115,8.931,7.566,14.263c1.449,5.335,2.174,10.726,2.174,16.176v12.523h-56.355v1.043
			c0,4.175,1.187,7.306,3.565,9.393c2.375,2.087,6.697,3.131,12.958,3.131c7.654,0,14.668-0.579,21.047-1.739
			c6.375-1.158,11.654-2.435,15.828-3.827v27.83c-2.087,1.044-4.495,2.06-7.218,3.044c-2.726,0.986-5.827,1.913-9.306,2.783
			c-3.479,0.87-7.422,1.566-11.827,2.088c-4.408,0.521-9.393,0.783-14.959,0.783c-8.001,0-15.249-1.044-21.742-3.131
			c-6.496-2.087-12.031-5.245-16.611-9.479c-4.582-4.232-8.088-9.507-10.523-15.828c-2.435-6.319-3.652-13.768-3.652-22.351
			c0-8.464,1.217-15.885,3.652-22.264c2.435-6.375,5.941-11.681,10.523-15.915c4.58-4.231,10.115-7.392,16.611-9.479
			C745.048,405.344,752.296,404.301,760.297,404.301z M760.297,435.261c-3.365,0-5.887,0.87-7.566,2.609
			c-1.682,1.739-2.522,4.582-2.522,8.523v1.043h20.176v-1.043c0-3.941-0.843-6.784-2.522-8.523
			C766.181,436.131,763.659,435.261,760.297,435.261z"/>
		<path fill="#231F20" d="M862.57,404.301c8.928,0,16.35,1.305,22.264,3.914c5.914,2.609,10.667,6.001,14.263,10.175
			c3.593,4.174,6.115,8.931,7.566,14.263c1.449,5.335,2.174,10.726,2.174,16.176v12.523h-56.355v1.043
			c0,4.175,1.187,7.306,3.565,9.393c2.375,2.087,6.697,3.131,12.958,3.131c7.654,0,14.668-0.579,21.047-1.739
			c6.375-1.158,11.654-2.435,15.828-3.827v27.83c-2.087,1.044-4.495,2.06-7.218,3.044c-2.726,0.986-5.827,1.913-9.306,2.783
			c-3.479,0.87-7.422,1.566-11.827,2.088c-4.408,0.521-9.393,0.783-14.959,0.783c-8.001,0-15.249-1.044-21.742-3.131
			c-6.496-2.087-12.031-5.245-16.611-9.479c-4.582-4.232-8.088-9.507-10.523-15.828c-2.435-6.319-3.652-13.768-3.652-22.351
			c0-8.464,1.217-15.885,3.652-22.264c2.435-6.375,5.941-11.681,10.523-15.915c4.58-4.231,10.115-7.392,16.611-9.479
			C847.321,405.344,854.569,404.301,862.57,404.301z M862.57,435.261c-3.365,0-5.887,0.87-7.566,2.609
			c-1.682,1.739-2.522,4.582-2.522,8.523v1.043h20.176v-1.043c0-3.941-0.843-6.784-2.522-8.523
			C868.454,436.131,865.932,435.261,862.57,435.261z"/>
		<path fill="#231F20" d="M955.103,435.261h-15.48v6.261h-25.916v-34.787h91.315v24.872l-41.396,43.31h16.698v-9.741h26.265v38.266
			h-93.925v-25.916L955.103,435.261z"/>
		<path fill="#231F20" d="M1011.458,377.009v-8.886h52.007v8.886l-8.175,94.083h-35.831L1011.458,377.009z M1017.198,477.005h40.179
			v26.439h-40.179V477.005z"/>
	</g>
	<g>
		<g>
			<path fill="#A5499A" d="M792.216,414.625c-0.211-1.575-0.763-3.054-1.733-4.323c-2.057-2.685-5.208-4.148-8.35-5.175
				c-3.444-1.125-7.054-1.697-10.624-2.25c-1.783-0.276-3.606-0.498-5.398-0.84c-0.195-0.505-0.644-0.901-1.35-0.896
				c-0.649,0.003-1.302,0.026-1.957,0.073c-0.021-0.007-0.041-0.013-0.062-0.019c-0.485-0.159-0.897-0.076-1.209,0.142
				c-1.344,0.166-2.672,0.451-3.935,0.906c-2.042,0.737-3.668,2.216-5.161,3.751c-0.899,0.924-1.813,2.033-1.882,3.375
				c-0.062,1.218,0.951,2.06,2.016,2.372c2.201,0.646,4.855,0.032,7.072-0.231c1.1-0.131,2.21-0.272,3.321-0.269
				c0.115,0.001,0.23,0.006,0.345,0.013c0.016,0.005,0.082,0.016,0.154,0.03c0.099,0.047,0.309,0.138,0.392,0.189
				c0.029,0.018,0.126,0.089,0.169,0.119c0.093,0.078,0.183,0.158,0.271,0.239c0.959,0.886,1.503,1.773,2.229,2.963
				c0.881,1.441,1.656,2.949,2.412,4.459c1.626,3.244,3.113,6.557,4.864,9.737c1.219,2.214,2.75,5.087,5.135,6.243
				c2.491,1.207,6.108-0.527,6.686-3.263c0.606-2.861-1.457-5.771-2.858-8.082c-0.695-1.144-1.598-2.627-2.008-3.646
				c-0.112-0.276-0.204-0.559-0.284-0.845c-0.038-0.134-0.067-0.27-0.094-0.405c-0.004-0.018-0.007-0.032-0.01-0.046
				c-0.002-0.019-0.003-0.042-0.005-0.072c-0.011-0.124-0.009-0.248-0.007-0.373c0.001-0.018,0.001-0.032,0.002-0.046
				c0.001-0.008,0.003-0.015,0.005-0.025c0.023-0.115,0.06-0.225,0.099-0.335c-0.147,0.42,0.207-0.201-0.005,0.03
				c0.294-0.322,0.209-0.222,0.486-0.38c0.018-0.01,0.032-0.018,0.045-0.026c0.019-0.005,0.042-0.012,0.075-0.023
				c0.12-0.041,0.246-0.064,0.37-0.087c-0.275,0.051,0.131,0.037,0.368,0.037c0.055,0.013,0.217,0.039,0.247,0.046
				c0.18,0.041,0.357,0.099,0.532,0.158c0.325,0.11,0.178,0.053,0.577,0.245c0.273,0.132,0.538,0.279,0.802,0.429
				c0.575,0.326,1.13,0.688,1.687,1.043c1.783,1.137,4.834,2.804,6.127,0.052C792.474,418.126,792.429,416.223,792.216,414.625z"/>
		</g>
		<g>
			<g>
				<path fill="#8E2A8F" d="M790.952,414.813c-0.176-1.163-0.481-2.21-0.981-3.219c-0.123-0.251-0.266-0.492-0.42-0.731l-0.242-0.37
					c-0.085-0.119-0.169-0.242-0.259-0.358c-0.357-0.473-0.759-0.926-1.201-1.349c-0.888-0.84-1.938-1.551-3.071-2.11
					c-1.137-0.555-2.343-0.974-3.565-1.363c-2.433-0.762-4.971-1.229-7.517-1.603c-2.557-0.386-5.105-0.605-7.728-0.918
					l-0.304-0.037l-0.27-0.442l-0.001-0.001c-0.058-0.149-0.143-0.254-0.249-0.319c-0.054-0.032-0.116-0.057-0.191-0.074
					c-0.038-0.008-0.078-0.013-0.121-0.016l-0.067-0.003l-0.11,0.001c-0.616,0.002-1.194,0.02-1.798,0.059l-0.141,0.009
					l-0.154-0.047l-0.126-0.039l-0.072-0.015c-0.057-0.01-0.109-0.013-0.156-0.01c-0.094,0.007-0.171,0.034-0.251,0.086
					l-0.161,0.105l-0.172,0.022h0c-1.146,0.125-2.272,0.38-3.342,0.753l-0.397,0.151l-0.39,0.167
					c-0.227,0.11-0.468,0.232-0.705,0.371c-0.47,0.277-0.924,0.593-1.352,0.952c-0.859,0.712-1.638,1.559-2.416,2.428
					c-0.726,0.825-1.289,1.688-1.332,2.449l-0.006,0.072l-0.001,0.009c0-0.012-0.001,0.033,0.001-0.026l-0.001,0.007v0.028
					l-0.001,0.056c0.002,0.046,0.003,0.03,0.007,0.078c0.01,0.062,0.019,0.122,0.039,0.182c0.04,0.118,0.111,0.242,0.221,0.364
					c0.223,0.245,0.585,0.469,0.989,0.596c0.938,0.309,2.036,0.396,3.184,0.402c1.149,0.008,2.348-0.074,3.562-0.125
					c1.2-0.036,2.395-0.144,3.647-0.089l0.032,0.001l0.045,0.012c-0.025-0.007,0.026,0.004,0.044,0.007l0.079,0.015l0.042,0.007
					l0.044,0.021l0.296,0.136l0.087,0.045c0.037,0.02,0.074,0.043,0.1,0.062l0.131,0.093l0.008,0.006l0.018,0.014
					c0.866,0.691,1.567,1.59,2.163,2.483c0.589,0.888,1.186,1.789,1.737,2.714c1.089,1.848,2.156,3.699,3.208,5.553
					c1.059,1.849,2.113,3.684,3.209,5.463c1.113,1.792,2.182,3.602,3.417,4.902c0.314,0.318,0.629,0.61,0.956,0.844
					c0.163,0.119,0.328,0.222,0.494,0.312c0.042,0.022,0.083,0.046,0.125,0.065l0.062,0.031l0.031,0.016l0.016,0.008
					c-0.105-0.048-0.023-0.01-0.043-0.02l0.012,0.005l0.182,0.08c0.065,0.029,0.055,0.017,0.084,0.029
					c0.51,0.178,1.278,0.171,1.975-0.065c0.708-0.222,1.382-0.648,1.836-1.179c0.236-0.261,0.401-0.553,0.522-0.863
					c0.015-0.015,0.08-0.269,0.089-0.297c0.023-0.068,0.043-0.163,0.062-0.264c0.033-0.196,0.059-0.399,0.063-0.612
					c0.019-0.843-0.163-1.798-0.494-2.746c-0.327-0.95-0.762-1.909-1.231-2.865l-1.398-2.895c-0.455-0.964-0.908-1.977-1.072-3.046
					l-0.002-0.013v-0.001c-0.005-0.151-0.003-0.29,0.002-0.443c0-0.032,0.004-0.085,0.017-0.127l0.03-0.108
					c0.022-0.075,0.047-0.142,0.073-0.211l0.165,0.058c-0.012,0.033-0.025,0.068-0.031,0.096c-0.002,0.006-0.004,0.016-0.003,0.012
					c-0.006-0.004,0.015,0.004-0.023-0.049c-0.017-0.024-0.074-0.026-0.083-0.018c-0.007,0.002-0.019,0.011-0.017,0.01
					c-0.005,0.006,0.01-0.012,0.017-0.023c0.016-0.024,0.036-0.06,0.042-0.078c0.001-0.002,0-0.001,0,0.003
					c0,0.003,0,0.015,0.003,0.023c0.009,0.03,0.038,0.05,0.064,0.052c0.063-0.007,0.031-0.01,0.034-0.005l-0.032,0.031l-0.116-0.106
					c0.081-0.081,0.149-0.164,0.25-0.245c0.116-0.076,0.208-0.104,0.304-0.165l0.006-0.003l0.01-0.004
					c0.14-0.047,0.302-0.087,0.451-0.112l0.024,0.132l-0.062,0.014c-0.007,0.001-0.003,0.001-0.005,0.001c0,0-0.001,0,0.001-0.001
					c0.014-0.004,0.036-0.039,0.029-0.065c-0.013-0.036-0.018-0.036-0.036-0.047c-0.01-0.003,0.006,0.001,0.015,0l0.134,0.003
					l0.279-0.002h0.002l0.014,0.002c0.342,0.047,0.677,0.156,1.007,0.261c0.33,0.145,0.635,0.28,0.951,0.437
					c0.618,0.31,1.227,0.646,1.84,0.966c0.61,0.317,1.213,0.627,1.843,0.841c0.622,0.214,1.264,0.368,1.835,0.347
					c0.583-0.016,0.984-0.23,1.234-0.558c0.13-0.169,0.236-0.38,0.318-0.625c0.008-0.052,0.115-0.334,0.12-0.412
					c0.028-0.109,0.056-0.255,0.083-0.393c0.187-1.129,0.088-2.385-0.1-3.649L790.952,414.813z M793.482,414.456
					c0.163,1.454,0.175,3.006-0.337,4.552c-0.07,0.192-0.137,0.377-0.232,0.589c-0.107,0.247-0.145,0.278-0.283,0.537
					c-0.222,0.372-0.507,0.74-0.879,1.044c-0.37,0.304-0.83,0.524-1.29,0.608c-0.46,0.088-0.903,0.061-1.302-0.018
					c-0.802-0.166-1.468-0.505-2.085-0.88c-0.612-0.381-1.188-0.785-1.734-1.213c-0.545-0.423-1.1-0.821-1.686-1.179
					c-0.286-0.177-0.596-0.35-0.891-0.491c-0.321-0.113-0.635-0.247-0.978-0.292l0.016,0.002l-0.279,0.002l-0.145-0.004
					c-0.015-0.002-0.022,0-0.054-0.01c-0.021-0.013-0.038-0.014-0.047-0.056c-0.006-0.028,0.018-0.065,0.033-0.071l0.009-0.005
					c0.009-0.004,0.024-0.01,0.029-0.01l0.075-0.017l0.024,0.132c-0.153,0.026-0.288,0.059-0.438,0.108l0.017-0.007
					c-0.095,0.06-0.215,0.115-0.286,0.165c-0.072,0.062-0.148,0.155-0.222,0.237l-0.116-0.106c0.014-0.015,0.026-0.03,0.047-0.047
					c0.018-0.007,0.002-0.023,0.082-0.033c0.032,0.002,0.063,0.026,0.075,0.061c0.004,0.012,0.005,0.029,0.004,0.036
					c-0.001,0.013-0.004,0.024-0.005,0.03c-0.017,0.053-0.035,0.084-0.057,0.122c-0.014,0.02-0.019,0.035-0.052,0.065
					c-0.001,0.002-0.018,0.013-0.029,0.017c-0.013,0.009-0.076,0.009-0.095-0.019c-0.043-0.061-0.022-0.063-0.028-0.076
					c0-0.023,0.003-0.031,0.006-0.044c0.009-0.044,0.021-0.08,0.033-0.118l0.165,0.058c-0.022,0.068-0.045,0.137-0.061,0.201
					c-0.009,0.031-0.017,0.066-0.023,0.102c-0.008,0.028-0.009,0.047-0.008,0.088c-0.002,0.136,0.01,0.285,0.026,0.423l-0.002-0.015
					c0.233,1.029,0.757,1.939,1.343,2.819c0.577,0.881,1.235,1.726,1.872,2.574c0.648,0.849,1.329,1.702,1.921,2.667
					c0.583,0.964,1.139,2.039,1.349,3.318c0.055,0.317,0.084,0.647,0.093,0.98c0.002,0.165,0.002,0.334-0.015,0.529
					c-0.019,0.236-0.013,0.241-0.047,0.486c-0.11,0.73-0.395,1.42-0.774,2.025c-0.778,1.207-1.918,2.063-3.203,2.561
					c-1.293,0.48-2.768,0.633-4.272,0.102c-0.094-0.035-0.232-0.086-0.288-0.112l-0.182-0.08l-0.106-0.05l-0.058-0.03l-0.115-0.059
					c-0.078-0.039-0.151-0.083-0.225-0.126c-0.296-0.172-0.576-0.361-0.836-0.562c-0.524-0.402-0.982-0.846-1.384-1.311
					c-1.616-1.874-2.471-3.91-3.401-5.828c-0.905-1.969-1.696-3.96-2.485-5.938c-0.391-0.99-0.796-1.969-1.206-2.945
					c-0.407-0.98-0.835-1.947-1.294-2.893c-0.453-0.948-0.934-1.878-1.476-2.787c-0.519-0.911-1.125-1.721-1.894-2.395l0.026,0.02
					l-0.131-0.094c-0.017-0.012-0.026-0.018-0.036-0.023l-0.056-0.029l-0.286-0.134l0.086,0.028l-0.075-0.015l-0.111-0.023
					l0.076,0.013c-1.133-0.043-2.314,0.157-3.479,0.397c-1.153,0.226-2.303,0.57-3.529,0.795c-1.217,0.218-2.547,0.341-3.917,0.014
					c-0.743-0.185-1.473-0.546-2.064-1.177c-0.294-0.314-0.549-0.705-0.706-1.15c-0.078-0.221-0.132-0.454-0.154-0.689l-0.013-0.18
					l-0.002-0.187l0.007-0.149l0.014-0.151c0.08-0.807,0.386-1.546,0.777-2.139c0.388-0.603,0.831-1.094,1.294-1.547
					c0.875-0.846,1.801-1.677,2.845-2.404c0.522-0.361,1.066-0.705,1.646-0.992c0.287-0.144,0.586-0.274,0.906-0.399l0.443-0.156
					l0.449-0.138c1.199-0.36,2.419-0.583,3.637-0.756h0l-0.333,0.128c0.284-0.201,0.638-0.33,0.985-0.356
					c0.174-0.013,0.345-0.005,0.506,0.021c0.077,0.012,0.161,0.029,0.253,0.054l0.192,0.057l-0.295-0.038
					c0.622-0.048,1.273-0.075,1.885-0.084l0.121-0.002l0.164,0.004c0.111,0.007,0.223,0.019,0.336,0.042
					c0.226,0.045,0.456,0.127,0.666,0.251c0.426,0.247,0.74,0.654,0.903,1.076l0.002,0.005l-0.573-0.478
					c1.232,0.317,2.495,0.558,3.769,0.786l3.827,0.692c2.554,0.459,5.109,0.956,7.629,1.689c1.252,0.357,2.49,0.801,3.713,1.302
					c1.224,0.498,2.448,1.055,3.611,1.791c0.582,0.365,1.151,0.774,1.677,1.244c0.134,0.116,0.261,0.238,0.391,0.36l0.373,0.379
					c0.244,0.27,0.479,0.555,0.692,0.856c0.865,1.193,1.374,2.66,1.542,4.056L793.482,414.456z"/>
			</g>
		</g>
	</g>
	<g>
		<g>
			<path fill="#A5499A" d="M987.43,411.681c-0.872-3.363-1.405-7.744-5.078-8.523c-5.406-1.147-11.066-1.514-16.568-1.878
				c-10.42-0.687-19.221,0.82-29.139,2.531c-5.032,0.868-10.254,2.019-14.926,4.126c-5.244,2.365-0.261,6.144,3.32,6.331
				c5.068,0.266,10.033-1.439,15.102-1.214c2.674,0.121,4.247,3.66,5.788,5.401c2.509,2.837,3.303,6.097,7.793,4.753
				c3.716-1.111,7.694,3.991,8.832,7.163c1.335,3.72,1.392,8.218,0.288,11.97c-1.17,3.993,0.594,10.936,6.374,8.123
				c3.956-1.924,6-8.226,5.431-12.292c-0.721-5.148-4.988-9.649-4.615-14.943C970.872,411.276,991.143,425.99,987.43,411.681
				C987.089,410.367,987.88,413.418,987.43,411.681z"/>
		</g>
		<g>
			<g>
				<path fill="#8E2A8F" d="M986.439,411.935c-0.269-1.104-0.393-2.199-0.596-3.254c-0.209-1.051-0.484-2.07-0.937-2.981
					c-0.226-0.456-0.523-0.865-0.875-1.214c-0.361-0.339-0.792-0.6-1.265-0.763c-0.454-0.158-1.022-0.237-1.559-0.357
					c-0.537-0.101-1.074-0.203-1.617-0.292c-2.166-0.368-4.353-0.628-6.546-0.841c-2.195-0.199-4.397-0.344-6.603-0.485
					c-4.394-0.314-8.797-0.234-13.18,0.163c-4.384,0.39-8.738,1.092-13.095,1.812c-2.177,0.375-4.362,0.714-6.519,1.136
					c-2.156,0.432-4.298,0.931-6.39,1.579c-1.044,0.33-2.076,0.694-3.09,1.094c-0.507,0.201-1.009,0.411-1.506,0.633
					c-0.498,0.222-0.993,0.442-1.399,0.715c-0.41,0.271-0.765,0.607-0.925,0.951c-0.169,0.341-0.14,0.626,0.016,0.934
					c0.331,0.633,1.192,1.196,2.056,1.553c0.872,0.373,1.835,0.6,2.682,0.637c1.035,0.036,2.068,0.024,3.137-0.019
					c2.126-0.085,4.34-0.234,6.585-0.311c1.121-0.04,2.249-0.059,3.376-0.042c0.563,0.009,1.126,0.028,1.689,0.062
					c0.279,0.018,0.577,0.034,0.896,0.114c0.302,0.072,0.589,0.187,0.86,0.323c1.086,0.56,1.872,1.44,2.636,2.275
					c0.748,0.846,1.457,1.741,2.184,2.446c0.178,0.169,0.408,0.395,0.604,0.602c0.203,0.209,0.395,0.425,0.58,0.643
					c0.372,0.434,0.713,0.876,1.044,1.294c0.327,0.422,0.656,0.809,0.961,1.164c0.309,0.352,0.587,0.685,0.937,0.952
					c0.345,0.271,0.782,0.464,1.276,0.534c0.493,0.064,1.017-0.006,1.518-0.159l0.396-0.119c0.162-0.042,0.316-0.075,0.468-0.097
					c0.309-0.046,0.622-0.058,0.931-0.037c0.619,0.043,1.216,0.208,1.766,0.446c1.102,0.482,2.038,1.208,2.879,2.001
					c0.837,0.802,1.57,1.697,2.211,2.66c0.323,0.48,0.626,0.977,0.897,1.501c0.135,0.262,0.263,0.531,0.379,0.811l0.161,0.402
					l0.154,0.416c0.389,1.097,0.672,2.228,0.861,3.375c0.374,2.296,0.386,4.653,0.01,6.988c-0.049,0.291-0.106,0.582-0.169,0.873
					l-0.196,0.837c-0.088,0.41-0.146,0.902-0.157,1.367c-0.02,0.945,0.093,1.911,0.355,2.777c0.257,0.864,0.706,1.616,1.197,2.009
					c0.484,0.391,0.984,0.495,1.726,0.351c0.362-0.074,0.757-0.221,1.154-0.416c0.022-0.009,0.261-0.127,0.287-0.146
					c0.065-0.035,0.171-0.096,0.252-0.149c0.174-0.11,0.345-0.233,0.511-0.367c0.665-0.543,1.261-1.265,1.778-2.069
					c1.012-1.626,1.735-3.569,2.041-5.538c0.15-0.996,0.199-1.95,0.06-2.927c-0.131-0.989-0.401-1.998-0.748-3.004
					c-0.685-2.023-1.686-4.03-2.386-6.21c-0.346-1.09-0.624-2.226-0.705-3.393c-0.082-1.169,0.01-2.341,0.332-3.475
					c0.309-1.13,0.982-2.24,2-2.906c1.007-0.676,2.184-0.939,3.313-1.052c2.275-0.22,4.517,0.014,6.691,0.032
					c1.08,0.007,2.163-0.033,3.095-0.269c0.462-0.122,0.874-0.298,1.173-0.535c0.301-0.239,0.495-0.533,0.625-0.908
					c0.263-0.754,0.187-1.774,0.002-2.765c-0.085-0.506-0.208-0.999-0.343-1.526l-0.025-0.1l-0.013-0.051
					c-0.446,0.08,3.81-0.975,2.016-0.5l0.05,0.201l0.1,0.402l0.05,0.201l0.014,0.056c-3.986,1.011-1.112,0.251-2.005,0.464
					l-0.025-0.101l-0.1-0.402L986.439,411.935z M988.423,411.436l0.105,0.388l0.027,0.1c-0.885,0.244,2-0.474-1.981,0.558
					l-0.012-0.044l-0.054-0.2l-0.108-0.4l-0.054-0.199c-1.799,0.455,2.433-0.687,2.005-0.542l0.014,0.05l0.027,0.1
					c0.147,0.541,0.275,1.126,0.369,1.711c0.091,0.588,0.134,1.198,0.117,1.828c-0.022,0.629-0.112,1.296-0.381,1.958
					c-0.256,0.661-0.756,1.288-1.361,1.686c-0.603,0.407-1.26,0.6-1.877,0.703c-1.24,0.198-2.391,0.089-3.513-0.026l-3.302-0.417
					c-1.087-0.133-2.174-0.213-3.242-0.151c-1.058,0.076-2.123,0.293-2.956,0.874c-0.844,0.564-1.358,1.496-1.565,2.504
					c-0.208,1.015-0.186,2.089-0.005,3.112c0.183,1.03,0.512,2.036,0.927,3.019c0.829,1.974,1.953,3.863,2.928,5.939
					c0.479,1.041,0.926,2.136,1.218,3.319c0.308,1.19,0.4,2.471,0.336,3.674c-0.068,1.214-0.258,2.414-0.597,3.581
					c-0.331,1.169-0.79,2.314-1.424,3.397c-0.623,1.086-1.427,2.119-2.476,2.976c-0.261,0.215-0.538,0.417-0.83,0.604
					c-0.151,0.097-0.283,0.177-0.461,0.274c-0.215,0.115-0.222,0.123-0.452,0.229c-0.602,0.274-1.253,0.51-1.979,0.64
					c-0.721,0.131-1.527,0.15-2.33-0.045c-0.802-0.189-1.566-0.6-2.153-1.127c-1.184-1.075-1.729-2.411-2.051-3.664
					c-0.31-1.27-0.382-2.538-0.249-3.797c0.069-0.637,0.18-1.243,0.376-1.9l0.242-0.763c0.075-0.244,0.14-0.492,0.206-0.742
					c0.512-1.996,0.702-4.113,0.548-6.207c-0.078-1.047-0.241-2.09-0.502-3.106l-0.101-0.372l-0.114-0.38
					c-0.075-0.239-0.164-0.479-0.261-0.718c-0.196-0.478-0.425-0.953-0.684-1.411c-0.524-0.915-1.145-1.784-1.855-2.562
					c-0.707-0.778-1.525-1.461-2.437-1.9c-0.455-0.221-0.933-0.371-1.416-0.426c-0.242-0.026-0.484-0.027-0.724-0.002
					c-0.121,0.012-0.239,0.034-0.346,0.055l-0.402,0.103c-0.564,0.137-1.138,0.261-1.751,0.336c-0.61,0.078-1.286,0.073-1.95-0.113
					c-0.661-0.185-1.271-0.545-1.738-0.977c-0.474-0.429-0.827-0.918-1.16-1.381c-0.664-0.944-1.166-1.83-1.819-2.71
					c-0.691-0.995-1.145-1.989-1.738-2.899c-0.571-0.905-1.262-1.765-2.161-2.221c-0.221-0.116-0.455-0.198-0.693-0.245
					c-0.22-0.044-0.476-0.065-0.75-0.057c-0.542,0-1.085,0.029-1.626,0.081c-1.083,0.106-2.156,0.314-3.227,0.553
					c-2.14,0.486-4.284,1.115-6.567,1.388c-1.134,0.134-2.315,0.19-3.488,0.111c-1.363-0.104-2.55-0.577-3.625-1.243
					c-0.534-0.34-1.035-0.741-1.487-1.221c-0.444-0.485-0.856-1.057-1.073-1.793c-0.234-0.733-0.078-1.657,0.358-2.247
					c0.426-0.602,0.971-0.966,1.498-1.267c0.539-0.306,1.071-0.505,1.586-0.724c0.52-0.211,1.043-0.412,1.57-0.602
					c1.054-0.378,2.121-0.716,3.194-1.019c4.286-1.25,8.681-1.995,13.031-2.743c4.36-0.751,8.753-1.403,13.182-1.759
					c4.426-0.367,8.892-0.394,13.318-0.059c4.409,0.311,8.84,0.616,13.233,1.328c0.548,0.087,1.098,0.188,1.647,0.289l0.814,0.161
					c0.26,0.049,0.579,0.118,0.858,0.216c1.156,0.382,2.152,1.216,2.838,2.196c0.707,0.978,1.146,2.078,1.532,3.149
					c0.389,1.076,0.718,2.147,1.002,3.182L988.423,411.436z"/>
			</g>
		</g>
	</g>
	<g>
		<path fill="#A5499A" d="M455.437,374.582c0.303-2.928-0.354-5.807-2.185-8.139c-2.408-3.068-6.548-5.079-10.251-6.016
			c-4.218-1.069-8.649-1.683-12.957-0.803c-4.306,0.881-7.749,3.645-10.233,7.176c-0.443,0.63-0.304,1.246,0.096,1.665
			c-0.641,0.77-1.152,1.638-1.452,2.629c-0.745,2.458,0.641,4.557,2.357,6.159c1.564,1.46,3.456,0.918,4.9-0.363
			c0.545-0.483,1.012-1.051,1.541-1.552c0.05-0.048,0.115-0.096,0.175-0.14c0.003,0.003,0.006,0.006,0.01,0.009
			c1.384,1.142,2.497,2.584,3.925,3.676c1.258,0.964,3.382,0.334,4.793,0.019c0.735-0.163,1.461-0.365,2.189-0.552
			c0.629-0.161,1.556-0.361,1.96-0.4c1.33-0.132,2.054,0.099,2.972,1.167c1.303,1.515,1.938,3.908,2.053,5.854
			c0.144,2.442-0.232,4.91-0.595,7.318c-0.528,3.498-1.003,6.912-0.897,10.451c0.106,3.589,0.589,14.948,6.943,11.9
			c1.402-0.673,2.653-2.005,3.136-3.478c0.512-1.564,0.333-3.375,0.134-4.975c-0.479-3.856-1.637-7.573-2.273-11.398
			c-0.499-3.001,0.452-6.964,1.29-10.124C453.956,381.325,455.08,378.035,455.437,374.582z"/>
	</g>
	<g>
		<path fill="#8E2A8F" d="M454.887,368.518c-0.841-1.919-2.3-3.497-3.941-4.723c-1.649-1.231-3.494-2.159-5.41-2.857
			c-0.957-0.349-1.944-0.635-2.931-0.863c-0.988-0.235-1.979-0.452-2.979-0.625c-2.001-0.35-4.038-0.544-6.078-0.474
			c-2.031,0.083-4.089,0.36-6.011,1.117c-1.92,0.743-3.666,1.895-5.171,3.289c-0.756,0.695-1.441,1.457-2.134,2.217l-0.514,0.578
			c-0.168,0.215-0.334,0.334-0.533,0.676c-0.166,0.294-0.28,0.676-0.242,1.068c0.009,0.117,0.033,0.231,0.064,0.344
			c-0.49,0.477-0.924,1.033-1.27,1.659c-0.1,0.191-0.207,0.381-0.286,0.584c-0.044,0.109-0.081,0.183-0.129,0.321
			c-0.034,0.093-0.064,0.158-0.103,0.295c-0.146,0.477-0.229,0.925-0.241,1.41c-0.041,0.96,0.188,1.917,0.568,2.742
			c0.384,0.829,0.896,1.543,1.456,2.172c0.293,0.32,0.551,0.586,0.901,0.903l0.106,0.091l0.168,0.134
			c0.119,0.093,0.216,0.158,0.33,0.233c0.221,0.145,0.464,0.271,0.719,0.373c1.03,0.437,2.238,0.355,3.141-0.023
			c0.917-0.373,1.63-0.981,2.174-1.626c0.274-0.318,0.5-0.661,0.707-0.966l0.215-0.338c0.482,0.625,0.967,1.254,1.511,1.891
			c0.351,0.408,0.724,0.818,1.144,1.202c0.223,0.195,0.406,0.369,0.684,0.57c0.068,0.047,0.197,0.131,0.279,0.175
			c0.087,0.048,0.175,0.094,0.263,0.133c0.177,0.083,0.357,0.144,0.535,0.192c0.715,0.19,1.373,0.172,1.972,0.102
			c0.601-0.072,1.152-0.22,1.675-0.371c0.26-0.074,0.514-0.153,0.756-0.235l0.761-0.252c0.523-0.18,1.008-0.372,1.496-0.551
			c0.479-0.175,0.972-0.347,1.457-0.477l0.345-0.086c0.099-0.02,0.26-0.047,0.36-0.061c0.229-0.028,0.465-0.042,0.68-0.023
			c0.431,0.035,0.813,0.219,1.167,0.536c0.175,0.156,0.345,0.332,0.504,0.526c0.15,0.184,0.293,0.386,0.424,0.595
			c0.524,0.839,0.88,1.799,1.117,2.782c0.245,0.993,0.34,1.991,0.333,3.025c-0.003,2.057-0.325,4.114-0.686,6.179
			c-0.352,2.071-0.699,4.155-0.911,6.271c-0.229,2.112-0.264,4.272-0.173,6.389c0.093,2.13,0.286,4.277,0.888,6.413
			c0.313,1.062,0.704,2.144,1.441,3.136c0.369,0.49,0.841,0.961,1.441,1.296c0.595,0.339,1.312,0.504,1.98,0.483
			c0.672-0.016,1.292-0.184,1.85-0.408c0.28-0.11,0.552-0.243,0.801-0.385c0.294-0.163,0.524-0.323,0.772-0.504
			c0.953-0.726,1.744-1.656,2.246-2.788c0.064-0.141,0.12-0.285,0.171-0.433l0.046-0.134l0.027-0.094l0.056-0.189
			c0.081-0.315,0.144-0.61,0.182-0.898c0.083-0.583,0.1-1.158,0.084-1.718c-0.034-1.115-0.188-2.204-0.343-3.233
			c-0.342-2.139-0.867-4.182-1.364-6.22c-0.249-1.018-0.494-2.031-0.71-3.044c-0.106-0.504-0.211-1.022-0.298-1.515
			c-0.081-0.473-0.118-0.973-0.132-1.471c-0.041-2.008,0.314-4.064,0.75-6.092c0.438-2.039,1.017-4.045,1.554-6.083
			c0.536-2.037,1.015-4.114,1.212-6.24l0,0v-0.004C456.013,372.564,455.747,370.423,454.887,368.518z M455.063,374.545
			c-0.487,4.111-2.05,8.043-3.062,12.149c-0.519,2.052-0.973,4.149-1.014,6.347c-0.005,0.55,0.014,1.102,0.089,1.667
			c0.074,0.543,0.162,1.057,0.255,1.584c0.186,1.046,0.401,2.081,0.617,3.11c0.435,2.053,0.871,4.1,1.144,6.117
			c0.137,1.047,0.255,2.045,0.266,3.03c0.006,0.488-0.022,0.966-0.094,1.421c-0.032,0.232-0.084,0.449-0.132,0.643l-0.057,0.188
			l-0.029,0.095c0.005-0.022-0.014,0.037-0.021,0.051c-0.034,0.1-0.074,0.199-0.12,0.298c-0.352,0.79-0.963,1.509-1.682,2.046
			c-0.177,0.127-0.38,0.264-0.546,0.354c-0.208,0.115-0.408,0.213-0.615,0.297c-0.411,0.17-0.823,0.275-1.202,0.286
			c-0.754,0.033-1.392-0.337-1.926-1.038c-0.526-0.693-0.918-1.597-1.211-2.538c-0.575-1.899-0.856-3.953-1.031-6.006
			c-0.173-2.073-0.225-4.12-0.084-6.192c0.127-2.069,0.39-4.14,0.663-6.22c0.265-2.081,0.561-4.193,0.528-6.341
			c-0.037-2.146-0.449-4.347-1.61-6.248c-0.148-0.236-0.309-0.462-0.49-0.686c-0.174-0.211-0.358-0.424-0.57-0.621
			c-0.407-0.402-0.981-0.754-1.595-0.867c-0.304-0.064-0.595-0.086-0.89-0.09c-0.163-0.005-0.263-0.006-0.425-0.002
			c-0.157,0.006-0.295,0.018-0.434,0.03c-0.548,0.058-1.079,0.117-1.617,0.198l-3.101,0.466c-0.988,0.151-1.958,0.256-2.579,0.085
			c-0.14-0.036-0.298-0.108-0.352-0.14c-0.151-0.102-0.368-0.267-0.547-0.409c-0.375-0.3-0.756-0.622-1.147-0.956
			c-0.78-0.665-1.612-1.393-2.604-1.931l0.01,0.005l-0.036-0.025l-0.396-0.379l-0.347,0.367l-0.003,0.004
			c-0.054,0.025-0.096,0.039-0.172,0.087c-0.042,0.027-0.06,0.037-0.08,0.048c-0.043,0.032-0.049,0.032-0.075,0.05
			c-0.085,0.054-0.175,0.107-0.255,0.164l-0.479,0.339c-0.305,0.235-0.589,0.434-0.861,0.624c-0.54,0.369-1.091,0.614-1.587,0.722
			c-0.501,0.104-0.882,0.045-1.223-0.124c-0.086-0.047-0.173-0.095-0.261-0.158c-0.04-0.029-0.097-0.07-0.122-0.094l-0.05-0.041
			l-0.103-0.094c-0.2-0.187-0.464-0.451-0.671-0.683c-0.876-0.96-1.488-1.983-1.602-3.037c-0.027-0.259-0.02-0.556,0.001-0.805
			c-0.001-0.045,0.024-0.158,0.039-0.245c0.002-0.04,0.03-0.141,0.043-0.209c0.031-0.153,0.076-0.303,0.113-0.458
			c0.177-0.61,0.449-1.213,0.779-1.826l0,0l0.397-0.837l-0.432-0.187c-0.256-0.11-0.414-0.318-0.333-0.651
			c0.01-0.12,0.179-0.388,0.297-0.587c0.13-0.211,0.258-0.425,0.402-0.627c0.557-0.824,1.234-1.56,1.953-2.245
			c1.44-1.364,3.111-2.494,4.953-3.232c1.837-0.741,3.837-1.061,5.831-1.131c1.998-0.069,4.002,0.121,5.977,0.466
			c1.973,0.358,3.945,0.802,5.811,1.507c1.866,0.706,3.655,1.635,5.23,2.842c1.567,1.201,2.919,2.709,3.686,4.516
			C455.051,370.587,455.28,372.589,455.063,374.545z"/>
	</g>
	<g opacity="0.38">
		<ellipse fill="#FFFFFF" cx="450.434" cy="409.087" rx="1.857" ry="2.05"/>
		<path fill="#FFFFFF" d="M450.434,411.201c-1.06,0-1.922-0.948-1.922-2.114s0.862-2.114,1.922-2.114
			c1.06,0,1.921,0.948,1.921,2.114S451.493,411.201,450.434,411.201z M450.434,407.101c-0.989,0-1.793,0.891-1.793,1.986
			s0.805,1.986,1.793,1.986c0.989,0,1.793-0.891,1.793-1.986S451.423,407.101,450.434,407.101z"/>
	</g>
	<g opacity="0.38">
		<ellipse fill="#FFFFFF" cx="450.722" cy="404.796" rx="0.673" ry="0.833"/>
		<path fill="#FFFFFF" d="M450.722,405.692c-0.406,0-0.737-0.402-0.737-0.897c0-0.494,0.331-0.897,0.737-0.897
			c0.406,0,0.737,0.402,0.737,0.897C451.459,405.29,451.128,405.692,450.722,405.692z M450.722,404.027
			c-0.336,0-0.608,0.345-0.608,0.769c0,0.424,0.273,0.769,0.608,0.769c0.336,0,0.608-0.345,0.608-0.769
			C451.33,404.372,451.058,404.027,450.722,404.027z"/>
	</g>
	<g opacity="0.38">
		<circle fill="#FFFFFF" cx="787.188" cy="413.742" r="2.22"/>
	</g>
	<g opacity="0.38">
		<circle fill="#FFFFFF" cx="783.943" cy="409.471" r="1.025"/>
	</g>
	<g opacity="0.38">
		<circle fill="#FFFFFF" cx="970.201" cy="441.837" r="1.11"/>
	</g>
</g>
<ellipse opacity="0.05" fill="#231F20" cx="615.294" cy="621.905" rx="304.15" ry="7.687"/>
</svg>
