<?xml version="1.0" encoding="utf-8"?>
<!-- Generator: Adobe Illustrator 15.0.0, SVG Export Plug-In . SVG Version: 6.00 Build 0)  -->
<!DOCTYPE svg PUBLIC "-//W3C//DTD SVG 1.1//EN" "http://www.w3.org/Graphics/SVG/1.1/DTD/svg11.dtd">
<svg version="1.1" id="Layer_1" xmlns="http://www.w3.org/2000/svg" xmlns:xlink="http://www.w3.org/1999/xlink" x="0px" y="0px"
	 width="1280px" height="800px" viewBox="0 0 1280 800" enable-background="new 0 0 1280 800" xml:space="preserve" preserveAspectRatio="none">
<g>
	<rect y="398.933" fill="#8293BB" width="639.643" height="400.839"/>
</g>
<g>
	<rect fill="#2BA9E0" width="639.643" height="400.103"/>
</g>
<g>
	<rect x="639.697" y="399.123" fill="#FECD0D" width="641.498" height="400.648"/>
</g>
<g>
	<rect x="637.787" fill="#3D5B98" width="641.498" height="399.669"/>
</g>
<g>
	<path fill="#FFFFFF" d="M898.813,701.652h-2.776l3.831,21.934h0.556l3.831-21.934h-2.776v-9.106h18.436v9.106h-2.222l-8.829,34.094
		h-20.212l-8.829-34.094h-2.221v-9.106h21.212V701.652z"/>
	<path fill="#FFFFFF" d="M921.246,692.546h22.211v9.106h-3.332v24.987h3.332v9.106h-22.211v-9.106h3.331v-24.987h-3.331V692.546z"/>
	<path fill="#FFFFFF" d="M961.613,725.807c1.222,0,2.091-0.185,2.61-0.556c0.518-0.369,0.777-0.925,0.777-1.665
		c0-0.519-0.214-0.972-0.639-1.36c-0.426-0.39-1.287-0.842-2.582-1.361c-2.74-1.035-5.137-2.026-7.191-2.971
		c-2.054-0.943-3.757-1.989-5.108-3.137s-2.359-2.489-3.026-4.026c-0.666-1.535-0.999-3.396-0.999-5.58
		c0-2.073,0.323-3.933,0.972-5.581c0.647-1.646,1.702-3.054,3.165-4.22c1.462-1.166,3.405-2.055,5.83-2.665
		c2.425-0.611,5.414-0.916,8.968-0.916c3.221,0,6.256,0.324,9.106,0.972s5.22,1.509,7.108,2.582v9.939h-11.661
		c0-1.073-0.297-1.805-0.889-2.193c-0.593-0.389-1.314-0.583-2.165-0.583c-1.222,0-2.102,0.157-2.638,0.472
		c-0.537,0.314-0.806,0.86-0.806,1.638c0,0.63,0.286,1.093,0.861,1.389c0.573,0.297,1.434,0.63,2.582,0.999
		c2.146,0.704,4.173,1.444,6.08,2.222c1.906,0.777,3.581,1.74,5.025,2.887c1.443,1.148,2.582,2.536,3.415,4.165
		c0.832,1.63,1.249,3.628,1.249,5.997c0,4.812-1.555,8.395-4.664,10.744c-3.11,2.352-7.663,3.526-13.66,3.526
		c-3.406,0-6.683-0.297-9.828-0.889c-3.147-0.592-5.664-1.295-7.552-2.109V722.53h12.216c0,1.11,0.222,1.935,0.666,2.472
		C959.281,725.538,960.206,725.807,961.613,725.807z"/>
	<path fill="#FFFFFF" d="M983.658,692.546h22.211v9.106h-3.332v24.987h3.332v9.106h-22.211v-9.106h3.331v-24.987h-3.331V692.546z"/>
	<path fill="#FFFFFF" d="M1007.534,692.546h41.757v13.493h-9.551v-4.387h-3.554v24.987h3.887v9.106h-23.321v-9.106h3.887v-24.987
		h-3.554v4.387h-9.551V692.546z"/>
</g>
<g>
	<path fill="#FFFFFF" d="M871.965,340.197c1.222,0,2.091-0.185,2.61-0.556c0.518-0.369,0.777-0.925,0.777-1.665
		c0-0.519-0.214-0.972-0.639-1.36c-0.426-0.39-1.287-0.842-2.582-1.361c-2.74-1.035-5.137-2.026-7.191-2.971
		c-2.054-0.943-3.757-1.989-5.108-3.137s-2.359-2.489-3.026-4.026c-0.666-1.535-0.999-3.396-0.999-5.58
		c0-2.073,0.323-3.933,0.972-5.581c0.647-1.646,1.702-3.054,3.165-4.22c1.462-1.166,3.405-2.055,5.83-2.665
		c2.425-0.611,5.414-0.916,8.968-0.916c3.221,0,6.256,0.324,9.106,0.972s5.22,1.509,7.108,2.582v9.939h-11.661
		c0-1.073-0.297-1.805-0.889-2.193c-0.593-0.389-1.314-0.583-2.165-0.583c-1.222,0-2.102,0.157-2.638,0.472
		c-0.537,0.314-0.806,0.86-0.806,1.638c0,0.63,0.286,1.093,0.861,1.389c0.573,0.297,1.434,0.63,2.582,0.999
		c2.146,0.704,4.173,1.444,6.08,2.222c1.906,0.777,3.581,1.74,5.025,2.887c1.443,1.148,2.582,2.536,3.415,4.165
		c0.832,1.63,1.249,3.628,1.249,5.997c0,4.812-1.555,8.395-4.664,10.744c-3.11,2.352-7.663,3.526-13.66,3.526
		c-3.406,0-6.683-0.297-9.828-0.889c-3.147-0.592-5.664-1.295-7.552-2.109v-10.995h12.216c0,1.11,0.222,1.935,0.666,2.472
		C869.633,339.929,870.558,340.197,871.965,340.197z"/>
	<path fill="#FFFFFF" d="M918.386,306.937h21.712v9.106h-3.332v24.987h3.332v9.106h-21.712v-9.106h2.832v-9.162h-8.329v9.162h2.832
		v9.106H894.01v-9.106h3.331v-24.987h-3.331v-9.106h21.711v9.106h-2.832v8.44h8.329v-8.44h-2.832V306.937z"/>
	<path fill="#FFFFFF" d="M963.531,341.03h3.332l-0.944-4.387h-7.496l-0.889,4.387h3.332v9.106h-18.991v-9.106h2.222l9.384-34.094
		h20.212l9.385,34.094h2.221v9.106h-21.767V341.03z M959.644,330.758h5.108l-2.276-11.105h-0.556L959.644,330.758z"/>
	<path fill="#FFFFFF" d="M1005.954,341.03h3.665v9.106h-22.545v-9.106h3.332v-24.987h-3.332v-9.106h26.043
		c2.258,0,4.304,0.222,6.136,0.666s3.378,1.157,4.637,2.138c1.258,0.981,2.229,2.268,2.915,3.859
		c0.685,1.592,1.027,3.535,1.027,5.83c0,2.443-0.491,4.572-1.472,6.386c-0.981,1.814-2.415,3.092-4.304,3.832l0.056,0.555
		c3.554,0.556,5.331,2.74,5.331,6.553v4.275h2.609v9.106h-17.602v-13.049c0-1.11-0.121-2.008-0.361-2.693
		c-0.241-0.685-0.63-1.202-1.166-1.555c-0.537-0.352-1.213-0.592-2.027-0.722s-1.796-0.194-2.942-0.194V341.03z M1008.952,325.149
		c1.073,0,1.879-0.277,2.416-0.833c0.536-0.556,0.805-1.462,0.805-2.721v-1.999c0-1.258-0.269-2.166-0.805-2.721
		c-0.537-0.556-1.343-0.833-2.416-0.833h-2.998v9.106H1008.952z"/>
	<path fill="#FFFFFF" d="M1057.872,316.043h-6.719v8.773h4.887v6.33h-4.887v9.884h6.719v-8.773h12.438v17.88h-38.037v-9.106h3.332
		v-24.987h-3.332v-9.106h38.037v16.769h-12.438V316.043z"/>
</g>
<g>
	<path fill="#FFFFFF" d="M202.244,306.937H244v13.493h-9.551v-4.387h-3.554v24.987h3.887v9.106h-23.321v-9.106h3.887v-24.987h-3.554
		v4.387h-9.551V306.937z"/>
	<path fill="#FFFFFF" d="M254.828,350.137l-7.719-34.094h-2.221v-9.106h22.045v9.106h-3.609l2.721,20.822h0.555l6.386-29.929h15.992
		l5.997,29.929h0.556l2.721-20.822h-3.609v-9.106h19.268v9.106h-2.221l-7.163,34.094h-19.379l-5.054-22.877h-0.555l-5.331,22.877
		H254.828z"/>
	<path fill="#FFFFFF" d="M340.951,316.043h-6.719v8.773h4.887v6.33h-4.887v9.884h6.719v-8.773h12.438v17.88h-38.037v-9.106h3.332
		v-24.987h-3.332v-9.106h38.037v16.769h-12.438V316.043z"/>
	<path fill="#FFFFFF" d="M381.762,316.043h-6.719v8.773h4.887v6.33h-4.887v9.884h6.719v-8.773h12.438v17.88h-38.037v-9.106h3.332
		v-24.987h-3.332v-9.106h38.037v16.769h-12.438V316.043z"/>
	<path fill="#FFFFFF" d="M396.421,306.937h41.757v13.493h-9.551v-4.387h-3.554v24.987h3.887v9.106h-23.321v-9.106h3.887v-24.987
		h-3.554v4.387h-9.551V306.937z"/>
</g>
<g>
	<path fill="#FFFFFF" d="M246.914,698.429h23.988v9.106h-5.108v24.987h4.997v-5.108h11.051v14.215h-34.928v-9.106h3.332v-24.987
		h-3.332V698.429z"/>
	<path fill="#FFFFFF" d="M284.062,698.429h22.211v9.106h-3.332v24.987h3.332v9.106h-22.211v-9.106h3.331v-24.987h-3.331V698.429z"/>
	<path fill="#FFFFFF" d="M349.639,707.535l-8.718,11.217l9.551,13.771h2.221v9.106h-16.547l-8.773-15.215v15.215h-18.88v-9.106
		h3.332v-24.987h-3.332v-9.106h18.88v14.937l10.161-14.937h14.326v9.106H349.639z"/>
	<path fill="#FFFFFF" d="M380.401,707.535h-6.719v8.773h4.887v6.33h-4.887v9.884h6.719v-8.773h12.438v17.88h-38.037v-9.106h3.332
		v-24.987h-3.332v-9.106h38.037v16.769h-12.438V707.535z"/>
</g>
<g>
	<g>
		<g>
			<path fill="#FFFFFF" d="M400.996,78.701c-5.974,2.65-12.394,4.44-19.13,5.245c6.876-4.123,12.158-10.649,14.645-18.428
				c-6.436,3.817-13.564,6.589-21.151,8.083c-6.075-6.473-14.732-10.518-24.312-10.518c-18.396,0-33.308,14.913-33.308,33.308
				c0,2.61,0.293,5.152,0.862,7.59c-27.683-1.389-52.226-14.649-68.652-34.8c-2.868,4.919-4.511,10.64-4.511,16.744
				c0,11.556,5.881,21.751,14.817,27.724c-5.459-0.173-10.596-1.671-15.086-4.167c-0.003,0.14-0.003,0.279-0.003,0.419
				c0,16.138,11.481,29.599,26.717,32.659c-2.794,0.762-5.736,1.17-8.773,1.17c-2.146,0-4.232-0.21-6.268-0.598
				c4.239,13.231,16.54,22.862,31.114,23.13c-11.397,8.933-25.761,14.259-41.366,14.259c-2.688,0-5.34-0.158-7.945-0.467
				c14.74,9.452,32.248,14.966,51.058,14.966c61.266,0,94.768-50.754,94.768-94.768c0-1.444-0.031-2.88-0.096-4.309
				C390.884,91.247,396.529,85.381,400.996,78.701z"/>
		</g>
	</g>
	<g opacity="0.15">
		<ellipse fill="#FFFFFF" cx="318.86" cy="268.435" rx="67.424" ry="5.418"/>
	</g>
</g>
<g>
	<g>
		<g>
			<path fill="#5B739D" d="M273.717,587.905c-1.458,0-2.676-1.127-2.787-2.576l-4.066-51.824c-0.061-0.771,0.206-1.543,0.734-2.123
				c0.535-0.576,1.278-0.898,2.055-0.898h31.06c1.547,0,2.797,1.258,2.797,2.803v51.818c0,1.555-1.25,2.801-2.797,2.801H273.717"/>
		</g>
		<g>
			<path fill="#5B739D" d="M300.713,533.286v51.818h-26.996l-4.064-51.818H300.713 M300.713,527.677h-31.06
				c-1.553,0-3.051,0.664-4.108,1.805c-1.062,1.15-1.597,2.682-1.474,4.248l4.065,51.809c0.229,2.916,2.658,5.172,5.581,5.172
				h26.996c3.097,0,5.604-2.51,5.604-5.605v-51.818C306.317,530.198,303.81,527.677,300.713,527.677"/>
		</g>
		<g>
			<path fill="#F1F6F7" d="M372.532,538.989c11.078,0,14.887-14.117,3.803-14.117c-7.589,0-37.386,0-37.386,0
				c1.367-5.379,3.874-22.553,3.874-22.553c-0.571-8.322-6.147-18.781-6.147-18.781c-6.621-2.791-9.601,1.035-9.601,1.035
				s0.341,13.24,0.341,16.309c0,3.051-15.13,27.52-18.831,30.672c-3.695,3.148-12.898,8.506-12.898,8.506
				c-10.971,26.477,2.521,37.24,2.521,37.24s2.742,0,7.088,0c2.652,0,5.89,4.057,9.474,4.057c16.608,0,40.534,0,46.335,0
				c11.083,0,14.886-14.119,3.808-14.119c11.078,0,14.892-14.119,3.809-14.119C379.807,553.118,383.61,538.989,372.532,538.989"/>
		</g>
		<g>
			<path fill="#FFFFFF" d="M332.137,484.616c0.932,0,1.948,0.201,3.031,0.59c1.188,2.367,5.016,10.451,5.54,17.043
				c-0.299,2.039-2.553,17.225-3.789,22.109l-0.66,2.621h2.69h37.386c1.627,0,2.887,0.355,3.653,1.043
				c0.595,0.529,0.894,1.26,0.894,2.152c0,2.756-2.976,6.719-8.351,6.719v4.205c1.623,0,2.886,0.365,3.649,1.043
				c0.599,0.529,0.897,1.256,0.897,2.166c0,2.742-2.979,6.711-8.354,6.711v4.186c1.623,0,2.886,0.369,3.658,1.057
				c0.589,0.529,0.889,1.266,0.889,2.158c0,2.75-2.976,6.719-8.355,6.719v4.205c1.628,0,2.887,0.354,3.658,1.043
				c0.59,0.529,0.889,1.258,0.889,2.162c0,2.736-2.975,6.709-8.355,6.709h-46.335c-1.309,0-2.835-0.984-4.31-1.928
				c-1.632-1.049-3.321-2.133-5.164-2.133h-6.264c-2.147-2.189-10.273-12.324-1.676-33.691c2.166-1.285,9.324-5.57,12.594-8.369
				c2.906-2.475,9.863-13.643,11.224-15.852c3.808-6.184,8.342-14.037,8.342-16.402c0-2.609-0.238-12.309-0.318-15.416
				C329.719,485.103,330.678,484.616,332.137,484.616 M332.137,482.521c-3.461,0-5.061,2.053-5.061,2.053s0.341,13.24,0.341,16.309
				c0,3.051-15.13,27.52-18.831,30.672c-3.695,3.148-12.898,8.506-12.898,8.506c-10.971,26.477,2.521,37.24,2.521,37.24
				s2.742,0,7.088,0c2.652,0,5.89,4.057,9.474,4.057c16.608,0,40.534,0,46.335,0c11.083,0,14.886-14.119,3.808-14.119
				c11.078,0,14.892-14.119,3.809-14.119c11.083,0,14.886-14.129,3.808-14.129c11.078,0,14.887-14.117,3.803-14.117
				c-7.589,0-37.386,0-37.386,0c1.367-5.379,3.874-22.553,3.874-22.553c-0.571-8.322-6.147-18.781-6.147-18.781
				C334.908,482.786,333.401,482.521,332.137,482.521"/>
		</g>
		<g>
			<path fill="#E3E9EA" d="M331.965,482.521c0,0,4.132,15.33,4.132,17.525c0,2.193-13.587,20.383-10.807,23.162
				c2.777,2.783,13.66,1.664,13.66,1.664c0.927-4.4,3.874-22.553,3.874-22.553c-0.571-8.322-4.491-18.781-4.491-18.781
				C335.127,481.954,332.942,481.925,331.965,482.521z"/>
		</g>
		<g>
			<path fill="#E3E9EA" d="M376.335,524.872H361c6.91,0,3.887,14.117-3.022,14.117c6.909,0,3.887,14.129-3.027,14.129
				c6.914,0,3.896,14.119-3.022,14.119c6.918,0,3.892,14.119-3.023,14.119h12.202c11.083,0,14.886-14.119,3.808-14.119
				c11.078,0,14.892-14.119,3.809-14.119c11.083,0,14.886-14.129,3.808-14.129C383.61,538.989,387.419,524.872,376.335,524.872z"/>
		</g>
		<g>
			<polygon fill="#F1F6F7" points="353.293,567.536 350.556,566.942 357.008,537.159 359.741,537.747 			"/>
		</g>
		<g>
			<path fill="#5B739D" d="M332.137,482.521c1.264,0,2.771,0.266,4.54,1.018c0,0,5.576,10.459,6.147,18.781
				c0,0-2.507,17.174-3.874,22.553c0,0,29.796,0,37.386,0c11.083,0,7.275,14.117-3.803,14.117c11.078,0,7.274,14.129-3.808,14.129
				c11.083,0,7.269,14.119-3.809,14.119c11.078,0,7.275,14.119-3.808,14.119c-5.802,0-29.727,0-46.335,0
				c-3.584,0-6.822-4.057-9.474-4.057c-4.347,0-7.088,0-7.088,0s-13.493-10.764-2.521-37.24c0,0,9.203-5.357,12.898-8.506
				c3.701-3.152,18.831-27.621,18.831-30.672c0-3.068-0.341-16.309-0.341-16.309S328.676,482.521,332.137,482.521 M332.137,476.919
				c-5.904,0-8.935,3.514-9.483,4.217c-0.8,1.023-1.21,2.283-1.179,3.582c0,0.123,0.304,11.766,0.338,15.557
				c-1.667,4.596-13.965,24.342-16.885,27.037c-2.69,2.283-9.624,6.475-12.062,7.906c-1.057,0.621-1.884,1.566-2.357,2.695
				c-12.437,30.035,3.526,43.215,4.21,43.756c0.993,0.797,2.217,1.223,3.49,1.223h6.593c0.392,0.201,1.043,0.617,1.501,0.912
				c2.068,1.328,4.903,3.148,8.468,3.148h46.335c9.605,0,16.061-7.447,16.061-14.404c0-1.465-0.271-2.863-0.795-4.141
				c2.915-2.75,4.599-6.428,4.599-9.988c0-1.465-0.272-2.852-0.795-4.137c2.917-2.746,4.603-6.424,4.603-9.975
				c0-1.465-0.271-2.867-0.796-4.145c2.93-2.754,4.604-6.434,4.604-9.988c0-3.098-1.23-5.9-3.466-7.898
				c-1.535-1.369-4.309-3.002-8.786-3.002h-30.545c1.233-6.969,2.498-15.637,2.572-16.146c0.061-0.383,0.076-0.785,0.046-1.184
				c-0.645-9.408-6.54-20.576-6.792-21.045c-0.604-1.141-1.582-2.033-2.77-2.529C336.55,477.405,334.299,476.919,332.137,476.919"/>
			<path fill="#FFFFFF" d="M361.107,587.452h-46.335c-3.712,0-6.617-1.865-8.738-3.228c-0.292-0.188-0.942-0.607-1.355-0.833h-6.469
				c-1.382,0-2.732-0.474-3.803-1.333c-0.696-0.551-16.965-13.892-4.359-44.337c0.511-1.222,1.422-2.263,2.565-2.935
				c0.363-0.213,8.912-5.243,11.992-7.856c2.828-2.611,14.914-21.962,16.708-26.743c-0.03-3.16-0.233-11.274-0.31-14.347
				c-0.017-0.686-0.027-1.101-0.027-1.123c-0.034-1.401,0.422-2.787,1.285-3.89c0.573-0.736,3.746-4.409,9.877-4.409
				c2.227,0,4.549,0.501,6.903,1.49c1.289,0.538,2.361,1.518,3.018,2.756c0.06,0.112,6.188,11.588,6.849,21.245
				c0.033,0.438,0.016,0.875-0.051,1.296c-0.051,0.355-1.267,8.688-2.47,15.568h29.949c4.637,0,7.519,1.701,9.119,3.129
				c2.343,2.094,3.633,5.031,3.633,8.271c0,3.633-1.642,7.302-4.517,10.117c0.47,1.257,0.708,2.606,0.708,4.016
				c0,3.621-1.642,7.286-4.516,10.104c0.47,1.264,0.708,2.61,0.708,4.007c0,3.626-1.64,7.295-4.512,10.117
				c0.47,1.257,0.708,2.604,0.708,4.012C377.668,579.746,371.013,587.452,361.107,587.452z M332.137,477.419
				c-5.666,0-8.565,3.353-9.088,4.024c-0.721,0.922-1.103,2.08-1.074,3.263c0,0.049,0.011,0.453,0.027,1.109
				c0.078,3.105,0.284,11.354,0.311,14.454l0.001,0.091l-0.031,0.085c-1.703,4.695-14.107,24.549-17.016,27.233
				c-3.162,2.684-11.783,7.756-12.148,7.971c-0.958,0.562-1.722,1.436-2.149,2.457c-12.32,29.754,3.384,42.637,4.059,43.171
				c0.91,0.729,2.008,1.114,3.18,1.114h6.714l0.107,0.055c0.391,0.201,1,0.587,1.544,0.938c2.016,1.295,4.778,3.068,8.197,3.068
				h46.335c9.308,0,15.561-7.189,15.561-13.904c0-1.396-0.255-2.726-0.757-3.951l-0.13-0.317l0.25-0.235
				c2.823-2.664,4.442-6.172,4.442-9.625c0-1.384-0.255-2.713-0.758-3.948l-0.129-0.317l0.25-0.235
				c2.825-2.659,4.446-6.162,4.446-9.61c0-1.398-0.255-2.729-0.759-3.954l-0.131-0.319l0.251-0.235
				c2.826-2.656,4.447-6.164,4.447-9.624c0-2.952-1.172-5.625-3.299-7.525c-1.47-1.312-4.131-2.875-8.453-2.875h-31.141l0.104-0.587
				c1.233-6.968,2.516-15.761,2.57-16.132c0.055-0.351,0.069-0.71,0.042-1.074c-0.647-9.447-6.673-20.732-6.734-20.845
				c-0.55-1.038-1.445-1.855-2.522-2.306C336.422,477.895,334.23,477.419,332.137,477.419z M361.107,581.856h-46.335
				c-2.073,0-4.007-1.241-5.713-2.336c-1.379-0.885-2.681-1.721-3.761-1.721h-7.263l-0.137-0.109
				c-0.138-0.109-13.66-11.305-2.671-37.822l0.064-0.156l0.146-0.084c0.092-0.054,9.207-5.371,12.826-8.455
				c3.661-3.118,18.655-27.465,18.655-30.291c0-3.027-0.338-16.163-0.341-16.296l-0.004-0.179l0.11-0.142
				c0.072-0.092,1.792-2.245,5.456-2.245c1.492,0,3.085,0.355,4.735,1.058l0.162,0.069l0.083,0.155
				c0.229,0.431,5.632,10.649,6.205,18.982l0.003,0.054l-0.008,0.053c-0.024,0.166-2.349,16.05-3.733,21.98h36.75
				c2.274,0,4.138,0.591,5.389,1.709c1.151,1.029,1.76,2.446,1.76,4.099c0,3.667-2.929,7.547-7.564,8.852
				c0.774,0.283,1.446,0.674,1.999,1.169c1.151,1.029,1.759,2.447,1.759,4.101c0,3.671-2.929,7.553-7.565,8.858
				c0.774,0.283,1.445,0.674,1.998,1.167c1.151,1.029,1.76,2.446,1.76,4.098c0,3.669-2.93,7.55-7.567,8.855
				c0.773,0.282,1.445,0.674,1.998,1.167c1.151,1.029,1.76,2.447,1.76,4.1C372.062,577.042,367.66,581.856,361.107,581.856z
				 M298.395,576.8h6.903c1.373,0,2.795,0.913,4.301,1.879c1.667,1.071,3.393,2.178,5.172,2.178h46.335
				c6.496,0,9.955-4.826,9.955-8.311c0-1.36-0.493-2.52-1.426-3.354c-1.065-0.952-2.697-1.455-4.721-1.455v-1
				c6.496,0,9.956-4.828,9.956-8.313c0-1.359-0.493-2.518-1.426-3.352c-1.064-0.951-2.697-1.454-4.721-1.454v-1
				c6.495,0,9.955-4.83,9.955-8.317c0-1.36-0.493-2.521-1.426-3.355c-1.064-0.953-2.697-1.456-4.72-1.456v-1
				c6.494,0,9.953-4.826,9.953-8.31c0-1.359-0.493-2.519-1.427-3.353c-1.065-0.952-2.698-1.455-4.723-1.455h-38.029l0.159-0.623
				c1.307-5.145,3.7-21.387,3.856-22.448c-0.539-7.567-5.317-17.044-6.004-18.371c-1.467-0.604-2.873-0.909-4.18-0.909
				c-2.703,0-4.158,1.312-4.556,1.735c0.042,1.655,0.336,13.29,0.336,16.126c0,3.465-15.659,28.201-19.007,31.053
				c-3.476,2.961-11.591,7.749-12.825,8.472C286.067,564.743,297.073,575.613,298.395,576.8z"/>
		</g>
		<g>
			<path fill="#DFE3E6" d="M305.298,536.544c-1.013,0.676-2.054,1.348-3.047,1.973v36.68h3.047l0,0V536.544"/>
		</g>
		<g>
			<path fill="#E9E8EA" d="M305.298,575.196h-3.047v2.104c0.894,0,1.916,0,3.047,0V575.196L305.298,575.196 M305.298,534.017
				c-0.758,0.521-1.554,1.051-2.353,1.572c-0.231,0.15-0.462,0.299-0.694,0.449v2.479c0.993-0.625,2.034-1.297,3.047-1.973V534.017"
				/>
		</g>
		<g>
			<path fill="#576F97" d="M305.298,534.011c-0.758,0.525-1.555,1.057-2.353,1.578c0.799-0.521,1.595-1.051,2.353-1.572V534.011"/>
		</g>
		<g>
			<path fill="#5B739D" d="M296.652,533.286v51.818h-31.056l-4.07-51.818H296.652 M296.652,527.677h-35.126
				c-1.558,0-3.051,0.664-4.112,1.805c-1.058,1.15-1.59,2.682-1.469,4.248l4.065,51.809c0.229,2.916,2.662,5.172,5.586,5.172h31.056
				c3.092,0,5.599-2.51,5.599-5.605v-51.818C302.251,530.198,299.744,527.677,296.652,527.677"/>
			<path fill="#FFFFFF" d="M296.652,591.21h-31.056c-3.164,0-5.837-2.475-6.085-5.633l-4.065-51.809
				c-0.131-1.691,0.452-3.377,1.599-4.626c1.164-1.25,2.796-1.966,4.48-1.966h35.126c3.363,0,6.099,2.74,6.099,6.109v51.818
				C302.751,588.471,300.015,591.21,296.652,591.21z M261.526,528.177c-1.408,0-2.773,0.6-3.746,1.646
				c-0.958,1.042-1.446,2.453-1.336,3.868l4.065,51.809c0.208,2.642,2.442,4.711,5.088,4.711h31.056c2.812,0,5.099-2.29,5.099-5.105
				v-51.818c0-2.817-2.288-5.109-5.099-5.109H261.526z M297.152,585.604h-32.018l-4.149-52.818h36.167V585.604z M266.059,584.604
				h30.093v-50.818h-34.085L266.059,584.604z"/>
		</g>
		<g>
			<polyline fill="#768AB5" points="265.596,585.104 296.652,585.104 296.652,533.286 261.526,533.286 265.596,585.104 			"/>
		</g>
		<g>
			<polyline fill="#697DA4" points="261.526,533.286 261.526,539.868 262.043,539.868 261.526,533.286 			"/>
		</g>
		<g>
			<polyline fill="#8293BB" points="294.551,535.396 263.804,535.396 264.154,539.868 294.551,539.868 294.551,535.396 			"/>
		</g>
		<g>
			<path fill="#8293BB" d="M264.154,539.868l-0.35-4.473h30.747v4.473v43.135h-27.012L264.154,539.868 M296.652,533.286h-35.126
				l4.07,51.818h31.056V533.286"/>
		</g>
		<g>
			<path fill="#7280A3" d="M290.247,574.513c0.546,0.639,0.876,1.465,0.876,2.371c0,2.014-1.639,3.631-3.652,3.631
				c-0.896,0-1.72-0.324-2.355-0.861c0.667,0.773,1.653,1.26,2.755,1.26c2.012,0,3.639-1.625,3.639-3.645
				C291.51,576.167,291.021,575.181,290.247,574.513"/>
		</g>
		<g>
			<path fill="#EBEEEF" d="M291.123,576.884c0-2.021-1.639-3.645-3.652-3.645c-2.006,0-3.644,1.623-3.644,3.645
				c0,2.014,1.637,3.631,3.644,3.631C289.484,580.515,291.123,578.897,291.123,576.884"/>
		</g>
		<g>
			<path fill="#F1F6F7" d="M290.514,576.884c0-1.688-1.357-3.047-3.042-3.047c-1.673,0-3.04,1.359-3.04,3.047
				c0,1.67,1.367,3.031,3.04,3.031C289.157,579.915,290.514,578.554,290.514,576.884"/>
		</g>
		<g>
			<path fill="#F7FAFB" d="M286.5,574.663c-0.894,0-1.62,0.715-1.62,1.607c0,0.895,0.726,1.615,1.62,1.615s1.619-0.721,1.619-1.615
				C288.118,575.378,287.393,574.663,286.5,574.663"/>
		</g>
		<g>
			<path fill="#768AB5" d="M287.094,576.28c0-0.158-0.131-0.295-0.295-0.295c-0.164,0-0.291,0.137-0.291,0.295
				c0,0.164,0.127,0.295,0.291,0.295C286.963,576.575,287.094,576.444,287.094,576.28z"/>
		</g>
		<g>
			<path fill="#768AB5" d="M287.094,577.731c0-0.16-0.131-0.295-0.295-0.295c-0.164,0-0.291,0.135-0.291,0.295
				c0,0.154,0.127,0.289,0.291,0.289C286.963,578.021,287.094,577.886,287.094,577.731z"/>
		</g>
		<g>
			<path fill="#768AB5" d="M288.431,576.28c0-0.158-0.12-0.295-0.285-0.295c-0.164,0-0.295,0.137-0.295,0.295
				c0,0.164,0.131,0.295,0.295,0.295C288.311,576.575,288.431,576.444,288.431,576.28z"/>
		</g>
		<g>
			<path fill="#768AB5" d="M288.431,577.731c0-0.16-0.12-0.295-0.285-0.295c-0.164,0-0.295,0.135-0.295,0.295
				c0,0.154,0.131,0.289,0.295,0.289C288.311,578.021,288.431,577.886,288.431,577.731z"/>
		</g>
		<g>
			<polygon fill="#E3E9EA" points="366.894,572.813 358.781,570.63 368.812,533.421 376.93,535.593 			"/>
		</g>
	</g>
	<g opacity="0.15">
		<ellipse fill="#FFFFFF" cx="318.479" cy="660.298" rx="67.424" ry="5.418"/>
	</g>
</g>
<g>
	<g>
		<g>
			<path fill="#FFFFFF" d="M992.252,470.797c-0.061-6.725-10.497-6.732-10.435,0c0.023,2.572,0.192,5.139,0.337,7.705
				c-0.268,0.277-0.506,0.576-0.695,0.9c-1.375,2.348-0.637,4.842,1.156,6.539c0.652,0.848,1.384,1.525,2.321,2.205
				c3.277,2.383,7.884-0.838,7.851-4.506C992.749,479.354,992.292,475.084,992.252,470.797z"/>
		</g>
		<g>
			<path fill="#FFFFFF" d="M1033,481.021c-1.659-1.66-3.748-1.807-5.637-1.023c-2.211-1.525-5.493-1.396-7.374,1.545
				c-1.256,1.963-2.386,3.988-3.746,5.887c-0.145,0.201-0.266,0.404-0.375,0.607c-1.023,0.24-1.966,0.721-2.688,1.551
				c-1.722,1.973-2.083,4.16-2.813,6.58c-0.008,0.027-0.013,0.053-0.02,0.08c-0.395,0.146-0.791,0.305-1.184,0.486
				c-1.631,0.752-1.747,2.322-1.054,3.531c-0.569,0.346-1.124,0.723-1.656,1.189c-0.989,0.865-0.974,2.32-0.439,3.404
				c0.069,0.154,0.125,0.271,0.171,0.369c0.102,1.131,0.871,2.287,2.043,2.527c4.687,0.953,8.591-0.906,12.005-3.756
				c4.484-2.373,8.551-6.492,11.457-10.27c1.413-1.834,2.619-4.367,2.42-6.764C1034.983,485.051,1034.42,482.441,1033,481.021z"/>
		</g>
		<g>
			<g>
				<g>
					<g>
						<path fill="#9D9D9D" d="M1021.853,534.779c4.764,2.383,10.004-3.811,12.861-7.621c0.478,6.193-2.857,23.818-11.909,18.578"/>
					</g>
				</g>
				<g>
					<g>
						<g>
							<path fill="#010101" d="M1022.806,545.736c-0.058,0.102,0.011,0.279,0.223,0.514c0.211,0.232,0.562,0.527,1.096,0.809
								c0.533,0.275,1.266,0.545,2.199,0.58c0.464,0.02,0.973-0.029,1.492-0.164c0.521-0.133,1.048-0.354,1.55-0.648
								c1.007-0.594,1.896-1.469,2.651-2.48c0.757-1.014,1.394-2.174,1.938-3.42c0.545-1.248,0.998-2.586,1.367-3.99
								c0.186-0.703,0.351-1.422,0.494-2.156c0.071-0.367,0.137-0.736,0.198-1.111l0.087-0.564l0.083-0.607
								c0.258-2.012,0.347-4.012,0.211-5.525l-0.184-2.232l-0.097-1.145l-0.099-0.896l-2.212,3.014
								c-0.358,0.488-0.707,0.969-1.044,1.414c-0.338,0.449-0.666,0.869-0.988,1.271c-0.322,0.398-0.64,0.777-0.956,1.137
								l-0.644,0.729c-0.311,0.348-0.62,0.68-0.925,0.99c-1.223,1.25-2.419,2.178-3.487,2.707c-2.136,1.102-3.73,0.432-3.905,0.82
								c-0.043,0.088,0.005,0.221,0.158,0.389c0.153,0.166,0.412,0.369,0.8,0.551c0.386,0.184,0.905,0.342,1.531,0.393
								c0.626,0.057,1.353-0.004,2.113-0.199c1.529-0.389,3.144-1.314,4.681-2.572c0.386-0.314,0.768-0.648,1.148-1.004l0.284-0.27
								l0.071-0.068c0.006-0.004,0.009-0.004,0.012-0.008l0.021-0.01c0.027-0.012,0.047-0.021,0.068-0.029
								c0.077-0.027,0.104-0.016,0.107,0.016c0,0.008,0,0.014-0.001,0.023l-0.014,0.053c-0.009,0.031-0.017,0.053-0.023,0.066
								c-0.013,0.027-0.019,0.027-0.019,0.027l-0.065,0.482l-0.076,0.516c-0.053,0.344-0.11,0.682-0.17,1.02
								c-0.12,0.674-0.254,1.336-0.401,1.979c-0.294,1.287-0.641,2.51-1.042,3.629c-0.399,1.117-0.854,2.137-1.363,3.004
								c-0.509,0.865-1.075,1.572-1.665,2.064c-0.588,0.496-1.2,0.779-1.802,0.906c-0.599,0.129-1.182,0.107-1.672,0.059
								c-0.491-0.053-0.895-0.131-1.187-0.154C1023.05,545.613,1022.866,545.633,1022.806,545.736z"/>
						</g>
					</g>
				</g>
			</g>
			<g>
				<g>
					<g>
						<path fill="#F9ED27" d="M1018.319,557.354c-16.97,24.248-56.157,35.654-93.124,22.309
							c-27.838-10.049-41.912-42.932-29.602-69.846c12.31-26.916,48.128-46.816,73.002-30.779
							C1004.446,502.15,1036.459,531.436,1018.319,557.354z"/>
					</g>
				</g>
				<g>
					<g>
						<path d="M1019.644,558.291c-1.171,1.652-2.447,3.25-3.797,4.764c-1.353,1.518-2.783,2.959-4.277,4.328
							c-2.995,2.73-6.241,5.174-9.665,7.312c-3.416,2.154-7.013,4.006-10.72,5.586c-3.708,1.58-7.533,2.875-11.428,3.896
							c-7.792,2.047-15.857,2.99-23.907,2.928c-8.054-0.061-16.102-1.158-23.895-3.227c-1.948-0.518-3.882-1.092-5.797-1.727
							c-0.958-0.32-1.9-0.641-2.877-1.01c-0.962-0.361-1.913-0.752-2.852-1.172c-3.76-1.678-7.322-3.805-10.59-6.318
							c-6.543-5.023-11.89-11.58-15.587-18.973c-3.695-7.393-5.771-15.631-5.868-23.957c-0.049-4.162,0.389-8.338,1.321-12.408
							c0.466-2.035,1.055-4.043,1.762-6.01c0.709-1.967,1.544-3.891,2.472-5.746c1.852-3.719,4.091-7.223,6.62-10.486
							c2.527-3.268,5.349-6.293,8.403-9.057c3.055-2.768,6.348-5.273,9.846-7.469c3.496-2.195,7.196-4.092,11.075-5.592
							c3.876-1.5,7.931-2.615,12.097-3.199c4.162-0.586,8.441-0.641,12.659-0.014c2.107,0.311,4.198,0.787,6.233,1.439
							c2.037,0.652,4.02,1.477,5.918,2.459c0.948,0.49,1.876,1.021,2.78,1.588c0.224,0.141,0.454,0.289,0.667,0.432l0.622,0.41
							l1.244,0.826c1.654,1.105,3.302,2.225,4.939,3.359c6.554,4.533,12.937,9.342,19.037,14.527c3.045,2.6,6.014,5.299,8.869,8.129
							c2.853,2.832,5.594,5.795,8.142,8.939c2.546,3.146,4.899,6.479,6.905,10.055c1.999,3.572,3.645,7.412,4.569,11.494
							c0.461,2.037,0.735,4.131,0.783,6.238c0.049,2.105-0.144,4.227-0.577,6.291c-0.433,2.066-1.106,4.072-1.98,5.975
							c-0.873,1.902-1.939,3.699-3.141,5.381L1019.644,558.291z M1016.991,556.422c1.063-1.553,1.985-3.188,2.725-4.893
							c0.74-1.703,1.292-3.475,1.634-5.283c0.687-3.619,0.49-7.371-0.437-10.975c-0.914-3.609-2.493-7.074-4.432-10.34
							c-1.942-3.271-4.255-6.348-6.761-9.273c-2.51-2.922-5.221-5.693-8.051-8.348c-2.832-2.652-5.787-5.188-8.82-7.633
							c-6.063-4.9-12.446-9.432-18.96-13.777c-1.631-1.082-3.271-2.15-4.921-3.207l-1.24-0.789l-0.623-0.395l-0.583-0.361
							c-0.776-0.473-1.569-0.912-2.38-1.32c-3.24-1.627-6.744-2.691-10.35-3.189c-3.605-0.498-7.304-0.438-10.958,0.096
							c-3.656,0.535-7.269,1.525-10.756,2.881c-6.981,2.717-13.458,6.838-19.09,11.869c-1.408,1.26-2.763,2.58-4.055,3.955
							c-1.296,1.375-2.531,2.803-3.698,4.285c-2.333,2.961-4.397,6.127-6.111,9.457c-0.857,1.668-1.616,3.365-2.27,5.105
							c-0.657,1.74-1.211,3.52-1.655,5.328c-0.89,3.617-1.344,7.346-1.359,11.084c-0.013,3.738,0.394,7.488,1.218,11.15
							c0.823,3.664,2.06,7.242,3.675,10.645c3.22,6.811,7.968,12.922,13.859,17.656c2.942,2.369,6.163,4.396,9.583,6.014
							c0.855,0.406,1.724,0.785,2.602,1.139c0.863,0.35,1.785,0.684,2.693,1.004c1.824,0.641,3.668,1.225,5.53,1.748
							c7.446,2.1,15.16,3.273,22.906,3.453c7.742,0.182,15.518-0.652,23.034-2.521c7.511-1.875,14.783-4.799,21.343-8.883
							C1006.829,568.016,1012.635,562.734,1016.991,556.422z"/>
					</g>
				</g>
			</g>
			<g>
				<g>
					<g>
						<path fill="#010101" d="M919.986,510.105c-4.177,12.168-13.838,16.656-21.645,13.975c-7.803-2.68-12.454-12.082-8.276-24.248
							s16.034-22.342,23.838-19.662C921.709,482.85,924.165,497.941,919.986,510.105z"/>
					</g>
				</g>
				<g>
					<g>
						<circle fill="#FFFFFF" cx="912.55" cy="503.344" r="2.757"/>
					</g>
				</g>
				<g>
					<g>
						<path fill="#FFFFFF" d="M905.403,498.273c0.821,0.377,1.182,1.348,0.807,2.17s-1.348,1.184-2.169,0.807
							c-0.822-0.373-1.182-1.346-0.805-2.168C903.61,498.262,904.581,497.9,905.403,498.273z"/>
					</g>
				</g>
				<g>
					<g>
						<path fill="#FFFFFF" d="M914.683,486.785c-0.651-1.082-1.624-1.988-2.859-2.551c-3.259-1.492-7.108-0.059-8.599,3.201
							c-1.328,2.904-0.333,6.281,2.209,8.033c0.31,0.215,0.641,0.402,0.994,0.564c3.258,1.49,7.105,0.055,8.595-3.203
							C915.949,490.809,915.748,488.559,914.683,486.785z"/>
					</g>
				</g>
			</g>
			<g>
				<g>
					<g>
						<path fill="#010101" d="M965.597,494.5c-4.834,14.082-15.628,18.889-24.662,15.785c-9.032-3.102-14.414-13.984-9.579-28.064
							c4.834-14.082,18.168-25.469,27.2-22.367C967.59,462.957,970.434,480.422,965.597,494.5z"/>
					</g>
				</g>
				<g>
					<g>
						<circle fill="#FFFFFF" cx="956.989" cy="486.673" r="3.19"/>
					</g>
				</g>
				<g>
					<g>
						<circle fill="#FFFFFF" cx="947.93" cy="482.529" r="1.894"/>
					</g>
				</g>
				<g>
					<g>
						<path fill="#FFFFFF" d="M959.458,467.51c-0.754-1.252-1.878-2.301-3.308-2.955c-3.771-1.725-8.226-0.064-9.952,3.707
							c-1.536,3.361-0.385,7.27,2.557,9.297c0.357,0.248,0.741,0.467,1.149,0.654c3.772,1.725,8.226,0.064,9.95-3.707
							C960.924,472.166,960.692,469.561,959.458,467.51z"/>
					</g>
				</g>
			</g>
			<g>
				<g>
					<g>
						<path fill="none" stroke="#000000" stroke-width="0.5" stroke-miterlimit="10" d="M1015.009,483.367"/>
					</g>
				</g>
			</g>
			<g>
				<g>
					<g>
						<path d="M963.563,446.213c-0.209,0.111,0.123,1.168,0.766,2.812c0.645,1.643,1.595,3.877,2.67,6.334
							c1.08,2.457,2.081,4.672,2.86,6.254c0.78,1.584,1.34,2.541,1.563,2.463c0.221-0.078,0.06-1.186-0.438-2.898
							c-0.498-1.711-1.333-4.021-2.423-6.504c-1.087-2.482-2.224-4.662-3.152-6.186
							C964.482,446.967,963.769,446.102,963.563,446.213z"/>
					</g>
				</g>
			</g>
			<g>
				<g>
					<g>
						<path d="M909.26,461.217c-0.148-0.172-1.39,0.58-3.132,2.135c-1.739,1.547-3.958,3.92-5.947,6.895
							c-1.395,2.082-2.477,4.174-3.214,6.018c-0.37,0.922-0.656,1.779-0.869,2.539c-0.107,0.381-0.195,0.736-0.266,1.064
							c-0.037,0.162-0.066,0.32-0.095,0.469l-0.038,0.217c-0.008,0.041-0.01,0.061-0.021,0.115l-0.028,0.143l0.011,0.121
							l0.006,0.059l0.005,0.039l0,0.004v0.002c-0.657,0,0.896,0,0.736,0h-0.001v-0.006l-0.001-0.01l-0.003-0.02l-0.005-0.039
							l-0.013-0.076l-0.045-0.281c-0.03-0.174-0.062-0.322-0.096-0.441c-0.065-0.24-0.134-0.367-0.204-0.367
							c-0.071,0-0.139,0.127-0.205,0.367c-0.032,0.119-0.064,0.268-0.096,0.441l-0.045,0.281l-0.012,0.076L895.678,481l-0.003,0.02
							l-0.002,0.01v0.006l0,0c-0.16,0,1.394,0,0.736,0v-0.002l0.001-0.004l0.005-0.039l0.006-0.023l0.01-0.045l0.028-0.049
							c0.008-0.012,0.025-0.059,0.038-0.086l0.084-0.197l0.184-0.426l0.423-0.971c0.307-0.695,0.673-1.482,1.101-2.336
							c0.852-1.703,1.967-3.658,3.311-5.662c1.912-2.861,3.91-5.273,5.39-7C908.47,462.469,909.419,461.4,909.26,461.217z"/>
					</g>
				</g>
			</g>
			<g>
				<g>
					<path d="M985.325,492.172c0.028,0.023,0.079,0.098,0.074,0.092l0.024,0.039l0.038,0.059l0.064,0.109l0.118,0.207l0.22,0.416
						c0.144,0.275,0.286,0.551,0.42,0.83c0.27,0.559,0.531,1.117,0.787,1.68c0.499,1.131,0.985,2.268,1.434,3.418
						c0.904,2.301,1.726,4.637,2.457,7.002c0.729,2.365,1.385,4.758,1.949,7.176c0.564,2.42,1.044,4.861,1.455,7.322
						c0.812,4.922,1.342,9.928,1.387,14.994c0.054,5.062-0.42,10.195-1.652,15.225c-0.617,2.514-1.418,4.996-2.434,7.404
						c-1.006,2.412-2.241,4.742-3.657,6.957c-2.852,4.418-6.558,8.314-10.837,11.291c-4.271,2.996-9.039,5.105-13.913,6.445
						c-4.88,1.338-9.868,1.965-14.814,1.982l-0.129-1.094c4.745-1.137,9.374-2.51,13.714-4.4c4.335-1.881,8.376-4.264,11.858-7.217
						c0.873-0.734,1.708-1.508,2.506-2.314c0.801-0.801,1.563-1.637,2.283-2.504c0.718-0.871,1.406-1.766,2.048-2.689
						c0.645-0.924,1.239-1.881,1.803-2.857c2.257-3.904,3.829-8.199,4.95-12.645c1.116-4.453,1.775-9.074,2.121-13.766
						c0.333-4.695,0.308-9.467-0.038-14.236c-0.17-2.387-0.424-4.773-0.729-7.158c-0.308-2.385-0.658-4.771-1.063-7.154
						c-0.404-2.383-0.842-4.766-1.335-7.145c-0.25-1.188-0.496-2.379-0.773-3.562c-0.133-0.594-0.271-1.188-0.417-1.777
						l-0.221-0.885l-0.117-0.436l-0.06-0.215l-0.029-0.1l-0.014-0.043c0-0.006-0.002-0.012-0.002-0.012
						c-0.014-0.021,0.028,0.035,0.042,0.045L985.325,492.172z"/>
				</g>
			</g>
			<g>
				<g>
					<path d="M1001.502,504.967c0.055,0.051,0.055,0.059,0.072,0.078l0.038,0.045l0.065,0.084l0.122,0.162l0.231,0.326
						c0.151,0.219,0.3,0.438,0.445,0.66c0.286,0.443,0.564,0.893,0.836,1.346c0.538,0.908,1.058,1.83,1.543,2.768
						c0.484,0.939,0.959,1.887,1.398,2.85c0.439,0.963,0.86,1.936,1.263,2.916c0.783,1.971,1.507,3.973,2.112,6.016
						c0.607,2.045,1.119,4.121,1.539,6.223c0.833,4.207,1.293,8.531,1.178,12.898c-0.111,4.363-0.84,8.77-2.31,12.957
						c-0.732,2.09-1.642,4.125-2.717,6.064c-1.071,1.943-2.318,3.785-3.677,5.521c-2.74,3.465-5.992,6.471-9.539,8.963
						c-3.545,2.5-7.362,4.52-11.301,6.135c-3.941,1.613-8.002,2.844-12.124,3.695l-0.254-0.801
						c3.827-1.666,7.572-3.432,11.138-5.453c3.564-2.018,6.955-4.277,10.033-6.85c3.073-2.574,5.843-5.449,8.125-8.648
						c2.297-3.184,4.088-6.684,5.399-10.361c1.307-3.682,2.137-7.549,2.53-11.508c0.39-3.959,0.328-8.008-0.133-12.037
						c-0.228-2.016-0.558-4.027-0.961-6.029c-0.406-2.002-0.863-4.002-1.413-5.982c-0.265-0.992-0.55-1.982-0.854-2.969
						c-0.304-0.984-0.611-1.971-0.949-2.947c-0.336-0.979-0.676-1.957-1.048-2.924c-0.181-0.488-0.369-0.971-0.565-1.451
						l-0.295-0.717l-0.155-0.355l-0.078-0.17l-0.039-0.084l-0.017-0.035c-0.002-0.008-0.019-0.027,0.012,0.002L1001.502,504.967z"/>
				</g>
			</g>
			<g>
				<g>
					<g>
						<path fill="#010101" d="M1008.834,507.162c-0.041,0.105,0.188,0.33,0.728,0.564c0.536,0.232,1.396,0.447,2.509,0.453
							c1.112,0.012,2.463-0.186,3.947-0.643c1.484-0.455,3.101-1.16,4.778-2.111c1.678-0.953,3.419-2.148,5.158-3.592
							c1.738-1.447,3.479-3.139,5.11-5.125c0.813-0.994,1.597-2.064,2.316-3.232c0.716-1.166,1.375-2.432,1.87-3.844
							c0.247-0.705,0.452-1.449,0.577-2.24c0.125-0.791,0.173-1.631,0.073-2.504c-0.098-0.867-0.357-1.773-0.81-2.598
							c-0.448-0.824-1.083-1.545-1.791-2.107c-0.184-0.148-0.338-0.26-0.506-0.379c-0.167-0.115-0.335-0.232-0.509-0.34
							c-0.346-0.219-0.706-0.422-1.078-0.605c-0.744-0.367-1.541-0.648-2.36-0.82c-0.822-0.172-1.663-0.232-2.482-0.186
							c-0.818,0.045-1.613,0.193-2.362,0.412c-1.502,0.441-2.817,1.152-3.979,1.945c-1.164,0.797-2.184,1.688-3.105,2.604
							c-1.839,1.84-3.299,3.781-4.541,5.658c-1.236,1.883-2.242,3.711-3.072,5.418c-1.654,3.42-2.619,6.355-2.992,8.486
							c-0.183,1.062-0.219,1.932-0.066,2.553c0.078,0.318,0.215,0.537,0.364,0.633c0.149,0.098,0.284,0.074,0.333,0.047
							c0.049-0.029,0.017-0.07-0.017-0.189c-0.034-0.121-0.034-0.312,0.006-0.539c0.077-0.477,0.3-1.219,0.662-2.156
							c0.725-1.875,1.984-4.562,3.836-7.693c0.927-1.562,2.005-3.236,3.267-4.939c1.262-1.697,2.708-3.436,4.401-5.014
							c0.847-0.785,1.756-1.525,2.732-2.156c0.973-0.631,2.015-1.148,3.087-1.441c1.072-0.295,2.162-0.355,3.22-0.121
							c0.529,0.115,1.051,0.303,1.562,0.557c0.255,0.125,0.509,0.27,0.756,0.428c0.125,0.078,0.248,0.162,0.369,0.248
							c0.121,0.084,0.253,0.182,0.346,0.256c0.801,0.643,1.234,1.438,1.359,2.441c0.125,1.002-0.074,2.154-0.443,3.266
							c-0.371,1.119-0.901,2.213-1.502,3.248c-0.604,1.039-1.278,2.025-1.988,2.957c-1.421,1.863-2.968,3.51-4.509,4.947
							c-1.544,1.436-3.089,2.66-4.565,3.67c-1.477,1.008-2.888,1.799-4.17,2.371c-1.282,0.576-2.434,0.928-3.393,1.107
							c-0.96,0.186-1.722,0.199-2.251,0.199C1009.178,507.051,1008.876,507.047,1008.834,507.162z"/>
					</g>
				</g>
			</g>
			<g>
				<g>
					<g>
						<path fill="#010101" d="M985.411,490.955c-0.03,0.104,0.141,0.303,0.603,0.428c0.229,0.057,0.535,0.086,0.889,0.029
							c0.354-0.055,0.749-0.195,1.139-0.422c0.787-0.455,1.529-1.238,2.177-2.223c0.649-0.984,1.22-2.176,1.707-3.527
							s0.892-2.863,1.193-4.512c0.299-1.646,0.499-3.43,0.531-5.328c0.017-0.951-0.012-1.93-0.103-2.936
							c-0.093-1.008-0.247-2.043-0.518-3.105c-0.276-1.061-0.653-2.154-1.326-3.238c-0.34-0.539-0.762-1.076-1.312-1.551
							c-0.544-0.475-1.234-0.875-1.987-1.09c-0.751-0.219-1.527-0.25-2.224-0.16c-0.349,0.045-0.682,0.115-1,0.203l-0.117,0.035
							l-0.175,0.053c-0.06,0.016-0.121,0.043-0.181,0.07l-0.155,0.072c-0.159,0.076-0.316,0.158-0.468,0.248
							c-0.608,0.355-1.139,0.812-1.57,1.309c-0.434,0.498-0.774,1.027-1.051,1.559c-0.55,1.068-0.859,2.137-1.068,3.166
							c-0.206,1.029-0.303,2.027-0.347,2.99c-0.08,1.928,0.058,3.717,0.282,5.371c0.227,1.652,0.548,3.162,0.91,4.525
							c0.727,2.719,1.627,4.834,2.444,6.205c0.408,0.686,0.793,1.184,1.102,1.484C985.093,490.916,985.316,491.021,985.411,490.955
							c0.191-0.145-0.116-0.918-0.509-2.355c-0.399-1.434-0.908-3.539-1.302-6.172c-0.195-1.316-0.364-2.764-0.456-4.312
							c-0.091-1.545-0.112-3.199,0.039-4.883c0.078-0.84,0.199-1.688,0.394-2.506c0.195-0.818,0.464-1.613,0.836-2.287
							c0.371-0.676,0.837-1.199,1.375-1.504c0.067-0.037,0.137-0.072,0.208-0.105c0.007-0.004,0.021-0.01,0.021-0.01l-0.003,0.004
							c-0.002,0-0.006,0-0.002,0c0.003,0-0.004,0.002,0.009-0.004l0.066-0.018c0.176-0.047,0.346-0.08,0.507-0.1
							c0.326-0.039,0.608-0.02,0.859,0.055c0.251,0.072,0.483,0.199,0.719,0.396c0.231,0.199,0.458,0.467,0.663,0.785
							c0.413,0.639,0.729,1.447,0.964,2.283c0.236,0.84,0.396,1.717,0.507,2.59c0.111,0.875,0.172,1.75,0.2,2.607
							c0.052,1.717-0.028,3.367-0.188,4.902c-0.161,1.535-0.403,2.957-0.704,4.225c-0.3,1.266-0.661,2.381-1.063,3.297
							c-0.403,0.914-0.854,1.625-1.301,2.08C986.369,490.857,985.465,490.703,985.411,490.955z"/>
					</g>
				</g>
			</g>
			<g>
				<g>
					<g>
						<path fill="#010101" d="M1016.852,497.146c-0.121-0.197-0.897,0.012-1.997,0.645c-1.098,0.629-2.493,1.697-3.822,3.074
							c-1.336,1.373-2.36,2.773-2.999,3.848c-0.639,1.076-0.899,1.826-0.709,1.961c0.194,0.139,0.799-0.359,1.663-1.223
							c0.865-0.861,1.994-2.086,3.269-3.398c1.272-1.314,2.46-2.457,3.326-3.297
							C1016.443,497.914,1016.977,497.352,1016.852,497.146z"/>
					</g>
				</g>
			</g>
			<g>
				<g>
					<g>
						<path fill="#010101" d="M986.364,480.475c-0.23-0.041-0.528,0.402-0.777,1.172c-0.252,0.77-0.443,1.861-0.492,3.066
							c-0.05,1.209,0.04,2.293,0.191,3.074c0.152,0.781,0.366,1.262,0.602,1.262c0.235,0,0.447-0.482,0.604-1.258
							c0.158-0.773,0.26-1.84,0.308-3.006s0.043-2.217-0.017-2.992C986.722,481.018,986.598,480.514,986.364,480.475z"/>
					</g>
				</g>
			</g>
			<g>
				<g>
					<path fill="#A64A9C" d="M970.045,507.963c-0.941,0.564-1.398,1.479-1.994,2.363c-0.479,0.713-1.081,0.787-1.721,0.658
						c-0.885-0.703-2.254-1.418-3.02-0.885c-0.106,0.008-0.211,0.035-0.3,0.092c-0.218,0.137-0.312,0.34-0.381,0.564
						c-0.479,0.395-0.774,0.982-0.818,1.639c-0.047,0.709,0.262,1.299,0.838,1.709c0.115,0.082,0.259,0.16,0.415,0.238
						c0.107,0.18,0.25,0.334,0.432,0.461c0.104,0.273,0.165,0.564,0.163,0.883c-0.004,1.105-1.271,1.617-2.128,1.895
						c-0.61,0.197-1.219,0.689-1.462,1.291c-0.189,0.465-0.044,1.086-0.094,1.604c-0.099,0.182-0.19,0.367-0.283,0.553
						c-0.212,0.129-0.421,0.283-0.623,0.467c-0.556,0.51-1.001,1.143-1.469,1.73c-0.219,0.275-0.446,0.547-0.69,0.805
						c-0.127,0.133-0.539,0.402-0.478,0.412c-0.364-0.055,0.208-1.398,0.265-1.604c0.183-0.66,0.128-1.572-0.566-1.928
						c-0.774-0.396-1.949-0.471-2.722-0.016c-0.884,0.52-1.178,1.381-1.387,2.336c-0.256,1.166-0.619,2.041-1.881,2.322
						c-0.2-0.025-0.403-0.031-0.597-0.01c-0.219,0.023-0.447,0.062-0.679,0.109c-0.821-0.023-1.665-0.16-2.451-0.15
						c-2.371,0.027-3.938,1.369-4.811,3.486c-0.832,2.02-0.78,4.615-2.35,6.271c-0.05,0.051-0.102,0.1-0.155,0.146
						c-0.631,0.34-1.347,0.48-2.139,0.283c-1.598-0.398-2.049-2.172-3.317-2.988c-1.112-0.713-2.48-0.428-3.313,0.582
						c-0.584,0.707-0.729,1.648-0.724,2.57c-0.041,0-0.084,0.002-0.125,0.002c-0.333-0.17-0.68-0.307-1.065-0.354
						c-1.641-0.191-2.891,0.836-4.41,1.244c-1.636,0.439-2.855-1.008-4.162-1.867c-0.353-0.473-0.804-0.814-1.514-0.814
						c-0.791,0.004-1.58,0.598-2.257,1.332c-0.733,0.65-1.502,1.299-2.443,0.807c-1.345-0.703-2.305-2.168-3.588-3.016
						c-1.037-0.682-2.179-0.504-3.338-0.4c-1.037,0.092-1.819,0.305-2.494,0.926c-0.128,0.066-0.256,0.139-0.382,0.213
						c-0.067,0.037-0.123,0.088-0.17,0.145c-0.062,0.029-0.125,0.061-0.187,0.092c-0.825,0.412-0.101,1.646,0.72,1.234l0.062-0.029
						c0.05,0.006,0.102,0.006,0.152,0c-0.016,0.178,0.049,0.359,0.23,0.514c1.849,1.57,4.433,2.012,6.747,2.447
						c0.097,0.018,0.191,0.014,0.28-0.006c0.088,0.057,0.174,0.117,0.264,0.172c0.233,0.143,0.481,0.115,0.683,0
						c1.083,0.426,2.263,0.67,3.405,0.809c0.69,0.084,1.512,0.174,2.265,0.057c2.098,0.195,4.246,0.164,6.406,0.041
						c3.076,0.875,6.434,0.201,9.507-0.549c0.25,0.082,0.51,0.141,0.764,0.174c1.62,0.215,3.296-0.25,4.824-0.754
						c1.471-0.482,2.915-1.111,4.28-1.842c1.671-0.891,3.143-2.098,4.571-3.34c0.022-0.014,0.047-0.025,0.069-0.039
						c0.01-0.006,0.021-0.014,0.03-0.02c2.076-0.979,3.937-2.395,5.625-3.939c0.211-0.191,0.255-0.428,0.197-0.641
						c0.135-0.105,0.267-0.213,0.396-0.316c0.256,0.162,0.592,0.174,0.836-0.113c0.183-0.217,0.333-0.434,0.469-0.662
						c1.13-0.715,2.105-1.652,3.115-2.543c0.034,0,0.07-0.004,0.105-0.01c0.212,0.117,0.474,0.139,0.691-0.01
						c1.717-1.162,3.344-2.508,4.139-4.475c0.064-0.158,0.051-0.314-0.011-0.453c0.048-0.098,0.061-0.205,0.048-0.312
						c1.306-1.648,2.476-3.414,3.511-5.246c1.272-1.654,1.914-3.695,3.167-5.371C971.467,508.346,970.624,507.615,970.045,507.963z
						 M911.106,535.873c-0.012-0.01-0.025-0.02-0.036-0.029c-0.426-0.371-0.838-0.779-1.264-1.166
						c0.479,0.344,0.932,0.793,1.349,1.221C911.139,535.891,911.123,535.883,911.106,535.873z"/>
				</g>
			</g>
			<g>
				<g>
					<path fill="#A64A9C" d="M958.287,516.293c-0.219-0.242-0.594-0.26-0.866-0.113c-0.54,0.291-0.845,0.689-1.044,1.262
						c-0.063,0.182-0.05,0.342,0.008,0.473c-0.008,0.146,0.002,0.277,0.027,0.443c0.041,0.297,0.232,0.58,0.395,0.824
						c0.005,0.008,0.012,0.016,0.018,0.023c0.127,0.516,0.946,0.805,1.335,0.215C958.827,518.408,959.189,517.287,958.287,516.293z"
						/>
				</g>
			</g>
			<g>
				<g>
					<path fill="#A64A9C" d="M936.434,530.979c-0.007-0.115-0.009-0.227-0.014-0.34c-0.008-0.326-0.017-0.652-0.032-0.977
						c-0.031-0.633-0.027-1.441-0.462-1.951c-0.68-0.793-1.464,0.143-1.747,0.754c-0.489,1.064,0.202,2.246,0.834,3.104
						c0.203,0.273,0.522,0.428,0.844,0.316C936.264,531.812,936.612,531.418,936.434,530.979z"/>
				</g>
			</g>
			<g>
				<g>
					<path fill="#A64A9C" d="M980.507,516.77c0.31-0.178,0.621-0.344,0.913-0.551c0.588-0.42,0.872-0.951,0.962-1.654
						c0.182-1.432-1.296-2.121-2.437-2.301c-1.557-0.248-3.298-0.168-3.849-1.969c-0.27-0.877-1.649-0.504-1.378,0.381
						c0.121,0.391,0.281,0.74,0.477,1.047c-0.426,0.16-0.703,0.73-0.293,1.174c0.507,0.545,0.83,1.215,1.06,1.92
						c-0.02,0.039-0.038,0.08-0.053,0.123c-0.079,0.238-0.158,0.477-0.238,0.715c-0.119,0.357,0.04,0.627,0.287,0.766
						c-0.001,0.402-0.025,0.803-0.075,1.211c-0.032,0.311,0.111,0.514,0.316,0.609c0.006,0.199,0.023,0.398,0.052,0.6
						c-0.231,0.15-0.394,0.422-0.342,0.768c0.29,1.906,0.669,3.832,0.823,5.762c-0.238,1.24-0.221,2.57-0.156,3.768
						c-0.011,0.027-0.021,0.057-0.032,0.084c-0.293,0.053-0.543,0.275-0.54,0.678c0.002,0.309,0.009,0.617,0.019,0.926
						c-0.088,0.35-0.16,0.703-0.21,1.066c-0.218,1.59-0.199,3.23-0.024,4.84c-0.015,0.059-0.024,0.123-0.022,0.193
						c0.006,0.357,0.055,0.68,0.144,1.023c0.016,0.062,0.041,0.115,0.069,0.164c0.017,0.105,0.032,0.211,0.05,0.312
						c0.014,0.082,0.046,0.15,0.084,0.211c-0.011,0.045-0.022,0.092-0.032,0.137c-0.804,1.197-0.91,2.885-0.952,4.252
						c-0.005,0.178-0.007,0.357-0.009,0.537c-0.44,1.441-0.831,2.986-0.912,4.5c-0.423,1.012-0.771,2.059-1.157,3.084
						c-0.165,0.432,0.165,0.781,0.545,0.873c-0.163,0.166-0.321,0.34-0.474,0.523c-0.353,0.426-0.622,0.887-0.83,1.371
						c-0.307-0.439-1.037-0.4-1.267,0.211c-0.099,0.279-0.233,0.539-0.404,0.779c-0.255,0.414-0.036,0.803,0.3,0.973
						c-0.094,0.607-0.245,1.209-0.396,1.809c-0.139-0.004-0.285,0.027-0.417,0.088c-0.248-0.273-0.71-0.303-1.043-0.035
						c-0.967,0.777-1.65,1.947-2.026,3.195c-0.317,0.312-0.607,0.656-0.857,1.021c-0.032,0.021-0.063,0.043-0.093,0.07
						c-0.762,0.68-1.432,1.428-1.972,2.283c-0.916,0.418-1.703,1.041-2.374,1.783c-0.078-0.068-0.169-0.113-0.269-0.133
						c-0.175-0.076-0.385-0.088-0.601,0.004c-0.285,0.123-0.565,0.256-0.842,0.396c-0.116,0-0.234,0.023-0.35,0.08
						c-0.078,0.039-0.151,0.08-0.23,0.121c-0.093-0.01-0.198,0.002-0.314,0.045c-0.796,0.295-1.474,0.678-2.101,1.256
						c-0.045,0.041-0.081,0.09-0.11,0.139c-4.778,2.639-10.294,2.756-15.745,3.004c-0.365,0.016-0.731,0.035-1.097,0.057
						c-0.282-0.092-0.574-0.16-0.874-0.205c-0.525-0.08-1.014-0.023-1.474,0.121c-0.723-0.242-1.326-0.125-1.839,0.281
						c-0.434,0.008-0.869,0.012-1.304,0.004c-1.346-0.684-2.979-0.934-4.444-0.871c-0.139,0.006-0.261,0.049-0.364,0.115
						c-0.579-0.262-1.1-0.613-1.513-1.096c-0.363-0.426-0.845-0.232-1.065,0.141c-0.069-0.084-0.136-0.168-0.208-0.25
						c-1.045-1.193-2.395-1.66-3.947-1.385c-0.906,0.16-0.521,1.537,0.381,1.377c1.499-0.264,2.407,0.756,3.23,1.854
						c0.788,1.053,1.526,2.115,2.65,2.838c0.355,0.23,0.751,0.045,0.978-0.256c0.248-0.33,0.836-1.244,1.372-0.975
						c0.354,0.178,0.628,0.598,0.87,0.896c0.63,0.779,1.454,1.34,2.059,2.113c0.654,0.838,1.479,1.141,2.504,0.809
						c0.855-0.275,1.454-0.994,1.318-1.912c-0.056-0.373-0.201-0.709-0.341-1.059c-0.202-0.5-0.178-0.447,0.422-0.697
						c0.814-0.336,1.778,0.957,2.408,1.338c2.026,1.221,4.493-0.381,6.444-0.912c2.639-0.717,5.297,0.449,7.914-0.641
						c1.159-0.482,1.984-1.211,2.857-2.09c1.057-1.062,2.005-1.814,3.573-1.436c1.164,0.285,1.935,2.252,3.263,1.635
						c0.783-0.363,1.312-1.285,1.783-1.961c0.374-0.539,0.625-1.121,0.872-1.727c0.262-0.641,0.666-2.197,1.419-2.465
						c2.76-0.977,3.791-3.131,3.943-5.896c0.072-1.328,0.061-2.639,0.478-3.918c0.473-1.453,1.685-2.436,3.002-3.09
						c1.11-0.551,2.252-1.033,3.056-2.018c0.823-1.004,1.175-2.598,0.675-3.814c-0.26-0.633-0.762-1.125-1.228-1.609
						c-0.639-0.66-0.765-1.525-0.537-2.4c0.038-0.145,0.078-0.285,0.118-0.426c0.913-0.83,1.263-1.793,1.322-2.83
						c0.158-0.711,0.206-1.441,0.145-2.17c0.05-0.66-0.033-1.324-0.309-1.99c0-0.01,0-0.021,0-0.031
						c-0.007-1.459-0.769-2.912-0.417-4.379c0.145-0.604,0.397-1.172,0.694-1.727c0.545-0.854,1.13-1.699,1.509-2.627
						c0.129-0.254,0.248-0.512,0.348-0.775c0.595-1.566-0.199-2.887-0.909-4.244c-0.41-0.785-0.667-1.689-1.204-2.398
						c-0.03-0.039-0.056-0.074-0.077-0.104c0.076-0.199,0.173-0.395,0.244-0.582C980.063,517.141,980.07,517.02,980.507,516.77z"/>
				</g>
			</g>
			<g>
				<g>
					<path fill="#A64A9C" d="M983.335,543.133c-0.047-0.391-0.203-0.779-0.404-1.092c-0.05-0.076-0.109-0.135-0.174-0.186
						c-0.045-0.174-0.149-0.328-0.321-0.428c-0.077-0.045-0.161-0.072-0.248-0.086c-0.084-0.111-0.213-0.193-0.4-0.225
						c-0.179-0.029-0.361-0.039-0.539-0.029c-0.012-0.006-0.022-0.01-0.033-0.014c-0.394-0.143-0.825-0.061-1.176,0.148
						c-0.298,0.059-0.518,0.326-0.552,0.643c-0.002,0.006-0.003,0.012-0.005,0.018c-0.292,0.244-0.416,0.684-0.059,1.021
						c0.002,0.021,0.005,0.043,0.009,0.064c0.052,0.732,0.583,1.395,1.241,1.752c0.724,0.393,1.585,0.287,2.201-0.244
						c0.062-0.057,0.118-0.115,0.167-0.178c0.127-0.045,0.228-0.139,0.299-0.256C983.546,543.785,983.566,543.371,983.335,543.133z"
						/>
				</g>
			</g>
			<g>
				<g>
					<path fill="#A64A9C" d="M977.525,554.836c-0.17-0.469-0.606-0.619-1.05-0.426c-1.105,0.479-1.701,1.365-1.8,2.434
						c-0.174,0.605-0.206,1.145,0.114,1.877c0.161,0.367,0.667,0.424,0.978,0.256C977.271,558.17,978.128,556.502,977.525,554.836z"
						/>
				</g>
			</g>
			<g>
				<g>
					<path fill="#A64A9C" d="M961.202,573.164c0.063-0.328,0.142-0.652,0.151-0.988c0.014-0.467-0.466-0.811-0.904-0.689
						c-0.488,0.135-0.886,0.373-1.081,0.855c-0.009,0.02-0.014,0.043-0.021,0.066c-0.282,0.262-0.329,0.707-0.11,1.119
						c0.034,0.174,0.132,0.332,0.309,0.443c0.111,0.133,0.231,0.26,0.35,0.377c0.446,0.449,1.207,0.111,1.22-0.504
						c0.003-0.156,0.021-0.311,0.047-0.463C961.183,573.309,961.196,573.236,961.202,573.164z"/>
				</g>
			</g>
			<g>
				<g>
					<path fill="#A64A9C" d="M945.348,576.012c-0.268-0.051-0.526-0.09-0.781-0.115c-0.212-0.381-0.73-0.594-1.105-0.178
						c-0.056,0.062-0.109,0.127-0.159,0.193c-0.452,0.061-0.9,0.189-1.364,0.41c-0.635,0.303-0.36,1.092,0.174,1.271
						c-0.052,0.461,0.283,0.941,0.854,0.75c0.81-0.275,1.589-0.635,2.382-0.953C945.931,577.154,946.118,576.16,945.348,576.012z"/>
				</g>
			</g>
			<g>
				<g id="XMLID_2_">
					<g>
						<g>
							<path fill="#FFFFFF" d="M974.304,510.25c0.057,0.941,0.138,2.029,0.231,3.244c-0.155,0.516-0.333,1.174-0.543,1.953
								c-0.298,1.082-0.655,2.408-1.146,3.908c-0.49,1.5-1.115,3.18-1.986,4.936c-0.869,1.756-1.998,3.582-3.451,5.35
								c-1.451,1.766-3.228,3.465-5.298,5.016c-4.161,3.141-9.26,5.91-14.941,7.973c-7.227,2.631-14.447,3.814-20.732,4.156
								c-3.169,0.174-6.081,0.234-8.643-0.027c-1.279-0.131-2.468-0.338-3.535-0.637c-0.535-0.15-1.037-0.324-1.504-0.521
								c-0.233-0.1-0.457-0.203-0.672-0.316l-0.211-0.105c-0.051-0.027-0.105-0.053-0.153-0.084
								c-0.041-0.119-0.167-0.826-0.257-1.291l-0.273-1.408c-0.177-0.875-0.334-1.617-0.475-2.221
								c-0.074-0.314-0.14-0.59-0.205-0.824c0.336,0.113,0.68,0.223,1.029,0.328c3.94,1.197,8.88,1.947,14.341,1.66
								c5.457-0.27,11.407-1.572,17.207-4.014c5.81-2.432,10.89-5.738,15.003-9.293c4.123-3.557,7.278-7.363,9.525-10.793
								c2.253-3.438,3.618-6.482,4.395-8.625c0.242-0.678,0.431-1.266,0.571-1.752c0.56,0.031,1.091,0.135,1.581,0.287
								C974.171,507.887,974.219,508.928,974.304,510.25z"/>
						</g>
					</g>
					<g>
						<g>
							<path fill="#A01D4E" d="M975.114,522.049c0.123,2.48,0.209,5.203,0.152,8.107c-0.023,1.148-0.071,2.324-0.15,3.525
								c-0.057-0.002-0.117-0.004-0.179-0.008c-0.786-0.014-1.929,0.104-3.292,0.504c-1.355,0.4-2.93,1.09-4.485,2.178
								c-1.555,1.084-3.084,2.574-4.288,4.428c-1.209,1.848-1.954,3.855-2.312,5.711c-0.062,0.316-0.112,0.627-0.155,0.93
								c-0.645,0.094-1.496,0.365-2.389,0.922c-1.031,0.631-2.091,1.625-2.996,2.896c-0.907,1.271-1.67,2.807-2.205,4.496
								c-1.079,3.381-1.034,6.709-0.355,8.971c0.334,1.131,0.811,1.986,1.236,2.498c0.06,0.072,0.117,0.139,0.175,0.195
								c-1.515,0.537-3.04,0.967-4.546,1.305c-3.144,0.701-6.216,1.016-9.095,1.08c-0.389,0.008-0.771,0.012-1.152,0.012
								c-0.009-0.699-0.083-1.629-0.225-2.75c-0.164-1.262-0.428-2.758-0.839-4.402c-0.412-1.645-0.966-3.438-1.741-5.262
								s-1.709-3.508-2.76-4.912c-1.048-1.41-2.218-2.531-3.33-3.295c-0.195-0.135-0.388-0.26-0.579-0.371
								c5.724-0.393,12.065-1.543,18.412-3.855c5.903-2.141,11.204-5.1,15.489-8.488c2.163-1.705,4.022-3.594,5.511-5.553
								c1.494-1.957,2.613-3.977,3.432-5.887c0.82-1.91,1.351-3.707,1.73-5.295c0.262-1.107,0.452-2.113,0.598-3.002
								C974.893,518.348,975.012,520.129,975.114,522.049z"/>
						</g>
					</g>
					<g>
						<g>
							<path fill="#DA1D3F" d="M975.047,534.645c-0.12,1.539-0.295,3.115-0.543,4.721c-0.49,3.207-1.279,6.525-2.463,9.832
								c-0.294,0.83-0.614,1.654-0.962,2.479c-0.338,0.824-0.71,1.617-1.124,2.408c-0.829,1.568-1.83,3.076-2.991,4.479
								c-2.324,2.812-5.19,5.037-8.237,6.686c-1.341,0.73-2.711,1.346-4.097,1.875c-0.111-0.58-0.357-1.51-0.452-2.748
								c-0.083-1.014-0.079-2.234,0.074-3.58c0.15-1.346,0.448-2.816,0.919-4.307c0.474-1.49,1.079-2.85,1.756-3.998
								c0.676-1.146,1.424-2.07,2.143-2.75c0.427-0.406,0.841-0.727,1.21-0.98c-0.058,0.982-0.022,1.891,0.064,2.697
								c0.149,1.395,0.44,2.488,0.712,3.219c0.274,0.73,0.53,1.1,0.696,1.064c0.169-0.035,0.231-0.473,0.251-1.225
								c0.024-0.75,0.01-1.816,0.089-3.105c0.078-1.287,0.257-2.801,0.69-4.402c0.429-1.605,1.126-3.291,2.163-4.877
								c1.031-1.586,2.291-2.912,3.58-3.953c1.288-1.043,2.598-1.807,3.746-2.367C973.394,535.266,974.361,534.912,975.047,534.645z
								"/>
						</g>
					</g>
					<g>
						<g>
							<path d="M979.012,509.953c0.027,0.49-0.064,0.775-0.228,0.822c-0.166,0.051-0.383-0.137-0.671-0.479
								c-0.29-0.338-0.647-0.826-1.134-1.338c-0.484-0.51-1.098-1.033-1.867-1.426c-0.119-0.059-0.241-0.117-0.368-0.17
								c-0.208-0.984-0.364-1.502-0.464-1.49c-0.09,0.01-0.128,0.451-0.117,1.275c-0.49-0.152-1.021-0.256-1.581-0.287
								c0.303-1.068,0.376-1.666,0.269-1.701c-0.123-0.043-0.447,0.566-1.02,1.693c-0.797,0.031-1.562,0.189-2.226,0.428
								c-0.824,0.299-1.484,0.717-1.929,1.148c-0.45,0.432-0.691,0.879-0.846,1.246c-0.158,0.365-0.248,0.637-0.42,0.672
								c-0.16,0.033-0.402-0.174-0.542-0.699c-0.07-0.258-0.098-0.598-0.046-0.988c0.053-0.389,0.194-0.822,0.432-1.25
								c0.955-1.74,3.433-3.141,6.259-3.029c1.41,0.049,2.753,0.506,3.775,1.203c1.035,0.695,1.728,1.594,2.136,2.387
								C978.831,508.77,978.983,509.469,979.012,509.953z"/>
						</g>
					</g>
					<g>
						<g>
							<path d="M976.176,533.994c0.016,0.172-0.381,0.361-1.074,0.629c-0.018,0.008-0.036,0.014-0.055,0.021
								c0.026-0.32,0.051-0.643,0.069-0.963C975.793,533.713,976.163,533.84,976.176,533.994z"/>
						</g>
					</g>
					<g>
						<g>
							<path d="M938.81,571.223c0.181-0.037,0.274-0.543,0.268-1.424c0.381,0,0.763-0.004,1.152-0.012
								c2.879-0.064,5.951-0.379,9.095-1.08c1.506-0.338,3.031-0.768,4.546-1.305c0.344,0.365,0.619,0.488,0.735,0.406
								c0.111-0.08,0.096-0.311,0.023-0.686c1.385-0.529,2.755-1.145,4.097-1.875c3.047-1.648,5.913-3.873,8.237-6.686
								c1.161-1.402,2.163-2.91,2.991-4.479c0.414-0.791,0.786-1.584,1.124-2.408c0.348-0.824,0.667-1.648,0.962-2.479
								c1.184-3.307,1.973-6.625,2.463-9.832c0.248-1.605,0.424-3.182,0.543-4.721c0.02-0.008,0.038-0.014,0.055-0.021
								c0.693-0.268,1.09-0.457,1.074-0.629c-0.013-0.154-0.383-0.281-1.06-0.312c0.079-1.201,0.126-2.377,0.15-3.525
								c0.057-2.904-0.029-5.627-0.152-8.107c-0.102-1.92-0.221-3.701-0.338-5.322c0.059-0.387,0.114-0.748,0.16-1.09
								c0.295-2.256,0.333-3.512,0.171-3.541c-0.112-0.021-0.3,0.469-0.571,1.398c-0.093-1.215-0.174-2.303-0.231-3.244
								c-0.085-1.322-0.133-2.363-0.141-3.102c0.203,0.064,0.396,0.135,0.581,0.215c0.149,0.697,0.32,1.629,0.517,2.775
								c0.463,2.762,1.105,6.768,1.596,11.781c0.238,2.506,0.43,5.268,0.458,8.248c0.029,2.979-0.105,6.178-0.555,9.521
								c-0.449,3.344-1.223,6.828-2.435,10.312c-0.3,0.869-0.631,1.744-0.985,2.609c-0.353,0.871-0.76,1.754-1.205,2.615
								c-0.901,1.719-1.992,3.377-3.269,4.916c-2.549,3.082-5.695,5.494-8.994,7.24c-3.301,1.752-6.745,2.871-10.071,3.553
								c-3.332,0.678-6.556,0.926-9.559,0.9c-0.497-0.004-0.988-0.016-1.474-0.035l0.019-0.576
								C938.795,571.225,938.802,571.225,938.81,571.223z"/>
						</g>
					</g>
					<g>
						<g>
							<path d="M975.107,512.096c0.162,0.029,0.125,1.285-0.171,3.541c-0.045,0.342-0.101,0.703-0.16,1.09
								c-0.084-1.16-0.165-2.242-0.241-3.232C974.807,512.564,974.995,512.074,975.107,512.096z"/>
						</g>
					</g>
					<g>
						<g>
							<path d="M974.28,505.873c0.101-0.012,0.256,0.506,0.464,1.49c-0.185-0.08-0.378-0.15-0.581-0.215
								C974.151,506.324,974.19,505.883,974.28,505.873z"/>
						</g>
					</g>
					<g>
						<g>
							<path d="M972.851,505.16c0.107,0.035,0.034,0.633-0.269,1.701c-0.054-0.006-0.111-0.008-0.167-0.01
								c-0.194-0.008-0.391-0.008-0.584,0.002C972.404,505.727,972.728,505.117,972.851,505.16z"/>
						</g>
					</g>
					<g>
						<g>
							<path d="M972.415,506.852c0.056,0.002,0.113,0.004,0.167,0.01c-0.14,0.486-0.329,1.074-0.571,1.752
								c-0.776,2.143-2.142,5.188-4.395,8.625c-2.247,3.43-5.403,7.236-9.525,10.793c-4.113,3.555-9.193,6.861-15.003,9.293
								c-5.8,2.441-11.75,3.744-17.207,4.014c-5.461,0.287-10.401-0.463-14.341-1.66c-0.35-0.105-0.693-0.215-1.029-0.328
								c-0.176-0.67-0.309-1.016-0.396-1.006c-0.083,0.01-0.127,0.295-0.133,0.826c-3.181-1.111-5.616-2.445-7.271-3.518
								c-1.917-1.256-2.831-2.137-2.739-2.268c0.102-0.15,1.198,0.459,3.211,1.428c2.011,0.955,4.975,2.25,8.817,3.178
								c3.831,0.938,8.545,1.471,13.742,1.074c5.189-0.381,10.839-1.686,16.391-4.02c5.556-2.33,10.458-5.434,14.489-8.756
								c4.04-3.322,7.208-6.861,9.558-10.051c2.361-3.193,3.918-6.027,4.95-8.012c0.266-0.52,0.5-0.979,0.702-1.373
								C972.024,506.844,972.221,506.844,972.415,506.852z"/>
						</g>
					</g>
					<g>
						<g>
							<path d="M961.752,547.643c0.036,0.252-0.597,0.51-1.472,1.117c0.021-0.432,0.064-0.877,0.125-1.336
								c0.1-0.014,0.193-0.023,0.281-0.029C961.359,547.346,961.728,547.48,961.752,547.643z"/>
						</g>
					</g>
					<g>
						<g>
							<path d="M975.116,533.682c-0.018,0.32-0.043,0.643-0.069,0.963c-0.686,0.268-1.653,0.621-2.775,1.166
								c-1.148,0.561-2.458,1.324-3.746,2.367c-1.289,1.041-2.549,2.367-3.58,3.953c-1.037,1.586-1.734,3.271-2.163,4.877
								c-0.434,1.602-0.612,3.115-0.69,4.402c-0.079,1.289-0.064,2.355-0.089,3.105c-0.02,0.752-0.082,1.189-0.251,1.225
								c-0.166,0.035-0.422-0.334-0.696-1.064c-0.271-0.73-0.562-1.824-0.712-3.219c-0.087-0.807-0.123-1.715-0.064-2.697
								c0.875-0.607,1.508-0.865,1.472-1.117c-0.024-0.162-0.394-0.297-1.065-0.248c-0.088,0.006-0.181,0.016-0.281,0.029
								c0.043-0.303,0.093-0.613,0.155-0.93c0.359-1.855,1.103-3.863,2.312-5.711c1.203-1.854,2.732-3.344,4.288-4.428
								c1.555-1.088,3.129-1.777,4.485-2.178c1.362-0.4,2.505-0.518,3.292-0.504C975,533.678,975.059,533.68,975.116,533.682z"/>
						</g>
					</g>
					<g>
						<g>
							<path d="M960.406,547.424c-0.061,0.459-0.105,0.904-0.125,1.336c-0.369,0.254-0.784,0.574-1.21,0.98
								c-0.719,0.68-1.467,1.604-2.143,2.75c-0.677,1.148-1.282,2.508-1.756,3.998c-0.472,1.49-0.769,2.961-0.919,4.307
								c-0.152,1.346-0.157,2.566-0.074,3.58c0.095,1.238,0.341,2.168,0.452,2.748c-0.252,0.096-0.505,0.188-0.759,0.279
								c-0.058-0.057-0.115-0.123-0.175-0.195c-0.426-0.512-0.902-1.367-1.236-2.498c-0.679-2.262-0.723-5.59,0.355-8.971
								c0.535-1.689,1.298-3.225,2.205-4.496c0.905-1.271,1.965-2.266,2.996-2.896C958.91,547.789,959.761,547.518,960.406,547.424z
								"/>
						</g>
					</g>
					<g>
						<g>
							<path d="M954.63,567.123c0.072,0.375,0.088,0.605-0.023,0.686c-0.117,0.082-0.391-0.041-0.735-0.406
								C954.125,567.311,954.377,567.219,954.63,567.123z"/>
						</g>
					</g>
					<g>
						<g>
							<path d="M939.078,569.799c0.006,0.881-0.087,1.387-0.268,1.424c-0.007,0.002-0.014,0.002-0.021,0.002
								c-0.207,0-0.49-0.523-0.843-1.441C938.319,569.795,938.696,569.799,939.078,569.799z"/>
						</g>
					</g>
					<g>
						<g>
							<path d="M938.853,567.049c0.143,1.121,0.216,2.051,0.225,2.75c-0.382,0-0.759-0.004-1.133-0.016
								c-0.236-0.619-0.505-1.416-0.8-2.355c-0.762-2.373-1.708-5.666-3.149-9.076c-0.721-1.703-1.517-3.258-2.357-4.584
								c-0.838-1.326-1.727-2.41-2.562-3.236c-0.701-0.695-1.358-1.211-1.877-1.604c0.788-0.025,1.591-0.066,2.406-0.121
								c0.19,0.111,0.383,0.236,0.579,0.371c1.112,0.764,2.282,1.885,3.33,3.295c1.05,1.404,1.985,3.088,2.76,4.912
								s1.33,3.617,1.741,5.262C938.424,564.291,938.688,565.787,938.853,567.049z"/>
						</g>
					</g>
					<g>
						<g>
							<path d="M927.316,547.84c0.599,0.139,1.402,0.436,2.288,0.967c-0.814,0.055-1.618,0.096-2.406,0.121
								c-0.098-0.076-0.193-0.145-0.281-0.211c-0.548-0.41-0.87-0.668-0.814-0.836C926.155,547.723,926.584,547.676,927.316,547.84z
								"/>
						</g>
					</g>
					<g>
						<g>
							<path d="M916.762,565.18c0.087-0.162,1.5,0.486,4.11,1.42c2.609,0.922,6.458,2.098,11.343,2.742
								c1.781,0.234,3.702,0.396,5.73,0.441c0.354,0.918,0.636,1.441,0.843,1.441l-0.019,0.576c-2.447-0.092-4.731-0.359-6.822-0.73
								c-5.018-0.891-8.894-2.363-11.445-3.582c-1.279-0.609-2.232-1.16-2.856-1.564
								C917.021,565.516,916.722,565.254,916.762,565.18z"/>
						</g>
					</g>
					<g>
						<g>
							<path d="M910.716,540.174c0.141,0.604,0.297,1.346,0.475,2.221l0.273,1.408c0.09,0.465,0.216,1.172,0.257,1.291
								c0.047,0.031,0.102,0.057,0.153,0.084l0.211,0.105c0.215,0.113,0.439,0.217,0.672,0.316c0.467,0.197,0.969,0.371,1.504,0.521
								c1.066,0.299,2.255,0.506,3.535,0.637c2.562,0.262,5.473,0.201,8.643,0.027c6.285-0.342,13.505-1.525,20.732-4.156
								c5.682-2.062,10.781-4.832,14.941-7.973c2.07-1.551,3.847-3.25,5.298-5.016c1.453-1.768,2.582-3.594,3.451-5.35
								c0.872-1.756,1.497-3.436,1.986-4.936c0.491-1.5,0.848-2.826,1.146-3.908c0.21-0.779,0.388-1.438,0.543-1.953
								c0.076,0.99,0.157,2.072,0.241,3.232c-0.146,0.889-0.336,1.895-0.598,3.002c-0.379,1.588-0.911,3.385-1.73,5.295
								c-0.819,1.91-1.938,3.93-3.432,5.887c-1.489,1.959-3.349,3.848-5.511,5.553c-4.286,3.389-9.586,6.348-15.489,8.488
								c-6.347,2.312-12.688,3.463-18.412,3.855c-0.886-0.531-1.688-0.828-2.288-0.967c-0.732-0.164-1.162-0.117-1.214,0.041
								c-0.055,0.168,0.267,0.426,0.814,0.836c0.088,0.066,0.184,0.135,0.281,0.211c-0.227,0.008-0.452,0.014-0.676,0.02
								c-3.218,0.076-6.246,0.025-8.956-0.395c-1.355-0.211-2.629-0.504-3.79-0.918c-0.581-0.205-1.131-0.439-1.646-0.703
								c-0.256-0.133-0.504-0.273-0.743-0.422l-0.207-0.129c-0.079-0.053-0.158-0.102-0.239-0.158
								c-0.163-0.113-0.321-0.221-0.471-0.336c-0.117-1.01-0.144-1.371-0.196-1.918l-0.122-1.428
								c-0.068-0.891-0.119-1.648-0.147-2.27c-0.019-0.439-0.028-0.809-0.024-1.102c0.175,0.062,0.35,0.121,0.529,0.18
								C910.576,539.584,910.642,539.859,910.716,540.174z"/>
						</g>
					</g>
					<g>
						<g>
							<path d="M910.115,538.344c0.087-0.01,0.22,0.336,0.396,1.006c-0.18-0.059-0.354-0.117-0.529-0.18
								C909.987,538.639,910.032,538.354,910.115,538.344z"/>
						</g>
					</g>
				</g>
			</g>
		</g>
	</g>
	<g opacity="0.15">
		<ellipse fill="#7F7F7F" cx="970.422" cy="654.996" rx="67.424" ry="5.418"/>
	</g>
</g>
<g>
	<g id="Facebook_1_">
		<path fill="#FFFFFF" d="M944.292,90.038c0,3.581,0,19.562,0,19.562h-14.331v23.92h14.331V204.6h29.44V133.52h19.754
			c0,0,1.85-11.47,2.747-24.009c-2.572,0-22.39,0-22.39,0s0-13.919,0-16.355c0-2.444,3.209-5.732,6.383-5.732
			c3.166,0,9.85,0,16.039,0c0-3.258,0-14.512,0-24.903c-8.263,0-17.663,0-21.808,0C943.565,62.521,944.292,86.462,944.292,90.038z"
			/>
	</g>
	<g opacity="0.15">
		<ellipse fill="#FFFFFF" cx="963.113" cy="270.029" rx="33.152" ry="5.419"/>
	</g>
</g>
<g>
	<g>
		<g>
			<path fill="#A64A9C" d="M704.631,510.229c-10.643,0-20.613-4.039-28.073-11.374c-6.69-6.578-14.64-9.776-24.3-9.776
				c-11.734,0-24.611,4.671-37.064,9.188c-12.668,4.596-24.635,8.936-35.829,8.936c-2.078,0-4.093-0.156-5.987-0.465
				c-9.994-1.626-17.789-6.412-23.169-14.226c-12.56-18.239-8.497-47.908-5.948-60.638c-5.945-9.59-15.381-15.801-24.512-21.811
				c-5.807-3.822-11.805-7.77-16.825-12.546l-0.005,0.005l-0.802-0.788c0,0-0.013-0.014-0.015-0.015l1.401-1.426l-1.401,1.426
				c-0.002-0.001-1.42-1.395-1.42-1.395l-1.631-1.604c-0.285-0.281-0.676-0.664-0.879-1.159c-7.243-8.286-9.697-15.305-7.494-21.358
				c5.434-14.938,38.852-17.587,60.965-19.34c7.598-0.603,14.775-1.171,16.595-2.043c21.089-10.11,19.625-16.405,16.968-27.832
				c-1.028-4.419-2.193-9.427-2.244-15.444c-0.058-6.824,2.539-13.234,7.312-18.048c5.05-5.093,12.056-8.014,19.222-8.014
				c6.65,0,12.945,2.588,17.726,7.288c25.943,25.507,55.721,41.021,92.448,56.469c2.805,1.165,5.751,1.732,8.999,1.732
				c6.43,0,13.078-2.28,19.509-4.484c6.339-2.173,12.894-4.42,19.191-4.42c10.271,0,18.068,5.897,24.541,18.56
				c14.648,28.657-4.899,39.545-23.804,50.075c-12.103,6.741-24.617,13.712-29.241,25.399c-3.428,9.116-0.812,16.648,1.958,24.624
				c3.311,9.532,6.734,19.389,0.254,32.365C734.257,501.746,720.292,510.229,704.631,510.229z"/>
		</g>
		<g>
			<path fill="#D087BA" d="M609.494,282.482c5.766,0,11.602,2.072,16.323,6.714c26.515,26.068,57.424,41.892,93.075,56.887
				c3.247,1.348,6.509,1.889,9.774,1.889c13.249,0,26.517-8.905,38.7-8.904c8.187,0,15.886,4.022,22.76,17.47
				c22.76,44.525-40.751,42.557-53.123,73.829c-7.884,20.959,13.771,33.825,2.282,56.831c-6.811,13.64-20.677,21.031-34.655,21.031
				c-9.584,0-19.223-3.478-26.671-10.8c-7.741-7.611-16.47-10.351-25.702-10.351c-23.744,0-50.809,18.124-72.894,18.124
				c-1.929,0-3.819-0.138-5.667-0.438c-33.891-5.515-32.625-47.552-27.322-73.258c-10.066-16.955-29.823-23.383-42.701-36.044
				c-45.653-44.886,55.673-39.164,65.428-43.838c30.941-14.833,16.039-23.759,15.859-45.097
				C584.84,292.188,597.008,282.482,609.494,282.482 M500.049,391.898c0,0,0.48,0.472,1.76,1.729
				C500.88,392.714,500.049,391.898,500.049,391.898 M501.809,393.627c0.643,0.631,1.331,1.309,1.825,1.794
				C502.897,394.698,502.295,394.106,501.809,393.627 M503.634,395.422c0.014,0.014,0.026,0.026,0.04,0.04
				c0.008,0.006,0.014,0.013,0.021,0.02C503.674,395.462,503.654,395.442,503.634,395.422 M503.694,395.481
				c0.001,0.001,0.003,0.003,0.004,0.004C503.697,395.484,503.695,395.483,503.694,395.481 M503.698,395.485
				c0.001,0.001,0.003,0.003,0.004,0.004C503.701,395.488,503.699,395.487,503.698,395.485 M503.702,395.489
				c0.374,0.368,0.62,0.609,0.619,0.609C504.321,396.098,504.141,395.92,503.702,395.489 M609.494,278.482
				c-7.695,0-15.219,3.137-20.642,8.605c-5.151,5.195-7.954,12.111-7.892,19.474c0.053,6.237,1.244,11.36,2.296,15.88
				c1.262,5.427,2.174,9.348,0.661,12.86c-1.772,4.113-7.029,8.154-16.545,12.716c-1.584,0.719-9.185,1.321-15.89,1.853
				c-23.976,1.9-56.812,4.502-62.688,20.646c-2.542,6.985,0.257,14.907,8.554,24.13l2.701-2.747l-1.703,1.733l-0.998,1.014l0.001,0
				l-0.104,0.106l0.104-0.105c0,0,0.001,0.001,0.002,0.002l-0.104,0.105l1.692,1.665l0.029-0.029c0,0.001,0.001,0.002,0.002,0.002
				l-0.028,0.028l0.028-0.028c0.001,0.001,0,0.001,0.002,0.002l2.776-2.824l-2.776,2.824c0.001,0.001,0.004,0.003,0.004,0.005
				l-0.027,0.028l0.028-0.028c0.001,0.002,0.003,0.003,0.005,0.005l-0.027,0.028l0.006,0.007l0.027-0.028
				c0.003,0.002,0.005,0.004,0.008,0.007l-0.027,0.027l0.013,0.013l0.026-0.027c0.008,0.007,0.014,0.014,0.021,0.021l-0.026,0.027
				l1.044,1.026l0,0l0.781,0.769c0.001,0,0.001,0.001,0.001,0.001l2.748-2.796l-2.748,2.796c0.005,0.004,0.007,0.006,0.012,0.01
				l0.295-0.3l-0.143,0.146l-0.152,0.154l0.001,0.001l0,0c0.002,0.002,0.003,0.003,0.005,0.005l0,0c0.001,0,0.002,0.001,0.002,0.002
				l0.02,0.019l0,0l0.003,0.003l0.009,0.008l0.012,0.013l0.002,0.001l0.006,0.005l0.014,0.013l0.603,0.592l4.249,4.18l0.148-0.362
				c4.064,3.26,8.451,6.147,12.736,8.968c9.133,6.012,17.785,11.706,23.493,20.534c-2.601,13.391-6.315,42.885,6.417,61.377
				c5.701,8.279,13.943,13.349,24.494,15.065c2.002,0.325,4.124,0.49,6.31,0.49c11.546,0,24.237-4.604,36.511-9.056
				c12.291-4.458,24.999-9.068,36.383-9.068c9.109,0,16.6,3.011,22.897,9.203c7.837,7.704,18.305,11.947,29.476,11.947
				c16.424,0,31.074-8.906,38.234-23.244c6.856-13.729,3.132-24.453-0.154-33.915c-2.76-7.945-5.144-14.808-1.975-23.264
				c4.372-11.005,16.558-17.792,28.342-24.356c18.813-10.479,40.138-22.357,24.61-52.732c-6.758-13.222-15.367-19.649-26.321-19.649
				c-6.631,0-13.346,2.302-19.84,4.528c-6.275,2.151-12.764,4.376-18.86,4.376c-2.98,0-5.676-0.518-8.24-1.583
				c-36.499-15.352-66.088-30.761-91.806-56.045C623.466,281.274,616.672,278.482,609.494,278.482L609.494,278.482z"/>
		</g>
	</g>
	<g>
		<g>
			<path fill="#A64A9C" d="M638.982,538.542c-5.074,0-9.863-1.96-13.482-5.519c-7.562-7.435-7.666-19.637-0.23-27.199
				c3.645-3.707,8.516-5.749,13.716-5.749c5.075,0,9.863,1.96,13.483,5.519c7.562,7.436,7.665,19.637,0.229,27.199
				C649.054,536.5,644.183,538.542,638.982,538.542z"/>
		</g>
		<g>
			<path fill="#D087BA" d="M638.985,502.075c4.361,0,8.726,1.645,12.081,4.944c6.786,6.673,6.879,17.584,0.206,24.371
				c-3.373,3.431-7.831,5.151-12.29,5.151c-4.361,0-8.725-1.646-12.08-4.944c-6.787-6.673-6.879-17.584-0.207-24.371
				C630.068,503.795,634.525,502.075,638.985,502.075 M638.986,498.075L638.986,498.075c-5.741,0-11.119,2.254-15.144,6.347
				c-8.208,8.35-8.094,21.819,0.255,30.028c3.996,3.929,9.282,6.092,14.885,6.092c5.741,0,11.118-2.254,15.143-6.347
				c8.208-8.349,8.094-21.819-0.254-30.028C649.875,500.238,644.589,498.075,638.986,498.075L638.986,498.075z"/>
		</g>
	</g>
	<g>
		<g>
			<path fill="#A64A9C" d="M670.174,297.15c-4.102,0-7.972-1.584-10.896-4.459c-2.96-2.911-4.609-6.8-4.645-10.951
				c-0.035-4.151,1.548-8.068,4.459-11.028c2.944-2.996,6.881-4.646,11.082-4.646c4.102,0,7.972,1.583,10.896,4.459
				c6.11,6.009,6.194,15.869,0.186,21.979C678.312,295.5,674.375,297.15,670.174,297.15z"/>
		</g>
		<g>
			<path fill="#D087BA" d="M670.174,268.066c3.428,0,6.857,1.293,9.494,3.885c5.332,5.243,5.406,13.817,0.162,19.151
				c-2.65,2.695-6.152,4.047-9.656,4.047c-3.428,0-6.857-1.293-9.494-3.886c-5.332-5.243-5.406-13.817-0.162-19.15
				C663.168,269.418,666.671,268.066,670.174,268.066 M670.175,264.066L670.175,264.066c-4.743,0-9.186,1.863-12.51,5.244
				c-3.285,3.341-5.072,7.761-5.032,12.447c0.04,4.685,1.901,9.074,5.242,12.359c3.302,3.246,7.669,5.034,12.299,5.034
				c4.742,0,9.185-1.862,12.509-5.243c6.781-6.897,6.687-18.026-0.21-24.808C679.171,265.854,674.804,264.066,670.175,264.066
				L670.175,264.066z"/>
		</g>
	</g>
	<g>
		<g>
			<path fill="#A64A9C" d="M720.831,325.854c-3.074,0-5.952-1.166-8.104-3.282c-2.18-2.143-3.395-5.037-3.421-8.149
				c-0.026-3.113,1.139-6.027,3.282-8.206c2.168-2.206,5.099-3.42,8.249-3.42c3.074,0,5.953,1.166,8.105,3.282
				c2.179,2.142,3.394,5.036,3.42,8.149s-1.14,6.027-3.282,8.206C726.912,324.639,723.982,325.854,720.831,325.854
				C720.832,325.854,720.832,325.854,720.831,325.854z"/>
		</g>
		<g>
			<path fill="#D087BA" d="M720.837,304.796c2.433,0,4.865,0.901,6.703,2.708c3.718,3.655,3.77,9.809,0.114,13.526
				c-1.849,1.88-4.335,2.823-6.822,2.823c-2.433,0-4.866-0.901-6.703-2.708c-3.719-3.656-3.771-9.809-0.115-13.526
				C715.862,305.739,718.349,304.796,720.837,304.796 M720.837,300.796c-3.691,0-7.128,1.427-9.676,4.019
				c-2.517,2.56-3.887,5.978-3.855,9.625c0.031,3.646,1.459,7.041,4.02,9.558c2.527,2.486,5.904,3.855,9.507,3.855
				c3.691,0,7.127-1.427,9.675-4.019c2.517-2.56,3.886-5.978,3.855-9.625c-0.031-3.647-1.458-7.042-4.019-9.558
				C727.815,302.166,724.439,300.796,720.837,300.796L720.837,300.796z"/>
		</g>
	</g>
	<g>
		<g>
			<path fill="#A64A9C" d="M497.146,463.578c-6.88,0-13.724-3.055-19.793-8.833c-3.59-3.418-4.377-8.549-2.106-13.726
				c3.072-7.004,8.031-11.85,14.342-14.012c2.43-0.834,5.1-1.239,8.161-1.239c3.08,0,6.136,0.403,9.091,0.793l0.726,0.095
				c0.057,0.008,0.112,0.017,0.165,0.026c0.949-0.249,1.918-0.374,2.891-0.374c0.93,0,1.862,0.116,2.771,0.345
				c2.974,0.75,5.592,2.753,7.185,5.496c1.558,2.685,1.977,5.739,1.179,8.602c-3.306,11.86-10.191,19.92-18.891,22.112
				C500.982,463.338,499.057,463.578,497.146,463.578L497.146,463.578z"/>
		</g>
		<g>
			<path fill="#D087BA" d="M497.749,427.769c3.195,0,6.42,0.461,9.557,0.871c0.172,0.023,0.334,0.067,0.5,0.102
				c0.899-0.281,1.847-0.433,2.815-0.433c0.751,0,1.516,0.091,2.283,0.284c4.961,1.251,8.323,6.605,6.925,11.621
				c-2.462,8.833-7.869,18.295-17.452,20.71c-1.77,0.445-3.518,0.654-5.231,0.654c-6.907,0-13.274-3.387-18.414-8.281
				c-3.296-3.138-3.365-7.571-1.653-11.474c2.598-5.922,6.936-10.791,13.158-12.924C492.684,428.06,495.207,427.769,497.749,427.769
				 M497.749,423.769c-3.286,0-6.168,0.44-8.812,1.348c-6.852,2.349-12.219,7.57-15.522,15.101
				c-2.624,5.98-1.667,11.953,2.558,15.977c6.448,6.14,13.77,9.385,21.173,9.385c2.076,0,4.165-0.261,6.208-0.775
				c9.416-2.373,16.824-10.943,20.328-23.515c0.945-3.387,0.456-6.988-1.375-10.143c-1.861-3.206-4.932-5.551-8.425-6.432
				c-1.069-0.27-2.166-0.405-3.261-0.405c-1.005,0-2.007,0.113-2.99,0.339l-0.529-0.069
				C504.083,424.181,500.961,423.769,497.749,423.769L497.749,423.769z"/>
		</g>
	</g>
	<g>
		<g>
			<path fill="#A64A9C" d="M778.907,480.558c-0.964,0-1.929-0.088-2.869-0.261c-7.146-1.315-14.049-6.697-13.417-14.439
				c0.17-2.086,0.478-3.647,1.093-5.522c-0.301-3.734,1.347-7.5,4.312-9.915c0.408-2.346,1.494-4.502,3.111-6.147
				c2.161-2.198,5.049-3.409,8.131-3.409c3.014,0,5.918,1.146,8.177,3.225c0.065,0.056,0.281,0.224,0.502,0.396
				c0.255,0.2,0.512,0.402,0.739,0.62c0.193,0.138,0.386,0.274,0.578,0.412c0.381,0.28,0.747,0.538,1.118,0.799
				c1.294,0.909,2.76,1.939,3.893,3.284c2.068,2.456,3.237,4.351,4.313,6.989c1.621,3.979,0.411,7.472-0.851,10.434
				C794.874,473.749,787.485,480.558,778.907,480.558L778.907,480.558z"/>
		</g>
		<g>
			<path fill="#D087BA" d="M779.269,442.863c2.442,0,4.898,0.925,6.822,2.696c0.181,0.165,1.376,1.074,1.325,1.074
				c-0.017,0-0.157-0.092-0.495-0.326c-0.073-0.052-0.147-0.104-0.222-0.155c0.082,0.058,0.155,0.109,0.222,0.155
				c0.396,0.277,0.789,0.557,1.183,0.837c1.549,1.146,3.379,2.244,4.643,3.744c1.822,2.164,2.934,3.863,3.991,6.456
				c1.28,3.143,0.414,5.952-0.839,8.895c-2.817,6.616-9.673,12.318-16.991,12.318c-0.831,0-1.669-0.073-2.507-0.228
				c-5.848-1.076-12.34-5.527-11.786-12.31c0.16-1.967,0.445-3.397,1.04-5.185c0.03-0.094,0.06-0.191,0.091-0.287
				c-0.437-3.529,1.271-7.043,4.149-9.033c0.211-2.16,1.117-4.262,2.67-5.842C774.432,443.774,776.844,442.863,779.269,442.863
				 M779.269,438.863c-3.623,0-7.017,1.423-9.557,4.006c-1.733,1.765-2.947,4.021-3.511,6.484c-3.01,2.737-4.699,6.725-4.508,10.729
				c-0.586,1.859-0.893,3.484-1.066,5.613c-0.729,8.924,7.02,15.09,15.05,16.567c1.06,0.195,2.146,0.294,3.23,0.294
				c8.472,0,16.973-6.065,20.671-14.751c1.524-3.578,2.684-7.505,0.863-11.971c-1.164-2.854-2.42-4.893-4.636-7.523
				c-1.301-1.545-2.88-2.654-4.272-3.633c-0.357-0.252-0.711-0.499-1.05-0.75l-0.028-0.021l-0.028-0.02
				c-0.175-0.125-0.35-0.25-0.525-0.374c-0.268-0.248-0.522-0.448-0.719-0.603c-0.172-0.135-0.34-0.267-0.441-0.35
				C786.13,440.181,782.765,438.863,779.269,438.863L779.269,438.863z"/>
		</g>
	</g>
</g>
<g>
	<path fill="#FFFFFF" d="M574.216,383.032h20.402c3.567,0,6.379,0.725,8.439,2.175c2.059,1.45,3.088,3.582,3.088,6.395
		c0,1.392-0.261,2.582-0.783,3.567c-0.522,0.986-1.16,1.798-1.914,2.436c-0.754,0.638-1.544,1.131-2.371,1.479
		s-1.544,0.581-2.153,0.696v0.435c0.638,0.059,1.421,0.196,2.349,0.414c0.928,0.217,1.812,0.609,2.653,1.174
		c0.841,0.565,1.559,1.349,2.153,2.349c0.594,1.001,0.892,2.313,0.892,3.938s-0.334,2.994-1,4.111
		c-0.667,1.115-1.566,2.021-2.697,2.719c-1.131,0.695-2.443,1.195-3.937,1.5c-1.494,0.305-3.067,0.457-4.72,0.457h-20.402v-7.135
		h2.61v-19.575h-2.61V383.032z M591.355,397.299c0.841,0,1.472-0.217,1.892-0.652s0.631-1.145,0.631-2.131v-1.566
		c0-0.986-0.21-1.697-0.631-2.132s-1.051-0.652-1.892-0.652h-2.349v7.134H591.355z M591.66,409.74c0.84,0,1.471-0.217,1.892-0.652
		c0.42-0.436,0.631-1.145,0.631-2.131v-1.914c0-0.986-0.211-1.697-0.631-2.132c-0.421-0.435-1.052-0.653-1.892-0.653h-2.654v7.482
		H591.66z"/>
	<path fill="#FFFFFF" d="M625.416,409.74h2.61l-0.739-3.436h-5.873l-0.696,3.436h2.61v7.135h-14.877v-7.135h1.74l7.352-26.708
		h15.834l7.352,26.708h1.74v7.135h-17.052V409.74z M622.371,401.693h4.002l-1.784-8.7h-0.435L622.371,401.693z"/>
	<path fill="#FFFFFF" d="M661.348,402.998h10.439v11.266c-0.58,0.35-1.283,0.719-2.109,1.109c-0.827,0.393-1.784,0.74-2.871,1.045
		c-1.088,0.305-2.32,0.559-3.697,0.762c-1.378,0.201-2.922,0.305-4.633,0.305c-2.553,0-4.858-0.32-6.917-0.957
		c-2.06-0.639-3.813-1.654-5.264-3.045c-1.45-1.393-2.566-3.198-3.35-5.416c-0.782-2.219-1.174-4.923-1.174-8.113
		c0-3.161,0.392-5.858,1.174-8.091c0.783-2.232,1.893-4.045,3.328-5.438c1.436-1.392,3.183-2.407,5.242-3.045
		c2.059-0.637,4.35-0.957,6.873-0.957c1.739,0,3.291,0.102,4.654,0.305c1.362,0.203,2.588,0.457,3.676,0.761
		c1.087,0.305,2.044,0.652,2.871,1.044c0.826,0.392,1.559,0.761,2.196,1.109v10.875h-10.439v-3.132c0-1.131-0.247-1.95-0.74-2.458
		c-0.493-0.507-1.232-0.761-2.218-0.761c-0.986,0-1.727,0.254-2.219,0.761c-0.493,0.508-0.739,1.327-0.739,2.458v13.137
		c0,1.131,0.246,1.951,0.739,2.458c0.492,0.507,1.232,0.761,2.219,0.761c0.985,0,1.725-0.254,2.218-0.761s0.74-1.327,0.74-2.458
		V402.998z"/>
	<path fill="#FFFFFF" d="M706.457,390.166l-6.829,8.787l7.481,10.788h1.74v7.135h-12.963l-6.873-11.92v11.92h-14.79v-7.135h2.61
		v-19.575h-2.61v-7.134h14.79v11.701l7.961-11.701h11.223v7.134H706.457z"/>
</g>
<g>
	<path fill="#A64A9C" d="M784,445.5c-7.904,0-14.5,6.596-14.5,14.5s6.596,14.5,14.5,14.5s14.5-6.596,14.5-14.5
		S791.904,445.5,784,445.5z"/>
</g>
<g>
	<g>
		<path fill="#A64A9C" d="M534.648,326.149c-8.944,0-16.5-7.556-16.5-16.5s7.556-16.5,16.5-16.5c8.943,0,16.5,7.556,16.5,16.5
			S543.592,326.149,534.648,326.149z"/>
	</g>
	<g>
		<path fill="#D087BA" d="M534.648,295.149c7.904,0,14.5,6.596,14.5,14.5s-6.596,14.5-14.5,14.5s-14.5-6.596-14.5-14.5
			S526.744,295.149,534.648,295.149 M534.648,291.149c-10.028,0-18.5,8.472-18.5,18.5s8.472,18.5,18.5,18.5
			c10.027,0,18.5-8.472,18.5-18.5S544.676,291.149,534.648,291.149L534.648,291.149z"/>
	</g>
</g>
</svg>
