<?xml version="1.0" encoding="utf-8"?>
<!-- Generator: Adobe Illustrator 17.0.0, SVG Export Plug-In . SVG Version: 6.00 Build 0)  -->
<!DOCTYPE svg PUBLIC "-//W3C//DTD SVG 1.1//EN" "http://www.w3.org/Graphics/SVG/1.1/DTD/svg11.dtd">
<svg version="1.1" id="Layer_1" xmlns="http://www.w3.org/2000/svg" xmlns:xlink="http://www.w3.org/1999/xlink" x="0px" y="0px"
	 width="1584px" height="995.297px" viewBox="-155.5 -94.797 1584 995.297" enable-background="new -155.5 -94.797 1584 995.297"
	 xml:space="preserve">
<rect x="-231.5" y="-135.5" fill="#919091" width="1700" height="832.361"/>
<rect x="-231.5" y="420.708" fill="#C7C7C7" width="1700" height="523.792"/>
<g>
	<path fill="#FFFFFF" d="M125.271,129.458l23.282,8.191c-1.978,9.588-6.514,17.436-13.608,23.541
		c-7.181,6.149-17.069,9.223-29.667,9.223c-17.199,0-29.926-4.493-38.181-13.479c-8.299-8.942-12.448-19.864-12.448-32.763
		c0-12.984,4.063-24.013,12.19-33.085c8.126-9.072,18.681-13.608,31.666-13.608c10.534,0,19.112,2.602,25.733,7.804v-5.998h21.541
		v32.763H123.4c-1.161-4.084-3.118-7.309-5.869-9.674c-2.752-2.322-5.892-3.482-9.416-3.482c-9.718,0-14.576,8.363-14.576,25.088
		c0,16.769,5.03,25.153,15.092,25.153C117.444,149.128,122.991,142.572,125.271,129.458z"/>
	<path fill="#FFFFFF" d="M159.774,137.39c0-9.2,3.87-16.962,11.609-23.282s18.188-9.481,31.345-9.481
		c13.242,0,24.013,3.054,32.312,9.158c8.298,6.106,12.447,14.06,12.447,23.863c0,9.459-3.956,17.349-11.867,23.669
		s-18.359,9.48-31.344,9.48c-14.018,0-24.938-3.16-32.764-9.48C163.687,155.041,159.774,147.064,159.774,137.39z M192.603,137.52
		c0,9.975,3.568,14.962,10.706,14.962c7.567,0,11.352-5.03,11.352-15.092c0-4.6-0.926-8.168-2.773-10.706
		c-1.893-2.536-4.559-3.805-7.998-3.805c-3.396,0-6.127,1.248-8.19,3.741C193.635,129.114,192.603,132.747,192.603,137.52z"/>
	<path fill="#FFFFFF" d="M302.372,168.993h-44.823v-19.671h6.643v-50.37h-6.643V79.281h39.083v70.041h5.74V168.993z"/>
	<path fill="#FFFFFF" d="M312.434,137.39c0-9.2,3.87-16.962,11.609-23.282s18.188-9.481,31.344-9.481
		c13.243,0,24.014,3.054,32.312,9.158c8.298,6.106,12.448,14.06,12.448,23.863c0,9.459-3.957,17.349-11.867,23.669
		c-7.912,6.32-18.36,9.48-31.345,9.48c-14.018,0-24.938-3.16-32.763-9.48C316.346,155.041,312.434,147.064,312.434,137.39z
		 M345.262,137.52c0,9.975,3.568,14.962,10.706,14.962c7.566,0,11.351-5.03,11.351-15.092c0-4.6-0.925-8.168-2.773-10.706
		c-1.893-2.536-4.558-3.805-7.997-3.805c-3.397,0-6.127,1.248-8.19,3.741C346.293,129.114,345.262,132.747,345.262,137.52z"/>
	<path fill="#FFFFFF" d="M460.513,168.993h-50.435v-19.671h8.514v-23.218h-8.514v-19.671h38.826v15.672
		c1.461-3.912,3.718-7.288,6.771-10.125c2.924-2.794,5.891-4.622,8.9-5.482c2.88-0.816,7.115-1.226,12.705-1.226v27.539
		c-0.731-0.042-1.635-0.064-2.709-0.064c-6.621,0-11.544,0.667-14.769,2c-3.354,1.376-5.634,3.183-6.837,5.417
		c-1.247,2.322-1.893,5.375-1.935,9.158h9.48V168.993z"/>
	<path fill="#FFFFFF" d="M600.53,168.993H515.14v-21.477h8.063v-46.759h-8.063V79.281h51.273v21.477h-8.514v46.759h21.219v-14.382
		h21.412V168.993z"/>
	<path fill="#FFFFFF" d="M633.294,123.911l-25.411-2.58c2.795-6.148,7.31-10.469,13.544-12.963
		c6.148-2.493,15.221-3.741,27.217-3.741c4.428,0,8.395,0.14,11.899,0.419c3.504,0.28,6.632,0.699,9.384,1.258
		c5.718,1.075,9.953,2.731,12.706,4.966c2.751,2.279,4.664,4.73,5.739,7.353c1.118,2.708,1.677,6.923,1.677,12.641v18.059h7.998
		v19.671h-40.438v-4.257c-5.59,3.612-13.071,5.418-22.444,5.418c-8.814,0-15.457-1.935-19.929-5.805
		c-4.515-3.87-6.771-8.449-6.771-13.737c0-5.847,2.772-10.642,8.319-14.382c5.503-3.741,12.684-5.611,21.541-5.611
		c8.083,0,14.512,1.054,19.284,3.16v-1.871c0-3.87-0.28-6.578-0.838-8.126c-0.604-1.634-1.936-3.031-3.999-4.192
		c-2.15-1.118-4.644-1.677-7.481-1.677C640.087,117.913,636.088,119.912,633.294,123.911z M657.608,152.998v-11.416
		c-2.881-1.548-5.934-2.322-9.158-2.322c-2.838,0-5.095,0.774-6.772,2.322c-1.677,1.591-2.515,3.612-2.515,6.063
		c0,2.538,0.859,4.601,2.579,6.191c1.763,1.635,3.784,2.451,6.063,2.451C651.847,156.287,655.114,155.191,657.608,152.998z"/>
	<path fill="#FFFFFF" d="M745.837,168.993h-40.632v-19.671h8.191v-50.37h-8.32V79.281h40.761v31.151
		c5.503-3.439,12.189-5.16,20.058-5.16c9.933,0,18.145,2.838,24.637,8.513c6.492,5.676,9.739,13.394,9.739,23.154
		c0,4.816-0.785,9.18-2.354,13.092c-1.569,3.913-3.924,7.439-7.062,10.577c-6.235,6.364-14.061,9.545-23.477,9.545
		c-8.342,0-15.521-1.784-21.541-5.354V168.993z M745.579,137.455c0,9.416,3.74,14.124,11.222,14.124
		c7.095,0,10.642-4.686,10.642-14.06c0-4.472-0.989-7.89-2.967-10.255c-1.978-2.322-4.622-3.482-7.933-3.482
		c-3.526,0-6.234,1.269-8.126,3.805C746.524,130.21,745.579,133.5,745.579,137.455z"/>
</g>
<g>
	<path fill="#959597" d="M895.963,586.157c0,6.076-45.148,10.999-100.841,10.999c-55.699,0-100.847-4.922-100.847-10.999
		c0-6.07,45.148-10.998,100.847-10.998C850.815,575.158,895.963,580.087,895.963,586.157"/>
	<path fill="#FFFFFF" d="M823.391,382.573l19.777-168.68h-96.095l19.777,168.68c-41.927,12.047-72.573,50.182-72.573,95.395
		c0,54.892,45.148,99.387,100.841,99.387c55.699,0,100.847-44.494,100.847-99.387C895.964,432.755,865.318,394.619,823.391,382.573"
		/>
	<path fill="#F3E90C" d="M705.441,465.46h180.079c8.384,32.566-13.76,100.352-90.514,101.648
		C716.499,567.107,694.961,489.523,705.441,465.46"/>
	<path fill="#D9BA27" d="M885.519,465.9c0,7.448-40.314,13.489-90.037,13.489c-49.729,0-90.043-6.041-90.043-13.489
		c0-7.448,40.314-13.489,90.043-13.489C845.206,452.411,885.519,458.452,885.519,465.9"/>
	<path fill="#F5ED80" d="M761.007,490.986c-3.945,0-7.148,3.156-7.148,7.042c0,3.892,3.203,7.042,7.148,7.042
		c3.945,0,7.142-3.15,7.142-7.042C768.148,494.142,764.951,490.986,761.007,490.986"/>
	<path fill="#F5ED80" d="M773.51,513.873c-2.714,0-4.91,2.167-4.91,4.84s2.196,4.846,4.91,4.846s4.916-2.173,4.916-4.846
		S776.224,513.873,773.51,513.873"/>
	<path fill="#FFFFFF" d="M745.082,418.67c0,0-0.324,0.283-0.93,0.813c-0.595,0.542-1.49,1.313-2.602,2.338
		c-0.283,0.253-0.577,0.524-0.883,0.807c-0.289,0.3-0.589,0.612-0.907,0.936c-0.636,0.653-1.301,1.377-2.025,2.143
		c-0.359,0.389-0.748,0.772-1.113,1.195c-0.353,0.43-0.724,0.878-1.095,1.331c-0.748,0.919-1.537,1.884-2.332,2.914
		c-0.748,1.066-1.525,2.178-2.326,3.327c-0.206,0.289-0.412,0.577-0.606,0.877c-0.177,0.306-0.359,0.618-0.542,0.93
		c-0.371,0.624-0.742,1.26-1.119,1.908c-0.365,0.648-0.789,1.284-1.119,1.978c-0.341,0.689-0.689,1.384-1.036,2.084
		c-0.347,0.707-0.724,1.407-1.03,2.149c-0.3,0.747-0.601,1.495-0.907,2.255c-0.294,0.759-0.642,1.513-0.895,2.302
		c-0.259,0.789-0.518,1.584-0.783,2.384c-0.571,1.59-0.936,3.256-1.354,4.922c-0.1,0.418-0.218,0.83-0.3,1.254l-0.147,0.795
		c1.272-0.282,2.614-0.553,4.021-0.818c0.029-0.147,0.065-0.295,0.1-0.448c0.377-1.584,0.665-3.179,1.148-4.704
		c0.218-0.772,0.436-1.537,0.648-2.296c0.212-0.765,0.518-1.49,0.765-2.232c0.259-0.73,0.518-1.46,0.777-2.184
		c0.271-0.713,0.595-1.402,0.871-2.102c0.294-0.695,0.577-1.378,0.86-2.061c0.271-0.683,0.642-1.313,0.948-1.961
		c0.318-0.648,0.636-1.278,0.948-1.908c0.159-0.312,0.312-0.624,0.465-0.93c0.171-0.3,0.341-0.594,0.512-0.889
		c0.671-1.177,1.325-2.32,1.949-3.415c0.695-1.06,1.36-2.072,1.99-3.038c0.312-0.489,0.618-0.96,0.913-1.419
		c0.312-0.454,0.642-0.871,0.942-1.289c0.618-0.83,1.201-1.602,1.725-2.338c0.265-0.359,0.518-0.712,0.76-1.042
		c0.259-0.318,0.512-0.624,0.748-0.907c0.954-1.148,1.684-2.072,2.19-2.697C744.817,419.006,745.082,418.67,745.082,418.67"/>
	<path fill="#F4EC5F" d="M719.731,473.193c0,0.383,0.006,0.772,0.006,1.154c0.047,0.86,0.094,1.719,0.141,2.573
		c0.047,1.713,0.318,3.391,0.495,5.057c0.112,0.824,0.259,1.649,0.389,2.461c0.13,0.813,0.253,1.625,0.43,2.42
		c0.165,0.795,0.33,1.584,0.489,2.361c0.159,0.783,0.377,1.542,0.571,2.302c0.371,1.513,0.836,2.967,1.26,4.392
		c0.901,2.826,1.878,5.458,2.909,7.831c0.989,2.391,2.049,4.51,3.02,6.365c0.971,1.861,1.908,3.433,2.697,4.71
		c1.59,2.55,2.667,3.898,2.667,3.898s-0.188-0.389-0.542-1.107c-0.359-0.712-0.836-1.784-1.443-3.144
		c-0.601-1.36-1.278-3.032-2.031-4.952c-0.736-1.931-1.519-4.115-2.29-6.524c-0.789-2.402-1.49-5.046-2.208-7.831
		c-0.318-1.407-0.677-2.844-0.936-4.333c-0.135-0.742-0.294-1.484-0.43-2.243c-0.124-0.759-0.247-1.525-0.377-2.296
		c-0.141-0.772-0.224-1.555-0.324-2.343c-0.088-0.783-0.2-1.578-0.277-2.379c-0.059-0.801-0.124-1.602-0.183-2.414l-0.1-1.213
		l-0.053-1.225c-0.035-0.813-0.065-1.637-0.1-2.455c0-0.082,0-0.171,0-0.253C722.186,473.741,720.926,473.47,719.731,473.193"/>
	<path fill="#DFC452" d="M725.049,457.496c-1.407,0.265-2.744,0.536-4.016,0.813l-0.088,0.483c-0.153,0.848-0.306,1.702-0.459,2.561
		c-0.141,0.854-0.212,1.725-0.324,2.585c-0.082,0.871-0.236,1.731-0.265,2.602c-0.071,1.743-0.224,3.48-0.177,5.217
		c0.006,0.477,0.006,0.96,0.012,1.436c1.195,0.277,2.455,0.548,3.78,0.813c0.006-0.742,0.012-1.478,0.018-2.22
		c-0.029-1.654,0.141-3.309,0.23-4.963c0.029-0.824,0.165-1.643,0.241-2.467c0.1-0.824,0.159-1.649,0.289-2.461
		c0.135-0.813,0.271-1.625,0.406-2.438l0.194-1.213C724.931,457.991,724.99,457.744,725.049,457.496"/>
	<path fill="#201D1E" d="M829.74,378.308c4.569,1.266,9.055,2.867,13.442,4.734c5.87,2.555,11.511,5.664,16.863,9.238
		c10.704,7.165,20.042,16.397,27.573,26.966c7.448,10.627,12.953,22.668,16.133,35.351c1.619,6.341,2.561,12.806,2.938,19.4
		c0.377,6.465,0.171,13.089-0.63,19.601c-3.044,26.201-16.504,51.153-36.74,68.693c-10.086,8.808-21.844,15.785-34.485,20.531
		c-12.618,4.722-26.283,7.118-39.619,7.148c-13.66-0.018-27.096-2.402-39.796-7.113c-12.653-4.74-24.423-11.705-34.52-20.513
		c-20.26-17.528-33.755-42.487-36.828-68.705c-0.801-6.512-1.019-13.165-0.648-19.659c0.371-6.542,1.307-13.053,2.92-19.395
		c3.174-12.7,8.673-24.764,16.127-35.415c7.531-10.592,16.875-19.848,27.59-27.037c5.358-3.586,11.01-6.706,16.886-9.273
		c5.9-2.52,11.988-4.563,18.211-5.947l0.018-0.006l-4.275,6.341l-16.521-169.04v-0.012l-0.483-2.826l3.179-0.159l96.083-4.857h0.006
		l8.667,0.088l-1.066,8.314L829.74,378.308z M817.199,386.375l18.37-173.349l7.595,8.402h-0.006l-96.083-4.858l2.703-2.991v0.012
		l23.021,168.303l0.648,4.763l-4.922,1.578l-0.018,0.006c-21.255,7.631-39.307,22.333-50.323,40.926
		c-11.24,18.458-15.179,40.561-11.687,61.328c1.778,10.363,5.411,20.336,10.628,29.398c5.252,9.044,12.064,17.193,20.113,23.893
		c16.009,13.489,36.94,21.055,57.813,20.949c10.675,0.041,21.025-1.778,30.899-5.352c9.868-3.521,19.059-8.861,27.108-15.562
		c8.06-6.7,14.884-14.855,20.148-23.899c5.222-9.073,8.873-19.053,10.657-29.427c0.877-5.199,1.301-10.439,1.236-15.803
		c-0.047-5.228-0.595-10.557-1.537-15.767c-1.902-10.457-5.794-20.607-11.369-29.863c-11.022-18.635-29.109-33.384-50.412-41.044
		L817.199,386.375z"/>
	<path fill="#FFFFFF" d="M1158.825,354.617l20.937-112.875h-101.754l20.937,112.875c-44.4,12.759-76.854,53.144-76.854,101.023
		c0,58.13,47.815,105.251,106.793,105.251c58.984,0,106.793-47.121,106.793-105.251
		C1235.679,407.761,1203.231,367.376,1158.825,354.617"/>
	<path fill="#959597" d="M1201.871,569.666c0,6.813-32.677,12.329-72.986,12.329s-72.985-5.517-72.985-12.329
		c0-6.806,32.677-12.329,72.985-12.329S1201.871,562.86,1201.871,569.666"/>
	<path fill="#3B54A2" d="M1033.534,441.299h190.701c8.885,34.491-14.567,106.276-95.848,107.642
		C1045.245,548.94,1022.436,466.781,1033.534,441.299"/>
	<path fill="#243D7A" d="M1223.694,441.146c0,7.866-42.569,14.243-95.077,14.243c-52.514,0-95.083-6.376-95.083-14.243
		c0-7.866,42.569-14.242,95.083-14.242C1181.125,426.904,1223.694,433.28,1223.694,441.146"/>
	<path fill="#767EBB" d="M1092.378,468.334c-4.18,0-7.566,3.339-7.566,7.454c0,4.121,3.385,7.46,7.566,7.46
		c4.18,0,7.566-3.339,7.566-7.46C1099.944,471.672,1096.559,468.334,1092.378,468.334"/>
	<path fill="#3B54A2" d="M1125.96,404.23c0,4.122-3.391,7.46-7.572,7.46c-4.174,0-7.566-3.339-7.566-7.46
		c0-4.115,3.391-7.454,7.566-7.454C1122.569,396.776,1125.96,400.114,1125.96,404.23"/>
	<path fill="#3B54A2" d="M1127.683,386.257c0,1.925-1.584,3.486-3.533,3.486c-1.955,0-3.539-1.56-3.539-3.486
		c0-1.925,1.584-3.485,3.539-3.485C1126.099,382.771,1127.683,384.331,1127.683,386.257"/>
	<path fill="#767EBB" d="M1105.62,492.57c-2.873,0-5.205,2.296-5.205,5.129s2.332,5.128,5.205,5.128s5.205-2.296,5.205-5.128
		S1108.493,492.57,1105.62,492.57"/>
	<path fill="#767EBB" d="M1088.7,509.136c0.218,2.037,0.383,4.092,0.5,6.159c0.512-0.795,0.813-1.743,0.813-2.756
		C1090.013,511.232,1089.519,510.043,1088.7,509.136"/>
	<path fill="#FFFFFF" d="M1071.416,393.897c0,0-0.347,0.312-1.001,0.889c-0.648,0.595-1.619,1.443-2.82,2.562
		c-0.3,0.277-0.618,0.571-0.954,0.883c-0.312,0.324-0.636,0.666-0.977,1.025c-0.689,0.712-1.413,1.501-2.196,2.337
		c-0.383,0.424-0.801,0.842-1.195,1.307c-0.389,0.471-0.783,0.954-1.189,1.454c-0.807,0.995-1.66,2.049-2.52,3.174
		c-0.807,1.16-1.649,2.367-2.514,3.621c-0.218,0.318-0.442,0.63-0.654,0.954c-0.194,0.336-0.394,0.677-0.589,1.013
		c-0.4,0.683-0.801,1.378-1.207,2.078c-0.394,0.707-0.86,1.395-1.213,2.149c-0.365,0.747-0.742,1.507-1.119,2.273
		c-0.377,0.765-0.783,1.531-1.113,2.337c-0.324,0.807-0.654,1.625-0.983,2.449c-0.318,0.824-0.695,1.643-0.966,2.502
		c-0.283,0.854-0.565,1.719-0.848,2.591c-0.071,0.2-0.141,0.4-0.206,0.6c1.03,0.901,2.043,1.808,3.05,2.732
		c0.182-0.789,0.383-1.572,0.624-2.338c0.235-0.842,0.477-1.672,0.712-2.502c0.23-0.83,0.565-1.619,0.836-2.426
		c0.288-0.801,0.571-1.596,0.854-2.379c0.294-0.783,0.648-1.531,0.954-2.291c0.318-0.754,0.636-1.507,0.948-2.243
		c0.288-0.748,0.695-1.431,1.03-2.137c0.353-0.7,0.701-1.395,1.042-2.072c0.171-0.341,0.341-0.677,0.512-1.013
		c0.188-0.33,0.377-0.648,0.559-0.971c0.736-1.284,1.454-2.52,2.137-3.715c0.742-1.154,1.495-2.237,2.178-3.297
		c0.347-0.524,0.677-1.042,1.007-1.543c0.336-0.489,0.701-0.942,1.03-1.395c0.671-0.901,1.313-1.737,1.89-2.532
		c0.288-0.395,0.565-0.772,0.83-1.136c0.288-0.342,0.559-0.666,0.818-0.977c1.048-1.242,1.849-2.243,2.408-2.921
		C1071.121,394.262,1071.416,393.897,1071.416,393.897"/>
	<path fill="#FFFFFF" d="M1119.549,401.754c0,1.725-1.419,3.126-3.174,3.126c-1.749,0-3.168-1.401-3.168-3.126
		c0-1.725,1.419-3.126,3.168-3.126C1118.13,398.628,1119.549,400.03,1119.549,401.754"/>
	<path fill="#FFFFFF" d="M1122.402,405.763c0,0.489-0.4,0.883-0.895,0.883c-0.495,0-0.895-0.395-0.895-0.883
		c0-0.488,0.4-0.883,0.895-0.883C1122.002,404.88,1122.402,405.274,1122.402,405.763"/>
	<path fill="#FFFFFF" d="M1124.149,385.263c0,0.718-0.595,1.301-1.325,1.301s-1.319-0.583-1.319-1.301
		c0-0.718,0.589-1.301,1.319-1.301S1124.149,384.545,1124.149,385.263"/>
	<path fill="#201D1E" d="M1166.177,348.915c4.557,1.289,9.044,2.879,13.43,4.728c6.247,2.702,12.253,6,17.952,9.78
		c11.399,7.601,21.355,17.399,29.38,28.632c7.949,11.293,13.825,24.111,17.234,37.606c1.737,6.759,2.75,13.63,3.156,20.66
		c0.406,6.877,0.194,13.937-0.648,20.878c-3.209,27.908-17.528,54.516-39.083,73.215c-10.74,9.403-23.269,16.839-36.74,21.903
		c-13.448,5.034-28.02,7.595-42.222,7.619c-14.566-0.012-28.88-2.555-42.416-7.583c-13.477-5.052-26.024-12.482-36.775-21.873
		c-21.579-18.694-35.939-45.307-39.184-73.245c-0.848-6.936-1.072-14.025-0.659-20.937c0.394-6.965,1.401-13.901,3.132-20.654
		c3.397-13.519,9.273-26.354,17.222-37.676c8.031-11.258,17.993-21.084,29.404-28.709c5.705-3.797,11.723-7.106,17.981-9.821
		c6.276-2.655,12.753-4.816,19.365-6.265h0.018l-4.722,7.537l-19.854-113.058v-0.012l-1.542-6.082l7.059-0.448l101.73-6.418h0.006
		l15.096,0.724l-3.174,13.377L1166.177,348.915z M1151.398,357.711l16.08-119.217l11.923,14.101h-0.006l-101.73-6.418l5.529-6.529
		v0.012l22.009,112.67l1.125,5.729l-5.847,1.813l-0.012,0.006c-22.391,8.143-41.362,23.687-52.902,43.299
		c-11.787,19.459-15.868,42.71-12.164,64.536c1.878,10.887,5.717,21.361,11.204,30.882c5.529,9.491,12.688,18.046,21.149,25.076
		c16.821,14.16,38.795,22.091,60.698,21.979c11.222,0.047,22.079-1.867,32.448-5.617c10.357-3.686,20.013-9.291,28.468-16.321
		c8.473-7.03,15.644-15.585,21.184-25.088c5.499-9.521,9.35-20.007,11.246-30.905c0.936-5.47,1.39-10.975,1.331-16.615
		c-0.041-5.499-0.607-11.11-1.584-16.592c-1.978-11.004-6.041-21.691-11.887-31.453c-11.552-19.659-30.552-35.256-52.996-43.428
		L1151.398,357.711z"/>
	<path fill="#959597" d="M1079.936,652.669c0,5.505-48.616,9.968-108.589,9.968c-59.968,0-108.583-4.463-108.583-9.968
		c0-5.505,48.616-9.962,108.583-9.962C1031.32,642.707,1079.936,647.164,1079.936,652.669"/>
	<path fill="#FFFFFF" d="M999.881,404.454l24.387-274.484H905.752l24.393,274.484c-51.713,14.861-89.513,61.893-89.513,117.662
		c0,67.692,55.687,122.573,124.38,122.573c68.693,0,124.375-54.88,124.375-122.573
		C1089.388,466.347,1051.594,419.315,999.881,404.454"/>
	<path fill="#E82928" d="M983.085,442.617c0,4.799-3.945,8.685-8.814,8.685c-4.869,0-8.814-3.886-8.814-8.685
		c0-4.798,3.945-8.684,8.814-8.684C979.14,433.933,983.085,437.819,983.085,442.617"/>
	<path fill="#E82928" d="M1003.633,161.984c0,4.799-3.945,8.685-8.814,8.685c-4.863,0-8.814-3.886-8.814-8.685
		c0-4.798,3.951-8.684,8.814-8.684C999.688,153.3,1003.633,157.186,1003.633,161.984"/>
	<path fill="#E82928" d="M967.714,270.238c0,4.799-3.945,8.691-8.814,8.691c-4.863,0-8.814-3.892-8.814-8.691
		c0-4.798,3.951-8.684,8.814-8.684C963.769,261.554,967.714,265.44,967.714,270.238"/>
	<path fill="#E82928" d="M967.497,399.875c0,6.388-5.252,11.564-11.734,11.564s-11.734-5.176-11.734-11.564
		c0-6.388,5.252-11.558,11.734-11.558S967.497,393.487,967.497,399.875"/>
	<path fill="#E82928" d="M994.819,298.003c0,6.388-5.252,11.57-11.734,11.57s-11.734-5.181-11.734-11.57
		c0-6.382,5.252-11.558,11.734-11.558S994.819,291.621,994.819,298.003"/>
	<path fill="#E82928" d="M964.961,468.615c0,3.298-2.714,5.97-6.059,5.97c-3.35,0-6.059-2.673-6.059-5.97
		c0-3.297,2.708-5.97,6.059-5.97C962.247,462.645,964.961,465.318,964.961,468.615"/>
	<path fill="#E82928" d="M851.009,504.986h228.925c10.669,41.403-17.487,128.944-115.06,130.586
		C865.069,635.572,837.679,535.579,851.009,504.986"/>
	<path fill="#C22629" d="M1079.936,505.545c0,9.474-51.248,17.146-114.465,17.146s-114.459-7.672-114.459-17.146
		c0-9.467,51.242-17.145,114.459-17.145S1079.936,496.077,1079.936,505.545"/>
	<path fill="#D37159" d="M1014.848,500.658c-17.54,0-31.765,2.697-31.765,6.023c0,3.333,14.225,6.029,31.765,6.029
		c17.54,0,31.759-2.697,31.759-6.029C1046.607,503.355,1032.388,500.658,1014.848,500.658"/>
	<path fill="#FFFFFF" d="M893.363,451.304c0,0-0.371,0.336-1.072,0.96c-0.689,0.636-1.719,1.554-3.003,2.761
		c-0.324,0.294-0.659,0.612-1.019,0.942c-0.336,0.353-0.683,0.724-1.048,1.107c-0.73,0.765-1.501,1.613-2.337,2.514
		c-0.412,0.453-0.86,0.907-1.278,1.401c-0.412,0.506-0.836,1.03-1.266,1.56c-0.866,1.077-1.772,2.208-2.697,3.409
		c-0.86,1.248-1.755,2.544-2.679,3.892c-0.23,0.336-0.471,0.671-0.695,1.019c-0.206,0.359-0.418,0.724-0.63,1.089
		c-0.424,0.73-0.854,1.472-1.289,2.226c-0.218,0.371-0.436,0.754-0.659,1.136c-0.224,0.377-0.442,0.765-0.63,1.172
		c-0.394,0.801-0.795,1.607-1.195,2.426c-0.4,0.824-0.836,1.643-1.189,2.508c-0.347,0.865-0.695,1.737-1.048,2.62
		c-0.336,0.889-0.736,1.766-1.03,2.685c-0.3,0.919-0.601,1.843-0.901,2.773c-0.665,1.843-1.083,3.78-1.566,5.717
		c-0.112,0.489-0.253,0.971-0.347,1.46l-0.082,0.454c1.284-0.342,2.644-0.677,4.074-1.001c0.012-0.041,0.024-0.082,0.029-0.124
		c0.442-1.855,0.789-3.721,1.354-5.511c0.259-0.901,0.518-1.796,0.771-2.685s0.606-1.743,0.901-2.603
		c0.312-0.86,0.618-1.713,0.919-2.555c0.141-0.43,0.347-0.824,0.512-1.236c0.177-0.406,0.347-0.813,0.518-1.219
		c0.347-0.813,0.683-1.613,1.019-2.408c0.159-0.4,0.347-0.783,0.548-1.16c0.188-0.382,0.383-0.759,0.571-1.136
		c0.377-0.747,0.754-1.49,1.125-2.219c0.182-0.365,0.365-0.724,0.548-1.083c0.2-0.348,0.406-0.695,0.601-1.036
		c0.801-1.378,1.566-2.702,2.308-3.98c0.795-1.242,1.613-2.402,2.349-3.533c0.371-0.565,0.73-1.113,1.083-1.648
		c0.365-0.53,0.754-1.013,1.113-1.496c0.724-0.966,1.413-1.86,2.031-2.708c0.312-0.418,0.612-0.824,0.901-1.213
		c0.306-0.365,0.606-0.713,0.883-1.048c1.13-1.325,1.99-2.391,2.591-3.115C893.045,451.693,893.363,451.304,893.363,451.304"/>
	<path fill="#EF5D42" d="M864.098,513.515c0.006,0.913,0.006,1.826,0.012,2.732c0.053,1.001,0.112,2.002,0.165,2.991
		c0.053,1.996,0.359,3.945,0.559,5.882c0.13,0.966,0.3,1.92,0.447,2.867c0.147,0.948,0.289,1.89,0.495,2.815
		c0.183,0.93,0.371,1.843,0.553,2.756c0.188,0.907,0.436,1.796,0.659,2.673c0.418,1.766,0.96,3.462,1.443,5.122
		c1.03,3.297,2.149,6.365,3.333,9.138c1.136,2.785,2.349,5.264,3.462,7.436c1.113,2.173,2.184,4.016,3.091,5.511
		c0.907,1.501,1.684,2.638,2.214,3.409c0.53,0.777,0.842,1.166,0.842,1.166s-0.235-0.436-0.648-1.272
		c-0.43-0.83-1.001-2.072-1.725-3.65c-0.718-1.578-1.531-3.521-2.426-5.758c-0.871-2.243-1.813-4.787-2.732-7.595
		c-0.936-2.803-1.784-5.882-2.632-9.138c-0.377-1.643-0.807-3.321-1.119-5.058c-0.165-0.865-0.359-1.737-0.512-2.62
		c-0.147-0.889-0.3-1.784-0.453-2.685c-0.165-0.901-0.265-1.819-0.383-2.738c-0.106-0.924-0.241-1.849-0.336-2.785
		c-0.071-0.936-0.147-1.878-0.224-2.826c-0.035-0.471-0.077-0.942-0.118-1.419l-0.059-1.431c-0.041-0.96-0.082-1.919-0.124-2.879
		c0-0.548,0.006-1.095,0.012-1.643C866.559,514.187,865.293,513.857,864.098,513.515"/>
	<path fill="#CB563F" d="M869.778,496.133c-1.431,0.324-2.791,0.66-4.074,1.001l-0.188,1.03c-0.177,0.989-0.353,1.978-0.53,2.973
		c-0.165,1.001-0.247,2.008-0.377,3.015c-0.094,1.007-0.265,2.007-0.306,3.02c-0.082,2.026-0.265,4.045-0.206,6.059
		c0,0.094,0,0.188,0,0.282c1.195,0.341,2.461,0.671,3.798,1.001c0-0.418,0.006-0.836,0.006-1.248
		c-0.029-1.937,0.171-3.874,0.265-5.811c0.035-0.966,0.194-1.925,0.283-2.891c0.118-0.96,0.188-1.931,0.341-2.879
		c0.159-0.954,0.318-1.908,0.477-2.856l0.23-1.419C869.572,496.981,869.684,496.557,869.778,496.133"/>
	<path fill="#FFFFFF" d="M994.819,157.371c0,1.378-1.13,2.497-2.532,2.497c-1.396,0-2.532-1.119-2.532-2.497
		c0-1.377,1.136-2.496,2.532-2.496C993.689,154.875,994.819,155.993,994.819,157.371"/>
	<path fill="#FFFFFF" d="M958.715,265.789c0,1.59-1.307,2.879-2.92,2.879s-2.92-1.289-2.92-2.879c0-1.589,1.307-2.879,2.92-2.879
		S958.715,264.199,958.715,265.789"/>
	<path fill="#FFFFFF" d="M983.085,293.056c0,2.249-1.849,4.069-4.127,4.069c-2.284,0-4.133-1.819-4.133-4.069
		c0-2.249,1.849-4.068,4.133-4.068C981.236,288.987,983.085,290.807,983.085,293.056"/>
	<path fill="#FFFFFF" d="M986.972,297.79c0,0.824-0.677,1.496-1.519,1.496c-0.836,0-1.513-0.671-1.513-1.496
		c0-0.824,0.677-1.495,1.513-1.495C986.295,296.294,986.972,296.966,986.972,297.79"/>
	<path fill="#FFFFFF" d="M956.331,395.476c0,2.432-2.002,4.404-4.469,4.404c-2.461,0-4.463-1.973-4.463-4.404
		c0-2.431,2.002-4.398,4.463-4.398C954.329,391.078,956.331,393.045,956.331,395.476"/>
	<path fill="#FFFFFF" d="M957.984,400.973c0,0.607-0.501,1.095-1.113,1.095c-0.612,0-1.107-0.489-1.107-1.095
		c0-0.606,0.495-1.095,1.107-1.095C957.484,399.878,957.984,400.366,957.984,400.973"/>
	<path fill="#FFFFFF" d="M975.17,439.799c0,1.56-1.284,2.82-2.862,2.82c-1.584,0-2.867-1.26-2.867-2.82
		c0-1.56,1.284-2.82,2.867-2.82C973.887,436.979,975.17,438.239,975.17,439.799"/>
	<path fill="#FFFFFF" d="M976.523,443.729c0,0.612-0.5,1.113-1.125,1.113c-0.624,0-1.13-0.501-1.13-1.113
		c0-0.612,0.506-1.107,1.13-1.107C976.022,442.622,976.523,443.117,976.523,443.729"/>
	<path fill="#FFFFFF" d="M960.475,467.682c0,1.666-1.372,3.009-3.056,3.009c-1.69,0-3.056-1.343-3.056-3.009
		c0-1.666,1.366-3.014,3.056-3.014C959.103,464.667,960.475,466.016,960.475,467.682"/>
	<path fill="#201D1E" d="M1005.522,400.692c6.023,1.761,11.929,3.933,17.646,6.541c7.03,3.244,13.766,7.13,20.119,11.575
		c12.706,8.891,23.757,20.142,32.536,32.96c8.743,12.847,15.12,27.314,18.711,42.469c3.609,15.167,4.298,30.964,2.279,46.449
		c-2.031,15.497-6.959,30.67-14.519,44.465c-7.531,13.813-17.593,26.277-29.557,36.652c-11.964,10.38-25.895,18.558-40.838,24.105
		c-14.914,5.552-30.982,8.402-46.814,8.425c-16.068-0.012-31.965-2.85-46.944-8.39c-14.949-5.54-28.892-13.707-40.867-24.081
		c-11.976-10.368-22.05-22.839-29.598-36.652c-7.578-13.795-12.518-28.974-14.561-44.482c-2.037-15.497-1.354-31.306,2.243-46.49
		c3.58-15.173,9.956-29.663,18.7-42.534c8.779-12.835,19.836-24.105,32.554-33.025c6.353-4.451,13.095-8.349,20.13-11.605
		c7.048-3.226,14.378-5.817,21.856-7.748l0.029-0.006l-3.886,5.6l-23.41-274.556v-0.018l-0.612-4.534l5.034-0.224l118.504-5.282
		h0.012l10.851,0.177l-1.089,10.327L1005.522,400.692z M994.388,408.093l20.119-278.965l9.762,10.498h-0.012l-118.504-5.281
		l4.428-4.757v0.012l25.365,274.391l0.4,4.327l-4.28,1.272l-0.029,0.006c-6.73,2.167-13.248,4.922-19.447,8.219
		c-6.206,3.274-12.117,7.077-17.616,11.358c-11.016,8.561-20.496,18.953-27.767,30.646c-14.778,23.28-20.395,51.63-16.162,78.461
		c2.108,13.395,6.653,26.36,13.295,38.171c6.659,11.805,15.479,22.409,25.877,31.164c10.392,8.761,22.297,15.767,35.109,20.425
		c12.765,4.687,26.495,7.048,40.043,7.007c13.783,0.047,27.343-2.308,40.167-6.989c12.818-4.651,24.729-11.658,35.127-20.419
		c10.41-8.755,19.241-19.359,25.906-31.17c6.653-11.817,11.205-24.794,13.324-38.2c4.245-26.854-1.36-55.234-16.15-78.555
		c-7.283-11.705-16.769-22.121-27.797-30.699c-5.511-4.286-11.422-8.102-17.646-11.381c-6.206-3.309-12.735-6.07-19.477-8.237
		L994.388,408.093z"/>
</g>
</svg>
